<?xml version="1.0" encoding="utf-8"?>
<!-- Generator: Adobe Illustrator 16.0.0, SVG Export Plug-In . SVG Version: 6.00 Build 0)  -->
<!DOCTYPE svg PUBLIC "-//W3C//DTD SVG 1.1//EN" "http://www.w3.org/Graphics/SVG/1.1/DTD/svg11.dtd">
<svg version="1.1" id="Layer_1" xmlns="http://www.w3.org/2000/svg" xmlns:xlink="http://www.w3.org/1999/xlink" x="0px" y="0px"
	 width="54.844px" height="10.5px" viewBox="0 0 54.844 10.5" enable-background="new 0 0 54.844 10.5" xml:space="preserve">
<g>
	<linearGradient id="SVGID_1_" gradientUnits="userSpaceOnUse" x1="1.1267" y1="5.2998" x2="51.9602" y2="4.9668">
		<stop  offset="0" style="stop-color:#F15DB4"/>
		<stop  offset="1" style="stop-color:#FF8E20"/>
	</linearGradient>
	<path fill="url(#SVGID_1_)" d="M6.93,1.902c0,0.215-0.074,0.398-0.225,0.545C6.556,2.596,6.38,2.671,6.17,2.671H2.762v1.75h3.321
		c0.208,0,0.386,0.077,0.533,0.228c0.148,0.152,0.225,0.336,0.225,0.552c0,0.216-0.075,0.398-0.225,0.545
		C6.468,5.894,6.291,5.97,6.083,5.97H2.762v2.627c0,0.24-0.087,0.446-0.261,0.615c-0.174,0.17-0.384,0.254-0.632,0.254
		c-0.24,0-0.446-0.084-0.613-0.254C1.085,9.043,1,8.84,1,8.598V2.113c0-0.271,0.098-0.506,0.293-0.699
		c0.193-0.194,0.426-0.292,0.698-0.292h4.177c0.208,0,0.386,0.076,0.535,0.228C6.854,1.503,6.93,1.688,6.93,1.902z"/>
	<linearGradient id="SVGID_2_" gradientUnits="userSpaceOnUse" x1="1.1272" y1="5.3296" x2="51.9575" y2="4.9966">
		<stop  offset="0" style="stop-color:#F15DB4"/>
		<stop  offset="1" style="stop-color:#FF8E20"/>
	</linearGradient>
	<path fill="url(#SVGID_2_)" d="M14.863,8.524c0,0.23-0.083,0.447-0.252,0.645c-0.17,0.198-0.401,0.297-0.688,0.297
		c-0.189,0-0.363-0.052-0.522-0.154c-0.157-0.102-0.27-0.245-0.333-0.428l-0.323-0.894H9.198L8.864,8.885
		c-0.068,0.18-0.181,0.324-0.342,0.428C8.363,9.417,8.186,9.467,7.997,9.467c-0.28,0-0.507-0.096-0.677-0.291
		c-0.17-0.195-0.255-0.411-0.255-0.651c0-0.133,0.023-0.244,0.064-0.335l2.417-6.211c0.106-0.28,0.287-0.506,0.542-0.676
		c0.25-0.17,0.52-0.253,0.813-0.253c0.314-0.027,0.611,0.044,0.9,0.216c0.287,0.172,0.484,0.409,0.601,0.713l2.405,6.211
		C14.842,8.313,14.863,8.424,14.863,8.524z M12.261,6.44l-1.29-3.558L9.682,6.44H12.261z"/>
	<linearGradient id="SVGID_3_" gradientUnits="userSpaceOnUse" x1="1.1248" y1="5.3789" x2="51.9649" y2="5.0459">
		<stop  offset="0" style="stop-color:#F15DB4"/>
		<stop  offset="1" style="stop-color:#FF8E20"/>
	</linearGradient>
	<path fill="url(#SVGID_3_)" d="M23.35,8.802c-0.053,0.128-0.129,0.241-0.229,0.341c-0.098,0.1-0.216,0.178-0.348,0.236
		c-0.134,0.058-0.276,0.086-0.435,0.086c-0.166,0-0.327-0.04-0.482-0.117c-0.157-0.078-0.291-0.187-0.399-0.328l-3.669-5.022v4.6
		c0,0.24-0.087,0.446-0.261,0.615c-0.174,0.17-0.384,0.254-0.632,0.254c-0.24,0-0.446-0.084-0.613-0.254
		c-0.17-0.169-0.255-0.373-0.255-0.615V2.176c0-0.148,0.03-0.289,0.087-0.421c0.062-0.133,0.143-0.251,0.246-0.361
		c0.102-0.106,0.225-0.191,0.365-0.254c0.142-0.062,0.293-0.091,0.458-0.091c0.189,0,0.369,0.04,0.539,0.123
		c0.17,0.083,0.312,0.203,0.429,0.361l3.521,4.786V1.916c0-0.24,0.087-0.443,0.259-0.613c0.174-0.17,0.386-0.253,0.632-0.253
		c0.24,0,0.444,0.083,0.613,0.253c0.17,0.17,0.255,0.374,0.255,0.613V8.4C23.431,8.542,23.406,8.674,23.35,8.802z"/>
	<linearGradient id="SVGID_4_" gradientUnits="userSpaceOnUse" x1="1.1292" y1="5.4609" x2="51.959" y2="5.128">
		<stop  offset="0" style="stop-color:#F15DB4"/>
		<stop  offset="1" style="stop-color:#FF8E20"/>
	</linearGradient>
	<path fill="url(#SVGID_4_)" d="M31.241,1.902c0,0.215-0.07,0.398-0.221,0.545c-0.151,0.148-0.327,0.224-0.535,0.224h-1.724v5.916
		c0,0.239-0.087,0.446-0.263,0.62c-0.174,0.174-0.386,0.26-0.637,0.26c-0.242,0-0.45-0.086-0.624-0.26
		c-0.174-0.174-0.261-0.381-0.261-0.62V2.671h-1.723c-0.214,0-0.395-0.075-0.545-0.228c-0.146-0.152-0.223-0.34-0.223-0.564
		c0-0.207,0.074-0.385,0.223-0.533c0.15-0.147,0.331-0.224,0.545-0.224h5.233c0.208,0,0.386,0.076,0.535,0.228
		C31.171,1.503,31.241,1.688,31.241,1.902z"/>
	<linearGradient id="SVGID_5_" gradientUnits="userSpaceOnUse" x1="1.1272" y1="5.4863" x2="51.9607" y2="5.1533">
		<stop  offset="0" style="stop-color:#F15DB4"/>
		<stop  offset="1" style="stop-color:#FF8E20"/>
	</linearGradient>
	<path fill="url(#SVGID_5_)" d="M38.805,8.524c0,0.23-0.085,0.447-0.252,0.645c-0.17,0.198-0.399,0.297-0.69,0.297
		c-0.189,0-0.363-0.052-0.518-0.154c-0.157-0.102-0.27-0.245-0.335-0.428l-0.323-0.894h-3.544l-0.333,0.894
		c-0.066,0.18-0.18,0.324-0.342,0.428c-0.161,0.104-0.337,0.154-0.526,0.154c-0.282,0-0.507-0.096-0.677-0.291
		c-0.168-0.193-0.252-0.411-0.252-0.651c0-0.133,0.019-0.244,0.059-0.335l2.417-6.211c0.108-0.28,0.287-0.506,0.539-0.676
		s0.524-0.253,0.813-0.253c0.316-0.027,0.613,0.044,0.897,0.216c0.287,0.17,0.486,0.409,0.603,0.713l2.402,6.211
		C38.786,8.313,38.805,8.424,38.805,8.524z M36.201,6.44L34.91,2.882L33.62,6.44H36.201z"/>
	<linearGradient id="SVGID_6_" gradientUnits="userSpaceOnUse" x1="1.1282" y1="5.5439" x2="51.9617" y2="5.2109">
		<stop  offset="0" style="stop-color:#F15DB4"/>
		<stop  offset="1" style="stop-color:#FF8E20"/>
	</linearGradient>
	<path fill="url(#SVGID_6_)" d="M46.135,6.889c0,0.381-0.068,0.731-0.204,1.053c-0.138,0.321-0.341,0.602-0.615,0.836
		c-0.271,0.235-0.618,0.422-1.036,0.56c-0.416,0.137-0.904,0.204-1.458,0.204c-0.297,0-0.605-0.023-0.93-0.074
		c-0.323-0.05-0.63-0.121-0.923-0.212c-0.297-0.091-0.554-0.205-0.781-0.337c-0.225-0.133-0.399-0.287-0.516-0.462
		c-0.091-0.133-0.136-0.274-0.136-0.424c0-0.24,0.085-0.437,0.255-0.589c0.17-0.153,0.361-0.228,0.575-0.228
		c0.083,0,0.166,0.008,0.248,0.03c0.083,0.02,0.157,0.055,0.223,0.105c0.282,0.189,0.596,0.345,0.944,0.465s0.724,0.18,1.129,0.18
		c0.24,0,0.45-0.024,0.633-0.074c0.182-0.047,0.333-0.117,0.452-0.202c0.121-0.087,0.21-0.185,0.268-0.296
		c0.057-0.11,0.087-0.224,0.087-0.338c0-0.181-0.068-0.328-0.206-0.444c-0.138-0.116-0.318-0.211-0.539-0.289
		c-0.225-0.079-0.478-0.148-0.764-0.209c-0.285-0.061-0.577-0.135-0.873-0.217c-0.299-0.083-0.59-0.181-0.874-0.297
		c-0.285-0.116-0.539-0.265-0.762-0.448c-0.225-0.183-0.405-0.409-0.539-0.676c-0.138-0.27-0.208-0.598-0.208-0.987
		c0-0.348,0.072-0.674,0.221-0.974c0.143-0.301,0.351-0.568,0.62-0.799c0.267-0.232,0.594-0.413,0.984-0.545
		C41.8,1.065,42.239,1,42.722,1c0.231,0,0.493,0.02,0.777,0.057c0.285,0.036,0.558,0.096,0.824,0.176
		c0.265,0.077,0.507,0.178,0.732,0.293c0.223,0.115,0.393,0.25,0.505,0.4c0.102,0.126,0.148,0.267,0.148,0.425
		c0,0.242-0.093,0.435-0.278,0.579c-0.187,0.143-0.389,0.217-0.605,0.217c-0.155,0-0.306-0.042-0.448-0.124
		c-0.289-0.165-0.588-0.284-0.9-0.359c-0.312-0.075-0.618-0.112-0.928-0.112c-0.38,0-0.672,0.075-0.874,0.228
		c-0.206,0.152-0.306,0.353-0.306,0.598c0,0.166,0.068,0.298,0.204,0.402c0.138,0.102,0.318,0.191,0.541,0.266
		c0.225,0.073,0.482,0.141,0.766,0.204c0.287,0.062,0.578,0.135,0.868,0.218c0.297,0.083,0.588,0.182,0.87,0.304
		c0.287,0.119,0.542,0.272,0.764,0.458c0.227,0.185,0.407,0.413,0.541,0.68C46.065,6.173,46.135,6.501,46.135,6.889z"/>
	<linearGradient id="SVGID_7_" gradientUnits="userSpaceOnUse" x1="1.1282" y1="5.5786" x2="51.9617" y2="5.2456">
		<stop  offset="0" style="stop-color:#F15DB4"/>
		<stop  offset="1" style="stop-color:#FF8E20"/>
	</linearGradient>
	<path fill="url(#SVGID_7_)" d="M53.782,1.866c0,0.156-0.042,0.301-0.125,0.434l-2.394,3.708v2.59c0,0.24-0.087,0.446-0.259,0.615
		c-0.174,0.17-0.386,0.254-0.632,0.254c-0.24,0-0.443-0.084-0.613-0.254c-0.17-0.169-0.255-0.373-0.255-0.615v-2.59l-2.417-3.718
		c-0.083-0.116-0.123-0.257-0.123-0.421c0-0.198,0.079-0.383,0.235-0.553c0.155-0.168,0.356-0.253,0.605-0.253
		c0.14,0,0.274,0.035,0.405,0.1c0.127,0.068,0.231,0.167,0.316,0.3l1.859,2.999l1.823-2.988c0.083-0.133,0.187-0.235,0.316-0.305
		c0.129-0.071,0.265-0.106,0.414-0.106c0.257,0,0.463,0.083,0.616,0.247C53.703,1.474,53.782,1.659,53.782,1.866z"/>
</g>
</svg>
