<?xml version="1.0" encoding="utf-8"?>
<!-- Generator: Adobe Illustrator 16.0.0, SVG Export Plug-In . SVG Version: 6.00 Build 0)  -->
<!DOCTYPE svg PUBLIC "-//W3C//DTD SVG 1.1//EN" "http://www.w3.org/Graphics/SVG/1.1/DTD/svg11.dtd">
<svg version="1.1" id="Layer_1" xmlns="http://www.w3.org/2000/svg" xmlns:xlink="http://www.w3.org/1999/xlink" x="0px" y="0px"
	 width="150px" height="150px" viewBox="0 0 150 150" enable-background="new 0 0 150 150" xml:space="preserve">
<g>
	<path fill-rule="evenodd" clip-rule="evenodd" fill="#F26737" d="M110.077,142.756c-23.036,0-45.659,0-68.746,0
		c0.455-1.036,0.782-1.845,1.159-2.632c4.277-8.927,8.561-17.852,12.843-26.775c0.242-0.507,0.603-0.984,0.718-1.517
		c1.287-5.959,4.941-8.555,11.195-7.576c0-3.087,0-5.941,0-9.08c-0.7-0.215-1.559-0.48-2.419-0.741
		c-12.597-3.817-21.599-11.5-26.151-24.088c-0.395-1.092-1.458-2.126-2.472-2.78c-7.372-4.747-14.14-10.154-19.07-17.515
		c-5.706-8.521-8.036-17.729-5.413-27.929c0.691-2.69,1.926-3.738,4.834-3.635c6.708,0.235,13.431,0.074,20.444,0.074
		c0-2.815,0-5.382,0-8.12c25.886,0,51.472,0,77.369,0c0,2.505,0,5.071,0,8.12c1.653,0,3.005,0,4.356,0
		c5.611-0.003,11.229,0.155,16.832-0.083c2.508-0.107,3.571,0.952,4.17,3.056c2.243,7.891,1.4,15.509-2.062,22.878
		c-4.666,9.931-12.524,16.856-21.57,22.584c-1.93,1.221-3.043,2.677-3.861,4.809c-4.144,10.789-11.989,17.864-22.779,21.667
		c-2.079,0.731-2.793,1.694-2.592,3.799c0.186,1.947,0.058,3.924,0.079,5.888c0.002,0.179,0.081,0.356,0.231,0.977
		c0.964,0,2.039-0.029,3.113,0.005c4.022,0.128,6.157,2.133,7.512,5.881c3.618,10.006,7.488,19.92,11.254,29.871
		C109.377,140.748,109.671,141.617,110.077,142.756z M42.752,15.928c0,15.841-0.179,31.358,0.14,46.865
		c0.07,3.395,1.455,6.985,3.021,10.087c6.283,12.436,20.268,19.21,35.204,17.041c16.228-2.357,28.308-15.437,27.881-31.669
		c-0.344-13.083-0.059-26.185-0.053-39.277c0-0.992,0-1.984,0-3.045C86.71,15.928,64.857,15.928,42.752,15.928z M101.806,137.156
		c-0.076-0.502-0.069-0.886-0.194-1.219c-3.108-8.297-6.193-16.603-9.425-24.852c-0.262-0.667-1.542-1.319-2.355-1.33
		c-8.41-0.099-16.822-0.094-25.232-0.016c-0.767,0.007-1.933,0.528-2.227,1.142c-3.349,6.971-6.564,14.008-9.813,21.027
		c-0.772,1.668-1.539,3.338-2.418,5.247C67.574,137.156,84.639,137.156,101.806,137.156z M36.948,24.229c-6.71,0-13.285,0-19.799,0
		c-4.2,13.903,6.943,29.482,19.799,36.444C36.948,48.528,36.948,36.436,36.948,24.229z M134.461,24.185c-6.649,0-13.158,0-19.715,0
		c0,12.29,0,24.422,0,36.705C128.382,52.431,138.421,38.154,134.461,24.185z M81.145,103.98c0-2.937,0-5.574,0-8.068
		c-2.788,0-5.353,0-7.975,0c0,2.805,0,5.362,0,8.068C75.878,103.98,78.436,103.98,81.145,103.98z"/>
</g>
</svg>
