<?xml version="1.0" encoding="utf-8"?>
<!-- Generator: Adobe Illustrator 16.0.0, SVG Export Plug-In . SVG Version: 6.00 Build 0)  -->
<!DOCTYPE svg PUBLIC "-//W3C//DTD SVG 1.1//EN" "http://www.w3.org/Graphics/SVG/1.1/DTD/svg11.dtd">
<svg version="1.1" id="Layer_1" xmlns="http://www.w3.org/2000/svg" xmlns:xlink="http://www.w3.org/1999/xlink" x="0px" y="0px"
	 width="150px" height="150px" viewBox="0 0 150 150" enable-background="new 0 0 150 150" xml:space="preserve">
<g>
	<path fill-rule="evenodd" clip-rule="evenodd" fill="#2DCC6C" d="M70.351,2.654c21.819,12.287,43.45,24.468,65.244,36.741
		c-5.546,9.855-11.046,19.63-16.677,29.635c3.874,0,7.504-0.001,11.135,0c2.568,0.001,4.901,0.75,6.951,2.294
		c3.073,2.314,4.748,5.421,4.756,9.269c0.037,18.036,0.039,36.072,0.006,54.108c-0.011,6.356-5.205,11.551-11.564,11.555
		c-35.975,0.022-71.949,0.022-107.924-0.003c-6.366-0.004-11.542-5.189-11.555-11.56c-0.037-18.035-0.036-36.072-0.002-54.108
		c0.012-6.353,5.211-11.487,11.574-11.55c3.022-0.03,6.046-0.059,9.066,0.021c1.163,0.032,1.805-0.325,2.388-1.366
		c11.793-21.02,23.627-42.018,35.454-63.018C69.557,4.043,69.917,3.417,70.351,2.654z M76.197,141.586
		c17.649,0,35.298,0.001,52.947-0.001c5.189-0.001,7.951-2.755,7.951-7.93c0.003-17.405,0-34.811,0-52.216
		c0-4.861-2.854-7.728-7.714-7.728c-35.347-0.002-70.693-0.002-106.041,0c-5.188,0-7.95,2.753-7.951,7.929
		c-0.001,17.356,0.001,34.714,0,52.07c-0.001,5.069,2.794,7.875,7.86,7.875C40.899,141.587,58.548,141.586,76.197,141.586z
		 M51.888,68.938c0.328,0.053,0.423,0.083,0.52,0.083c15.6,0.004,31.2,0.015,46.801-0.029c0.478-0.001,1.148-0.459,1.4-0.894
		c2.58-4.47,5.075-8.989,7.64-13.47c0.426-0.743,0.451-1.187-0.197-1.856c-2.86-2.947-3.773-6.523-2.99-10.506
		c0.174-0.889,0.011-1.28-0.765-1.711c-6.255-3.482-12.494-6.992-18.704-10.551c-0.857-0.491-1.298-0.336-1.965,0.295
		c-2.896,2.741-6.397,3.667-10.259,2.917c-1.137-0.22-1.53,0.13-2.01,0.986C65.117,45.329,58.848,56.442,52.59,67.56
		C52.359,67.969,52.162,68.398,51.888,68.938z M38.33,69.028c2.445,0,4.587-0.06,6.724,0.025c1.027,0.041,1.532-0.335,2.025-1.214
		c7.43-13.252,14.902-26.483,22.365-39.718c0.235-0.418,0.488-0.827,0.802-1.359c2.271,1.472,4.588,2.503,7.325,1.787
		c2.812-0.737,4.118-3.04,5.44-5.352c9.564,5.393,18.972,10.697,28.508,16.073c-1.52,2.313-2.558,4.638-1.802,7.364
		c0.756,2.731,2.872,4.159,5.372,5.341c-3.221,5.734-6.351,11.307-9.578,17.053c2.425,0,4.57-0.067,6.707,0.029
		c1.042,0.047,1.542-0.37,2.017-1.22c4.753-8.501,9.543-16.981,14.318-25.47c0.209-0.371,0.387-0.759,0.618-1.221
		C110.145,30.434,91.194,19.762,72.125,9.023C60.875,28.999,49.679,48.878,38.33,69.028z"/>
	<path fill-rule="evenodd" clip-rule="evenodd" fill="#2DCC6C" d="M66.914,101.748c-0.179,4.486-2.078,8.004-6.001,10.217
		c-3.919,2.212-7.926,2.099-11.796-0.215c-0.784-0.468-1.281-0.447-2.057,0.017c-4.277,2.557-8.6,2.4-12.623-0.432
		c-4.073-2.867-5.734-6.963-4.72-11.878c0.999-4.838,4.079-7.866,8.862-9.059c3.023-0.753,5.921-0.263,8.529,1.46
		c0.794,0.524,1.309,0.396,2.058-0.045c3.885-2.299,7.888-2.38,11.798-0.156C64.827,93.853,66.707,97.334,66.914,101.748z
		 M48.154,101.832c0.01-3.898-3.158-7.065-7.057-7.054c-3.821,0.011-6.971,3.161-6.98,6.982c-0.011,3.898,3.158,7.066,7.056,7.055
		C44.994,108.806,48.145,105.654,48.154,101.832z M51.648,95.86c0.425,2.15,1.113,4.087,1.104,6.02
		c-0.009,1.922-0.719,3.842-1.138,5.839c2.782,1.89,6.542,1.363,8.896-1.376c2.293-2.669,2.248-6.597-0.106-9.218
		C58.032,94.485,54.282,94.015,51.648,95.86z"/>
	<path fill-rule="evenodd" clip-rule="evenodd" fill="#2DCC6C" d="M76.177,120.621c0,1.546,0,2.989,0,4.507
		c-15.546,0-31.027,0-46.625,0c0-1.445,0-2.924,0-4.507C45.028,120.621,60.543,120.621,76.177,120.621z"/>
	<path fill-rule="evenodd" clip-rule="evenodd" fill="#2DCC6C" d="M76.173,129.98c0,1.556,0,3,0,4.513c-15.55,0-31.03,0-46.625,0
		c0-1.456,0-2.935,0-4.513C45.037,129.98,60.55,129.98,76.173,129.98z"/>
	<path fill-rule="evenodd" clip-rule="evenodd" fill="#2DCC6C" d="M106.557,125.148c-2.295,0-4.515,0-6.82,0
		c0-1.529,0-3.004,0-4.555c2.267,0,4.485,0,6.82,0C106.557,122.049,106.557,123.524,106.557,125.148z"/>
	<path fill-rule="evenodd" clip-rule="evenodd" fill="#2DCC6C" d="M99.77,129.913c2.309,0,4.492,0,6.788,0c0,1.501,0,2.978,0,4.554
		c-2.229,0-4.482,0-6.788,0C99.77,132.941,99.77,131.433,99.77,129.913z"/>
	<path fill-rule="evenodd" clip-rule="evenodd" fill="#2DCC6C" d="M111.437,120.594c1.491,0,2.932,0,4.483,0c0,1.458,0,2.933,0,4.51
		c-1.447,0-2.922,0-4.483,0C111.437,123.616,111.437,122.143,111.437,120.594z"/>
	<path fill-rule="evenodd" clip-rule="evenodd" fill="#2DCC6C" d="M125.342,120.637c0,1.505,0,2.944,0,4.476
		c-1.523,0-2.998,0-4.552,0c0-1.476,0-2.917,0-4.476C122.233,120.637,123.708,120.637,125.342,120.637z"/>
	<path fill-rule="evenodd" clip-rule="evenodd" fill="#2DCC6C" d="M115.964,129.965c0,1.503,0,2.942,0,4.492
		c-1.472,0-2.946,0-4.519,0c0-1.459,0-2.934,0-4.492C112.909,129.965,114.349,129.965,115.964,129.965z"/>
	<path fill-rule="evenodd" clip-rule="evenodd" fill="#2DCC6C" d="M120.806,129.911c1.539,0,2.944,0,4.47,0c0,1.486,0,2.962,0,4.548
		c-1.422,0-2.898,0-4.47,0C120.806,132.994,120.806,131.521,120.806,129.911z"/>
</g>
</svg>
