<?xml version="1.0" encoding="utf-8"?>
<!-- Generator: Adobe Illustrator 16.0.0, SVG Export Plug-In . SVG Version: 6.00 Build 0)  -->
<!DOCTYPE svg PUBLIC "-//W3C//DTD SVG 1.1//EN" "http://www.w3.org/Graphics/SVG/1.1/DTD/svg11.dtd">
<svg version="1.1" id="Layer_1" xmlns="http://www.w3.org/2000/svg" xmlns:xlink="http://www.w3.org/1999/xlink" x="0px" y="0px"
	 width="150px" height="150px" viewBox="0 0 150 150" enable-background="new 0 0 150 150" xml:space="preserve">
<g>
	<path fill-rule="evenodd" clip-rule="evenodd" fill="#FB7E42" d="M59.583,74.787C47.876,68.466,41.46,58.774,40.924,45.581
		c-0.382-9.41,2.888-17.635,9.44-24.472C63.848,7.039,86.761,7.572,99.648,22.256c14.464,16.48,9.572,42.618-10.104,52.454
		c1.238,0.497,2.302,0.999,3.412,1.357c5.082,1.639,9.852,3.924,14.429,6.668c0.929,0.557,2.188,0.878,3.269,0.82
		c16.272-0.875,30.161,10.812,31.959,26.976c1.832,16.466-10.628,31.62-27.111,33.068c-7.44,0.653-14.184-1.158-20.277-5.403
		c-1.389-0.967-2.85-1.339-4.496-1.339c-24.316,0.011-48.631,0.01-72.947,0.001c-0.875-0.001-1.756-0.06-2.625-0.172
		c-1.042-0.136-1.739-0.774-1.716-1.832c0.062-2.867-0.046-5.772,0.388-8.59c3.203-20.808,14.175-36.238,32.67-46.198
		c3.801-2.047,8.038-3.285,12.074-4.895C58.86,75.057,59.152,74.951,59.583,74.787z M88.474,131.929
		c-5.562-8.36-7.531-17.181-4.694-26.812c2.855-9.694,9.502-15.896,18.678-20.021c-19.329-9.063-38.239-10.252-56.899,1.005
		c-17.231,10.395-26.012,25.88-27.523,45.828C41.484,131.929,64.825,131.929,88.474,131.929z M74.568,15.825
		C58.656,15.824,45.858,28.58,45.856,44.443C45.855,60.325,58.9,73.356,74.625,73.181c15.903-0.177,28.586-12.899,28.591-28.677
		C103.222,28.613,90.448,15.826,74.568,15.825z M112.635,88.465c-14.039-0.002-25.251,11.166-25.258,25.158
		c-0.008,13.908,11.184,25.236,24.938,25.242c14.245,0.007,25.502-11.099,25.501-25.157
		C137.816,99.686,126.625,88.467,112.635,88.465z"/>
	<path fill-rule="evenodd" clip-rule="evenodd" fill="#FB7E42" d="M123.484,111.405c1.22,0.23,1.93,1.124,1.921,2.255
		c-0.01,1.146-0.695,2.091-1.91,2.262c-1.336,0.188-19.316,0.204-21.391,0.123c-1.152-0.045-1.954-0.674-2.217-1.839
		c-0.355-1.58,0.604-2.838,2.307-2.913C103.907,111.219,122.785,111.273,123.484,111.405z"/>
</g>
</svg>
