<?xml version="1.0" encoding="utf-8"?>
<!-- Generator: Adobe Illustrator 16.0.0, SVG Export Plug-In . SVG Version: 6.00 Build 0)  -->
<!DOCTYPE svg PUBLIC "-//W3C//DTD SVG 1.1//EN" "http://www.w3.org/Graphics/SVG/1.1/DTD/svg11.dtd">
<svg version="1.1" id="Layer_1" xmlns="http://www.w3.org/2000/svg" xmlns:xlink="http://www.w3.org/1999/xlink" x="0px" y="0px"
	 width="150px" height="150px" viewBox="0 0 150 150" enable-background="new 0 0 150 150" xml:space="preserve">
<g>
	<path fill-rule="evenodd" clip-rule="evenodd" fill="#007EFF" d="M108.535,7.062c0.595,0.148,1.185,0.31,1.781,0.444
		c12.016,2.666,18.741,14.096,15.3,26.069c-1.59,5.527-4.112,10.564-7.982,14.887c-0.328,0.368-0.497,1.173-0.335,1.634
		c1.302,3.686,3.617,6.248,7.677,7.063c5.284,1.062,10.212,3.035,14.276,6.703c3.946,3.56,5.971,7.909,5.389,13.368
		c-0.496,4.671-0.761,9.365-1.149,14.047c-0.304,3.666-2.896,6.046-6.576,6.049c-6.67,0.006-13.339,0.012-20.009-0.027
		c-0.627-0.002-1.3-0.233-1.867-0.522c-2.325-1.188-4.618-2.44-7.085-3.755c4.378,0,8.611,0,12.843,0
		c5.282,0,10.563,0.002,15.846-0.002c1.824-0.002,2.423-0.524,2.574-2.316c0.423-4.991,0.913-9.981,1.206-14.983
		c0.224-3.792-1.704-6.672-4.482-9.025c-3.361-2.847-7.356-4.41-11.605-5.261c-4.628-0.927-7.979-3.417-10.159-7.562
		c-0.06-0.116-0.16-0.207-0.115-0.151c-3.09,0.481-6.067,0.946-9.114,1.421c-0.435-1.928-0.803-3.55-1.2-5.318
		c4.91,0.973,8.299-1.375,11.162-4.802c3.84-4.595,6.311-9.854,7.187-15.79c1.277-8.653-5.03-16.496-14.206-17.781
		c-8.177-1.145-16.545,5.002-17.583,13.197c-0.364,2.876,0.028,5.845,0.075,8.728c-1.11-0.51-2.543-1.14-3.94-1.843
		c-0.241-0.122-0.426-0.533-0.475-0.836C84.139,19.448,91.759,8.992,102.975,7.32c0.249-0.037,0.484-0.169,0.725-0.258
		C105.312,7.062,106.923,7.062,108.535,7.062z"/>
	<path fill-rule="evenodd" clip-rule="evenodd" fill="#007EFF" d="M7.261,73.684c0.236-0.858,0.439-1.725,0.713-2.57
		c1.687-5.207,5.442-8.579,10.187-10.813c2.923-1.376,6.064-2.401,9.207-3.178c4.027-0.996,6.247-3.599,7.476-7.287
		c0.144-0.43-0.23-1.171-0.57-1.605c-4.753-6.064-7.464-12.912-7.64-20.626C26.401,17.446,33.825,8.82,43.876,7.32
		c0.249-0.037,0.484-0.169,0.725-0.258c1.612,0,3.223,0,4.835,0c0.77,0.186,1.538,0.372,2.307,0.556
		c10.305,2.455,16.936,12.054,15.426,22.408c-0.071,0.485-0.534,1.083-0.978,1.312c-1.207,0.624-2.501,1.076-3.881,1.647
		c0.225-1.18,0.477-2.215,0.613-3.263c0.864-6.62-1.418-11.978-6.957-15.625c-5.656-3.723-11.688-3.81-17.475-0.26
		c-5.676,3.479-8.118,8.8-7.483,15.397c0.565,5.866,2.662,11.184,6.306,15.862c2.595,3.333,5.949,5.054,10.205,4.932
		c0.175-0.006,0.354,0.017,0.529,0.035c0.041,0.004,0.079,0.04,0.168,0.089c-0.322,1.506-0.646,3.029-1.002,4.705
		c-2.708,0.101-5.388-0.207-7.979-1.085c-0.838-0.283-1.217-0.181-1.663,0.622c-2.095,3.771-5.269,6.073-9.526,6.965
		c-4.88,1.021-9.458,2.756-13.06,6.393c-2.488,2.513-3.677,5.523-3.355,9.122c0.396,4.458,0.686,8.925,1.013,13.385
		c0.156,2.135,0.81,2.765,2.927,2.765c8.327,0.002,16.653,0,24.98,0c0.422,0,0.845,0,1.349,0c-2.615,1.422-5.101,2.79-7.612,4.114
		c-0.329,0.176-0.775,0.178-1.166,0.178c-6.088,0.011-12.177,0.022-18.265,0c-3.173-0.011-5.891-2.185-6.278-5.329
		c-0.502-4.081-0.722-8.196-1.072-12.298c-0.057-0.658-0.162-1.316-0.245-1.975C7.261,76.369,7.261,75.027,7.261,73.684z"/>
	<path fill-rule="evenodd" clip-rule="evenodd" fill="#007EFF" d="M74.968,144.602c-12.847,0-25.695,0.002-38.542,0
		c-4.652,0-7.966-2.846-8.376-7.486c-0.577-6.507-1.19-13.023-1.365-19.548c-0.166-6.178,2.814-11.077,7.504-14.933
		c5.062-4.157,10.992-6.45,17.348-7.711c5.422-1.075,8.147-5.513,9.296-9.561c0.106-0.371-0.282-0.966-0.575-1.355
		c-5.834-7.756-9.19-16.453-8.855-26.176c0.353-10.209,5.471-17.724,14.837-21.798c9.267-4.031,18.182-2.665,25.835,3.917
		c8.266,7.11,10.331,16.321,7.496,26.67c-1.866,6.813-5,13.007-9.802,18.27c-0.537,0.589-0.581,1.093-0.303,1.792
		c1.748,4.391,4.582,7.438,9.467,8.375c5.679,1.091,10.97,3.229,15.659,6.685c4.746,3.5,7.915,8.024,8.557,13.992
		c0.214,1.979-0.021,4.017-0.171,6.019c-0.395,5.311-0.84,10.616-1.298,15.922c-0.333,3.86-3.758,6.918-7.767,6.922
		C100.932,144.611,87.949,144.602,74.968,144.602z M64.217,89.095c-0.194,0.348-0.288,0.496-0.365,0.656
		c-2.522,5.198-6.444,8.487-12.267,9.574c-4.688,0.876-9.103,2.634-13.028,5.428c-5.292,3.762-8.261,8.607-7.511,15.407
		c0.579,5.244,0.824,10.523,1.196,15.789c0.229,3.225,1.417,4.354,4.667,4.354c18.307,0.003,36.613,0,54.919,0
		c7.297,0,14.592,0.007,21.887-0.004c2.077-0.002,3.52-1.229,3.681-3.136c0.452-5.35,0.893-10.699,1.305-16.053
		c0.127-1.646,0.344-3.321,0.172-4.946c-0.443-4.178-2.627-7.451-5.8-10.093c-4.442-3.696-9.658-5.733-15.251-6.856
		c-4.719-0.943-8.252-3.485-10.728-7.563c-0.48-0.792-0.904-1.618-1.507-2.703C78.535,93.646,71.4,91.991,64.217,89.095z
		 M55.443,58.89c0.333,2.298,0.519,4.626,1.028,6.885c1.488,6.605,4.153,12.678,8.983,17.555c4.998,5.045,13.501,6.28,19.504,0.384
		c4.646-4.564,7.73-10.021,9.823-16.102c1.429-4.155,2.146-8.397,1.313-12.794c-1.93-10.176-11.624-17.547-21.765-16.539
		C63.544,39.35,55.515,48.183,55.443,58.89z"/>
</g>
</svg>
