<?xml version="1.0" encoding="utf-8"?>
<!-- Generator: Adobe Illustrator 16.0.0, SVG Export Plug-In . SVG Version: 6.00 Build 0)  -->
<!DOCTYPE svg PUBLIC "-//W3C//DTD SVG 1.1//EN" "http://www.w3.org/Graphics/SVG/1.1/DTD/svg11.dtd">
<svg version="1.1" id="Layer_1" xmlns="http://www.w3.org/2000/svg" xmlns:xlink="http://www.w3.org/1999/xlink" x="0px" y="0px"
	 width="150px" height="150px" viewBox="0 0 150 150" enable-background="new 0 0 150 150" xml:space="preserve">
<g>
	<path fill-rule="evenodd" clip-rule="evenodd" fill="#2B92EF" d="M141.285,67.512c-3.097-2.555-6.254-5.039-9.385-7.555
		c-1.97-1.586-2.685-3.516-1.938-6.035c1.14-3.845,2.171-7.721,3.192-11.6c1.624-6.164-2.618-11.863-8.998-12.162
		c-3.708-0.174-7.415-0.467-11.126-0.535c-3.231-0.059-5.208-1.533-6.288-4.548c-1.275-3.561-2.717-7.062-4.086-10.587
		c-2.373-6.113-8.813-8.243-14.305-4.712c-3.121,2.007-6.263,3.989-9.315,6.097c-2.701,1.864-5.264,1.924-7.986,0.057
		c-3.061-2.1-6.211-4.066-9.322-6.09c-5.497-3.578-11.964-1.539-14.352,4.542c-1.411,3.592-2.917,7.153-4.142,10.808
		c-1.021,3.045-3.03,4.319-6.103,4.422c-3.863,0.127-7.721,0.359-11.58,0.559c-6.284,0.326-10.348,5.771-8.778,11.834
		c0.968,3.734,1.903,7.49,3.12,11.146c1.057,3.169,0.107,5.392-2.398,7.32c-3.063,2.357-6.074,4.782-9.043,7.255
		C3.69,71.692,3.728,78.406,8.509,82.318c3.049,2.496,6.104,4.986,9.223,7.393c2.232,1.723,3.099,3.748,2.258,6.545
		c-1.154,3.84-2.193,7.715-3.198,11.598c-1.534,5.932,2.706,11.621,8.79,11.918c2.874,0.141,5.745,0.344,8.928,0.537
		c-0.059,0.121,5.279,0.049,6.475,1.227c0.936,0.922,1.686,2.139,2.197,3.357c1.494,3.557,2.811,7.188,4.229,10.773
		c2.376,6.002,8.751,8.045,14.18,4.555c3.313-2.131,6.646-4.23,9.907-6.436c2.439-1.65,4.695-1.633,7.131,0.055
		c3.235,2.242,6.574,4.336,9.893,6.457c5.307,3.391,11.698,1.318,14.023-4.555c1.478-3.727,2.885-7.482,4.354-11.213
		c0.302-0.766,0.636-1.563,1.135-2.203c1.716-2.207,7.664-1.566,7.437-2.027c3.464-0.201,6.567-0.34,9.663-0.566
		c5.541-0.404,9.571-5.963,8.186-11.334c-1.002-3.883-1.983-7.779-3.224-11.588c-1.029-3.162-0.106-5.389,2.426-7.313
		c2.955-2.246,5.814-4.619,8.697-6.959C146.358,78.363,146.4,71.732,141.285,67.512z M138.575,79.982
		c-2.706,2.195-5.411,4.395-8.161,6.533c-3.818,2.971-5.263,6.623-3.756,11.393c1.162,3.678,2.092,7.428,3.075,11.158
		c1.082,4.104-0.959,6.818-5.22,7.057c-4.312,0.24-8.628,0.426-12.931,0.785c-3.903,0.328-6.578,2.439-8.003,6.104
		c-1.507,3.879-2.979,7.77-4.534,11.629c-1.597,3.967-4.789,4.986-8.398,2.693c-3.388-2.154-6.748-4.35-10.091-6.57
		c-3.695-2.453-7.371-2.396-11.055-0.023c-3.374,2.172-6.718,4.393-10.101,6.553c-3.715,2.375-6.862,1.348-8.513-2.789
		c-1.458-3.654-2.843-7.336-4.267-11.002c-1.572-4.043-4.4-6.426-8.842-6.68c-3.857-0.221-7.712-0.502-11.571-0.676
		c-5.003-0.225-7.063-2.957-5.767-7.838c0.951-3.584,1.975-7.146,2.963-10.719c1.223-4.418,0.074-8.031-3.574-10.875
		c-3.047-2.375-6.072-4.779-9.034-7.26c-3.474-2.912-3.478-6.037-0.015-8.93c3.08-2.575,6.265-5.024,9.369-7.57
		c3.385-2.776,4.563-6.239,3.288-10.528c-1.142-3.842-2.181-7.716-3.194-11.594c-1.045-4.002,0.92-6.713,5.08-6.986
		c3.779-0.25,7.564-0.441,11.35-0.559c5.016-0.156,8.434-2.37,10.123-7.229c1.293-3.714,2.787-7.357,4.247-11.01
		c0.849-2.127,2.322-3.52,5.453-3.628c0.586,0.255,1.821,0.626,2.88,1.284c3.279,2.039,6.49,4.187,9.729,6.292
		c3.891,2.533,7.789,2.591,11.7,0.043c3.236-2.108,6.464-4.229,9.721-6.306c3.85-2.454,6.932-1.419,8.621,2.871
		c1.439,3.66,2.864,7.328,4.285,10.994c1.621,4.182,4.661,6.396,9.139,6.627c3.783,0.195,7.566,0.393,11.351,0.571
		c4.742,0.222,6.862,2.999,5.677,7.563c-0.951,3.661-1.988,7.299-2.994,10.944c-1.215,4.398-0.172,8.042,3.496,10.894
		c2.872,2.23,5.68,4.545,8.512,6.826C142.864,73.448,142.858,76.506,138.575,79.982z"/>
	<path fill-rule="evenodd" clip-rule="evenodd" fill="#2B92EF" d="M74.923,121.578c-25.41-0.104-46.402-21.217-46.322-46.593
		c0.08-25.332,21.292-46.321,46.697-46.207c25.298,0.113,46.269,21.406,46.1,46.81C121.232,100.684,100.015,121.678,74.923,121.578z
		 M117.754,75.175c-0.001-23.683-18.994-42.78-42.529-42.761C51.09,32.435,32.261,51.26,32.239,75.397
		c-0.022,23.535,19.072,42.529,42.755,42.533C98.77,117.932,117.754,98.951,117.754,75.175z"/>
	<path fill-rule="evenodd" clip-rule="evenodd" fill="#2B92EF" d="M53.353,98.475c0.629-4.98,1.168-9.875,1.901-14.742
		c0.282-1.865,0.06-3.27-1.345-4.686c-3.307-3.338-6.408-6.875-9.644-10.284c-1.31-1.378-1.966-2.844-1.298-4.728
		c0.65-1.836,1.953-2.706,3.865-3.037c4.85-0.838,9.693-1.722,14.492-2.8c1.079-0.242,2.313-1.146,2.877-2.099
		c2.504-4.234,4.816-8.583,7.142-12.921c0.894-1.665,2.154-2.851,4.047-2.868c1.918-0.019,3.117,1.23,4.006,2.891
		c2.394,4.473,4.813,8.934,7.352,13.324c0.428,0.742,1.424,1.434,2.272,1.612c4.959,1.057,9.944,1.998,14.939,2.882
		c1.911,0.338,3.214,1.239,3.806,3.098c0.564,1.771,0.042,3.205-1.232,4.543c-3.449,3.623-6.869,7.275-10.188,11.019
		c-0.599,0.674-0.991,1.865-0.902,2.76c0.476,4.748,1.123,9.479,1.736,14.209c0.264,2.016,0.369,3.934-1.522,5.35
		c-1.955,1.467-3.791,0.896-5.732-0.063c-4.208-2.076-8.479-4.023-12.684-6.109c-1.353-0.674-2.468-0.643-3.831,0.039
		c-4.536,2.266-9.127,4.424-13.727,6.557C56.58,103.857,53.186,101.646,53.353,98.475z M56.894,99.594
		c1.135-0.484,1.815-0.748,2.475-1.061c4.309-2.039,8.648-4.018,12.903-6.162c2.088-1.055,4.001-1.047,6.061-0.041
		c4.352,2.123,8.736,4.18,13.112,6.254c0.646,0.305,1.321,0.549,2.359,0.979c-0.724-5.904-1.296-11.391-2.118-16.838
		c-0.314-2.084,0.132-3.654,1.538-5.143c3.487-3.69,6.918-7.431,10.358-11.165c0.375-0.406,0.659-0.897,1.106-1.517
		c-5.856-1.139-11.409-2.287-16.99-3.27c-1.918-0.338-3.135-1.304-4.018-2.938c-2.303-4.262-4.633-8.51-6.964-12.756
		c-0.381-0.693-0.821-1.355-1.418-2.334c-2.196,4.008-4.545,7.508-6.103,11.33c-2.025,4.965-5.461,7.113-10.645,7.611
		c-4.146,0.398-8.223,1.53-12.786,2.427c3.849,4.139,7.24,8.004,10.882,11.616c2.182,2.164,2.725,4.467,2.261,7.4
		C58.12,88.982,57.599,94.02,56.894,99.594z"/>
</g>
</svg>
