<?xml version="1.0" encoding="utf-8"?>
<!-- Generator: Adobe Illustrator 16.0.0, SVG Export Plug-In . SVG Version: 6.00 Build 0)  -->
<!DOCTYPE svg PUBLIC "-//W3C//DTD SVG 1.1//EN" "http://www.w3.org/Graphics/SVG/1.1/DTD/svg11.dtd">
<svg version="1.1" id="Layer_1" xmlns="http://www.w3.org/2000/svg" xmlns:xlink="http://www.w3.org/1999/xlink" x="0px" y="0px"
	 width="150px" height="150px" viewBox="0 0 150 150" enable-background="new 0 0 150 150" xml:space="preserve">
<g>
	<path fill-rule="evenodd" clip-rule="evenodd" fill="#FF407B" d="M109.637,30.583c0,2.844-0.214,5.263,0.097,7.611
		c0.141,1.071,1.133,2.233,2.049,2.965c8.125,6.5,16.271,12.974,24.508,19.332c6.305,4.865,7.831,11.028,6.223,18.638
		c-3.176,15.018-4.032,30.305-4.555,45.607c-0.021,0.59,0.066,1.186,0.102,1.732c4.84,1.91,5.201,2.461,5.203,7.818
		c0.003,2.102,0.057,4.205-0.011,6.305c-0.109,3.389-1.856,5.264-5.205,5.281c-12.511,0.061-25.022,0.064-37.534,0.004
		c-3.139-0.016-4.927-1.936-5.022-5.15c-0.087-2.9-0.039-5.805-0.007-8.707c0.025-2.199,0.995-3.773,3.061-4.719
		c2.045-0.936,2.616-3.717,0.853-4.9c-6.945-4.65-8.994-11.387-8.532-19.75c-1.133,0-2.181,0-3.228,0
		c-13.012,0.002-26.023,0.004-39.036,0.006c-9.55,0.002-15.576-5.971-15.589-15.521c-0.023-17.716-0.013-35.432-0.017-53.148
		c0-0.988,0-1.976,0-3.412c-2.351,0-4.509-0.002-6.667,0c-9.422,0.01-12.535-3.111-12.542-12.613c0-1.097-0.029-2.221,0.184-3.287
		c1.012-5.041,4.805-7.868,10.506-7.869c24.222-0.007,48.443-0.001,72.666-0.001c7.007,0,14.014-0.012,21.02,0.002
		c6.788,0.014,10.624,3.819,10.687,10.566c0.01,1.101,0.033,2.203,0.006,3.303c-0.142,5.778-4.099,9.772-9.865,9.895
		C116.005,30.635,113.021,30.583,109.637,30.583z M109.629,45.295c0,3.766,0.27,6.69-0.063,9.547
		c-0.514,4.427,0.933,7.276,4.827,9.766c6.586,4.21,7.835,12.062,3.521,18.013c-4.172,5.756-11.815,6.713-18.105,2.23
		c-4.233-3.018-8.413-6.107-12.647-9.125c-3.942-2.808-7.675-2.489-9.99,0.786c-2.312,3.271-1.405,6.823,2.554,9.722
		c4.436,3.25,8.791,6.627,13.407,9.6c2.688,1.732,3.255,3.496,2.533,6.578c-1.278,5.463-0.426,10.975,4.212,14.441
		c3.546,2.65,6.188,5.029,4.74,9.898c9.876,0,19.219,0,28.719,0c0.105-1.357,0.244-2.545,0.278-3.734
		c0.443-15.904,1.83-31.699,4.937-47.334c0.83-4.182-0.415-7.887-3.935-10.671c-5.646-4.465-11.211-9.031-16.843-13.513
		C115.303,49.534,112.751,47.667,109.629,45.295z M87.838,97.912c-3.341-2.787-5.914-5.238-10.259-4.963
		c-5.782,0.369-11.606,0.029-17.41,0.125c-2.044,0.033-2.95-0.563-3.418-2.719c-1.3-5.984-5.017-9.996-11.057-11.326
		c-2.512-0.553-3.139-1.631-3.127-4.05c0.09-18.518,0.05-37.036,0.05-55.553c0-0.959,0-1.917,0-2.863c1.708,0,2.978,0,4.701,0
		c0,3.407,0,6.685,0,10.549c6.825-7.481,14.842-10.642,24.051-10.647c9.264-0.005,17.273,3.352,24.168,10.778
		c0-4.105,0-7.363,0-10.615c1.635,0,2.969,0,4.48,0c0,1.108,0,1.998,0,2.887c0.003,18.818,0.005,37.637,0.001,56.455
		c-0.001,4.022,0.8,5.067,5.065,6.233c0-10.963,0-21.848,0-32.733c0-10.973,0-21.945,0-32.917c1.695,0,2.968,0,4.604,0
		c0,3.163,0,6.204,0,9.459c3.548,0,6.738,0.099,9.919-0.03c2.771-0.113,4.521-2.03,4.679-4.87c0.072-1.298,0.034-2.602,0.015-3.903
		c-0.062-4.086-1.786-5.832-5.857-5.849c-5.905-0.025-11.812-0.002-17.717-0.002c-25.425-0.002-50.849,0.015-76.274-0.032
		c-2.792-0.005-5.397,0.706-5.801,3.559c-0.483,3.405-1.585,7.24,1.66,10.137c0.498,0.445,1.233,0.859,1.869,0.875
		c3.553,0.083,7.109,0.04,10.912,0.04c0-3.357,0-6.324,0-9.314c1.602,0,2.934,0,4.461,0c0,1.29,0,2.377,0,3.464
		c0.004,22.422-0.005,44.843,0.019,67.265c0.007,6.934,3.851,10.744,10.78,10.75c12.011,0.012,24.023,0.008,36.034-0.004
		C85.334,98.098,86.282,97.998,87.838,97.912z M72.127,20.938c-7.468,0.039-13.571,1.892-18.696,6.361
		c-8.362,7.291-8.381,18.542-0.119,25.934c9.647,8.628,26.544,8.58,36.114-0.104c8.28-7.514,8.044-19-0.575-26.126
		C83.795,22.823,77.896,20.992,72.127,20.938z M95.283,54.179c-16.069,13.584-31.985,13.502-48.115-0.107
		c0,6.556-0.042,12.852,0.062,19.146c0.011,0.671,0.734,1.694,1.362,1.933c5.784,2.195,9.715,6.139,11.9,11.918
		c0.224,0.59,1.088,1.316,1.674,1.334c4.059,0.115,8.125,0.061,11.561,0.061c-0.751-3.385-2.327-6.676-2.002-9.766
		c0.843-8,9.768-11.86,16.613-7.572c2.301,1.441,4.478,3.077,6.944,4.787C95.283,68.304,95.283,61.257,95.283,54.179z
		 M119.366,131.48c-4.302,0-8.604-0.018-12.905,0.006c-7.07,0.039-6.318-0.764-6.484,6.439c-0.062,2.629,0.87,3.496,3.482,3.467
		c9.603-0.113,19.207-0.029,28.812-0.047c7.137-0.014,6.364,0.822,6.478-6.717c0.034-2.332-0.843-3.221-3.175-3.178
		C130.172,131.551,124.769,131.482,119.366,131.48z M109.789,67.093c0,5.335,0,10.399,0,15.489c3.371-0.652,5.542-2.949,6.021-6.234
		C116.363,72.556,114.316,69.297,109.789,67.093z"/>
	<path fill-rule="evenodd" clip-rule="evenodd" fill="#FF407B" d="M73.697,52.197c-1.696,0-3.081,0-4.693,0
		c-0.086,0.879,0.065,1.863-0.314,2.558c-0.467,0.855-1.547,2.163-2.057,2.036c-0.911-0.225-2.343-1.491-2.245-2.121
		c0.515-3.345-1.577-4.604-3.858-6.237c-5.994-4.289-7.658-11.904-3.971-17.77c0.613-0.976,2.518-2.053,3.392-1.766
		c1.861,0.614,1.227,2.307,0.526,3.767c-2.51,5.221-1.345,9.573,3.754,12.652c0-2.407-0.247-4.575,0.101-6.644
		c0.184-1.089,1.406-2.004,2.159-2.998c0.763,0.989,2.069,1.92,2.185,2.979c0.308,2.84,0.104,5.735,0.104,8.795
		c1.814,0,3.25,0,5.066,0c0-2.949-0.221-5.746,0.103-8.479c0.139-1.165,1.415-2.194,2.175-3.285
		c0.757,1.089,1.944,2.096,2.172,3.286c0.365,1.914,0.097,3.948,0.097,6.015c4.038-1.49,6.07-6.212,4.614-10.382
		c-0.326-0.935-1.152-1.784-1.201-2.704c-0.057-1.027,0.509-2.088,0.804-3.134c1.012,0.354,2.479,0.401,2.961,1.114
		c2.987,4.423,3.318,9.156,0.649,13.845c-0.921,1.615-2.16,3.211-3.631,4.312c-2.388,1.79-5.131,3.058-4.37,6.891
		c0.102,0.509-1.4,1.877-2.138,1.861c-0.744-0.017-1.633-1.16-2.13-2.003C73.594,54.178,73.776,53.252,73.697,52.197z"/>
</g>
</svg>
