<?xml version="1.0" encoding="utf-8"?>
<!-- Generator: Adobe Illustrator 16.0.0, SVG Export Plug-In . SVG Version: 6.00 Build 0)  -->
<!DOCTYPE svg PUBLIC "-//W3C//DTD SVG 1.1//EN" "http://www.w3.org/Graphics/SVG/1.1/DTD/svg11.dtd">
<svg version="1.1" id="Layer_1" xmlns="http://www.w3.org/2000/svg" xmlns:xlink="http://www.w3.org/1999/xlink" x="0px" y="0px"
	 width="150px" height="150px" viewBox="0 0 150 150" enable-background="new 0 0 150 150" xml:space="preserve">
<g>
	<path fill-rule="evenodd" clip-rule="evenodd" fill="#A9A9A9" d="M4.702,149.104c-2.814-1.144-4.039-3.225-3.777-6.25
		c0.092-1.053,0.012-2.12,0.015-3.181c0.015-4.208,2.308-6.972,6.459-7.793c0.279-0.055,0.556-0.123,0.963-0.213
		c0-1.458-0.008-2.896,0.002-4.333c0.036-4.824,3.042-7.813,7.885-7.849c0.613-0.005,1.226,0,2.001,0
		c0-1.664,0.028-3.145-0.007-4.625c-0.041-1.648,0.544-2.979,1.742-4.117c0.36-0.343,0.653-0.956,0.654-1.444
		c0.035-13.794,0.037-27.585-0.004-41.377c-0.001-0.524-0.361-1.157-0.747-1.549c-1.036-1.052-1.646-2.234-1.638-3.724
		c0.009-1.581,0.002-3.162,0.002-4.941c-0.655,0-1.167,0.001-1.679,0c-2.749,0-5.498,0.027-8.247-0.013
		c-2.188-0.031-3.904-1.305-4.611-3.317c-0.701-1.992-0.148-4.13,1.445-5.528c0.325-0.285,0.688-0.527,1.042-0.778
		C27.476,32.989,48.748,17.907,70.021,2.826c3.65-2.588,6.366-2.575,10.06,0.042c21.314,15.106,42.627,30.214,63.945,45.314
		c1.313,0.929,2.301,2.04,2.527,3.695c0.434,3.166-1.715,5.765-4.902,5.817c-3.219,0.053-6.439,0.012-9.852,0.012
		c0,1.622-0.033,3.101,0.008,4.577c0.049,1.704-0.547,3.08-1.807,4.235c-0.332,0.306-0.594,0.878-0.594,1.328
		c-0.031,13.841-0.031,27.682,0,41.522c0.002,0.449,0.268,1.019,0.602,1.326c1.258,1.155,1.852,2.531,1.799,4.236
		c-0.045,1.439-0.008,2.882-0.008,4.557c0.813,0,1.516-0.01,2.221,0.002c4.574,0.071,7.594,3.071,7.66,7.63
		c0.021,1.491,0.004,2.982,0.004,4.608c3.922,0.321,6.291,2.48,7.426,6.09c0,2.508,0,5.016,0,7.523
		c-0.707,1.803-1.961,3.056-3.762,3.763C98.467,149.104,51.584,149.104,4.702,149.104z M8.946,52.18
		c0.018,0.128,0.036,0.255,0.052,0.383c44.042,0,88.082,0,132.303,0c-0.57-0.414-0.996-0.727-1.424-1.032
		C119.035,36.686,98.195,21.839,77.354,6.995c-2.166-1.542-2.508-1.536-4.729,0.038C59.377,16.425,46.128,25.815,32.88,35.208
		C24.901,40.865,16.923,46.522,8.946,52.18z M5.873,144.069c46.188,0,92.204,0,138.307,0c0-1.256,0-2.407,0-3.559
		c0.004-3.142-0.643-3.78-3.834-3.78c-43.541,0.001-87.082,0.002-130.624,0.002c-0.433,0-0.87-0.022-1.301,0.012
		c-1.579,0.121-2.495,1.027-2.54,2.59C5.837,140.872,5.873,142.412,5.873,144.069z M47.844,57.77c0,1.693-0.014,3.229,0.003,4.766
		c0.02,1.542-0.604,2.762-1.664,3.861c-0.407,0.422-0.741,1.122-0.742,1.697c-0.041,13.689-0.04,27.38-0.003,41.069
		c0.001,0.536,0.293,1.206,0.676,1.581c1.174,1.153,1.778,2.475,1.74,4.123c-0.036,1.479-0.008,2.962-0.008,4.479
		c4.205,0,8.257,0,12.381,0c0-1.536,0.039-2.933-0.009-4.327c-0.061-1.755,0.536-3.177,1.844-4.362
		c0.33-0.301,0.564-0.887,0.565-1.343c0.028-13.786,0.03-27.572-0.003-41.359c-0.002-0.495-0.268-1.121-0.626-1.459
		c-1.237-1.173-1.831-2.546-1.777-4.248c0.046-1.472,0.01-2.947,0.01-4.478C56.027,57.77,52.043,57.77,47.844,57.77z
		 M102.205,119.395c0-1.565,0.029-3.048-0.01-4.527c-0.041-1.649,0.561-2.976,1.744-4.118c0.359-0.35,0.67-0.952,0.672-1.44
		c0.035-13.786,0.035-27.573,0.002-41.36c-0.002-0.493-0.279-1.111-0.639-1.454c-1.184-1.137-1.811-2.453-1.777-4.104
		c0.029-1.521,0.006-3.043,0.006-4.575c-4.23,0-8.248,0-12.381,0c0,1.594-0.025,3.081,0.008,4.568
		c0.035,1.65-0.584,2.968-1.773,4.104c-0.357,0.342-0.629,0.963-0.631,1.457c-0.033,13.787-0.033,27.574,0.002,41.361
		c0.002,0.488,0.305,1.094,0.664,1.442c1.188,1.142,1.781,2.47,1.738,4.118c-0.037,1.479-0.008,2.96-0.008,4.527
		C94.006,119.395,98.027,119.395,102.205,119.395z M136.734,131.728c0-1.411,0.004-2.66,0-3.91
		c-0.006-2.719-0.676-3.382-3.432-3.382c-38.617-0.001-77.232-0.001-115.847,0.001c-0.675,0-1.356-0.033-2.023,0.041
		c-1.135,0.125-1.955,0.794-2.034,1.914c-0.124,1.755-0.032,3.524-0.032,5.336C54.526,131.728,95.531,131.728,136.734,131.728z
		 M40.374,67.712c-4.973,0-9.806,0-14.679,0c0,13.971,0,27.823,0,41.773c4.922,0,9.759,0,14.679,0
		C40.374,95.551,40.374,81.695,40.374,67.712z M82.375,67.67c-0.582-0.029-1.053-0.073-1.523-0.073
		c-3.857-0.005-7.716,0.047-11.574-0.032c-1.295-0.027-1.715,0.298-1.709,1.666c0.055,12.926,0.033,25.852,0.033,38.779
		c0,0.468,0,0.938,0,1.461c5.021,0,9.861,0,14.773,0C82.375,95.53,82.375,81.702,82.375,67.67z M124.361,67.725
		c-5.002,0-9.832,0-14.68,0c0,13.985,0,27.839,0,41.752c4.928,0,9.764,0,14.68,0C124.361,95.52,124.361,81.668,124.361,67.725z
		 M23.262,62.537c6.608,0,13.081,0,19.571,0c0-1.628,0-3.148,0-4.743c-6.55,0-13.024,0-19.571,0
		C23.262,59.399,23.262,60.919,23.262,62.537z M84.811,57.815c-6.605,0-13.079,0-19.571,0c0,1.63,0,3.152,0,4.749
		c6.549,0,13.022,0,19.571,0C84.811,60.963,84.811,59.442,84.811,57.815z M126.789,57.816c-6.619,0-13.094,0-19.572,0
		c0,1.632,0,3.156,0,4.745c6.551,0,13.023,0,19.572,0C126.789,60.958,126.789,59.436,126.789,57.816z M23.256,114.605
		c0,1.652,0,3.174,0,4.756c6.565,0,13.071,0,19.567,0c0-1.648,0-3.171,0-4.756C36.295,114.605,29.854,114.605,23.256,114.605z
		 M84.813,114.653c-6.6,0-13.071,0-19.572,0c0,1.633,0,3.152,0,4.748c6.552,0,13.025,0,19.572,0
		C84.813,117.797,84.813,116.277,84.813,114.653z M107.221,119.385c6.584,0,13.059,0,19.516,0c0-1.658,0-3.214,0-4.771
		c-6.563,0-12.998,0-19.516,0C107.221,116.21,107.221,117.734,107.221,119.385z"/>
	<path fill-rule="evenodd" clip-rule="evenodd" fill="#A9A9A9" d="M62.67,48.216c-0.816-0.595-1.738-0.944-2.063-1.593
		c-0.332-0.659-0.176-1.632-0.034-2.433c0.072-0.406,0.563-0.755,0.9-1.094c7.011-7.02,14.026-14.035,21.046-21.047
		c0.338-0.339,0.68-0.702,1.086-0.942c1.086-0.644,2.154-0.516,3.023,0.386c0.871,0.904,0.938,1.972,0.281,3.043
		c-0.197,0.323-0.486,0.593-0.76,0.865c-7.08,7.086-14.157,14.176-21.262,21.24C64.309,47.219,63.541,47.607,62.67,48.216z"/>
	<path fill-rule="evenodd" clip-rule="evenodd" fill="#A9A9A9" d="M85.084,40.15c-0.303,0.784-0.375,1.366-0.697,1.727
		c-0.957,1.07-1.951,2.124-3.047,3.047c-0.955,0.805-2.283,0.622-3.143-0.233c-0.881-0.879-1.014-2.297-0.166-3.271
		c0.881-1.01,1.783-2.064,2.877-2.799c0.639-0.427,1.781-0.56,2.492-0.288C84.107,38.602,84.557,39.543,85.084,40.15z"/>
	<path fill-rule="evenodd" clip-rule="evenodd" fill="#A9A9A9" d="M70.32,25.459c-0.381,0.789-0.533,1.381-0.892,1.79
		c-0.825,0.935-1.714,1.823-2.644,2.655c-1.019,0.91-2.482,0.833-3.386-0.083c-0.888-0.902-1.009-2.271-0.14-3.272
		c0.88-1.013,1.787-2.073,2.888-2.796c0.636-0.417,1.804-0.498,2.51-0.202C69.359,23.847,69.784,24.804,70.32,25.459z"/>
</g>
</svg>
