<?xml version="1.0" encoding="utf-8"?>
<!-- Generator: Adobe Illustrator 16.0.0, SVG Export Plug-In . SVG Version: 6.00 Build 0)  -->
<!DOCTYPE svg PUBLIC "-//W3C//DTD SVG 1.1//EN" "http://www.w3.org/Graphics/SVG/1.1/DTD/svg11.dtd">
<svg version="1.1" id="Layer_1" xmlns="http://www.w3.org/2000/svg" xmlns:xlink="http://www.w3.org/1999/xlink" x="0px" y="0px"
	 width="150px" height="150px" viewBox="0 0 150 150" enable-background="new 0 0 150 150" xml:space="preserve">
<g>
	<path fill-rule="evenodd" clip-rule="evenodd" d="M98.312,149c-0.951,0-1.9,0-2.852,0c-1.788-1.592-2.051-3.385-1.037-5.576
		c0.92-1.991,1.554-4.113,2.361-6.305c-2.793,0-5.105,0-7.415,0c-0.476,2.558-0.742,4.93-1.394,7.189
		c-0.474,1.64-1.455,3.133-2.211,4.691c-0.76,0-1.521,0-2.281,0c-1.834-1.237-2.056-2.979-1.641-4.982
		c0.469-2.262,0.848-4.542,1.291-6.957c-3.301,0-6.183,0-9.198,0c0.405,2.336,0.608,4.516,1.19,6.588
		c0.601,2.139,0.334,3.873-1.338,5.352c-0.951,0-1.901,0-2.852,0c-0.594-1.44-1.337-2.84-1.746-4.331
		c-0.524-1.908-0.617-3.944-1.227-5.817c-0.259-0.798-1.288-1.751-2.091-1.885c-1.727-0.287-3.534-0.088-5.649-0.088
		c0.863,2.418,1.438,4.52,2.353,6.464c1.01,2.146,0.833,3.951-0.765,5.657c-0.951,0-1.901,0-2.852,0
		c-0.749-1.287-1.695-2.498-2.215-3.871c-5.268-13.922-10.477-27.865-15.671-41.813c-0.707-1.897-1.457-3.52-3.613-4.355
		c-1.215-0.472-2.414-1.691-3.013-2.88c-0.863-1.714-2.045-1.879-3.672-1.857c-5.508,0.072-11.028-0.188-16.523,0.096
		c-5.594,0.29-9.542-1.705-11.755-6.913c0-25.854,0-51.709,0-77.563C3.84,6.621,6.117,4.335,9.342,2.998c44.105,0,88.21,0,132.314,0
		c3.217,1.346,5.498,3.627,6.844,6.844c0,25.854,0,51.709,0,77.563c-2.225,5.17-6.126,7.337-11.733,6.89
		c-3.109-0.248-6.26,0.072-9.383-0.072c-2.305-0.107-4.146,0.056-5.274,2.56c-0.485,1.076-2.008,1.647-2.947,2.563
		c-1.011,0.985-2.293,1.95-2.767,3.188c-5.347,13.967-10.544,27.991-15.834,41.98C99.974,146.072,99.07,147.508,98.312,149z
		 M112.001,82.178c5.106-0.489,9.024,0.76,11.448,5.214c0.271,0.498,1.463,0.678,2.232,0.689c4.181,0.064,8.362,0.057,12.544,0.023
		c3.428-0.027,4.128-0.739,4.13-4.274c0.014-23.378,0.014-46.756-0.001-70.133c-0.001-3.999-0.607-4.565-4.7-4.569
		c-9.692-0.009-19.387,0.002-29.08,0.002C76.833,9.128,45.092,9.124,13.353,9.128c-3.931,0-4.711,0.615-4.714,3.982
		C8.615,36.772,8.616,60.436,8.636,84.1c0.003,3.241,0.795,3.987,4.119,4.003c6.082,0.029,12.165-0.031,18.246,0.024
		c1.549,0.015,2.372-0.599,3.474-1.745c1.674-1.743,3.963-3.006,6.185-4.067c1.17-0.561,2.75-0.262,4.463-0.373
		c0-1.309,0-2.422,0-3.534c0-11.595-0.013-23.188,0.01-34.782c0.006-3.158,0.84-4.109,3.728-4.112
		c19.767-0.026,39.534-0.006,59.3-0.022c2.586-0.003,3.873,1.147,3.847,3.784c-0.036,3.706-0.006,7.412-0.006,11.118
		C112.001,63.503,112.001,72.613,112.001,82.178z M105.698,45.85c-18.313,0-36.312,0-54.375,0c0,12.141,0,24.054,0,36.093
		c18.209,0,36.209,0,54.375,0C105.698,69.843,105.698,57.919,105.698,45.85z M78.426,94.249c11.025,0,22.05,0.001,33.075-0.001
		c1.235,0,2.635,0.341,3.661-0.127c1.091-0.497,2.281-1.632,2.617-2.735c0.521-1.713-0.693-2.847-2.425-3.175
		c-0.737-0.14-1.515-0.092-2.273-0.092c-20.525-0.005-41.05-0.005-61.575-0.001c-3.13,0.001-6.266-0.054-9.393,0.068
		c-1.834,0.072-3.105,1.119-3.046,3.068c0.058,1.896,1.254,2.887,3.148,2.979c0.664,0.033,1.33,0.015,1.996,0.015
		C55.616,94.25,67.021,94.25,78.426,94.249z M87.817,112.388c0.745-4.054,1.44-7.839,2.16-11.758c-7.806,0-15.293,0-22.948,0
		c0.801,4.131,1.546,7.981,2.278,11.758C75.625,112.388,81.579,112.388,87.817,112.388z M84.4,130.641
		c0.739-4.056,1.431-7.844,2.144-11.754c-5.512,0-10.719,0-16.073,0c0.774,4.078,1.496,7.876,2.232,11.754
		C76.604,130.641,80.367,130.641,84.4,130.641z M50.941,112.383c4.106,0,7.973,0,12.083,0c-0.666-3.667-1.252-7.19-1.999-10.681
		c-0.111-0.521-0.969-1.245-1.498-1.257c-4.22-0.104-8.446-0.059-13.044-0.059C48.054,104.612,49.462,108.404,50.941,112.383z
		 M106.118,112.427c1.467-3.965,2.891-7.816,4.379-11.838c-5.03,0-9.617,0-14.286,0c-0.735,4.028-1.437,7.862-2.163,11.838
		C98.253,112.427,102.024,112.427,106.118,112.427z M53.324,118.631c1.456,3.92,2.678,7.385,4.067,10.781
		c0.242,0.592,1.167,1.229,1.813,1.271c2.342,0.152,4.699,0.061,7.265,0.061c-0.672-3.713-1.214-7.16-1.985-10.556
		c-0.143-0.627-1.194-1.449-1.864-1.487C59.705,118.538,56.777,118.631,53.324,118.631z M92.8,118.765
		c-0.743,4.063-1.438,7.861-2.192,11.98c2.679,0,5.04,0.052,7.395-0.041c0.523-0.021,1.318-0.436,1.492-0.868
		c1.438-3.577,2.759-7.202,4.213-11.071C99.88,118.765,96.491,118.765,92.8,118.765z"/>
</g>
</svg>
