<?xml version="1.0" encoding="utf-8"?>
<!-- Generator: Adobe Illustrator 16.0.0, SVG Export Plug-In . SVG Version: 6.00 Build 0)  -->
<!DOCTYPE svg PUBLIC "-//W3C//DTD SVG 1.1//EN" "http://www.w3.org/Graphics/SVG/1.1/DTD/svg11.dtd">
<svg version="1.1" id="Layer_1" xmlns="http://www.w3.org/2000/svg" xmlns:xlink="http://www.w3.org/1999/xlink" x="0px" y="0px"
	 width="442px" height="442px" viewBox="0 0 442 442" enable-background="new 0 0 442 442" xml:space="preserve">
<linearGradient id="SVGID_1_" gradientUnits="userSpaceOnUse" x1="238.3545" y1="503.5078" x2="-105.9864" y2="239.3417" gradientTransform="matrix(1 0 0 -1 206 559)">
	<stop  offset="0" style="stop-color:#F15DB4"/>
	<stop  offset="1" style="stop-color:#FF8E20"/>
</linearGradient>
<path fill="url(#SVGID_1_)" d="M37.763,355.189c-4.745-11.778-4.389-17.127,3.645-25.951
	c36.558-40.156,72.856-80.551,109.226-120.88c23.089-25.606,46.146-51.24,69.203-76.875c6.277-6.979,7.765-7.117,14.998-0.964
	c1.812,1.542,3.451,3.283,5.252,4.841c6.509,5.632,15.14,4.916,20.879-1.466c24.916-27.698,49.849-55.382,74.894-82.961
	c3.063-3.374,4.504-6.008,2.45-10.908c-3.247-7.761,1.442-17.409,9.572-23.083c5.422-3.787,17.188-2.766,22.306,2.146
	c11.005,10.57,22.73,20.387,33.855,30.839c6.675,6.271,7.909,15.883,3.73,22.905c-5.238,8.802-14.973,13.117-23.906,10.026
	c-2.757-0.955-3.85-0.192-5.493,1.64c-25.701,28.652-51.482,57.232-77.222,85.851c-6.098,6.779-5.598,15.041,1.176,21.122
	c2.4,2.159,4.806,4.314,7.215,6.466c3.931,3.505,4.232,5.799,0.673,9.813c-13.346,15.041-26.765,30.018-40.216,44.965
	c-28.283,31.434-56.591,62.846-84.916,94.243c-18.941,20.999-38.099,41.808-56.807,63.011c-6.712,7.61-14.08,8.021-22.931,5.213
	c-14.656-4.646-26.411-13.809-37.702-23.644C56.092,381.477,45.553,370.458,37.763,355.189z M287.426,167.575
	c-3.82-2.931-7.455-5.42-10.73-8.316c-3.434-3.036-6.383-6.627-9.846-9.626c-1.166-1.009-3.656-1.806-4.861-1.244
	c-10.579,4.929-21.684,3.568-30.26-4.079c-1.223-1.088-2.449-2.172-3.725-3.305c-20.251,22.377-40.198,44.33-60.045,66.371
	c-38.795,43.083-77.526,86.222-116.309,129.319c-5.82,6.47-5.854,7.324-1.77,14.908c8.321,15.457,20.585,27.463,34.328,37.795
	c7.645,5.748,16.595,9.826,25.175,14.231c3.929,2.017,7.285,0.814,10.554-2.855c20.679-23.222,41.701-46.139,62.521-69.232
	c32.938-36.526,65.808-73.11,98.696-109.681c5.393-5.998,10.734-12.042,16.086-18.042
	C282.531,190.059,282.779,180.621,287.426,167.575z M377.785,67.472c2.117,0.63,4.545,0.883,6.456,2.014
	c4.887,2.89,8.667,2.65,11.711-1.273c2.712-3.491,2.161-7.882-1.62-11.263c-10.453-9.349-20.954-18.646-31.462-27.933
	c-3.591-3.171-7.437-2.966-10.618,0.438c-3.367,3.604-3.352,7.989,0.16,11.243c2.484,2.299,5.053,4.511,7.654,6.678
	c3.174,2.644,5.19,5.733,2.551,9.656c-2.287,3.4-6.499,3.542-10.208-0.112c-3.066-3.023-4.524-1.825-6.766,0.726
	c-8.859,10.083-17.874,20.033-26.861,30.002c-14.224,15.77-28.511,31.483-42.628,47.347c-0.9,1.014-1.367,3.891-0.687,4.601
	c5.244,5.456,10.673,10.763,16.369,15.744c2.479,2.17,5.011,2,7.724-1.054c22.126-24.911,44.474-49.625,66.768-74.383
	C369.837,76.006,373.432,72.189,377.785,67.472z"/>
</svg>
