<?xml version="1.0" encoding="utf-8"?>
<!-- Generator: Adobe Illustrator 16.0.0, SVG Export Plug-In . SVG Version: 6.00 Build 0)  -->
<!DOCTYPE svg PUBLIC "-//W3C//DTD SVG 1.1//EN" "http://www.w3.org/Graphics/SVG/1.1/DTD/svg11.dtd">
<svg version="1.1" id="Layer_1" xmlns="http://www.w3.org/2000/svg" xmlns:xlink="http://www.w3.org/1999/xlink" x="0px" y="0px"
	 width="442px" height="442px" viewBox="0 0 442 442" enable-background="new 0 0 442 442" xml:space="preserve">
<g>
	
		<linearGradient id="SVGID_1_" gradientUnits="userSpaceOnUse" x1="163.4609" y1="488.6318" x2="-154.5243" y2="175.1466" gradientTransform="matrix(1 0 0 -1 206 559)">
		<stop  offset="0" style="stop-color:#F15DB4"/>
		<stop  offset="1" style="stop-color:#FF8E20"/>
	</linearGradient>
	<path fill="url(#SVGID_1_)" d="M424.748,220.121c-0.886,100.715-72.879,185.957-171.766,203.023
		c-110.267,19.031-216.271-54.08-237.697-163.938C-7.084,144.512,70.102,34.289,185.707,15.851
		c3.616-0.576,7.239-1.122,10.874-1.554c5.286-0.629,9.533,2.398,10.278,7.199c0.75,4.828-2.287,8.672-7.726,9.821
		c-13.326,2.815-27.143,4.236-39.893,8.701C87.047,65.297,43.369,115.926,31.182,191.414
		c-9.672,59.902,8.452,112.363,48.752,157.632c9.146,10.274,19.676,11.505,31.621,9.41c20.135-3.531,38.457-12.031,55.68-22.576
		c69.742-42.698,126.001-98.979,168.189-169.097c9.639-16.017,17.246-33.05,21.021-51.531c0.729-3.574,1.178-7.255,1.272-10.899
		c0.229-8.538-2.469-15.661-9.028-21.771C325.188,60.7,298.184,45.31,267.177,36.939c-1.597-0.431-3.231-0.903-4.676-1.677
		c-3.776-2.022-5.29-6.297-3.821-10.267c1.598-4.316,5.682-6.521,10.446-5.333c20.173,5.03,39.228,12.859,56.808,23.942
		c52.641,33.184,84.351,80.609,95.719,141.711c0.607,3.269,1.06,6.582,1.326,9.896C423.646,203.509,424.168,211.817,424.748,220.121
		z M112.592,375.994c67.039,48.222,175.176,47.681,245.344-29.381c68.716-75.465,57.371-177.75,16.582-232.085
		c-8.551,31.526-14.619,46.073-28.866,68.99c-28.393,45.671-63.854,85.22-104.521,120.196
		c-24.558,21.121-50.653,40.095-79.534,54.985C146.171,366.652,130.158,373.043,112.592,375.994z"/>
	
		<linearGradient id="SVGID_2_" gradientUnits="userSpaceOnUse" x1="154.7891" y1="497.4268" x2="-163.1949" y2="183.9426" gradientTransform="matrix(1 0 0 -1 206 559)">
		<stop  offset="0" style="stop-color:#F15DB4"/>
		<stop  offset="1" style="stop-color:#FF8E20"/>
	</linearGradient>
	<path fill="url(#SVGID_2_)" d="M315.494,98.163c-0.412,1.148-0.992,3.229-1.879,5.171c-14.006,30.661-32.61,58.435-54.584,83.811
		c-15.348,17.724-31.961,34.357-48.133,51.359c-4.284,4.505-9.583,4.732-13.213,1.151c-3.893-3.839-3.516-8.947,1.293-13.521
		c27.352-26.008,52.797-53.732,73.484-85.376c9.705-14.847,17.683-30.828,26.325-46.359c2.52-4.526,6.101-6.568,10.548-5.399
		C312.861,89.926,315.468,93.391,315.494,98.163z"/>
	
		<linearGradient id="SVGID_3_" gradientUnits="userSpaceOnUse" x1="153.313" y1="498.9199" x2="-164.6682" y2="185.4387" gradientTransform="matrix(1 0 0 -1 206 559)">
		<stop  offset="0" style="stop-color:#F15DB4"/>
		<stop  offset="1" style="stop-color:#FF8E20"/>
	</linearGradient>
	<path fill="url(#SVGID_3_)" d="M97.128,316.85c-4.922-0.58-7.972-2.711-8.874-6.934c-0.951-4.459,1.072-7.666,5.069-9.784
		c10.993-5.825,22.065-11.517,32.887-17.647c6.2-3.514,11.962-7.795,17.938-11.703c5.239-3.426,10.75-2.702,13.555,1.734
		c2.792,4.416,1.571,9.289-3.959,12.565c-16.977,10.058-34.098,19.871-51.211,29.692C100.704,315.824,98.553,316.314,97.128,316.85z
		"/>
	
		<linearGradient id="SVGID_4_" gradientUnits="userSpaceOnUse" x1="181.1719" y1="470.6904" x2="-136.828" y2="157.1907" gradientTransform="matrix(1 0 0 -1 206 559)">
		<stop  offset="0" style="stop-color:#F15DB4"/>
		<stop  offset="1" style="stop-color:#FF8E20"/>
	</linearGradient>
	<path fill="url(#SVGID_4_)" d="M162.707,318.225c-4.778,0.059-8.626-3.674-8.689-8.43c-0.063-4.669,3.814-8.66,8.471-8.721
		c4.719-0.063,8.604,3.758,8.637,8.488C171.157,314.407,167.504,318.166,162.707,318.225z"/>
	
		<linearGradient id="SVGID_5_" gradientUnits="userSpaceOnUse" x1="184.978" y1="466.7773" x2="-132.9835" y2="153.3154" gradientTransform="matrix(1 0 0 -1 206 559)">
		<stop  offset="0" style="stop-color:#F15DB4"/>
		<stop  offset="1" style="stop-color:#FF8E20"/>
	</linearGradient>
	<path fill="url(#SVGID_5_)" d="M190.446,298.216c-4.789-0.086-8.503-3.922-8.411-8.686c0.09-4.666,4.125-8.546,8.758-8.423
		c4.752,0.125,8.415,3.988,8.327,8.783C199.031,294.762,195.34,298.304,190.446,298.216z"/>
	
		<linearGradient id="SVGID_6_" gradientUnits="userSpaceOnUse" x1="180.1382" y1="471.7021" x2="-137.8224" y2="158.2411" gradientTransform="matrix(1 0 0 -1 206 559)">
		<stop  offset="0" style="stop-color:#F15DB4"/>
		<stop  offset="1" style="stop-color:#FF8E20"/>
	</linearGradient>
	<path fill="url(#SVGID_6_)" d="M316.233,164.726c-0.094,4.886-3.794,8.443-8.682,8.344c-4.7-0.097-8.59-4.119-8.442-8.732
		c0.147-4.669,4.134-8.438,8.848-8.367C312.77,156.043,316.326,159.806,316.233,164.726z"/>
	
		<linearGradient id="SVGID_7_" gradientUnits="userSpaceOnUse" x1="184.3086" y1="467.4746" x2="-133.658" y2="154.0078" gradientTransform="matrix(1 0 0 -1 206 559)">
		<stop  offset="0" style="stop-color:#F15DB4"/>
		<stop  offset="1" style="stop-color:#FF8E20"/>
	</linearGradient>
	<path fill="url(#SVGID_7_)" d="M296.236,192.384c0.082,4.861-3.492,8.616-8.295,8.716c-4.729,0.099-8.707-3.65-8.813-8.304
		c-0.104-4.566,3.817-8.656,8.427-8.784C292.275,183.88,296.156,187.622,296.236,192.384z"/>
	
		<linearGradient id="SVGID_8_" gradientUnits="userSpaceOnUse" x1="186.7227" y1="465.0322" x2="-131.2574" y2="151.552" gradientTransform="matrix(1 0 0 -1 206 559)">
		<stop  offset="0" style="stop-color:#F15DB4"/>
		<stop  offset="1" style="stop-color:#FF8E20"/>
	</linearGradient>
	<path fill="url(#SVGID_8_)" d="M265.948,210.586c4.817,0.067,8.424,3.831,8.333,8.697c-0.088,4.752-4.01,8.556-8.694,8.437
		c-4.651-0.118-8.563-4.178-8.462-8.777C257.229,214.301,261.221,210.52,265.948,210.586z"/>
	
		<linearGradient id="SVGID_9_" gradientUnits="userSpaceOnUse" x1="187.6499" y1="464.0996" x2="-130.34" y2="150.6098" gradientTransform="matrix(1 0 0 -1 206 559)">
		<stop  offset="0" style="stop-color:#F15DB4"/>
		<stop  offset="1" style="stop-color:#FF8E20"/>
	</linearGradient>
	<path fill="url(#SVGID_9_)" d="M242.43,252.814c-4.625,0.121-8.584-3.734-8.666-8.438c-0.086-4.839,3.531-8.623,8.301-8.687
		c4.776-0.063,8.68,3.637,8.778,8.32C250.939,248.591,247.018,252.695,242.43,252.814z"/>
	
		<linearGradient id="SVGID_10_" gradientUnits="userSpaceOnUse" x1="161.9185" y1="490.1982" x2="-156.0673" y2="176.7125" gradientTransform="matrix(1 0 0 -1 206 559)">
		<stop  offset="0" style="stop-color:#F15DB4"/>
		<stop  offset="1" style="stop-color:#FF8E20"/>
	</linearGradient>
	<path fill="url(#SVGID_10_)" d="M177.607,264.882c-4.518-0.141-8.49-4.312-8.412-8.831c0.081-4.685,3.955-8.299,8.798-8.206
		c4.927,0.095,8.38,3.689,8.272,8.611C186.162,261.148,182.181,265.025,177.607,264.882z"/>
	
		<linearGradient id="SVGID_11_" gradientUnits="userSpaceOnUse" x1="175.0981" y1="476.833" x2="-142.8895" y2="163.3453" gradientTransform="matrix(1 0 0 -1 206 559)">
		<stop  offset="0" style="stop-color:#F15DB4"/>
		<stop  offset="1" style="stop-color:#FF8E20"/>
	</linearGradient>
	<path fill="url(#SVGID_11_)" d="M141.29,327.061c-0.087,4.744-4.002,8.588-8.642,8.484c-4.7-0.104-8.623-4.1-8.527-8.686
		c0.096-4.571,4.177-8.528,8.778-8.512C137.575,318.364,141.378,322.313,141.29,327.061z"/>
	
		<linearGradient id="SVGID_12_" gradientUnits="userSpaceOnUse" x1="72.0479" y1="581.3535" x2="-245.9247" y2="267.8808" gradientTransform="matrix(1 0 0 -1 206 559)">
		<stop  offset="0" style="stop-color:#F15DB4"/>
		<stop  offset="1" style="stop-color:#FF8E20"/>
	</linearGradient>
	<path fill="url(#SVGID_12_)" d="M232.583,30.947c-4.601-0.034-8.537-4.091-8.451-8.706c0.087-4.699,3.938-8.403,8.718-8.386
		c4.826,0.018,8.467,3.752,8.365,8.583C241.115,27.176,237.254,30.982,232.583,30.947z"/>
	
		<linearGradient id="SVGID_13_" gradientUnits="userSpaceOnUse" x1="187.084" y1="464.707" x2="-130.936" y2="151.1875" gradientTransform="matrix(1 0 0 -1 206 559)">
		<stop  offset="0" style="stop-color:#F15DB4"/>
		<stop  offset="1" style="stop-color:#FF8E20"/>
	</linearGradient>
	<path fill="url(#SVGID_13_)" d="M208.594,267.553c0.113-4.678,4.119-8.523,8.75-8.402c4.635,0.123,8.565,4.201,8.461,8.781
		c-0.104,4.619-4.094,8.338-8.863,8.262C212.063,276.114,208.477,272.402,208.594,267.553z"/>
	
		<linearGradient id="SVGID_14_" gradientUnits="userSpaceOnUse" x1="165.8315" y1="486.2646" x2="-152.1745" y2="172.7589" gradientTransform="matrix(1 0 0 -1 206 559)">
		<stop  offset="0" style="stop-color:#F15DB4"/>
		<stop  offset="1" style="stop-color:#FF8E20"/>
	</linearGradient>
	<path fill="url(#SVGID_14_)" d="M109.343,339.734c0.056,4.863-3.575,8.594-8.388,8.615c-4.745,0.021-8.639-3.816-8.617-8.494
		c0.021-4.68,3.922-8.685,8.496-8.724C105.502,331.092,109.287,334.92,109.343,339.734z"/>
	
		<linearGradient id="SVGID_15_" gradientUnits="userSpaceOnUse" x1="164.2051" y1="487.874" x2="-153.7617" y2="174.4069" gradientTransform="matrix(1 0 0 -1 206 559)">
		<stop  offset="0" style="stop-color:#F15DB4"/>
		<stop  offset="1" style="stop-color:#FF8E20"/>
	</linearGradient>
	<path fill="url(#SVGID_15_)" d="M329.413,102.743c0.073-4.725,3.946-8.437,8.741-8.375c4.729,0.06,8.612,3.979,8.535,8.609
		c-0.078,4.648-4.029,8.417-8.775,8.368C333.17,111.297,329.341,107.422,329.413,102.743z"/>
	
		<linearGradient id="SVGID_16_" gradientUnits="userSpaceOnUse" x1="173.7734" y1="478.1631" x2="-144.189" y2="164.7003" gradientTransform="matrix(1 0 0 -1 206 559)">
		<stop  offset="0" style="stop-color:#F15DB4"/>
		<stop  offset="1" style="stop-color:#FF8E20"/>
	</linearGradient>
	<path fill="url(#SVGID_16_)" d="M324.605,143.23c-4.709-0.204-8.345-4.213-8.093-8.922c0.249-4.63,4.431-8.413,8.99-8.137
		c4.617,0.28,8.414,4.5,8.128,9.035C333.334,139.941,329.398,143.438,324.605,143.23z"/>
	
		<linearGradient id="SVGID_17_" gradientUnits="userSpaceOnUse" x1="256.3926" y1="394.3662" x2="-61.593" y2="80.8806" gradientTransform="matrix(1 0 0 -1 206 559)">
		<stop  offset="0" style="stop-color:#F15DB4"/>
		<stop  offset="1" style="stop-color:#FF8E20"/>
	</linearGradient>
	<path fill="url(#SVGID_17_)" d="M229.102,395.896c-2.39-2.03-5.802-3.576-6.64-6.008c-0.911-2.646,0.179-6.246,1.173-9.166
		c0.488-1.435,2.676-2.36,4.198-3.358c56.545-37.072,103.64-83.787,142.166-139.253c0.569-0.82,1.094-1.676,1.712-2.457
		c3.199-4.045,8.018-5.049,11.896-2.506c4.107,2.693,5.296,7.851,2.23,12.261c-6.457,9.288-12.904,18.612-19.908,27.485
		c-36.685,46.479-79.102,86.797-128.961,119.015C234.792,393.316,232.328,394.278,229.102,395.896z"/>
	
		<linearGradient id="SVGID_18_" gradientUnits="userSpaceOnUse" x1="235.9805" y1="415.0586" x2="-81.9905" y2="101.5874" gradientTransform="matrix(1 0 0 -1 206 559)">
		<stop  offset="0" style="stop-color:#F15DB4"/>
		<stop  offset="1" style="stop-color:#FF8E20"/>
	</linearGradient>
	<path fill="url(#SVGID_18_)" d="M288.309,304.016c-4.762-0.017-8.504-3.82-8.473-8.617c0.03-4.819,3.74-8.504,8.564-8.506
		c4.748,0,8.59,3.84,8.563,8.563C296.939,300.07,292.938,304.029,288.309,304.016z"/>
	
		<linearGradient id="SVGID_19_" gradientUnits="userSpaceOnUse" x1="235.1289" y1="415.9355" x2="-82.8571" y2="102.4495" gradientTransform="matrix(1 0 0 -1 206 559)">
		<stop  offset="0" style="stop-color:#F15DB4"/>
		<stop  offset="1" style="stop-color:#FF8E20"/>
	</linearGradient>
	<path fill="url(#SVGID_19_)" d="M322.139,268.805c-0.03,4.842-3.604,8.391-8.475,8.42c-4.8,0.028-8.535-3.574-8.641-8.334
		c-0.105-4.793,4.017-8.91,8.805-8.789C318.521,260.219,322.17,264.041,322.139,268.805z"/>
	
		<linearGradient id="SVGID_20_" gradientUnits="userSpaceOnUse" x1="235.1289" y1="415.9355" x2="-82.8574" y2="102.4492" gradientTransform="matrix(1 0 0 -1 206 559)">
		<stop  offset="0" style="stop-color:#F15DB4"/>
		<stop  offset="1" style="stop-color:#FF8E20"/>
	</linearGradient>
	<path fill="url(#SVGID_20_)" d="M269.928,320.148c0.135,4.601-3.755,8.705-8.373,8.832c-4.701,0.132-8.592-3.615-8.721-8.396
		c-0.13-4.88,3.411-8.619,8.27-8.733C265.883,311.74,269.788,315.411,269.928,320.148z"/>
	
		<linearGradient id="SVGID_21_" gradientUnits="userSpaceOnUse" x1="227.9482" y1="423.2324" x2="-90.0647" y2="109.7199" gradientTransform="matrix(1 0 0 -1 206 559)">
		<stop  offset="0" style="stop-color:#F15DB4"/>
		<stop  offset="1" style="stop-color:#FF8E20"/>
	</linearGradient>
	<path fill="url(#SVGID_21_)" d="M366.872,210.389c0.048,4.575-3.957,8.628-8.56,8.662c-4.813,0.036-8.516-3.633-8.575-8.499
		c-0.061-4.886,3.53-8.555,8.416-8.599C362.9,201.911,366.824,205.707,366.872,210.389z"/>
	
		<linearGradient id="SVGID_22_" gradientUnits="userSpaceOnUse" x1="232.5459" y1="418.5664" x2="-85.4563" y2="105.0645" gradientTransform="matrix(1 0 0 -1 206 559)">
		<stop  offset="0" style="stop-color:#F15DB4"/>
		<stop  offset="1" style="stop-color:#FF8E20"/>
	</linearGradient>
	<path fill="url(#SVGID_22_)" d="M336.854,249.029c-4.775-0.076-8.454-3.913-8.348-8.704c0.105-4.722,4.01-8.441,8.756-8.343
		c4.705,0.099,8.582,4.098,8.438,8.705C345.554,245.309,341.528,249.104,336.854,249.029z"/>
	
		<linearGradient id="SVGID_23_" gradientUnits="userSpaceOnUse" x1="232.5195" y1="418.5605" x2="-85.4474" y2="105.0934" gradientTransform="matrix(1 0 0 -1 206 559)">
		<stop  offset="0" style="stop-color:#F15DB4"/>
		<stop  offset="1" style="stop-color:#FF8E20"/>
	</linearGradient>
	<path fill="url(#SVGID_23_)" d="M232.434,351.951c-4.68-0.141-8.508-4.158-8.371-8.787c0.142-4.737,4.017-8.379,8.807-8.275
		c4.824,0.105,8.374,3.844,8.273,8.719C241.045,348.391,237.18,352.093,232.434,351.951z"/>
	
		<linearGradient id="SVGID_24_" gradientUnits="userSpaceOnUse" x1="227.8037" y1="423.3398" x2="-90.1648" y2="109.8711" gradientTransform="matrix(1 0 0 -1 206 559)">
		<stop  offset="0" style="stop-color:#F15DB4"/>
		<stop  offset="1" style="stop-color:#FF8E20"/>
	</linearGradient>
	<path fill="url(#SVGID_24_)" d="M210.893,363.927c-0.004,4.613-3.996,8.634-8.583,8.642c-4.674,0.008-8.49-3.854-8.51-8.61
		c-0.021-4.825,3.739-8.653,8.447-8.601C206.965,355.412,210.896,359.309,210.893,363.927z"/>
	
		<linearGradient id="SVGID_25_" gradientUnits="userSpaceOnUse" x1="220.3867" y1="430.9492" x2="-97.6336" y2="117.4294" gradientTransform="matrix(1 0 0 -1 206 559)">
		<stop  offset="0" style="stop-color:#F15DB4"/>
		<stop  offset="1" style="stop-color:#FF8E20"/>
	</linearGradient>
	<path fill="url(#SVGID_25_)" d="M169.928,372.699c4.858,0.097,8.396,3.816,8.266,8.695c-0.124,4.682-4.146,8.526-8.756,8.371
		c-4.627-0.156-8.439-4.207-8.346-8.865C161.188,376.191,165.055,372.604,169.928,372.699z"/>
	
		<linearGradient id="SVGID_26_" gradientUnits="userSpaceOnUse" x1="220.7876" y1="430.4834" x2="-97.2044" y2="116.9915" gradientTransform="matrix(1 0 0 -1 206 559)">
		<stop  offset="0" style="stop-color:#F15DB4"/>
		<stop  offset="1" style="stop-color:#FF8E20"/>
	</linearGradient>
	<path fill="url(#SVGID_26_)" d="M376.001,169.937c4.714-0.08,8.601,3.623,8.743,8.331c0.139,4.579-3.723,8.582-8.401,8.708
		c-4.704,0.126-8.509-3.567-8.626-8.376C367.6,173.818,371.232,170.019,376.001,169.937z"/>
</g>
</svg>
