<?xml version="1.0" encoding="utf-8"?>
<!-- Generator: Adobe Illustrator 16.0.0, SVG Export Plug-In . SVG Version: 6.00 Build 0)  -->
<!DOCTYPE svg PUBLIC "-//W3C//DTD SVG 1.1//EN" "http://www.w3.org/Graphics/SVG/1.1/DTD/svg11.dtd">
<svg version="1.1" id="Layer_1" xmlns="http://www.w3.org/2000/svg" xmlns:xlink="http://www.w3.org/1999/xlink" x="0px" y="0px"
	 width="204px" height="150px" viewBox="361.5 0 204 150" enable-background="new 361.5 0 204 150" xml:space="preserve">
<g>
	<path fill="#A9A9A9" d="M75.961,146.584c-20.298,0-40.598,0-60.896,0c-3.241,0-4.1-0.82-4.053-4.048
		c0.092-6.527-0.128-13.082,0.416-19.572c1.045-12.465,4.459-24.267,11.609-34.717c4.329-6.325,9.852-11.179,17.52-13.144
		c5.096-1.305,9.701-0.819,13.836,2.842c4.56,4.039,9.739,6.979,15.937,7.73c9.134,1.106,17.729-0.003,25.119-6.091
		c0.407-0.336,0.881-0.603,1.256-0.97c5.396-5.313,11.58-4.984,17.996-2.414c6.778,2.717,11.573,7.744,15.356,13.798
		c6.229,9.972,9.443,20.996,10.401,32.608c0.569,6.899,0.356,13.867,0.44,20.806c0.026,2.245-1.116,3.162-3.691,3.162
		c-20.416,0.003-40.833,0.001-61.248,0.001C75.961,146.579,75.961,146.582,75.961,146.584z M135.195,140.846
		c0.234-9.856,0.258-19.58-2.229-29.139c-2.013-7.739-4.822-15.111-9.678-21.549c-3.674-4.871-8.212-8.532-14.383-9.795
		c-2.807-0.575-5.336-0.33-7.533,1.758c-1.061,1.006-2.285,1.85-3.49,2.689c-12.188,8.494-25.137,9.037-38.449,3.24
		c-3.275-1.426-6.132-3.89-9.031-6.074c-1.902-1.435-3.812-2.136-6.197-1.802c-3.898,0.546-7.309,2.117-10.352,4.552
		c-4.414,3.529-7.453,8.112-9.91,13.116c-4.387,8.935-6.617,18.446-7.166,28.331c-0.27,4.85-0.047,9.725-0.047,14.672
		C56.21,140.846,95.596,140.846,135.195,140.846z"/>
	<path fill="#A9A9A9" d="M75.918,5.369c18.539-0.004,33.916,15.102,33.908,33.309c-0.01,18.634-15.264,33.716-34.083,33.698
		c-18.458-0.017-33.695-15.174-33.695-33.52C42.048,20.423,57.271,5.373,75.918,5.369z M47.697,38.747
		C47.666,54.1,60.302,66.656,75.852,66.723c15.375,0.066,28.256-12.517,28.324-27.67c0.07-15.329-12.619-27.988-28.105-28.036
		C60.49,10.969,47.729,23.441,47.697,38.747z"/>
</g>
<g>
	<path fill-rule="evenodd" clip-rule="evenodd" fill="#A9A9A9" d="M463.723,135.985c-25.638,0-51.277,0.007-76.916-0.01
		c-2.132-0.003-4.314,0.086-6.385-0.325c-6.559-1.299-11.38-7.2-11.389-13.944c-0.038-31.72-0.051-63.441,0.001-95.161
		c0.014-8.045,6.504-14.145,14.912-14.159c22.185-0.038,44.373-0.025,66.563-0.024c30.651,0,61.303,0.001,91.955,0.014
		c10.092,0.005,15.942,5.843,15.943,15.868c0.005,30.816,0.009,61.631,0.009,92.449c0,9.048-6.09,15.275-15.064,15.285
		C516.809,136.005,490.267,135.985,463.723,135.985z M552.489,59.238c-59.403,0-118.419,0-177.559,0c0,1.031,0,1.848,0,2.666
		c0,19.392-0.003,38.783,0,58.174c0.001,6.729,3.211,9.971,9.955,9.973c52.668,0.008,105.338,0.008,158.006,0
		c6.235-0.002,9.596-3.378,9.597-9.587c0.004-19.555,0.001-39.112,0.001-58.667C552.489,60.987,552.489,60.177,552.489,59.238z
		 M552.398,38.847c-59.292,0-118.315,0-177.295,0c0,4.832,0,9.474,0,14.058c59.197,0,118.219,0,177.295,0
		C552.398,48.132,552.398,43.555,552.398,38.847z M374.947,32.571c59.329,0,118.37,0,177.536,0c0-1.397-0.003-2.622,0-3.847
		c0.017-7.305-3.007-10.413-10.239-10.415c-38.629-0.013-77.259-0.01-115.889-0.012c-14.137-0.001-28.273-0.017-42.411,0.016
		c-5.021,0.012-8.704,3.283-8.978,7.944C374.849,28.296,374.947,30.348,374.947,32.571z"/>
	<path fill-rule="evenodd" clip-rule="evenodd" fill="#A9A9A9" d="M437.598,97.754c0.045,13.145-13.477,21.74-25.376,16.065
		c-1.403-0.669-2.432-0.719-3.845-0.032c-7.622,3.714-16.484,1.614-21.699-5.007c-5.03-6.388-5.021-15.532,0.024-21.915
		c5.138-6.504,13.981-8.638,21.498-5.049c1.477,0.708,2.56,0.742,4.073,0.026C424.085,76.256,437.557,84.763,437.598,97.754z
		 M431.677,97.992c0.058-6.612-5.179-11.95-11.747-11.978c-6.348-0.028-11.727,5.266-11.867,11.688
		c-0.138,6.292,5.249,11.875,11.567,11.98C426.214,109.796,431.621,104.55,431.677,97.992z M405.459,108.497
		c-4.652-7.205-4.533-14.27-0.043-21.293c-4.793-2.379-10.498-1.029-13.965,3.243c-3.41,4.204-3.489,10.276-0.189,14.573
		C394.64,109.415,400.336,110.854,405.459,108.497z"/>
	<path fill-rule="evenodd" clip-rule="evenodd" fill="#A9A9A9" d="M496.104,100.808c-3.03,0-6.062,0.027-9.093-0.008
		c-2.335-0.031-3.739-1.22-3.568-3.08c0.194-2.126,1.587-2.854,3.578-2.848c6.308,0.022,12.617,0.021,18.925,0.005
		c2.045-0.005,3.443,0.916,3.441,2.973c-0.002,2.06-1.411,2.978-3.45,2.963C502.66,100.79,499.384,100.808,496.104,100.808z"/>
	<path fill-rule="evenodd" clip-rule="evenodd" fill="#A9A9A9" d="M461.218,100.81c-3.11-0.002-6.223-0.012-9.334,0.003
		c-2.002,0.013-3.43-0.772-3.464-2.916c-0.034-2.146,1.349-3.004,3.367-3.004c6.387,0,12.774,0,19.161-0.003
		c2.049-0.003,3.419,0.96,3.369,3.026c-0.05,2.074-1.503,2.921-3.518,2.904C467.606,100.795,464.412,100.813,461.218,100.81z"/>
	<path fill-rule="evenodd" clip-rule="evenodd" fill="#A9A9A9" d="M531.276,100.808c-3.115-0.003-6.229-0.01-9.342,0
		c-2.03,0.007-3.428-0.881-3.413-2.982c0.014-2.108,1.44-2.943,3.46-2.938c6.309,0.011,12.618,0.021,18.93-0.007
		c2.013-0.01,3.371,0.777,3.577,2.866c0.18,1.809-1.299,3.022-3.624,3.052C537.668,100.837,534.472,100.808,531.276,100.808z"/>
</g>
</svg>
