<?xml version="1.0" encoding="utf-8"?>
<!-- Generator: Adobe Illustrator 16.0.0, SVG Export Plug-In . SVG Version: 6.00 Build 0)  -->
<!DOCTYPE svg PUBLIC "-//W3C//DTD SVG 1.1//EN" "http://www.w3.org/Graphics/SVG/1.1/DTD/svg11.dtd">
<svg version="1.1" id="Capa_1" xmlns="http://www.w3.org/2000/svg" xmlns:xlink="http://www.w3.org/1999/xlink" x="0px" y="0px"
	 width="150px" height="150px" viewBox="0 0 150 150" enable-background="new 0 0 150 150" xml:space="preserve">
<g>
	<g>
		<linearGradient id="SVGID_1_" gradientUnits="userSpaceOnUse" x1="35.2593" y1="95.1592" x2="127.2598" y2="48.4922">
			<stop  offset="0" style="stop-color:#F15DB4"/>
			<stop  offset="1" style="stop-color:#FF8E20"/>
		</linearGradient>
		<path fill="url(#SVGID_1_)" d="M65,2.5C65,1.119,63.881,0,62.5,0h-20C41.119,0,40,1.119,40,2.5v29.123c0,0,0,0.001,0,0.002v115.88
			c0.003,1.378,1.121,2.495,2.5,2.495h20c1.381,0,2.5-1.119,2.5-2.5c0-5.523,4.477-10,10-10c5.522,0,10,4.477,10,10
			c0,1.381,1.119,2.5,2.5,2.5h20c1.381,0,2.5-1.119,2.5-2.5V2.5c0-1.381-1.119-2.5-2.5-2.5h-20C86.119,0,85,1.119,85,2.5
			c0,5.523-4.478,10-10,10C69.477,12.5,65,8.023,65,2.5z M77.486,17.307C83.791,16.246,88.732,11.306,89.792,5H105v20H95v5h10v90
			h-2.5v5h2.5v20H89.792c-1.373-8.17-9.108-13.68-17.278-12.307c-6.306,1.061-11.246,6-12.307,12.307H45v-20h7.5v-5H45V5h15.207
			C61.58,13.17,69.316,18.68,77.486,17.307z"/>
	</g>
</g>
<g>
	<g>
		<linearGradient id="SVGID_2_" gradientUnits="userSpaceOnUse" x1="12.0029" y1="49.311" x2="104.0034" y2="2.644">
			<stop  offset="0" style="stop-color:#F15DB4"/>
			<stop  offset="1" style="stop-color:#FF8E20"/>
		</linearGradient>
		<rect x="50" y="25" fill="url(#SVGID_2_)" width="10" height="5"/>
	</g>
</g>
<g>
	<g>
		<linearGradient id="SVGID_3_" gradientUnits="userSpaceOnUse" x1="15.0728" y1="55.3628" x2="107.0732" y2="8.6958">
			<stop  offset="0" style="stop-color:#F15DB4"/>
			<stop  offset="1" style="stop-color:#FF8E20"/>
		</linearGradient>
		<rect x="65" y="25" fill="url(#SVGID_3_)" width="10" height="5"/>
	</g>
</g>
<g>
	<g>
		<linearGradient id="SVGID_4_" gradientUnits="userSpaceOnUse" x1="18.1421" y1="61.4136" x2="110.1426" y2="14.7466">
			<stop  offset="0" style="stop-color:#F15DB4"/>
			<stop  offset="1" style="stop-color:#FF8E20"/>
		</linearGradient>
		<rect x="80" y="25" fill="url(#SVGID_4_)" width="10" height="5"/>
	</g>
</g>
<g>
	<g>
		<linearGradient id="SVGID_5_" gradientUnits="userSpaceOnUse" x1="51.8643" y1="127.8955" x2="143.8647" y2="81.2285">
			<stop  offset="0" style="stop-color:#F15DB4"/>
			<stop  offset="1" style="stop-color:#FF8E20"/>
		</linearGradient>
		<rect x="57.5" y="120" fill="url(#SVGID_5_)" width="10" height="5"/>
	</g>
</g>
<g>
	<g>
		<linearGradient id="SVGID_6_" gradientUnits="userSpaceOnUse" x1="54.9346" y1="133.9473" x2="146.9351" y2="87.2803">
			<stop  offset="0" style="stop-color:#F15DB4"/>
			<stop  offset="1" style="stop-color:#FF8E20"/>
		</linearGradient>
		<rect x="72.5" y="120" fill="url(#SVGID_6_)" width="10" height="5"/>
	</g>
</g>
<g>
	<g>
		<linearGradient id="SVGID_7_" gradientUnits="userSpaceOnUse" x1="58.0039" y1="139.999" x2="150.0044" y2="93.332">
			<stop  offset="0" style="stop-color:#F15DB4"/>
			<stop  offset="1" style="stop-color:#FF8E20"/>
		</linearGradient>
		<rect x="87.5" y="120" fill="url(#SVGID_7_)" width="10" height="5"/>
	</g>
</g>
<g>
	<g>
		<linearGradient id="SVGID_8_" gradientUnits="userSpaceOnUse" x1="35.2593" y1="95.1592" x2="127.2598" y2="48.4922">
			<stop  offset="0" style="stop-color:#F15DB4"/>
			<stop  offset="1" style="stop-color:#FF8E20"/>
		</linearGradient>
		<path fill="url(#SVGID_8_)" d="M57.5,40c0,2.762-2.238,5-5,5c-1.381,0-2.5,1.119-2.5,2.5v55c0,1.381,1.119,2.5,2.5,2.5
			c2.762,0,5,2.238,5,5c0,1.381,1.119,2.5,2.5,2.5h30c1.381,0,2.5-1.119,2.5-2.5c0-2.762,2.238-5,5-5c1.381,0,2.5-1.119,2.5-2.5v-55
			c0-1.381-1.119-2.5-2.5-2.5c-2.762,0-5-2.238-5-5c0-1.381-1.119-2.5-2.5-2.5H60C58.619,37.5,57.5,38.619,57.5,40z M87.814,42.5
			c0.917,3.52,3.666,6.268,7.186,7.186v50.629c-3.52,0.918-6.269,3.666-7.186,7.186h-25.63c-0.917-3.52-3.665-6.268-7.185-7.186
			V49.686c3.52-0.918,6.268-3.666,7.185-7.186H87.814z"/>
	</g>
</g>
</svg>
