<?xml version="1.0" encoding="utf-8"?>
<!-- Generator: Adobe Illustrator 16.0.0, SVG Export Plug-In . SVG Version: 6.00 Build 0)  -->
<!DOCTYPE svg PUBLIC "-//W3C//DTD SVG 1.1//EN" "http://www.w3.org/Graphics/SVG/1.1/DTD/svg11.dtd">
<svg version="1.1" id="Layer_1" xmlns="http://www.w3.org/2000/svg" xmlns:xlink="http://www.w3.org/1999/xlink" x="0px" y="0px"
	 width="150px" height="150px" viewBox="0 0 150 150" enable-background="new 0 0 150 150" xml:space="preserve">
<linearGradient id="SVGID_1_" gradientUnits="userSpaceOnUse" x1="24.793" y1="120.3115" x2="126.793" y2="29.3115">
	<stop  offset="0" style="stop-color:#FF43A1"/>
	<stop  offset="1" style="stop-color:#FF8E20"/>
</linearGradient>
<path fill="url(#SVGID_1_)" d="M4.763,75.586C4.417,37.53,35.914,5.419,73.879,5.123c39.303-0.307,70.938,30.644,71.391,69.846
	c0.448,38.723-31.023,70.746-70.093,70.826C35.181,145.877,4.526,113.137,4.763,75.586z M75.088,140.217
	c35.889-0.119,64.725-29.191,64.627-65.159c-0.095-35.437-29.533-64.595-64.93-64.312C39.014,11.031,10.204,39.962,10.301,75.5
	C10.399,111.305,39.461,140.336,75.088,140.217z"/>
<linearGradient id="SVGID_2_" gradientUnits="userSpaceOnUse" x1="28.1724" y1="124.0996" x2="130.1724" y2="33.0996">
	<stop  offset="0" style="stop-color:#FF43A1"/>
	<stop  offset="1" style="stop-color:#FF8E20"/>
</linearGradient>
<path fill="url(#SVGID_2_)" d="M46.165,117.04c1.559-9.114,2.788-17.683,4.571-26.133c0.873-4.14,0.239-6.929-2.966-10
	c-6.316-6.051-12.021-12.74-17.737-18.903c2.442-0.388,6.04-0.998,9.649-1.527c6.493-0.951,13.004-1.784,19.476-2.858
	c0.896-0.149,1.906-1.236,2.364-2.141c4.032-7.971,7.949-15.999,11.906-24.006c0.435-0.879,0.912-1.738,1.614-3.071
	c2.188,4.407,4.194,8.437,6.192,12.471c2.429,4.9,4.893,9.784,7.244,14.72c0.648,1.36,1.386,2,2.998,2.218
	c9.842,1.329,19.659,2.836,30.039,4.366c-0.897,0.954-1.504,1.646-2.16,2.286c-6.402,6.251-12.778,12.531-19.252,18.71
	c-1.35,1.288-1.699,2.494-1.367,4.321c1.756,9.663,3.367,19.352,5.113,29.526c-5.429-2.832-10.412-5.42-15.385-8.026
	c-3.875-2.031-7.688-4.19-11.643-6.052c-1.014-0.479-2.669-0.469-3.665,0.037C64.313,107.47,55.55,112.122,46.165,117.04z
	 M96.443,106.854c-1.299-7.479-2.459-14.377-3.719-21.259c-0.322-1.755-0.113-3.04,1.307-4.36c4.676-4.354,9.195-8.87,13.765-13.336
	c0.519-0.507,0.953-1.101,1.616-1.875c-7.414-1.053-14.354-2.051-21.301-3.018c-1.625-0.227-2.709-0.84-3.479-2.498
	c-2.686-5.778-5.589-11.456-8.424-17.164c-0.328-0.66-0.746-1.275-1.304-2.219c-2.644,5.333-5.573,10.045-7.357,15.158
	c-1.944,5.571-5.59,7.188-10.97,7.52c-5.271,0.326-10.491,1.463-15.065,2.146c4.644,4.946,9.288,10.088,14.176,14.986
	c1.575,1.58,1.909,3,1.523,5.063c-1.268,6.771-2.376,13.57-3.628,20.838c6.625-3.477,12.853-6.667,18.992-10.018
	c1.69-0.922,2.999-1.039,4.744-0.08C83.454,100.109,89.688,103.299,96.443,106.854z"/>
</svg>
