<?xml version="1.0" encoding="utf-8"?>
<!-- Generator: Adobe Illustrator 16.0.0, SVG Export Plug-In . SVG Version: 6.00 Build 0)  -->
<!DOCTYPE svg PUBLIC "-//W3C//DTD SVG 1.1//EN" "http://www.w3.org/Graphics/SVG/1.1/DTD/svg11.dtd">
<svg version="1.1" id="Layer_1" xmlns="http://www.w3.org/2000/svg" xmlns:xlink="http://www.w3.org/1999/xlink" x="0px" y="0px"
	 width="128.688px" height="150px" viewBox="0 0 128.688 150" enable-background="new 0 0 128.688 150" xml:space="preserve">
<g>
	<defs>
		<rect id="SVGID_1_" x="-64.87" y="-236.5" width="261.175" height="378.477"/>
	</defs>
	<clipPath id="SVGID_2_">
		<use xlink:href="#SVGID_1_"  overflow="visible"/>
	</clipPath>
	<path clip-path="url(#SVGID_2_)" fill="#E8E8E8" d="M196.305,12.348v115.034l-261.175,4.171V12.348l0.23-0.075
		c3.855-1.325,7.715-2.589,11.591-3.793C-38.836,4.051-24.492,0.441-10.06-2.359C7.454-5.774,25.094-7.991,42.776-9.013
		c15.284-0.895,30.598-0.895,45.883,0c17.681,1.021,35.321,3.239,52.836,6.653c14.432,2.801,28.781,6.411,42.994,10.839
		C188.44,9.706,192.377,10.994,196.305,12.348"/>
	<g opacity="0.7" clip-path="url(#SVGID_2_)">
		<g>
			<defs>
				<rect id="SVGID_3_" x="-64.87" y="8.48" width="17.656" height="20.24"/>
			</defs>
			<clipPath id="SVGID_4_">
				<use xlink:href="#SVGID_3_"  overflow="visible"/>
			</clipPath>
			<path clip-path="url(#SVGID_4_)" fill="#1F16D6" d="M-47.214,26.163L-64.87,28.72V12.348l0.23-0.075
				c3.855-1.325,7.715-2.589,11.591-3.793L-47.214,26.163z"/>
		</g>
	</g>
	<g opacity="0.7" clip-path="url(#SVGID_2_)">
		<g>
			<defs>
				<rect id="SVGID_5_" x="-10.06" y="-9.013" width="53.483" height="23.881"/>
			</defs>
			<clipPath id="SVGID_6_">
				<use xlink:href="#SVGID_5_"  overflow="visible"/>
			</clipPath>
			<path clip-path="url(#SVGID_6_)" fill="#F9A012" d="M43.424,8.934l-51.07,5.935L-10.06-2.359
				C7.454-5.774,25.094-7.991,42.776-9.013L43.424,8.934z"/>
		</g>
	</g>
	<g opacity="0.7" clip-path="url(#SVGID_2_)">
		<g>
			<defs>
				<rect id="SVGID_7_" x="178.651" y="8.48" width="17.654" height="20.24"/>
			</defs>
			<clipPath id="SVGID_8_">
				<use xlink:href="#SVGID_7_"  overflow="visible"/>
			</clipPath>
			<path clip-path="url(#SVGID_8_)" fill="#2DD1FC" d="M196.305,12.348V28.72l-17.654-2.558L184.49,8.48
				C188.44,9.706,192.377,10.994,196.305,12.348"/>
		</g>
	</g>
	<g opacity="0.7" clip-path="url(#SVGID_2_)">
		<g>
			<defs>
				<rect id="SVGID_9_" x="88.011" y="-9.013" width="53.484" height="23.881"/>
			</defs>
			<clipPath id="SVGID_10_">
				<use xlink:href="#SVGID_9_"  overflow="visible"/>
			</clipPath>
			<path clip-path="url(#SVGID_10_)" fill="#FE2B48" d="M141.495-2.359l-2.414,17.228l-51.07-5.935l0.648-17.947
				C106.34-7.991,123.981-5.774,141.495-2.359"/>
		</g>
	</g>
	<g clip-path="url(#SVGID_2_)">
		<g>
			<defs>
				<rect id="SVGID_11_" x="-64.87" y="-7.789" width="261.175" height="141.235"/>
			</defs>
			<clipPath id="SVGID_12_">
				<use xlink:href="#SVGID_11_"  overflow="visible"/>
			</clipPath>
			<path clip-path="url(#SVGID_12_)" fill="#D6D6D6" d="M196.305,14.242v115.034l-261.175,4.17V14.242l0.23-0.075
				c3.855-1.326,7.715-2.59,11.591-3.793C-38.836,5.946-24.492,2.335-10.06-0.465C7.454-3.879,25.094-6.097,42.776-7.119
				c15.284-0.894,30.598-0.894,45.883,0c17.681,1.022,35.321,3.24,52.836,6.654c14.432,2.8,28.781,6.411,42.994,10.839
				C188.44,11.601,192.377,12.888,196.305,14.242"/>
		</g>
	</g>
</g>
<g>
	<defs>
		<path id="SVGID_13_" d="M-87.826,18.58l-0.27,0.092v135.495h307.628V18.672C169.318,1.371,117.523-7.279,65.718-7.277
			C14.013-7.277-37.702,1.342-87.826,18.58"/>
	</defs>
	<clipPath id="SVGID_14_">
		<use xlink:href="#SVGID_13_"  overflow="visible"/>
	</clipPath>
	<rect x="-88.096" y="-7.279" clip-path="url(#SVGID_14_)" fill="#2E6D09" width="307.628" height="161.446"/>
</g>
<g opacity="0.4">
	<defs>
		<rect id="SVGID_15_" x="-65.481" y="-245.5" opacity="0.4" width="261.175" height="378.477"/>
	</defs>
	<clipPath id="SVGID_16_">
		<use xlink:href="#SVGID_15_"  overflow="visible"/>
	</clipPath>
	<g opacity="0.7" clip-path="url(#SVGID_16_)">
		<g>
			<defs>
				<rect id="SVGID_17_" x="-65.559" y="-7.393" width="261.254" height="140.37"/>
			</defs>
			<clipPath id="SVGID_18_">
				<use xlink:href="#SVGID_17_"  overflow="visible"/>
			</clipPath>
			<g clip-path="url(#SVGID_18_)">
				<defs>
					<path id="SVGID_19_" d="M33.212-2.799L-24.83,132.977h35.676L44.23-3.537C40.558-3.342,36.879-3.095,33.212-2.799"/>
				</defs>
				<clipPath id="SVGID_20_">
					<use xlink:href="#SVGID_19_"  overflow="visible"/>
				</clipPath>
				
					<linearGradient id="SVGID_21_" gradientUnits="userSpaceOnUse" x1="-184.1663" y1="325.2461" x2="-183.4088" y2="325.2461" gradientTransform="matrix(0 -196.8029 -196.8029 0 64019.0508 -36103.9805)">
					<stop  offset="0" style="stop-color:#FFFFFF"/>
					<stop  offset="1" style="stop-color:#80C502"/>
				</linearGradient>
				<rect x="-24.83" y="-3.537" clip-path="url(#SVGID_20_)" fill="url(#SVGID_21_)" width="69.061" height="136.513"/>
			</g>
			<g clip-path="url(#SVGID_18_)">
				<defs>
					<path id="SVGID_22_" d="M-30.252,7.546l-35.229,15.556v22.833l52.324-42.214C-18.871,4.87-24.569,6.145-30.252,7.546"/>
				</defs>
				<clipPath id="SVGID_23_">
					<use xlink:href="#SVGID_22_"  overflow="visible"/>
				</clipPath>
				
					<linearGradient id="SVGID_24_" gradientUnits="userSpaceOnUse" x1="-184.1648" y1="325.0332" x2="-183.4092" y2="325.0332" gradientTransform="matrix(0 -196.8029 -196.8029 0 63928.3008 -36103.9805)">
					<stop  offset="0" style="stop-color:#FFFFFF"/>
					<stop  offset="1" style="stop-color:#80C502"/>
				</linearGradient>
				<rect x="-65.481" y="3.721" clip-path="url(#SVGID_23_)" fill="url(#SVGID_24_)" width="52.324" height="42.214"/>
			</g>
			<g clip-path="url(#SVGID_18_)">
				<defs>
					<path id="SVGID_25_" d="M57.457-4.013l-16.157,136.99h23.806h23.806L72.756-4.013c-2.549-0.05-5.101-0.075-7.649-0.075
						C62.56-4.088,60.004-4.063,57.457-4.013"/>
				</defs>
				<clipPath id="SVGID_26_">
					<use xlink:href="#SVGID_25_"  overflow="visible"/>
				</clipPath>
			</g>
			<g clip-path="url(#SVGID_18_)">
				<defs>
					<path id="SVGID_27_" d="M119.367,132.977h35.676L97.001-2.799c-3.667-0.296-7.346-0.543-11.017-0.738L119.367,132.977z"/>
				</defs>
				<clipPath id="SVGID_28_">
					<use xlink:href="#SVGID_27_"  overflow="visible"/>
				</clipPath>
				
					<linearGradient id="SVGID_29_" gradientUnits="userSpaceOnUse" x1="-184.1663" y1="325.751" x2="-183.4088" y2="325.751" gradientTransform="matrix(0 -196.8029 -196.8029 0 64229.3008 -36103.9805)">
					<stop  offset="0" style="stop-color:#FFFFFF"/>
					<stop  offset="1" style="stop-color:#80C502"/>
				</linearGradient>
				<rect x="85.985" y="-3.537" clip-path="url(#SVGID_28_)" fill="url(#SVGID_29_)" width="69.059" height="136.513"/>
			</g>
			<g clip-path="url(#SVGID_18_)">
				<defs>
					<path id="SVGID_30_" d="M195.619,127.752l0.027-41.62l-73.99-86.158c-3.185-0.459-6.377-0.88-9.567-1.261L195.619,127.752z"/>
				</defs>
				<clipPath id="SVGID_31_">
					<use xlink:href="#SVGID_30_"  overflow="visible"/>
				</clipPath>
				
					<linearGradient id="SVGID_32_" gradientUnits="userSpaceOnUse" x1="-184.1658" y1="325.9023" x2="-183.4087" y2="325.9023" gradientTransform="matrix(0 -196.8029 -196.8029 0 64292.4258 -36103.9805)">
					<stop  offset="0" style="stop-color:#FFFFFF"/>
					<stop  offset="1" style="stop-color:#80C502"/>
				</linearGradient>
				<rect x="112.089" y="-1.288" clip-path="url(#SVGID_31_)" fill="url(#SVGID_32_)" width="83.558" height="129.04"/>
			</g>
			<g clip-path="url(#SVGID_18_)">
				<defs>
					<path id="SVGID_33_" d="M8.557-0.024l-74.038,86.212v41.682L18.123-1.287C14.928-0.904,11.747-0.486,8.557-0.024"/>
				</defs>
				<clipPath id="SVGID_34_">
					<use xlink:href="#SVGID_33_"  overflow="visible"/>
				</clipPath>
				
					<linearGradient id="SVGID_35_" gradientUnits="userSpaceOnUse" x1="-184.1658" y1="325.9043" x2="-183.4086" y2="325.9043" gradientTransform="matrix(0 -196.8029 196.8029 0 -64162.7383 -36103.9805)">
					<stop  offset="0" style="stop-color:#FFFFFF"/>
					<stop  offset="1" style="stop-color:#80C502"/>
				</linearGradient>
				<rect x="-65.481" y="-1.287" clip-path="url(#SVGID_34_)" fill="url(#SVGID_35_)" width="83.604" height="129.156"/>
			</g>
			<g clip-path="url(#SVGID_18_)">
				<defs>
					<path id="SVGID_36_" d="M195.676,45.919l0.016-22.819L160.462,7.545c-5.683-1.401-11.38-2.677-17.094-3.825L195.676,45.919z"/>
				</defs>
				<clipPath id="SVGID_37_">
					<use xlink:href="#SVGID_36_"  overflow="visible"/>
				</clipPath>
				
					<linearGradient id="SVGID_38_" gradientUnits="userSpaceOnUse" x1="-184.1648" y1="325.9639" x2="-183.4092" y2="325.9639" gradientTransform="matrix(0 -196.8029 -196.8029 0 64320.0508 -36103.9805)">
					<stop  offset="0" style="stop-color:#FFFFFF"/>
					<stop  offset="1" style="stop-color:#80C502"/>
				</linearGradient>
				<rect x="143.368" y="3.72" clip-path="url(#SVGID_37_)" fill="url(#SVGID_38_)" width="52.323" height="42.199"/>
			</g>
		</g>
	</g>
	<g opacity="0.11" clip-path="url(#SVGID_16_)">
		<g>
			<defs>
				<rect id="SVGID_39_" x="-65.481" y="-4.089" width="261.175" height="64.161"/>
			</defs>
			<clipPath id="SVGID_40_">
				<use xlink:href="#SVGID_39_"  overflow="visible"/>
			</clipPath>
			<g clip-path="url(#SVGID_40_)">
				<defs>
					<path id="SVGID_41_" d="M195.695,17.942V59.93c-43.094-27.5-86.527-47.862-130.467-47.877
						C21.287,12.046-24.215,32.051-65.251,59.869l-0.229,0.203v-42.13l0.229-0.076C19.945-11.436,110.515-11.405,195.695,17.942"/>
				</defs>
				<clipPath id="SVGID_42_">
					<use xlink:href="#SVGID_41_"  overflow="visible"/>
				</clipPath>
				
					<linearGradient id="SVGID_43_" gradientUnits="userSpaceOnUse" x1="-186.8337" y1="325.5029" x2="-186.0767" y2="325.5029" gradientTransform="matrix(0 88.3255 88.3255 0 -28685.0859 16497.0977)">
					<stop  offset="0" style="stop-color:#4AB91C"/>
					<stop  offset="1" style="stop-color:#80C502"/>
				</linearGradient>
				<rect x="-65.481" y="-11.436" clip-path="url(#SVGID_42_)" fill="url(#SVGID_43_)" width="261.175" height="71.508"/>
			</g>
		</g>
	</g>
</g>
<g opacity="0.3">
	<defs>
		<path id="SVGID_44_" opacity="0.3" d="M70.143-37.431c-68.864,0-137.041,8.299-202.64,24.666v2.635
			c132.576-33.179,272.706-33.179,405.28,0v-2.635C207.25-29.124,139.139-37.423,70.33-37.431H70.143z"/>
	</defs>
	<clipPath id="SVGID_45_">
		<use xlink:href="#SVGID_44_"  overflow="visible"/>
	</clipPath>
	
		<linearGradient id="SVGID_46_" gradientUnits="userSpaceOnUse" x1="-185.0505" y1="325.8906" x2="-184.24" y2="325.8906" gradientTransform="matrix(500 0 0 -500 92392.8438 162918.5)">
		<stop  offset="0" style="stop-color:#C4C4C4"/>
		<stop  offset="0.51" style="stop-color:#FAFBFB"/>
		<stop  offset="1" style="stop-color:#C4C4C4"/>
	</linearGradient>
	<rect x="-132.497" y="-43.309" clip-path="url(#SVGID_45_)" fill="url(#SVGID_46_)" width="405.28" height="33.179"/>
</g>
<g opacity="0.641">
	<g>
		<path fill="#4AC30C" d="M-2053.556,249.018h12.734v250h-12.734V249.018L-2053.556,249.018z M-2027.416,249.018h12.737v250h-12.737
			V249.018z M-2001.277,249.018h12.734v250h-12.734V249.018z M-1975.138,249.018h12.734v250h-12.734V249.018L-1975.138,249.018z
			 M-1948.998,249.018h12.734v250h-12.734V249.018z M-1922.859,249.018h12.737v250h-12.737V249.018z M-1896.72,249.018h12.738v250
			h-12.738V249.018z M-1870.58,249.018h12.734v250h-12.734V249.018z"/>
	</g>
</g>
<g display="none">
	<path display="inline" fill="#EDC787" enable-background="new    " d="M-69.954,52.404h23.324v62.734h-23.324V52.404z"/>
	<g display="inline" opacity="0.5">
		<g>
			<path fill="none" stroke="#FFFFFF" stroke-width="0.5" d="M-71.965,62.261h27.346"/>
			<path fill="none" stroke="#FFFFFF" stroke-width="0.5" d="M-65.209,57.717h13.753"/>
			<path fill="none" stroke="#AE9053" stroke-width="0.5" d="M-60.223,57.717h3.821"/>
			<path fill="none" stroke="#FFFFFF" stroke-width="0.5" d="M-65.573,55.224v6.877 M-51.055,55.224v6.877"/>
		</g>
	</g>
	<g display="inline" opacity="0.5">
		<g>
			<path fill="none" stroke="#FFFFFF" stroke-width="0.25" d="M-71.965,104.426h27.346"/>
			<path fill="none" stroke="#FFFFFF" stroke-width="0.25" d="M-65.209,109.371h13.753"/>
			<path fill="none" stroke="#AE9053" stroke-width="0.5" d="M-60.223,109.371h3.821"/>
			<path fill="none" stroke="#FFFFFF" stroke-width="0.25" d="M-65.573,111.865v-6.877 M-51.055,111.865v-6.877"/>
		</g>
	</g>
</g>
<g opacity="0.8">
	<polygon fill="#F4BB67" enable-background="new    " points="105.133,125.247 25.052,125.247 42.452,39.058 87.575,39.058 	"/>
	<g>
		<rect x="49.782" y="39.058" fill="#FFFFFF" width="31.154" height="0.642"/>
		<rect x="48.839" y="45.436" fill="#FFFFFF" width="33.327" height="0.643"/>
		<polygon fill="#FFFFFF" points="89.335,52.029 41.426,52.029 41.518,51.387 89.243,51.387 		"/>
		
			<rect x="48.55" y="39.055" transform="matrix(0.9768 0.2141 -0.2141 0.9768 10.839 -9.4041)" fill="#FFFFFF" width="0.579" height="12.577"/>
		
			<rect x="81.875" y="39.054" transform="matrix(-0.9709 0.2394 -0.2394 -0.9709 172.7912 69.7013)" fill="#FFFFFF" width="0.577" height="12.577"/>
		<g>
			<rect x="40.03" y="124.354" fill="#FFFFFF" width="51.05" height="0.828"/>
			<rect x="41.443" y="116.149" fill="#FFFFFF" width="48.029" height="0.826"/>
			<polygon fill="#FFFFFF" points="101.782,108.492 28.403,108.08 28.213,109.024 101.9,109.318 			"/>
			
				<rect x="89.251" y="109.001" transform="matrix(-0.9908 0.135 -0.135 -0.9908 194.2333 221.0158)" fill="#FFFFFF" width="0.745" height="16.184"/>
			
				<rect x="41.07" y="108.884" transform="matrix(-0.9907 -0.1363 0.1363 -0.9907 66.5573 238.5077)" fill="#FFFFFF" width="0.745" height="16.184"/>
		</g>
		<g>
			<path fill="#E8E8E8" d="M62.816,45.658c0,0.232-0.21,0.42-0.47,0.42l0,0c-0.26,0-0.472-0.188-0.472-0.42V29.543
				c0-0.232,0.211-0.42,0.472-0.42l0,0c0.259,0,0.47,0.188,0.47,0.42V45.658z"/>
			<path fill="#E8E8E8" d="M65.61,45.658c0,0.232-0.213,0.42-0.472,0.42l0,0c-0.26,0-0.47-0.188-0.47-0.42V29.543
				c0-0.232,0.21-0.42,0.47-0.42l0,0c0.259,0,0.472,0.188,0.472,0.42V45.658z"/>
			<path fill="#E8E8E8" d="M68.404,45.658c0,0.232-0.214,0.42-0.472,0.42l0,0c-0.259,0-0.472-0.188-0.472-0.42V29.543
				c0-0.232,0.213-0.42,0.472-0.42l0,0c0.258,0,0.472,0.188,0.472,0.42V45.658z"/>
			<path fill="#E8E8E8" d="M68.404,29.58c0,0.251-0.23,0.457-0.514,0.457h-5.351c-0.285,0-0.514-0.206-0.514-0.457l0,0
				c0-0.252,0.229-0.457,0.514-0.457h5.351C68.173,29.123,68.404,29.328,68.404,29.58L68.404,29.58z"/>
		</g>
		<g>
			<path fill="#E8E8E8" d="M62.072,115.987c0,0.338-0.304,0.608-0.681,0.608l0,0c-0.374,0-0.678-0.271-0.678-0.608V92.702
				c0-0.337,0.305-0.608,0.678-0.608l0,0c0.377,0,0.681,0.271,0.681,0.608V115.987z"/>
			<path fill="#E8E8E8" d="M66.107,115.987c0,0.338-0.305,0.608-0.679,0.608l0,0c-0.376,0-0.682-0.271-0.682-0.608V92.702
				c0-0.337,0.306-0.608,0.682-0.608l0,0c0.374,0,0.679,0.271,0.679,0.608V115.987z"/>
			<path fill="#E8E8E8" d="M70.144,115.987c0,0.338-0.305,0.608-0.681,0.608l0,0c-0.376,0-0.679-0.271-0.679-0.608V92.702
				c0-0.337,0.303-0.608,0.679-0.608l0,0c0.376,0,0.681,0.271,0.681,0.608V115.987z"/>
			<path fill="#E8E8E8" d="M70.144,92.754c0,0.365-0.331,0.661-0.741,0.661h-7.732c-0.41,0-0.744-0.296-0.744-0.661l0,0
				c0-0.364,0.334-0.66,0.744-0.66h7.732C69.813,92.094,70.144,92.39,70.144,92.754L70.144,92.754z"/>
		</g>
	</g>
</g>
</svg>
