<?xml version="1.0" encoding="utf-8"?>
<!-- Generator: Adobe Illustrator 16.0.0, SVG Export Plug-In . SVG Version: 6.00 Build 0)  -->
<!DOCTYPE svg PUBLIC "-//W3C//DTD SVG 1.1//EN" "http://www.w3.org/Graphics/SVG/1.1/DTD/svg11.dtd">
<svg version="1.1" id="Layer_1" xmlns="http://www.w3.org/2000/svg" xmlns:xlink="http://www.w3.org/1999/xlink" x="0px" y="0px"
	 width="150px" height="150px" viewBox="0 0 150 150" enable-background="new 0 0 150 150" xml:space="preserve">
<g>
	<path fill-rule="evenodd" clip-rule="evenodd" d="M41.896,146.246c-2.035,0-3.651,0-5.693,0c0-1.492,0-2.871,0-4.25
		c0-36.451,0.024-72.904-0.075-109.355c-0.005-1.783-0.785-4.868-1.741-5.096c-2.615-0.625-5.59-0.358-8.258,0.261
		c-0.726,0.168-1.227,2.834-1.231,4.356c-0.073,25.919-0.051,51.837-0.05,77.756c0,10.888-0.002,21.775-0.003,32.664
		c0,1.152,0,2.305,0,3.617c-1.961,0-3.575,0-5.671,0c0-1.244,0-2.498,0-3.753c-0.003-36.569-0.013-73.14-0.008-109.71
		c0.001-10.103,9.485-15.38,18.378-10.21c3.303,1.92,4.397,4.947,4.386,8.69c-0.064,22.131-0.033,44.262-0.034,66.394
		C41.896,113.693,41.896,129.776,41.896,146.246z"/>
	<path fill-rule="evenodd" clip-rule="evenodd" d="M70.297,146.301c-2.054,0-3.587,0-5.681,0c0-1.168,0-2.29,0-3.41
		c0-37.161-0.003-74.322,0-111.482c0-6.735,3.285-10.032,9.979-10.048c0.829-0.001,1.657,0.007,2.486,0.011
		c7.042,0.032,10.261,3.171,10.267,10.104c0.018,20.592,0.013,41.186,0.013,61.776c0,16.333-0.005,32.664-0.008,48.996
		c0,1.271,0,2.54,0,3.962c-1.97,0-3.585,0-5.705,0c0-1.729,0-3.456,0-5.183c0.004-36.097,0.032-72.192-0.06-108.288
		c-0.004-1.8-0.717-4.906-1.67-5.147c-2.607-0.66-5.588-0.424-8.267,0.163c-0.731,0.161-1.292,2.811-1.297,4.321
		c-0.076,25.089-0.051,50.179-0.05,75.269c0,11.834-0.004,23.669-0.006,35.504C70.297,143.888,70.297,144.928,70.297,146.301z"/>
	<path fill-rule="evenodd" clip-rule="evenodd" d="M115.759,146.205c-1.976,0-3.589,0-5.691,0c0-1.264-0.001-2.519,0-3.774
		c0.003-37.046,0.003-74.091,0.015-111.136c0.003-6.728,3.246-9.901,10.063-9.923c1.065-0.004,2.13-0.012,3.195,0.002
		c6.034,0.078,9.447,3.427,9.459,9.49c0.038,19.292,0.017,38.584,0.017,57.875c-0.001,17.989-0.008,35.98-0.012,53.97
		c0,1.053,0,2.104,0,3.41c-1.867,0-3.559,0-5.693,0c0-1.245,0-2.505,0-3.766c0-36.572,0.024-73.144-0.074-109.715
		c-0.005-1.779-0.789-4.851-1.748-5.081c-2.614-0.627-5.572-0.321-8.268,0.233c-0.671,0.138-1.215,2.617-1.218,4.021
		c-0.068,28.997-0.047,57.995-0.045,86.991C115.76,127.884,115.759,136.966,115.759,146.205z"/>
	<path fill-rule="evenodd" clip-rule="evenodd" d="M116.055,10.008c2.063,0,4.17,0.017,6.276-0.005
		c2.201-0.023,4.713-0.105,4.639,2.918c-0.074,3-2.639,2.783-4.797,2.778c-1.998-0.005-3.994-0.001-5.946-0.001
		c-1.071,5.672-1.071,5.671-6.787,5.672c-7.221,0.003-14.44,0.001-21.66,0.012c-5.657,0.009-5.657,0.017-6.438-5.542
		c-3.493,0-7.012,0-10.523,0c-1.303,5.533-1.303,5.531-7.099,5.53c-7.219,0-14.439,0.011-21.659,0
		c-5.463-0.008-5.463-0.021-6.147-5.682c-2.293,0-4.637-0.038-6.978,0.011c-2.118,0.044-4.012-0.449-3.952-2.93
		c0.06-2.481,2.028-2.834,4.103-2.786c2.233,0.052,4.468,0.012,6.659,0.012c1.09-5.671,1.09-5.67,6.791-5.67
		c7.22,0,14.44-0.012,21.66,0c5.646,0.009,5.646,0.021,6.469,5.525c3.491,0,7.007,0,10.517,0c1.219-5.5,1.219-5.511,7.107-5.521
		c7.221-0.012,14.438-0.005,21.659-0.003C115.354,4.328,115.404,4.375,116.055,10.008z M64.477,15.562c0-1.967,0-3.576,0-5.37
		c-7.515,0-14.88,0-22.364,0c0,1.873,0,3.56,0,5.37C49.605,15.562,56.881,15.562,64.477,15.562z M87.472,15.415
		c7.754,0,15.121,0,22.413,0c0-1.893,0-3.503,0-5.199c-7.555,0-14.924,0-22.413,0C87.472,12.039,87.472,13.651,87.472,15.415z"/>
</g>
</svg>
