<?xml version="1.0" encoding="utf-8"?>
<!-- Generator: Adobe Illustrator 16.0.0, SVG Export Plug-In . SVG Version: 6.00 Build 0)  -->
<!DOCTYPE svg PUBLIC "-//W3C//DTD SVG 1.1//EN" "http://www.w3.org/Graphics/SVG/1.1/DTD/svg11.dtd">
<svg version="1.1" id="Layer_1" xmlns="http://www.w3.org/2000/svg" xmlns:xlink="http://www.w3.org/1999/xlink" x="0px" y="0px"
	 width="442px" height="442px" viewBox="0 0 442 442" enable-background="new 0 0 442 442" xml:space="preserve">
<g>
	<linearGradient id="SVGID_1_" gradientUnits="userSpaceOnUse" x1="46.5376" y1="251.1895" x2="429.2363" y2="251.1895">
		<stop  offset="0" style="stop-color:#F15DB4"/>
		<stop  offset="1" style="stop-color:#FF8E20"/>
	</linearGradient>
	<path fill-rule="evenodd" clip-rule="evenodd" fill="url(#SVGID_1_)" d="M343.958,278.568c4.664,13.29,1.028,23.852-10.181,29.897
		c-7.894,4.258-16.711,3.061-23.89-3.245c-7.108-6.243-9.926-15.255-6.632-23.209c1.214-2.931,0.468-4.352-1.494-6.303
		c-24.981-24.866-49.909-49.787-74.77-74.772c-1.992-2.002-3.481-2.169-6.336-1.545c-4.294,0.938-9.087,1.017-13.372,0.091
		c-3.067-0.662-4.631-0.27-6.706,1.811c-32.519,32.638-65.116,65.198-97.695,97.774c-4.122,4.122-8.359,8.139-12.273,12.447
		c-0.91,1.003-1.387,3.25-0.927,4.509c3.31,9.061,0.916,16.684-5.617,23.187c-6.338,6.31-14.002,8.683-22.478,5.228
		c-8.73-3.56-14.206-10.263-14.991-19.841c-1.202-14.666,15.586-27.045,29.336-21.731c2.505,0.968,3.841,0.569,5.656-1.252
		c36.644-36.754,73.35-73.447,110.091-110.104c1.761-1.757,2.334-3.155,1.412-5.735c-3.404-9.521-0.03-19.033,8.536-25.207
		c7.932-5.716,17.279-5.615,25.095,0.273c8.475,6.385,11.518,15.863,7.832,25.347c-0.815,2.103-0.383,3.2,1.059,4.638
		c25.45,25.38,50.862,50.797,76.25,76.239c1.391,1.393,2.462,2.177,4.608,1.13c5.005-2.439,10.244-2.405,15.28-0.05
		c2.026,0.948,3.179,0.503,4.646-0.974c16.242-16.336,32.58-32.576,48.756-48.977c0.92-0.931,1.309-3.248,0.855-4.535
		c-3.254-9.246-0.741-16.962,6.005-23.481c6.172-5.966,13.582-8.294,21.786-5.087c8.965,3.505,14.502,10.246,15.364,19.995
		c1.268,14.336-15.065,26.688-28.993,21.945c-2.8-0.954-4.364-0.581-6.378,1.453c-15.717,15.878-31.556,31.637-47.35,47.439
		C345.571,276.798,344.748,277.727,343.958,278.568z M68.646,332.556c5.883,0.079,9.178-3.063,9.226-8.798
		c0.047-5.627-3.044-8.86-8.601-8.994c-5.969-0.145-9.239,2.836-9.417,8.584C59.675,329.143,62.86,332.478,68.646,332.556z
		 M324.085,279.829c-5.847,0.015-8.847,3.117-8.789,9.09c0.056,5.739,2.989,8.666,8.732,8.711c5.999,0.046,8.973-2.885,8.987-8.858
		C333.031,282.832,330.017,279.814,324.085,279.829z M407.081,214.887c5.778-0.036,8.914-3.267,8.823-9.083
		c-0.093-5.753-3.258-8.728-9.217-8.658c-5.646,0.064-8.737,3.134-8.759,8.694C397.908,211.128,401.745,214.92,407.081,214.887z
		 M214.043,169.713c-5.843-0.039-8.848,2.805-8.971,8.49c-0.117,5.414,3.603,9.247,8.971,9.246c5.672-0.001,8.782-3.045,8.862-8.677
		C222.991,172.857,219.952,169.752,214.043,169.713z"/>
	<linearGradient id="SVGID_2_" gradientUnits="userSpaceOnUse" x1="20.6128" y1="231.5791" x2="427.5879" y2="231.5791">
		<stop  offset="0" style="stop-color:#F15DB4"/>
		<stop  offset="1" style="stop-color:#FF8E20"/>
	</linearGradient>
	<path fill-rule="evenodd" clip-rule="evenodd" fill="url(#SVGID_2_)" d="M33.452,358.354c131.795,0,262.863,0,394.136,0
		c0,4.536,0,8.635,0,13.019c-135.636,0-271.14,0-406.975,0c0-93.043,0-186.057,0-279.295c1.203-0.102,2.276-0.258,3.351-0.272
		c3.021-0.035,6.043-0.012,9.488-0.012C33.452,180.682,33.452,269.151,33.452,358.354z"/>
</g>
</svg>
