<?xml version="1.0" encoding="utf-8"?>
<!-- Generator: Adobe Illustrator 16.0.0, SVG Export Plug-In . SVG Version: 6.00 Build 0)  -->
<!DOCTYPE svg PUBLIC "-//W3C//DTD SVG 1.1//EN" "http://www.w3.org/Graphics/SVG/1.1/DTD/svg11.dtd">
<svg version="1.1" id="Layer_1" xmlns="http://www.w3.org/2000/svg" xmlns:xlink="http://www.w3.org/1999/xlink" x="0px" y="0px"
	 width="405px" height="333px" viewBox="0 0 405 333" enable-background="new 0 0 405 333" xml:space="preserve">
<g>
	<path fill-rule="evenodd" clip-rule="evenodd" fill="#8FA3D1" d="M377.74,47.405c-11.212,9.665-22.432,19.323-33.635,28.998
		c-44.644,38.552-89.279,77.11-133.925,115.659c-5.845,5.046-8.538,5.082-14.297,0.108C141.283,145.015,86.693,97.844,32.096,50.684
		c-1.329-1.147-2.717-2.228-4.899-4.012c-0.162,2.826-0.35,4.566-0.35,6.307c-0.008,68.822,0.009,137.646-0.008,206.468
		c-0.001,5.783,1.067,11.142,5.145,16.012c1.542-1.106,2.898-1.995,4.163-2.999c37.187-29.523,74.35-59.075,111.581-88.543
		c2.018-1.597,4.675-3.612,6.872-3.433c2.534,0.207,5.954,2.106,7.014,4.249c1.042,2.107,0.182,5.695-0.919,8.151
		c-0.86,1.918-3.325,3.148-5.147,4.597c-34.559,27.475-69.13,54.934-103.69,82.405c-1.266,1.007-2.447,2.119-4.928,4.281
		c3.32,0,5.202,0,7.085,0c58.325,0,116.649-0.001,174.973,0.003c1.499,0,3.039-0.165,4.489,0.116
		c4.042,0.782,6.561,3.118,6.72,7.448c0.151,4.103-2.549,7.354-6.711,7.982c-1.471,0.222-2.994,0.122-4.492,0.122
		c-58.991,0.001-117.982,0.029-176.974-0.022c-22.224-0.02-40.797-18.449-40.827-40.729c-0.09-68.489-0.09-136.979,0.003-205.469
		c0.031-23.154,18.107-41.396,41.132-41.417c100.818-0.091,201.636-0.086,302.454-0.02c21.225,0.014,39.916,18.761,40.035,40.034
		c0.138,24.662,0.039,49.326,0.004,73.988c-0.008,5.923-3.1,9.625-7.825,9.604c-4.735-0.022-7.825-3.753-7.83-9.624
		c-0.019-23.996-0.003-47.993,0.001-71.989c0-2.097,0-4.193,0-6.29C378.691,47.738,378.216,47.571,377.74,47.405z M35.291,33.154
		c1.42,1.106,2.361,1.775,3.231,2.527c53.578,46.26,107.174,92.499,160.659,138.866c3.126,2.71,4.894,2.346,7.812-0.182
		c53.373-46.244,106.835-92.388,160.331-138.49c1.079-0.931,2.792-1.126,4.21-1.664c-6.511-5.372-11.914-6.414-17.723-6.404
		c-32.648,0.058-65.297,0.034-97.946,0.033c-67.963-0.001-135.926,0.006-203.889-0.025C46.187,27.813,40.777,28.793,35.291,33.154z"
		/>
	<path fill-rule="evenodd" clip-rule="evenodd" fill="#3D38A0" d="M280.796,256.953c-1.027,0.896-1.773,1.549-2.522,2.2
		c-11.255,9.791-24.154,11.354-35.943,4.356c-12.338-7.323-18.855-21.111-16.001-33.85c2.938-13.105,15.569-24.298,28.949-25.381
		c8.421-0.682,15.77,2.313,21.997,7.783c2.353,2.065,4.077,2.516,6.932,0.994c14.539-7.748,29.17-15.329,43.832-22.844
		c2.4-1.229,3.368-2.509,2.977-5.378c-1.993-14.623,5.876-28.104,19.643-34.101c12.262-5.34,26.102-1.729,35.524,9.265
		c10.8,12.602,10.206,29.492-1.464,41.59c-11.776,12.209-28.354,13.611-41.397,3.152c-2.905-2.329-4.886-2.634-8.211-0.837
		c-14.2,7.676-28.554,15.072-42.946,22.384c-2.781,1.412-2.975,3.176-3.518,6.047c-1.9,10.022,3.798,13.732,11.559,17.366
		c11.895,5.568,23.406,11.976,34.916,18.326c3.273,1.807,5.311,1.543,8.243-0.781c9.681-7.673,20.476-9.616,31.729-3.817
		c11.464,5.907,18.508,15.259,18.761,28.526c0.325,17.004-16.494,32.947-33.131,31.859c-17.951-1.175-32.305-18.656-29.949-36.242
		c0.215-1.601-0.411-4.336-1.52-4.938C313.188,273.912,296.973,265.465,280.796,256.953z M362.476,163.859
		c-10.153-0.09-16.486,5.9-16.504,15.806c-0.017,9.114,5.834,16.656,15.927,16.54c10.137-0.118,16.293-5.925,16.389-15.928
		C378.385,170.064,372.494,163.948,362.476,163.859z M257.447,219.837c-10.041-0.017-16.309,6.137-16.367,16.069
		c-0.061,9.938,6.159,16.167,16.209,16.236c10.057,0.069,16.27-6.074,16.256-16.075
		C273.532,225.949,267.486,219.854,257.447,219.837z M378.282,292.377c0.08-10.281-5.763-16.271-15.712-16.58
		c-10.342-0.32-16.213,6.458-16.589,15.844c-0.409,10.197,6.026,16.498,16.329,16.513
		C372.125,308.167,378.206,302.16,378.282,292.377z"/>
</g>
</svg>
