<?xml version="1.0" encoding="utf-8"?>
<!-- Generator: Adobe Illustrator 16.0.0, SVG Export Plug-In . SVG Version: 6.00 Build 0)  -->
<!DOCTYPE svg PUBLIC "-//W3C//DTD SVG 1.1//EN" "http://www.w3.org/Graphics/SVG/1.1/DTD/svg11.dtd">
<svg version="1.1" id="Layer_1" xmlns="http://www.w3.org/2000/svg" xmlns:xlink="http://www.w3.org/1999/xlink" x="0px" y="0px"
	 width="400px" height="400px" viewBox="-1981.374 286.854 400 400" enable-background="new -1981.374 286.854 400 400"
	 xml:space="preserve">
<path d="M183.381,109.443c0-3.312-2.688-6-6-6h-72.762c-3.312,0-6,2.688-6,6s2.688,6,6,6h29.478c8.64,0,15.921,5.85,18.144,13.794
	h-47.622c-3.312,0-6,2.688-6,6s2.688,6,6,6h47.001c-2.766,6.984-9.57,11.943-17.523,11.943h-29.478
	c-2.454,0-4.662,1.497-5.571,3.777c-0.912,2.279-0.339,4.884,1.44,6.572l48.813,46.354c1.161,1.104,2.646,1.65,4.131,1.65
	c1.588,0,3.174-0.627,4.351-1.869c2.282-2.403,2.184-6.198-0.22-8.48l-37.911-36h14.445c14.631,0,26.889-10.252,30.045-23.943
	h13.238c3.313,0,6-2.688,6-6c0-3.312-2.688-6-6-6h-12.882c-0.854-5.136-2.97-9.843-6.036-13.794h18.918
	C180.693,115.443,183.381,112.758,183.381,109.443z M243,99c-3.313,0-6,2.688-6,6v117c0,13.232-10.768,24-24,24H75
	c-13.233,0-24-10.768-24-24V78c0-13.233,10.767-24,24-24h108c3.313,0,6-2.688,6-6s-2.688-6-6-6H75c-19.851,0-36,16.149-36,36v144
	c0,19.852,16.149,36,36,36h138c19.852,0,36-16.148,36-36V105C249,101.688,246.313,99,243,99z M279,42h-30V15c0-3.312-2.688-6-6-6
	s-6,2.688-6,6v27h-29.625c-3.313,0-6,2.688-6,6s2.688,6,6,6H237v27c0,3.312,2.688,6,6,6s6-2.688,6-6V54h30c3.313,0,6-2.688,6-6
	S282.313,42,279,42z"/>
<path fill-rule="evenodd" clip-rule="evenodd" d="M-61.597,40.668c-6.67-9.479-16.513-14.171-28.416-13.954
	c-7.296,0.133-14.597,0.024-22.189,0.024c-3.522-17.544-7.157-34.603-10.317-51.748c-2.329-12.63-8.088-22.829-19.078-29.717
	c-8.429-5.281-17.343-6.893-27.215-4.167c-96.695,26.693-193.43,53.245-290.15,79.85c-10.467,2.879-17.829,8.872-23.928,18.394
	c-6.886,10.747-10.792,21.443-10.46,34.084c0.328,12.49,0.057,24.995,0.058,37.494c0.001,12.357-0.004,64.715-0.007,77.072h21.56
	c0.001-26.418,0-92.837,0.008-119.256c0.001-1.832,0.025-3.669,0.162-5.495c0.761-10.143,5.935-14.969,16.105-14.973
	c39.328-0.017,78.657-0.017,117.986-0.016c81.823,0.004,163.647,0.016,245.471,0.015c14.083,0,19.059,4.847,19.171,19.195
	c0.128,16.33,0.047,32.662,0.055,48.994c0.003,6.626,0,13.252,0,20.506h-6.442c-35.662,0.008-71.324,0.001-106.987,0.031
	c-10.367,0.009-13.957,3.542-13.964,13.71c-0.024,35.996-0.033,71.992-0.014,107.987c0.006,11.143,3.493,14.555,14.705,14.558
	c35.496,0.012,70.991,0.015,106.487,0.021h6.215v5.152c-0.001,20.33,0.007,40.661-0.018,60.992c-0.002,1.827-0.11,3.667-0.347,5.479
	c-1.415,10.841-5.924,14.849-16.782,14.85c-57.357,0.008-136.714-0.001-194.071-0.006v21.498
	c56.367,0.01,134.734,0.016,191.102,0.017c20.198,0,34.42-10.719,40.041-30.157c0.355-1.229,0.9-2.403,1.357-3.603v-286
	C-54.797,54.508-57.215,46.896-61.597,40.668z M-134.656,26.468h-260.672c0-0.278-0.001-0.558-0.002-0.836
	c19.354-5.345,38.703-10.705,58.062-16.029c57.713-15.874,115.432-31.723,173.141-47.609c10.7-2.945,16.388-0.424,18.796,10.003
	c4.039,17.491,7.291,35.164,10.851,52.766C-134.391,25.208-134.57,25.709-134.656,26.468z M-73.387,251.384h-105.032v-92.659
	h105.032V251.384z"/>
<path fill-rule="evenodd" clip-rule="evenodd" d="M-263.741,334.805c9.3-54.346-5.836-100.49-45.566-137.599
	c-39.387-36.789-86.324-49.366-140.179-39.064c-0.126-2.311-29.941,10.583-35.653,13.631c-44.135,23.538-73.21,59.092-82.134,108.92
	c-8.398,46.89,5.785,87.817,37.394,122.638c26.101,28.752,58.814,45.56,97.565,50.199c1.265,0.152,2.481,0.704,3.719,1.07h27.417
	c6.133-1.214,12.314-2.227,18.392-3.671c48.478-11.526,84.801-38.848,107.469-83.505
	C-273.136,363.126-263.741,334.805-263.741,334.805z M-391.132,424.573c-6.647,1.044-13.369,1.614-20.057,2.403
	c-63.662,2.546-117.581-39.667-128.636-100.934c-11.734-65.027,29.167-126.951,94.168-140.096
	c53.512-10.821,100.379,2.231,133.897,47.345C-258.298,305.249-302.501,410.659-391.132,424.573z"/>
<path fill-rule="evenodd" clip-rule="evenodd" d="M-401.271,318.588c0,13.82,0.069,26.822-0.024,39.823
	c-0.059,8.252-4.564,14.081-11.461,15.222c-8.948,1.481-16.07-4.456-16.302-14.11c-0.271-11.308-0.092-22.627-0.107-33.94
	c-0.002-2.125,0-4.25,0-6.991c-14.224,0-27.677,0.157-41.125-0.062c-7.646-0.123-13.084-4.988-14.222-11.922
	c-0.982-5.984,2.55-12.625,8.348-14.753c2.58-0.946,5.522-1.197,8.307-1.234c10.442-0.136,20.887-0.054,31.33-0.054
	c2.141,0,4.28,0,7.389,0c0-10.303-0.003-20.015,0.001-29.726c0.001-3.917-0.139-7.841,0.06-11.748
	c0.415-8.15,5.967-13.745,13.525-13.86c7.78-0.117,14.02,5.699,14.196,13.944c0.265,12.397,0.08,24.803,0.103,37.204
	c0.001,1.06,0.125,2.119,0.256,4.184c8.979,0,17.795-0.005,26.609,0.001c4.788,0.004,9.585-0.188,14.357,0.087
	c8.596,0.496,14.039,6.143,13.952,14.104c-0.085,7.859-5.75,13.61-14.328,13.769C-373.665,318.769-386.928,318.588-401.271,318.588z
	"/>
<path fill-rule="evenodd" clip-rule="evenodd" d="M-142.805,204.408c1.974-4.243,3.279-9,6.063-12.619
	c5.545-7.206,15.573-7.05,21.752-0.339c6.484,7.043,6.755,19.256,0.521,26.563c-4.004,4.693-9.106,6.827-15.117,5.043
	c-7.12-2.114-10.551-7.616-11.858-14.622c-0.212-1.132-0.15-2.315-0.216-3.475C-142.041,204.775-142.423,204.592-142.805,204.408z"
	/>
<g>
	<path fill="#FFFFFF" d="M541.122-778.1C366.818-778.1,225-636.294,225-461.978c0,44.271,9.162,86.434,25.668,124.718
		c2.021-2.881,3.943-5.812,5.813-8.775c1.84-4.614,3.573-9.282,5.1-14.061c0.844-2.638,2.137-4.886,3.705-6.804
		c-10.315-29.821-15.967-61.796-15.967-95.077c0-160.894,130.911-291.808,291.804-291.808
		c160.894,0,291.805,130.915,291.805,291.808c0,160.895-130.911,291.806-291.805,291.806c-32.913,0-64.541-5.523-94.066-15.633
		c-2.474,3.902-6.134,7.042-10.401,8.636c-0.091,0.148-0.145,0.321-0.239,0.465c-2.882,4.281-4.808,6.059-8.981,9.039
		c-0.148,0.107-0.329,0.169-0.481,0.271c35.436,13.827,73.894,21.54,114.17,21.54c174.304,0,316.123-141.802,316.123-316.124
		C857.245-636.294,715.426-778.1,541.122-778.1z"/>
</g>
<path fill="#FFFFFF" d="M664.851-614.474c0-7.543-6.121-13.668-13.67-13.668H458.05c-7.549,0-13.666,6.125-13.666,13.668
	c0,7.551,6.117,13.667,13.666,13.667h55.264c32.938,0.045,61.29,23.256,67.835,55.534H458.05c-7.549,0-13.666,6.114-13.666,13.667
	c0,7.549,6.117,13.666,13.666,13.666h123.099c-6.545,32.275-34.897,55.486-67.835,55.531H458.05
	c-5.599,0.004-10.62,3.408-12.694,8.615c-2.07,5.199-0.758,11.135,3.31,14.975l138.13,130.528
	c5.483,5.183,14.136,4.943,19.313-0.547c5.187-5.487,4.948-14.131-0.535-19.317L492.411-435.081h20.902
	c48.003-0.07,88.695-35.35,95.553-82.867h42.314c7.549,0,13.67-6.119,13.67-13.664c0-7.551-6.121-13.667-13.67-13.667h-42.314
	c-3.038-21.143-13.007-40.672-28.344-55.527h70.658C658.729-600.806,664.851-606.923,664.851-614.474z"/>
<path fill="none" stroke="#FFFFFF" stroke-width="3" stroke-miterlimit="10" d="M475.602-265.799c0,69-55.939,124.93-124.935,124.93
	c-69.004,0-124.938-55.931-124.938-124.93c0-69.003,55.935-124.938,124.938-124.938
	C419.662-390.737,475.602-334.802,475.602-265.799z"/>
<g>
	<path fill="#FFFFFF" d="M338.03-278.579v-38.347c0-3.371,1.239-6.244,3.713-8.619c2.478-2.383,5.507-3.573,9.072-3.573
		c3.362,0,6.239,1.19,8.619,3.573c2.375,2.375,3.564,5.248,3.564,8.619v38.347h38.347c3.47,0,6.47,1.21,8.989,3.639
		c2.527,2.428,3.795,5.375,3.795,8.841c0,3.47-1.268,6.413-3.795,8.846c-2.52,2.433-5.52,3.639-8.989,3.639h-38.051v38.346
		c0,3.573-1.259,6.594-3.786,9.068c-2.532,2.474-5.528,3.721-8.994,3.721c-3.47,0-6.413-1.247-8.846-3.721
		c-2.429-2.474-3.639-5.495-3.639-9.068v-38.346h-38.347c-3.367,0-6.298-1.206-8.768-3.639c-2.478-2.433-3.717-5.375-3.717-8.846
		c0-3.371,1.239-6.286,3.717-8.768c2.47-2.478,5.4-3.712,8.768-3.712H338.03z"/>
</g>
<g>
	
		<linearGradient id="SVGID_1_" gradientUnits="userSpaceOnUse" x1="75.3691" y1="225.6377" x2="76.3411" y2="225.6377" gradientTransform="matrix(306.0308 -273.0274 -273.0274 -306.0308 36579.2734 90284)">
		<stop  offset="0" style="stop-color:#A044D6"/>
		<stop  offset="0.1103" style="stop-color:#A947D2"/>
		<stop  offset="0.2937" style="stop-color:#C34FC7"/>
		<stop  offset="0.5263" style="stop-color:#EC5BB6"/>
		<stop  offset="0.5521" style="stop-color:#F15DB4"/>
		<stop  offset="0.9944" style="stop-color:#FF8A66"/>
		<stop  offset="1" style="stop-color:#FF8A66"/>
	</linearGradient>
	<circle fill-rule="evenodd" clip-rule="evenodd" fill="url(#SVGID_1_)" cx="-1779.151" cy="491.596" r="183.547"/>
	<path fill="#21245E" d="M-1595.604,491.596h-9.71c-0.001,24.029-4.864,46.869-13.657,67.662
		c-13.188,31.184-35.243,57.746-62.993,76.492c-27.757,18.745-61.151,29.679-97.188,29.683c-24.029-0.002-46.87-4.865-67.663-13.658
		c-31.184-13.186-57.745-35.241-76.491-62.992c-18.745-27.755-29.679-61.15-29.683-97.187c0.001-24.028,4.865-46.869,13.657-67.661
		c13.188-31.185,35.243-57.747,62.993-76.493c27.756-18.744,61.15-29.679,97.187-29.683c24.029,0.001,46.87,4.865,67.663,13.658
		c31.184,13.187,57.746,35.241,76.491,62.992c18.745,27.756,29.679,61.15,29.683,97.187H-1595.604h9.711
		c0.001-26.657-5.407-52.102-15.191-75.228c-14.677-34.694-39.168-64.182-70.008-85.02c-30.832-20.837-68.068-33.015-108.059-33.011
		c-26.656-0.002-52.101,5.408-75.228,15.191c-34.693,14.676-64.183,39.169-85.019,70.008
		c-20.837,30.832-33.016,68.066-33.011,108.059c-0.001,26.657,5.408,52.102,15.191,75.229
		c14.677,34.693,39.169,64.182,70.008,85.019c30.832,20.837,68.067,33.015,108.059,33.011c26.657,0.001,52.101-5.408,75.228-15.191
		c34.694-14.676,64.183-39.168,85.02-70.008c20.836-30.831,33.015-68.066,33.011-108.059H-1595.604z"/>
</g>
<g>
	
		<linearGradient id="SVGID_2_" gradientUnits="userSpaceOnUse" x1="73.4116" y1="225.3457" x2="74.3835" y2="225.3457" gradientTransform="matrix(306.0308 -273.0274 -273.0274 -306.0308 36579.2734 90284)">
		<stop  offset="0" style="stop-color:#03A200"/>
		<stop  offset="0.0469" style="stop-color:#0CA509"/>
		<stop  offset="0.1249" style="stop-color:#26AF23"/>
		<stop  offset="0.2245" style="stop-color:#4FBE4D"/>
		<stop  offset="0.3417" style="stop-color:#88D386"/>
		<stop  offset="0.4721" style="stop-color:#CFEDCF"/>
		<stop  offset="0.5521" style="stop-color:#FFFFFF"/>
		<stop  offset="0.9944" style="stop-color:#FF8A66"/>
		<stop  offset="1" style="stop-color:#FF8A66"/>
	</linearGradient>
	<circle fill-rule="evenodd" clip-rule="evenodd" fill="url(#SVGID_2_)" cx="-2298.203" cy="1115.658" r="183.547"/>
	<path fill="#21245E" d="M-2114.656,1115.658h-9.71c-0.001,24.029-4.864,46.869-13.657,67.662
		c-13.188,31.184-35.243,57.746-62.993,76.492c-27.757,18.745-61.151,29.679-97.188,29.683c-24.029-0.002-46.87-4.865-67.663-13.658
		c-31.184-13.186-57.745-35.241-76.491-62.992c-18.745-27.755-29.679-61.15-29.683-97.187c0.001-24.028,4.865-46.869,13.657-67.661
		c13.188-31.185,35.243-57.747,62.993-76.493c27.756-18.744,61.15-29.679,97.187-29.683c24.029,0.001,46.87,4.865,67.663,13.658
		c31.184,13.187,57.746,35.241,76.491,62.992c18.745,27.756,29.679,61.15,29.683,97.187H-2114.656h9.711
		c0.001-26.657-5.407-52.102-15.191-75.228c-14.677-34.694-39.168-64.182-70.008-85.02c-30.832-20.837-68.068-33.015-108.059-33.011
		c-26.656-0.002-52.101,5.408-75.228,15.191c-34.693,14.676-64.183,39.169-85.019,70.008
		c-20.837,30.832-33.016,68.066-33.011,108.059c-0.001,26.657,5.408,52.102,15.191,75.229
		c14.677,34.693,39.169,64.182,70.008,85.019c30.832,20.837,68.067,33.015,108.059,33.011c26.657,0.001,52.101-5.408,75.228-15.191
		c34.694-14.676,64.183-39.168,85.02-70.008c20.836-30.831,33.015-68.066,33.011-108.059H-2114.656z"/>
</g>
<g>
	<path fill="#FFFFFF" d="M-1830.115,440.914c6.683-18.174,18.501-27.264,35.454-27.264h112.963l-9.292,37.655l-97.559,0.122
		c-0.898,0-1.834,0.367-2.812,1.101c-0.897,0.734-1.589,1.711-2.079,2.934l-5.257,21.762h66.262l-8.802,37.775h-66.629
		l-15.404,63.573h-40.222L-1830.115,440.914z"/>
</g>
<g>
	<path fill="#2E3192" d="M-2340.167,1061.104c6.683-18.174,18.501-27.264,35.454-27.264h112.963l-9.292,37.655l-97.559,0.122
		c-0.898,0-1.834,0.367-2.812,1.101c-0.897,0.734-1.589,1.711-2.079,2.934l-5.257,21.762h66.262l-8.802,37.775h-66.629
		l-15.404,63.573h-40.222L-2340.167,1061.104z"/>
</g>
<text transform="matrix(1.1792 0 0 1 -921.3828 1178.6016)" fill="#FFFFFF" font-family="'UbuntuCondensed-Regular'" font-size="51.7172">fantasy</text>
</svg>
