<?xml version="1.0" encoding="utf-8"?>
<!-- Generator: Adobe Illustrator 16.0.0, SVG Export Plug-In . SVG Version: 6.00 Build 0)  -->
<!DOCTYPE svg PUBLIC "-//W3C//DTD SVG 1.1//EN" "http://www.w3.org/Graphics/SVG/1.1/DTD/svg11.dtd">
<svg version="1.1" id="Layer_1" xmlns="http://www.w3.org/2000/svg" xmlns:xlink="http://www.w3.org/1999/xlink" x="0px" y="0px"
	 width="442px" height="442px" viewBox="0 0 442 442" enable-background="new 0 0 442 442" xml:space="preserve">
<g>
	
		<linearGradient id="SVGID_1_" gradientUnits="userSpaceOnUse" x1="-197.6538" y1="334.4785" x2="223.1563" y2="334.4785" gradientTransform="matrix(1 0 0 -1 206 559)">
		<stop  offset="0" style="stop-color:#F15DB4"/>
		<stop  offset="1" style="stop-color:#FF8E20"/>
	</linearGradient>
	<path fill="url(#SVGID_1_)" d="M8.346,185.93c0.598-2.689,1.195-5.381,1.793-8.071c0.224-0.32,0.511-0.611,0.663-0.964
		c5.538-12.826,15.446-19.272,29.241-20.042c1.097-0.061,2.197-0.022,3.428-0.027c-5.035-13.554-3.305-25.819,6.611-36.201
		c10.109-10.589,22.646-11.713,36.36-7.517c-0.472-1.403-0.813-2.385-1.13-3.377c-2.252-7.012-2.379-13.989,0.399-20.902
		c4.647-11.552,17.036-24.536,36.549-20.097c6.951,1.582,13.921,3.061,20.89,4.551c0.748,0.16,1.547,0.085,2.323,0.12
		c20.894,4.644,41.786,9.289,62.679,13.933c1.038,0.368,2.051,0.863,3.122,1.088c21.783,4.586,42.979,10.906,62.891,21.087
		c22.329,11.42,42.165,25.843,56.925,46.558c4.507,6.326,10.692,10.742,17.793,13.863c5.046,2.221,10.295,3.66,15.689,4.455
		c0.578-1.524,1.055-2.814,1.557-4.097c3.701-9.495,13.985-15.173,23.954-13.091c7.533,1.573,15.053,3.234,22.54,5.015
		c9.031,2.146,15.581,10.019,16.248,19.272c0.081,1.104,0.188,2.207,0.285,3.312c-11.506,51.757-23.012,103.513-34.517,155.269
		c-0.217,0.311-0.518,0.591-0.641,0.934c-3.838,10.727-13.711,16.236-24.877,13.816c-7.049-1.527-14.086-3.104-21.123-4.692
		c-10.032-2.271-16.554-10.092-16.881-20.414c-0.08-2.623,0.309-5.262,0.494-8.056c-0.878-0.194-1.736-0.387-2.599-0.576
		c-13.848-3.078-27.703-6.12-41.533-9.268c-2.682-0.612-4.965-0.301-7.428,1.018c-39.996,21.42-80.035,42.76-120.063,64.122
		c-4.646,2.479-9.586,3.888-14.847,4.133c-1.601,0.075-3.207,0.081-4.808,0.118c-2.689-0.6-5.382-1.196-8.071-1.795
		c-0.402-0.251-0.776-0.561-1.206-0.744c-12.099-5.196-19.347-14.328-20.975-27.333c-1.626-13.008,2.98-23.927,13.711-31.519
		c5.979-4.226,12.783-7.289,19.248-10.822c5.654-3.092,11.354-6.108,17.62-9.473c-1.222-0.271-1.812-0.408-2.405-0.535
		c-19.41-4.148-38.819-8.313-58.236-12.438c-9.188-1.952-18.414-3.739-27.59-5.758c-7.507-1.65-15.172-2.943-22.405-5.436
		c-20.536-7.072-27.321-33.922-12.995-50.238c0.993-1.129,2.034-2.219,3.293-3.588c-2.619-0.582-4.891-1.072-7.155-1.594
		C19.29,216.734,9.314,204.92,8.509,190.717C8.419,189.126,8.396,187.527,8.346,185.93z M170.377,288.139
		c2.029,0.449,3.842,0.852,5.65,1.256c1.818,0.406,3.66,0.739,5.453,1.24c4.332,1.211,6.268,6.124,3.671,9.643
		c-0.918,1.244-2.337,2.246-3.727,2.994c-15.825,8.541-31.743,16.922-47.533,25.531c-10.384,5.663-13.946,17.625-8.63,27.986
		c5.174,10.092,17.089,13.979,27.699,8.992c2.049-0.965,4.028-2.08,6.029-3.151c39.221-20.976,78.45-41.934,117.639-62.974
		c3.427-1.838,6.751-2.248,10.506-1.377c14.84,3.441,29.713,6.753,44.573,10.104c0.918,0.206,1.854,0.325,2.827,0.493
		c9.03-40.62,18.004-80.999,27.024-121.582c-1.741-0.386-3.312-0.732-4.881-1.084c-15.979-3.596-28.988-11.783-38.477-25.222
		c-4.998-7.078-11.064-13.091-17.561-18.739c-1.006-0.873-1.677-1.055-2.894-0.188c-42.495,30.257-85.021,60.472-127.571,90.65
		c-1.517,1.075-2.022,2.221-1.936,4.036c0.538,11.396,0.974,22.799,1.438,34.202C169.916,276.67,170.144,282.398,170.377,288.139z
		 M161.631,286.232c-0.015-0.967-0.008-1.76-0.04-2.551c-0.702-16.492-1.369-32.981-2.149-49.47
		c-0.145-3.086,0.898-5.323,3.462-6.965c1.5-0.959,2.948-1.999,4.401-3.032c35.856-25.475,71.71-50.954,107.563-76.435
		c5.596-3.976,11.179-7.971,16.944-12.083c-0.625-0.495-1.027-0.854-1.47-1.162c-18.485-12.812-38.692-22.053-60.36-27.783
		c-18.791-4.968-37.821-9.021-56.75-13.471c-0.766-0.178-1.553-0.271-2.444-0.426c-2.759,12.42-5.474,24.636-8.241,37.085
		c2.733,0.608,5.336,1.122,7.906,1.773c3.057,0.774,4.979,3.373,4.886,6.421c-0.087,2.862-2.197,5.54-5.097,6.003
		c-1.469,0.235-3.076,0.063-4.551-0.251c-8.006-1.71-15.988-3.521-23.98-5.296c-0.92-0.206-1.842-0.41-2.855-0.635
		c-2.791,12.55-5.504,24.76-8.254,37.126c1.726,0.384,3.294,0.729,4.857,1.081c2.842,0.643,5.723,1.16,8.512,1.971
		c2.615,0.76,4.258,2.554,4.523,5.408c0.464,5.013-3.416,8.016-9.096,6.833c-10.948-2.278-21.872-4.673-32.805-7.019
		c-0.826-0.18-1.652-0.368-2.431-0.542c-2.767,12.45-5.449,24.513-8.181,36.8c1.127,0.25,2.059,0.465,2.994,0.665
		c14.26,3.06,28.521,6.102,42.779,9.188c4.102,0.89,6.123,4.007,5.229,7.841c-0.869,3.717-4.311,5.678-8.252,4.764
		c-3.545-0.823-7.107-1.578-10.662-2.369c-4.406-0.977-8.811-1.958-13.32-2.961c-2.844,12.798-5.556,24.996-8.275,37.23
		C124.899,278.068,143.15,282.124,161.631,286.232z M350.477,298.893c12.808,2.848,25.322,5.629,37.986,8.444
		c0.166-0.742,0.283-1.289,0.407-1.831c3.507-15.402,7.074-30.79,10.502-46.206c3.304-14.862,6.446-29.758,9.696-44.63
		c2.109-9.655,4.317-19.29,6.412-28.951c1.164-5.361-1.046-9.446-6.121-10.724c-7.07-1.775-14.193-3.366-21.354-4.726
		c-5.281-1.003-8.747,1.385-10.317,6.524c-0.285,0.928-0.486,1.882-0.697,2.832c-8.617,38.754-17.23,77.507-25.846,116.261
		C350.936,296.824,350.729,297.764,350.477,298.893z M91.884,167.127c2.83-12.734,5.595-25.17,8.39-37.749
		c-1.373-0.305-2.396-0.528-3.418-0.76c-5.839-1.324-11.736-2.444-17.506-4.025c-7.801-2.14-15.959,0.213-21.002,6.466
		c-5.059,6.271-5.826,14.815-1.873,21.849c2.674,4.758,6.65,7.844,12.042,9.029C76.33,163.657,84.139,165.407,91.884,167.127z
		 M65.538,174.813c-3.784-0.841-7.319-1.67-10.874-2.407c-3.564-0.737-7.144-1.423-10.728-2.055
		c-10.147-1.795-19.227,3.856-21.661,13.439c-2.597,10.221,2.577,19.955,12.602,23.003c4.938,1.5,10.095,2.28,15.153,3.391
		c2.415,0.531,4.832,1.075,7.286,1.619C60.063,199.438,62.729,187.444,65.538,174.813z M132.043,84.369
		c-4.691-1.043-9.083-2.161-13.53-2.977c-8.917-1.636-17.271,3.392-20.481,12.152c-3.096,8.447,0.226,18.253,7.913,22.558
		c5.511,3.085,11.817,3.529,17.92,5.063C126.621,108.763,129.302,96.704,132.043,84.369z M75.62,229.764
		c-4.706-1.046-9.072-2.539-13.53-2.893c-7.919-0.631-15.755,4.837-18.191,11.955c-2.88,8.404-0.672,16.906,5.827,21.594
		c5.265,3.8,11.583,4.555,17.748,5.993C70.242,253.949,72.94,241.822,75.62,229.764z M347.723,312.24
		c-1.231,5.551-2.705,10.941-3.559,16.425c-0.617,3.962,2.168,7.535,6.122,8.478c7.327,1.741,14.683,3.379,22.061,4.904
		c3.957,0.814,7.731-0.811,8.911-4.577c1.726-5.501,2.631-11.258,3.889-16.911C372.695,317.791,360.229,315.021,347.723,312.24z
		 M129.778,136.294c-7.088-1.576-14.052-3.125-21.014-4.671c-2.757,12.396-5.47,24.608-8.198,36.874
		c7.061,1.57,13.977,3.105,21.016,4.671C124.328,160.819,127.041,148.609,129.778,136.294z M74.398,176.835
		c-2.711,12.196-5.391,24.25-8.07,36.311c7.069,1.571,13.975,3.107,20.926,4.653c2.71-12.192,5.376-24.187,8.071-36.311
		C88.354,179.939,81.497,178.415,74.398,176.835z M105.66,235.875c-7.126-1.583-13.965-3.104-20.936-4.652
		c-2.728,12.27-5.421,24.385-8.127,36.553c7.054,1.566,13.954,3.102,20.937,4.654C100.252,260.201,102.932,248.146,105.66,235.875z
		 M161.88,91.138c-7.136-1.587-14.021-3.117-20.877-4.641c-2.729,12.275-5.411,24.342-8.148,36.658
		c6.639,1.474,13.106,2.913,19.572,4.35c1.694,0.376,1.574-0.987,1.785-1.932c2.357-10.518,4.688-21.042,7.028-31.563
		C161.447,93.081,161.654,92.151,161.88,91.138z"/>
	
		<linearGradient id="SVGID_2_" gradientUnits="userSpaceOnUse" x1="99.3335" y1="308.6455" x2="123.5732" y2="308.6455" gradientTransform="matrix(1 0 0 -1 206 559)">
		<stop  offset="0" style="stop-color:#F15DB4"/>
		<stop  offset="1" style="stop-color:#FF8E20"/>
	</linearGradient>
	<path fill="url(#SVGID_2_)" d="M321.682,251.336c-2.514,11.311-5.017,22.625-7.563,33.924c-0.224,0.996-0.533,2.131-1.194,2.833
		c-1.289,1.357-2.873,2.501-4.938,1.556c-1.888-0.863-3.021-3.346-2.544-5.547c0.956-4.436,1.958-8.856,2.941-13.285
		c3.955-17.795,7.908-35.59,11.873-53.383c0.281-1.267,0.54-2.545,0.965-3.764c0.757-2.169,2.604-3.243,4.741-2.888
		c2.227,0.368,3.682,2.11,3.607,4.473c-0.024,0.879-0.264,1.758-0.457,2.625C326.643,229.032,324.16,240.186,321.682,251.336z"/>
	
		<linearGradient id="SVGID_3_" gradientUnits="userSpaceOnUse" x1="73.9824" y1="301.4766" x2="92.4434" y2="301.4766" gradientTransform="matrix(1 0 0 -1 206 559)">
		<stop  offset="0" style="stop-color:#F15DB4"/>
		<stop  offset="1" style="stop-color:#FF8E20"/>
	</linearGradient>
	<path fill="url(#SVGID_3_)" d="M293.324,258.242c-1.637,7.355-3.268,14.714-4.91,22.068c-0.732,3.273-2.521,4.678-5.16,4.096
		c-2.611-0.574-3.77-2.711-3.072-5.868c3.254-14.718,6.523-29.429,9.813-44.138c0.636-2.834,2.144-4.084,4.433-3.861
		c3.125,0.305,4.533,2.21,3.844,5.395C296.65,243.375,294.975,250.807,293.324,258.242z"/>
</g>
</svg>
