<?xml version="1.0" encoding="utf-8"?>
<!-- Generator: Adobe Illustrator 16.0.0, SVG Export Plug-In . SVG Version: 6.00 Build 0)  -->
<!DOCTYPE svg PUBLIC "-//W3C//DTD SVG 1.1//EN" "http://www.w3.org/Graphics/SVG/1.1/DTD/svg11.dtd">
<svg version="1.1" id="Layer_1" xmlns="http://www.w3.org/2000/svg" xmlns:xlink="http://www.w3.org/1999/xlink" x="0px" y="0px"
	 width="150px" height="150px" viewBox="0 0 150 150" enable-background="new 0 0 150 150" xml:space="preserve">
<g>
	<path fill-rule="evenodd" clip-rule="evenodd" d="M76.244,1.174c40.362,0.112,73.923,33.754,73.755,73.934
		c-0.17,40.339-33.606,73.728-73.826,73.719c-40.286-0.008-73.882-33.62-73.827-73.863C2.401,34.642,36.031,1.063,76.244,1.174z
		 M76.154,101.789c5.306,0,10.611-0.035,15.916,0.029c1.112,0.014,1.531-0.377,1.855-1.391c3.228-10.087,6.498-20.16,9.791-30.227
		c0.289-0.884,0.203-1.393-0.604-1.976c-8.596-6.214-17.169-12.458-25.711-18.746c-0.909-0.669-1.48-0.589-2.335,0.038
		c-8.469,6.217-16.96,12.404-25.468,18.567c-0.831,0.603-1.151,1.092-0.788,2.192c3.321,10.057,6.584,20.133,9.812,30.221
		c0.313,0.979,0.72,1.328,1.766,1.316C65.644,101.759,70.898,101.789,76.154,101.789z M79.331,33.286
		c0,2.951-0.045,5.903,0.037,8.853c0.017,0.597,0.349,1.4,0.808,1.738c9.179,6.758,18.39,13.472,27.634,20.14
		c0.43,0.31,1.352,0.366,1.826,0.12c4.565-2.371,9.098-4.807,13.597-7.303c0.487-0.27,0.954-1.004,1.009-1.564
		c0.797-8.26,1.534-16.525,2.234-24.794c0.043-0.514-0.188-1.198-0.538-1.577c-6.077-6.584-13.191-11.755-21.376-15.412
		c-0.632-0.282-1.591-0.292-2.23-0.025c-7.326,3.057-14.614,6.206-21.932,9.287c-0.833,0.351-1.099,0.817-1.085,1.686
		C79.358,27.384,79.331,30.335,79.331,33.286z M73.173,33.383c0-2.952-0.052-5.905,0.027-8.854c0.027-1.031-0.339-1.458-1.26-1.845
		c-7.229-3.037-14.438-6.12-21.631-9.239c-0.96-0.416-1.744-0.397-2.68,0.038c-7.61,3.538-14.327,8.307-20.234,14.273
		c-1.152,1.165-1.485,2.29-1.338,3.838c0.741,7.814,1.423,15.635,2.083,23.458c0.077,0.919,0.435,1.41,1.256,1.804
		c4.729,2.269,9.441,4.571,14.132,6.917c0.751,0.375,1.234,0.27,1.869-0.195c8.955-6.559,17.936-13.084,26.875-19.666
		c0.461-0.339,0.844-1.099,0.86-1.675C73.219,39.287,73.173,36.334,73.173,33.383z M26.153,62.104
		c-5.642,6.487-11.229,12.896-16.776,19.34c-0.307,0.354-0.45,1.01-0.395,1.493c1.008,8.734,3.541,17.003,7.788,24.712
		c0.353,0.64,1.159,1.267,1.865,1.436c7.969,1.904,15.963,3.705,23.94,5.572c0.833,0.194,1.364,0.057,1.939-0.601
		c2.703-3.086,5.485-6.104,8.169-9.207c0.33-0.381,0.477-1.194,0.319-1.684c-3.441-10.751-6.93-21.486-10.447-32.213
		c-0.166-0.505-0.589-1.081-1.048-1.311C36.459,67.119,31.378,64.657,26.153,62.104z M143.698,82.479
		c-0.375-0.615-0.57-1.064-0.876-1.418c-5.203-6.011-10.434-11.999-15.617-18.026c-0.621-0.722-1.09-0.753-1.885-0.32
		c-4.822,2.633-9.683,5.196-14.494,7.847c-0.541,0.298-1.061,0.933-1.254,1.521c-3.37,10.293-6.675,20.608-10.044,30.902
		c-0.297,0.906-0.128,1.464,0.477,2.125c2.664,2.916,5.32,5.842,7.897,8.835c0.669,0.777,1.282,0.883,2.2,0.668
		c7.827-1.829,15.66-3.634,23.499-5.413c0.948-0.215,1.634-0.613,2.016-1.537c1.77-4.284,3.833-8.471,5.258-12.865
		C142.177,90.785,142.794,86.551,143.698,82.479z M48.698,118.583c0.071,0.224,0.085,0.328,0.135,0.411
		c4.277,7.172,8.545,14.349,12.864,21.494c0.26,0.43,0.892,0.785,1.407,0.886c8.796,1.717,17.602,1.666,26.391-0.037
		c0.544-0.105,1.172-0.578,1.464-1.061c4.166-6.889,8.272-13.813,12.423-20.712c0.399-0.664,0.393-1.091-0.146-1.68
		c-2.767-3.03-5.467-6.122-8.25-9.137c-0.38-0.412-1.093-0.726-1.653-0.728c-11.361-0.042-22.724-0.036-34.086-0.016
		c-0.463,0.001-1.09,0.082-1.363,0.38C54.775,111.772,51.722,115.21,48.698,118.583z M53.266,138.449
		c-3.331-5.573-6.643-11.158-10.028-16.698c-0.308-0.503-1.063-0.872-1.679-1.024c-3.488-0.862-6.998-1.643-10.503-2.443
		c-2.752-0.629-5.506-1.248-8.26-1.871C30.677,126.966,40.827,134.274,53.266,138.449z M8.89,72.554
		c0.424-0.475,0.854-0.944,1.271-1.425c3.635-4.188,7.235-8.405,10.927-12.542c0.851-0.953,1.119-1.878,0.993-3.099
		c-0.349-3.377-0.609-6.764-0.916-10.145c-0.256-2.821-0.527-5.642-0.831-8.883C12.862,47.593,9.112,59.469,8.89,72.554z
		 M129.896,116.453c-0.549,0.052-0.748,0.048-0.936,0.091c-6.039,1.386-12.084,2.748-18.106,4.206
		c-0.676,0.163-1.426,0.742-1.793,1.342c-3.13,5.119-6.181,10.286-9.249,15.442c-0.182,0.305-0.307,0.642-0.562,1.182
		C111.645,134.17,121.695,126.904,129.896,116.453z M132.072,37.131c-0.54,6.218-1.048,12.44-1.65,18.652
		c-0.102,1.052,0.131,1.792,0.808,2.562c3.832,4.355,7.624,8.744,11.434,13.119c0.275,0.317,0.58,0.61,1.117,1.172
		C143.205,59.471,139.502,47.719,132.072,37.131z M94.898,9.89C82.273,6.573,70.141,6.539,57.572,9.872
		c6.276,2.684,12.139,5.205,18.021,7.678c0.405,0.17,1.017,0.13,1.434-0.045C82.86,15.047,88.678,12.549,94.898,9.89z"/>
</g>
</svg>
