<?xml version="1.0" encoding="utf-8"?>
<!-- Generator: Adobe Illustrator 16.0.0, SVG Export Plug-In . SVG Version: 6.00 Build 0)  -->
<!DOCTYPE svg PUBLIC "-//W3C//DTD SVG 1.1//EN" "http://www.w3.org/Graphics/SVG/1.1/DTD/svg11.dtd">
<svg version="1.1" id="Layer_1" xmlns="http://www.w3.org/2000/svg" xmlns:xlink="http://www.w3.org/1999/xlink" x="0px" y="0px"
	 width="150px" height="150px" viewBox="0 0 150 150" enable-background="new 0 0 150 150" xml:space="preserve">
<path fill-rule="evenodd" clip-rule="evenodd" d="M14.004,87.179c4.545-5.323,12.478-6.251,17.653-2.015
	c5.255,4.302,6.015,12.182,1.708,17.729c-0.698,0.898-1.483,1.742-2.09,2.699c-1.776,2.805-1.141,5.883,1.554,7.898
	c2.415,1.806,5.043,1.399,7.311-1.175c6.959-7.9,13.911-15.811,20.861-23.719c19.065-21.693,48.557-53.165,67.625-74.856
	c2.436-2.771,5.575-3.475,9.027-2.752c3.453,0.723,5.345,3.16,6.168,6.444c0.737,2.949-0.14,5.545-1.97,7.908
	c-23.767,30.675-57.969,71.121-81.695,101.828c-5.176,6.698-11.858,10.69-20.223,11.821c-17.846,2.413-34.382-10.64-34.01-30.297
	C6.244,100.263,8.832,93.233,14.004,87.179z M44.508,115.808c-2.916,3.301-6.642,4.464-10.877,3.686
	c-9.512-1.751-10.365-12.52-6.296-17.985c0.679-0.912,1.491-1.734,2.114-2.683c1.571-2.387,1.689-4.961,0.295-7.396
	c-1.371-2.394-3.529-3.958-6.411-3.644c-1.308,0.143-2.835,0.74-3.75,1.646c-7.585,7.532-10.865,18.783-6.549,28.991
	c7.111,16.824,28.826,22.13,41.898,6.329c2.554-3.088,4.927-6.322,7.505-9.649c-3.296-2.84-6.527-5.623-9.87-8.502
	C49.795,109.77,47.166,112.8,44.508,115.808z M73.153,101.081c0.3-0.326,0.603-0.609,0.854-0.935
	c17.648-22.775,45.72-55.329,63.361-78.109c1.662-2.146,1.567-4.037-0.229-5.388c-1.512-1.138-2.799-0.965-4.241,0.666
	c-3.991,4.511-7.96,9.043-11.936,13.569c-15.01,17.083-40.448,43.943-55.455,61.028c-0.424,0.481-0.832,0.979-1.281,1.51
	C67.229,95.998,70.15,98.505,73.153,101.081z M60.451,97.665c-1.421,1.61-2.765,3.134-4.196,4.755
	c3.215,2.765,6.322,5.435,9.603,8.257c1.288-1.66,2.531-3.261,3.9-5.026C66.617,102.954,63.589,100.357,60.451,97.665z"/>
<path fill-rule="evenodd" clip-rule="evenodd" d="M110.049,126.864c-8.601,0.051-16.511-7.858-16.485-16.48
	c0.026-8.733,7.749-16.45,16.462-16.45c8.758-0.002,16.431,7.667,16.436,16.427C126.466,119.089,118.786,126.813,110.049,126.864z
	 M99.135,110.298c-0.013,6.447,4.522,10.997,10.951,10.987c6.348-0.011,10.821-4.526,10.818-10.92
	c-0.002-6.412-4.43-10.852-10.834-10.866C103.664,99.484,99.146,103.944,99.135,110.298z"/>
</svg>
