<?xml version="1.0" encoding="utf-8"?>
<!-- Generator: Adobe Illustrator 16.0.0, SVG Export Plug-In . SVG Version: 6.00 Build 0)  -->
<!DOCTYPE svg PUBLIC "-//W3C//DTD SVG 1.1//EN" "http://www.w3.org/Graphics/SVG/1.1/DTD/svg11.dtd">
<svg version="1.1" id="Layer_1" xmlns="http://www.w3.org/2000/svg" xmlns:xlink="http://www.w3.org/1999/xlink" x="0px" y="0px"
	 width="920.918px" height="285.292px" viewBox="0 0 920.918 285.292" enable-background="new 0 0 920.918 285.292"
	 xml:space="preserve">
<g>
	<linearGradient id="SVGID_1_" gradientUnits="userSpaceOnUse" x1="896.7432" y1="-32.478" x2="126.4549" y2="73.2861">
		<stop  offset="0" style="stop-color:#FF3FDF"/>
		<stop  offset="1" style="stop-color:#FF8E20"/>
	</linearGradient>
	<path fill="url(#SVGID_1_)" d="M164.366,31.582c4.215-11.454,11.66-17.182,22.35-17.182h71.206l-5.854,23.735l-61.5,0.079
		c-0.567,0-1.154,0.229-1.772,0.693c-0.563,0.464-1,1.08-1.308,1.848l-3.313,13.719h41.768l-5.55,23.814h-42l-9.713,40.074h-25.354
		L164.366,31.582z"/>
	<linearGradient id="SVGID_2_" gradientUnits="userSpaceOnUse" x1="899.2314" y1="-14.4722" x2="128.9249" y2="91.2945">
		<stop  offset="0" style="stop-color:#FF3FDF"/>
		<stop  offset="1" style="stop-color:#FF8E20"/>
	</linearGradient>
	<path fill="url(#SVGID_2_)" d="M264.626,31.582c4.061-11.454,11.202-17.182,21.427-17.182h75.605l-25.204,103.961h-24.586
		l7.018-28.67l12.482-51.477h-41.771c-0.563,0-1.13,0.229-1.694,0.693c-0.618,0.464-1.028,1.08-1.233,1.848l-6.093,25.125h36.918
		l-5.857,23.889H274.8l-6.933,28.592h-24.433L264.626,31.582z"/>
	<linearGradient id="SVGID_3_" gradientUnits="userSpaceOnUse" x1="901.2822" y1="0.5806" x2="130.991" y2="106.3451">
		<stop  offset="0" style="stop-color:#FF3FDF"/>
		<stop  offset="1" style="stop-color:#FF8E20"/>
	</linearGradient>
	<path fill="url(#SVGID_3_)" d="M369.055,31.582C373.42,20.128,380.69,14.4,390.864,14.4h6.625l45.626,53.946L455.449,14.4h24.658
		l-25.122,103.961h-24.354l4.624-19.422l-45.084-53.639l-17.496,73.061h-24.661L369.055,31.582z"/>
	<linearGradient id="SVGID_4_" gradientUnits="userSpaceOnUse" x1="902.8945" y1="12.3945" x2="132.6306" y2="118.1553">
		<stop  offset="0" style="stop-color:#FF3FDF"/>
		<stop  offset="1" style="stop-color:#FF8E20"/>
	</linearGradient>
	<path fill="url(#SVGID_4_)" d="M521.877,38.058h-34.37l5.778-23.657h92.019l-5.86,23.657h-33.291l-20.033,80.304h-24.582
		L521.877,38.058z"/>
	<linearGradient id="SVGID_5_" gradientUnits="userSpaceOnUse" x1="905.3125" y1="29.8257" x2="134.9859" y2="135.5951">
		<stop  offset="0" style="stop-color:#FF3FDF"/>
		<stop  offset="1" style="stop-color:#FF8E20"/>
	</linearGradient>
	<path fill="url(#SVGID_5_)" d="M593.322,31.582c4.058-11.454,11.202-17.182,21.42-17.182h75.612L665.15,118.362h-24.589
		l7.021-28.67l12.479-51.477h-41.768c-0.567,0-1.135,0.229-1.694,0.693c-0.622,0.464-1.038,1.08-1.236,1.848l-6.093,25.125h36.918
		l-5.86,23.889h-36.836l-6.933,28.592h-24.433L593.322,31.582z"/>
	<linearGradient id="SVGID_6_" gradientUnits="userSpaceOnUse" x1="907.0898" y1="42.8608" x2="136.7844" y2="148.6273">
		<stop  offset="0" style="stop-color:#FF3FDF"/>
		<stop  offset="1" style="stop-color:#FF8E20"/>
	</linearGradient>
	<path fill="url(#SVGID_6_)" d="M723.182,38.215c-0.725,0-1.339,0.205-1.858,0.614c-0.505,0.465-0.874,0.977-1.072,1.544
		c-0.464,1.848-0.84,3.391-1.113,4.621c-0.287,1.233-0.56,2.377-0.819,3.432c-0.253,1.052-0.438,1.783-0.533,2.192
		c-0.156,0.98,0.055,1.827,0.615,2.545c0.56,0.724,1.312,1.082,2.233,1.082c0.362,0,2.247,0,5.662,0s7.466,0,12.145,0
		c4.672,0,8.935,0,12.786,0c3.853,0,6.216,0,7.097,0c6.933,0,12.479,2.722,16.646,8.169c4.16,5.393,5.444,11.608,3.853,18.647
		c0,0.051-0.027,0.13-0.082,0.232c0,0.106-0.219,1.039-0.655,2.814c-0.438,1.772-0.943,3.866-1.537,6.277
		c-0.594,2.418-1.141,4.655-1.66,6.707c-0.505,2.057-0.819,3.392-0.922,4.01c-1.387,5.085-4.084,9.248-8.094,12.482
		c-4.003,3.189-8.682,4.778-14.022,4.778c-0.055,0-0.13,0-0.232,0c-0.718,0-4.528,0-11.44,0c-6.913,0-15.041,0-24.398,0
		c-9.351,0-17.841,0-25.464,0c-7.636,0-12.171,0-13.605,0c1.024-4.419,1.898-8.101,2.622-11.058
		c0.718-2.954,1.373-5.676,1.961-8.169c0.594-2.493,0.963-4.123,1.12-4.895c0.614,0,3.968,0,10.054,0s13.258,0,21.51,0
		c8.236,0,15.729,0,22.458,0c6.734,0,10.737,0,12.021,0c1.435,0,2.445-0.744,3.006-2.233c0.465-1.851,0.833-3.391,1.12-4.627
		c0.287-1.229,0.554-2.374,0.806-3.429c0.26-1.052,0.438-1.786,0.547-2.192c0.355-0.929,0.253-1.775-0.314-2.548
		c-0.56-0.765-1.312-1.15-2.233-1.15h0.075c-0.055,0-0.123,0-0.232,0c-0.355,0-2.268,0-5.737,0s-7.541,0-12.213,0s-8.94,0-12.8,0
		c-3.853,0-6.188,0-7.008,0c-6.987,0-12.561-2.647-16.721-7.94c-4.215-5.293-5.506-11.533-3.853-18.729c0-0.052,0-0.13,0-0.229
		l0.15-0.693c0.308-1.182,0.806-3.163,1.503-5.936c0.696-2.773,1.359-5.485,2.001-8.131c0.649-2.644,1.072-4.379,1.277-5.202
		c4.364-11.198,11.68-16.799,21.96-16.799c0.047,0,0.129,0,0.232,0c0.717,0,4.541,0,11.481,0c6.939,0,15.067,0,24.397,0
		c9.316,0,17.807,0,25.464,0s12.199,0,13.647,0c-1.031,4.368-1.906,8.002-2.623,10.905c-0.725,2.903-1.38,5.587-1.967,8.053
		c-0.588,2.466-0.964,4.084-1.121,4.856c-0.614,0-3.975,0-10.095,0c-6.113,0-13.292,0-21.543,0c-8.237,0-15.73,0-22.458,0
		C728.468,38.215,724.466,38.215,723.182,38.215z"/>
	<linearGradient id="SVGID_7_" gradientUnits="userSpaceOnUse" x1="908.6953" y1="54.6387" x2="138.4796" y2="160.3929">
		<stop  offset="0" style="stop-color:#FF3FDF"/>
		<stop  offset="1" style="stop-color:#FF8E20"/>
	</linearGradient>
	<path fill="url(#SVGID_7_)" d="M905.743,14.4l-50.162,58.185l-10.71,45.777H818.67l11.324-47.778L801.478,14.4h28.899
		l16.031,31.826L874.535,14.4H905.743z"/>
</g>
<g>
	<path d="M202.354,170.086c-1.762-2.833-4.909-4.092-8.12-4.092c-4.658,0-9.504,2.203-9.504,7.49c0,4.092,2.266,5.917,9.379,8.183
		c6.923,2.203,13.344,4.469,13.344,13.217c0,8.875-7.616,13.029-15.673,13.029c-5.161,0-10.7-1.699-13.722-6.168l4.532-3.713
		c1.888,3.273,5.665,4.973,9.504,4.973c4.532,0,9.693-2.645,9.693-7.742c0-5.476-3.713-6.42-11.645-9.064
		c-6.294-2.077-11.078-4.847-11.078-12.274c0-8.56,7.364-12.84,15.169-12.84c4.973,0,9.19,1.385,12.463,5.225L202.354,170.086z"/>
	<path d="M241.372,162.218h13.218c8.183,0,15.61,2.896,15.61,12.211c0,9.756-8.309,12.337-14.603,12.337h-8.938v20.015h-5.287
		V162.218z M246.659,181.856h8.938c5.287,0,8.938-2.393,8.938-7.364c0-4.973-3.65-7.364-8.938-7.364h-8.938V181.856z"/>
	<path d="M301.286,184.5c0-13.47,9.756-23.415,23.289-23.415s23.289,9.945,23.289,23.415c0,13.47-9.756,23.414-23.289,23.414
		S301.286,197.97,301.286,184.5z M342.199,184.5c0-10.26-7.176-18.506-17.624-18.506c-10.449,0-17.624,8.246-17.624,18.506
		c0,10.259,7.175,18.505,17.624,18.505C335.023,203.005,342.199,194.759,342.199,184.5z"/>
	<path d="M424.2,162.218h11.393c8.623,0,17.75,1.259,17.75,12.274c0,6.482-4.217,10.7-11.141,11.77l12.651,20.519h-6.483
		l-12.085-20.015h-6.798v20.015H424.2V162.218z M429.487,181.856h4.721c5.854,0,13.47,0,13.47-7.364
		c0-6.421-5.602-7.364-10.763-7.364h-7.427V181.856z"/>
	<path d="M516.593,167.128h-14.729v39.653h-5.287v-39.653h-14.729v-4.91h34.744V167.128z"/>
	<path d="M569.143,170.086c-1.763-2.833-4.909-4.092-8.119-4.092c-4.658,0-9.505,2.203-9.505,7.49c0,4.092,2.267,5.917,9.379,8.183
		c6.924,2.203,13.344,4.469,13.344,13.217c0,8.875-7.616,13.029-15.673,13.029c-5.161,0-10.7-1.699-13.722-6.168l4.532-3.713
		c1.888,3.273,5.665,4.973,9.504,4.973c4.532,0,9.693-2.645,9.693-7.742c0-5.476-3.714-6.42-11.645-9.064
		c-6.294-2.077-11.078-4.847-11.078-12.274c0-8.56,7.364-12.84,15.17-12.84c4.972,0,9.189,1.385,12.462,5.225L569.143,170.086z"/>
	<path d="M680.729,167.128h-14.729v39.653h-5.287v-39.653h-14.729v-4.91h34.744V167.128z"/>
	<path d="M712.131,162.218h28.01v4.91h-22.723v13.973h21.212v4.909h-21.212v15.863h23.855v4.908h-29.143V162.218z"/>
	<path d="M805.846,171.407c-2.644-3.587-6.861-5.413-11.142-5.413c-9.944,0-16.994,8.749-16.994,18.506
		c0,10.322,6.986,18.505,16.994,18.505c5.413,0,9.757-2.203,12.903-6.232l3.966,3.336c-3.966,5.35-9.756,7.805-16.869,7.805
		c-12.777,0-22.659-9.881-22.659-23.414c0-13.093,9.441-23.415,22.659-23.415c6.043,0,11.96,2.077,15.736,6.986L805.846,171.407z"/>
	<path d="M844.106,162.218h5.287v18.883h23.792v-18.883h5.287v44.563h-5.287V186.01h-23.792v20.771h-5.287V162.218z"/>
</g>
<g>
	<path fill-rule="evenodd" clip-rule="evenodd" fill="#FFFFFF" d="M344.951,243.757c-31.689-0.205-57.737-25.684-57.952-57.875
		c-0.212-32.225,25.6-58.525,58.058-58.631c32.178-0.102,58.345,25.655,58.43,58.161
		C403.572,217.617,377.508,243.798,344.951,243.757z M290.636,191.887c0.051,0.492,0.089,0.929,0.147,1.367
		c0.239,1.666,0.243,1.674,1.926,1.707c12.469,0.26,24.838-0.73,37.096-3.011c17.752-3.307,34.657-9.105,50.606-17.568
		c5.164-2.738,10.116-5.874,15.146-8.859c0.273-0.163,0.611-0.648,0.543-0.874c-0.249-0.819-0.655-1.604-1.038-2.486
		c-0.505,0.328-0.892,0.588-1.291,0.82c-0.963,0.587-1.971,0.409-2.486-0.417c-0.522-0.84-0.256-1.811,0.677-2.438
		c0.505-0.342,1.024-0.677,1.523-1.011c-13.042-23.893-42.444-35.542-69.321-24.398c-26.164,10.847-35.429,36.844-33.68,53.633
		c1.946,0.225,2.537,0.607,2.578,1.68C293.105,191.115,292.497,191.601,290.636,191.887z M399.655,177.291
		c-32.134,20.47-67.023,30.347-105.027,29.8c0.861,1.434,0.772,3.408,3.21,3.252c1.216-0.076,1.79,1.584,1.025,2.574
		c-0.222,0.287-0.54,0.498-0.807,0.744c12.589,21.584,40.539,33.469,67.225,23.033c26.068-10.191,35.846-35.49,34.794-51.939
		c-0.12,0.055-0.229,0.103-0.338,0.15c-1.008,0.465-1.913,0.232-2.377-0.587c-0.465-0.833-0.195-1.735,0.713-2.35
		c0.499-0.335,1.021-0.629,1.502-0.983c0.178-0.123,0.4-0.383,0.39-0.561C399.904,179.429,399.774,178.438,399.655,177.291z
		 M397.558,168.329c-32.335,20.717-67.518,30.661-105.71,30.034c0.017,0.232,0.01,0.369,0.041,0.477
		c0.373,1.305,0.775,2.596,1.113,3.908c0.174,0.684,0.512,0.928,1.24,0.941c10.536,0.232,21.017-0.361,31.437-1.912
		c19.07-2.842,37.229-8.578,54.462-17.226c6.219-3.128,12.243-6.584,18.06-10.416c0.283-0.191,0.666-0.635,0.615-0.881
		C398.463,171.643,398.006,170.044,397.558,168.329z"/>
	<path fill-rule="evenodd" clip-rule="evenodd" fill="#C1272D" d="M290.636,191.887c1.861-0.286,2.469-0.771,2.425-1.857
		c-0.041-1.072-0.632-1.455-2.578-1.68c-1.749-16.789,7.517-42.786,33.68-53.633c26.877-11.144,56.279,0.506,69.321,24.398
		c-0.499,0.334-1.018,0.669-1.523,1.011c-0.933,0.628-1.199,1.599-0.677,2.438c0.516,0.826,1.523,1.004,2.486,0.417
		c0.399-0.232,0.786-0.492,1.291-0.82c0.383,0.882,0.789,1.667,1.038,2.486c0.068,0.226-0.27,0.711-0.543,0.874
		c-5.03,2.985-9.982,6.121-15.146,8.859c-15.949,8.463-32.854,14.262-50.606,17.568c-12.257,2.281-24.627,3.271-37.096,3.011
		c-1.684-0.033-1.688-0.041-1.926-1.707C290.725,192.816,290.687,192.378,290.636,191.887z M386.705,166.479
		c-0.174-1.407-1.458-2.186-2.657-1.585c-1.318,0.669-2.599,1.407-3.883,2.131c-0.932,0.533-1.233,1.462-0.789,2.315
		c0.437,0.841,1.403,1.147,2.346,0.656c1.339-0.69,2.678-1.394,3.952-2.193C386.117,167.517,386.367,166.929,386.705,166.479z
		 M341.491,184.49c0.021-1.018-0.912-1.893-1.94-1.674c-1.567,0.314-3.125,0.703-4.672,1.12c-0.888,0.239-1.363,1.134-1.154,1.995
		c0.211,0.86,1.042,1.447,1.933,1.256c1.537-0.334,3.06-0.71,4.58-1.106C341.026,185.877,341.413,185.289,341.491,184.49z
		 M301.438,191.764c0-0.061,0-0.115,0-0.177c0.724,0,1.448,0.027,2.168,0c1.124-0.055,1.848-0.766,1.813-1.742
		c-0.034-1.004-0.769-1.64-1.919-1.604c-1.414,0.033-2.828,0.096-4.242,0.163c-1.1,0.055-1.752,0.684-1.748,1.681
		c0,0.997,0.728,1.666,1.857,1.674C300.059,191.764,300.748,191.764,301.438,191.764z M374.246,170.112
		c-0.065,0.068-0.126,0.13-0.191,0.198c-0.126,0.02-0.263,0.006-0.372,0.055c-1.567,0.717-3.155,1.406-4.689,2.192
		c-0.741,0.382-0.925,1.312-0.584,2.076c0.338,0.737,1.161,1.209,1.96,0.888c1.595-0.655,3.162-1.394,4.688-2.192
		c0.714-0.376,0.936-1.195,0.561-1.892C375.329,170.904,374.718,170.549,374.246,170.112z M323.712,189.523
		c1.414-0.259,3.091-0.505,4.74-0.888c0.86-0.191,1.284-1.093,1.089-1.926c-0.202-0.86-0.902-1.421-1.81-1.291
		c-1.585,0.226-3.166,0.491-4.733,0.813c-0.878,0.178-1.359,0.97-1.247,1.845C321.857,188.923,322.558,189.518,323.712,189.523z
		 M358.71,180.426c1.803-0.778,3.654-1.476,5.393-2.377c0.676-0.342,0.68-1.243,0.293-1.953c-0.393-0.711-1.079-1.066-1.83-0.807
		c-1.602,0.54-3.183,1.162-4.73,1.845c-0.799,0.354-0.963,1.134-0.744,1.939C357.3,179.824,357.877,180.166,358.71,180.426z
		 M347.488,184.128c1.451-0.499,3.262-1.018,4.986-1.741c0.771-0.321,0.867-1.223,0.55-1.988c-0.325-0.778-1.021-1.188-1.838-0.97
		c-1.602,0.437-3.193,0.929-4.757,1.503c-0.799,0.287-1.09,1.011-0.919,1.851C345.685,183.636,346.266,184.046,347.488,184.128z
		 M311.69,191.026c1.321-0.137,2.824-0.267,4.316-0.472c1.063-0.143,1.664-0.949,1.53-1.898c-0.133-0.949-0.888-1.51-1.991-1.414
		c-1.438,0.13-2.875,0.273-4.31,0.438c-1.049,0.123-1.67,0.888-1.571,1.865C309.757,190.46,310.488,191.047,311.69,191.026z"/>
	<path fill-rule="evenodd" clip-rule="evenodd" fill="#C1272D" d="M399.655,177.291c0.119,1.147,0.249,2.138,0.311,3.135
		c0.01,0.178-0.212,0.438-0.39,0.561c-0.481,0.354-1.004,0.648-1.502,0.983c-0.909,0.614-1.178,1.517-0.713,2.35
		c0.464,0.819,1.369,1.052,2.377,0.587c0.109-0.048,0.218-0.096,0.338-0.15c1.052,16.449-8.726,41.748-34.794,51.939
		c-26.686,10.436-54.636-1.449-67.225-23.033c0.267-0.246,0.584-0.457,0.807-0.744c0.765-0.99,0.191-2.65-1.025-2.574
		c-2.438,0.156-2.35-1.818-3.21-3.252C332.632,207.638,367.521,197.761,399.655,177.291z M307.124,213.552
		c1.186-0.068,2.07-0.082,2.94-0.184c0.912-0.104,1.476-0.779,1.469-1.66c-0.007-0.875-0.601-1.625-1.499-1.633
		c-1.66-0.006-3.327,0.049-4.983,0.186c-0.943,0.068-1.506,0.887-1.424,1.789c0.079,0.861,0.714,1.461,1.64,1.496
		C305.987,213.58,306.711,213.552,307.124,213.552z M381.872,194.203c-0.007-1.674-1.229-2.404-2.5-1.844
		c-1.318,0.58-2.623,1.195-3.924,1.822c-0.946,0.459-1.308,1.4-0.922,2.275c0.372,0.84,1.355,1.209,2.318,0.785
		c1.353-0.594,2.712-1.182,3.996-1.898C381.346,195.07,381.664,194.441,381.872,194.203z M359.305,203.267
		c-0.027-1.49-0.987-2.281-2.09-1.982c-1.544,0.41-3.07,0.902-4.58,1.428c-0.864,0.301-1.25,1.244-0.966,2.092
		c0.263,0.791,1.11,1.316,1.95,1.086c1.541-0.438,3.091-0.869,4.57-1.463C358.724,204.208,359.072,203.527,359.305,203.267z
		 M329.695,211.353c1.257-0.211,2.677-0.451,4.098-0.695c0.28-0.049,0.563-0.096,0.827-0.191c0.778-0.287,1.216-1.066,1.065-1.887
		c-0.154-0.832-0.885-1.447-1.783-1.324c-1.615,0.219-3.224,0.492-4.822,0.82c-0.827,0.164-1.312,0.969-1.219,1.775
		C327.96,210.712,328.653,211.333,329.695,211.353z M392.671,188.52c-0.037-1.652-1.339-2.397-2.527-1.782
		c-1.312,0.676-2.599,1.394-3.879,2.124c-0.912,0.512-1.202,1.482-0.751,2.329c0.444,0.826,1.417,1.106,2.37,0.614
		c1.308-0.683,2.623-1.358,3.866-2.145C392.217,189.359,392.493,188.752,392.671,188.52z M318.323,212.781
		c0,0.008,0.003,0.021,0.003,0.021c1.28-0.137,2.564-0.26,3.839-0.424c1-0.137,1.561-0.861,1.482-1.838
		c-0.075-0.93-0.816-1.578-1.817-1.496c-1.533,0.131-3.063,0.295-4.59,0.5c-0.994,0.135-1.585,0.949-1.452,1.857
		c0.137,0.936,0.877,1.51,1.882,1.455C317.886,212.843,318.104,212.802,318.323,212.781z M370.725,199.154
		c0.021-1.639-1.11-2.404-2.374-1.939c-1.356,0.484-2.698,1.018-4.033,1.559c-0.997,0.402-1.421,1.289-1.093,2.186
		c0.331,0.9,1.229,1.324,2.24,0.969c1.417-0.512,2.841-1.023,4.197-1.666C370.175,200.015,370.507,199.386,370.725,199.154z
		 M341.847,209.025c1.393-0.35,3.107-0.73,4.784-1.236c0.789-0.232,1.134-1.148,0.919-1.939c-0.215-0.82-0.977-1.373-1.878-1.189
		c-1.598,0.314-3.183,0.711-4.754,1.148c-0.827,0.225-1.206,1.01-1.066,1.857C339.985,208.484,340.641,209.017,341.847,209.025z"/>
	<path fill-rule="evenodd" clip-rule="evenodd" fill="#C1272D" d="M397.558,168.329c0.448,1.715,0.905,3.313,1.257,4.925
		c0.051,0.246-0.332,0.689-0.615,0.881c-5.816,3.832-11.84,7.288-18.06,10.416c-17.233,8.648-35.392,14.384-54.462,17.226
		c-10.419,1.551-20.9,2.145-31.437,1.912c-0.728-0.014-1.065-0.258-1.24-0.941c-0.338-1.313-0.741-2.604-1.113-3.908
		c-0.031-0.107-0.024-0.244-0.041-0.477C330.04,198.99,365.223,189.046,397.558,168.329z"/>
	<path fill-rule="evenodd" clip-rule="evenodd" fill="#FFFFFF" d="M386.705,166.479c-0.338,0.45-0.587,1.038-1.031,1.324
		c-1.274,0.8-2.613,1.503-3.952,2.193c-0.942,0.491-1.909,0.185-2.346-0.656c-0.444-0.854-0.144-1.782,0.789-2.315
		c1.284-0.724,2.565-1.462,3.883-2.131C385.246,164.293,386.53,165.071,386.705,166.479z"/>
	<path fill-rule="evenodd" clip-rule="evenodd" fill="#FFFFFF" d="M341.491,184.49c-0.079,0.799-0.465,1.387-1.253,1.591
		c-1.52,0.396-3.043,0.772-4.58,1.106c-0.892,0.191-1.722-0.396-1.933-1.256c-0.208-0.861,0.266-1.756,1.154-1.995
		c1.547-0.417,3.104-0.806,4.672-1.12C340.579,182.598,341.512,183.473,341.491,184.49z"/>
	<path fill-rule="evenodd" clip-rule="evenodd" fill="#FFFFFF" d="M301.438,191.764c-0.69,0-1.379,0-2.07-0.006
		c-1.13-0.008-1.857-0.677-1.857-1.674c-0.004-0.997,0.648-1.626,1.748-1.681c1.414-0.067,2.828-0.13,4.242-0.163
		c1.15-0.035,1.885,0.601,1.919,1.604c0.034,0.977-0.689,1.688-1.813,1.742c-0.721,0.027-1.444,0-2.168,0
		C301.438,191.648,301.438,191.703,301.438,191.764z"/>
	<path fill-rule="evenodd" clip-rule="evenodd" fill="#FFFFFF" d="M374.246,170.112c0.472,0.437,1.083,0.792,1.373,1.325
		c0.375,0.696,0.153,1.516-0.561,1.892c-1.526,0.799-3.094,1.537-4.688,2.192c-0.799,0.321-1.622-0.15-1.96-0.888
		c-0.341-0.765-0.157-1.694,0.584-2.076c1.534-0.786,3.122-1.476,4.689-2.192c0.109-0.049,0.246-0.035,0.372-0.055
		C374.12,170.242,374.181,170.181,374.246,170.112z"/>
	<path fill-rule="evenodd" clip-rule="evenodd" fill="#FFFFFF" d="M323.712,189.523c-1.154-0.006-1.854-0.601-1.96-1.447
		c-0.113-0.875,0.369-1.667,1.247-1.845c1.567-0.321,3.148-0.587,4.733-0.813c0.908-0.13,1.608,0.431,1.81,1.291
		c0.195,0.833-0.229,1.734-1.089,1.926C326.803,189.019,325.126,189.265,323.712,189.523z"/>
	<path fill-rule="evenodd" clip-rule="evenodd" fill="#FFFFFF" d="M358.71,180.426c-0.833-0.26-1.411-0.602-1.619-1.353
		c-0.219-0.806-0.055-1.585,0.744-1.939c1.547-0.683,3.129-1.305,4.73-1.845c0.751-0.26,1.438,0.096,1.83,0.807
		c0.386,0.71,0.383,1.611-0.293,1.953C362.365,178.95,360.514,179.647,358.71,180.426z"/>
	<path fill-rule="evenodd" clip-rule="evenodd" fill="#FFFFFF" d="M347.488,184.128c-1.223-0.082-1.803-0.492-1.978-1.346
		c-0.171-0.84,0.12-1.563,0.919-1.851c1.564-0.574,3.155-1.066,4.757-1.503c0.816-0.219,1.513,0.191,1.838,0.97
		c0.317,0.766,0.222,1.667-0.55,1.988C350.75,183.11,348.939,183.629,347.488,184.128z"/>
	<path fill-rule="evenodd" clip-rule="evenodd" fill="#FFFFFF" d="M311.69,191.026c-1.202,0.021-1.933-0.566-2.025-1.481
		c-0.099-0.978,0.522-1.742,1.571-1.865c1.435-0.164,2.872-0.308,4.31-0.438c1.104-0.096,1.858,0.465,1.991,1.414
		c0.133,0.949-0.468,1.756-1.53,1.898C314.515,190.76,313.012,190.89,311.69,191.026z"/>
	<path fill-rule="evenodd" clip-rule="evenodd" fill="#FFFFFF" d="M307.124,213.552c-0.413,0-1.137,0.027-1.857-0.006
		c-0.926-0.035-1.561-0.635-1.64-1.496c-0.082-0.902,0.481-1.721,1.424-1.789c1.656-0.137,3.323-0.191,4.983-0.186
		c0.898,0.008,1.492,0.758,1.499,1.633c0.007,0.881-0.557,1.557-1.469,1.66C309.194,213.47,308.31,213.484,307.124,213.552z"/>
	<path fill-rule="evenodd" clip-rule="evenodd" fill="#FFFFFF" d="M381.872,194.203c-0.208,0.238-0.526,0.867-1.031,1.141
		c-1.284,0.717-2.644,1.305-3.996,1.898c-0.963,0.424-1.946,0.055-2.318-0.785c-0.386-0.875-0.024-1.816,0.922-2.275
		c1.301-0.627,2.605-1.242,3.924-1.822C380.643,191.799,381.865,192.529,381.872,194.203z"/>
	<path fill-rule="evenodd" clip-rule="evenodd" fill="#FFFFFF" d="M359.305,203.267c-0.232,0.26-0.581,0.941-1.117,1.16
		c-1.479,0.594-3.029,1.025-4.57,1.463c-0.84,0.23-1.687-0.295-1.95-1.086c-0.284-0.848,0.102-1.791,0.966-2.092
		c1.51-0.525,3.036-1.018,4.58-1.428C358.318,200.986,359.277,201.777,359.305,203.267z"/>
	<path fill-rule="evenodd" clip-rule="evenodd" fill="#FFFFFF" d="M329.695,211.353c-1.042-0.02-1.735-0.641-1.834-1.502
		c-0.092-0.807,0.393-1.611,1.219-1.775c1.598-0.328,3.207-0.602,4.822-0.82c0.898-0.123,1.629,0.492,1.783,1.324
		c0.15,0.82-0.287,1.6-1.065,1.887c-0.263,0.096-0.547,0.143-0.827,0.191C332.373,210.902,330.952,211.142,329.695,211.353z"/>
	<path fill-rule="evenodd" clip-rule="evenodd" fill="#FFFFFF" d="M392.671,188.52c-0.178,0.232-0.454,0.84-0.922,1.141
		c-1.243,0.786-2.558,1.462-3.866,2.145c-0.953,0.492-1.926,0.212-2.37-0.614c-0.451-0.847-0.16-1.817,0.751-2.329
		c1.281-0.73,2.568-1.448,3.879-2.124C391.332,186.122,392.634,186.867,392.671,188.52z"/>
	<path fill-rule="evenodd" clip-rule="evenodd" fill="#FFFFFF" d="M318.323,212.781c-0.219,0.021-0.437,0.063-0.652,0.076
		c-1.004,0.055-1.745-0.52-1.882-1.455c-0.133-0.908,0.458-1.723,1.452-1.857c1.526-0.205,3.057-0.369,4.59-0.5
		c1-0.082,1.742,0.566,1.817,1.496c0.079,0.977-0.482,1.701-1.482,1.838c-1.274,0.164-2.559,0.287-3.839,0.424
		C318.326,212.802,318.323,212.789,318.323,212.781z"/>
	<path fill-rule="evenodd" clip-rule="evenodd" fill="#FFFFFF" d="M370.725,199.154c-0.218,0.232-0.55,0.861-1.062,1.107
		c-1.356,0.643-2.78,1.154-4.197,1.666c-1.011,0.355-1.909-0.068-2.24-0.969c-0.328-0.896,0.096-1.783,1.093-2.186
		c1.335-0.541,2.677-1.074,4.033-1.559C369.615,196.75,370.746,197.515,370.725,199.154z"/>
	<path fill-rule="evenodd" clip-rule="evenodd" fill="#FFFFFF" d="M341.847,209.025c-1.206-0.008-1.861-0.541-1.995-1.359
		c-0.14-0.848,0.239-1.633,1.066-1.857c1.571-0.438,3.156-0.834,4.754-1.148c0.902-0.184,1.663,0.369,1.878,1.189
		c0.215,0.791-0.13,1.707-0.919,1.939C344.954,208.294,343.24,208.675,341.847,209.025z"/>
</g>
<linearGradient id="SVGID_8_" gradientUnits="userSpaceOnUse" x1="-1149.6929" y1="-501.8071" x2="-949.1094" y2="-501.8071" gradientTransform="matrix(-1.5699 -0.8468 -0.9515 1.5701 -1957.4868 70.6609)">
	<stop  offset="0" style="stop-color:#F15DB4"/>
	<stop  offset="1" style="stop-color:#FF8E20"/>
</linearGradient>
<path fill="url(#SVGID_8_)" d="M115.147,68.914l-0.403,0.683c-24.944-2.739-44.06,1.622-52.604,14.02
	c-20.105,29.066,25.265,91.195,101.338,138.754c59.906,37.465,120.973,54.691,154.024,46.146c-35.012,14.719-107.77,0-180.68-39.336
	C48.021,181.286-7.349,115.076,13.122,81.311C25.939,60.119,65.531,56.715,115.147,68.914z"/>
<path fill="#2E3192" d="M131.455,70.054l-0.407,0.666c-24.415-2.667-43.103,1.582-51.463,13.695
	c-19.645,28.428,24.736,89.194,99.129,135.729c58.604,36.617,118.284,53.488,150.64,45.143
	c-34.244,14.377-105.402-0.021-176.718-38.496C65.794,179.947,11.626,115.203,31.646,82.157
	C44.207,61.444,82.908,58.122,131.455,70.054z"/>
</svg>
