<?xml version="1.0" encoding="utf-8"?>
<!-- Generator: Adobe Illustrator 16.0.0, SVG Export Plug-In . SVG Version: 6.00 Build 0)  -->
<!DOCTYPE svg PUBLIC "-//W3C//DTD SVG 1.1//EN" "http://www.w3.org/Graphics/SVG/1.1/DTD/svg11.dtd">
<svg version="1.1" id="Layer_1" xmlns="http://www.w3.org/2000/svg" xmlns:xlink="http://www.w3.org/1999/xlink" x="0px" y="0px"
	 width="128.688px" height="29.5px" viewBox="0 7 128.688 29.5" enable-background="new 0 7 128.688 29.5" xml:space="preserve">
<g>
	<linearGradient id="SVGID_1_" gradientUnits="userSpaceOnUse" x1="4.3342" y1="22.1318" x2="116.8342" y2="22.1318">
		<stop  offset="0" style="stop-color:#FF9933"/>
		<stop  offset="0.5376" style="stop-color:#FFFFFF"/>
		<stop  offset="1" style="stop-color:#22D7AA"/>
	</linearGradient>
	<path fill="url(#SVGID_1_)" d="M18.055,14.282c0,0.499-0.172,0.92-0.521,1.262c-0.344,0.344-0.751,0.518-1.238,0.518H8.41v4.049
		h7.685c0.481,0,0.894,0.177,1.233,0.528c0.344,0.351,0.521,0.778,0.521,1.277s-0.172,0.92-0.521,1.262
		c-0.344,0.341-0.751,0.518-1.233,0.518H8.41v6.08c0,0.555-0.202,1.031-0.604,1.424c-0.402,0.393-0.889,0.587-1.463,0.587
		c-0.555,0-1.031-0.194-1.419-0.587c-0.393-0.393-0.589-0.864-0.589-1.424V14.77c0-0.628,0.226-1.171,0.678-1.618
		c0.447-0.45,0.987-0.675,1.616-0.675h9.664c0.481,0,0.894,0.177,1.238,0.528C17.878,13.358,18.055,13.786,18.055,14.282z"/>
	<linearGradient id="SVGID_2_" gradientUnits="userSpaceOnUse" x1="4.344" y1="22.0405" x2="116.844" y2="22.0405">
		<stop  offset="0" style="stop-color:#FF9933"/>
		<stop  offset="0.5376" style="stop-color:#FFFFFF"/>
		<stop  offset="1" style="stop-color:#22D7AA"/>
	</linearGradient>
	<path fill="url(#SVGID_2_)" d="M36.411,29.605c0,0.533-0.191,1.034-0.584,1.493c-0.393,0.457-0.928,0.688-1.591,0.688
		c-0.437,0-0.84-0.121-1.208-0.356c-0.364-0.236-0.624-0.567-0.771-0.99l-0.747-2.067h-8.206l-0.776,2.067
		c-0.157,0.417-0.417,0.749-0.791,0.99c-0.368,0.241-0.776,0.356-1.213,0.356c-0.648,0-1.174-0.221-1.566-0.673
		c-0.393-0.452-0.589-0.95-0.589-1.508c0-0.307,0.054-0.564,0.147-0.776l5.594-14.371c0.245-0.648,0.663-1.171,1.252-1.564
		c0.58-0.393,1.203-0.587,1.881-0.587c0.727-0.062,1.415,0.103,2.082,0.501c0.663,0.397,1.12,0.945,1.39,1.65l5.563,14.371
		C36.362,29.117,36.411,29.373,36.411,29.605z M30.391,24.783l-2.986-8.233l-2.981,8.233H30.391z"/>
	<linearGradient id="SVGID_3_" gradientUnits="userSpaceOnUse" x1="4.344" y1="22.0469" x2="116.844" y2="22.0469">
		<stop  offset="0" style="stop-color:#FF9933"/>
		<stop  offset="0.5376" style="stop-color:#FFFFFF"/>
		<stop  offset="1" style="stop-color:#22D7AA"/>
	</linearGradient>
	<path fill="url(#SVGID_3_)" d="M56.05,30.249c-0.123,0.297-0.299,0.557-0.53,0.788c-0.226,0.231-0.501,0.413-0.806,0.545
		c-0.309,0.135-0.638,0.199-1.006,0.199c-0.383,0-0.756-0.091-1.115-0.27c-0.364-0.182-0.673-0.432-0.923-0.759l-8.491-11.622
		v10.644c0,0.555-0.201,1.031-0.604,1.424c-0.403,0.393-0.889,0.587-1.463,0.587c-0.555,0-1.031-0.194-1.419-0.587
		c-0.393-0.393-0.589-0.864-0.589-1.424v-14.86c0-0.341,0.069-0.668,0.202-0.975c0.142-0.307,0.329-0.582,0.569-0.835
		c0.236-0.246,0.521-0.442,0.845-0.587c0.329-0.143,0.678-0.211,1.061-0.211c0.437,0,0.854,0.093,1.247,0.285
		c0.393,0.191,0.722,0.469,0.992,0.835l8.147,11.074V14.313c0-0.555,0.201-1.026,0.599-1.419c0.402-0.393,0.894-0.587,1.463-0.587
		c0.555,0,1.026,0.194,1.419,0.587c0.393,0.393,0.589,0.864,0.589,1.419v15.005C56.236,29.645,56.177,29.952,56.05,30.249z"/>
	<linearGradient id="SVGID_4_" gradientUnits="userSpaceOnUse" x1="4.344" y1="22.1318" x2="116.844" y2="22.1318">
		<stop  offset="0" style="stop-color:#FF9933"/>
		<stop  offset="0.5376" style="stop-color:#FFFFFF"/>
		<stop  offset="1" style="stop-color:#22D7AA"/>
	</linearGradient>
	<path fill="url(#SVGID_4_)" d="M74.308,14.282c0,0.499-0.162,0.92-0.511,1.262c-0.349,0.344-0.756,0.518-1.237,0.518h-3.987V29.75
		c0,0.552-0.202,1.031-0.609,1.434c-0.402,0.402-0.894,0.602-1.474,0.602c-0.56,0-1.041-0.199-1.443-0.602
		c-0.402-0.403-0.604-0.882-0.604-1.434V16.062h-3.987c-0.496,0-0.913-0.174-1.262-0.528c-0.339-0.351-0.516-0.788-0.516-1.306
		c0-0.479,0.172-0.891,0.516-1.232c0.349-0.341,0.766-0.518,1.262-0.518h12.11c0.481,0,0.894,0.177,1.237,0.528
		C74.146,13.358,74.308,13.786,74.308,14.282z"/>
	<linearGradient id="SVGID_5_" gradientUnits="userSpaceOnUse" x1="4.344" y1="22.0405" x2="116.844" y2="22.0405">
		<stop  offset="0" style="stop-color:#FF9933"/>
		<stop  offset="0.5376" style="stop-color:#FFFFFF"/>
		<stop  offset="1" style="stop-color:#22D7AA"/>
	</linearGradient>
	<path fill="url(#SVGID_5_)" d="M91.81,29.605c0,0.533-0.196,1.034-0.584,1.493c-0.394,0.457-0.924,0.688-1.597,0.688
		c-0.437,0-0.84-0.121-1.198-0.356c-0.363-0.236-0.623-0.567-0.775-0.99l-0.747-2.067h-8.2l-0.771,2.067
		c-0.152,0.417-0.417,0.749-0.791,0.99c-0.373,0.241-0.78,0.356-1.218,0.356c-0.652,0-1.173-0.221-1.566-0.673
		c-0.388-0.447-0.584-0.95-0.584-1.508c0-0.307,0.044-0.564,0.138-0.776l5.593-14.371c0.251-0.648,0.663-1.171,1.248-1.564
		c0.584-0.393,1.213-0.587,1.88-0.587c0.732-0.062,1.42,0.103,2.078,0.501c0.662,0.393,1.124,0.945,1.395,1.65l5.559,14.371
		C91.766,29.117,91.81,29.373,91.81,29.605z M85.784,24.783l-2.986-8.233l-2.985,8.233H85.784z"/>
	<linearGradient id="SVGID_6_" gradientUnits="userSpaceOnUse" x1="4.344" y1="22.0762" x2="116.844" y2="22.0762">
		<stop  offset="0" style="stop-color:#FF9933"/>
		<stop  offset="0.5376" style="stop-color:#FFFFFF"/>
		<stop  offset="1" style="stop-color:#22D7AA"/>
	</linearGradient>
	<path fill="url(#SVGID_6_)" d="M108.772,25.822c0,0.881-0.157,1.692-0.472,2.436c-0.319,0.744-0.79,1.392-1.424,1.935
		c-0.629,0.543-1.43,0.978-2.396,1.294c-0.963,0.317-2.092,0.472-3.374,0.472c-0.688,0-1.399-0.054-2.15-0.172
		c-0.747-0.115-1.459-0.28-2.137-0.491c-0.688-0.211-1.281-0.474-1.807-0.781c-0.521-0.307-0.924-0.663-1.193-1.071
		c-0.212-0.307-0.314-0.633-0.314-0.979c0-0.555,0.196-1.012,0.589-1.363c0.394-0.354,0.835-0.528,1.331-0.528
		c0.191,0,0.383,0.02,0.574,0.069c0.191,0.046,0.363,0.127,0.516,0.243c0.653,0.437,1.38,0.798,2.186,1.075s1.675,0.417,2.612,0.417
		c0.556,0,1.041-0.057,1.464-0.172c0.422-0.11,0.771-0.27,1.046-0.466c0.28-0.202,0.486-0.427,0.619-0.685
		c0.132-0.255,0.201-0.518,0.201-0.783c0-0.417-0.157-0.759-0.477-1.026c-0.319-0.268-0.736-0.489-1.247-0.668
		c-0.521-0.182-1.105-0.344-1.769-0.484c-0.657-0.14-1.335-0.312-2.018-0.503c-0.692-0.191-1.365-0.417-2.023-0.688
		c-0.658-0.268-1.247-0.614-1.763-1.036c-0.521-0.422-0.938-0.945-1.248-1.564c-0.319-0.624-0.48-1.382-0.48-2.284
		c0-0.805,0.166-1.559,0.51-2.254c0.329-0.697,0.811-1.316,1.435-1.849c0.618-0.538,1.375-0.955,2.278-1.262
		c0.898-0.307,1.915-0.459,3.035-0.459c0.535,0,1.139,0.047,1.797,0.133c0.658,0.083,1.292,0.221,1.905,0.408
		c0.614,0.179,1.174,0.413,1.694,0.678c0.516,0.268,0.909,0.579,1.169,0.925c0.235,0.292,0.344,0.619,0.344,0.985
		c0,0.56-0.216,1.007-0.644,1.338c-0.432,0.331-0.898,0.503-1.399,0.503c-0.358,0-0.707-0.096-1.036-0.287
		c-0.668-0.381-1.36-0.658-2.082-0.83c-0.722-0.174-1.429-0.26-2.146-0.26c-0.879,0-1.557,0.174-2.022,0.528
		c-0.477,0.352-0.707,0.815-0.707,1.383c0,0.383,0.157,0.69,0.471,0.93c0.319,0.236,0.737,0.442,1.253,0.614
		c0.521,0.17,1.114,0.327,1.772,0.472c0.663,0.143,1.336,0.312,2.009,0.503c0.688,0.191,1.36,0.422,2.013,0.705
		c0.663,0.275,1.253,0.629,1.769,1.061c0.525,0.428,0.942,0.956,1.252,1.574C108.61,24.165,108.772,24.923,108.772,25.822z"/>
	<linearGradient id="SVGID_7_" gradientUnits="userSpaceOnUse" x1="4.344" y1="22.0615" x2="116.844" y2="22.0615">
		<stop  offset="0" style="stop-color:#FF9933"/>
		<stop  offset="0.5376" style="stop-color:#FFFFFF"/>
		<stop  offset="1" style="stop-color:#22D7AA"/>
	</linearGradient>
	<path fill="url(#SVGID_7_)" d="M126.465,14.198c0,0.361-0.099,0.697-0.29,1.004l-5.539,8.579v5.994
		c0,0.555-0.201,1.031-0.599,1.424c-0.403,0.393-0.895,0.587-1.464,0.587c-0.555,0-1.026-0.194-1.419-0.587
		c-0.394-0.393-0.59-0.864-0.59-1.424v-5.994l-5.593-8.604c-0.191-0.268-0.285-0.594-0.285-0.975c0-0.459,0.182-0.887,0.545-1.279
		c0.358-0.391,0.825-0.587,1.399-0.587c0.324,0,0.634,0.081,0.938,0.231c0.295,0.157,0.535,0.388,0.731,0.695l4.302,6.939
		l4.219-6.915c0.191-0.307,0.432-0.542,0.731-0.705c0.3-0.165,0.614-0.246,0.958-0.246c0.594,0,1.07,0.191,1.424,0.572
		C126.283,13.292,126.465,13.719,126.465,14.198z"/>
</g>
</svg>
