<?xml version="1.0" encoding="utf-8"?>
<!-- Generator: Adobe Illustrator 16.0.0, SVG Export Plug-In . SVG Version: 6.00 Build 0)  -->
<!DOCTYPE svg PUBLIC "-//W3C//DTD SVG 1.1//EN" "http://www.w3.org/Graphics/SVG/1.1/DTD/svg11.dtd">
<svg version="1.1" id="Layer_1" xmlns="http://www.w3.org/2000/svg" xmlns:xlink="http://www.w3.org/1999/xlink" x="0px" y="0px"
	 width="913.419px" height="276.292px" viewBox="0 0 913.419 276.292" enable-background="new 0 0 913.419 276.292"
	 xml:space="preserve">
<g>
	<linearGradient id="SVGID_1_" gradientUnits="userSpaceOnUse" x1="896.2383" y1="-39.9771" x2="125.9559" y2="65.7863">
		<stop  offset="0" style="stop-color:#FF3FDF"/>
		<stop  offset="1" style="stop-color:#FF8E20"/>
	</linearGradient>
	<path fill="url(#SVGID_1_)" d="M163.867,24.083c4.215-11.454,11.66-17.182,22.35-17.182h71.206l-5.854,23.735l-61.5,0.079
		c-0.567,0-1.154,0.229-1.772,0.693c-0.563,0.464-1,1.08-1.308,1.848l-3.313,13.719h41.768l-5.55,23.814h-42l-9.713,40.074h-25.354
		L163.867,24.083z"/>
	<linearGradient id="SVGID_2_" gradientUnits="userSpaceOnUse" x1="898.7295" y1="-21.9702" x2="128.4258" y2="83.796">
		<stop  offset="0" style="stop-color:#FF3FDF"/>
		<stop  offset="1" style="stop-color:#FF8E20"/>
	</linearGradient>
	<path fill="url(#SVGID_2_)" d="M264.126,24.083c4.061-11.454,11.202-17.182,21.427-17.182h75.605l-25.204,103.961h-24.586
		l7.018-28.67l12.482-51.477h-41.771c-0.563,0-1.13,0.229-1.694,0.693c-0.618,0.464-1.028,1.08-1.233,1.848l-6.093,25.125h36.918
		l-5.857,23.889H274.3l-6.933,28.592h-24.433L264.126,24.083z"/>
	<linearGradient id="SVGID_3_" gradientUnits="userSpaceOnUse" x1="900.7832" y1="-6.9185" x2="130.492" y2="98.8461">
		<stop  offset="0" style="stop-color:#FF3FDF"/>
		<stop  offset="1" style="stop-color:#FF8E20"/>
	</linearGradient>
	<path fill="url(#SVGID_3_)" d="M368.556,24.083c4.365-11.454,11.635-17.182,21.809-17.182h6.625l45.626,53.946l12.333-53.946
		h24.658l-25.122,103.961h-24.354l4.624-19.422l-45.084-53.639l-17.496,73.061h-24.661L368.556,24.083z"/>
	<linearGradient id="SVGID_4_" gradientUnits="userSpaceOnUse" x1="902.3945" y1="4.8955" x2="132.1345" y2="110.6558">
		<stop  offset="0" style="stop-color:#FF3FDF"/>
		<stop  offset="1" style="stop-color:#FF8E20"/>
	</linearGradient>
	<path fill="url(#SVGID_4_)" d="M521.377,30.558h-34.37l5.778-23.657h92.019l-5.861,23.657h-33.291l-20.033,80.304h-24.582
		L521.377,30.558z"/>
	<linearGradient id="SVGID_5_" gradientUnits="userSpaceOnUse" x1="904.8125" y1="22.3257" x2="134.4887" y2="128.0947">
		<stop  offset="0" style="stop-color:#FF3FDF"/>
		<stop  offset="1" style="stop-color:#FF8E20"/>
	</linearGradient>
	<path fill="url(#SVGID_5_)" d="M592.822,24.083c4.059-11.454,11.203-17.182,21.42-17.182h75.613L664.65,110.862h-24.588
		l7.021-28.67l12.479-51.477h-41.768c-0.566,0-1.135,0.229-1.693,0.693c-0.623,0.464-1.039,1.08-1.236,1.848l-6.094,25.125h36.918
		l-5.859,23.889h-36.836l-6.934,28.592h-24.432L592.822,24.083z"/>
	<linearGradient id="SVGID_6_" gradientUnits="userSpaceOnUse" x1="906.5889" y1="35.3618" x2="136.2892" y2="141.1275">
		<stop  offset="0" style="stop-color:#FF3FDF"/>
		<stop  offset="1" style="stop-color:#FF8E20"/>
	</linearGradient>
	<path fill="url(#SVGID_6_)" d="M722.682,30.715c-0.725,0-1.338,0.205-1.857,0.614c-0.506,0.465-0.875,0.977-1.072,1.544
		c-0.465,1.848-0.84,3.391-1.113,4.621c-0.287,1.233-0.561,2.377-0.82,3.432c-0.252,1.052-0.438,1.783-0.533,2.192
		c-0.156,0.98,0.055,1.827,0.615,2.545c0.561,0.724,1.313,1.082,2.234,1.082c0.361,0,2.246,0,5.662,0c3.414,0,7.465,0,12.145,0
		c4.672,0,8.934,0,12.785,0c3.854,0,6.217,0,7.098,0c6.932,0,12.479,2.722,16.645,8.169c4.16,5.393,5.445,11.608,3.854,18.647
		c0,0.051-0.027,0.13-0.082,0.232c0,0.106-0.219,1.039-0.656,2.814c-0.438,1.772-0.943,3.866-1.537,6.277
		c-0.594,2.418-1.141,4.655-1.66,6.707c-0.504,2.057-0.818,3.392-0.922,4.01c-1.387,5.085-4.084,9.248-8.094,12.482
		c-4.002,3.189-8.682,4.778-14.021,4.778c-0.055,0-0.131,0-0.232,0c-0.719,0-4.529,0-11.441,0s-15.041,0-24.398,0
		c-9.35,0-17.84,0-25.463,0c-7.637,0-12.172,0-13.605,0c1.023-4.419,1.898-8.101,2.621-11.058c0.719-2.954,1.373-5.676,1.961-8.169
		c0.594-2.493,0.963-4.123,1.121-4.895c0.613,0,3.967,0,10.053,0s13.258,0,21.51,0c8.236,0,15.73,0,22.459,0
		c6.734,0,10.736,0,12.02,0c1.436,0,2.445-0.744,3.006-2.233c0.465-1.851,0.834-3.391,1.121-4.627
		c0.287-1.229,0.553-2.374,0.805-3.429c0.26-1.052,0.438-1.786,0.547-2.192c0.355-0.929,0.254-1.775-0.314-2.548
		c-0.559-0.765-1.311-1.15-2.232-1.15h0.074c-0.055,0-0.123,0-0.232,0c-0.355,0-2.268,0-5.736,0c-3.471,0-7.541,0-12.213,0
		s-8.941,0-12.801,0c-3.852,0-6.188,0-7.008,0c-6.986,0-12.561-2.647-16.721-7.94c-4.215-5.293-5.506-11.533-3.852-18.729
		c0-0.052,0-0.13,0-0.229l0.15-0.693c0.307-1.182,0.805-3.163,1.502-5.936s1.359-5.485,2.002-8.131
		c0.648-2.644,1.072-4.379,1.277-5.202c4.363-11.198,11.68-16.799,21.959-16.799c0.047,0,0.129,0,0.232,0c0.717,0,4.541,0,11.482,0
		c6.939,0,15.066,0,24.396,0c9.316,0,17.807,0,25.465,0c7.656,0,12.199,0,13.646,0c-1.031,4.368-1.906,8.002-2.623,10.905
		c-0.725,2.903-1.379,5.587-1.967,8.053s-0.963,4.084-1.121,4.856c-0.613,0-3.975,0-10.094,0c-6.113,0-13.293,0-21.543,0
		c-8.238,0-15.73,0-22.459,0C727.969,30.715,723.967,30.715,722.682,30.715z"/>
	<linearGradient id="SVGID_7_" gradientUnits="userSpaceOnUse" x1="908.1963" y1="47.1392" x2="137.9733" y2="152.8943">
		<stop  offset="0" style="stop-color:#FF3FDF"/>
		<stop  offset="1" style="stop-color:#FF8E20"/>
	</linearGradient>
	<path fill="url(#SVGID_7_)" d="M905.244,6.901l-50.162,58.185l-10.711,45.777H818.17l11.324-47.778L800.979,6.901h28.898
		l16.031,31.826l28.127-31.826H905.244z"/>
</g>
<g>
	<path fill="#FFFFFF" d="M201.854,162.586c-1.762-2.833-4.909-4.092-8.12-4.092c-4.658,0-9.504,2.203-9.504,7.49
		c0,4.092,2.266,5.917,9.379,8.183c6.923,2.203,13.344,4.469,13.344,13.218c0,8.875-7.616,13.029-15.673,13.029
		c-5.161,0-10.7-1.699-13.722-6.168l4.532-3.714c1.888,3.273,5.665,4.973,9.504,4.973c4.532,0,9.693-2.644,9.693-7.742
		c0-5.476-3.713-6.42-11.645-9.063c-6.294-2.077-11.078-4.847-11.078-12.274c0-8.56,7.364-12.84,15.169-12.84
		c4.973,0,9.19,1.385,12.463,5.225L201.854,162.586z"/>
	<path fill="#FFFFFF" d="M240.873,154.718h13.218c8.183,0,15.61,2.896,15.61,12.211c0,9.756-8.309,12.337-14.603,12.337h-8.938
		v20.016h-5.287V154.718z M246.16,174.357h8.938c5.287,0,8.938-2.393,8.938-7.364c0-4.973-3.65-7.364-8.938-7.364h-8.938V174.357z"
		/>
	<path fill="#FFFFFF" d="M300.787,177c0-13.47,9.756-23.415,23.289-23.415s23.289,9.945,23.289,23.415s-9.756,23.414-23.289,23.414
		S300.787,190.47,300.787,177z M341.699,177c0-10.26-7.176-18.506-17.624-18.506c-10.449,0-17.624,8.246-17.624,18.506
		c0,10.259,7.175,18.505,17.624,18.505C334.523,195.505,341.699,187.259,341.699,177z"/>
	<path fill="#FFFFFF" d="M423.701,154.718h11.393c8.623,0,17.75,1.259,17.75,12.274c0,6.482-4.217,10.7-11.141,11.77l12.651,20.52
		h-6.483l-12.085-20.016h-6.798v20.016h-5.287V154.718z M428.988,174.357h4.721c5.854,0,13.47,0,13.47-7.364
		c0-6.421-5.602-7.364-10.763-7.364h-7.427V174.357z"/>
	<path fill="#FFFFFF" d="M516.094,159.628h-14.729v39.653h-5.287v-39.653h-14.729v-4.91h34.745V159.628z"/>
	<path fill="#FFFFFF" d="M568.643,162.586c-1.762-2.833-4.908-4.092-8.119-4.092c-4.658,0-9.504,2.203-9.504,7.49
		c0,4.092,2.266,5.917,9.379,8.183c6.924,2.203,13.344,4.469,13.344,13.218c0,8.875-7.617,13.029-15.674,13.029
		c-5.16,0-10.699-1.699-13.721-6.168l4.531-3.714c1.889,3.273,5.666,4.973,9.504,4.973c4.533,0,9.693-2.644,9.693-7.742
		c0-5.476-3.713-6.42-11.645-9.063c-6.293-2.077-11.078-4.847-11.078-12.274c0-8.56,7.365-12.84,15.17-12.84
		c4.973,0,9.189,1.385,12.463,5.225L568.643,162.586z"/>
	<path fill="#FFFFFF" d="M680.23,159.628h-14.729v39.653h-5.287v-39.653h-14.729v-4.91h34.744V159.628z"/>
	<path fill="#FFFFFF" d="M711.631,154.718h28.01v4.91h-22.723v13.973h21.213v4.909h-21.213v15.862h23.855v4.909h-29.143V154.718z"/>
	<path fill="#FFFFFF" d="M805.346,163.908c-2.643-3.587-6.861-5.413-11.141-5.413c-9.945,0-16.994,8.749-16.994,18.506
		c0,10.322,6.986,18.505,16.994,18.505c5.412,0,9.756-2.203,12.902-6.231l3.967,3.336c-3.967,5.35-9.756,7.805-16.869,7.805
		c-12.777,0-22.66-9.882-22.66-23.414c0-13.093,9.441-23.415,22.66-23.415c6.043,0,11.959,2.077,15.736,6.986L805.346,163.908z"/>
	<path fill="#FFFFFF" d="M843.607,154.718h5.287v18.883h23.791v-18.883h5.287v44.563h-5.287V178.51h-23.791v20.771h-5.287V154.718z"
		/>
</g>
<g>
	<path fill-rule="evenodd" clip-rule="evenodd" fill="#FFFFFF" d="M344.451,236.257c-31.689-0.205-57.737-25.683-57.952-57.874
		c-0.212-32.225,25.6-58.525,58.058-58.631c32.178-0.102,58.345,25.655,58.43,58.161
		C403.073,210.118,377.008,236.298,344.451,236.257z M290.136,184.387c0.051,0.492,0.089,0.93,0.147,1.366
		c0.239,1.667,0.243,1.674,1.926,1.708c12.469,0.26,24.838-0.73,37.096-3.012c17.752-3.307,34.657-9.105,50.606-17.568
		c5.164-2.738,10.116-5.874,15.146-8.859c0.273-0.163,0.611-0.648,0.543-0.874c-0.249-0.819-0.655-1.604-1.038-2.486
		c-0.505,0.328-0.892,0.588-1.291,0.82c-0.963,0.587-1.971,0.409-2.486-0.417c-0.522-0.84-0.256-1.811,0.677-2.438
		c0.505-0.342,1.024-0.677,1.523-1.011c-13.042-23.893-42.444-35.542-69.321-24.398c-26.164,10.847-35.429,36.844-33.68,53.633
		c1.946,0.225,2.537,0.607,2.578,1.68C292.605,183.616,291.998,184.101,290.136,184.387z M399.156,169.792
		c-32.134,20.471-67.023,30.347-105.027,29.801c0.861,1.434,0.772,3.408,3.21,3.251c1.216-0.075,1.79,1.585,1.025,2.575
		c-0.222,0.287-0.54,0.498-0.807,0.744c12.589,21.584,40.539,33.469,67.225,23.032c26.068-10.19,35.846-35.49,34.794-51.938
		c-0.12,0.055-0.229,0.103-0.338,0.15c-1.008,0.465-1.913,0.232-2.377-0.587c-0.465-0.833-0.195-1.735,0.713-2.35
		c0.499-0.335,1.021-0.629,1.502-0.983c0.178-0.123,0.4-0.383,0.39-0.561C399.405,171.929,399.275,170.939,399.156,169.792z
		 M397.059,160.83c-32.335,20.717-67.518,30.661-105.71,30.033c0.017,0.232,0.01,0.369,0.041,0.478
		c0.373,1.305,0.775,2.596,1.113,3.907c0.174,0.684,0.512,0.929,1.24,0.942c10.536,0.232,21.017-0.361,31.437-1.912
		c19.07-2.842,37.229-8.579,54.462-17.227c6.219-3.128,12.243-6.584,18.06-10.416c0.283-0.191,0.666-0.635,0.615-0.881
		C397.963,164.143,397.506,162.544,397.059,160.83z"/>
	<path fill-rule="evenodd" clip-rule="evenodd" fill="#C1272D" d="M290.136,184.387c1.861-0.286,2.469-0.771,2.425-1.857
		c-0.041-1.072-0.632-1.455-2.578-1.68c-1.749-16.789,7.517-42.786,33.68-53.633c26.877-11.144,56.279,0.506,69.321,24.398
		c-0.499,0.334-1.018,0.669-1.523,1.011c-0.933,0.628-1.199,1.599-0.677,2.438c0.516,0.826,1.523,1.004,2.486,0.417
		c0.399-0.232,0.786-0.492,1.291-0.82c0.383,0.882,0.789,1.667,1.038,2.486c0.068,0.226-0.27,0.711-0.543,0.874
		c-5.03,2.985-9.982,6.121-15.146,8.859c-15.949,8.463-32.854,14.262-50.606,17.568c-12.257,2.281-24.627,3.271-37.096,3.012
		c-1.684-0.034-1.688-0.041-1.926-1.708C290.225,185.317,290.188,184.879,290.136,184.387z M386.205,158.979
		c-0.174-1.407-1.458-2.186-2.657-1.585c-1.318,0.669-2.599,1.407-3.883,2.131c-0.932,0.533-1.233,1.462-0.789,2.315
		c0.437,0.841,1.403,1.147,2.346,0.656c1.339-0.69,2.678-1.394,3.952-2.193C385.618,160.017,385.867,159.429,386.205,158.979z
		 M340.992,176.991c0.021-1.018-0.912-1.893-1.94-1.674c-1.567,0.314-3.125,0.703-4.672,1.12c-0.888,0.239-1.363,1.134-1.154,1.995
		c0.211,0.86,1.042,1.447,1.933,1.256c1.537-0.334,3.06-0.71,4.58-1.106C340.527,178.377,340.913,177.79,340.992,176.991z
		 M300.938,184.264c0-0.061,0-0.115,0-0.177c0.724,0,1.448,0.027,2.168,0c1.124-0.055,1.848-0.766,1.813-1.742
		c-0.034-1.004-0.769-1.64-1.919-1.604c-1.414,0.033-2.828,0.096-4.242,0.163c-1.1,0.055-1.752,0.684-1.748,1.681
		c0,0.997,0.728,1.666,1.857,1.674C299.559,184.264,300.249,184.264,300.938,184.264z M373.747,162.613
		c-0.065,0.068-0.126,0.13-0.191,0.198c-0.126,0.02-0.263,0.006-0.372,0.055c-1.567,0.717-3.155,1.406-4.689,2.192
		c-0.741,0.382-0.925,1.312-0.584,2.076c0.338,0.737,1.161,1.209,1.96,0.888c1.595-0.655,3.162-1.394,4.688-2.192
		c0.714-0.376,0.936-1.195,0.561-1.892C374.83,163.405,374.218,163.049,373.747,162.613z M323.212,182.024
		c1.414-0.259,3.091-0.505,4.74-0.888c0.86-0.191,1.284-1.093,1.089-1.926c-0.202-0.86-0.902-1.421-1.81-1.291
		c-1.585,0.226-3.166,0.491-4.733,0.813c-0.878,0.178-1.359,0.97-1.247,1.845C321.358,181.423,322.058,182.018,323.212,182.024z
		 M358.211,172.926c1.803-0.778,3.654-1.476,5.393-2.377c0.676-0.342,0.68-1.243,0.293-1.953c-0.393-0.711-1.079-1.066-1.83-0.807
		c-1.602,0.54-3.183,1.162-4.73,1.845c-0.799,0.354-0.963,1.134-0.744,1.939C356.8,172.325,357.377,172.667,358.211,172.926z
		 M346.989,176.628c1.451-0.499,3.262-1.018,4.986-1.741c0.771-0.321,0.867-1.223,0.55-1.988c-0.325-0.778-1.021-1.188-1.838-0.97
		c-1.602,0.437-3.193,0.929-4.757,1.503c-0.799,0.287-1.09,1.011-0.919,1.851C345.186,176.136,345.766,176.546,346.989,176.628z
		 M311.191,183.527c1.321-0.137,2.824-0.267,4.316-0.472c1.063-0.143,1.664-0.949,1.53-1.898c-0.133-0.949-0.888-1.51-1.991-1.414
		c-1.438,0.13-2.875,0.273-4.31,0.438c-1.049,0.123-1.67,0.888-1.571,1.865C309.258,182.96,309.989,183.547,311.191,183.527z"/>
	<path fill-rule="evenodd" clip-rule="evenodd" fill="#C1272D" d="M399.156,169.792c0.119,1.147,0.249,2.138,0.311,3.135
		c0.01,0.178-0.212,0.438-0.39,0.561c-0.481,0.354-1.004,0.648-1.502,0.983c-0.909,0.614-1.178,1.517-0.713,2.35
		c0.464,0.819,1.369,1.052,2.377,0.587c0.109-0.048,0.218-0.096,0.338-0.15c1.052,16.448-8.726,41.748-34.794,51.938
		c-26.686,10.437-54.636-1.448-67.225-23.032c0.267-0.246,0.584-0.457,0.807-0.744c0.765-0.99,0.191-2.65-1.025-2.575
		c-2.438,0.157-2.35-1.817-3.21-3.251C332.133,200.138,367.022,190.262,399.156,169.792z M306.625,206.053
		c1.186-0.068,2.07-0.082,2.94-0.184c0.912-0.104,1.476-0.779,1.469-1.66c-0.007-0.875-0.601-1.626-1.499-1.633
		c-1.66-0.007-3.327,0.048-4.983,0.185c-0.943,0.068-1.506,0.888-1.424,1.79c0.079,0.86,0.714,1.461,1.64,1.495
		C305.488,206.081,306.211,206.053,306.625,206.053z M381.373,186.704c-0.007-1.674-1.229-2.404-2.5-1.845
		c-1.318,0.581-2.623,1.195-3.924,1.823c-0.946,0.458-1.308,1.4-0.922,2.275c0.372,0.84,1.355,1.209,2.318,0.785
		c1.353-0.594,2.712-1.182,3.996-1.898C380.847,187.571,381.165,186.942,381.373,186.704z M358.805,195.767
		c-0.027-1.489-0.987-2.281-2.09-1.981c-1.544,0.41-3.07,0.902-4.58,1.428c-0.864,0.301-1.25,1.243-0.966,2.091
		c0.263,0.792,1.11,1.317,1.95,1.086c1.541-0.438,3.091-0.868,4.57-1.462C358.225,196.709,358.573,196.027,358.805,195.767z
		 M329.196,203.854c1.257-0.212,2.677-0.451,4.098-0.696c0.28-0.048,0.563-0.096,0.827-0.191c0.778-0.287,1.216-1.065,1.065-1.886
		c-0.154-0.833-0.885-1.447-1.783-1.324c-1.615,0.219-3.224,0.491-4.822,0.819c-0.827,0.164-1.312,0.97-1.219,1.776
		C327.46,203.212,328.154,203.833,329.196,203.854z M392.171,181.02c-0.037-1.652-1.339-2.397-2.527-1.782
		c-1.312,0.676-2.599,1.394-3.879,2.124c-0.912,0.512-1.202,1.482-0.751,2.329c0.444,0.826,1.417,1.106,2.37,0.614
		c1.308-0.683,2.623-1.358,3.866-2.145C391.717,181.86,391.994,181.252,392.171,181.02z M317.823,205.282
		c0,0.007,0.003,0.021,0.003,0.021c1.28-0.137,2.564-0.26,3.839-0.424c1-0.136,1.561-0.86,1.482-1.837
		c-0.075-0.93-0.816-1.578-1.817-1.496c-1.533,0.13-3.063,0.294-4.59,0.499c-0.994,0.136-1.585,0.949-1.452,1.857
		c0.137,0.936,0.877,1.51,1.882,1.455C317.386,205.343,317.604,205.302,317.823,205.282z M370.226,191.655
		c0.021-1.639-1.11-2.404-2.374-1.939c-1.356,0.484-2.698,1.018-4.033,1.558c-0.997,0.402-1.421,1.29-1.093,2.186
		c0.331,0.901,1.229,1.325,2.24,0.97c1.417-0.512,2.841-1.024,4.197-1.666C369.676,192.516,370.007,191.887,370.226,191.655z
		 M341.347,201.525c1.393-0.349,3.107-0.73,4.784-1.236c0.789-0.232,1.134-1.147,0.919-1.939c-0.215-0.819-0.977-1.373-1.878-1.188
		c-1.598,0.314-3.183,0.71-4.754,1.147c-0.827,0.226-1.206,1.011-1.066,1.857C339.486,200.985,340.141,201.518,341.347,201.525z"/>
	<path fill-rule="evenodd" clip-rule="evenodd" fill="#C1272D" d="M397.059,160.83c0.448,1.715,0.905,3.313,1.257,4.925
		c0.051,0.246-0.332,0.689-0.615,0.881c-5.816,3.832-11.84,7.288-18.06,10.416c-17.233,8.647-35.392,14.385-54.462,17.227
		c-10.419,1.551-20.9,2.145-31.437,1.912c-0.728-0.014-1.065-0.259-1.24-0.942c-0.338-1.312-0.741-2.603-1.113-3.907
		c-0.031-0.108-0.024-0.245-0.041-0.478C329.541,191.491,364.724,181.546,397.059,160.83z"/>
	<path fill-rule="evenodd" clip-rule="evenodd" fill="#FFFFFF" d="M386.205,158.979c-0.338,0.45-0.587,1.038-1.031,1.324
		c-1.274,0.8-2.613,1.503-3.952,2.193c-0.942,0.491-1.909,0.185-2.346-0.656c-0.444-0.854-0.144-1.782,0.789-2.315
		c1.284-0.724,2.565-1.462,3.883-2.131C384.747,156.793,386.031,157.572,386.205,158.979z"/>
	<path fill-rule="evenodd" clip-rule="evenodd" fill="#FFFFFF" d="M340.992,176.991c-0.079,0.799-0.465,1.387-1.253,1.591
		c-1.52,0.396-3.043,0.772-4.58,1.106c-0.892,0.191-1.722-0.396-1.933-1.256c-0.208-0.861,0.266-1.756,1.154-1.995
		c1.547-0.417,3.104-0.806,4.672-1.12C340.08,175.098,341.012,175.973,340.992,176.991z"/>
	<path fill-rule="evenodd" clip-rule="evenodd" fill="#FFFFFF" d="M300.938,184.264c-0.69,0-1.379,0-2.07-0.006
		c-1.13-0.008-1.857-0.677-1.857-1.674c-0.004-0.997,0.648-1.626,1.748-1.681c1.414-0.067,2.828-0.13,4.242-0.163
		c1.15-0.035,1.885,0.601,1.919,1.604c0.034,0.977-0.689,1.688-1.813,1.742c-0.721,0.027-1.444,0-2.168,0
		C300.938,184.149,300.938,184.204,300.938,184.264z"/>
	<path fill-rule="evenodd" clip-rule="evenodd" fill="#FFFFFF" d="M373.747,162.613c0.472,0.437,1.083,0.792,1.373,1.325
		c0.375,0.696,0.153,1.516-0.561,1.892c-1.526,0.799-3.094,1.537-4.688,2.192c-0.799,0.321-1.622-0.15-1.96-0.888
		c-0.341-0.765-0.157-1.694,0.584-2.076c1.534-0.786,3.122-1.476,4.689-2.192c0.109-0.049,0.246-0.035,0.372-0.055
		C373.621,162.743,373.682,162.681,373.747,162.613z"/>
	<path fill-rule="evenodd" clip-rule="evenodd" fill="#FFFFFF" d="M323.212,182.024c-1.154-0.006-1.854-0.601-1.96-1.447
		c-0.113-0.875,0.369-1.667,1.247-1.845c1.567-0.321,3.148-0.587,4.733-0.813c0.908-0.13,1.608,0.431,1.81,1.291
		c0.195,0.833-0.229,1.734-1.089,1.926C326.303,181.519,324.626,181.765,323.212,182.024z"/>
	<path fill-rule="evenodd" clip-rule="evenodd" fill="#FFFFFF" d="M358.211,172.926c-0.833-0.26-1.411-0.602-1.619-1.353
		c-0.219-0.806-0.055-1.585,0.744-1.939c1.547-0.683,3.129-1.305,4.73-1.845c0.751-0.26,1.438,0.096,1.83,0.807
		c0.386,0.71,0.383,1.611-0.293,1.953C361.865,171.451,360.014,172.148,358.211,172.926z"/>
	<path fill-rule="evenodd" clip-rule="evenodd" fill="#FFFFFF" d="M346.989,176.628c-1.223-0.082-1.803-0.492-1.978-1.346
		c-0.171-0.84,0.12-1.563,0.919-1.851c1.564-0.574,3.155-1.066,4.757-1.503c0.816-0.219,1.513,0.191,1.838,0.97
		c0.317,0.766,0.222,1.667-0.55,1.988C350.25,175.611,348.44,176.129,346.989,176.628z"/>
	<path fill-rule="evenodd" clip-rule="evenodd" fill="#FFFFFF" d="M311.191,183.527c-1.202,0.021-1.933-0.566-2.025-1.481
		c-0.099-0.978,0.522-1.742,1.571-1.865c1.435-0.164,2.872-0.308,4.31-0.438c1.104-0.096,1.858,0.465,1.991,1.414
		c0.133,0.949-0.468,1.756-1.53,1.898C314.015,183.26,312.512,183.39,311.191,183.527z"/>
	<path fill-rule="evenodd" clip-rule="evenodd" fill="#FFFFFF" d="M306.625,206.053c-0.413,0-1.137,0.027-1.857-0.007
		c-0.926-0.034-1.561-0.635-1.64-1.495c-0.082-0.902,0.481-1.722,1.424-1.79c1.656-0.137,3.323-0.191,4.983-0.185
		c0.898,0.007,1.492,0.758,1.499,1.633c0.007,0.881-0.557,1.557-1.469,1.66C308.694,205.971,307.81,205.985,306.625,206.053z"/>
	<path fill-rule="evenodd" clip-rule="evenodd" fill="#FFFFFF" d="M381.373,186.704c-0.208,0.238-0.526,0.867-1.031,1.141
		c-1.284,0.717-2.644,1.305-3.996,1.898c-0.963,0.424-1.946,0.055-2.318-0.785c-0.386-0.875-0.024-1.817,0.922-2.275
		c1.301-0.628,2.605-1.242,3.924-1.823C380.143,184.299,381.366,185.03,381.373,186.704z"/>
	<path fill-rule="evenodd" clip-rule="evenodd" fill="#FFFFFF" d="M358.805,195.767c-0.232,0.26-0.581,0.942-1.117,1.161
		c-1.479,0.594-3.029,1.024-4.57,1.462c-0.84,0.231-1.687-0.294-1.95-1.086c-0.284-0.848,0.102-1.79,0.966-2.091
		c1.51-0.525,3.036-1.018,4.58-1.428C357.818,193.486,358.778,194.278,358.805,195.767z"/>
	<path fill-rule="evenodd" clip-rule="evenodd" fill="#FFFFFF" d="M329.196,203.854c-1.042-0.021-1.735-0.642-1.834-1.502
		c-0.092-0.807,0.393-1.612,1.219-1.776c1.598-0.328,3.207-0.601,4.822-0.819c0.898-0.123,1.629,0.491,1.783,1.324
		c0.15,0.82-0.287,1.599-1.065,1.886c-0.263,0.096-0.547,0.144-0.827,0.191C331.873,203.403,330.453,203.642,329.196,203.854z"/>
	<path fill-rule="evenodd" clip-rule="evenodd" fill="#FFFFFF" d="M392.171,181.02c-0.178,0.232-0.454,0.84-0.922,1.141
		c-1.243,0.786-2.558,1.462-3.866,2.145c-0.953,0.492-1.926,0.212-2.37-0.614c-0.451-0.847-0.16-1.817,0.751-2.329
		c1.281-0.73,2.568-1.448,3.879-2.124C390.833,178.623,392.134,179.368,392.171,181.02z"/>
	<path fill-rule="evenodd" clip-rule="evenodd" fill="#FFFFFF" d="M317.823,205.282c-0.219,0.021-0.437,0.062-0.652,0.075
		c-1.004,0.055-1.745-0.52-1.882-1.455c-0.133-0.908,0.458-1.722,1.452-1.857c1.526-0.205,3.057-0.369,4.59-0.499
		c1-0.082,1.742,0.566,1.817,1.496c0.079,0.977-0.482,1.701-1.482,1.837c-1.274,0.164-2.559,0.287-3.839,0.424
		C317.827,205.302,317.823,205.289,317.823,205.282z"/>
	<path fill-rule="evenodd" clip-rule="evenodd" fill="#FFFFFF" d="M370.226,191.655c-0.218,0.232-0.55,0.861-1.062,1.107
		c-1.356,0.642-2.78,1.154-4.197,1.666c-1.011,0.355-1.909-0.068-2.24-0.97c-0.328-0.896,0.096-1.783,1.093-2.186
		c1.335-0.54,2.677-1.073,4.033-1.558C369.116,189.25,370.246,190.016,370.226,191.655z"/>
	<path fill-rule="evenodd" clip-rule="evenodd" fill="#FFFFFF" d="M341.347,201.525c-1.206-0.007-1.861-0.54-1.995-1.359
		c-0.14-0.847,0.239-1.632,1.066-1.857c1.571-0.438,3.156-0.833,4.754-1.147c0.902-0.185,1.663,0.369,1.878,1.188
		c0.215,0.792-0.13,1.707-0.919,1.939C344.455,200.794,342.74,201.176,341.347,201.525z"/>
</g>
<linearGradient id="SVGID_8_" gradientUnits="userSpaceOnUse" x1="-1147.2715" y1="-505.2778" x2="-946.6875" y2="-505.2778" gradientTransform="matrix(-1.5699 -0.8468 -0.9515 1.5701 -1957.4868 70.6609)">
	<stop  offset="0" style="stop-color:#F15DB4"/>
	<stop  offset="1" style="stop-color:#FF8E20"/>
</linearGradient>
<path fill="url(#SVGID_8_)" d="M114.647,61.414l-0.403,0.683c-24.944-2.739-44.06,1.622-52.604,14.02
	c-20.105,29.066,25.265,91.195,101.338,138.755c59.906,37.465,120.973,54.69,154.024,46.146c-35.012,14.72-107.77,0-180.68-39.336
	C47.522,173.787-7.848,107.577,12.623,73.811C25.44,52.62,65.032,49.215,114.647,61.414z"/>
<path fill="#2E3192" d="M130.955,62.555l-0.407,0.666c-24.415-2.667-43.103,1.582-51.463,13.695
	c-19.645,28.428,24.736,89.194,99.129,135.729c58.604,36.617,118.284,53.488,150.64,45.142
	c-34.244,14.378-105.402-0.021-176.718-38.496C65.295,172.448,11.126,107.704,31.146,74.658
	C43.708,53.945,82.408,50.622,130.955,62.555z"/>
</svg>
