<?xml version="1.0" encoding="utf-8"?>
<!-- Generator: Adobe Illustrator 16.0.0, SVG Export Plug-In . SVG Version: 6.00 Build 0)  -->
<!DOCTYPE svg PUBLIC "-//W3C//DTD SVG 1.1//EN" "http://www.w3.org/Graphics/SVG/1.1/DTD/svg11.dtd">
<svg version="1.1" id="Capa_1" xmlns="http://www.w3.org/2000/svg" xmlns:xlink="http://www.w3.org/1999/xlink" x="0px" y="0px"
	 width="150px" height="150px" viewBox="0 0 150 150" enable-background="new 0 0 150 150" xml:space="preserve">
<g transform="translate(0 -540.36)">
	<g>
		<g>
			<linearGradient id="SVGID_1_" gradientUnits="userSpaceOnUse" x1="50.6885" y1="715.0397" x2="162.1885" y2="594.0397">
				<stop  offset="0" style="stop-color:#F15DB4"/>
				<stop  offset="1" style="stop-color:#FF8E20"/>
			</linearGradient>
			<path fill="url(#SVGID_1_)" d="M129.379,620.779c-1.237-0.248-2.478,0.557-2.725,1.828c-1.642,8.113-4.738,15.73-10.127,24.681
				c-0.65,1.115-0.31,2.539,0.806,3.189c0.402,0.248,0.805,0.341,1.208,0.341c0.805,0,1.548-0.403,1.982-1.146
				c5.666-9.414,8.949-17.497,10.684-26.167C131.454,622.265,130.648,621.027,129.379,620.779z"/>
			<linearGradient id="SVGID_2_" gradientUnits="userSpaceOnUse" x1="21.3379" y1="687.9938" x2="132.8379" y2="566.9938">
				<stop  offset="0" style="stop-color:#F15DB4"/>
				<stop  offset="1" style="stop-color:#FF8E20"/>
			</linearGradient>
			<polygon fill="url(#SVGID_2_)" points="92.087,614.313 88.802,611.028 96.51,603.32 99.794,606.605 			"/>
			<linearGradient id="SVGID_3_" gradientUnits="userSpaceOnUse" x1="5.9658" y1="673.8278" x2="117.4658" y2="552.8278">
				<stop  offset="0" style="stop-color:#F15DB4"/>
				<stop  offset="1" style="stop-color:#FF8E20"/>
			</linearGradient>
			<polygon fill="url(#SVGID_3_)" points="32.743,647.865 29.458,644.58 37.167,636.872 40.451,640.157 			"/>
			<linearGradient id="SVGID_4_" gradientUnits="userSpaceOnUse" x1="6.3965" y1="674.2252" x2="117.8965" y2="553.2252">
				<stop  offset="0" style="stop-color:#F15DB4"/>
				<stop  offset="1" style="stop-color:#FF8E20"/>
			</linearGradient>
			<polygon fill="url(#SVGID_4_)" points="48.675,625.249 51.959,628.534 44.251,636.242 40.967,632.957 			"/>
			<linearGradient id="SVGID_5_" gradientUnits="userSpaceOnUse" x1="7.4346" y1="675.1823" x2="118.9346" y2="554.1823">
				<stop  offset="0" style="stop-color:#F15DB4"/>
				<stop  offset="1" style="stop-color:#FF8E20"/>
			</linearGradient>
			<polygon fill="url(#SVGID_5_)" points="71.854,602.18 75.138,605.465 67.431,613.173 64.146,609.888 			"/>
			<linearGradient id="SVGID_6_" gradientUnits="userSpaceOnUse" x1="6.9326" y1="674.7194" x2="118.4326" y2="553.7194">
				<stop  offset="0" style="stop-color:#F15DB4"/>
				<stop  offset="1" style="stop-color:#FF8E20"/>
			</linearGradient>
			<polygon fill="url(#SVGID_6_)" points="60.287,613.724 63.571,617.008 55.864,624.716 52.579,621.432 			"/>
			<linearGradient id="SVGID_7_" gradientUnits="userSpaceOnUse" x1="7.8721" y1="675.5846" x2="119.3721" y2="554.5846">
				<stop  offset="0" style="stop-color:#F15DB4"/>
				<stop  offset="1" style="stop-color:#FF8E20"/>
			</linearGradient>
			<polygon fill="url(#SVGID_7_)" points="83.358,590.57 86.643,593.855 78.936,601.563 75.65,598.278 			"/>
			<linearGradient id="SVGID_8_" gradientUnits="userSpaceOnUse" x1="8.4014" y1="676.0729" x2="119.9014" y2="555.0729">
				<stop  offset="0" style="stop-color:#F15DB4"/>
				<stop  offset="1" style="stop-color:#FF8E20"/>
			</linearGradient>
			<polygon fill="url(#SVGID_8_)" points="94.968,579.034 98.252,582.318 90.545,590.026 87.261,586.742 			"/>
			<linearGradient id="SVGID_9_" gradientUnits="userSpaceOnUse" x1="8.8594" y1="676.4948" x2="120.3594" y2="555.4948">
				<stop  offset="0" style="stop-color:#F15DB4"/>
				<stop  offset="1" style="stop-color:#FF8E20"/>
			</linearGradient>
			<polygon fill="url(#SVGID_9_)" points="106.494,567.446 109.779,570.731 102.071,578.439 98.786,575.154 			"/>
			<linearGradient id="SVGID_10_" gradientUnits="userSpaceOnUse" x1="19.3818" y1="686.191" x2="130.8818" y2="565.191">
				<stop  offset="0" style="stop-color:#F15DB4"/>
				<stop  offset="1" style="stop-color:#FF8E20"/>
			</linearGradient>
			<polygon fill="url(#SVGID_10_)" points="45.833,660.584 42.549,657.298 50.257,649.589 53.542,652.875 			"/>
			<linearGradient id="SVGID_11_" gradientUnits="userSpaceOnUse" x1="19.8672" y1="686.6383" x2="131.3672" y2="565.6383">
				<stop  offset="0" style="stop-color:#F15DB4"/>
				<stop  offset="1" style="stop-color:#FF8E20"/>
			</linearGradient>
			<polygon fill="url(#SVGID_11_)" points="57.405,648.999 54.12,645.714 61.828,638.006 65.112,641.291 			"/>
			<linearGradient id="SVGID_12_" gradientUnits="userSpaceOnUse" x1="20.8555" y1="687.5494" x2="132.3555" y2="566.5494">
				<stop  offset="0" style="stop-color:#F15DB4"/>
				<stop  offset="1" style="stop-color:#FF8E20"/>
			</linearGradient>
			<polygon fill="url(#SVGID_12_)" points="80.521,625.897 77.235,622.613 84.943,614.904 88.228,618.189 			"/>
			<linearGradient id="SVGID_13_" gradientUnits="userSpaceOnUse" x1="20.3721" y1="687.1031" x2="131.8721" y2="566.1031">
				<stop  offset="0" style="stop-color:#F15DB4"/>
				<stop  offset="1" style="stop-color:#FF8E20"/>
			</linearGradient>
			<polygon fill="url(#SVGID_13_)" points="68.971,637.459 65.687,634.173 73.394,626.466 76.68,629.751 			"/>
			<linearGradient id="SVGID_14_" gradientUnits="userSpaceOnUse" x1="21.8447" y1="688.4606" x2="133.3447" y2="567.4606">
				<stop  offset="0" style="stop-color:#F15DB4"/>
				<stop  offset="1" style="stop-color:#FF8E20"/>
			</linearGradient>
			<polygon fill="url(#SVGID_14_)" points="103.657,602.773 100.372,599.489 108.081,591.78 111.366,595.065 			"/>
			<linearGradient id="SVGID_15_" gradientUnits="userSpaceOnUse" x1="22.3262" y1="688.9049" x2="133.8262" y2="567.9049">
				<stop  offset="0" style="stop-color:#F15DB4"/>
				<stop  offset="1" style="stop-color:#FF8E20"/>
			</linearGradient>
			<polygon fill="url(#SVGID_15_)" points="115.202,591.211 111.917,587.926 119.625,580.219 122.91,583.504 			"/>
			<linearGradient id="SVGID_16_" gradientUnits="userSpaceOnUse" x1="14.082" y1="681.3073" x2="125.582" y2="560.3073">
				<stop  offset="0" style="stop-color:#F15DB4"/>
				<stop  offset="1" style="stop-color:#FF8E20"/>
			</linearGradient>
			<path fill="url(#SVGID_16_)" d="M125.85,564.356C112.255,550.823,94.2,543.36,75,543.36c-19.355,0-37.44,7.463-51.004,20.996
				C10.463,577.889,3,596.005,3,615.36c0,19.2,7.463,37.255,20.996,50.85C37.591,679.835,55.707,687.36,75,687.36
				c19.169,0,37.224-7.525,50.85-21.15c13.625-13.626,21.15-31.712,21.15-50.85C147,596.067,139.475,577.951,125.85,564.356z
				 M7.645,615.36c0-37.13,30.225-67.355,67.355-67.355c10.993,0,21.367,2.632,30.534,7.339l-90.55,90.55
				C10.309,636.727,7.645,626.353,7.645,615.36z M36.074,670.297l5.883-5.884l-3.282-3.282l-6.317,6.316
				c-3.53-2.879-6.751-6.131-9.631-9.63l6.101-6.101l-3.283-3.283l-5.667,5.668c-0.898-1.271-1.765-2.603-2.57-3.965l92.438-92.438
				c1.363,0.805,2.664,1.672,3.965,2.57l-3.345,3.345l3.282,3.282l3.81-3.809c3.499,2.849,6.688,6.008,9.537,9.476l-3.591,3.81
				l3.375,3.189l3.065-3.251c0.898,1.239,1.734,2.508,2.539,3.809l-92.624,92.625C38.489,671.969,37.25,671.164,36.074,670.297z
				 M75,682.714c-11.179,0-21.739-2.756-31.029-7.587l90.797-90.797c4.862,9.291,7.587,19.851,7.587,31.03
				C142.354,652.491,112.131,682.714,75,682.714z"/>
			<linearGradient id="SVGID_17_" gradientUnits="userSpaceOnUse" x1="55.3057" y1="719.2946" x2="166.8057" y2="598.2946">
				<stop  offset="0" style="stop-color:#F15DB4"/>
				<stop  offset="1" style="stop-color:#FF8E20"/>
			</linearGradient>
			<circle fill="url(#SVGID_17_)" cx="113.556" cy="656.082" r="2.322"/>
		</g>
	</g>
</g>
</svg>
