<?xml version="1.0" encoding="utf-8"?>
<!-- Generator: Adobe Illustrator 16.0.0, SVG Export Plug-In . SVG Version: 6.00 Build 0)  -->
<!DOCTYPE svg PUBLIC "-//W3C//DTD SVG 1.1//EN" "http://www.w3.org/Graphics/SVG/1.1/DTD/svg11.dtd">
<svg version="1.1" id="Layer_1" xmlns="http://www.w3.org/2000/svg" xmlns:xlink="http://www.w3.org/1999/xlink" x="0px" y="0px"
	 width="442px" height="442px" viewBox="0 0 442 442" enable-background="new 0 0 442 442" xml:space="preserve">
<g>
	
		<linearGradient id="SVGID_1_" gradientUnits="userSpaceOnUse" x1="-135.4165" y1="151.8486" x2="116.571" y2="421.8358" gradientTransform="matrix(1 0 0 -1 206 559)">
		<stop  offset="0" style="stop-color:#F15DB4"/>
		<stop  offset="1" style="stop-color:#FF8E20"/>
	</linearGradient>
	<path fill="url(#SVGID_1_)" d="M97.301,143.233c16.825,0,33.651-0.114,50.474,0.088c3.784,0.045,5.771-1.181,6.952-4.722
		c8.985-26.96,17.959-53.927,27.197-80.802c2.856-8.312,5.819-16.721,9.953-24.431c10.107-18.851,29.874-23.645,48.091-12.266
		c11.815,7.38,18.45,18.779,22.415,31.494c5.588,17.916,10.149,36.153,15.082,54.27c2.794,10.265,5.58,20.534,8.104,30.866
		c0.914,3.741,2.695,4.957,6.547,4.912c32.813-0.388,65.628-0.626,98.442-0.774c5.483-0.024,11.026,0.211,16.446,0.993
		c20.813,3.002,31.744,21.817,24.835,42.416c-3.572,10.65-10.542,18.987-19.188,25.65c-25.457,19.62-51.156,38.926-76.923,58.141
		c-3.295,2.455-3.771,4.453-2.555,8.217c10.039,30.994,20.168,61.967,29.5,93.176c2.221,7.428,2.983,15.92,1.935,23.582
		c-3.087,22.512-21.528,33.393-42.805,25.164c-9.803-3.791-19.186-9.291-27.823-15.35c-24.037-16.855-46.336-35.918-67.381-56.381
		c-3.672-3.568-6.061-3.551-9.918-0.641c-25.262,19.047-50.623,37.965-76.052,56.789c-6.278,4.646-12.679,9.229-19.452,13.09
		c-25.625,14.602-39.791-3.951-42.336-22.277c-2.142-15.418,0.745-30.25,5.824-44.621c5.815-16.449,12.668-32.533,18.51-48.977
		c2.92-8.219,5.399-16.783,6.469-25.393c0.491-3.953-1.801-9.496-4.735-12.387c-6.946-6.844-14.759-12.91-22.712-18.605
		c-18.946-13.57-38.343-26.516-57.179-40.232c-4.987-3.633-9.301-8.694-12.715-13.894c-11.391-17.34-3.754-38.106,16.387-42.594
		c12.555-2.797,25.708-3.174,38.634-3.949c9.959-0.596,19.981-0.119,29.976-0.119C97.3,143.522,97.3,143.377,97.301,143.233z
		 M103.064,156.314c-0.001,0.318-0.001,0.636-0.002,0.954c-17.492,0-35.001-0.434-52.47,0.219
		c-6.798,0.254-13.721,2.363-20.187,4.722c-5.812,2.12-8.397,7.206-7.973,13.629c0.479,7.241,3.74,13.251,8.893,17.898
		c6.156,5.554,12.508,11.155,19.584,15.38c25.402,15.169,48.69,33.179,71.631,51.71c5.806,4.688,6.033,5.648,3.504,12.721
		c-10.359,28.963-20.785,57.9-30.957,86.93c-3.436,9.807-5.104,20.006-3.83,30.453c0.866,7.096,6.037,13.141,13.125,13.566
		c5.067,0.305,10.995-0.375,15.267-2.828c10.625-6.105,20.797-13.104,30.656-20.408c21.526-15.957,42.617-32.5,64.152-48.441
		c8.529-6.314,9.197-5.879,16.854,1.51c20.625,19.906,41.279,39.795,65.156,55.883c10.354,6.977,20.942,13.631,33.635,15.738
		c11.241,1.865,20.332-3.906,21.488-15.299c0.698-6.895-0.04-14.42-2.163-21.006c-4.121-12.783-10.368-24.885-14.472-37.672
		c-6.143-19.143-11.131-38.65-16.753-57.963c-1.422-4.879,0-8.191,3.994-11.17c22.161-16.531,44.376-33,66.228-49.935
		c8.518-6.6,16.933-13.663,23.99-21.74c13.786-15.775,9.878-27.715-10.146-33.988c-14.92-4.673-30.212-3.939-45.554-3.446
		c-24.132,0.778-48.278,1.083-72.416,1.691c-5.627,0.142-8.479-2.42-9.733-7.829c-1.689-7.282-3.987-14.42-5.862-21.663
		c-5.624-21.72-10.968-43.514-16.836-65.167c-2.597-9.577-7.165-18.297-15.103-24.771c-12.125-9.886-25.125-8.415-33.121,4.933
		c-4.801,8.016-8.617,16.994-10.966,26.036c-7.46,28.726-16.807,56.722-28.943,83.808c-1.806,4.032-4.11,5.721-8.699,5.651
		C137.716,156.155,120.389,156.314,103.064,156.314z"/>
	
		<linearGradient id="SVGID_2_" gradientUnits="userSpaceOnUse" x1="-197.4336" y1="209.7368" x2="54.5504" y2="479.7201" gradientTransform="matrix(1 0 0 -1 206 559)">
		<stop  offset="0" style="stop-color:#F15DB4"/>
		<stop  offset="1" style="stop-color:#FF8E20"/>
	</linearGradient>
	<path fill="url(#SVGID_2_)" d="M172.729,190.99c-0.846,0.849-2.119,2.839-3.938,3.838c-13.397,7.354-26.925,14.471-40.356,21.764
		c-2.712,1.472-5.58,2.021-6.711-1.069c-0.694-1.896,0.067-5.949,1.467-6.737c14.468-8.139,29.143-15.917,43.9-23.523
		C170.295,183.611,172.879,185.931,172.729,190.99z"/>
	
		<linearGradient id="SVGID_3_" gradientUnits="userSpaceOnUse" x1="-216.7637" y1="227.7734" x2="35.2242" y2="497.7609" gradientTransform="matrix(1 0 0 -1 206 559)">
		<stop  offset="0" style="stop-color:#F15DB4"/>
		<stop  offset="1" style="stop-color:#FF8E20"/>
	</linearGradient>
	<path fill="url(#SVGID_3_)" d="M138.337,183.525c-0.623,0.71-1.484,2.148-2.734,3.043c-9.289,6.656-18.708,13.133-27.967,19.833
		c-2.751,1.99-5.123,2.289-7.437-0.281c-2.307-2.562-1.515-5.14,0.907-6.894c9.655-6.991,19.324-13.974,29.248-20.572
		C133.946,176.267,138.358,178.857,138.337,183.525z"/>
</g>
</svg>
