<?xml version="1.0" encoding="utf-8"?>
<!-- Generator: Adobe Illustrator 16.0.0, SVG Export Plug-In . SVG Version: 6.00 Build 0)  -->
<!DOCTYPE svg PUBLIC "-//W3C//DTD SVG 1.1//EN" "http://www.w3.org/Graphics/SVG/1.1/DTD/svg11.dtd">
<svg version="1.1" id="Layer_1" xmlns="http://www.w3.org/2000/svg" xmlns:xlink="http://www.w3.org/1999/xlink" x="0px" y="0px"
	 width="150px" height="150px" viewBox="0 0 150 150" enable-background="new 0 0 150 150" xml:space="preserve">
<g display="none">
	<path display="inline" fill="#A9A9A9" d="M45.298,127.033c0-3.566-0.006-6.919,0.001-10.27c0.006-2.509,0.656-3.154,3.14-3.156
		c3.349-0.004,6.698,0,10.139,0c0.055-0.441,0.136-0.793,0.137-1.144c0.009-5.313-0.005-10.627,0.021-15.94
		c0.004-0.795-0.202-1.231-1.005-1.558C47.601,90.874,40.2,83.883,35.574,73.971c-0.078-0.167-0.182-0.323-0.295-0.523
		c-5.1,0.483-8.917-2.032-12.238-5.493c-4.491-4.681-7.423-10.337-9.793-16.303c-3.62-9.111-5.833-18.537-6.124-28.368
		c-0.095-3.191,0.394-3.664,3.549-3.663c6.479,0.002,12.957,0.004,19.436,0.006c0.506,0,1.013,0,1.676,0
		c0.032-0.577,0.082-1.065,0.083-1.555c0.005-2.983-0.016-5.966,0.003-8.949C31.884,6.915,32.616,6.2,34.829,6.2
		c26.333-0.003,52.668-0.003,79.002-0.001c2.222,0.001,2.918,0.708,2.918,2.916c-0.001,3.437,0,6.875,0,10.512
		c0.696,0,1.237,0,1.778,0c7.41,0,14.822-0.004,22.231,0.002c2.181,0.001,2.933,0.691,2.843,2.814
		c-0.656,15.574-4.931,29.964-14.223,42.647c-2.335,3.187-5.218,5.848-8.939,7.398c-1.063,0.443-2.207,0.817-3.342,0.926
		c-1.086,0.107-2.207-0.171-3.548-0.303c-0.123,0.25-0.428,0.869-0.729,1.489c-4.629,9.5-11.834,16.257-21.613,20.242
		c-0.948,0.387-1.348,0.819-1.334,1.902c0.063,5.079,0.023,10.16,0.021,15.24c0,0.459,0,0.92,0,1.529
		c0.603,0.033,1.092,0.088,1.584,0.088c2.937,0.008,5.871,0.004,8.809,0.002c2.387,0,3.037,0.651,3.04,3.078
		c0.003,2.891-0.005,5.779-0.007,8.668c0,0.5,0,1,0,1.683c1.865,0,3.576,0,5.283,0c1.912,0,3.821-0.023,5.732,0.009
		c1.6,0.025,2.393,0.822,2.4,2.432c0.022,4.239,0.02,8.481,0.012,12.725c-0.003,1.875-0.805,2.627-2.787,2.628
		c-8.949,0.004-17.896,0.001-26.848,0.001c-17.337,0-34.676,0-52.014-0.002c-2.598-0.002-3.224-0.626-3.228-3.208
		c-0.005-3.869-0.011-7.737,0.003-11.606c0.009-2.289,0.72-2.974,3.036-2.976C38.305,127.029,41.698,127.033,45.298,127.033z
		 M85.568,113.547c0-0.574,0-1.029,0-1.484c0-5.732-0.006-11.467,0.004-17.199c0.005-2.293,0.275-2.647,2.472-3.418
		c14.104-4.942,24.022-17.99,24.274-32.718c0.271-15.797,0.086-31.602,0.096-47.404c0-0.216-0.07-0.433-0.109-0.662
		c-25.373,0-50.659,0-76.042,0c-0.026,0.59-0.067,1.091-0.067,1.592c-0.003,13.938-0.019,27.875,0.012,41.812
		c0.005,2.606-0.066,5.254,0.35,7.809c2.375,14.594,10.509,24.536,24.426,29.649c1.412,0.519,2.097,1.303,2.083,2.867
		c-0.052,5.873-0.017,11.746-0.015,17.619c0,0.493,0,0.986,0,1.538C70.614,113.547,77.966,113.547,85.568,113.547z M116.751,24.073
		c0,0.742,0,1.296,0,1.852c0,8.805,0.062,17.61-0.024,26.414c-0.037,3.947-0.289,7.899-0.604,11.835
		c-0.136,1.666-0.688,3.296-1.063,4.992c2.375,0.123,4.405-0.542,5.981-1.954c2.134-1.912,4.301-3.906,5.946-6.224
		c5.832-8.214,9.115-17.532,11.065-27.339c0.62-3.12,0.929-6.302,1.396-9.576C131.697,24.073,124.318,24.073,116.751,24.073z
		 M112.359,131.521c-25.432,0-50.748,0-76.047,0c0,3.029,0,5.938,0,8.845c25.408,0,50.693,0,76.047,0
		C112.359,137.396,112.359,134.52,112.359,131.521z M33.586,69.399c-0.537-2.856-1.125-5.215-1.392-7.609
		c-0.274-2.447-0.309-4.929-0.317-7.396c-0.032-9.554-0.013-19.109-0.012-28.663c0-0.54,0-1.078,0-1.641c-6.887,0-13.57,0-20.339,0
		c0,0.509-0.05,0.927,0.008,1.33c0.661,4.598,1.043,9.262,2.074,13.777c1.943,8.507,5.156,16.548,10.667,23.438
		c1.603,2.003,3.691,3.654,5.719,5.263C30.911,68.625,32.224,68.853,33.586,69.399z M98.898,126.973c0-3.058,0-5.964,0-8.869
		c-16.467,0-32.83,0-49.152,0c0,3.037,0,5.941,0,8.869C66.173,126.973,82.471,126.973,98.898,126.973z"/>
	<path display="inline" fill="#A9A9A9" d="M57.146,69.644c0.498-3.006,1.045-6.311,1.593-9.616c0.273-1.652,0.479-3.319,0.847-4.95
		c0.195-0.86-0.042-1.384-0.639-1.955c-3.374-3.216-6.705-6.476-10.076-9.694c-0.855-0.816-1.552-1.645-1.146-2.914
		c0.421-1.319,1.584-1.428,2.699-1.591c4.604-0.675,9.214-1.312,13.805-2.068c0.592-0.098,1.298-0.709,1.583-1.271
		c2.127-4.191,4.174-8.423,6.214-12.658c0.475-0.985,1.055-1.813,2.23-1.834c1.183-0.021,1.777,0.788,2.262,1.776
		c2.008,4.096,4.112,8.146,6.061,12.27c0.582,1.231,1.402,1.646,2.645,1.81c4.567,0.603,9.123,1.296,13.688,1.913
		c1.027,0.139,1.971,0.553,2.047,1.549c0.061,0.806-0.277,1.882-0.835,2.454c-3.283,3.371-6.667,6.646-10.058,9.912
		c-0.73,0.704-1.028,1.324-0.816,2.41c0.904,4.657,1.667,9.342,2.506,14.012c0.18,0.99,0.176,2.046-0.768,2.463
		c-0.741,0.326-1.883,0.413-2.582,0.069c-4.301-2.114-8.543-4.353-12.766-6.622c-0.893-0.479-1.555-0.457-2.426,0.019
		c-4.168,2.273-8.366,4.494-12.571,6.699C58.725,72.832,57.1,71.932,57.146,69.644z M74.348,28.233
		c-0.34,0.628-0.567,1.014-0.763,1.414c-1.515,3.09-3.052,6.17-4.522,9.282c-0.543,1.15-1.271,1.842-2.598,1.993
		c-2.262,0.258-4.51,0.646-6.762,0.99c-1.654,0.252-3.305,0.521-4.559,0.72c2.151,2.349,4.12,4.949,6.543,7.015
		c2.332,1.988,2.767,4.051,2.083,6.87c-0.741,3.054-1.086,6.204-1.646,9.567c0.675-0.333,1.125-0.542,1.563-0.774
		c3.042-1.611,6.101-3.192,9.111-4.861c1.147-0.636,2.14-0.615,3.276,0c2.984,1.618,6.007,3.167,9.018,4.735
		c0.439,0.228,0.901,0.413,1.459,0.665c0-0.521,0.053-0.89-0.008-1.24c-0.592-3.389-1.173-6.78-1.818-10.159
		c-0.277-1.443-0.031-2.563,1.119-3.622c2.467-2.27,4.809-4.674,7.196-7.029c0.346-0.34,0.66-0.712,1.153-1.251
		c-3.959-0.559-7.625-1.167-11.313-1.561c-1.815-0.193-2.794-1.038-3.532-2.64C77.814,35.022,76.111,31.774,74.348,28.233z"/>
</g>
<g>
	<g>
		<path fill="#A9A9A9" d="M72.57,137.792v-15.343c-8.811-0.153-17.925-2.886-23.242-6.684l3.646-10.178
			c5.469,3.644,13.367,6.53,21.873,6.53c10.784,0,18.077-6.226,18.077-14.885c0-8.355-5.924-13.52-17.165-18.075
			c-15.494-6.077-25.064-13.064-25.064-26.28c0-12.607,8.962-22.178,22.936-24.455V13.08h9.419v14.735
			c9.116,0.303,15.343,2.735,19.748,5.316l-3.798,10.025c-3.191-1.823-9.418-5.165-19.14-5.165
			c-11.697,0-16.102,6.987-16.102,13.063c0,7.898,5.62,11.849,18.836,17.317c15.646,6.38,23.545,14.278,23.545,27.797
			c0,12.001-8.354,23.241-24.001,25.823v15.799H72.57z"/>
		<path fill="#A9A9A9" d="M86.64,142.292H68.07v-15.614c-8.101-0.84-16.143-3.525-21.357-7.25l-2.769-1.978l6.735-18.799l4.79,3.191
			c5.509,3.67,12.572,5.775,19.378,5.775c8.121,0,13.577-4.173,13.577-10.385c0-4.2-1.739-8.792-14.355-13.904
			c-13.76-5.396-27.874-13.252-27.874-30.451c0-13.719,8.877-24.417,22.936-28.099V8.58h18.419v15.043
			c6.548,0.717,12.313,2.572,17.523,5.625l3.279,1.922l-7.011,18.506l-4.573-2.612c-2.396-1.368-8.006-4.572-16.908-4.572
			c-8.554,0-11.602,4.424-11.602,8.563c0,4.506,2.318,7.475,16.057,13.159c12.244,4.993,26.324,13.147,26.324,31.956
			c0,14.168-9.493,25.614-24.001,29.457V142.292z M77.07,133.292h0.569v-15.117l3.768-0.622
			c12.291-2.028,20.233-10.421,20.233-21.383c0-10.918-5.816-17.543-20.744-23.63C69.049,67.637,59.26,62.644,59.26,51.055
			c0-8.459,6.447-17.563,20.602-17.563c7.265,0,12.887,1.731,16.706,3.385l0.597-1.573c-4.194-1.83-8.896-2.813-14.263-2.992
			l-4.351-0.145V17.58h-0.419v14.669l-3.776,0.615c-11.818,1.926-19.16,9.594-19.16,20.014c0,9.629,6.226,15.823,22.208,22.091
			c9.347,3.788,20.021,9.723,20.021,22.265c0,11.232-9.495,19.385-22.577,19.385c-6.627,0-13.462-1.601-19.439-4.481l-0.601,1.676
			c4.815,2.428,11.544,4.028,17.84,4.138l4.422,0.077V133.292z"/>
	</g>
</g>
</svg>
