<?xml version="1.0" encoding="utf-8"?>
<!-- Generator: Adobe Illustrator 16.0.0, SVG Export Plug-In . SVG Version: 6.00 Build 0)  -->
<!DOCTYPE svg PUBLIC "-//W3C//DTD SVG 1.1//EN" "http://www.w3.org/Graphics/SVG/1.1/DTD/svg11.dtd">
<svg version="1.1" id="Layer_1" xmlns="http://www.w3.org/2000/svg" xmlns:xlink="http://www.w3.org/1999/xlink" x="0px" y="0px"
	 width="150px" height="150px" viewBox="0 0 150 150" enable-background="new 0 0 150 150" xml:space="preserve">
<circle fill-rule="evenodd" clip-rule="evenodd" fill="#C7CEE0" cx="75" cy="74.98" r="74.41"/>
<g>
	<path fill-rule="evenodd" clip-rule="evenodd" fill="#FDFDFE" d="M74.983,148.773c-0.573-0.139-1.148-0.278-1.723-0.416
		c-0.097-0.266-0.192-0.534-0.289-0.8c0.098-0.861-0.452-1.409-0.924-2.025c-5.182-6.787-10.357-13.58-15.502-20.395
		c-0.537-0.71-0.91-1.526-1.976-1.488c-0.035-0.223-0.07-0.444-0.104-0.667c0.007-7.173,0.023-14.346,0.011-21.518
		c-0.002-1.081,0.373-2.394-0.595-3.143c-4.305-3.326-3.495-8.228-3.997-12.701c-0.163-1.444-0.523-2.498-1.448-3.764
		c-2.522-3.449-3.45-7.554-3.246-11.865c0.055-1.167,0.633-1.84,1.822-1.937c0.775,3.305,1.55,6.612,2.325,9.917
		c0.809-3.922-0.349-7.931,0.899-11.58c2.026-5.922,4.63-11.647,6.995-17.454c0.384-0.943,0.704-1.73,2.122-1.347
		c3.935,1.061,7.048,3.661,11.836,3.559c4.35-0.093,8.631,0.338,12.844-1.091c1.768-0.6,3.56-1.211,5.204-2.079
		c1.963-1.037,2.743-0.281,3.297,1.553c2.427,8.052,6.927,15.48,7.068,24.644c1.284-2.255-0.021-4.688,1.759-6.282
		c2.563,0.488,3.146,2.181,2.537,4.422c-1.019,3.741-1.035,7.933-4.61,10.585c-0.28,0.209-0.434,0.802-0.395,1.191
		c0.596,5.889-0.421,11.271-4.756,15.656c-3.359,1.657-5.447,4.684-7.885,7.335c-0.967,0.86-2.082,1.603-2.873,2.602
		c-2.847,3.598-6.391,5.397-11.035,4.691c-0.873-1.071-2.409-0.624-3.428-1.685c-2.111-2.193-4.471-4.154-6.769-6.164
		c-0.578-0.505-1.101-1.754-2.073-0.876c-0.657,0.594-0.537,1.76-0.03,2.463c3.153,4.386,6.727,8.274,12.294,9.58
		c4.44,2.873,9.493,3.813,14.588,4.62c2.302-0.014,4.586,0.052,6.624,1.339c-3.33,4.336-6.807,8.569-9.943,13.042
		c-2.482,3.54-6.032,6.359-7.377,10.682c-0.06,0.306-0.118,0.612-0.178,0.918c-0.208,0.033-0.326,0.155-0.354,0.363
		C75.463,148.699,75.224,148.735,74.983,148.773z"/>
	<path fill-rule="evenodd" clip-rule="evenodd" fill="#6E727D" d="M101.363,67.896c-1.779,1.593-0.475,4.027-1.759,6.282
		c-0.142-9.163-4.642-16.591-7.068-24.644c-0.554-1.834-1.334-2.59-3.297-1.553c-1.645,0.867-3.437,1.479-5.204,2.079
		c-4.213,1.429-8.494,0.998-12.844,1.091c-4.788,0.102-7.901-2.498-11.836-3.559c-1.418-0.383-1.738,0.404-2.122,1.347
		c-2.365,5.807-4.969,11.532-6.995,17.454c-1.248,3.648-0.09,7.657-0.899,11.58c-0.775-3.304-1.55-6.612-2.325-9.917
		c-0.662-4.45-1.779-8.816-2.185-13.319c-0.375-4.146,0.109-8.113,1.616-11.96c0.31-0.795,0.746-1.848,1.409-2.144
		c2.499-1.116,3.24-3.378,4.104-5.599c2.914-7.491,8.689-11.203,16.395-11.966c11.528-1.139,22.598,0.689,33.044,5.844
		c0.378,0.185,0.704,0.471,1.521,1.03c-2.776,0.699-5.352-0.217-7.993,0.985c7.732,3.865,12.839,9.663,16.264,17.429
		c-1.702,0.095-1.952-1.587-3.478-1.371c1.538,5.448,0.769,10.752-1.057,16.139c-1.628-1.44-1.112-3.962-3.302-5.151
		C102.452,61.304,101.672,64.545,101.363,67.896z"/>
	<path fill-rule="evenodd" clip-rule="evenodd" fill="#878B94" d="M77.256,149.43c0.06-0.305,0.119-1.066,0.179-1.372
		c8.647-2.981,16.653-7.414,25.001-11.068c1.686-0.74,0.654-1.721,0.114-2.659c-2.075-3.617-4.807-6.836-6.521-10.674
		c9.281,2.43,18.563,4.859,27.843,7.289C103.427,149.012,81.279,149.127,77.256,149.43z"/>
	<path fill-rule="evenodd" clip-rule="evenodd" fill="#878B94" d="M72.972,147.558c0.097,0.266,0.192,1.565,0.289,1.831
		c-0.979,0.191-25.897,0.496-47.322-18.467c9.013-2.553,19.357-5.962,28.526-7.939c0.034,0.223,0.069,0.444,0.104,0.667
		c-3.284,3.157-4.988,7.406-7.6,11.029c-0.848,1.177,0.253,1.399,1.069,1.774c5.095,2.332,10.123,4.82,15.278,7.01
		C66.532,144.83,69.424,146.979,72.972,147.558z"/>
	<path fill-rule="evenodd" clip-rule="evenodd" fill="#C9CDD6" d="M94.829,122.979c1.714,3.839,4.444,7.057,6.521,10.675
		c0.539,0.938,1.57,1.92-0.115,2.657c-8.348,3.657-16.354,8.089-25,11.071c1.344-4.324,4.894-7.144,7.376-10.684
		c3.137-4.473,6.613-8.706,9.943-13.042c0.213-0.223,0.429-0.446,0.643-0.669C94.407,122.986,94.618,122.982,94.829,122.979z"/>
	<path fill-rule="evenodd" clip-rule="evenodd" fill="#FDFDFE" d="M94.196,122.987c-0.214,0.223-0.43,0.446-0.643,0.669
		c-2.038-1.287-4.322-1.353-6.624-1.339c-0.385-5.07,0.78-10.209-0.675-15.231c2.438-2.651,4.525-5.678,7.885-7.335
		C94.158,107.495,94.178,115.241,94.196,122.987z"/>
	<path fill-rule="evenodd" clip-rule="evenodd" fill="#C9CDD6" d="M72.972,147.558c-3.548-0.578-6.44-2.728-9.656-4.095
		c-5.155-2.189-10.183-4.678-15.278-7.01c-0.816-0.375-1.917-0.598-1.069-1.774c2.612-3.623,4.316-7.872,7.6-11.029
		c1.066-0.038,1.44,0.778,1.977,1.488c5.146,6.814,10.321,13.607,15.502,20.395C72.52,146.148,73.069,146.696,72.972,147.558z"/>
	<path fill-rule="evenodd" clip-rule="evenodd" fill="#FDFDFE" d="M86.255,107.086c1.455,5.022,0.29,10.161,0.675,15.231
		c-5.096-0.808-10.148-1.747-14.588-4.62c0.001-1.107,0.003-2.213,0.005-3.318c4.645,0.706,8.188-1.094,11.035-4.691
		C84.173,108.688,85.288,107.946,86.255,107.086z"/>
	<path fill-rule="evenodd" clip-rule="evenodd" fill="#FDFDFE" d="M72.347,114.379c-0.002,1.105-0.004,2.211-0.005,3.318
		c-5.567-1.306-9.141-5.194-12.294-9.58c-0.507-0.703-0.627-1.869,0.03-2.463c0.972-0.878,1.495,0.371,2.073,0.876
		c2.298,2.01,4.658,3.971,6.769,6.164C69.938,113.755,71.474,113.308,72.347,114.379z"/>
</g>
</svg>
