<?xml version="1.0" encoding="utf-8"?>
<!-- Generator: Adobe Illustrator 16.0.0, SVG Export Plug-In . SVG Version: 6.00 Build 0)  -->
<!DOCTYPE svg PUBLIC "-//W3C//DTD SVG 1.1//EN" "http://www.w3.org/Graphics/SVG/1.1/DTD/svg11.dtd">
<svg version="1.1" id="Capa_1" xmlns="http://www.w3.org/2000/svg" xmlns:xlink="http://www.w3.org/1999/xlink" x="0px" y="0px"
	 width="150px" height="150px" viewBox="0 0 150 150" enable-background="new 0 0 150 150" xml:space="preserve">
<g>
	<linearGradient id="SVGID_1_" gradientUnits="userSpaceOnUse" x1="5.2793" y1="76.0781" x2="146.7207" y2="76.0781">
		<stop  offset="0" style="stop-color:#F15DB4"/>
		<stop  offset="1" style="stop-color:#FF8E20"/>
	</linearGradient>
	<path fill-rule="evenodd" clip-rule="evenodd" fill="url(#SVGID_1_)" d="M44.911,129.541c0-1.219,0-2.287,0-3.355
		c0.001-2.359-0.015-4.719,0.005-7.078c0.023-2.873,0.596-3.457,3.443-3.48c2.959-0.023,5.919-0.006,8.879-0.006
		c0.437,0,0.873,0,1.436,0c0.056-1.029,0.144-1.975,0.151-2.922c0.04-4.518,0.056-9.037,0.086-13.555
		c0.012-1.773-0.524-2.627-2.176-3.334c-9.281-3.977-16.284-10.432-20.959-19.373c-0.845-1.615-1.935-2.373-3.815-2.526
		c-4.071-0.333-7.243-2.542-9.967-5.45c-5.778-6.169-9.309-13.59-11.973-21.499c-2.513-7.456-4.106-15.097-4.688-22.944
		c-0.086-1.154-0.057-2.32-0.009-3.478c0.058-1.388,0.851-2.156,2.267-2.276c0.596-0.051,1.196-0.079,1.795-0.08
		c6.68-0.005,13.359-0.003,20.039-0.003c0.468,0,0.937,0,1.565,0c0-1.409-0.008-2.676,0.002-3.942
		c0.02-2.519,0.013-5.038,0.09-7.554c0.044-1.465,0.843-2.243,2.29-2.406c0.396-0.044,0.8-0.018,1.199-0.018
		c27.038,0,54.077,0,81.115,0c2.525,0,3.262,0.742,3.263,3.294c0.003,3.474,0.001,6.948,0.001,10.558
		c0.526,0.025,0.985,0.065,1.443,0.065c7.359,0.004,14.72,0.003,22.079,0.003c0.319,0,0.64-0.005,0.96,0.001
		c3.301,0.066,3.447,0.998,3.215,3.577c-0.621,6.892-1.272,13.765-3.21,20.447c-2.669,9.208-6.906,17.614-12.979,25.043
		c-2.754,3.368-6.263,5.678-10.589,6.574c-0.655,0.136-1.363,0.193-2.021,0.1c-1.545-0.219-2.524,0.456-3.2,1.758
		c-1.94,3.746-4.268,7.219-7.168,10.299c-3.807,4.041-8.244,7.178-13.33,9.396c-2.62,1.143-3.095,1.877-3.082,4.75
		c0.021,4.68,0.029,9.359,0.042,14.039c0.001,0.432,0,0.863,0,1.455c0.567,0,1.032,0,1.496,0c3.12,0.002,6.24-0.027,9.359,0.012
		c2.438,0.031,3.05,0.674,3.061,3.092c0.015,3.16,0.004,6.32,0.004,9.48c0,0.393,0,0.783,0,1.273
		c0.525,0.023,0.95,0.061,1.376,0.061c3.2,0.006,6.399-0.02,9.6,0.012c2.261,0.021,2.883,0.611,2.9,2.832
		c0.036,4.359,0.027,8.719-0.005,13.076c-0.013,1.744-0.76,2.438-2.534,2.439c-27.559,0.004-55.117,0.006-82.676-0.002
		c-1.933,0-2.61-0.676-2.617-2.59c-0.014-4.396-0.012-8.795,0-13.191c0.005-1.768,0.539-2.432,2.33-2.486
		c3.315-0.104,6.636-0.066,9.954-0.086C43.826,129.539,44.293,129.541,44.911,129.541z M86.672,115.443c0-0.621,0-1.098,0-1.576
		c0-5.838-0.004-11.678,0.002-17.518c0.003-2.535,0.212-2.822,2.544-3.68c0.188-0.068,0.375-0.141,0.562-0.213
		c8.957-3.453,15.823-9.285,20.451-17.756c3.324-6.084,4.271-12.652,4.277-19.439c0.013-14.277,0.008-28.555-0.003-42.833
		c-0.001-1.143-0.102-2.285-0.153-3.395c-26.374,0-52.623,0-78.92,0c0,0.571,0,1.048,0,1.526c0,14.998-0.021,29.995,0.021,44.992
		c0.007,2.35,0.111,4.73,0.491,7.043c1.399,8.521,4.922,15.992,11.338,21.937c3.835,3.553,8.308,6.059,13.159,7.93
		c2.554,0.986,2.831,1.395,2.831,4.162c0,5.439-0.005,10.879,0.005,16.318c0.002,0.828,0.075,1.656,0.117,2.5
		C71.194,115.443,78.859,115.443,86.672,115.443z M118.951,22.958c0,8.051-0.022,15.965,0.007,23.879
		c0.028,7.906-0.319,15.789-1.402,23.691c5.618-2.535,8.077-3.616,12.122-9.494c6.155-8.942,9.718-18.917,11.581-29.542
		c0.494-2.812,0.831-5.652,1.248-8.535C134.579,22.958,126.838,22.958,118.951,22.958z M114.209,134.328
		c-26.302,0-52.497,0-78.696,0c0,1.861,0.074,3.621-0.017,5.373c-0.144,2.746,0.657,3.68,3.366,3.68c24.668,0.002,49.336,0,74.003,0
		c0.428,0,0.854,0,1.344,0C114.209,140.287,114.209,137.342,114.209,134.328z M32.317,69.72c-0.021-0.446-0.003-0.766-0.054-1.074
		c-1.064-6.403-1.332-12.864-1.339-19.337c-0.007-6.511,0.119-13.021,0.132-19.533c0.005-2.264-0.155-4.529-0.241-6.833
		c-7.229,0-14.348,0-21.508,0c0.64,3.905,1.242,7.727,1.896,11.54c1.754,10.222,5.389,19.671,11.584,28.065
		C25.22,65.844,28.253,68.324,32.317,69.72z M100.249,129.461c0-3.146,0-6.115,0-9.078c-16.99,0-33.877,0-50.802,0
		c0,1.83,0.071,3.584-0.016,5.328c-0.146,2.928,0.578,3.75,3.509,3.75c15.271,0.002,30.54,0,45.811,0
		C99.223,129.461,99.695,129.461,100.249,129.461z"/>
	<linearGradient id="SVGID_2_" gradientUnits="userSpaceOnUse" x1="47.3174" y1="46.1748" x2="102.7363" y2="46.1748">
		<stop  offset="0" style="stop-color:#F15DB4"/>
		<stop  offset="1" style="stop-color:#FF8E20"/>
	</linearGradient>
	<path fill-rule="evenodd" clip-rule="evenodd" fill="url(#SVGID_2_)" d="M57.241,69.799c0.481-2.962,1.019-6.273,1.556-9.583
		c0.262-1.616,0.539-3.229,0.777-4.849c0.191-1.301-0.368-2.312-1.286-3.19c-3.202-3.068-6.394-6.149-9.582-9.233
		c-0.343-0.332-0.681-0.686-0.942-1.081c-0.946-1.427-0.338-3.098,1.354-3.411c2.982-0.551,5.989-0.972,8.989-1.427
		c1.539-0.233,3.088-0.408,4.629-0.636c2.065-0.305,3.473-1.465,4.363-3.339c1.696-3.569,3.426-7.123,5.143-10.683
		c0.122-0.251,0.252-0.499,0.382-0.746c0.514-0.974,1.039-1.914,2.369-1.883c1.26,0.029,1.779,0.911,2.252,1.866
		c1.878,3.791,3.814,7.555,5.607,11.386c0.961,2.052,2.388,3.117,4.659,3.373c4.166,0.47,8.316,1.088,12.461,1.722
		c0.787,0.12,1.676,0.429,2.239,0.951c0.91,0.842,0.584,2.262-0.563,3.379c-3.232,3.153-6.454,6.318-9.706,9.451
		c-1.188,1.145-1.682,2.421-1.359,4.092c0.838,4.351,1.589,8.718,2.377,13.079c0.371,2.051-0.127,3.199-1.617,3.379
		c-0.631,0.076-1.377-0.083-1.951-0.372c-3.993-2.008-7.992-4.01-11.908-6.163c-1.665-0.916-3.101-0.916-4.727-0.023
		c-3.744,2.055-7.533,4.027-11.309,6.026c-0.387,0.205-0.786,0.397-1.2,0.536C58.371,73.044,57.19,72.149,57.241,69.799z
		 M55.39,41.908c0.354,0.486,0.518,0.76,0.728,0.992c2.224,2.459,4.435,4.931,6.691,7.36c1.221,1.314,1.864,2.746,1.447,4.574
		c-0.257,1.127-0.416,2.278-0.611,3.419c-0.455,2.667-0.907,5.336-1.391,8.182c0.49-0.229,0.814-0.361,1.122-0.526
		c3.165-1.701,6.34-3.386,9.486-5.12c1.497-0.825,2.924-0.895,4.421-0.015c1.204,0.708,2.455,1.335,3.696,1.979
		c2.256,1.169,4.52,2.324,6.923,3.559c-0.046-0.383-0.061-0.576-0.094-0.765c-0.671-3.774-1.345-7.547-2.017-11.32
		c-0.256-1.436,0.068-2.671,1.153-3.713c2.308-2.213,4.587-4.456,6.868-6.696c0.491-0.482,0.94-1.007,1.676-1.801
		c-4.203-0.637-8.021-1.261-11.854-1.776c-1.597-0.214-2.625-1.013-3.31-2.409c-1.581-3.225-3.181-6.441-4.776-9.66
		c-0.168-0.34-0.357-0.669-0.643-1.199c-1.722,3.595-3.394,6.952-4.939,10.365c-0.866,1.912-2.214,2.859-4.298,3.099
		C62.312,40.822,58.974,41.385,55.39,41.908z"/>
</g>
</svg>
