<?xml version="1.0" encoding="utf-8"?>
<!-- Generator: Adobe Illustrator 16.0.0, SVG Export Plug-In . SVG Version: 6.00 Build 0)  -->
<!DOCTYPE svg PUBLIC "-//W3C//DTD SVG 1.1//EN" "http://www.w3.org/Graphics/SVG/1.1/DTD/svg11.dtd">
<svg version="1.1" id="Layer_1" xmlns="http://www.w3.org/2000/svg" xmlns:xlink="http://www.w3.org/1999/xlink" x="0px" y="0px"
	 width="442px" height="442px" viewBox="0 0 442 442" enable-background="new 0 0 442 442" xml:space="preserve">
<g>
	<linearGradient id="SVGID_1_" gradientUnits="userSpaceOnUse" x1="22.0176" y1="224.374" x2="428.0254" y2="224.374">
		<stop  offset="0" style="stop-color:#F15DB4"/>
		<stop  offset="1" style="stop-color:#FF8E20"/>
	</linearGradient>
	<path fill-rule="evenodd" clip-rule="evenodd" fill="url(#SVGID_1_)" d="M36.515,35.702c4.092,0,7.675-0.077,11.254,0.018
		c4.983,0.134,8,3.001,7.958,7.398c-0.04,4.277-2.779,6.894-7.708,7.089c-3.59,0.144-7.19,0.028-11.119,0.028
		c0,16.207,0,31.997,0,48.457c3.723,0,7.445-0.086,11.162,0.021c4.847,0.141,7.661,2.819,7.67,7.087
		c0.008,4.241-2.871,7.09-7.566,7.254c-3.604,0.126-7.218,0.025-11.216,0.025c0,15.978,0,31.76,0,48.272
		c3.296,0,6.687-0.049,10.076,0.012c5.531,0.097,8.611,2.663,8.702,7.153c0.094,4.686-3.037,7.338-8.852,7.472
		c-2.987,0.068-5.974,0.096-8.959,0.17c-0.276,0.008-0.547,0.23-1.085,0.471c0,15.57,0,31.251,0,47.696
		c3.494,0,7.033-0.039,10.57,0.009c5.407,0.072,8.435,2.801,8.324,7.418c-0.105,4.398-3.024,6.86-8.294,6.949
		c-3.145,0.054-6.291,0.05-9.436,0.098c-0.283,0.005-0.563,0.203-1.137,0.424c0,15.688,0,31.477,0,47.815
		c3.729,0,7.306-0.109,10.872,0.025c5.108,0.196,8.056,3.001,8.001,7.368c-0.056,4.357-3.022,7.069-8.149,7.244
		c-3.442,0.115-6.891,0.021-10.678,0.021c0,16.065,0,31.858,0,48.285c3.579,0,7.143-0.052,10.704,0.013
		c5.094,0.093,8.108,2.789,8.127,7.157c0.02,4.426-2.904,7.082-8.061,7.195c-3.44,0.075-6.883,0.014-10.718,0.014
		c0,16.105,0,31.883,0,48.034c12.569,0,25.175,0,38.278,0c0-1.782,0-3.315,0-4.85c0.004-75.05,0.005-150.097,0.012-225.146
		c0.001-12.823,8.067-21.014,20.799-21.042c17.936-0.042,35.881,0.322,53.805-0.141c12.867-0.332,22.152,9.166,22.092,21.94
		c-0.347,74.418-0.17,148.838-0.171,223.257c0,1.858,0,3.717,0,5.96c6.591,0,12.758,0,19.494,0c0-2.05,0-3.894,0-5.738
		c-0.006-95.502-0.014-191.004-0.016-286.506c0-13.828,7.731-21.469,21.669-21.465c17.936,0.004,35.872,0.006,53.808,0.005
		c13.192-0.001,21.085,7.888,21.085,21.101c0.002,94.873,0.002,189.746,0.002,284.619c0,2.497,0,4.996,0,7.934
		c6.455,0,12.616,0,19.435,0c0-2.066,0-4.06,0-6.054c0-42.009-0.011-84.017,0.008-126.026c0.006-14.624,7.432-22.046,22.01-22.058
		c17.779-0.016,35.557-0.033,53.335,0.005c13.522,0.028,21.253,7.815,21.26,21.437c0.021,42.322,0.008,84.646,0.008,126.969
		c0,1.854,0,3.709,0,6.175c5.243,0,10.066-0.039,14.889,0.01c5.897,0.06,9.172,2.606,9.264,7.104
		c0.095,4.626-3.42,7.456-9.435,7.457c-87.636,0.01-175.271,0.006-262.907,0.008c-40.75,0.002-81.5,0.01-122.25,0.016
		c-9.539,0.002-11.414-1.843-11.414-11.177c0.003-127.598,0.003-255.194,0.011-382.792c0-1.885-0.076-3.792,0.162-5.653
		c0.511-3.982,2.846-6.202,6.904-6.355c3.866-0.146,6.951,2.474,7.373,6.465C36.726,30.296,36.515,32.789,36.515,35.702z
		 M273.444,412.53c0-2.479,0-4.341,0-6.202c0-68.562,0.002-137.123,0-205.685c-0.001-23.43,0.043-46.859-0.045-70.29
		c-0.042-11.533-6.014-17.299-17.453-17.274c-11.793,0.025-23.588,0.061-35.38-0.02c-6.459-0.043-10.912,3.04-13.129,8.829
		c-1.199,3.131-1.707,6.709-1.709,10.087c-0.084,91.991-0.062,183.983-0.058,275.974c0,1.494,0,2.99,0,4.581
		C228.529,412.53,250.663,412.53,273.444,412.53z M157.401,412.464c0-1.833,0-3.366,0-4.899c0-52.071,0.001-104.142-0.001-156.213
		c0-19.506,0.077-39.013-0.049-58.52c-0.072-11.151-5.915-16.826-16.862-16.835c-11.012-0.009-22.025-0.006-33.036-0.001
		c-12.138,0.002-17.817,5.601-17.821,17.816c-0.02,71.263-0.001,142.525,0.005,213.789c0,1.528,0,3.059,0,4.863
		C112.422,412.464,134.661,412.464,157.401,412.464z M389.443,412.461c0-1.823,0-3.354,0-4.886c0-38.819,0.012-77.64-0.031-116.46
		c-0.001-2.339-0.191-4.734-0.72-7.006c-1.724-7.412-6.891-11.458-14.539-11.483c-12.73-0.044-25.468-0.228-38.188,0.145
		c-3.023,0.088-6.458,1.541-8.883,3.425c-4.205,3.268-5.371,8.241-5.368,13.512c0.027,39.607,0.004,79.213,0.014,118.819
		c0,1.334,0.197,2.67,0.297,3.935C344.613,412.461,366.724,412.461,389.443,412.461z"/>
</g>
</svg>
