<?xml version="1.0" encoding="utf-8"?>
<!-- Generator: Adobe Illustrator 16.0.0, SVG Export Plug-In . SVG Version: 6.00 Build 0)  -->
<!DOCTYPE svg PUBLIC "-//W3C//DTD SVG 1.1//EN" "http://www.w3.org/Graphics/SVG/1.1/DTD/svg11.dtd">
<svg version="1.1" id="Layer_1" xmlns="http://www.w3.org/2000/svg" xmlns:xlink="http://www.w3.org/1999/xlink" x="0px" y="0px"
	 width="150px" height="150px" viewBox="0 0 150 150" enable-background="new 0 0 150 150" xml:space="preserve">
<g>
	<linearGradient id="SVGID_1_" gradientUnits="userSpaceOnUse" x1="10.7593" y1="109.0156" x2="139.2412" y2="109.0156">
		<stop  offset="0" style="stop-color:#FF43A1"/>
		<stop  offset="1" style="stop-color:#FF8E20"/>
	</linearGradient>
	<path fill-rule="evenodd" clip-rule="evenodd" fill="url(#SVGID_1_)" d="M74.814,144.792c-19.957,0-39.915,0.001-59.872-0.002
		c-0.52,0-1.046,0.009-1.556-0.068c-1.539-0.236-2.238-0.936-2.52-2.465c-0.058-0.313-0.096-0.635-0.096-0.951
		c0.02-8.033-0.229-16.076,0.83-24.071c1.721-12.983,5.961-24.93,14.749-34.9c4.312-4.893,9.743-7.958,16.269-8.904
		c4.189-0.607,7.912,0.398,11.124,3.226c4.269,3.76,9.003,6.689,14.741,7.517c8.807,1.27,17.24,0.524,24.648-5.079
		c0.765-0.578,1.536-1.159,2.232-1.814c4.442-4.181,9.581-4.87,15.262-3.192c6.691,1.976,11.809,6.091,15.824,11.645
		c5.785,8.002,9.286,16.988,11.15,26.643c1.095,5.67,1.5,11.4,1.495,17.17c-0.003,3.677,0.115,7.354,0.144,11.03
		c0.026,3.3-0.898,4.216-4.193,4.217C114.97,144.794,94.893,144.792,74.814,144.792z M133.086,138.611
		c0-3.177-0.016-6.207,0.004-9.238c0.049-7.722-0.887-15.299-3.186-22.694c-2.2-7.078-5.13-13.771-10.038-19.443
		c-3.332-3.85-7.357-6.579-12.422-7.645c-2.89-0.607-5.305-0.021-7.648,1.945c-7.411,6.215-15.881,9.85-25.724,9.343
		c-8.025-0.413-15.479-2.648-21.853-7.807c-0.994-0.805-2.02-1.573-3.067-2.307c-1.629-1.141-3.405-1.644-5.432-1.348
		c-4.73,0.691-8.679,2.857-12.059,6.163c-4.375,4.277-7.153,9.554-9.507,15.109c-5.123,12.091-5.695,24.811-5.269,37.673
		c0.002,0.068,0.078,0.134,0.149,0.248C55.664,138.611,94.321,138.611,133.086,138.611z"/>
	<linearGradient id="SVGID_2_" gradientUnits="userSpaceOnUse" x1="41.2729" y1="38.46" x2="108.5967" y2="38.46">
		<stop  offset="0" style="stop-color:#FF43A1"/>
		<stop  offset="1" style="stop-color:#FF8E20"/>
	</linearGradient>
	<path fill-rule="evenodd" clip-rule="evenodd" fill="url(#SVGID_2_)" d="M74.79,71.712C56.546,71.731,41.667,56.8,41.279,38.831
		C40.934,22.777,54.266,5.59,74.42,5.213c17.692-0.331,34.119,13.905,34.177,33.048C108.651,56.713,93.472,71.692,74.79,71.712z
		 M75.237,11.312c-17.479-0.213-27.935,14.603-27.889,26.37c0.061,15.684,12.104,27.941,27.603,27.95
		c14.813,0.009,27.459-12.316,27.604-26.634C102.727,22.31,88.36,10.94,75.237,11.312z"/>
</g>
</svg>
