<?xml version="1.0" encoding="utf-8"?>
<!-- Generator: Adobe Illustrator 16.0.0, SVG Export Plug-In . SVG Version: 6.00 Build 0)  -->
<!DOCTYPE svg PUBLIC "-//W3C//DTD SVG 1.1//EN" "http://www.w3.org/Graphics/SVG/1.1/DTD/svg11.dtd">
<svg version="1.1" id="Layer_1" xmlns="http://www.w3.org/2000/svg" xmlns:xlink="http://www.w3.org/1999/xlink" x="0px" y="0px"
	 width="150px" height="150px" viewBox="0 0 150 150" enable-background="new 0 0 150 150" xml:space="preserve">
<g>
	<g>
		<path fill-rule="evenodd" clip-rule="evenodd" fill="#A9A9A9" d="M145.538,67.464c0,10.272,0,20.542,0,30.813
			c-0.846,1.918-2.668,1.482-4.295,1.605c0,0.615,0,1.096,0,1.578c0,7.037,0,14.076,0,21.113c0,6.449-4.785,11.252-11.212,11.252
			c-36.519,0.002-73.037,0.002-109.556,0.004c-4.916,0-9.359-3.477-10.604-8.277c-0.086-0.334-0.221-0.652-0.334-0.979
			c0-32.053,0-64.104,0-96.157c0.084-0.15,0.203-0.292,0.244-0.454c1.405-5.564,5.521-8.797,11.218-8.797
			c14.777-0.002,29.555,0.005,44.332-0.021c0.771-0.002,1.585-0.159,2.302-0.441c6.41-2.524,12.801-5.097,19.201-7.647
			c1.931-0.77,2.856-0.299,3.496,1.666c0.691,2.126,1.428,4.236,2.17,6.427c3.49-1.191,6.83-2.33,10.17-3.472
			c3.606-1.232,3.701-1.223,5.102,2.367c0.359,0.921,0.857,1.148,1.768,1.139c4.07-0.04,8.141-0.023,12.211-0.016
			c6.101,0.012,10.969,4.854,10.99,10.929c0.008,2.075,0.002,4.149,0.002,6.201c0.293,0.129,0.49,0.23,0.696,0.306
			c5.115,1.855,7.802,5.667,7.804,11.075c0,5.53,0,11.061,0,16.591c0,0.515,0,1.028,0,1.612
			C142.971,65.931,144.689,65.617,145.538,67.464z M137.079,99.826c-0.816,0-1.432,0-2.047,0c-5.09,0-10.182,0.051-15.271-0.014
			c-9.053-0.111-16.862-8.227-16.681-17.26c0.178-8.895,8.01-16.608,16.918-16.638c5.179-0.018,10.357-0.003,15.535-0.002
			c0.473,0,0.945,0,1.546,0c0-0.627,0-1.104,0-1.581c0.001-5.666,0.003-11.331,0.003-16.997c0-4.684-2.342-7.008-7.011-7.008
			C94.176,40.33,58.28,40.312,22.384,40.356c-2.999,0.004-5.813-0.332-8.333-2.072c-0.041-0.028-0.155,0.049-0.303,0.101
			c0,0.329,0,0.682,0,1.032c-0.002,27.886-0.008,55.771,0,83.656c0.001,4.16,2.445,6.588,6.626,6.59
			c36.692,0.006,73.385,0.004,110.078-0.006c4.189,0,6.611-2.414,6.621-6.58c0.018-6.861,0.006-13.721,0.006-20.582
			C137.079,101.662,137.079,100.83,137.079,99.826z M86.886,15.481C69.736,22.342,52.819,29.11,35.902,35.877
			c0.028,0.063,0.057,0.124,0.085,0.186c19.211,0,38.422,0,57.768,0C91.454,29.167,89.196,22.404,86.886,15.481z M141.265,70.077
			c-7.24,0-14.316-0.012-21.395,0.004c-7.174,0.016-12.607,5.451-12.626,12.599c-0.021,7.48,5.288,12.953,12.641,12.98
			c6.726,0.025,13.45,0.008,20.175,0.004c0.385-0.002,0.77-0.047,1.205-0.074C141.265,87.08,141.265,78.652,141.265,70.077z
			 M55.403,23.617c-0.02-0.096-0.039-0.19-0.059-0.286c-5.127,0-10.255,0.001-15.382,0c-6.68,0-13.36-0.026-20.04,0.01
			c-3.164,0.017-5.406,1.894-6.051,4.91c-0.658,3.078,0.654,6.19,3.279,7.262c2.567,1.047,5.34,1.155,7.898,0.201
			c6.205-2.313,12.32-4.864,18.471-7.325C47.483,26.802,51.442,25.208,55.403,23.617z M110.075,23.344
			c0.055,0.322,0.056,0.504,0.118,0.66c1.518,3.815,3.018,7.639,4.604,11.426c0.152,0.363,0.852,0.697,1.303,0.704
			c3.803,0.056,7.607,0.034,11.412,0.026c0.334-0.001,0.669-0.073,1.07-0.119c0-0.489,0.002-0.884,0-1.277
			c-0.006-1.946,0.074-3.897-0.04-5.838c-0.18-3.036-2.55-5.466-5.588-5.552C118.716,23.254,114.472,23.344,110.075,23.344z
			 M93.966,23.033c0,0.286-0.033,0.426,0.005,0.541c1.317,3.976,2.63,7.953,3.987,11.915c0.097,0.283,0.524,0.643,0.803,0.646
			c3.875,0.042,7.752,0.028,11.843,0.028c-2.247-5.61-4.421-11.035-6.636-16.567C100.56,20.766,97.245,21.906,93.966,23.033z"/>
		<path fill="#A9A9A9" d="M20.476,134.33L20.476,134.33c-5.125,0-9.788-3.639-11.088-8.652c-0.055-0.215-0.133-0.422-0.21-0.629
			l-0.14-0.475V28.287l0.063-0.113c0.031-0.056,0.065-0.11,0.101-0.164c0.036-0.058,0.087-0.136,0.096-0.169
			C10.77,22.01,15.035,18.667,21,18.667l9.27,0c11.688,0,23.374,0,35.062-0.021c0.705-0.002,1.458-0.146,2.119-0.407
			c4.402-1.733,8.795-3.489,13.188-5.246l6.012-2.401c0.652-0.26,1.2-0.387,1.675-0.387c1.519,0,2.124,1.263,2.482,2.362
			c0.483,1.486,0.988,2.965,1.503,4.469l0.503,1.478l9.696-3.31c1.433-0.489,2.276-0.766,2.959-0.766
			c1.435,0,1.909,1.216,2.771,3.425c0.271,0.697,0.563,0.821,1.247,0.821c3.612-0.036,7.102-0.027,10.627-0.02l1.64,0.003
			c6.42,0.012,11.467,5.032,11.489,11.427c0.006,1.455,0.004,2.909,0.003,4.354l-0.001,1.526c0.136,0.062,0.25,0.115,0.368,0.158
			c5.317,1.929,8.13,5.921,8.132,11.545v17.709c0.025,0,0.051,0,0.076,0h0.335c1.328,0,2.98,0,3.838,1.868l0.046,0.208v30.918
			l-0.043,0.097c-0.813,1.845-2.399,1.86-3.798,1.874c-0.151,0.001-0.303,0.002-0.454,0.006v22.215
			c0,6.699-5.035,11.752-11.712,11.752L20.476,134.33z M10.038,124.486l0.078,0.215c0.089,0.24,0.177,0.479,0.24,0.727
			c1.187,4.579,5.442,7.902,10.119,7.902l109.556-0.004c6.106,0,10.712-4.622,10.712-10.752V99.419l0.462-0.035
			c0.323-0.024,0.653-0.027,0.982-0.03c1.412-0.014,2.317-0.08,2.851-1.186v-30.59c-0.556-1.109-1.468-1.19-2.884-1.19h-0.335
			c-0.196,0-0.394-0.001-0.591-0.006l-0.485-0.014V47.678c-0.002-5.165-2.586-8.832-7.475-10.605
			c-0.146-0.053-0.287-0.118-0.454-0.195l-0.571-0.255l0.001-2.175c0.001-1.445,0.003-2.897-0.003-4.35
			c-0.021-5.838-4.629-10.419-10.491-10.431l-1.64-0.003c-3.521-0.008-7.043-0.016-10.565,0.019h-0.001
			c-1.203,0-1.833-0.422-2.237-1.457c-0.882-2.26-1.157-2.788-1.839-2.788c-0.55,0-1.47,0.314-2.635,0.712l-10.645,3.634
			l-0.825-2.424c-0.516-1.509-1.022-2.992-1.508-4.483c-0.451-1.387-0.938-1.672-1.531-1.672c-0.345,0-0.771,0.104-1.304,0.315
			l-6.012,2.401c-4.395,1.756-8.788,3.513-13.191,5.248c-0.775,0.305-1.657,0.474-2.484,0.476
			c-11.688,0.021-23.376,0.021-35.063,0.021l-9.27,0c-5.47,0-9.382,3.069-10.733,8.419c-0.048,0.191-0.146,0.342-0.224,0.464
			l-0.005,0.009V124.486z M61.657,130.165l-41.283-0.003c-4.461-0.002-7.125-2.652-7.126-7.09
			c-0.006-21.707-0.004-43.415-0.002-65.123l0.002-19.919l0.438-0.161c0.096-0.043,0.204-0.091,0.342-0.091h0.155l0.151,0.094
			c2.524,1.744,5.336,1.984,7.998,1.984c21.095-0.026,42.138-0.03,63.182-0.03l35.271,0.001l9.287,0
			c4.983,0,7.511,2.526,7.511,7.508l-0.003,19.078l-11.825-0.007c-1.918,0-3.836,0.002-5.754,0.009
			c-8.576,0.029-16.249,7.575-16.42,16.148c-0.084,4.188,1.649,8.429,4.756,11.638c3.096,3.198,7.262,5.062,11.431,5.112
			c3.53,0.044,7.061,0.034,10.592,0.023c1.558-0.005,3.115-0.01,4.673-0.01h2.547l0.002,9.049c0.002,4.9,0.005,9.801-0.008,14.702
			c-0.011,4.433-2.673,7.079-7.121,7.079C107.519,130.162,84.59,130.165,61.657,130.165z M14.248,39.009L14.246,57.95
			c-0.002,21.708-0.004,43.416,0.002,65.123c0.001,3.868,2.233,6.088,6.126,6.09l41.283,0.003c22.933,0,45.861-0.003,68.795-0.009
			c3.938,0,6.112-2.16,6.121-6.081c0.013-4.9,0.01-9.8,0.008-14.7l-0.002-8.049h-1.547c-1.557,0-3.113,0.005-4.67,0.01
			c-3.535,0.011-7.071,0.022-10.606-0.023c-4.434-0.055-8.857-2.028-12.138-5.416c-3.29-3.399-5.127-7.902-5.037-12.354
			c0.182-9.093,8.32-17.098,17.416-17.128c1.919-0.006,3.839-0.009,5.758-0.009l10.825,0.007l0.003-18.078
			c0-4.379-2.13-6.508-6.511-6.508l-9.287,0l-35.271-0.001c-21.043,0-42.086,0.004-63.13,0.03
			C19.802,40.856,16.883,40.628,14.248,39.009z M127.996,96.174c-2.704,0-5.409-0.004-8.113-0.014
			c-7.635-0.028-13.16-5.698-13.139-13.482c0.02-7.45,5.662-13.081,13.125-13.097c2.83-0.006,5.658-0.008,8.498-0.008l13.397,0.004
			V96.06l-0.883,0.06c-0.283,0.022-0.552,0.044-0.819,0.045L127.996,96.174z M128.367,70.572c-2.839,0-5.667,0.002-8.496,0.008
			c-6.896,0.015-12.109,5.217-12.127,12.1c-0.02,7.205,5.087,12.453,12.143,12.479c2.703,0.01,5.406,0.014,8.109,0.014l12.063-0.01
			c0.229-0.001,0.461-0.02,0.705-0.038V70.577L128.367,70.572z M21.413,36.868c-1.501,0-2.998-0.3-4.45-0.893
			c-2.8-1.143-4.306-4.435-3.58-7.829c0.706-3.305,3.15-5.288,6.537-5.306c2.718-0.015,5.436-0.019,8.153-0.019l17.017,0.01
			l10.663,0l0.224,1.095l-4.091,1.644c-2.727,1.096-5.452,2.191-8.18,3.283c-1.693,0.678-3.385,1.362-5.075,2.046
			c-4.378,1.772-8.904,3.604-13.406,5.283C24.004,36.637,22.722,36.868,21.413,36.868z M28.073,23.821
			c-2.716,0-5.432,0.004-8.147,0.019c-2.884,0.015-4.964,1.703-5.564,4.515c-0.625,2.919,0.628,5.735,2.979,6.694
			c2.486,1.014,5.148,1.086,7.535,0.196c4.489-1.674,9.009-3.503,13.38-5.273c1.692-0.685,3.385-1.37,5.08-2.048
			c2.727-1.091,5.452-2.187,8.178-3.282l2.018-0.811L28.073,23.821z M122.031,36.671c-1.979,0-3.959-0.008-5.938-0.037
			c-0.561-0.008-1.5-0.397-1.757-1.011c-1.32-3.149-2.6-6.375-3.837-9.493l-0.771-1.941c-0.063-0.159-0.083-0.311-0.106-0.486
			c-0.01-0.079-0.021-0.168-0.04-0.275l-0.099-0.583h0.592c1.326,0,2.639-0.008,3.941-0.016c1.285-0.008,2.562-0.016,3.831-0.016
			c1.983,0,3.61,0.02,5.122,0.063c3.264,0.093,5.875,2.682,6.072,6.022c0.08,1.363,0.065,2.745,0.052,4.082
			c-0.006,0.595-0.013,1.19-0.011,1.785v1.725l-0.443,0.05c-0.13,0.015-0.252,0.033-0.369,0.05
			c-0.267,0.039-0.512,0.072-0.756,0.073L122.031,36.671z M110.668,23.844l0.762,1.918c1.235,3.114,2.514,6.335,3.829,9.475
			c0.066,0.134,0.54,0.393,0.85,0.397c1.974,0.029,3.948,0.037,5.923,0.037l5.48-0.011c0.186,0,0.371-0.027,0.571-0.056v-0.838
			c-0.002-0.6,0.005-1.2,0.011-1.799c0.014-1.319,0.028-2.684-0.05-4.012c-0.167-2.819-2.36-5.004-5.103-5.081
			c-1.502-0.043-3.12-0.063-5.094-0.063c-1.268,0-2.542,0.008-3.825,0.016C112.912,23.835,111.795,23.842,110.668,23.844z
			 M105.85,36.665c-2.396,0-4.746-0.005-7.095-0.03c-0.527-0.005-1.116-0.534-1.271-0.984c-1.223-3.57-2.409-7.153-3.597-10.736
			l-0.392-1.184c-0.054-0.162-0.046-0.308-0.038-0.461c0.004-0.065,0.008-0.142,0.008-0.237v-0.357l10.789-3.708l7.088,17.695
			L105.85,36.665z M94.452,23.394c-0.001,0.02-0.001,0.038,0.001,0.054l0.385,1.152c1.186,3.58,2.371,7.16,3.593,10.727
			c0.036,0.097,0.255,0.288,0.354,0.309c2.325,0.024,4.671,0.029,7.064,0.029l4.015-0.001l-6.184-15.44L94.452,23.394z
			 M94.449,36.563H35.667l-0.436-0.956L87.192,14.82L94.449,36.563z M38.034,35.563h55.026l-6.481-19.421L38.034,35.563z"/>
	</g>
	<g>
		<path fill-rule="evenodd" clip-rule="evenodd" fill="#A9A9A9" d="M22.292,44.668c0.706-0.002,1.415-0.041,2.118,0.006
			c1.235,0.083,2.116,1.02,2.076,2.145c-0.038,1.086-0.883,1.946-2.083,1.991c-1.411,0.053-2.827,0.059-4.238,0.003
			c-1.235-0.05-2.115-1.016-2.075-2.14c0.039-1.087,0.882-1.921,2.083-1.995C20.877,44.634,21.585,44.67,22.292,44.668z"/>
		<path fill="#A9A9A9" d="M22.198,49.852c-0.691,0-1.383-0.013-2.072-0.04c-1.764-0.071-3.097-1.465-3.035-3.174
			c0.058-1.609,1.328-2.853,3.021-2.958c0.289-0.018,0.579-0.024,0.87-0.024l1.254,0.012l0.678-0.008
			c0.523-0.009,1.046-0.018,1.563,0.017c1.776,0.119,3.069,1.485,3.009,3.178c-0.058,1.648-1.338,2.891-3.045,2.955
			C23.694,49.837,22.946,49.852,22.198,49.852z M20.981,45.656c-0.249,0-0.498,0.004-0.746,0.02
			c-0.676,0.042-1.125,0.447-1.146,1.033c-0.021,0.603,0.459,1.078,1.116,1.104c1.385,0.055,2.776,0.049,4.161-0.003
			c0.649-0.024,1.1-0.437,1.121-1.027c0.021-0.598-0.46-1.065-1.145-1.112c-0.462-0.03-0.928-0.02-1.393-0.012
			c-0.219,0.004-0.438,0.008-0.655,0.009L20.981,45.656z"/>
	</g>
	<g>
		<path fill-rule="evenodd" clip-rule="evenodd" fill="#A9A9A9" d="M39.151,48.821c-0.662,0.001-1.326,0.036-1.984-0.007
			c-1.187-0.077-2.039-0.925-2.076-2.005c-0.037-1.063,0.801-2.057,1.953-2.113c1.496-0.075,3.003-0.077,4.499,0.001
			c1.147,0.06,2.03,1.07,1.937,2.121c-0.104,1.158-0.795,1.862-1.947,1.985C40.747,48.887,39.946,48.82,39.151,48.821z"/>
		<path fill="#A9A9A9" d="M40.62,49.845c-0.25,0-0.501-0.006-0.751-0.012c-0.233-0.006-0.467-0.012-0.7-0.012l-0.605,0.007
			c-0.488,0.009-0.976,0.016-1.462-0.016c-1.688-0.11-2.955-1.358-3.01-2.969c-0.058-1.653,1.244-3.065,2.903-3.146
			c1.527-0.076,3.07-0.079,4.6,0.001c0.826,0.043,1.614,0.429,2.162,1.06c0.524,0.604,0.786,1.387,0.719,2.148
			c-0.147,1.637-1.208,2.717-2.837,2.891C41.301,49.833,40.961,49.845,40.62,49.845z M39.149,47.821c0.27,0,0.521,0.006,0.771,0.013
			c0.503,0.013,1.008,0.029,1.506-0.024c0.68-0.073,0.996-0.396,1.058-1.081c0.02-0.222-0.066-0.462-0.237-0.659
			c-0.193-0.223-0.469-0.359-0.755-0.374c-1.464-0.077-2.936-0.074-4.397-0.001c-0.622,0.031-1.021,0.583-1.004,1.08
			c0.021,0.58,0.479,0.999,1.142,1.042c0.433,0.028,0.865,0.019,1.298,0.012L39.149,47.821z"/>
	</g>
	<g>
		<path fill-rule="evenodd" clip-rule="evenodd" fill="#A9A9A9" d="M56.256,48.825c-0.618,0-1.235,0.018-1.853-0.004
			c-1.379-0.046-2.289-0.859-2.313-2.039c-0.024-1.212,0.936-2.083,2.376-2.109c1.235-0.023,2.472-0.027,3.706,0.001
			c1.367,0.031,2.295,0.872,2.313,2.037c0.02,1.169-0.902,2.049-2.244,2.109C57.581,48.849,56.917,48.825,56.256,48.825z"/>
		<path fill="#A9A9A9" d="M57.497,49.834l-1.241-0.01l-1.15,0.007c-0.245,0-0.491-0.003-0.737-0.011
			c-1.895-0.063-3.243-1.305-3.277-3.019c-0.016-0.8,0.271-1.549,0.811-2.109c0.615-0.639,1.52-1.001,2.547-1.021
			c1.247-0.025,2.498-0.029,3.747,0.001c1.881,0.043,3.264,1.313,3.29,3.021c0.028,1.724-1.316,3.039-3.199,3.124
			C58.023,49.831,57.76,49.834,57.497,49.834z M56.256,47.825l1.241,0.01c0.233,0,0.467-0.003,0.7-0.014
			c0.793-0.036,1.299-0.465,1.288-1.094c-0.012-0.755-0.697-1.04-1.335-1.054c-1.221-0.026-2.442-0.024-3.665,0
			c-0.493,0.009-0.898,0.154-1.144,0.407c-0.172,0.179-0.257,0.409-0.251,0.682c0.018,0.917,0.947,1.046,1.346,1.06
			c0.225,0.008,0.446,0.01,0.669,0.01L56.256,47.825z"/>
	</g>
	<g>
		<path fill-rule="evenodd" clip-rule="evenodd" fill="#A9A9A9" d="M73.22,48.818c-0.706,0-1.416,0.045-2.117-0.01
			c-1.174-0.093-2.018-0.992-2.012-2.063c0.004-1.078,0.842-2.002,2.017-2.055c1.453-0.065,2.913-0.065,4.366,0
			c1.179,0.053,2.013,0.977,2.012,2.057c0,1.073-0.848,1.944-2.016,2.07c-0.088,0.01-0.177,0.007-0.266,0.007
			c-0.661,0.001-1.323,0.001-1.984,0.001C73.22,48.823,73.22,48.82,73.22,48.818z"/>
		<path fill="#A9A9A9" d="M71.901,49.835c-0.293,0-0.585-0.008-0.877-0.03c-1.682-0.133-2.942-1.451-2.934-3.066
			c0.006-1.634,1.312-2.974,2.972-3.048c1.481-0.066,2.973-0.066,4.456,0c1.665,0.075,2.969,1.417,2.967,3.057
			c0,1.593-1.224,2.882-2.908,3.063c-0.089,0.01-0.181,0.013-0.273,0.013l-2.64,0c-0.027,0-0.056,0.001-0.084,0.001
			C72.354,49.831,72.128,49.835,71.901,49.835z M73.291,45.641c-0.714,0-1.427,0.016-2.139,0.048
			c-0.604,0.027-1.06,0.482-1.062,1.059c-0.003,0.567,0.455,1.013,1.091,1.063c0.449,0.036,0.905,0.026,1.359,0.016
			c0.227-0.004,0.453-0.009,0.679-0.009l2.084,0.006c0.72-0.073,1.182-0.515,1.182-1.078c0.001-0.586-0.443-1.03-1.057-1.058
			C74.717,45.657,74.004,45.641,73.291,45.641z"/>
	</g>
	<g>
		<path fill-rule="evenodd" clip-rule="evenodd" fill="#A9A9A9" d="M90.403,48.822c-0.75-0.001-1.503,0.041-2.25-0.011
			c-1.188-0.082-2.037-0.943-2.068-2.017c-0.031-1.109,0.868-2.071,2.1-2.117c1.41-0.052,2.826-0.049,4.236,0.006
			c1.182,0.047,2.033,0.933,2.064,2.011c0.033,1.116-0.857,2.039-2.096,2.121C91.729,48.858,91.065,48.823,90.403,48.822z"/>
		<path fill="#A9A9A9" d="M89.014,49.837c-0.311,0-0.62-0.007-0.93-0.028c-1.69-0.117-2.951-1.372-2.999-2.985
			c-0.048-1.699,1.298-3.08,3.063-3.146c1.435-0.051,2.876-0.05,4.313,0.006c1.678,0.066,2.978,1.348,3.025,2.981
			c0.05,1.676-1.253,3.03-3.029,3.148c-0.489,0.031-0.976,0.023-1.465,0.016l-0.59-0.007c0,0-0.001,0-0.002,0
			c-0.245,0-0.466,0.004-0.688,0.007C89.479,49.833,89.246,49.837,89.014,49.837z M90.216,45.64c-0.666,0-1.331,0.012-1.994,0.037
			c-0.654,0.024-1.153,0.503-1.137,1.089c0.017,0.571,0.484,1.002,1.138,1.047c0.483,0.034,0.971,0.024,1.456,0.016
			c0.233-0.004,0.466-0.008,0.698-0.008l0.648,0.007c0.434,0.008,0.869,0.017,1.299-0.012c0.69-0.045,1.179-0.505,1.161-1.093
			c-0.017-0.579-0.48-1.017-1.104-1.042C91.661,45.654,90.938,45.64,90.216,45.64z"/>
	</g>
	<g>
		<path fill-rule="evenodd" clip-rule="evenodd" fill="#A9A9A9" d="M107.222,48.821c-0.706,0.002-1.416,0.047-2.117-0.008
			c-1.164-0.092-2.012-0.996-2.015-2.069c-0.003-1.082,0.835-2.004,2.013-2.056c1.455-0.063,2.916-0.066,4.369-0.003
			c1.164,0.051,2.012,0.991,2.015,2.063c0.003,1.08-0.837,1.974-2.014,2.06C108.726,48.863,107.972,48.819,107.222,48.821z"/>
		<path fill="#A9A9A9" d="M105.897,49.84c-0.291,0-0.582-0.007-0.871-0.03c-1.67-0.132-2.932-1.449-2.937-3.063
			c-0.005-1.641,1.3-2.984,2.969-3.058c1.485-0.064,2.975-0.067,4.457-0.003c1.661,0.072,2.966,1.417,2.971,3.06
			c0.005,1.622-1.26,2.937-2.94,3.06c-0.54,0.039-1.084,0.032-1.626,0.022c-0.47-0.009-0.934-0.007-1.316,0.002
			C106.368,49.835,106.133,49.84,105.897,49.84z M107.338,45.639c-0.73,0-1.462,0.017-2.191,0.048
			c-0.604,0.026-1.059,0.479-1.057,1.054c0.002,0.564,0.472,1.026,1.094,1.075c0.454,0.036,0.916,0.024,1.378,0.015
			c0.221-0.005,0.472-0.031,0.664-0.01c0.276,0,0.502,0.004,0.729,0.007c0.481,0.009,0.966,0.019,1.445-0.018
			c0.632-0.046,1.089-0.492,1.087-1.059c-0.001-0.502-0.397-1.039-1.059-1.067C108.732,45.654,108.036,45.639,107.338,45.639z"/>
	</g>
	<g>
		<path fill-rule="evenodd" clip-rule="evenodd" fill="#A9A9A9" d="M124.236,48.819c-0.706,0-1.415,0.042-2.118-0.009
			c-1.169-0.084-2.019-0.974-2.027-2.049c-0.01-1.071,0.834-2.017,2.001-2.07c1.453-0.067,2.914-0.066,4.367-0.002
			c1.175,0.052,2.022,0.977,2.032,2.046c0.008,1.113-0.893,2.016-2.137,2.086c-0.705,0.04-1.412,0.007-2.118,0.007
			C124.236,48.825,124.236,48.822,124.236,48.819z"/>
		<path fill="#A9A9A9" d="M125.559,49.84l-2.008-0.013c-0.502,0.009-1.005,0.015-1.505-0.02c-1.671-0.12-2.941-1.426-2.955-3.038
			c-0.015-1.648,1.283-3,2.955-3.078c1.483-0.069,2.976-0.067,4.457-0.002c1.661,0.073,2.974,1.407,2.988,3.036
			c0.012,1.665-1.313,2.994-3.08,3.094C126.127,49.835,125.843,49.84,125.559,49.84z M125.236,47.837l0.322,0.003
			c0.246,0,0.493-0.004,0.739-0.018c0.695-0.039,1.197-0.494,1.193-1.081c-0.005-0.573-0.468-1.027-1.076-1.054
			c-1.425-0.062-2.854-0.063-4.277,0.002c-0.661,0.03-1.052,0.564-1.047,1.062c0.005,0.57,0.467,1.015,1.099,1.061
			c0.456,0.033,0.91,0.023,1.368,0.015c0.227-0.004,0.452-0.008,0.679-0.008L125.236,47.837z"/>
	</g>
	<g>
		<path fill-rule="evenodd" clip-rule="evenodd" fill="#A9A9A9" d="M22.178,125.322c-0.661,0-1.325,0.035-1.985-0.008
			c-1.254-0.08-2.129-0.982-2.102-2.111c0.025-1.078,0.872-1.969,2.058-2.018c1.409-0.059,2.825-0.057,4.234-0.004
			c1.247,0.047,2.134,0.988,2.103,2.107c-0.029,1.08-0.873,1.922-2.059,2.027c-0.394,0.033-0.793,0.012-1.189,0.014
			c-0.354,0.002-0.707,0-1.06,0C22.178,125.328,22.178,125.326,22.178,125.322z"/>
		<path fill="#A9A9A9" d="M20.945,126.336c-0.273,0-0.546-0.006-0.818-0.023c-1.771-0.113-3.076-1.46-3.036-3.134
			c0.039-1.637,1.336-2.923,3.017-2.992c1.434-0.062,2.877-0.06,4.313-0.004c1.767,0.066,3.112,1.443,3.065,3.135
			c-0.043,1.586-1.292,2.846-2.97,2.995c-0.208,0.018-0.412,0.022-0.617,0.022l-0.607-0.005l-0.407,0.001l-1.378-0.001
			C21.319,126.333,21.132,126.336,20.945,126.336z M22.284,122.142c-0.698,0-1.397,0.014-2.094,0.043
			c-0.624,0.025-1.086,0.464-1.1,1.042c-0.015,0.598,0.465,1.045,1.165,1.09c0.23,0.015,0.46,0.02,0.689,0.02l0.6-0.007
			c0.211-0.003,0.422-0.007,0.633-0.007l1.721,0.013c0.148,0,0.297-0.003,0.444-0.015c0.666-0.06,1.127-0.485,1.143-1.059
			c0.017-0.592-0.474-1.056-1.14-1.081C23.659,122.155,22.972,122.142,22.284,122.142z"/>
	</g>
	<g>
		<path fill-rule="evenodd" clip-rule="evenodd" fill="#A9A9A9" d="M39.271,125.32c-0.706,0-1.415,0.039-2.117-0.008
			c-1.189-0.082-2.039-0.939-2.063-2.016c-0.025-1.072,0.805-2.045,1.965-2.102c1.496-0.074,3.004-0.09,4.498,0.006
			c1.154,0.074,1.834,0.83,1.922,1.994c0.079,1.061-0.801,2.008-1.955,2.107c-0.744,0.064-1.499,0.012-2.249,0.012
			C39.271,125.316,39.271,125.318,39.271,125.32z"/>
		<path fill="#A9A9A9" d="M37.946,126.336c-0.287,0-0.573-0.007-0.858-0.025c-1.701-0.117-2.96-1.375-2.997-2.991
			c-0.039-1.669,1.241-3.041,2.916-3.123c1.561-0.077,3.178-0.085,4.61,0.007c1.634,0.105,2.728,1.223,2.855,2.917
			c0.12,1.606-1.166,3.032-2.866,3.179c-0.548,0.049-1.103,0.039-1.657,0.025c-0.103-0.002-0.204-0.004-0.307-0.006l-0.371,0.002
			c-0.215,0-0.43,0.004-0.646,0.008C38.399,126.332,38.173,126.336,37.946,126.336z M39.37,122.135c-0.756,0-1.512,0.021-2.265,0.06
			c-0.643,0.031-1.026,0.584-1.015,1.079c0.013,0.568,0.479,0.996,1.132,1.041c0.346,0.024,0.697,0.024,1.049,0.019v-0.013l1-0.006
			c0.24,0,0.48,0.005,0.721,0.011c0.482,0.011,0.964,0.021,1.442-0.019c0.604-0.053,1.082-0.527,1.044-1.037
			c-0.067-0.896-0.564-1.043-0.989-1.07C40.82,122.156,40.106,122.135,39.37,122.135z"/>
	</g>
	<g>
		<path fill-rule="evenodd" clip-rule="evenodd" fill="#A9A9A9" d="M56.341,121.174c0.705,0,1.414-0.043,2.117,0.008
			c1.168,0.084,2.019,0.975,2.027,2.049c0.01,1.072-0.834,2.018-2.002,2.07c-1.453,0.068-2.913,0.068-4.367,0.002
			c-1.175-0.051-2.021-0.977-2.031-2.045c-0.008-1.115,0.893-2.016,2.137-2.086c0.705-0.041,1.412-0.008,2.118-0.008
			C56.34,121.168,56.34,121.17,56.341,121.174z"/>
		<path fill="#A9A9A9" d="M56.284,126.353c-0.738,0-1.477-0.018-2.214-0.051c-1.658-0.071-2.971-1.405-2.985-3.035
			c-0.012-1.664,1.313-2.993,3.08-3.093c0.287-0.017,0.576-0.022,0.865-0.022l2.034,0.013c0.489-0.009,0.978-0.015,1.466,0.021
			c1.671,0.12,2.941,1.426,2.955,3.038c0.015,1.649-1.284,3.002-2.957,3.077C57.783,126.335,57.033,126.353,56.284,126.353z
			 M55.03,122.151c-0.25,0-0.501,0.004-0.751,0.019c-0.696,0.04-1.198,0.494-1.194,1.081c0.005,0.573,0.467,1.026,1.074,1.053
			c1.428,0.065,2.855,0.066,4.277-0.002c0.663-0.03,1.054-0.563,1.049-1.063c-0.005-0.569-0.467-1.015-1.099-1.061
			c-0.455-0.032-0.908-0.022-1.361-0.014c-0.229,0.005-0.457,0.009-0.685,0.009L55.03,122.151z"/>
	</g>
	<g>
		<path fill-rule="evenodd" clip-rule="evenodd" fill="#A9A9A9" d="M73.259,125.328c-0.662,0-1.325,0.027-1.986-0.006
			c-1.262-0.061-2.156-0.916-2.183-2.041c-0.025-1.127,0.857-2.055,2.108-2.1c1.41-0.051,2.826-0.059,4.236,0
			c1.176,0.049,2.027,0.951,2.052,2.029c0.026,1.125-0.858,2.031-2.108,2.105c-0.704,0.041-1.412,0.006-2.119,0.006
			C73.259,125.324,73.259,125.326,73.259,125.328z"/>
		<path fill="#A9A9A9" d="M72.022,126.339c-0.267,0-0.533-0.005-0.8-0.018c-1.775-0.086-3.094-1.354-3.133-3.017
			c-0.038-1.688,1.312-3.06,3.072-3.122c1.437-0.054,2.878-0.062,4.314,0c1.679,0.069,2.973,1.361,3.01,3.006
			c0.039,1.676-1.271,3.021-3.049,3.126c-0.51,0.03-1.017,0.023-1.524,0.015c-0.077-0.001-0.154-0.002-0.232-0.004L72.022,126.339z
			 M73.392,122.141c-0.72,0-1.439,0.015-2.157,0.04c-0.677,0.024-1.158,0.478-1.145,1.078c0.014,0.602,0.509,1.03,1.23,1.064
			c0.235,0.012,0.469,0.016,0.702,0.016l1.236-0.017c0.229,0,0.457,0.004,0.686,0.007c0.46,0.008,0.918,0.015,1.375-0.011
			c0.701-0.042,1.182-0.487,1.167-1.084c-0.013-0.585-0.473-1.027-1.093-1.054C74.727,122.153,74.06,122.141,73.392,122.141z"/>
	</g>
	<g>
		<path fill-rule="evenodd" clip-rule="evenodd" fill="#A9A9A9" d="M90.183,125.316c-0.706,0-1.416,0.047-2.117-0.01
			c-1.152-0.096-2.038-1.033-1.965-2.098c0.081-1.166,0.764-1.928,1.914-2.006c1.492-0.102,3.001-0.082,4.498-0.01
			c1.162,0.057,2.002,1.029,1.979,2.094c-0.024,1.072-0.882,1.949-2.059,2.029c-0.747,0.049-1.5,0.008-2.25,0.008
			C90.183,125.322,90.183,125.32,90.183,125.316z"/>
		<path fill="#A9A9A9" d="M91.595,126.341c-0.241,0-0.482-0.005-0.724-0.009c-0.229-0.004-0.459-0.008-0.688-0.008h-0.588
			c-0.018,0-0.035,0.001-0.053,0.001c-0.517,0.011-1.041,0.021-1.557-0.021c-1.701-0.142-2.993-1.561-2.883-3.163
			c0.118-1.7,1.208-2.824,2.845-2.936c1.42-0.097,3.03-0.088,4.613-0.011c1.652,0.081,2.967,1.478,2.931,3.115
			c-0.037,1.6-1.322,2.891-2.99,3.005C92.197,126.334,91.896,126.341,91.595,126.341z M91.183,124.337
			c0.396,0.006,0.791,0.007,1.185-0.019c0.638-0.043,1.111-0.486,1.124-1.054c0.011-0.491-0.379-1.041-1.027-1.072
			c-1.504-0.072-3.04-0.083-4.381,0.009c-0.393,0.026-0.922,0.167-0.984,1.077c-0.035,0.509,0.445,0.981,1.05,1.032
			c0.446,0.035,0.9,0.024,1.353,0.016c0.228-0.005,0.455-0.01,0.682-0.01L91.183,124.337z"/>
	</g>
	<g>
		<path fill-rule="evenodd" clip-rule="evenodd" fill="#A9A9A9" d="M107.315,121.17c0.662-0.002,1.326-0.029,1.985,0.004
			c1.272,0.064,2.165,0.912,2.185,2.033c0.021,1.121-0.861,2.057-2.108,2.104c-1.409,0.053-2.825,0.055-4.234-0.004
			c-1.193-0.051-2.028-0.934-2.052-2.021c-0.025-1.117,0.865-2.031,2.107-2.107C105.901,121.135,106.61,121.17,107.315,121.17z"/>
		<path fill="#A9A9A9" d="M107.278,126.351c-0.727,0-1.452-0.015-2.178-0.045c-1.681-0.071-2.975-1.36-3.01-2.999
			c-0.038-1.674,1.271-3.019,3.046-3.127c0.512-0.031,1.025-0.023,1.537-0.017l0.642,0.007l1.246-0.013
			c0.264,0,0.527,0.005,0.79,0.018c1.787,0.091,3.104,1.358,3.134,3.015c0.03,1.684-1.318,3.055-3.071,3.12
			C108.703,126.337,107.991,126.351,107.278,126.351z M106,122.156c-0.247,0-0.494,0.005-0.741,0.02
			c-0.69,0.042-1.182,0.499-1.168,1.087c0.013,0.589,0.463,1.018,1.095,1.045c1.38,0.059,2.771,0.056,4.154,0.004
			c0.675-0.025,1.156-0.482,1.146-1.086c-0.011-0.603-0.495-1.016-1.235-1.053c-0.229-0.012-0.458-0.016-0.688-0.016l-1.243,0.013
			c-0.227,0-0.451-0.004-0.676-0.007L106,122.156z"/>
	</g>
	<g>
		<path fill-rule="evenodd" clip-rule="evenodd" fill="#A9A9A9" d="M124.261,125.322c-0.662,0.002-1.326,0.029-1.985-0.004
			c-1.273-0.064-2.165-0.912-2.185-2.033c-0.021-1.121,0.861-2.055,2.107-2.104c1.41-0.053,2.826-0.055,4.234,0.004
			c1.194,0.051,2.029,0.934,2.053,2.02c0.025,1.117-0.866,2.033-2.107,2.109C125.675,125.357,124.966,125.322,124.261,125.322z"/>
		<path fill="#A9A9A9" d="M125.576,126.336c-0.225,0-0.449-0.004-0.674-0.007l-0.642-0.007l-1.246,0.013
			c-0.264,0-0.527-0.005-0.79-0.018c-1.787-0.091-3.104-1.358-3.134-3.015c-0.03-1.681,1.317-3.052,3.068-3.12
			c1.439-0.056,2.88-0.058,4.315,0.004c1.682,0.071,2.976,1.359,3.011,2.997c0.038,1.675-1.271,3.021-3.046,3.129
			C126.152,126.33,125.864,126.336,125.576,126.336z M124.258,124.322c0.227,0,0.451,0.004,0.676,0.007l0.643,0.007
			c0.247,0,0.494-0.005,0.741-0.02c0.69-0.042,1.182-0.5,1.168-1.089c-0.013-0.588-0.463-1.016-1.095-1.043
			c-1.382-0.059-2.771-0.055-4.155-0.004c-0.674,0.026-1.155,0.483-1.145,1.086s0.495,1.016,1.235,1.053
			c0.229,0.012,0.458,0.016,0.688,0.016L124.258,124.322z"/>
	</g>
	<g>
		<path fill-rule="evenodd" clip-rule="evenodd" fill="#A9A9A9" d="M128.491,82.848c0.033,4.303-4.09,8.465-8.397,8.477
			c-4.348,0.014-8.456-4.025-8.509-8.365c-0.053-4.389,4.064-8.545,8.463-8.541C124.379,74.422,128.458,78.494,128.491,82.848z
			 M120.04,78.578c-2.664-0.002-4.296,1.631-4.296,4.295c0.001,2.676,1.618,4.291,4.294,4.287c2.689-0.006,4.284-1.6,4.289-4.287
			C124.331,80.195,122.718,78.578,120.04,78.578z"/>
		<path fill="#A9A9A9" d="M120.071,91.824c-4.646,0-8.93-4.223-8.986-8.859c-0.026-2.22,0.956-4.504,2.697-6.266
			c1.746-1.767,4.027-2.781,6.258-2.781c4.653,0.004,8.916,4.259,8.951,8.925c0.017,2.182-0.972,4.441-2.712,6.199
			c-1.743,1.762-3.997,2.775-6.185,2.781H120.071z M120.048,74.918c-1.974,0-3.995,0.905-5.554,2.484
			c-1.555,1.572-2.433,3.596-2.409,5.551c0.049,4.046,3.931,7.871,7.986,7.871v0.5l0.021-0.5c1.923-0.005,3.919-0.911,5.477-2.484
			c1.555-1.57,2.438-3.571,2.423-5.488C127.96,78.777,124.1,74.922,120.048,74.918z M120.039,87.66
			c-2.961,0-4.794-1.835-4.795-4.787c0-2.958,1.837-4.795,4.794-4.795h0.002c1.449,0,2.66,0.445,3.502,1.289
			c0.843,0.844,1.287,2.057,1.285,3.506C124.822,85.82,122.987,87.654,120.039,87.66z M120.038,79.078
			c-2.376,0-3.794,1.418-3.794,3.795c0.001,2.406,1.38,3.787,3.784,3.787c2.413-0.005,3.795-1.386,3.799-3.789
			c0.002-1.178-0.342-2.146-0.992-2.797c-0.65-0.652-1.617-0.996-2.795-0.996H120.038z"/>
	</g>
</g>
</svg>
