<?xml version="1.0" encoding="utf-8"?>
<!-- Generator: Adobe Illustrator 16.0.0, SVG Export Plug-In . SVG Version: 6.00 Build 0)  -->
<!DOCTYPE svg PUBLIC "-//W3C//DTD SVG 1.1//EN" "http://www.w3.org/Graphics/SVG/1.1/DTD/svg11.dtd">
<svg version="1.1" id="Capa_1" xmlns="http://www.w3.org/2000/svg" xmlns:xlink="http://www.w3.org/1999/xlink" x="0px" y="0px"
	 width="150px" height="150px" viewBox="0 0 150 150" enable-background="new 0 0 150 150" xml:space="preserve">
<g>
	<linearGradient id="SVGID_1_" gradientUnits="userSpaceOnUse" x1="15.3813" y1="75" x2="134.6191" y2="75">
		<stop  offset="0" style="stop-color:#F15DB4"/>
		<stop  offset="1" style="stop-color:#FF8E20"/>
	</linearGradient>
	<path fill="url(#SVGID_1_)" d="M134.444,131.02l-19.008-45.89c-0.484-1.169-1.824-1.725-2.994-1.24
		c-1.169,0.485-1.724,1.824-1.239,2.994l17.184,41.484l-15.675-4.542c-1.028-0.298-2.127,0.157-2.644,1.096l-7.872,14.295
		L83.759,94.702c21.28-4.104,37.404-22.865,37.404-45.326c0-25.455-20.708-46.165-46.163-46.165S28.835,23.921,28.835,49.376
		c0,10.31,3.398,19.841,9.133,27.534L15.556,131.02c-0.337,0.813-0.178,1.748,0.41,2.404s1.499,0.918,2.345,0.673l18.492-5.359
		l9.286,16.866c0.405,0.732,1.176,1.186,2.007,1.186c0.042,0,0.085-0.002,0.127-0.004c0.88-0.049,1.654-0.597,1.99-1.411
		l17.76-42.876c0.484-1.168-0.071-2.509-1.241-2.993c-1.169-0.483-2.51,0.071-2.994,1.24l-15.936,38.472l-7.871-14.295
		c-0.518-0.938-1.617-1.394-2.645-1.096l-15.674,4.542l19.672-47.493C49.717,89.893,61.71,95.54,75,95.54
		c1.372,0,2.729-0.063,4.07-0.182l20.718,50.016c0.336,0.814,1.11,1.362,1.989,1.411c0.043,0.002,0.085,0.004,0.129,0.004
		c0.829,0,1.601-0.453,2.006-1.186l9.286-16.866l18.492,5.359c0.846,0.245,1.758-0.017,2.345-0.673S134.781,131.833,134.444,131.02
		L134.444,131.02z M33.418,49.376C33.418,26.447,52.072,7.793,75,7.793c22.929,0,41.581,18.654,41.581,41.583
		c0,22.928-18.652,41.582-41.581,41.582C52.072,90.958,33.418,72.304,33.418,49.376z"/>
	<linearGradient id="SVGID_2_" gradientUnits="userSpaceOnUse" x1="48.4146" y1="46.9365" x2="101.585" y2="46.9365">
		<stop  offset="0" style="stop-color:#F15DB4"/>
		<stop  offset="1" style="stop-color:#FF8E20"/>
	</linearGradient>
	<path fill="url(#SVGID_2_)" d="M101.473,40.774c-0.264-0.812-0.958-1.41-1.799-1.551l-15.418-2.587l-7.224-13.862
		c-0.395-0.758-1.178-1.232-2.032-1.232s-1.638,0.475-2.032,1.232l-7.224,13.862l-15.418,2.587
		c-0.841,0.141-1.535,0.739-1.799,1.551c-0.264,0.812-0.054,1.704,0.544,2.313l10.952,11.154l-2.303,15.462
		c-0.126,0.845,0.229,1.688,0.92,2.191c0.691,0.501,1.603,0.578,2.368,0.197L75,65.124l13.993,6.968
		c0.323,0.162,0.673,0.24,1.021,0.24c0.476,0,0.948-0.147,1.348-0.438c0.69-0.502,1.046-1.346,0.919-2.191l-2.303-15.461
		l10.951-11.155C101.527,42.478,101.737,41.586,101.473,40.774z M85.908,51.846c-0.504,0.513-0.737,1.232-0.632,1.942l1.825,12.242
		l-11.08-5.517c-0.322-0.16-0.672-0.241-1.021-0.241s-0.699,0.08-1.021,0.241L62.9,66.03l1.823-12.242
		c0.106-0.71-0.128-1.43-0.632-1.942l-8.67-8.832l12.206-2.048c0.708-0.119,1.321-0.563,1.652-1.201L75,28.789l5.721,10.976
		c0.332,0.638,0.944,1.082,1.652,1.201l12.206,2.048L85.908,51.846L85.908,51.846z"/>
	<linearGradient id="SVGID_3_" gradientUnits="userSpaceOnUse" x1="38.0005" y1="49.376" x2="111.6973" y2="49.376">
		<stop  offset="0" style="stop-color:#F15DB4"/>
		<stop  offset="1" style="stop-color:#FF8E20"/>
	</linearGradient>
	<path fill="url(#SVGID_3_)" d="M109.707,51.687c-1.255-0.168-2.407,0.715-2.572,1.97C105.009,69.697,91.194,81.794,75,81.794
		c-17.875,0-32.417-14.543-32.417-32.418C42.583,31.5,57.125,16.958,75,16.958c16.194,0,30.009,12.095,32.135,28.136
		c0.165,1.254,1.32,2.139,2.572,1.97c1.254-0.166,2.136-1.317,1.97-2.572C109.251,26.183,93.483,12.375,75,12.375
		c-20.402,0-37,16.599-37,37c0,20.401,16.598,37,37,37c18.483,0,34.251-13.808,36.678-32.118
		C111.843,53.004,110.961,51.853,109.707,51.687z"/>
</g>
</svg>
