<?xml version="1.0" encoding="utf-8"?>
<!-- Generator: Adobe Illustrator 16.0.0, SVG Export Plug-In . SVG Version: 6.00 Build 0)  -->
<!DOCTYPE svg PUBLIC "-//W3C//DTD SVG 1.1//EN" "http://www.w3.org/Graphics/SVG/1.1/DTD/svg11.dtd">
<svg version="1.1" id="flag-icon-css-am" xmlns="http://www.w3.org/2000/svg" xmlns:xlink="http://www.w3.org/1999/xlink" x="0px"
	 y="0px" width="150px" height="150px" viewBox="0 0 150 150" enable-background="new 0 0 150 150" xml:space="preserve">
<g>
	<path fill="#00A7FF" d="M83.402,48.452l7.293-0.376l0.033-1.78l-3.902,0.205l0.035-1.472l3.355-0.171l0.033-1.78l-3.355,0.171
		l0.035-1.472l3.904-0.205l0.033-1.78l-7.293,0.376L83.402,48.452L83.402,48.452z M79.055,40.509l-6.129,0.617l-0.103,8.32
		l6.128-0.617c1.473-0.137,2.227-0.993,2.227-2.533l0.068-3.698C81.246,41.057,80.527,40.373,79.055,40.509z M77.822,46.021
		c0,0.788-0.377,1.199-1.131,1.268l-0.479,0.033l0.069-4.758l0.479-0.035c0.721-0.068,1.096,0.274,1.096,1.062L77.822,46.021
		L77.822,46.021z M64.059,42.496l-2.67,8.764l3.492-0.548l0.411-1.711l2.157-0.343l0.341,1.574l3.494-0.547l-2.432-7.909
		L64.059,42.496L64.059,42.496z M65.668,47.221l0.753-3.082l0.616,2.875L65.668,47.221z M125.617,41.194l-6.129-0.65l-0.102,8.319
		l6.127,0.65c1.473,0.172,2.227-0.547,2.227-2.088l0.068-3.664C127.842,42.187,127.09,41.331,125.617,41.194z M124.383,46.467
		c0,0.788-0.375,1.129-1.129,1.061l-0.479-0.069l0.068-4.758l0.479,0.034c0.719,0.068,1.098,0.513,1.098,1.267L124.383,46.467
		L124.383,46.467z M137.291,44.584l0.035-1.78l-7.26-1.095l-0.102,8.319l7.225,1.062l0.033-1.78l-3.869-0.583l0.035-1.471
		l3.32,0.479l0.035-1.78l-3.32-0.479l0.033-1.472L137.291,44.584L137.291,44.584z M96.48,39.654l-3.389,0.034l-0.102,8.32
		l7.291-0.068l0.033-1.78l-3.902,0.034L96.48,39.654L96.48,39.654z M113.736,48.487l3.391,0.238l0.102-8.319l-3.389-0.24
		L113.736,48.487z M104.527,39.722l-2.705,8.251l3.527,0.137l0.41-1.609l2.191,0.068l0.342,1.644l3.527,0.137l-2.467-8.422
		L104.527,39.722z M106.17,44.721l0.754-2.944l0.615,2.979L106.17,44.721z"/>
	<path fill="#00A7FF" d="M148.18,90.222c-0.24-0.925-1.164-4.245-1.303-4.896c-0.17-0.65-0.855-0.787-1.197-0.855
		c-15.305-2.226-31.703-3.355-45.877-3.424c-1.609-4.998-3.355-10.305-4.348-13.352c5.34-5.41,13.385-13.421,13.934-13.936
		c0.309-0.308,0.65-0.924-0.068-0.992c-0.205,0-3.389-0.172-3.801-0.172c-0.41,0-0.924,0.138-1.199,0.344
		c-0.719,0.479-5.512,5.546-8.934,9.174c1.814-4.587,3.25-8.284,3.422-8.73c0.24-0.649-0.068-0.992-0.65-1.026
		c-0.615-0.034-2.498,0-3.285,0c-0.549,0-0.789,0.239-0.893,0.548c0,0-8.25,21.227-8.42,21.706
		c-0.172,0.479-0.377,0.855,0.273,1.369c0.992,0.787,1.85,1.541,2.328,1.918c0.479,0.376,0.959,0.137,1.232-0.514
		c0.684-1.678,2.568-6.471,2.568-6.471s1.643,4.998,3.354,10.168c-17.324,0.377-34.682,2.329-48.547,5.479L18.694,63.483
		c7.224-6.301,20.782-11.094,25.37-12.121l0.856-0.171l-1.814,4.28c0,0-0.274,0.685,0.274,1.061c0.445,0.309,1.541,0.96,2.534,1.574
		c0.445,0.274,0.856,0.378,1.232-0.513c0.65-1.643,3.287-8.113,3.561-8.901c0.205-0.616,0.103-0.856-0.24-1.164
		c-0.514-0.445-1.438-1.164-1.952-1.541c-0.342-0.24-0.856-0.445-1.575-0.309c-2.568,0.583-21.261,5.478-33.244,15.784
		c-1.678,1.472-0.411,3.595,0.582,4.382c0.993,0.788,26.636,22.117,26.636,22.117c-16.57,4.451-29.238,10.579-37.284,17.905
		c-0.583,0.549-1.677,1.713-0.479,2.671c0.685,0.583,1.952,1.576,2.773,2.26c0.924,0.753,2.02,0.719,2.979,0.787
		c0.753,0.035,9.175-0.034,20.302-4.005c14.825-5.307,20.61-11.813,22.425-15.099c0.445-0.754,0.376-1.199,0.171-1.507
		c0.513-0.103,0.958-0.205,1.369-0.273c11.88-2.363,27.425-4.109,43.892-4.212c1.027,3.082,1.816,5.479,1.953,5.854
		c0.068,0.206,0.273,0.96,0.957,0.96c0.412,0,1.953,0.033,2.773,0.033c0.961,0,0.891-0.411,0.754-0.821
		c-0.309-0.992-1.027-3.219-1.918-5.991c13.422,0.308,29.684,1.678,45.844,4.45C147.768,91.077,148.453,91.18,148.18,90.222
		L148.18,90.222z M44.817,93.611c-2.533,2.67-8.56,7.019-16.981,9.826c-8.663,2.875-14.654,3.561-17.461,3.8
		c-1.13,0.103-1.814,0.035-1.814,0.035c4.964-3.218,15.681-9.931,36.907-14.894c0.103-0.035,0.206-0.035,0.309-0.068
		C45.468,92.926,44.817,93.611,44.817,93.611L44.817,93.611z M32.663,66.394c-0.342,0.137-0.788,0.444-0.274,0.821l0.788,0.616
		c0.342,0.273,0.993,0.068,1.438-0.104c0.855-0.308,7.498-2.637,14.516-4.348c-2.636,6.744-5.82,14.893-5.888,15.098
		c-0.171,0.479-0.377,0.856,0.273,1.371c0.924,0.752,1.883,1.471,2.363,1.849c0.479,0.342,1.027-0.104,1.267-0.378
		c5.581-7.053,10.784-12.427,14.961-15.475c-0.651,1.645-2.91,7.292-3.458,8.696c-0.273,0.686-0.548,1.369-0.753,1.952
		c-0.308,0.82-0.479,1.198-0.514,1.266c-0.171,0.48-0.377,0.856,0.274,1.37c0.822,0.685,1.814,1.507,2.328,1.884
		c0.479,0.376,0.993,0.067,1.233-0.549c0.992-2.464,1.746-4.177,2.02-4.861c2.431-5.991,6.539-9.277,7.394-9.963
		c-0.581,1.507-1.746,4.006-1.813,4.178c-0.172,0.478-0.377,0.855,0.273,1.369c0.822,0.685,1.814,1.54,2.328,1.95
		c0.479,0.378,0.957,0.137,1.232-0.514c0,0,2.602-6.641,2.943-7.565c0.24-0.65,0.104-0.891-0.205-1.198
		c-0.342-0.308-1.711-1.438-2.26-1.883c-0.377-0.273-0.787-0.104-1.096,0.068c-2.636,1.54-4.861,3.731-5.101,3.938
		c0,0,0.308-0.685,0.376-0.892c0.24-0.65,0.104-0.889-0.205-1.163c-0.342-0.309-1.644-1.336-2.191-1.746
		c-0.616-0.445-1.403,0.034-1.883,0.377c-4.143,2.739-9.278,6.779-12.873,11.093c0.959-2.432,2.979-7.669,4.485-11.606
		c7.498-1.678,16.468-3.252,25.813-3.869c-0.17-0.753-0.205-1.575-0.033-2.465c0.137-0.719,0.342-1.403,0.65-2.054
		c-2.533,0.239-14.002,1.608-24.993,4.69c1.096-2.876,1.438-3.869,1.541-4.144c0.239-0.65,0.137-0.959-0.206-1.198
		c-0.342-0.273-1.986-1.574-2.5-1.985c-0.582-0.479-1.027,0.137-1.129,0.445c0,0-1.267,3.286-3.184,8.388
		C50.5,59.922,39.921,63.141,32.663,66.394L32.663,66.394z M133.354,77.075c-0.992-0.479-1.334-1.302-1.23-1.952
		c0.033-0.343,0.033-0.719-0.48-1.062c-0.754-0.547-1.746-1.267-2.396-1.712c-0.342-0.239-0.891-0.376-1.232,0.548
		c-0.514,1.302-0.309,4.349,4.074,6.505c2.979,1.473,6.848,1.574,8.764-1.608c1.508-2.465,0.789-5.238-1.643-8.013
		c-2.5-2.842,0.205-6.572,1.779-5.99c0.926,0.343,0.754,1.062,0.652,1.712c-0.07,0.342,0.238,0.513,0.65,0.822
		c0.479,0.341,1.678,1.231,2.361,1.711c0.273,0.206,0.582,0.034,0.719-0.309c1.027-2.533,0.275-5.032-3.012-6.505
		c-3.596-1.608-6.951,0.309-7.773,3.39c-0.615,2.294,0.207,4.28,1.609,6.368C138.422,74.336,135.512,78.102,133.354,77.075
		L133.354,77.075z M101.822,71.083c-0.891,0.104-1.438,0.137-2.02,0.137c-0.273,0-0.377,0.377-0.172,0.754
		c0.205,0.343,0.445,0.548,0.992,0.856c0.582,0.307,1.609,0.513,1.609,0.513c0.582,1.917,2.363,3.971,6.506,4.314
		c2.771,0.239,5.102-0.549,6.676-1.301c0.068,0.102,0.205,0.171,0.344,0.308c0.957,0.821,1.779,1.472,2.328,1.849
		c0.479,0.343,0.957,0.137,1.23-0.513c0.994-2.466,1.814-4.349,2.09-5.034c2.43-5.99,6.539-9.277,7.395-9.962
		c-0.582,1.506-1.746,4.04-1.814,4.211c-0.172,0.479-0.377,0.855,0.273,1.369c0.924,0.754,1.779,1.507,2.328,1.917
		c0.479,0.377,0.959,0.138,1.232-0.513c0,0,2.396-6.129,2.738-7.054c0.24-0.65,0.104-0.89-0.205-1.164
		c-0.342-0.308-1.951-1.609-2.465-1.985c-0.377-0.309-0.889,0-1.197,0.171c-2.637,1.541-4.383,3.253-4.588,3.458
		c0,0,0.238-0.581,0.309-0.786c0.205-0.549,0.102-0.788-0.24-1.063c-0.344-0.273-1.918-1.541-2.465-1.986
		c-0.65-0.513-0.994,0.206-1.199,0.72c0,0-2.566,6.436-2.602,6.471c-2.156,5.443-6.539,8.389-9.381,8.252
		c-2.396-0.104-2.67-1.748-2.67-1.748c5.41-0.581,8.354-3.594,9.619-7.634c0.994-3.184-0.307-5.239-2.465-6.368
		c-2.395-1.267-5.443-0.72-8.25,2.054C103.74,63.242,101.926,66.701,101.822,71.083L101.822,71.083z M108.738,64.954
		c1.197-1.677,3.252-3.526,3.629-3.251c0.377,0.273-0.514,2.293-1.986,4.622c-0.615,0.957-2.225,3.251-3.938,3.937
		C106.58,68.652,107.574,66.598,108.738,64.954L108.738,64.954z M78.541,62.456c-0.787-0.069-0.822,0.514-0.41,0.821
		c0.686,0.514,1.916,1.575,1.916,1.575c-1.574,4.108-4.074,10.374-4.177,10.716c-0.171,0.479-0.377,0.855,0.272,1.369
		c0.789,0.65,1.918,1.54,2.398,1.918c0.48,0.376,0.959,0.138,1.232-0.515c3.082-7.737,5.205-13.558,5.582-14.447
		c0.238-0.651,0.102-0.89-0.205-1.198c-0.377-0.342-1.781-1.54-2.33-1.952c-0.377-0.238-0.752-0.137-0.924,0.206
		C81.383,61.635,80.322,62.628,78.541,62.456L78.541,62.456z M85.457,59.34c1.848-0.034,3.664-1.712,4.006-3.766
		c0.342-2.021-0.891-3.629-2.74-3.595c-1.848,0.034-3.662,1.711-4.004,3.766C82.375,57.765,83.607,59.374,85.457,59.34L85.457,59.34
		z"/>
	<path d="M106.443,70.262c0,0,2.467-0.686,4.896-4.451c1.506-2.327,2.328-4.074,1.918-4.383c-0.342-0.272-0.959,0.035-1.473,0.445
		h0.035c0.273-0.137,0.445-0.205,0.547-0.137c0.377,0.274-0.514,2.294-1.986,4.622C109.766,67.282,108.156,69.576,106.443,70.262
		L106.443,70.262z M85.457,59.34c1.096-0.034,2.191-0.616,2.945-1.54c-0.686,0.581-1.508,0.924-2.363,0.957
		c-1.85,0.036-3.082-1.574-2.738-3.594c0.137-0.821,0.514-1.609,1.061-2.225c-0.822,0.685-1.438,1.678-1.643,2.807
		C82.375,57.765,83.607,59.374,85.457,59.34z M106.752,73.273c2.088-0.238,3.801-0.82,5.205-1.677
		c-1.199,0.582-3.391,1.233-5.273,1.301C106.684,72.897,106.719,73.137,106.752,73.273L106.752,73.273z M140.988,63.825
		c0.926,0.342,0.754,1.061,0.652,1.712c-0.07,0.342,0.238,0.514,0.65,0.821c0.479,0.343,1.678,1.231,2.361,1.712
		c0.273,0.205,0.582,0.034,0.719-0.308c0-0.035,0-0.035,0.033-0.068c-0.068,0-0.102-0.035-0.17-0.069
		c-0.65-0.479-1.883-1.369-2.361-1.712c-0.412-0.273-0.686-0.479-0.65-0.822c0.102-0.65,0.273-1.369-0.652-1.711
		c-0.514-0.171-1.129,0.104-1.678,0.65C140.271,63.757,140.646,63.688,140.988,63.825L140.988,63.825z M135.82,76.424
		c1.506-0.924,2.531-3.526,0.959-5.923c-1.406-2.089-2.227-4.074-1.609-6.367c0.273-0.993,0.82-1.884,1.539-2.568
		c-1.025,0.719-1.779,1.78-2.123,3.047c-0.615,2.294,0.207,4.28,1.609,6.368C137.564,73.035,136.984,75.26,135.82,76.424z
		 M80.801,64.44c0,0-1.438-1.198-2.123-1.711c-0.102-0.068-0.17-0.138-0.205-0.239c-0.754-0.034-0.787,0.514-0.377,0.821
		c0.684,0.514,1.918,1.574,1.918,1.574c-1.576,4.109-4.074,10.374-4.178,10.717c-0.171,0.479-0.377,0.855,0.273,1.369
		c0.789,0.65,1.918,1.541,2.398,1.917c0.443,0.377,0.924,0.138,1.197-0.411c-0.205,0.035-0.41,0-0.615-0.171
		c-0.48-0.376-1.404-1.095-2.191-1.746c-0.65-0.513-0.445-0.889-0.275-1.369C76.727,74.815,79.227,68.516,80.801,64.44L80.801,64.44
		z M116.168,75.979c-0.24,0.104-0.48,0.24-0.787,0.378c0,0.137,2.121,1.779,2.67,2.156c0.377,0.273,0.754,0.206,1.027-0.172
		c-0.068-0.034-0.104-0.068-0.172-0.102c-0.549-0.377-1.336-1.062-2.328-1.85C116.475,76.253,116.27,76.082,116.168,75.979z
		 M129.932,62.011c-0.207,0.171-0.617,0.514-1.164,0.993c-0.617,1.473-1.748,4.04-1.781,4.177c-0.172,0.479-0.377,0.855,0.273,1.369
		c0.924,0.753,1.779,1.473,2.328,1.917c0.412,0.308,0.891,0.206,1.164-0.376c-0.17,0.103-0.309,0.068-0.377,0.033
		c-0.547-0.444-1.299-1.095-2.225-1.849c-0.65-0.513-0.445-0.89-0.273-1.369C127.877,66.77,129.314,63.517,129.932,62.011
		L129.932,62.011z M14.244,65.913c0.924,0.72,23.452,19.447,26.636,22.118c0.309-0.104,0.651-0.172,0.959-0.274
		c0,0-26.02-21.638-27.013-22.425c-0.891-0.686-2.02-2.534-0.993-3.938c-0.068,0.069-0.136,0.104-0.171,0.138
		C11.984,63.004,13.25,65.16,14.244,65.913L14.244,65.913z M9.484,110.97c-0.958-0.068-2.053,0-2.978-0.788
		c-0.822-0.65-2.089-1.678-2.773-2.259c-0.89-0.755-0.479-1.61,0.035-2.191l-0.103,0.103c-0.582,0.547-1.678,1.711-0.479,2.67
		c0.685,0.582,1.952,1.575,2.773,2.26c0.924,0.753,2.02,0.72,2.979,0.787c0.753,0.034,9.175-0.034,20.302-4.005
		c10.339-3.698,16.262-7.977,19.549-11.333c-3.39,3.287-9.209,7.258-18.967,10.75C18.66,110.97,10.238,111.003,9.484,110.97
		L9.484,110.97z M99.803,92.618c-1.713-5.17-7.5-22.732-7.5-22.732l-0.408,1.061c0,0,6.984,21.021,7.121,21.397
		c0.068,0.206,0.273,0.96,0.957,0.96h0.412C100.008,93.166,99.871,92.756,99.803,92.618L99.803,92.618z M8.15,107.203l-1.849,1.404
		l4.177-1.37h-0.068c-1.13,0.103-1.814,0.035-1.814,0.035c0.034,0,0.034-0.035,0.068-0.035H8.629
		c4.999-3.219,15.715-9.929,36.839-14.824c0.103-0.034,0.206-0.034,0.309-0.069c1.3-0.307,3.423-0.82,6.025-1.336
		c0.513-0.102,0.958-0.204,1.369-0.272c11.538-2.294,26.466-4.006,42.386-4.177l-0.24-0.719
		C88.367,85.736,37.799,86.183,8.15,107.203L8.15,107.203z M108.738,77.622c1.951,0.172,3.697-0.171,5.102-0.65
		c-1.232,0.309-2.637,0.514-4.211,0.377c-4.143-0.342-5.922-2.362-6.506-4.313c0,0-1.027-0.205-1.607-0.514
		c-0.549-0.274-0.789-0.479-0.994-0.855c-0.104-0.172-0.137-0.343-0.104-0.479h-0.615c-0.273,0-0.377,0.376-0.172,0.752
		c0.205,0.342,0.445,0.549,0.992,0.856c0.582,0.309,1.609,0.514,1.609,0.514C102.814,75.26,104.596,77.313,108.738,77.622
		L108.738,77.622z M148.213,90.461c-0.102,0-0.172-0.034-0.24-0.034c-16.125-2.773-33.176-4.177-46.596-4.485l0.205,0.617
		c13.283,0.343,29.992,1.745,45.844,4.449C147.734,91.044,148.316,91.146,148.213,90.461L148.213,90.461z M44.886,51.26l-1.814,4.28
		c0,0-0.274,0.685,0.274,1.061c0.445,0.308,1.541,0.959,2.534,1.575c0.411,0.239,0.822,0.376,1.164-0.376
		c-0.205,0.033-0.376-0.069-0.582-0.206c-0.993-0.582-2.123-1.267-2.533-1.574c-0.548-0.377-0.275-1.062-0.275-1.062l1.678-3.972
		l1.062-2.465l-1.849,2.02c-4.828,1.096-18.249,5.786-25.267,12.463c7.361-6.026,20.269-10.58,24.754-11.572
		C44.03,51.396,44.715,51.26,44.886,51.26z M63.1,64.818c-0.719,0.547-3.046,2.636-3.046,2.636s1.506-1.198,2.02-1.575
		c-0.651,1.644-4.69,11.847-4.725,11.915c-0.171,0.479-0.377,0.855,0.274,1.369c0.822,0.686,1.814,1.507,2.328,1.883
		c0.445,0.343,0.924,0.103,1.199-0.445c-0.206,0.069-0.411,0.035-0.617-0.137c-0.513-0.411-1.3-0.993-2.123-1.712
		c-0.65-0.513-0.445-0.89-0.274-1.369C58.17,77.313,62.449,66.496,63.1,64.818L63.1,64.818z M69.057,71.22
		c0.822,0.685,1.814,1.541,2.328,1.952c0.446,0.376,0.925,0.137,1.199-0.411c-0.207,0.034-0.412,0-0.617-0.171
		c-0.514-0.411-1.231-0.993-2.053-1.712c-0.652-0.514-0.446-0.89-0.275-1.37c0.069-0.17,2.055-4.964,2.055-4.964
		c-0.343,0.274-1.644,1.438-2.67,2.499c0.752-0.718,1.334-1.198,1.607-1.403c-0.581,1.507-1.746,4.006-1.813,4.178
		C68.611,70.364,68.406,70.706,69.057,71.22L69.057,71.22z M54.301,51.396c0.103-0.239,0.343-0.308,0.445-0.308
		c-0.583-0.411-0.993,0.171-1.096,0.479c0,0-1.369,3.526-3.184,8.389c0.274-0.068,0.685-0.239,0.685-0.239
		C53.069,54.581,54.164,51.739,54.301,51.396z"/>
	<path d="M51.63,92.447c0.445-0.72,0.376-1.198,0.171-1.473c-2.602,0.549-4.725,1.026-6.025,1.336
		c-0.309,0.615-0.959,1.301-0.959,1.301c-0.034,0.033-0.343,0.376-0.377,0.411C46.837,93.44,51.63,92.447,51.63,92.447L51.63,92.447
		z M93.879,81.148l1.678,5.341h1.506l-1.779-5.375C94.803,81.114,94.324,81.148,93.879,81.148L93.879,81.148z"/>
	<path fill="#FFFFFF" d="M97.406,52.869c0.238,0.104,0.17,0.411,0.104,0.616c-0.172,0.411-2.604,6.744-4.451,11.435l0.957-0.718
		c1.85-4.69,4.143-10.545,4.281-10.991c0.068-0.205-0.035-0.342-0.207-0.342H97.406L97.406,52.869z"/>
	<path fill="#FFFFFF" d="M112.982,59.717c1.576,0.821,3.254,2.533,2.227,5.786c-1.369,4.314-4.451,6.744-9.211,7.292l-0.512,0.068
		l0.102,0.515c0,0.067,0.377,2.02,3.117,2.156h0.547c-2.637-0.171-2.979-2.054-2.979-2.156l-0.104-0.515l0.514-0.068
		c4.76-0.515,7.84-2.978,9.211-7.292c1.025-3.253-0.65-4.931-2.227-5.786c-0.752-0.377-1.541-0.582-2.363-0.582h-0.342
		C111.648,59.169,112.332,59.374,112.982,59.717z"/>
	<path fill="#FFFFFF" d="M124.076,61.908c0.172,0.137,0.205,0.171,0.102,0.513c-0.066,0.138-1.266,3.253-1.334,3.424l1.129-1.062
		c0.068-0.171,0.855-2.191,0.891-2.327c0.137-0.344,0.07-0.377-0.104-0.515c-0.377-0.307-1.334-1.061-1.883-1.472
		c-0.17-0.137-0.342-0.069-0.443,0.172C123.117,61.155,123.768,61.668,124.076,61.908z"/>
	<path d="M78.508,62.97"/>
	<path fill="#FFFFFF" d="M46.083,86.729l-28.21-23.178l0.445-0.378c6.985-6.094,18.419-10.887,25.506-12.77
		c0.104-0.034-15.783,3.081-27.013,13.215L45.023,86.97C44.989,86.97,45.776,86.798,46.083,86.729z"/>
	<path d="M89.189,76.527c0.65-1.678,2.738-7.088,2.738-7.088l-0.309-0.958c0,0-2.465,6.368-3.15,8.046
		c0,0.033-0.033,0.033-0.033,0.068c0.104,0.103,0.205,0.17,0.273,0.239c0.068,0.035,0.104,0.068,0.139,0.068
		C88.984,76.903,89.086,76.766,89.189,76.527L89.189,76.527z"/>
	<path fill="#FFFFFF" d="M107.643,64.682c-1.369,1.916-2.26,4.006-2.396,5.545l-0.068,0.822l0.719-0.274l0.035-0.513
		c0.137-1.541,1.025-3.596,2.395-5.547c0.893-1.268,2.57-3.012,3.563-3.39c-0.104-0.068-0.207-0.068-0.342-0.068
		C110.654,61.188,108.635,63.242,107.643,64.682L107.643,64.682z"/>
	<path d="M109.697,77.178c2.225,0,4.654-0.72,5.922-1.575l-0.17-0.239c-0.652,0.514-3.939,1.745-6.096,1.814H109.697z"/>
	<path fill="#FFFFFF" d="M131.334,74.473c-0.719-0.514-1.746-1.232-2.361-1.678c-0.104-0.068-0.273,0.068-0.273,0.309
		c0.615,0.444,1.301,0.925,1.951,1.369c0.342,0.239,0.307,0.377,0.273,0.616c-0.104,0.753,0.238,1.849,1.506,2.465
		c0.307,0.138,0.65,0.205,0.959,0.205c0.137,0,0.24,0,0.342-0.033c-0.205-0.034-0.445-0.104-0.65-0.206
		c-1.301-0.616-1.607-1.712-1.506-2.465C131.643,74.85,131.643,74.712,131.334,74.473L131.334,74.473z"/>
	<path fill="#FFFFFF" d="M118.77,77.554c0.068,0,0.205-0.103,0.309-0.376c0.684-1.713,1.746-4.212,1.814-4.417
		c1.609-3.937,4.279-7.566,7.533-10.169l0.41-0.342l0.307-0.822l-1.438,1.164c-3.252,2.603-5.957,6.232-7.531,10.169
		c-0.068,0.205-1.131,2.704-1.816,4.417c0,0.034-0.033,0.068-0.033,0.068c0.104,0.067,0.205,0.137,0.273,0.205
		S118.736,77.554,118.77,77.554L118.77,77.554z"/>
	<path fill="#FFFFFF" d="M132.26,62.147c0.205,0.171,0.238,0.206,0.068,0.616c-0.344,0.891-2.533,6.539-2.568,6.574
		c0.102,0.067,0.205,0.17,0.273,0.205c0.205,0.137,0.342-0.035,0.445-0.309c0.033-0.067,2.191-5.58,2.533-6.471
		c0.172-0.445,0.104-0.479-0.068-0.616c-0.377-0.308-1.781-1.438-2.293-1.849c0,0-0.035-0.035-0.068-0.035
		c-0.139,0-0.309,0.104-0.445,0.172C130.787,60.915,131.951,61.873,132.26,62.147L132.26,62.147z"/>
	<path fill="#FFFFFF" d="M140.441,77.588c1.336-2.19,0.787-4.69-1.609-7.429c-1.197-1.37-1.473-3.15-0.719-4.794
		c0.514-1.096,1.336-1.882,2.191-2.054c-0.104-0.034-0.24-0.034-0.342-0.034c-0.959,0-1.986,0.856-2.535,2.088
		c-0.752,1.644-0.479,3.424,0.719,4.794c2.398,2.738,2.945,5.238,1.609,7.429c-1.061,1.781-2.703,2.261-4.004,2.329h0.342
		C137.395,79.917,139.277,79.506,140.441,77.588z"/>
	<path fill="#FFFFFF" d="M47.488,46.432c0.479,0.377,1.403,1.096,1.917,1.507c0.206,0.171,0.24,0.205,0.103,0.616
		c-0.171,0.479-3.355,8.389-3.355,8.422l0.514,0.273c0,0,3.355-8.217,3.527-8.695c0.137-0.411,0.103-0.445-0.104-0.616
		c-0.479-0.411-1.438-1.13-1.917-1.507c-0.239-0.17-0.479-0.239-0.787-0.239c-0.103,0-0.24,0-0.377,0.035
		C47.18,46.262,47.351,46.33,47.488,46.432L47.488,46.432z"/>
	<path fill="#FFFFFF" d="M61.662,76.39c-0.377,0.891-0.685,1.574-1.369,3.253c-0.035,0.034-0.035,0.068-0.069,0.137
		c0.103,0.104,0.205,0.171,0.273,0.24c0.034,0.033,0.103,0.068,0.137,0.068c0.068,0,0.239-0.138,0.342-0.411
		c0.685-1.677,0.993-2.363,1.369-3.253c0.171-0.41,0.309-0.719,0.377-0.924c1.608-3.938,4.279-7.567,7.532-10.168l1.471-1.198
		l0.309-0.822l-2.5,2.021c-3.251,2.601-5.956,6.23-7.531,10.168C61.97,75.672,61.833,75.979,61.662,76.39L61.662,76.39z"/>
	<path fill="#FFFFFF" d="M108.43,53.245c-0.033,0.035-0.068,0.104-0.104,0.137l-0.889,0.892c-2.363,2.327-8.594,8.56-13.01,13.045
		l-0.207,0.204l0.104,0.273c0.992,3.048,7.771,23.932,8.047,24.822c0.033,0.068,0.033,0.103,0.033,0.138
		c-0.033,0-0.104,0.033-0.205,0.033h0.582c0.172,0,0.273,0,0.342-0.033c0-0.035-0.033-0.069-0.033-0.138
		c-0.275-0.891-7.053-21.774-8.047-24.822l-0.104-0.273l0.205-0.204c4.418-4.485,10.682-10.683,13.012-13.045l0.891-0.892
		c0.033-0.033,0.068-0.102,0.102-0.137C108.498,53.211,108.43,53.245,108.43,53.245L108.43,53.245z"/>
	<path fill="#FFFFFF" d="M56.287,53.485c0.171,0.138,0.206,0.172,0.034,0.65c-0.034,0.068-1.746,4.69-1.746,4.69l0.788-0.205
		c0,0,1.643-4.417,1.678-4.485c0.171-0.479,0.103-0.513-0.035-0.65c-0.24-0.171-0.993-0.787-1.643-1.335
		c-0.343-0.274-0.411-0.343-0.616-0.479c-0.24-0.172-0.342,0.274-0.342,0.274C54.541,52.081,56.047,53.314,56.287,53.485
		L56.287,53.485z"/>
	<path fill="#FFFFFF" d="M84.053,63.071c0.205,0.171,0.24,0.206,0.068,0.65c-0.068,0.138-5.238,13.798-5.271,13.798
		c0.102,0.068,0.172,0.138,0.273,0.239c0.068,0.035,0.104,0.069,0.137,0.069c0.068,0,0.207-0.103,0.309-0.377
		c2.637-6.573,5.17-13.592,5.238-13.729c0.172-0.41,0.137-0.444-0.068-0.65c-0.445-0.41-1.781-1.54-2.295-1.916
		c-0.033-0.034-0.068-0.034-0.102-0.034c-0.068,0-0.104,0.067-0.137,0.102c-0.035,0.069-0.104,0.138-0.137,0.205
		C82.684,61.908,83.678,62.729,84.053,63.071L84.053,63.071z"/>
	<path fill="#FFFFFF" d="M66.694,64.407c-0.411-0.343-1.643-1.336-2.157-1.746c-0.068-0.069-0.171-0.069-0.274-0.069
		c-0.137,0-0.274,0.036-0.411,0.104c0.548,0.41,1.746,1.403,2.157,1.712c0.171,0.171,0.24,0.205,0.069,0.616
		c-0.069,0.137-1.335,3.219-1.335,3.219c0.068-0.068,1.403-1.679,1.403-1.679l0.616-1.54C66.934,64.578,66.9,64.544,66.694,64.407
		L66.694,64.407z"/>
	<path fill="#FFFFFF" d="M75.014,64.305c-0.308-0.274-1.677-1.438-2.26-1.849c-0.033-0.035-0.102-0.035-0.137-0.035
		c-0.102,0-0.24,0.035-0.41,0.138h-0.035c0.617,0.479,1.815,1.506,2.123,1.746c0.205,0.172,0.24,0.205,0.068,0.615
		c-0.342,0.891-2.602,6.779-2.637,6.848c0,0.034-0.033,0.034-0.033,0.069c0.103,0.102,0.205,0.171,0.273,0.238
		c0.068,0.035,0.104,0.069,0.138,0.069c0.067,0,0.205-0.103,0.308-0.377c0.034-0.068,2.294-5.957,2.636-6.848
		C75.254,64.51,75.186,64.477,75.014,64.305L75.014,64.305z"/>
	<path fill="#FFFFFF" d="M46.358,80.636c0.068,0.068,0.171,0.137,0.24,0.171c0.034,0.035,0.068,0.035,0.068,0.035
		c0.137,0,0.376-0.172,0.479-0.31c5.615-7.087,10.374-11.948,14.619-15.063L63.1,64.51l0.273-0.719c0,0-1.54,1.062-2.327,1.678
		C53.616,71.597,46.392,80.601,46.358,80.636L46.358,80.636z"/>
	<path fill="#FFFFFF" d="M87.785,53.177c0.445,0.514,0.617,1.302,0.479,2.124c-0.273,1.574-1.541,2.875-2.908,3.08
		c0.102,0,0.205,0.034,0.307,0.034h0.068c1.506-0.034,2.945-1.438,3.219-3.081c0.137-0.821-0.035-1.575-0.48-2.123
		c-0.377-0.444-0.924-0.685-1.506-0.685h-0.068c-0.104,0-0.172,0-0.273,0.034C87.066,52.595,87.477,52.801,87.785,53.177
		L87.785,53.177z"/>
	<path fill="#FFFFFF" d="M49.953,93.098c-2.02,3.047-7.087,8.217-20.919,13.969c14.346-5.136,19.789-11.161,21.741-14.141
		L49.953,93.098z"/>
	<path fill="#FFFFFF" d="M53.239,64.134l-0.753,0.136c-1.712,4.485-4.725,12.258-4.725,12.258c0.068-0.104,1.507-2.055,1.507-2.055
		C49.884,72.83,51.494,68.652,53.239,64.134z"/>
	<path fill="#FFFFFF" d="M94.016,81.628c-58.545,1.918-81.792,17.153-89.77,24.343c8.046-6.985,33.347-22.254,89.941-23.897
		L94.016,81.628z"/>
	<path d="M147.596,89.88c-0.238-0.891-1.025-3.767-1.197-4.451c-0.033-0.171-0.172-0.376-0.787-0.48
		c-14.619-2.123-30.814-3.354-45.604-3.423l0.172,0.48c14.584,0.102,30.504,1.3,44.918,3.423c0.617,0.103,0.754,0.308,0.787,0.479
		c0.137,0.581,0.787,2.842,1.096,4.073c0.137,0.035,0.273,0.035,0.41,0.069c0.07,0,0.172,0.033,0.242,0.033
		C147.633,90.051,147.633,89.981,147.596,89.88L147.596,89.88z"/>
	<path fill="#FFFFFF" d="M80.014,54.308c0,0-0.172,0.444-0.172,0.65c0,0-21.295,1.917-45.467,11.161
		C34.375,66.119,53.582,57.354,80.014,54.308L80.014,54.308z"/>
	<path d="M14.244,65.913c-0.685-0.513-1.472-1.678-1.404-2.808c-1.095,1.438,0.068,3.288,0.959,3.972
		c0.89,0.686,21.056,17.461,25.678,21.33c0.445-0.137,0.924-0.24,1.369-0.376C40.88,88.031,15.271,66.701,14.244,65.913
		L14.244,65.913z M43.345,56.566c-0.548-0.377-0.274-1.061-0.274-1.061l1.814-4.28l-0.855,0.171
		c-4.623,1.027-18.146,5.821-25.37,12.12l0.548,0.445c7.464-5.718,19.652-9.997,23.966-10.956l-1.644,3.731
		c0,0-0.274,0.686,0.273,1.063c0.445,0.307,1.712,1.061,2.705,1.643c0.445,0.274,0.856,0.377,1.232-0.514
		c0.068-0.172,0.171-0.444,0.274-0.719c-0.034-0.034-0.068-0.034-0.103-0.067C44.886,57.56,43.79,56.875,43.345,56.566z
		 M91.895,70.946c0,0-0.309,0.788-0.719,1.814c0.65,2.02,1.676,5.308,2.703,8.388c0.48,0,0.924-0.034,1.404-0.034
		C93.537,75.945,91.895,70.946,91.895,70.946L91.895,70.946z M85.492,74.644c0.137-0.41,6.367-16.364,8.01-20.645h-0.65
		c-0.549,0-0.787,0.239-0.889,0.548c0,0-8.047,20.576-8.184,21.089c-0.172,0.479-0.377,0.857,0.273,1.371
		c0.994,0.787,1.85,1.54,2.328,1.917c0.48,0.376,0.959,0.137,1.232-0.515c0.07-0.17,0.172-0.409,0.273-0.65
		c-0.512-0.41-1.266-1.061-2.088-1.745C85.113,75.5,85.32,75.123,85.492,74.644z M29.205,107.58
		c-11.127,3.971-19.549,4.04-20.302,4.005c-0.958-0.068-2.054-0.034-2.979-0.787c-0.822-0.65-2.088-1.677-2.773-2.26
		c-0.376-0.308-0.513-0.615-0.513-0.958c-0.616,0.581-1.438,1.644-0.343,2.534c0.685,0.581,1.951,1.574,2.773,2.258
		c0.924,0.754,2.02,0.721,2.979,0.788c0.753,0.034,9.176-0.103,20.302-4.006c14.825-5.169,21.501-11.264,23.315-14.585
		c0.309-0.513-0.034-1.096-0.376-1.54C49.131,96.486,43.208,102.547,29.205,107.58z M99.016,92.344
		c-0.137-0.376-0.926-2.772-1.953-5.854c-16.467,0.103-32.011,1.849-43.892,4.212c-0.411,0.068-0.856,0.171-1.369,0.273
		c0.205,0.274,0.274,0.72-0.137,1.438c0.206-0.034,0.411-0.069,0.617-0.138c11.88-2.362,27.424-4.108,43.893-4.21
		c1.027,3.08,1.813,5.478,1.951,5.854c0.068,0.206,0.273,0.96,0.959,0.96c0.41,0,1.951,0.033,2.773,0.033
		c0.957,0,0.889-0.411,0.752-0.821c-0.068-0.205-0.137-0.479-0.238-0.787c-0.855,0-2.057-0.035-2.432-0.035
		C99.289,93.304,99.084,92.55,99.016,92.344L99.016,92.344z M102.096,88.167c13.148,0.343,28.861,1.746,44.439,4.417
		c0.342,0.067,1.027,0.172,0.787-0.788c-0.068-0.204-0.137-0.514-0.238-0.89c-16.023-2.739-32.184-4.108-45.502-4.417
		C101.754,87.106,101.926,87.653,102.096,88.167L102.096,88.167z"/>
	<path d="M44.817,93.611c0,0,0.65-0.686,0.959-1.301c-0.137,0.033-0.24,0.068-0.309,0.068c-21.227,4.93-31.943,11.676-36.907,14.894
		c0,0,0.65,0.033,1.712-0.035c5.751-3.492,16.159-9.004,34.134-13.215L44.817,93.611L44.817,93.611z M102.986,54.17
		c-0.24,0-0.41-0.034-0.48-0.034c-0.41,0-0.924,0.138-1.197,0.343c-0.65,0.444-1.918,1.815-4.861,4.964
		c-0.342,0.821-0.686,1.713-1.027,2.67C97.885,59.477,101.137,56.02,102.986,54.17L102.986,54.17z M53.959,63.654
		c7.429-1.678,16.297-3.185,25.508-3.801c-0.104-0.479-0.172-0.993-0.139-1.54c-8.971,0.65-17.563,2.156-24.788,3.799
		C54.37,62.592,54.164,63.141,53.959,63.654z M69.057,71.254c-0.65-0.513-0.445-0.89-0.273-1.368
		c0.068-0.172,1.232-2.671,1.814-4.178c-0.684,0.548-3.525,2.808-5.854,6.848c1.232-1.678,2.567-3.081,3.492-3.938
		c0,0-0.993,2.192-1.062,2.362c-0.171,0.479-0.377,0.856,0.274,1.369c0.821,0.686,2.122,1.746,2.636,2.158
		c0.479,0.376,0.959,0.136,1.232-0.515c0,0,0.104-0.239,0.274-0.685c-0.069-0.035-0.103-0.068-0.171-0.103
		C70.871,72.761,69.879,71.938,69.057,71.254L69.057,71.254z M50.5,59.922c1.199-3.149,2.123-5.614,2.67-7.053
		c-0.034-0.034-0.068-0.034-0.102-0.068c-0.583-0.479-1.027,0.138-1.13,0.444c0,0-1.027,2.739-2.67,7.054
		C50.056,60.06,50.5,59.922,50.5,59.922L50.5,59.922z M57.656,79.163c-0.651-0.514-0.445-0.891-0.274-1.369
		c0.035-0.103,0.171-0.48,0.514-1.267c0.239-0.582,0.479-1.268,0.753-1.952c0.548-1.403,2.807-7.053,3.458-8.696
		c-3.424,2.533-7.532,6.574-11.982,11.847c3.731-4.04,6.881-6.848,9.825-9.21c-0.65,1.644-4.108,10.34-4.142,10.441
		c-0.171,0.48-0.377,0.856,0.273,1.37c0.822,0.686,2.328,1.78,2.842,2.157c0.479,0.377,0.993,0.068,1.233-0.548
		c0.103-0.239,0.205-0.479,0.273-0.719c-0.136,0-0.273-0.069-0.445-0.172C59.471,80.67,58.478,79.883,57.656,79.163L57.656,79.163z
		 M45.879,81.731c-0.48-0.377-1.404-1.096-2.363-1.849c-0.65-0.514-0.445-0.89-0.273-1.37c0.068-0.206,3.252-8.354,5.888-15.099
		c-7.018,1.712-13.695,4.04-14.516,4.349c-0.445,0.17-1.062,0.377-1.438,0.103L32.8,67.557c-0.342,0.138-0.685,0.309-0.993,0.445
		c-0.342,0.138-0.788,0.444-0.273,0.822l0.788,0.615c0.342,0.274,0.992,0.068,1.438-0.102c0.856-0.309,6.642-2.534,13.695-4.247
		c-2.636,6.746-5.581,14.243-5.649,14.449c-0.171,0.479-0.376,0.855,0.274,1.369c0.925,0.754,2.021,1.678,2.499,2.054
		c0.48,0.343,1.028-0.102,1.268-0.376c0.239-0.274,0.445-0.514,0.65-0.788C46.255,81.901,46.05,81.868,45.879,81.731L45.879,81.731z
		 M135.307,72.59c0.855,1.267,0.959,2.637,0.615,3.732c1.063-1.199,1.574-3.356,0.24-5.342c-1.402-2.088-2.225-4.074-1.609-6.368
		c0.033-0.136,0.068-0.24,0.102-0.377c-0.443,0.583-0.787,1.233-0.992,1.952C133.08,68.516,133.902,70.501,135.307,72.59
		L135.307,72.59z M132.088,79.438c-3.561-1.78-4.348-4.108-4.246-5.65c-0.238,0.036-0.479,0.206-0.684,0.721
		c-0.514,1.3-0.309,4.348,4.072,6.505c2.98,1.472,6.848,1.574,8.766-1.61c0.205-0.342,0.377-0.684,0.514-1.062
		C138.49,80.977,134.895,80.842,132.088,79.438z M142.291,66.325c-0.412-0.274-0.686-0.48-0.65-0.822
		c0.102-0.65,0.271-1.369-0.652-1.712c-0.889-0.344-2.189,0.787-2.637,2.328c0.549-0.616,1.234-0.925,1.748-0.719
		c0.924,0.342,0.752,1.061,0.65,1.711c-0.068,0.343,0.238,0.514,0.65,0.821c0.479,0.343,1.678,1.234,2.361,1.713
		c0.273,0.205,0.582,0.034,0.719-0.308c0.172-0.412,0.273-0.788,0.344-1.198c-0.07,0-0.137-0.035-0.205-0.069
		C143.969,67.557,142.77,66.666,142.291,66.325L142.291,66.325z M118.838,66.77c0-0.035,1.918-4.793,2.432-6.128
		c-0.104-0.069-0.172-0.137-0.24-0.172c-0.65-0.514-0.994,0.205-1.199,0.719c0,0-2.566,6.437-2.602,6.471
		c-1.096,2.808-2.771,5-4.484,6.437C115.037,72.83,117.4,70.33,118.838,66.77L118.838,66.77z M115.758,76.629
		c-0.139-0.136-0.275-0.205-0.344-0.307c-1.574,0.753-3.904,1.506-6.676,1.3c-4.143-0.342-5.924-2.362-6.506-4.313
		c0,0-1.027-0.205-1.609-0.514c-0.375-0.205-0.615-0.377-0.787-0.582c-0.582,0.067-0.992,0.067-1.438,0.067
		c-0.273,0-0.375,0.379-0.17,0.755c0.205,0.343,0.445,0.548,0.992,0.855c0.582,0.309,1.607,0.514,1.607,0.514
		c0.582,1.918,2.363,3.972,6.506,4.314c2.773,0.238,5.102-0.548,6.676-1.302c0.068,0.103,0.207,0.171,0.342,0.309
		c0.961,0.821,1.781,1.472,2.33,1.849c0.479,0.343,0.957,0.137,1.232-0.514c0.068-0.172,0.137-0.377,0.205-0.548
		c0,0-0.033,0-0.033-0.035C117.537,78.102,116.715,77.451,115.758,76.629z M112.367,61.703c-0.24-0.172-0.992,0.376-1.85,1.197
		c0.379,0.273-0.514,2.294-1.984,4.622c-0.412,0.617-1.027,1.746-1.885,2.637c1.645-0.788,3.117-2.91,3.699-3.834
		C111.854,63.996,112.777,62.011,112.367,61.703z M127.225,68.584c-0.648-0.514-0.443-0.89-0.273-1.369
		c0.068-0.172,1.232-2.705,1.816-4.211c-0.24,0.205-0.789,0.65-1.508,1.301c-0.615,1.506-1.678,3.8-1.713,3.971
		c-0.17,0.479-0.375,0.855,0.275,1.37c0.924,0.753,1.781,1.506,2.328,1.917c0.48,0.376,0.959,0.137,1.232-0.514
		c0,0,0.068-0.205,0.205-0.548c0,0-0.033,0-0.033-0.034C128.973,70.056,128.15,69.338,127.225,68.584z M105.656,61.36
		c0.17-0.172,0.309-0.309,0.48-0.445c-0.617,0.41-1.268,0.891-1.885,1.506c-1.779,1.781-3.492,4.861-3.799,8.799
		c0.375-0.033,0.787-0.068,1.336-0.103C101.926,66.701,103.74,63.277,105.656,61.36L105.656,61.36z M75.836,75.568
		c0.104-0.342,2.604-6.607,4.178-10.716c0,0-1.096-0.925-1.781-1.473c-0.377,0.104-0.787,0.137-1.266,0.104
		c-0.788-0.069-0.824,0.513-0.412,0.821c0.686,0.514,1.918,1.574,1.918,1.574c-1.574,4.109-4.075,10.374-4.178,10.717
		c-0.172,0.479-0.377,0.855,0.273,1.368c0.788,0.651,1.918,1.542,2.398,1.919c0.479,0.376,0.957,0.137,1.232-0.514
		c0.068-0.206,0.172-0.412,0.24-0.617c-0.516-0.411-1.541-1.198-2.261-1.814C75.493,76.424,75.665,76.048,75.836,75.568z
		 M84.566,60.949c1.678-0.034,3.287-1.404,3.836-3.185c-0.754,0.925-1.85,1.541-2.98,1.575c-1.848,0.034-3.08-1.575-2.738-3.595
		c0.035-0.205,0.068-0.411,0.137-0.582c-0.512,0.617-0.891,1.369-1.027,2.191C81.486,59.374,82.719,60.984,84.566,60.949z"/>
	<g>
		<path d="M36.429,66.77c-0.616,0.206-1.062,0.377-1.232,0.411c-0.445,0.171-1.062,0.376-1.438,0.102l-0.788-0.616
			c-0.137-0.103-0.205-0.205-0.24-0.272c-0.034,0-0.068,0.033-0.068,0.033c-0.342,0.137-0.788,0.445-0.274,0.822l0.788,0.616
			c0.342,0.274,0.993,0.067,1.438-0.103c0.855-0.309,7.498-2.637,14.516-4.349c-2.636,6.745-5.82,14.893-5.888,15.099
			c-0.171,0.48-0.377,0.856,0.273,1.37c0.924,0.753,1.883,1.472,2.363,1.849c0.479,0.342,1.027-0.104,1.267-0.377
			c0.068-0.068,0.137-0.171,0.171-0.24c-0.274,0.172-0.582,0.24-0.855,0.034c-0.479-0.376-1.164-0.855-2.089-1.608
			c-0.65-0.514-0.444-0.891-0.273-1.369c0.068-0.207,3.252-8.525,5.751-14.929l4.69-1.13c7.498-1.677,16.468-3.252,25.815-3.868
			c-0.033-0.171-0.068-0.376-0.104-0.548C78.779,57.765,59.539,58.964,36.429,66.77L36.429,66.77z M88.676,77.349
			c-0.479-0.377-1.164-0.891-2.123-1.677c-0.65-0.514-0.445-0.892-0.273-1.371c0.137-0.41,6.334-16.365,8.25-21.261
			c0.172-0.479,0.514-0.616,0.615-0.65h-0.307c-0.549,0-0.787,0.24-0.891,0.549c0,0-8.25,21.227-8.422,21.705
			c-0.17,0.479-0.375,0.856,0.273,1.37c0.992,0.787,1.85,1.54,2.328,1.917c0.445,0.342,0.926,0.138,1.199-0.411
			C89.086,77.554,88.881,77.52,88.676,77.349z M132.67,78.957c-4.383-2.191-4.588-5.203-4.074-6.504
			c0.068-0.137,0.137-0.206,0.24-0.24c-0.275-0.034-0.582,0.104-0.822,0.719c-0.514,1.302-0.309,4.349,4.074,6.506
			c2.533,1.267,5.752,1.506,7.805-0.411C137.84,80.43,134.998,80.121,132.67,78.957z M124.691,64.202
			c0.207-0.206,2.979-2.774,5.65-4.28c0.24-0.137,0.445-0.103,0.547-0.103l-0.068-0.069c-0.377-0.308-0.889,0-1.197,0.172
			c-2.637,1.541-4.383,3.252-4.588,3.458v0.034C124.934,63.619,124.691,64.202,124.691,64.202z M119.693,66.496
			c0-0.035,2.432-6.129,2.568-6.472s0.41-0.41,0.41-0.41c-0.033-0.035-0.068-0.035-0.068-0.069c-0.65-0.514-0.992,0.205-1.197,0.719
			c0,0-2.568,6.438-2.602,6.471c-1.645,4.178-4.623,6.882-7.225,7.841C114.352,73.993,117.844,71.151,119.693,66.496z
			 M106.41,60.813c0.617-0.616,1.506-1.131,2.156-1.541c-0.959,0.445-1.918,1.129-2.875,2.054c-1.918,1.917-3.732,5.341-3.834,9.758
			c0.271-0.034,0.41-0.103,0.787-0.137C102.541,66.394,104.459,62.729,106.41,60.813L106.41,60.813z M105.178,53.006
			c0.514-0.411,1.096-0.376,1.096-0.376c-0.377,0-0.686-0.035-0.787-0.035c-0.412,0-0.924,0.138-1.199,0.344
			c-0.719,0.479-5.512,5.546-8.936,9.174c-0.24,0.583-0.479,1.199-0.719,1.815C97.713,60.71,103.5,54.581,105.178,53.006
			L105.178,53.006z"/>
	</g>
	<path d="M48.515,64.954l5.444-1.266c0.205-0.479,0.411-1.097,0.582-1.576c-3.972,0.892-5.41,1.302-5.41,1.302L48.515,64.954
		L48.515,64.954z"/>
</g>
</svg>
