<?xml version="1.0" encoding="utf-8"?>
<!-- Generator: Adobe Illustrator 16.0.0, SVG Export Plug-In . SVG Version: 6.00 Build 0)  -->
<!DOCTYPE svg PUBLIC "-//W3C//DTD SVG 1.1//EN" "http://www.w3.org/Graphics/SVG/1.1/DTD/svg11.dtd">
<svg version="1.1" id="flag-icon-css-am" xmlns="http://www.w3.org/2000/svg" xmlns:xlink="http://www.w3.org/1999/xlink" x="0px"
	 y="0px" width="150px" height="150px" viewBox="0 0 150 150" enable-background="new 0 0 150 150" xml:space="preserve">
<g>
	<path fill-rule="evenodd" clip-rule="evenodd" fill="#27A6B0" d="M115.915,43.225c-2.665,2.176-5.78,3.466-9.339,4.566
		c1.801,0.707,3.342,1.235,4.818,1.905c6.858,3.112,12.092,7.783,14.206,15.284c2.671,9.479-1.708,20.121-10.237,25.045
		c-0.158,0.093-0.372,0.087-0.559,0.128l0.025,0.024c0.745-2.085,1.593-4.098,1.856-6.367c0.636-5.471-0.693-10.335-3.903-14.743
		c-1.802-2.475-4.045-4.556-6.092-6.813c-2.434-2.683-4.151-5.654-3.701-9.472c-1.979,0.367-4.243,3.749-4.234,5.861
		c0.011,2.502,0.539,4.82,1.548,7.074c0.861,1.926,1.354,3.938,1.147,6.069c-0.183,1.878-1.372,3.226-2.839,3.255
		c-2.64,0.052-3.86-0.84-4.278-3.003c-0.432-2.239,0.179-4.332,0.765-6.437c1.116-4.018-0.021-7.394-2.956-10.235
		c-0.542-0.524-1.131-1.018-2.035-1.203c0.146,0.741,0.319,1.412,0.408,2.096c0.284,2.21-0.702,3.837-2.859,4.776
		c-1.21,0.525-3.233-0.088-4.398-1.374c-2.166-2.389-2.417-5.138-1.492-8.105c0.6-1.925,1.838-3.508,2.935-5.129
		c1.14-1.68,1.952-3.422,2.322-5.393c0.406,1.499,1.706,1.029,2.715,1.345c1.388,0.436,1.714-0.193,1.888-1.278
		c0.65-4.044,1.045-8.109,0.257-12.166c-0.582-2.993-1.576-5.843-3.873-8.038c-0.058-0.034-0.115-0.068-0.172-0.102
		c0.031,0.06,0.065,0.118,0.097,0.176c-0.004,1.675,0.469,3.31,0.348,4.999c-0.128,1.77-0.559,4.083-1.003,4.799
		c0.188-5.31-1.748-9.854-7.046-12.521c-2.543-1.28-5.289-2.027-7.875-3.184c-2.312-1.034-4.242-2.419-4.683-5.16
		c-0.027-0.17-0.079-0.41-0.449-0.396c-0.124,0.133-0.315,0.297-0.456,0.498c-2.753,3.933-3.493,8.006-0.982,12.382
		c1.109,1.936,2.102,3.946,2.516,6.176c0.555,3.002-0.548,5.55-2.131,7.975c-0.156-0.685-0.185-1.34-0.151-1.993
		c0.094-1.795,0.02-3.574-0.854-5.188c-1.692-3.127-3.836-6.05-4.048-10.07c-0.449,0.494-0.657,0.702-0.841,0.929
		c-2.384,2.951-1.991,6.319-1.5,9.725c0.52,3.601,0.515,7.192-0.92,10.608c-0.538,1.279-0.151,1.456,1.019,1.454
		c1.358-0.005,2.744,0.131,4.079,0.129c1.717-0.003,3.631,0.504,5.206-0.76c-0.259,0.55-0.557,1.085-0.769,1.652
		c-1.099,2.947-2.142,5.905-0.549,9.016c0.391,0.766,0.578,1.689,1.596,2.148c0.12-6.152,3.396-10.353,7.935-13.818
		c-0.541,1.394,0.045,1.718,1.379,1.64c0.986-0.057,1.99,0.18,2.987,0.286c-2.338,2.234-4.961,4.158-6.849,6.868
		c-2.581,3.706-2.486,8.888,0.509,12.242c1.35,1.509,2.923,2.816,4.376,4.236c2.432,2.381,3.805,5.2,3.721,8.688
		c-0.074,3.095-1.606,5.342-4.085,6.897c-2.642,1.657-5.674,2.006-8.948,2.013c1.214-1.82,2.273-3.533,2.935-5.442
		c2.12-6.121,1.254-11.689-3.139-16.582c-0.781-0.868-1.555-1.745-2.366-2.584c-3.554-3.678-4.538-8.034-3.459-12.944
		c0.194-0.883,0.382-1.766,0.588-2.718c-5.072,2.441-9.985,13.042-5.211,23.576c-2.848-1.158-4.769-3.04-6.542-5.559
		c-0.138,3.157,0.792,5.698,1.996,8.151c0.647,1.316,1.455,2.556,2.18,3.837c1.122,1.982,1.801,4.074,1.627,6.395
		c-0.189,2.525-1.643,4.387-3.752,4.743c-2.374,0.401-4.136-0.715-5.184-3.244c-0.752-1.813-0.736-3.669-0.33-5.537
		c0.599-2.759,0.875-5.507,0.119-8.288c-1.233-4.533-5.266-7.942-9.969-8.279c1.097,1.904,1.679,3.897,1.831,6.027
		c0.24,3.377-0.852,6.328-2.293,9.351c-1.241,2.602-2.395,5.329-2.904,8.254c-0.872,5,0.059,9.507,3.6,13.645
		c-2.305,0-4.354,0-6.404,0c-2.643,0-5.285-0.028-7.927,0.016c-0.859,0.015-1.247-0.12-1.238-1.138
		c0.05-6.402,0.046-12.804,0-19.206c-0.007-0.967,0.288-1.208,1.202-1.174c1.775,0.065,3.561-0.058,5.333,0.048
		c1.175,0.068,1.424-0.328,1.419-1.45c-0.042-9.755-0.021-19.51-0.012-29.267c0-0.914,0.045-1.827,0.07-2.74
		c0.631,0.18,1.258,0.503,1.89,0.515c3.197,0.054,6.395,0.021,9.592,0.036c0.514,0.002,0.857-0.164,1.094-0.633
		c1.752-3.467,3.631-6.894,4.069-10.84c0.201-1.813,0.01-3.615-0.662-5.647c-0.369,0.932-0.568,1.561-0.857,2.145
		c-1.51,3.053-3.114,6.035-6.336,7.675l-0.053-0.051c0.087-0.573,0.463-1,0.73-1.486c2.682-4.865,4.593-9.928,3.566-15.625
		C44.086,14,42.62,11.25,39.663,8.93c0,1.843,0.138,3.358-0.027,4.838c-0.423,3.791-2.269,6.853-5.003,9.478
		c-1.302,1.251-2.812,2.334-3.725,3.962c-2.125,0.275-4.261,0.05-6.39,0.135c-0.646,0.026-0.887-0.195-0.885-0.871
		c0.021-6.604,0.022-13.207-0.002-19.809c-0.002-0.755,0.276-1.012,0.977-0.936c0.1,0.011,0.202,0.001,0.305,0.001
		c19.452,0.008,38.906-0.057,58.358,0.06c7.254,0.043,14.53,0.335,21.634,2.025c7.44,1.769,13.285,5.687,16.445,12.938
		c1.003,2.298,1.621,4.685,1.428,7.238c-0.051,0.682,0.135,1.383,0.211,2.075c-0.471-0.019-0.487-0.407-0.629-0.727
		c-1.531-3.442-3.447-6.633-6.313-9.142c-1.858-1.628-3.8-3.166-6.354-3.594c-0.071-0.031-0.142-0.063-0.213-0.095
		c0.035,0.067,0.071,0.135,0.106,0.203c6.813,6.823,5.959,18.514,2.371,22.799c0.504-3.152,0.72-6.085-0.221-8.934
		c-0.945-2.861-2.491-5.299-5.503-7.088c1.024,3.739,1.31,7.07-0.429,10.286c-0.073-3.102-0.993-5.952-2.318-8.698
		c-0.704-1.458-1.395-2.923-2.105-4.378c-1.562-3.2-2.463-6.497-1.227-10.297c-3.005,1.109-4.403,3.153-5.15,5.76
		c-0.931,3.243-0.751,6.535-0.205,9.792c0.907,5.405,0.92,10.687-1.62,15.715c-0.495,0.98-0.17,1.245,0.827,1.238
		c4.016-0.025,8.028-0.059,12.041,0.004C109.337,42.959,112.645,42.589,115.915,43.225z M52.854,30.822
		c-0.44,2.627-1.308,5.027-2.579,7.287c-0.546,0.97-1.077,1.948-1.609,2.924c-0.41,0.75-0.19,1.055,0.646,0.876
		c1.754-0.373,3.51-0.374,5.261-0.015c0.699,0.144,0.958-0.042,1.106-0.784C56.461,37.217,55.381,33.851,52.854,30.822z"/>
	<path fill-rule="evenodd" clip-rule="evenodd" fill="#5BC3C3" d="M115.915,43.225c-3.271-0.635-6.578-0.266-9.869-0.318
		c-4.013-0.063-8.025-0.029-12.041-0.004c-0.997,0.007-1.322-0.258-0.827-1.238c2.54-5.028,2.527-10.31,1.62-15.715
		c-0.546-3.257-0.726-6.548,0.205-9.792c0.747-2.607,2.146-4.651,5.15-5.76c-1.236,3.8-0.335,7.097,1.227,10.297
		c0.711,1.455,1.401,2.92,2.105,4.378c1.325,2.746,2.245,5.596,2.318,8.698c1.738-3.216,1.453-6.547,0.429-10.286
		c3.012,1.789,4.558,4.227,5.503,7.088c0.94,2.849,0.725,5.782,0.221,8.934c3.588-4.285,4.441-15.976-2.371-22.799l0.107-0.108
		c2.553,0.429,4.494,1.966,6.353,3.595c2.866,2.509,4.782,5.7,6.313,9.142c0.142,0.32,0.158,0.708,0.629,0.727
		C122.84,35.637,120.497,40.034,115.915,43.225z M112.006,40.12c-0.025-0.034-0.05-0.067-0.076-0.1
		c-0.029,0.029-0.062,0.057-0.092,0.085c0.043,0.043,0.084,0.085,0.126,0.128C111.978,40.195,111.992,40.157,112.006,40.12z"/>
	<path fill-rule="evenodd" clip-rule="evenodd" fill="#5BC3C3" d="M68.162,41.374c-1.574,1.264-3.489,0.756-5.206,0.76
		c-1.335,0.002-2.721-0.134-4.079-0.129c-1.17,0.002-1.556-0.174-1.019-1.454c1.436-3.416,1.44-7.007,0.92-10.608
		c-0.492-3.406-0.884-6.774,1.5-9.725c0.184-0.227,0.392-0.435,0.841-0.929c0.211,4.021,2.356,6.943,4.048,10.07
		c0.874,1.614,0.948,3.393,0.854,5.188c-0.034,0.652-0.005,1.308,0.151,1.993c1.583-2.424,2.686-4.972,2.131-7.975
		c-0.414-2.23-1.406-4.24-2.516-6.176c-2.511-4.376-1.771-8.45,0.982-12.382c0.14-0.201,0.332-0.365,0.456-0.498
		c0.37-0.014,0.422,0.227,0.449,0.396c0.441,2.74,2.372,4.126,4.683,5.16c2.586,1.156,5.332,1.904,7.875,3.184
		c5.298,2.667,7.233,7.211,7.046,12.521c0.444-0.716,0.875-3.029,1.003-4.799c0.121-1.689-0.352-3.324-0.348-4.999l0.077-0.074
		c2.295,2.194,3.289,5.045,3.871,8.038c0.788,4.057,0.394,8.122-0.257,12.166c-0.174,1.085-0.5,1.714-1.888,1.278
		c-1.009-0.316-2.309,0.154-2.715-1.345c0.004-0.591,0.005-1.183,0.01-1.774c0.478-0.478,0.516-0.901-0.153-1.239
		c-0.281-0.75-0.565-1.5-0.933-2.473c-1.169,2.813-2.924,4.995-5.205,6.75c-0.997-0.106-2.001-0.343-2.987-0.286
		c-1.334,0.078-1.92-0.247-1.379-1.64c0.203-0.177,0.407-0.355,0.61-0.532c0.319-0.013,0.565-0.118,0.616-0.478l0.021-0.116
		l0.116-0.025c0.488,0.019,0.796-0.159,0.765-0.704c1.034-1.179,2.193-2.248,3.013-3.615c2.326-3.88,1.527-9.436-1.84-12.402
		c-1.386-1.222-3.035-2.015-4.719-2.728c-2.52-1.068-5.248-1.756-7.072-4.188c-0.481,2.507,0.704,4.208,2.091,5.814
		c1.575,1.825,2.995,3.734,3.373,6.196c0.667,4.357-0.81,8.056-3.555,11.351c-0.343,0.054-0.388,0.318-0.418,0.593
		c-0.08,0.107-0.159,0.214-0.239,0.322c-0.739-0.007-0.684,0.508-0.659,1.002C68.483,41.103,68.365,41.264,68.162,41.374z"/>
	<path fill-rule="evenodd" clip-rule="evenodd" fill="#27A6B0" d="M75.728,135.055c0.001-3.098-0.019-6.195,0.005-9.294
		c0.022-3.062,1.796-5.032,4.857-5.097c4.87-0.101,9.749-0.093,14.623-0.004c3.035,0.054,4.918,2.032,4.937,5.051
		c0.039,6.348-0.004,12.696,0.029,19.044c0.005,0.887-0.161,1.274-1.158,1.23c-1.824-0.083-3.657-0.075-5.482-0.004
		c-0.977,0.039-1.345-0.215-1.294-1.255c0.086-1.772-0.012-3.554,0.038-5.33c0.023-0.838-0.218-1.171-1.106-1.149
		c-2.184,0.054-4.368,0.048-6.55,0.003c-0.851-0.018-1.176,0.246-1.151,1.125c0.054,1.825-0.023,3.656,0.034,5.482
		c0.026,0.862-0.243,1.149-1.114,1.121c-1.827-0.059-3.658-0.068-5.483,0.004c-0.93,0.038-1.222-0.225-1.205-1.178
		C75.761,141.557,75.728,138.305,75.728,135.055z M87.853,133.165c1.117,0,2.237-0.037,3.353,0.013
		c0.752,0.033,1.119-0.145,1.077-0.996c-0.063-1.267-0.044-2.539-0.005-3.809c0.023-0.693-0.161-1.01-0.927-0.997
		c-2.283,0.038-4.572,0.043-6.855-0.003c-0.829-0.017-1.052,0.301-1.018,1.073c0.051,1.166,0.061,2.338-0.003,3.504
		c-0.047,0.898,0.199,1.306,1.179,1.233C85.715,133.104,86.788,133.165,87.853,133.165z"/>
	<path fill-rule="evenodd" clip-rule="evenodd" fill="#27A6B0" d="M51.66,133.276c0-3.81,0.035-7.619-0.024-11.427
		c-0.016-1.019,0.31-1.262,1.286-1.254c6.196,0.04,12.392,0.04,18.586,0c0.983-0.007,1.343,0.248,1.283,1.266
		c-0.082,1.417-0.079,2.846-0.001,4.264c0.055,0.989-0.246,1.304-1.261,1.287c-3.554-0.061-7.111,0.044-10.663-0.058
		c-1.336-0.039-1.294,0.618-1.314,1.56c-0.022,1.01,0.089,1.556,1.363,1.521c3.552-0.097,7.109,0,10.664-0.056
		c0.949-0.016,1.244,0.257,1.176,1.195c-0.103,1.409,0.432,3.232-0.269,4.127c-0.749,0.959-2.653,0.271-4.05,0.301
		c-2.589,0.058-5.182,0.078-7.769-0.008c-1.406-0.048-1.061,0.86-1.089,1.61c-0.03,0.766-0.163,1.475,1.093,1.446
		c3.604-0.082,7.211,0.009,10.816-0.053c1.022-0.017,1.31,0.301,1.257,1.293c-0.081,1.571-0.048,3.149-0.009,4.722
		c0.018,0.716-0.211,0.966-0.952,0.962c-6.399-0.024-12.797-0.03-19.196,0.006c-0.919,0.006-0.938-0.449-0.935-1.126
		C51.668,140.995,51.66,137.136,51.66,133.276z"/>
	<path fill-rule="evenodd" clip-rule="evenodd" fill="#27A6B0" d="M23.646,133.25c0-3.757,0.035-7.516-0.023-11.273
		c-0.016-1.021,0.185-1.449,1.312-1.386c1.772,0.097,3.559,0.111,5.329-0.005c1.219-0.079,1.424,0.394,1.387,1.471
		c-0.076,2.231,0.019,4.468-0.042,6.7c-0.026,0.944,0.152,1.377,1.228,1.338c2.181-0.083,4.367-0.063,6.55-0.007
		c0.923,0.023,1.241-0.252,1.217-1.201c-0.061-2.386,0.011-4.772-0.037-7.159c-0.017-0.843,0.213-1.157,1.098-1.13
		c1.928,0.062,3.86,0.069,5.788-0.002c0.933-0.035,1.082,0.349,1.08,1.156c-0.022,7.669-0.025,15.337,0.002,23.005
		c0.002,0.891-0.201,1.268-1.184,1.228c-1.875-0.078-3.76-0.082-5.635,0c-1.011,0.044-1.165-0.373-1.149-1.245
		c0.047-2.589-0.031-5.181,0.04-7.77c0.028-1.033-0.321-1.306-1.309-1.275c-2.131,0.066-4.267,0.069-6.397,0
		c-0.996-0.031-1.325,0.257-1.296,1.28c0.071,2.486-0.058,4.979,0.056,7.463c0.061,1.321-0.388,1.629-1.619,1.551
		c-1.669-0.107-3.355-0.109-5.024,0.001c-1.204,0.079-1.417-0.37-1.397-1.466C23.687,140.767,23.646,137.008,23.646,133.25z"/>
	<path fill-rule="evenodd" clip-rule="evenodd" fill="#5BC3C3" d="M40.423,34.382c3.222-1.641,4.827-4.622,6.336-7.675
		c0.289-0.583,0.488-1.212,0.857-2.145c0.671,2.033,0.862,3.835,0.662,5.647c-0.438,3.947-2.317,7.374-4.069,10.84
		c-0.237,0.469-0.58,0.636-1.094,0.633c-3.197-0.016-6.396,0.018-9.592-0.036c-0.632-0.011-1.259-0.334-1.89-0.515
		c-0.026-4.15-0.047-8.299-0.082-12.449c-0.005-0.57,0.214-1.265-0.643-1.476c0.913-1.627,2.422-2.711,3.724-3.962
		c2.734-2.625,4.58-5.688,5.003-9.478c0.165-1.48,0.027-2.995,0.027-4.838c2.958,2.32,4.424,5.07,5.004,8.291
		c1.027,5.696-0.884,10.759-3.566,15.625c-0.268,0.486-0.643,0.913-0.73,1.486c-0.038,0.055-0.076,0.11-0.115,0.165
		C40.311,34.458,40.367,34.42,40.423,34.382z"/>
	<path fill-rule="evenodd" clip-rule="evenodd" fill="#27A6B0" d="M114.181,120.616c3.557,0,7.115,0.023,10.671-0.018
		c0.839-0.01,1.185,0.19,1.146,1.09c-0.066,1.522-0.079,3.052,0.004,4.571c0.057,1.013-0.368,1.183-1.248,1.147
		c-1.521-0.063-3.06,0.093-4.569-0.05c-1.48-0.14-1.729,0.453-1.71,1.782c0.073,5.132-0.003,10.265,0.056,15.397
		c0.013,1.108-0.226,1.521-1.412,1.452c-1.875-0.107-3.762-0.086-5.639-0.005c-1.014,0.043-1.276-0.287-1.268-1.276
		c0.047-5.286-0.022-10.572,0.056-15.855c0.019-1.252-0.369-1.548-1.534-1.488c-1.773,0.092-3.558-0.001-5.335,0.038
		c-0.71,0.017-1.005-0.188-0.985-0.94c0.043-1.624,0.055-3.253-0.003-4.877c-0.029-0.865,0.36-0.988,1.099-0.981
		C107.065,120.633,110.623,120.616,114.181,120.616z"/>
	<path fill-rule="evenodd" clip-rule="evenodd" fill="#27A6B0" d="M71.819,109.401c0-1.827,0.034-3.653-0.017-5.479
		c-0.022-0.793,0.226-1.057,1.026-1.045c3.146,0.04,6.291-0.008,9.437,0.033c1.533,0.02,2.274,0.703,2.286,2.236
		c0.007,1.263,0.488,2.675-0.727,3.723c-0.194,0.167-0.115,0.33,0.043,0.5c1.287,1.397,0.679,3.076,0.593,4.634
		c-0.079,1.399-1.126,1.979-2.436,1.992c-3.094,0.027-6.188-0.008-9.283,0.022c-0.749,0.007-0.952-0.274-0.938-0.985
		C71.845,113.156,71.818,111.278,71.819,109.401z M78.14,108.099c0.553,0,1.107-0.022,1.66,0.005c0.589,0.03,0.798-0.22,0.783-0.802
		c-0.012-0.555-0.027-0.991-0.775-0.968c-1.104,0.036-2.212,0.013-3.318,0.011c-0.702-0.003-0.605,0.498-0.62,0.948
		c-0.015,0.445,0.034,0.814,0.612,0.808C77.033,108.094,77.587,108.099,78.14,108.099z M78.36,110.642
		c-0.606,0-1.213,0.016-1.818-0.003c-0.683-0.021-0.678,0.425-0.678,0.908c0,0.492,0.029,0.908,0.699,0.895
		c1.111-0.022,2.223-0.018,3.334-0.003c0.679,0.011,0.673-0.434,0.681-0.915c0.008-0.502-0.035-0.917-0.703-0.887
		C79.372,110.661,78.865,110.642,78.36,110.642z"/>
	<path fill-rule="evenodd" clip-rule="evenodd" fill="#27A6B0" d="M23.655,115.471c-0.003-3.808,0.027-7.617-0.036-11.424
		c-0.016-0.967,0.291-1.189,1.2-1.174c2.995,0.053,5.991,0.004,8.986,0.027c1.908,0.015,2.606,0.673,2.604,2.557
		c-0.001,1.17,0.393,2.457-0.744,3.421c-0.373,0.315,0.153,0.46,0.264,0.692c0.868,1.796,0.689,3.616,0.032,5.42
		c-0.163,0.444-0.587,0.678-1.048,0.804c-0.476-0.42-1.055-0.253-1.594-0.259C30.098,115.503,26.877,115.489,23.655,115.471z
		 M30.167,110.641c-0.456,0-0.913,0.023-1.367-0.005c-0.685-0.042-1.156,0.028-1.137,0.941c0.017,0.827,0.441,0.883,1.063,0.867
		c0.911-0.023,1.826-0.039,2.735,0.003c0.705,0.031,0.977-0.194,0.979-0.943c0.002-0.829-0.43-0.899-1.058-0.867
		C30.979,110.66,30.574,110.642,30.167,110.641z M30.062,106.342c-0.503,0-1.008,0.028-1.509-0.007
		c-0.656-0.045-0.883,0.227-0.878,0.878c0.004,0.627,0.179,0.922,0.859,0.896c1.056-0.041,2.114-0.025,3.171-0.007
		c0.645,0.013,0.72-0.364,0.72-0.878c0-0.503-0.042-0.908-0.701-0.884C31.17,106.362,30.615,106.346,30.062,106.342z"/>
	<path fill-rule="evenodd" clip-rule="evenodd" fill="#27A6B0" d="M108.369,114.29c-1.204-1.943-2.41-3.884-3.614-5.826
		c-0.006-0.293-0.045-0.598-0.425-0.557c-0.206,0.022-0.215,0.256-0.161,0.446c0.418,2.315,0.085,4.653,0.199,6.978
		c0.027,0.555-0.297,0.63-0.762,0.687c-3.002,0.363-3.146,0.249-3.146-2.725c0-3.096,0.027-6.19-0.017-9.284
		c-0.013-0.837,0.2-1.117,1.086-1.14c3.919-0.102,3.918-0.134,5.945,3.133c0.573,0.924,1.149,1.849,1.924,3.095
		c0-1.983,0.058-3.575-0.021-5.159c-0.045-0.9,0.269-1.09,1.109-1.101c2.817-0.032,2.817-0.066,2.817,2.735
		c0,3.043-0.052,6.089,0.026,9.131c0.028,1.107-0.357,1.512-1.376,1.292c-1.001-0.217-2.287,0.669-2.98-0.751
		C108.999,114.781,108.983,114.346,108.369,114.29z"/>
	<path fill-rule="evenodd" clip-rule="evenodd" fill="#27A6B0" d="M38.016,109.349c0-1.83,0.044-3.66-0.02-5.486
		c-0.029-0.827,0.251-1.03,1.032-1.02c2.895,0.041,5.791-0.02,8.686,0.038c1.924,0.038,2.682,0.818,2.683,2.729
		c0.001,1.267,0.42,2.708-1.05,3.569c-0.062,0.035-0.071,0.33-0.022,0.357c1.573,0.883,1.049,2.399,1.073,3.699
		c0.054,3.089-0.029,3.109-3.221,2.79c-0.616-0.061-0.782-0.282-0.767-0.833c0.024-0.915,0.014-1.829,0.019-2.743
		c0.001-0.254,0.104-0.574-0.012-0.752c-0.869-1.326-2.193-0.313-3.283-0.584c-0.634-0.157-1.06,0.101-1.025,0.887
		c0.043,1.014-0.031,2.032,0.022,3.047c0.038,0.735-0.232,0.937-0.952,0.977c-3.163,0.179-3.161,0.203-3.161-2.865
		C38.017,111.888,38.017,110.617,38.016,109.349z M44.291,108.132c0.305,0,0.609,0.008,0.914-0.002
		c0.578-0.021,1.218,0.188,1.245-0.831c0.028-1.063-0.596-0.969-1.273-0.96c-0.812,0.013-1.625,0.023-2.436,0
		c-0.693-0.021-0.68,0.43-0.689,0.91c-0.009,0.506,0.052,0.917,0.716,0.886C43.275,108.111,43.783,108.131,44.291,108.132z"/>
	<path fill-rule="evenodd" clip-rule="evenodd" fill="#27A6B0" d="M86.127,110.221c0-1.572-0.023-3.145,0.007-4.717
		c0.034-1.668,0.854-2.554,2.526-2.59c2.533-0.054,5.069-0.05,7.605,0c1.543,0.031,2.454,0.798,2.498,2.295
		c0.099,3.344,0.054,6.691,0.067,10.038c0.001,0.382-0.056,0.742-0.538,0.75c-1.015,0.015-2.031,0.042-3.042-0.011
		c-0.698-0.036-0.494-0.636-0.509-1.055c-0.103-2.828-0.103-2.752-2.878-2.858c-1.372-0.052-1.977,0.305-1.734,1.729
		c0.066,0.395-0.02,0.813,0.016,1.216c0.063,0.688-0.153,0.963-0.913,1.01c-3.107,0.187-3.105,0.217-3.105-2.917
		C86.127,112.147,86.127,111.184,86.127,110.221z M92.38,106.342c-0.454,0-0.907,0.008-1.36-0.001
		c-0.493-0.01-0.986,0.038-0.865,0.697c0.146,0.788-0.549,2.01,0.409,2.291c1.159,0.339,2.49,0.093,3.747,0.088
		c0.224,0,0.315-0.169,0.399-0.374c0.621-1.541-0.114-2.7-1.727-2.701C92.782,106.342,92.581,106.342,92.38,106.342z"/>
	<path fill-rule="evenodd" clip-rule="evenodd" fill="#27A6B0" d="M115.015,109.406c0-1.828,0.027-3.656-0.013-5.483
		c-0.018-0.734,0.101-1.098,0.972-1.083c2.996,0.051,5.992,0.041,8.988,0.003c0.789-0.009,1.123,0.219,1.029,1.034
		c-0.057,0.502-0.045,1.017-0.003,1.522c0.061,0.726-0.215,0.981-0.955,0.959c-1.572-0.05-3.147-0.027-4.723-0.011
		c-0.56,0.007-1.27-0.235-1.241,0.808c0.029,1.058,0.779,0.726,1.305,0.738c1.472,0.035,2.953,0.104,4.415-0.017
		c1.302-0.108,1.233,0.627,1.198,1.489c-0.034,0.782,0.249,1.652-1.14,1.546c-1.564-0.121-3.146-0.019-4.72-0.032
		c-0.604-0.005-1.096-0.009-1.06,0.852c0.032,0.812,0.553,0.702,1.049,0.703c1.574,0.006,3.15,0.042,4.722-0.014
		c0.82-0.028,1.26,0.154,1.152,1.077c-0.06,0.5-0.057,1.02,0,1.521c0.098,0.854-0.309,1.01-1.064,1.001
		c-2.945-0.034-5.891-0.05-8.835,0.007c-0.906,0.018-1.114-0.308-1.093-1.136C115.049,113.063,115.015,111.234,115.015,109.406z"/>
	<path fill-rule="evenodd" clip-rule="evenodd" fill="#27A6B0" d="M68.771,108.132c0.407,0.051,0.713,0.261,0.935,0.601
		c0.022,2.086,0.043,4.172,0.065,6.258c-0.085,0.1-0.17,0.2-0.254,0.301c-3.923,0.463-7.858,0.187-11.789,0.186
		c0.003-0.81,0.007-1.618,0.01-2.428c2.305-0.015,4.61-0.019,6.915-0.052c0.507-0.008,1.155,0.236,1.372-0.545
		c0.552-1.024,0.408-1.574-0.917-1.527c-1.568,0.053-3.142,0.046-4.709-0.015c-2-0.077-2.606-0.738-2.626-2.709
		c-0.009-0.81-0.012-1.622,0-2.432c0.026-1.908,0.725-2.76,2.592-2.82c2.732-0.091,5.469-0.027,8.204-0.066
		c0.694-0.012,0.895,0.279,0.837,0.904c-0.027,0.302-0.045,0.613,0.004,0.91c0.213,1.292-0.207,1.806-1.608,1.677
		c-1.558-0.142-3.145,0.057-4.706-0.061c-1.241-0.094-1.505,0.422-1.304,1.477c0.023,0.264,0.106,0.588,0.377,0.581
		C64.37,108.313,66.592,108.777,68.771,108.132z"/>
	<path fill-rule="evenodd" clip-rule="evenodd" fill="#27A6B0" d="M52.033,109.382c0-1.825,0.039-3.653-0.018-5.478
		c-0.025-0.812,0.253-1.007,1.033-1.031c3.042-0.094,3.042-0.122,3.042,2.963c0,2.892-0.044,5.784,0.021,8.674
		c0.026,1.17-0.341,1.648-1.549,1.614c-3.03-0.083-2.479,0.286-2.525-2.48C52.013,112.224,52.033,110.804,52.033,109.382z"/>
	<path fill-rule="evenodd" clip-rule="evenodd" fill="#5BC3C3" d="M57.729,115.477c3.931,0.001,7.865,0.277,11.789-0.186
		c-0.535,0.642-1.286,0.76-2.042,0.764c-2.969,0.021-5.938,0.018-8.908-0.002C58.208,116.052,57.551,116.324,57.729,115.477z"/>
	<path fill-rule="evenodd" clip-rule="evenodd" fill="#5BC3C3" d="M23.655,115.471c3.222,0.019,6.443,0.032,9.664,0.064
		c0.539,0.006,1.118-0.161,1.594,0.259c-0.905,0.511-1.891,0.242-2.837,0.257c-2.436,0.04-4.872,0.028-7.308,0
		C24.346,116.045,23.66,116.355,23.655,115.471z"/>
	<path fill-rule="evenodd" clip-rule="evenodd" fill="#5BC3C3" d="M66.026,112.452c-0.216,0.781-0.865,0.537-1.372,0.545
		c-2.305,0.033-4.61,0.037-6.915,0.052c-0.251-0.815,0.364-0.646,0.769-0.646C61.015,112.41,63.52,112.434,66.026,112.452z"/>
	<path fill-rule="evenodd" clip-rule="evenodd" fill="#5BC3C3" d="M68.771,108.132c-2.179,0.646-4.401,0.182-6.603,0.239
		c-0.271,0.007-0.354-0.317-0.377-0.581c1.799,0.013,3.599,0.019,5.397,0.042C67.73,107.839,68.298,107.749,68.771,108.132z"/>
	<path fill-rule="evenodd" clip-rule="evenodd" fill="#5BC3C3" d="M69.771,114.99c-0.022-2.086-0.043-4.172-0.065-6.258
		C70.629,110.809,70.64,112.895,69.771,114.99z"/>
	<path fill-rule="evenodd" clip-rule="evenodd" fill="#5BC3C3" d="M108.369,114.29c0.614,0.056,0.63,0.491,0.606,0.954
		C108.649,115.005,108.461,114.678,108.369,114.29z"/>
	<path fill-rule="evenodd" clip-rule="evenodd" fill="#5BC3C3" d="M104.169,108.354c-0.054-0.19-0.045-0.424,0.161-0.446
		c0.38-0.041,0.419,0.264,0.425,0.557C104.56,108.427,104.364,108.391,104.169,108.354z"/>
	<path fill-rule="evenodd" clip-rule="evenodd" fill="#27A6B0" d="M86.879,38.021c0.669,0.338,0.631,0.762,0.153,1.239
		C86.979,38.848,86.93,38.435,86.879,38.021z"/>
	<path fill-rule="evenodd" clip-rule="evenodd" fill="#27A6B0" d="M114.805,90.153c-0.038,0.051-0.075,0.101-0.114,0.151
		c0.006-0.028,0.002-0.071,0.021-0.084c0.033-0.023,0.079-0.029,0.119-0.043L114.805,90.153z"/>
	<path fill-rule="evenodd" clip-rule="evenodd" fill="#5BC3C3" d="M52.854,30.822c2.526,3.028,3.607,6.395,2.824,10.289
		c-0.148,0.742-0.407,0.927-1.106,0.784c-1.751-0.359-3.507-0.358-5.261,0.015c-0.836,0.179-1.056-0.126-0.646-0.876
		c0.532-0.977,1.063-1.955,1.609-2.924C51.546,35.849,52.414,33.45,52.854,30.822z"/>
	<path fill-rule="evenodd" clip-rule="evenodd" fill="#5BC3C3" d="M109.585,16.708c-0.035-0.068-0.071-0.135-0.106-0.203
		c0.071,0.032,0.142,0.064,0.213,0.095C109.692,16.6,109.585,16.708,109.585,16.708z"/>
	<path fill-rule="evenodd" clip-rule="evenodd" fill="#5BC3C3" d="M87.934,20.972c-0.031-0.058-0.065-0.116-0.097-0.176
		c0.057,0.034,0.114,0.068,0.172,0.102C88.011,20.898,87.934,20.972,87.934,20.972z"/>
	<path fill-rule="evenodd" clip-rule="evenodd" fill="#27A6B0" d="M112.006,40.12c-0.014,0.038-0.028,0.076-0.042,0.113
		c-0.042-0.043-0.083-0.085-0.126-0.128c0.03-0.028,0.063-0.057,0.092-0.085C111.956,40.053,111.98,40.086,112.006,40.12z"/>
	<path fill-rule="evenodd" clip-rule="evenodd" fill="#27A6B0" d="M69.137,39.861c-0.22,0.334-0.439,0.668-0.659,1.002
		C68.453,40.369,68.397,39.854,69.137,39.861z"/>
	<path fill-rule="evenodd" clip-rule="evenodd" fill="#27A6B0" d="M77.738,39.222c0.255-0.234,0.51-0.47,0.765-0.704
		C78.534,39.063,78.227,39.24,77.738,39.222z"/>
	<path fill-rule="evenodd" clip-rule="evenodd" fill="#27A6B0" d="M76.985,39.84c0.205-0.16,0.41-0.318,0.615-0.478
		C77.551,39.722,77.305,39.828,76.985,39.84z"/>
	<path fill-rule="evenodd" clip-rule="evenodd" fill="#27A6B0" d="M69.794,38.946c-0.139,0.198-0.278,0.396-0.418,0.593
		C69.406,39.265,69.451,39,69.794,38.946z"/>
	<path fill-rule="evenodd" clip-rule="evenodd" fill="#27A6B0" d="M40.423,34.382c-0.056,0.038-0.112,0.076-0.167,0.114
		c0.039-0.055,0.077-0.11,0.115-0.165C40.37,34.331,40.423,34.382,40.423,34.382z"/>
</g>
</svg>
