<?xml version="1.0" encoding="utf-8"?>
<!-- Generator: Adobe Illustrator 16.0.0, SVG Export Plug-In . SVG Version: 6.00 Build 0)  -->
<!DOCTYPE svg PUBLIC "-//W3C//DTD SVG 1.1//EN" "http://www.w3.org/Graphics/SVG/1.1/DTD/svg11.dtd">
<svg version="1.1" id="flag-icon-css-am" xmlns="http://www.w3.org/2000/svg" xmlns:xlink="http://www.w3.org/1999/xlink" x="0px"
	 y="0px" width="200px" height="150px" viewBox="-25 0 200 150" enable-background="new -25 0 200 150" xml:space="preserve">
<g>
	<path fill="#FFDEB3" d="M117.918,79.068c0.158,1.886,0.314,3.771,0.497,5.932c1.385,1.864,3.092,4.085,4.71,6.371
		c1.175,1.661,1.13,3.396,0.215,5.234c-0.281,0.567-0.238,1.568,0.084,2.123c2.124,3.639,3.912,7.405,3.782,11.707
		c-0.056,1.851-0.464,3.807-1.211,5.49c-1.218,2.741-1.804,2.947-6.476,4.415c0.14,2.077,0.28,4.222,0.42,6.313
		c2.94,0.46,7.096-1.312,8.215-4.389c0.113-0.313,0.496-0.56,0.803-0.758c0.075-0.048,0.511,0.229,0.503,0.332
		c-0.028,0.368-0.065,0.844-0.301,1.069c-1.827,1.757-3.716,3.45-5.556,5.192c-0.953,0.902-1.904,1.816-2.756,2.813
		c-0.856,1.005-1.543,1.036-2.611,0.198c-2.842-2.232-5.799-4.318-8.682-6.504c-0.39-0.293-0.604-0.814-0.898-1.231
		c0.305-0.207,0.609-0.415,0.914-0.621c0.231,0.351,0.449,0.71,0.699,1.045c0.301,0.401,0.576,0.847,0.955,1.16
		c2.072,1.71,4.479,2.261,7.44,1.957c-0.129-2.14-0.228-4.243-0.413-6.339c-0.025-0.309-0.41-0.727-0.725-0.844
		c-3.69-1.397-7.401-2.747-11.354-4.201c-0.328,5.884-5.242,7.039-8.512,9.699c-1.042,0.849-2.117,1.484-2.402,2.976
		c-0.533,2.784-0.844,2.88-3.138,1.608c-4.806,3.65-9.611,7.123-14.188,10.877c-1.602,1.312-2.654,3.298-3.925,5
		c-0.378,0.507-0.626,1.106-0.97,1.64c-1.225,1.894-2.219,2.005-3.271-0.021c-2.296-4.418-5.747-7.492-9.955-10.049
		c-3.233-1.968-6.102-4.535-9.24-6.918c-2.209,0.774-2.158,0.607-3.352-1.82c-0.72-1.465-2.053-2.694-3.306-3.813
		c-1.238-1.107-2.687-1.996-4.105-2.882c-2.204-1.377-3.846-3.09-3.729-6.414c-1.16,0.935-1.823,1.677-2.65,2.091
		c-1.777,0.891-3.573,1.973-5.48,2.318c-3.373,0.611-6.168-0.979-7.262-4.238c-0.826-2.461-1.392-5.188-1.256-7.755
		c0.398-7.583,2.159-14.867,6.646-21.187c1.036-1.459,2.47-2.789,4.007-3.694c1.589-0.937,1.961-2.081,1.794-3.679
		c-0.497-4.768-0.964-9.538-1.498-14.299c-0.829-7.398-1.722-14.791-2.548-22.188c-0.253-2.267,0.157-2.692,2.464-3.398
		c8.034-2.454,15.57-5.946,21.796-11.678c2.869-2.641,5.159-5.901,7.801-8.799c2.986-3.276,5.99-6.545,9.15-9.65
		c1.58-1.553,3.128-1.383,4.872,0.37c2.642,2.655,5.181,5.416,7.665,8.218c2.711,3.059,5.259,6.261,7.986,9.303
		c0.945,1.054,2.216,1.815,3.582,2.903c1.506-2.373,2.957-4.555,4.302-6.8c3.56-5.942,7.132-11.88,10.577-17.889
		c1.459-2.545,4.552-3.785,6.363-3.57c2.224,0.264,6.828,2.897,7.17,5.111c0.293,1.897-18.334,26.018-20.113,28.446
		c2.751,1.167,5.115,2.179,7.49,3.173c0.424,0.177,0.871,0.36,1.32,0.405c3.17,0.315,4.559,2.355,4.858,5.226
		c0.255,2.429,0.192,4.889,0.353,7.331c0.041,0.65,0.516,1.274,0.547,1.922c0.112,2.537,0.065,5.082,0.203,7.617
		c0.096,1.769,0.428,3.523,0.59,5.291c0.115,1.237,0.063,2.491,0.201,3.724c0.137,1.222,0.481,2.42,0.62,3.642
		c0.146,1.27,0.152,2.555,0.22,3.833"/>
	<path fill="#06354F" d="M114.087,51.297c-0.188,0.035-0.375,0.071-0.563,0.106c-0.107,0.612-0.252,1.218-0.32,1.834
		c-0.508,4.582-1.064,9.16-1.459,13.751c-0.109,1.272,0.095,2.649,0.49,3.87c0.888,2.737,1.957,5.417,3.018,8.096
		c0.229,0.575,0.732,1.04,1.109,1.557c0.154-0.092,0.309-0.185,0.461-0.276c-1.178-1.619-1.572-3.289-0.446-4.958
		c-1.192-1.518-0.812-2.967-0.687-4.666c0.101-1.368-0.492-2.92-0.449-4.587c0.037-1.461-1.03-3.018-0.08-4.653
		c-1.146-1.55-1.365-3.185-0.229-4.9C112.893,55.069,114.427,52.999,114.087,51.297z"/>
	<path fill="#06354F" d="M99.253,36.3c4.185,1.584,8.08,3.152,12.048,4.51c1.333,0.455,1.815,0.89,1.627,2.389
		c-1.031,8.193-1.975,16.399-2.843,24.611c-0.114,1.088,0.25,2.276,0.599,3.352c0.566,1.756,1.283,3.465,1.971,5.181
		c0.994,2.487,1.438,5.312,4.3,6.661c-0.603,0.982-1.073,1.755-1.659,2.711c3.169,1.021,4.977,3.374,6.518,6.092
		c0.965,1.7,1.131,3.178-0.172,4.7c-0.845,0.989-0.648,1.72,0.188,2.774c3.355,4.234,4.773,9.094,3.625,14.443
		c-0.905,4.215-4.148,5.692-8.18,4.188c-4.045-1.512-8.16-2.829-12.39-4.281c-0.141,0.786-0.347,1.295-0.301,1.78
		c0.239,2.54-1.176,4.034-3.114,5.308c-1.591,1.045-3.021,2.35-4.65,3.317c-1.836,1.089-3.227,2.354-3.018,5.042
		c-0.826-0.781-1.314-1.242-1.88-1.775c-0.267,0.16-0.631,0.266-0.815,0.508c-3.504,4.613-8.498,7.436-13.092,10.693
		c-2.252,1.598-3.443,3.816-4.833,5.982c-0.552,0.861-1.058,1.753-1.749,2.902c-1.244-1.959-2.276-3.731-3.462-5.396
		c-0.685-0.961-1.513-1.887-2.457-2.584c-2.739-2.025-5.638-3.836-8.342-5.904c-2.274-1.74-4.363-3.727-6.739-5.779
		c-0.292,0.385-0.734,0.967-1.153,1.518c-0.242-0.149-0.409-0.203-0.41-0.262c-0.048-2.42-1.476-3.823-3.463-4.901
		c-0.957-0.521-1.791-1.267-2.689-1.894c-2.896-2.026-6.087-3.855-5.051-8.455c-0.195-0.076-0.391-0.154-0.587-0.232
		c-1.369,0.794-2.767,1.543-4.096,2.396c-0.913,0.588-1.649,1.492-2.607,1.965c-3.824,1.879-7.565,0.252-8.987-3.905
		c-1.098-3.207-0.805-6.515-0.28-9.771c0.886-5.498,2.225-10.871,5.259-15.654c1.488-2.346,3.354-4.254,6.125-5.09
		c0.335-0.102,0.766-0.573,0.789-0.9c0.1-1.37,0.204-2.768,0.052-4.125c-1.331-11.94-2.69-23.876-4.123-35.804
		c-0.174-1.456,0.729-1.455,1.578-1.707c8.949-2.656,17.056-6.862,23.668-13.522c3.041-3.062,5.545-6.649,8.456-9.85
		c2.285-2.513,4.835-4.784,7.238-7.193c0.888-0.889,1.65-0.861,2.468,0.062c3.594,4.059,7.305,8.019,10.766,12.187
		c3.009,3.619,6.243,6.94,10.231,9.777c0.668-1.064,1.322-2.063,1.933-3.088c4.718-7.943,9.44-15.884,14.129-23.845
		c1.112-1.89,2.771-2.48,4.827-2.372c2.174,0.115,4.123,0.735,5.342,2.675c0.793,1.265,0.241,2.392-0.578,3.493
		c-6.451,8.661-12.875,17.342-19.307,26.018C99.823,35.428,99.704,35.623,99.253,36.3z"/>
	<path d="M91.924,37.444c-0.52-0.489-0.726-0.676-0.923-0.87c-2.952-2.903-5.997-5.719-8.829-8.735
		c-3.234-3.446-6.295-7.058-9.399-10.625c-0.88-1.013-1.723-1.002-2.62-0.122c-2.672,2.622-5.649,5.009-7.935,7.936
		c-7.111,9.103-16.2,15.335-26.897,19.366c-1.163,0.438-1.455,0.922-1.31,2.107c0.87,7.106,1.665,14.222,2.486,21.334
		c0.081,0.696,0.172,1.391,0.258,2.086c0.193,0.03,0.385,0.06,0.578,0.09c1.338-3.501,2.677-7.002,4.126-10.792
		c0.641,1.857,1.18,3.421,1.72,4.986c0.129-0.037,0.257-0.073,0.385-0.109c1.627-4.37,3.255-8.739,4.882-13.109
		c0.156,0.024,0.312,0.047,0.469,0.071c0.471,1.534,1.252,3.053,1.329,4.606c0.085,1.742,0.727,3.012,1.863,4.425
		c0.432-1.188,0.79-2.174,1.275-3.509c0.901,2.536,1.674,4.712,2.447,6.889c0.188-0.127,0.375-0.255,0.563-0.382
		c0.284,0.202,0.673,0.341,0.835,0.615c1.8,3.025,3.645,6.028,5.302,9.131c0.74,1.387,1.698,1.896,3.167,1.785
		c1.083-0.081,1.647-0.981,1.056-1.877c-1.999-3.023-3.957-6.079-6.084-9.012c-3.055-4.21-4.155-9.144,0.74-12.8
		c0.729-0.543,0.717-1.096-0.043-1.66c-2.431-1.806-3.473-4.683-2.712-7.573c0.549-2.085,1.969-3.407,4.013-3.908
		c2.136-0.523,4.136-0.174,5.719,1.548c0.902,0.981,1.819,1.948,2.804,3.002c-0.685,0.904-1.493,1.973,0.479,2.724
		c0.248,0.094,0.319,0.817,0.357,1.259c0.059,0.669,0.016,1.348,0.016,2.632c1.464-0.899,2.501-1.527,3.529-2.17
		c1.604-1.002,3.145-2.124,4.815-2.989c1.628-0.843,3.785-0.686,4.825-2.64c0.088-0.165,0.398-0.208,0.6-0.319
		C87.791,39.74,89.768,38.642,91.924,37.444z"/>
	<path d="M62.348,109.146c-7.271,1.139-14.24,2.229-21.652,3.39c0.71,0.771,0.972,1.139,1.31,1.409
		c8.636,6.894,18.051,12.438,28.422,16.296c0.611,0.228,1.48,0.091,2.125-0.152c7.323-2.757,14.265-6.282,20.74-10.678
		c2.835-1.925,5.523-4.065,8.277-6.106c-0.057-0.188-0.11-0.373-0.166-0.56c-4.115-0.776-8.229-1.578-12.355-2.281
		c-0.357-0.062-0.972,0.431-1.217,0.82c-1.005,1.608-1.795,3.366-2.902,4.897c-0.746,1.033-1.781,1.971-2.888,2.603
		c-1.032,0.59-2.427,0.832-3.325-0.354c-0.931-1.229,0.055-2.123,0.818-3.007c0.259-0.301,0.578-0.649,0.632-1.013
		c0.144-0.956,0.554-2.178,0.14-2.852c-0.934-1.518-2.289-2.449-4.404-2.402c-5.13,0.109-5.111-1.063-5.875,5.234
		c-0.108,0.889-0.379,1.791-0.748,2.607c-0.381,0.846-0.868,1.699-1.505,2.357c-0.562,0.58-1.391,1.25-2.109,1.258
		c-1.623,0.018-3.246-0.4-4.876-0.547c-2.608-0.233-5.041-0.879-6.729-3.031c-0.392-0.499-0.596-1.458-0.383-2.016
		c0.158-0.416,1.108-0.674,1.732-0.738c1.202-0.124,2.438,0.047,3.629-0.117c0.664-0.093,1.547-0.457,1.84-0.977
		C61.481,112.125,61.751,110.873,62.348,109.146z"/>
	<path d="M84.48,65.581c-0.27,2.265-0.438,4.662-0.869,7.01c-0.324,1.771-0.156,2.03,1.609,1.766
		c7.186-1.072,13.629-4.191,20.094-7.245c0.461-0.218,0.931-0.9,0.994-1.416c0.795-6.527,1.537-13.061,2.207-19.602
		c0.045-0.444-0.5-1.221-0.945-1.397c-3.1-1.221-6.245-2.325-9.422-3.482c0.039-0.06-0.055,0.021-0.068,0.114
		c-0.363,2.403,0.091,5.052-2.109,6.903c-0.152,0.129-0.195,0.414-0.246,0.636c-0.576,2.425-0.77,5.082-3.992,5.826
		c2.332,3.347,2.492,6.697,1.095,10.105c-0.252,0.615-1.188,1.354-1.8,1.345C88.805,66.111,86.585,65.786,84.48,65.581z"/>
	<path d="M71.86,62.218c-0.238,0.684-0.448,1.254-0.636,1.832c-0.392,1.205-0.93,2.395-1.089,3.631
		c-0.077,0.599,0.566,1.291,0.884,1.941c0.41-0.54,0.947-1.025,1.202-1.63c0.446-1.064,0.72-2.201,1.066-3.308
		c0.208,1.698-0.008,3.279,0.048,4.851c0.021,0.588,0.678,1.152,1.044,1.728c0.194-0.598,0.476-1.185,0.558-1.797
		c0.097-0.733,0.021-1.488,0.021-2.234c0.123,0.008,0.244,0.015,0.364,0.022c0.48,1.161,0.961,2.321,1.44,3.481
		c0.248-0.063,0.496-0.125,0.745-0.188c0-1.205,0-2.41,0-3.615c0.121-0.007,0.242-0.015,0.364-0.022
		c0.371,1.104,0.742,2.207,1.083,3.224c0.362-1.508,0.71-2.953,1.118-4.648c0.556,0.621,1.056,1.179,1.736,1.939
		c-0.342-1.336-0.49-2.445-0.902-3.444c-1.055-2.555-2.04-5.194-4.448-6.87c-1.485-1.035-2.514-0.582-2.808,1.174
		c-0.057,0.341-0.123,0.683-0.152,1.027c-0.104,1.253-0.725,1.788-2.029,1.808c-1.317,0.02-2.653,0.196-3.939,0.49
		c-1.937,0.442-2.324,1.821-1.123,3.437c0.089-0.626,0.185-1.297,0.28-1.969c0.125,0.006,0.252,0.012,0.379,0.018
		c0.276,0.94,0.551,1.881,0.828,2.822c0.159-0.037,0.318-0.073,0.477-0.109c0-0.83,0-1.66,0-2.489
		c0.129,0.155,0.258,0.312,0.388,0.468C69.725,63.299,70.688,62.811,71.86,62.218z"/>
	<path d="M70.657,56.425c0.112,0.229,0.224,0.458,0.336,0.686c3.528-2.06,7.056-4.118,10.585-6.178
		c-0.074-0.155-0.146-0.312-0.221-0.468c-0.768,0.135-1.533,0.269-2.258,0.396c1.477-1.51,2.938-3.008,4.402-4.506
		c-0.095-0.099-0.189-0.197-0.284-0.296c-0.67,0.157-1.34,0.314-2.01,0.471c-0.024-0.083-0.05-0.166-0.075-0.25
		c0.786-0.66,1.572-1.322,2.358-1.983c-0.106-0.138-0.212-0.276-0.317-0.414c-4.006,0.375-6.841,2.69-9.147,5.836
		c-2.377-1.036-4.355,0.936-4.329,4.65c1.47-0.833,2.782-1.575,4.184-2.368c0.947,1.21,1.738,1.023,2.405-0.367
		c0.109-0.23,0.615-0.271,0.938-0.398c0.065,0.131,0.131,0.263,0.196,0.395c-0.872,0.692-1.923,2.109-2.584,1.946
		c-2.329-0.575-3.304,1.65-5.096,2.073c0.711-0.102,1.422-0.205,2.134-0.308c0.018,0.123,0.037,0.244,0.055,0.366
		C71.506,55.947,71.082,56.186,70.657,56.425z"/>
	<path d="M69.231,49.927c-2.314,0.718-4.331,1.199-6.23,1.968c-2.427,0.982-3.438,3.821-2.425,6.249
		c1.043,2.502,3.321,3.498,5.931,2.528c1.026-0.38,2.002-0.898,2.972-1.34C66.26,56.708,66.228,56.124,69.231,49.927z"/>
	<path d="M50.104,61.317c-0.598-2.962-1.18-5.847-1.8-8.918c-1.502,4.319-2.951,8.483-4.423,12.717c0.656,0,1.038,0,1.452,0
		c0.222-0.57,0.482-1.24,0.744-1.909c0.16,1.213-0.004,2.336-0.155,3.46c-0.302,2.268-0.299,2.268,0.902,2.518
		c0.143-0.545,0.286-1.089,0.495-1.885c0.276,1.1,0.471,1.875,0.692,2.754c1.933-1.35,2.086-1.64,1.856-3.368
		c-0.268-2.002-0.554-4.001-0.819-6.005c-0.016-0.122,0.084-0.261,0.177-0.529C49.577,60.617,49.833,60.957,50.104,61.317z"/>
	<path d="M88.382,59.897c-0.075,0.017-0.153,0.034-0.229,0.051c-0.324-1.193-0.649-2.386-0.976-3.579
		c-0.169,0.038-0.338,0.076-0.508,0.115c0.192,1.5,0.386,3.002,0.622,4.843c-0.589-0.649-0.927-1.023-1.372-1.515
		c-0.112,3.526,1.065,4.999,3.756,5.24c2.634-1.428,1.558-3.767,1.519-6.028c0.539,0.449,0.813,0.677,1.238,1.031
		c-0.182-1.96-0.341-3.679-2.428-4.733c0,1.033,0,1.777,0,2.885c-0.497-0.864-0.807-1.402-1.115-1.94
		c-0.113,0.033-0.226,0.065-0.338,0.097C88.494,57.542,88.438,58.72,88.382,59.897z"/>
	<path d="M116.557,6.557c-1.977-1.538-4.869-1.421-5.808,0.114c-5.69,9.312-11.371,18.63-17.04,27.956
		c-0.35,0.576-0.559,1.237-0.833,1.858c0.133,0.065,0.267,0.129,0.399,0.194c0.502-0.756,1.025-1.499,1.504-2.271
		c5.188-8.401,10.396-16.793,15.535-25.224c0.977-1.6,1.979-2.795,4.09-2.408C115.033,6.892,115.727,6.653,116.557,6.557z"/>
	<path d="M64.399,109.611c-0.157-0.116-0.314-0.234-0.471-0.354c-1.192,0.883-1.684,2.234-2.058,3.434
		c1.003,0.619,1.84,1.15,2.692,1.66c0.922,0.553,1.828,1.152,2.808,1.576c0.294,0.129,1.117-0.187,1.182-0.433
		c0.537-2.046,0.952-4.123,1.404-6.188c-0.174-0.049-0.348-0.096-0.522-0.144c-0.521,2.009-1.042,4.019-1.562,6.026
		c-0.185-0.041-0.369-0.084-0.553-0.127c0.368-1.918,0.736-3.838,1.103-5.756c-0.157-0.045-0.315-0.092-0.473-0.137
		c-0.645,1.28-1.289,2.561-1.933,3.842c-0.107-0.049-0.214-0.098-0.321-0.146c0.401-1.146,0.802-2.288,1.192-3.402
		c-1.999-0.868-1.914,1.313-3.191,2.185C64.034,110.668,64.217,110.141,64.399,109.611z"/>
	<path d="M90.771,38.872c-3.58,2.328-4.346,5.239-2.086,7.645C91.068,44.45,91.835,41.746,90.771,38.872z"/>
	<path d="M65.642,40.468c-1.52-1.472-3.063-1.667-4.232-0.788c-1.343,1.011-1.091,2.327-0.714,3.969
		C62.437,42.529,63.955,41.553,65.642,40.468z"/>
	<path d="M85.922,41.769c-1.746,0.991-1.523,4.177,0.438,6.259C87.594,47.065,87.417,44.516,85.922,41.769z"/>
	<path d="M85.182,50.182c-1.475,1.063-2.709,1.952-4.152,2.992c1.486,0.626,2.701,1.137,4.152,1.748
		C85.182,53.16,85.182,51.804,85.182,50.182z"/>
	<path d="M41.372,62.065c-0.161-0.027-0.321-0.054-0.482-0.081c-0.653,2.465-1.307,4.929-1.959,7.394
		c0.208,0.113,0.417,0.227,0.626,0.341c0.509-0.441,1.402-0.837,1.462-1.333C41.271,66.296,41.276,64.175,41.372,62.065z"/>
	<path d="M69.966,74.227c0.06,0.135,0.121,0.271,0.18,0.406c2.451,0,4.903,0,7.354,0c-1.913-0.632-3.844-1.086-5.801-1.306
		C71.162,73.267,70.546,73.908,69.966,74.227z"/>
	<path d="M76.811,72.914c0.664,0.696,1.063,1.246,1.586,1.626c0.537,0.391,1.197,0.846,1.802,0.843
		c0.515-0.002,1.024-0.616,1.536-0.959c-0.398-0.42-0.741-1.11-1.209-1.208C79.375,72.974,78.167,73.004,76.811,72.914z"/>
	<path d="M94.607,42.912c0.89-0.443,1.484-0.74,2.082-1.036c-0.641-0.374-1.258-1.005-1.922-1.056
		c-0.879-0.067-1.791,0.319-2.688,0.511C92.911,41.851,93.742,42.371,94.607,42.912z"/>
	<path d="M92.094,38.061c-0.117,0.244-0.236,0.488-0.354,0.731c0.414,0.319,0.787,0.802,1.252,0.922
		c0.881,0.226,1.813,0.295,2.727,0.317c0.313,0.007,0.637-0.32,0.953-0.495c-0.242-0.333-0.438-0.899-0.734-0.958
		C94.671,38.324,93.377,38.219,92.094,38.061z"/>
	<path d="M54.954,73.572c0.151-0.101,0.303-0.203,0.454-0.305c-0.282-2.475-0.367-5.007-1.918-6.86
		c0.111,1.841,0.171,3.87,0.402,5.879C53.945,72.75,54.584,73.145,54.954,73.572z"/>
	<path d="M88.83,50.137c-0.104,0.168-0.209,0.336-0.314,0.504c0.736,0.271,1.541,0.872,2.194,0.74
		c1.226-0.25,2.649-0.523,3.365-2.308C92.104,49.473,90.467,49.805,88.83,50.137z"/>
	<path d="M94.374,45.351c0.86-0.452,1.416-0.744,1.974-1.036c-0.563-0.377-1.102-1.015-1.689-1.069
		c-0.783-0.07-1.607,0.315-2.413,0.505C92.939,44.273,93.635,44.795,94.374,45.351z"/>
	<path d="M61.796,74.1c-1.517-2.263-2.987-4.456-4.456-6.648C58.101,70.796,60.383,74.104,61.796,74.1z"/>
	<path d="M87.563,49.786c-0.242-0.024-0.483-0.049-0.728-0.073c-1.101,0.953-0.881,2.233-0.626,3.479
		c0.044,0.216,0.496,0.445,0.781,0.479c0.169,0.02,0.537-0.329,0.546-0.523C87.591,52.029,87.563,50.907,87.563,49.786z"/>
	<path d="M88.952,52.53c-0.075,0.121-0.149,0.242-0.226,0.363c0.608,0.3,1.193,0.781,1.83,0.864
		c1.325,0.172,2.018-0.785,3.123-1.918C91.743,52.122,90.348,52.326,88.952,52.53z"/>
	<path d="M68.287,42.402c-0.043-0.174-0.085-0.348-0.128-0.522c-2.134-0.36-3.73,0.905-5.476,1.721
		c0.044,0.139,0.088,0.278,0.131,0.418C64.639,43.48,66.462,42.941,68.287,42.402z"/>
	<path d="M88.534,49.053c1.642-0.369,2.854-0.641,4.267-0.958C90.941,46.813,89.695,47.004,88.534,49.053z"/>
	<path d="M95.673,46.682c0.022-0.271,0.046-0.543,0.07-0.814c-1.123-0.082-2.246-0.165-3.369-0.247
		c-0.017,0.193-0.035,0.385-0.052,0.578C93.357,46.984,94.456,47.293,95.673,46.682z"/>
	<path fill="#FFDEB3" d="M91.924,37.444c-2.156,1.198-4.133,2.296-6.109,3.392c-0.201,0.111-0.513,0.154-0.601,0.319
		c-1.04,1.954-3.196,1.797-4.825,2.64c-1.672,0.865-3.213,1.987-4.815,2.989c-1.028,0.643-2.065,1.271-3.529,2.17
		c0-1.285,0.043-1.963-0.016-2.632c-0.038-0.442-0.109-1.166-0.357-1.259c-1.972-0.75-1.165-1.82-0.479-2.724
		c-0.985-1.054-1.902-2.021-2.804-3.002c-1.583-1.722-3.583-2.071-5.719-1.548c-2.044,0.501-3.464,1.823-4.013,3.908
		c-0.761,2.89,0.282,5.767,2.712,7.573c0.76,0.564,0.771,1.117,0.043,1.66c-4.895,3.656-3.795,8.59-0.74,12.8
		c2.127,2.933,4.085,5.988,6.084,9.012c0.591,0.896,0.026,1.796-1.056,1.877c-1.47,0.11-2.427-0.398-3.167-1.785
		c-1.657-3.103-3.502-6.106-5.302-9.131c-0.163-0.274-0.551-0.413-0.835-0.615c-0.188,0.127-0.375,0.255-0.563,0.382
		c-0.772-2.176-1.545-4.353-2.447-6.889c-0.485,1.335-0.843,2.321-1.275,3.509c-1.136-1.414-1.777-2.684-1.863-4.425
		c-0.077-1.553-0.858-3.072-1.329-4.606c-0.157-0.024-0.313-0.047-0.469-0.071c-1.627,4.37-3.255,8.739-4.882,13.109
		c-0.128,0.036-0.256,0.073-0.385,0.109c-0.54-1.565-1.079-3.129-1.72-4.986c-1.449,3.79-2.788,7.291-4.126,10.792
		c-0.193-0.03-0.385-0.06-0.578-0.09c-0.086-0.695-0.178-1.391-0.258-2.086c-0.821-7.113-1.616-14.228-2.486-21.334
		c-0.145-1.185,0.147-1.668,1.31-2.107c10.698-4.031,19.786-10.263,26.897-19.366c2.286-2.926,5.263-5.313,7.935-7.936
		c0.897-0.88,1.74-0.891,2.62,0.122c3.104,3.568,6.164,7.18,9.399,10.625c2.832,3.017,5.877,5.832,8.829,8.735
		C91.198,36.768,91.404,36.955,91.924,37.444z"/>
	<path fill="#FFDEB3" d="M62.348,109.146c-0.597,1.727-0.867,2.979-1.468,4.043c-0.293,0.52-1.177,0.884-1.84,0.977
		c-1.191,0.164-2.427-0.007-3.629,0.117c-0.625,0.064-1.575,0.322-1.732,0.738c-0.212,0.558-0.008,1.517,0.383,2.016
		c1.688,2.152,4.121,2.798,6.729,3.031c1.63,0.146,3.253,0.563,4.876,0.547c0.718-0.008,1.547-0.678,2.109-1.258
		c0.637-0.658,1.124-1.513,1.505-2.357c0.369-0.816,0.64-1.721,0.748-2.607c0.763-6.297,0.744-5.125,5.874-5.234
		c2.117-0.047,3.473,0.886,4.404,2.402c0.414,0.674,0.006,1.896-0.139,2.852c-0.055,0.363-0.373,0.712-0.632,1.013
		c-0.765,0.884-1.749,1.777-0.818,3.007c0.898,1.187,2.293,0.943,3.325,0.354c1.105-0.632,2.141-1.568,2.889-2.603
		c1.106-1.531,1.896-3.289,2.901-4.897c0.245-0.392,0.858-0.882,1.217-0.82c4.128,0.703,8.24,1.505,12.354,2.281
		c0.057,0.187,0.111,0.372,0.166,0.56c-2.754,2.041-5.441,4.184-8.276,6.106c-6.476,4.396-13.417,7.921-20.74,10.678
		c-0.646,0.243-1.514,0.38-2.125,0.152c-10.371-3.858-19.786-9.402-28.422-16.296c-0.338-0.271-0.6-0.639-1.31-1.409
		C48.108,111.376,55.078,110.285,62.348,109.146z"/>
	<path fill="#FFDEB3" d="M84.48,65.581c2.104,0.205,4.322,0.53,6.545,0.563c0.611,0.009,1.549-0.73,1.801-1.345
		c1.398-3.408,1.238-6.759-1.094-10.105c3.223-0.744,3.416-3.401,3.99-5.826c0.053-0.222,0.094-0.507,0.248-0.636
		c2.199-1.851,1.745-4.5,2.108-6.903c0.015-0.093,0.108-0.174,0.069-0.114c3.176,1.158,6.32,2.261,9.42,3.482
		c0.445,0.176,0.992,0.953,0.945,1.397c-0.668,6.541-1.412,13.075-2.207,19.602c-0.063,0.516-0.533,1.197-0.994,1.416
		c-6.465,3.054-12.908,6.173-20.094,7.245c-1.766,0.264-1.934,0.004-1.609-1.766C84.043,70.243,84.212,67.846,84.48,65.581z"/>
	<path fill="#FFDEB3" d="M71.86,62.218c-1.172,0.593-2.135,1.082-3.099,1.569c-0.13-0.156-0.258-0.313-0.388-0.468
		c0,0.829,0,1.659,0,2.489c-0.159,0.036-0.318,0.072-0.477,0.109c-0.277-0.941-0.552-1.882-0.828-2.822
		c-0.127-0.006-0.253-0.012-0.379-0.018c-0.096,0.672-0.191,1.343-0.28,1.969c-1.201-1.616-0.813-2.995,1.123-3.437
		c1.286-0.294,2.622-0.471,3.939-0.49c1.304-0.02,1.925-0.555,2.029-1.808c0.029-0.344,0.095-0.686,0.152-1.027
		c0.294-1.756,1.322-2.208,2.808-1.174c2.408,1.676,3.394,4.315,4.448,6.87c0.412,0.999,0.563,2.108,0.902,3.444
		c-0.682-0.76-1.182-1.318-1.736-1.939c-0.408,1.695-0.756,3.14-1.118,4.648c-0.341-1.017-0.712-2.12-1.083-3.224
		c-0.122,0.007-0.243,0.015-0.364,0.022c0,1.205,0,2.41,0,3.615c-0.249,0.063-0.497,0.125-0.745,0.188
		c-0.479-1.161-0.959-2.321-1.439-3.481c-0.12-0.008-0.241-0.015-0.364-0.022c0,0.746,0.075,1.501-0.021,2.234
		c-0.082,0.612-0.364,1.199-0.558,1.797c-0.367-0.576-1.023-1.14-1.044-1.728c-0.056-1.571,0.16-3.152-0.048-4.851
		c-0.346,1.107-0.62,2.244-1.066,3.308c-0.254,0.605-0.792,1.09-1.202,1.63c-0.317-0.65-0.961-1.343-0.884-1.941
		c0.159-1.237,0.698-2.426,1.089-3.631C71.413,63.472,71.623,62.902,71.86,62.218z"/>
	<path fill="#FFDEB3" d="M70.657,56.425c0.425-0.239,0.849-0.479,1.274-0.718c-0.019-0.122-0.037-0.244-0.055-0.366
		c-0.712,0.103-1.423,0.206-2.134,0.308c1.792-0.422,2.767-2.648,5.096-2.073c0.661,0.163,1.712-1.253,2.584-1.946
		c-0.064-0.131-0.131-0.263-0.195-0.395c-0.322,0.127-0.828,0.168-0.938,0.398c-0.667,1.39-1.458,1.577-2.405,0.367
		c-1.402,0.793-2.714,1.536-4.184,2.368c-0.026-3.714,1.952-5.687,4.329-4.65c2.307-3.146,5.142-5.46,9.147-5.836
		c0.104,0.138,0.212,0.276,0.317,0.414c-0.786,0.661-1.572,1.323-2.358,1.983c0.025,0.083,0.052,0.167,0.075,0.25
		c0.67-0.157,1.34-0.314,2.01-0.471c0.094,0.099,0.189,0.198,0.284,0.296c-1.464,1.499-2.927,2.996-4.401,4.506
		c0.724-0.127,1.489-0.261,2.256-0.396c0.074,0.157,0.146,0.313,0.222,0.468c-3.529,2.06-7.058,4.119-10.585,6.178
		C70.881,56.883,70.769,56.654,70.657,56.425z"/>
	<path fill="#FFDEB3" d="M69.231,49.927c-3.003,6.197-2.972,6.781,0.247,9.404c-0.97,0.442-1.946,0.96-2.972,1.34
		c-2.61,0.97-4.888-0.025-5.931-2.528c-1.012-2.427-0.002-5.266,2.425-6.249C64.9,51.126,66.917,50.645,69.231,49.927z"/>
	<path fill="#FFDEB3" d="M50.104,61.317c-0.271-0.36-0.528-0.7-0.878-1.164c-0.093,0.268-0.193,0.407-0.177,0.529
		c0.265,2.004,0.551,4.003,0.819,6.005c0.23,1.728,0.076,2.018-1.856,3.368c-0.221-0.879-0.416-1.655-0.692-2.754
		c-0.209,0.795-0.352,1.34-0.496,1.885c-1.201-0.25-1.204-0.25-0.902-2.518c0.15-1.124,0.315-2.247,0.155-3.46
		c-0.261,0.668-0.521,1.339-0.744,1.909c-0.415,0-0.796,0-1.452,0c1.473-4.234,2.921-8.398,4.423-12.717
		C48.924,55.47,49.507,58.355,50.104,61.317z"/>
	<path fill="#FFDEB3" d="M88.382,59.897c0.058-1.177,0.112-2.355,0.169-3.533c0.112-0.032,0.225-0.064,0.338-0.097
		c0.31,0.539,0.618,1.076,1.115,1.94c0-1.108,0-1.853,0-2.885c2.087,1.054,2.246,2.772,2.428,4.733
		c-0.427-0.354-0.699-0.582-1.238-1.031c0.039,2.261,1.115,4.601-1.519,6.028c-2.688-0.241-3.868-1.714-3.756-5.24
		c0.445,0.492,0.783,0.866,1.372,1.515c-0.236-1.84-0.43-3.342-0.622-4.843c0.17-0.039,0.339-0.077,0.508-0.115
		c0.325,1.193,0.65,2.386,0.976,3.579C88.229,59.932,88.307,59.915,88.382,59.897z"/>
	<path fill="#FFDEB3" d="M116.557,6.557c-0.83,0.096-1.522,0.335-2.152,0.22c-2.11-0.387-3.112,0.808-4.088,2.408
		c-5.141,8.431-10.348,16.823-15.537,25.224c-0.478,0.772-1.002,1.515-1.504,2.271c-0.133-0.065-0.267-0.129-0.398-0.194
		c0.273-0.622,0.482-1.282,0.833-1.858c5.669-9.326,11.351-18.644,17.04-27.956C111.688,5.136,114.58,5.02,116.557,6.557z"/>
	<path fill="#FFDEB3" d="M64.399,109.611c-0.183,0.529-0.366,1.057-0.705,2.037c1.278-0.871,1.193-3.053,3.191-2.185
		c-0.391,1.114-0.792,2.259-1.192,3.402c0.107,0.049,0.214,0.098,0.321,0.146c0.645-1.281,1.289-2.562,1.933-3.842
		c0.158,0.045,0.315,0.092,0.473,0.137c-0.367,1.918-0.735,3.838-1.103,5.756c0.185,0.043,0.369,0.086,0.553,0.127
		c0.521-2.008,1.042-4.019,1.562-6.026c0.174,0.048,0.349,0.095,0.522,0.144c-0.452,2.065-0.867,4.144-1.404,6.188
		c-0.065,0.246-0.888,0.562-1.182,0.433c-0.98-0.424-1.885-1.023-2.808-1.576c-0.852-0.51-1.688-1.041-2.692-1.66
		c0.375-1.198,0.866-2.551,2.058-3.434C64.085,109.377,64.242,109.495,64.399,109.611z"/>
	<path fill="#FFDEB3" d="M90.771,38.872c1.063,2.875,0.297,5.579-2.086,7.645C86.427,44.111,87.191,41.199,90.771,38.872z"/>
	<path fill="#FFDEB3" d="M65.642,40.468c-1.687,1.085-3.205,2.061-4.947,3.181c-0.376-1.642-0.628-2.958,0.714-3.969
		C62.579,38.801,64.122,38.996,65.642,40.468z"/>
	<path fill="#FFDEB3" d="M85.922,41.769c1.495,2.747,1.672,5.296,0.438,6.259C84.396,45.946,84.176,42.76,85.922,41.769z"/>
	<path fill="#FFDEB3" d="M85.182,50.182c0,1.622,0,2.978,0,4.74c-1.451-0.611-2.666-1.122-4.152-1.748
		C82.473,52.134,83.707,51.244,85.182,50.182z"/>
	<path fill="#FFDEB3" d="M41.372,62.065c-0.096,2.11-0.1,4.231-0.353,6.321c-0.06,0.496-0.953,0.892-1.462,1.333
		c-0.209-0.114-0.418-0.228-0.626-0.341c0.652-2.465,1.306-4.929,1.959-7.394C41.05,62.011,41.211,62.038,41.372,62.065z"/>
	<path fill="#FFDEB3" d="M69.966,74.227c0.58-0.319,1.196-0.96,1.733-0.9c1.957,0.22,3.888,0.674,5.801,1.306
		c-2.45,0-4.902,0-7.354,0C70.087,74.498,70.026,74.362,69.966,74.227z"/>
	<path fill="#FFDEB3" d="M76.811,72.914c1.356,0.09,2.564,0.06,3.715,0.302c0.468,0.098,0.811,0.787,1.209,1.208
		c-0.512,0.344-1.021,0.957-1.536,0.959c-0.604,0.003-1.265-0.452-1.802-0.843C77.874,74.16,77.475,73.609,76.811,72.914z"/>
	<path fill="#FFDEB3" d="M94.607,42.912c-0.865-0.541-1.696-1.061-2.527-1.581c0.896-0.192,1.811-0.578,2.688-0.511
		c0.664,0.051,1.282,0.683,1.922,1.056C96.093,42.171,95.497,42.468,94.607,42.912z"/>
	<path fill="#FFDEB3" d="M92.094,38.061c1.283,0.159,2.577,0.263,3.842,0.517c0.299,0.059,0.492,0.625,0.735,0.958
		c-0.317,0.175-0.64,0.502-0.953,0.495c-0.913-0.022-1.846-0.092-2.727-0.317c-0.466-0.12-0.837-0.603-1.252-0.922
		C91.857,38.548,91.977,38.304,92.094,38.061z"/>
	<path fill="#FFDEB3" d="M54.954,73.572c-0.37-0.427-1.009-0.822-1.063-1.286c-0.231-2.01-0.291-4.039-0.402-5.879
		c1.552,1.854,1.636,4.385,1.918,6.86C55.257,73.369,55.105,73.471,54.954,73.572z"/>
	<path fill="#FFDEB3" d="M88.83,50.137c1.637-0.332,3.273-0.664,5.245-1.064c-0.716,1.785-2.142,2.059-3.365,2.308
		c-0.653,0.132-1.458-0.469-2.194-0.74C88.621,50.473,88.727,50.305,88.83,50.137z"/>
	<path fill="#FFDEB3" d="M94.374,45.351c-0.739-0.556-1.435-1.077-2.13-1.599c0.806-0.19,1.63-0.576,2.413-0.505
		c0.589,0.054,1.128,0.692,1.688,1.069C95.79,44.607,95.234,44.898,94.374,45.351z"/>
	<path fill="#FFDEB3" d="M61.796,74.1c-1.413,0.005-3.695-3.303-4.456-6.648C58.809,69.644,60.279,71.836,61.796,74.1z"/>
	<path fill="#FFDEB3" d="M87.563,49.786c0,1.121,0.027,2.243-0.025,3.36c-0.008,0.195-0.377,0.543-0.546,0.523
		c-0.285-0.033-0.737-0.262-0.781-0.479c-0.255-1.245-0.474-2.525,0.626-3.479C87.079,49.737,87.32,49.762,87.563,49.786z"/>
	<path fill="#FFDEB3" d="M88.952,52.53c1.396-0.204,2.791-0.408,4.729-0.691c-1.106,1.134-1.799,2.091-3.123,1.918
		c-0.638-0.083-1.223-0.563-1.83-0.864C88.803,52.772,88.877,52.651,88.952,52.53z"/>
	<path fill="#FFDEB3" d="M68.287,42.402c-1.824,0.539-3.648,1.078-5.473,1.617c-0.043-0.14-0.087-0.279-0.131-0.418
		c1.746-0.816,3.342-2.082,5.476-1.721C68.202,42.054,68.244,42.229,68.287,42.402z"/>
	<path fill="#FFDEB3" d="M88.534,49.053c1.161-2.049,2.407-2.24,4.267-0.958C91.389,48.412,90.176,48.684,88.534,49.053z"/>
	<path fill="#FFDEB3" d="M95.673,46.682c-1.217,0.611-2.313,0.302-3.351-0.482c0.017-0.193,0.035-0.385,0.052-0.578
		c1.123,0.082,2.246,0.165,3.369,0.247C95.719,46.139,95.695,46.411,95.673,46.682z"/>
	<path d="M53.993,118.624"/>
	<g>
		<g>
			<path fill="#FFDEB3" d="M39.529,87.898c-0.393,0.203-0.83,0.345-1.309,0.418c-1.321,0.207-2.162-0.127-2.485-1.063
				c-0.325-0.932-0.052-2.383,0.781-4.302c0.933-2.147,2.171-3.806,3.654-4.89c0.96-0.698,1.84-1.031,2.663-1.031
				c0.377,0,0.719,0.07,1.027,0.208c-0.188,0.462-0.376,0.925-0.564,1.388c-0.206-0.075-0.416-0.109-0.633-0.105
				c-0.427,0.011-0.861,0.19-1.31,0.549c-0.772,0.621-1.523,1.787-2.234,3.471c-0.75,1.775-1.062,2.936-0.926,3.466
				c0.136,0.529,0.524,0.744,1.158,0.659c0.239-0.032,0.497-0.107,0.772-0.229C39.925,86.924,39.727,87.411,39.529,87.898z"/>
			<path fill="#FFDEB3" d="M45.188,77.118c0.755-0.001,1.511-0.002,2.267-0.003c-0.587,1.547-1.173,3.095-1.76,4.642
				c0.41-0.024,0.82-0.052,1.23-0.075c0.562-1.522,1.123-3.045,1.685-4.566c0.755-0.001,1.511-0.002,2.267-0.004
				c-1.144,3.298-2.287,6.594-3.431,9.891c-0.867,0.1-1.732,0.201-2.598,0.311c0.529-1.436,1.059-2.869,1.588-4.305
				c-0.417,0.032-0.834,0.064-1.252,0.098c-0.553,1.459-1.105,2.918-1.658,4.375c-0.865,0.112-1.729,0.23-2.593,0.354
				C42.35,84.262,43.769,80.689,45.188,77.118z"/>
			<path fill="#FFDEB3" d="M54.053,77.032c0.82,0,1.64,0,2.46,0c-0.283,3.108-0.478,6.161-0.583,9.163
				c-0.877,0.066-1.753,0.14-2.629,0.217c0.117-0.555,0.236-1.107,0.355-1.663c-0.474,0.035-0.948,0.071-1.422,0.108
				c-0.256,0.572-0.515,1.146-0.776,1.724c-0.862,0.083-1.723,0.17-2.583,0.262C50.695,83.495,52.422,80.229,54.053,77.032z
				 M54.864,78.585c-0.063,0.001-0.127,0.003-0.191,0.004c-0.463,1.315-0.771,2.16-0.919,2.531
				c-0.333,0.829-0.668,1.659-1.007,2.493c0.364-0.024,0.729-0.049,1.093-0.071c0.12-0.628,0.242-1.256,0.365-1.886
				C54.421,80.635,54.641,79.611,54.864,78.585z"/>
			<path fill="#FFDEB3" d="M57.874,77.105c1.817-0.002,3.634-0.002,5.451-0.004c-0.069,0.381-0.137,0.76-0.206,1.14
				c-0.54,0.005-1.079,0.009-1.618,0.015c-0.525,2.557-1.051,5.112-1.576,7.669c-0.87,0.052-1.739,0.107-2.609,0.169
				c0.624-2.604,1.249-5.21,1.873-7.814c-0.542,0.006-1.085,0.013-1.627,0.02C57.666,77.9,57.77,77.503,57.874,77.105z"/>
			<path fill="#FFDEB3" d="M64.8,77.102c1.817,0,3.634,0,5.452-0.002c-0.023,0.368-0.046,0.736-0.068,1.104
				c-0.54,0.001-1.079,0.003-1.619,0.005c-0.221,2.46-0.443,4.921-0.664,7.381c-0.871,0.021-1.741,0.049-2.612,0.079
				c0.321-2.481,0.643-4.966,0.964-7.448c-0.543,0.004-1.085,0.006-1.628,0.01C64.682,77.854,64.741,77.479,64.8,77.102z"/>
			<path fill="#FFDEB3" d="M70.284,81.432c0.094-1.631,0.527-2.814,1.257-3.551c0.565-0.566,1.233-0.849,2.029-0.849
				c0.371,0,0.734,0.069,1.095,0.207c0.36,0.138,0.697,0.385,1.019,0.741c0.32,0.357,0.576,0.836,0.771,1.436
				c0.192,0.6,0.312,1.24,0.346,1.92c0.093,1.721-0.303,2.93-1.233,3.631c-0.544,0.414-1.206,0.618-1.966,0.618
				c-1.071,0.001-1.896-0.321-2.445-0.979C70.485,83.796,70.208,82.738,70.284,81.432z M73.567,78.329
				c-0.183,0.151-0.322,0.317-0.416,0.498c-0.094,0.182-0.166,0.506-0.214,0.975c-0.075,0.736-0.117,1.316-0.124,1.74
				c-0.014,0.954,0.059,1.642,0.224,2.06c0.104,0.271,0.276,0.506,0.516,0.709c0.226-0.201,0.383-0.393,0.475-0.576
				c0.091-0.185,0.15-0.51,0.176-0.975c0.045-0.859,0.065-1.488,0.062-1.884c-0.009-0.886-0.091-1.521-0.243-1.901
				C73.923,78.721,73.771,78.504,73.567,78.329z"/>
			<path fill="#FFDEB3" d="M85.398,85.813c-0.371,0.026-0.883,0.025-1.531-0.004c-0.848-0.037-1.52-0.113-2.014-0.23
				c-0.69-0.16-1.302-0.413-1.832-0.762c-0.529-0.349-0.967-0.813-1.308-1.393c-0.342-0.581-0.534-1.255-0.591-2.023
				c-0.1-1.359,0.23-2.426,0.939-3.199c0.713-0.774,1.66-1.167,2.896-1.168c0.28,0,0.55,0.02,0.808,0.059s0.633,0.126,1.133,0.262
				c0.082,0.455,0.162,0.91,0.242,1.363c-0.59-0.348-1.145-0.521-1.677-0.523c-0.687-0.004-1.185,0.252-1.511,0.769
				c-0.324,0.515-0.438,1.279-0.319,2.299c0.072,0.632,0.206,1.191,0.409,1.681c0.201,0.49,0.445,0.86,0.73,1.113
				c0.218,0.188,0.517,0.357,0.902,0.512c-0.096-0.68-0.191-1.357-0.285-2.037c-0.328-0.008-0.656-0.016-0.983-0.023
				c-0.048-0.371-0.093-0.74-0.14-1.111c1.119,0.021,2.24,0.047,3.359,0.076C84.887,82.916,85.143,84.364,85.398,85.813z"/>
			<path fill="#FFDEB3" d="M85.268,77.104c0.405,0,0.812,0,1.217,0c1.422,0,2.58,0.22,3.502,0.67
				c0.918,0.451,1.509,1.092,1.738,1.901c0.129,0.459,0.074,0.861-0.17,1.204c-0.172,0.243-0.482,0.469-0.938,0.674
				c0.431,0.227,0.763,0.438,0.991,0.635c0.479,0.416,0.922,0.945,1.324,1.59c0.403,0.645,0.846,1.527,1.334,2.652
				c-0.877-0.078-1.752-0.15-2.631-0.22c-0.461-1.364-0.972-2.373-1.521-3.022c-0.411-0.488-0.877-0.838-1.398-1.047
				c0.307,1.308,0.612,2.615,0.919,3.924c-0.868-0.06-1.737-0.113-2.608-0.164C86.439,82.968,85.854,80.035,85.268,77.104z
				 M88.027,78.398c0.203,0.859,0.408,1.722,0.611,2.582c0.367-0.072,0.633-0.22,0.799-0.442c0.162-0.226,0.201-0.498,0.119-0.82
				c-0.084-0.337-0.264-0.618-0.531-0.847C88.758,78.645,88.425,78.484,88.027,78.398z"/>
			<path fill="#FFDEB3" d="M94.313,77.032c0.819,0,1.64,0,2.459,0c1.758,3.336,3.604,6.75,5.535,10.25
				c-0.873-0.107-1.748-0.212-2.623-0.31c-0.246-0.597-0.492-1.19-0.735-1.785c-0.474-0.043-0.946-0.088-1.421-0.129
				c0.107,0.572,0.214,1.146,0.316,1.715c-0.861-0.09-1.723-0.176-2.584-0.256C95.039,83.425,94.723,80.266,94.313,77.032z
				 M96.129,78.652c-0.063-0.002-0.126-0.004-0.189-0.004c0.388,1.362,0.623,2.231,0.713,2.611c0.201,0.85,0.398,1.697,0.594,2.542
				c0.363,0.027,0.729,0.056,1.093,0.085c-0.291-0.67-0.58-1.338-0.868-2.006C97.02,80.803,96.572,79.727,96.129,78.652z"/>
			<path fill="#FFDEB3" d="M101.434,77.117c0.611,0.001,1.223,0.002,1.834,0.002c1.058,2.01,2.133,4.042,3.229,6.097
				c-0.532-2.005-1.086-4.036-1.663-6.094c0.612,0.001,1.226,0.001,1.838,0.002c2.185,3.833,4.447,7.769,6.787,11.813
				c-0.854-0.146-1.707-0.291-2.563-0.43c-0.984-1.88-1.959-3.742-2.92-5.591c0.332,1.793,0.635,3.55,0.909,5.274
				c-0.286-0.043-0.571-0.088-0.858-0.129c-1.148-1.84-2.271-3.646-3.368-5.422c0.477,1.728,0.938,3.438,1.389,5.135
				c-0.829-0.116-1.657-0.229-2.487-0.336C102.936,84.086,102.227,80.648,101.434,77.117z"/>
		</g>
	</g>
	<g>
		<g>
			<path fill="#FFDEB3" d="M27.68,111.471c-0.533,0.385-1.13,0.639-1.785,0.76c-1.805,0.332-2.965-0.379-3.429-2.235
				c-0.468-1.851-0.125-4.679,0.973-8.399c1.229-4.164,2.886-7.367,4.892-9.474c1.3-1.358,2.497-2.011,3.624-2.011
				c0.517,0,0.986,0.14,1.412,0.41c-0.247,0.908-0.494,1.816-0.74,2.727c-0.284-0.148-0.572-0.221-0.869-0.212
				c-0.584,0.015-1.176,0.366-1.781,1.063c-1.045,1.211-2.046,3.479-2.982,6.766c-0.986,3.468-1.388,5.738-1.189,6.789
				c0.198,1.053,0.736,1.498,1.602,1.361c0.326-0.053,0.679-0.192,1.053-0.418C28.2,109.557,27.94,110.514,27.68,111.471z"/>
			<path fill="#FFDEB3" d="M35.183,90.279c1.035-0.002,2.07-0.004,3.105-0.004c-0.767,3.07-1.534,6.143-2.301,9.214
				c0.561-0.041,1.122-0.082,1.683-0.122c0.733-3.031,1.466-6.063,2.199-9.094c1.035-0.002,2.07-0.004,3.105-0.004
				c-1.486,6.605-2.972,13.213-4.458,19.818c-1.187,0.156-2.373,0.32-3.557,0.492c0.69-2.857,1.381-5.714,2.072-8.571
				c-0.571,0.052-1.142,0.104-1.713,0.157c-0.723,2.895-1.446,5.789-2.168,8.684c-1.184,0.182-2.367,0.371-3.549,0.567
				C31.461,104.372,33.322,97.326,35.183,90.279z"/>
			<path fill="#FFDEB3" d="M47.323,90.111c1.123,0,2.246,0,3.369,0c-0.306,6.322-0.49,12.557-0.551,18.715
				c-1.202,0.104-2.403,0.215-3.604,0.335c0.146-1.127,0.294-2.254,0.444-3.384c-0.649,0.057-1.299,0.113-1.948,0.173
				c-0.337,1.155-0.677,2.313-1.02,3.476c-1.18,0.131-2.36,0.268-3.539,0.413C42.887,103.141,45.17,96.568,47.323,90.111z
				 M48.475,93.26c-0.087,0.002-0.174,0.004-0.261,0.006c-0.601,2.664-1.002,4.377-1.194,5.127
				c-0.434,1.678-0.873,3.358-1.315,5.045c0.499-0.039,0.998-0.076,1.497-0.112c0.148-1.276,0.299-2.554,0.452-3.833
				C47.922,97.418,48.195,95.341,48.475,93.26z"/>
			<path fill="#FFDEB3" d="M54.816,90.258c1.035-0.001,2.07-0.001,3.105-0.002c-0.642,5.245-1.284,10.49-1.925,15.736
				c0.682-0.039,1.364-0.075,2.045-0.109c-0.086,0.801-0.172,1.6-0.259,2.4c-1.887,0.105-3.773,0.232-5.659,0.38
				C53.022,102.527,53.919,96.395,54.816,90.258z"/>
			<path fill="#FFDEB3" d="M61.479,90.254c1.035,0,2.07-0.001,3.104-0.001c-0.347,5.138-0.695,10.272-1.042,15.409
				c0.683-0.021,1.365-0.04,2.048-0.057c-0.041,0.785-0.083,1.571-0.124,2.357c-1.889,0.051-3.777,0.122-5.665,0.213
				C60.361,102.203,60.92,96.229,61.479,90.254z"/>
			<path fill="#FFDEB3" d="M68.142,90.252c1.764,0,3.528,0,5.292,0c0.007,0.777,0.014,1.557,0.021,2.335
				c-0.744,0-1.488,0-2.232,0.001c-0.019,1.852-0.038,3.704-0.056,5.557c0.779-0.002,1.559-0.002,2.338,0
				c0.007,0.765,0.014,1.527,0.021,2.293c-0.794-0.004-1.588-0.002-2.382,0c-0.017,1.709-0.034,3.416-0.052,5.125
				c0.827-0.004,1.653-0.004,2.48,0c0.007,0.771,0.014,1.541,0.021,2.313c-2.036-0.009-4.072,0.006-6.107,0.044
				C67.705,102.029,67.923,96.141,68.142,90.252z"/>
			<path fill="#FFDEB3" d="M75.157,90.252c0.944,0,1.891,0,2.837,0c0.792,3.081,1.635,6.171,2.529,9.275
				c0.068,0.002,0.139,0.002,0.207,0.004c-0.334-3.096-0.657-6.188-0.973-9.278c1.025,0,2.051,0.001,3.076,0.001
				c0.534,5.967,1.068,11.932,1.604,17.896c-1.047-0.049-2.095-0.092-3.142-0.127c-1.03-3.316-2.002-6.614-2.913-9.898
				c-0.042-0.001-0.085-0.001-0.128-0.002c0.276,3.275,0.563,6.555,0.858,9.835c-1.178-0.03-2.355-0.054-3.534-0.067
				C75.439,102.012,75.298,96.132,75.157,90.252z"/>
			<path fill="#FFDEB3" d="M96.258,108.968c-0.504,0.052-1.199,0.038-2.088-0.036c-1.16-0.1-2.088-0.279-2.777-0.543
				c-0.961-0.359-1.828-0.916-2.595-1.673c-0.769-0.756-1.422-1.755-1.96-2.998s-0.885-2.679-1.059-4.313
				c-0.305-2.896,0.016-5.152,0.893-6.803c0.879-1.647,2.131-2.488,3.821-2.49c0.384,0,0.756,0.043,1.11,0.127
				c0.356,0.082,0.883,0.27,1.584,0.563c0.166,0.975,0.33,1.95,0.494,2.926c-0.849-0.748-1.629-1.121-2.356-1.129
				c-0.938-0.013-1.589,0.537-1.972,1.637c-0.383,1.098-0.441,2.729-0.156,4.908c0.177,1.351,0.431,2.549,0.767,3.597
				c0.335,1.048,0.714,1.845,1.136,2.391c0.317,0.406,0.748,0.774,1.293,1.111c-0.213-1.453-0.426-2.906-0.64-4.359
				c-0.448-0.022-0.896-0.047-1.345-0.067c-0.108-0.795-0.219-1.588-0.327-2.381c1.534,0.061,3.067,0.129,4.601,0.205
				C95.207,102.747,95.732,105.857,96.258,108.968z"/>
			<path fill="#FFDEB3" d="M95.032,90.262c1.765,0.002,3.528,0.004,5.292,0.006c0.188,0.866,0.374,1.731,0.562,2.599
				c-0.743-0.015-1.487-0.028-2.229-0.042c0.41,2.027,0.822,4.057,1.232,6.085c0.777,0.044,1.557,0.089,2.334,0.137
				c0.184,0.851,0.366,1.699,0.551,2.55c-0.791-0.061-1.584-0.119-2.375-0.175c0.379,1.871,0.759,3.742,1.138,5.613
				c0.823,0.083,1.646,0.171,2.469,0.261c0.187,0.857,0.371,1.716,0.556,2.573c-2.022-0.253-4.049-0.479-6.076-0.687
				C97.332,102.875,96.184,96.568,95.032,90.262z"/>
			<path fill="#FFDEB3" d="M101.991,90.27c0.555,0.002,1.108,0.002,1.665,0.002c1.947,0.002,3.582,0.498,4.943,1.53
				c1.358,1.031,2.303,2.497,2.795,4.353c0.276,1.048,0.293,1.967,0.037,2.74c-0.178,0.555-0.55,1.063-1.121,1.521
				c0.635,0.52,1.133,1.008,1.486,1.46c0.745,0.958,1.461,2.179,2.148,3.653c0.688,1.478,1.482,3.503,2.391,6.078
				c-1.191-0.203-2.386-0.399-3.58-0.588c-0.936-3.11-1.855-5.418-2.75-6.906c-0.671-1.12-1.383-1.924-2.14-2.413
				c0.721,2.969,1.44,5.938,2.159,8.907c-1.185-0.174-2.368-0.34-3.555-0.496C104.979,103.498,103.484,96.884,101.991,90.27z
				 M106.066,93.212c0.477,1.954,0.953,3.908,1.43,5.862c0.484-0.154,0.811-0.483,0.982-0.988c0.172-0.506,0.164-1.128-0.021-1.861
				c-0.192-0.767-0.502-1.412-0.919-1.931C107.122,93.777,106.632,93.416,106.066,93.212z"/>
			<path fill="#FFDEB3" d="M116.896,108.721c0.59,0.275,1.115,0.453,1.567,0.526c0.622,0.101,1.068,0.013,1.333-0.271
				c0.266-0.285,0.301-0.766,0.107-1.438c-0.152-0.537-0.365-1.062-0.639-1.57c-0.535-1.006-1.365-2.325-2.472-3.926
				c-1.104-1.601-1.976-3.013-2.628-4.263c-0.37-0.711-0.67-1.491-0.904-2.348c-0.505-1.853-0.48-3.188,0.053-4.035
				c0.533-0.849,1.408-1.285,2.639-1.285c0.572,0,1.264,0.113,2.078,0.352c0.3,1.016,0.599,2.031,0.898,3.047
				c-0.504-0.22-0.936-0.334-1.3-0.345c-0.534-0.017-0.929,0.185-1.183,0.591s-0.27,1.008-0.043,1.807
				c0.15,0.525,0.359,1.047,0.631,1.564c0.514,0.973,1.268,2.191,2.275,3.686c1.265,1.869,2.293,3.568,3.066,5.06
				c0.391,0.754,0.708,1.551,0.953,2.384c0.486,1.65,0.412,2.839-0.241,3.538c-0.655,0.701-1.679,0.903-3.052,0.646
				c-0.602-0.112-1.38-0.367-2.333-0.754C117.438,110.695,117.167,109.708,116.896,108.721z"/>
		</g>
	</g>
</g>
</svg>
