<?xml version="1.0" encoding="utf-8"?>
<!-- Generator: Adobe Illustrator 16.0.0, SVG Export Plug-In . SVG Version: 6.00 Build 0)  -->
<!DOCTYPE svg PUBLIC "-//W3C//DTD SVG 1.1//EN" "http://www.w3.org/Graphics/SVG/1.1/DTD/svg11.dtd">
<svg version="1.1" id="flag-icon-css-am" xmlns="http://www.w3.org/2000/svg" xmlns:xlink="http://www.w3.org/1999/xlink" x="0px"
	 y="0px" width="150px" height="150px" viewBox="0 0 150 150" enable-background="new 0 0 150 150" xml:space="preserve">
<g>
	<g>
		<g>
			<linearGradient id="SVGID_1_" gradientUnits="userSpaceOnUse" x1="43.7607" y1="148.2178" x2="44.7785" y2="89.9102">
				<stop  offset="0.1075" style="stop-color:#C1D000"/>
				<stop  offset="0.1193" style="stop-color:#C6D418;stop-opacity:0.9701"/>
				<stop  offset="0.1455" style="stop-color:#D1DD48;stop-opacity:0.9032"/>
				<stop  offset="0.174" style="stop-color:#DBE574;stop-opacity:0.8306"/>
				<stop  offset="0.204" style="stop-color:#E4EC99;stop-opacity:0.7542"/>
				<stop  offset="0.236" style="stop-color:#EBF2B9;stop-opacity:0.6726"/>
				<stop  offset="0.2706" style="stop-color:#F1F7D3;stop-opacity:0.5845"/>
				<stop  offset="0.3087" style="stop-color:#F5FAE6;stop-opacity:0.4875"/>
				<stop  offset="0.3522" style="stop-color:#F9FDF4;stop-opacity:0.3765"/>
				<stop  offset="0.4059" style="stop-color:#FAFFFD;stop-opacity:0.2396"/>
				<stop  offset="0.5" style="stop-color:#FBFFFF;stop-opacity:0"/>
				<stop  offset="0.5927" style="stop-color:#C4D6BE;stop-opacity:0.25"/>
				<stop  offset="0.786" style="stop-color:#54843C;stop-opacity:0.771"/>
				<stop  offset="0.871" style="stop-color:#276308"/>
			</linearGradient>
			<path fill="url(#SVGID_1_)" d="M49.189,110.585c0,0.195-0.102,0.312-0.307,0.282c-0.152-0.021-0.255-0.232-0.306-0.503
				c-0.818-5.29-3.253-14.816-5.503-16.194c-1.222-0.66-1.313,0.875-1.315,2.854c0.012,3.53,0.597,8.272,4.289,19.505
				c3.527,10.091,3.973,11.544,3.963,16.741c-0.004,6.668-2.826,10.068-4.663,11.163c-1.347,0.754-2.178,0.462-2.763,0.204
				c-0.537-0.206-0.826-0.265-0.972-0.178c-0.192,0.121-0.583,0.862-1.537,2.679c-0.19,0.364-0.381,0.815-0.57,0.948
				c-0.19,0.134-0.237,0.006-0.237-0.234c0-6.751,0-13.501,0-20.251c0-0.242,0.047-0.573,0.237-0.612
				c0.143-0.029,0.237,0.269,0.285,0.497c0.86,6.292,2.326,15.191,5.258,13.582c0.946-0.469,1.451-2.13,1.451-4.246
				c0.005-4.647-1.527-8.854-4.304-17.727c-2.619-8.576-3.532-15.466-3.539-21.36c0.001-7.849,1.917-8.824,4.417-7.251
				c0.93,0.573,2.023,1.984,2.774,3.192c0.25,0.335,0.552,0.689,0.753,0.786c0.2,0.098,0.705-0.139,1.162-0.519
				c0.457-0.314,0.763-0.493,1.069-0.347c0.255,0.122,0.357,0.493,0.357,0.884C49.189,99.849,49.189,105.217,49.189,110.585z"/>
			<linearGradient id="SVGID_2_" gradientUnits="userSpaceOnUse" x1="59.3799" y1="139.9141" x2="60.1608" y2="95.1772">
				<stop  offset="0.1075" style="stop-color:#C1D000"/>
				<stop  offset="0.1193" style="stop-color:#C6D418;stop-opacity:0.9701"/>
				<stop  offset="0.1455" style="stop-color:#D1DD48;stop-opacity:0.9032"/>
				<stop  offset="0.174" style="stop-color:#DBE574;stop-opacity:0.8306"/>
				<stop  offset="0.204" style="stop-color:#E4EC99;stop-opacity:0.7542"/>
				<stop  offset="0.236" style="stop-color:#EBF2B9;stop-opacity:0.6726"/>
				<stop  offset="0.2706" style="stop-color:#F1F7D3;stop-opacity:0.5845"/>
				<stop  offset="0.3087" style="stop-color:#F5FAE6;stop-opacity:0.4875"/>
				<stop  offset="0.3522" style="stop-color:#F9FDF4;stop-opacity:0.3765"/>
				<stop  offset="0.4059" style="stop-color:#FAFFFD;stop-opacity:0.2396"/>
				<stop  offset="0.5" style="stop-color:#FBFFFF;stop-opacity:0"/>
				<stop  offset="0.5927" style="stop-color:#C4D6BE;stop-opacity:0.25"/>
				<stop  offset="0.786" style="stop-color:#54843C;stop-opacity:0.771"/>
				<stop  offset="0.871" style="stop-color:#276308"/>
			</linearGradient>
			<path fill="url(#SVGID_2_)" d="M57.834,99.776c-0.659-0.174-1.316-0.357-1.97-0.551c-0.318-0.095-0.476,0.147-0.582,0.466
				c-0.917,3.599-1.828,7.35-2.733,11.285c-0.052,0.237-0.208,0.341-0.416,0.316c-0.209-0.025-0.26-0.155-0.26-0.464
				c0-5.211,0-10.421,0-15.631c0-0.124,0.104-0.204,0.26-0.14c5.086,2.081,10.378,3.484,15.742,4.211
				c0.166,0.022,0.275,0.137,0.275,0.237c0,4.23,0,8.462,0,12.692c0,0.251-0.055,0.349-0.275,0.34
				c-0.218-0.009-0.383-0.116-0.438-0.319c-0.952-3.388-1.9-6.854-2.846-10.433c-0.108-0.327-0.273-0.612-0.6-0.669
				c-0.672-0.116-1.342-0.241-2.011-0.377c0,11.16,0,22.319,0,33.479c0,0.639,0.054,1.106,0.434,1.401
				c0.542,0.404,1.086,0.805,1.631,1.204c0.164,0.124,0.381,0.238,0.381,0.395c0,0.154-0.055,0.32-0.327,0.374
				c-2.815,0.553-5.603,1.295-8.34,2.228c-0.265,0.091-0.317-0.066-0.317-0.24c0-0.176,0.212-0.421,0.37-0.645
				c0.53-0.732,1.062-1.443,1.596-2.136c0.374-0.497,0.427-1.013,0.427-1.687C57.834,123.335,57.834,111.556,57.834,99.776z"/>
			<linearGradient id="SVGID_3_" gradientUnits="userSpaceOnUse" x1="76.2305" y1="137.1807" x2="76.8821" y2="99.8499">
				<stop  offset="0.1075" style="stop-color:#C1D000"/>
				<stop  offset="0.1193" style="stop-color:#C6D418;stop-opacity:0.9701"/>
				<stop  offset="0.1455" style="stop-color:#D1DD48;stop-opacity:0.9032"/>
				<stop  offset="0.174" style="stop-color:#DBE574;stop-opacity:0.8306"/>
				<stop  offset="0.204" style="stop-color:#E4EC99;stop-opacity:0.7542"/>
				<stop  offset="0.236" style="stop-color:#EBF2B9;stop-opacity:0.6726"/>
				<stop  offset="0.2706" style="stop-color:#F1F7D3;stop-opacity:0.5845"/>
				<stop  offset="0.3087" style="stop-color:#F5FAE6;stop-opacity:0.4875"/>
				<stop  offset="0.3522" style="stop-color:#F9FDF4;stop-opacity:0.3765"/>
				<stop  offset="0.4059" style="stop-color:#FAFFFD;stop-opacity:0.2396"/>
				<stop  offset="0.5" style="stop-color:#FBFFFF;stop-opacity:0"/>
				<stop  offset="0.5927" style="stop-color:#C4D6BE;stop-opacity:0.25"/>
				<stop  offset="0.786" style="stop-color:#54843C;stop-opacity:0.771"/>
				<stop  offset="0.871" style="stop-color:#276308"/>
			</linearGradient>
			<path fill="url(#SVGID_3_)" d="M77.924,128.258c-0.057-0.244-0.222-0.44-0.499-0.442c-1.364-0.011-2.729,0.003-4.091,0.039
				c-0.167,0.004-0.276,0.154-0.332,0.352c-0.276,1.804-0.552,3.613-0.828,5.429c-0.056,0.348,0.054,0.635,0.276,0.867
				c0.405,0.354,0.81,0.709,1.215,1.066c0.222,0.235,0.554,0.418,0.554,0.565c0,0.146-0.111,0.297-0.387,0.308
				c-2.119,0.09-4.234,0.283-6.338,0.58c-0.221,0.031-0.33-0.104-0.33-0.256c0-0.152,0.22-0.385,0.384-0.559
				c0.512-0.539,1.025-1.066,1.539-1.585c0.332-0.333,0.387-0.834,0.441-1.286c1.67-11.288,3.346-22.195,5.023-33.074
				c0.056-0.242,0.167-0.434,0.443-0.427c0.682,0.016,1.365,0.021,2.047,0.017c0.276-0.002,0.441,0.238,0.496,0.53
				c1.752,10.873,3.503,21.725,5.248,32.938c0.056,0.5,0.222,1.059,0.606,1.392c0.532,0.481,1.064,0.973,1.596,1.476
				c0.163,0.171,0.329,0.344,0.329,0.495c0,0.15-0.11,0.286-0.384,0.25c-2.639-0.345-5.293-0.527-7.948-0.545
				c-0.277-0.002-0.387-0.148-0.387-0.294c0-0.147,0.222-0.293,0.387-0.437c0.498-0.436,0.995-0.865,1.493-1.292
				c0.221-0.189,0.333-0.526,0.276-0.968C78.477,131.681,78.2,129.968,77.924,128.258z M77.148,125.231
				c0.167,0.001,0.276-0.145,0.223-0.341c-0.646-3.981-1.292-7.955-1.938-11.938c-0.037-0.001-0.073-0.001-0.11-0.001
				c-0.608,3.994-1.216,7.992-1.824,12.013c-0.056,0.196,0.055,0.292,0.165,0.29C74.825,125.235,75.987,125.228,77.148,125.231z"/>
			<linearGradient id="SVGID_4_" gradientUnits="userSpaceOnUse" x1="93.3262" y1="140.4365" x2="94.1079" y2="95.6499">
				<stop  offset="0.1075" style="stop-color:#C1D000"/>
				<stop  offset="0.1193" style="stop-color:#C6D418;stop-opacity:0.9701"/>
				<stop  offset="0.1455" style="stop-color:#D1DD48;stop-opacity:0.9032"/>
				<stop  offset="0.174" style="stop-color:#DBE574;stop-opacity:0.8306"/>
				<stop  offset="0.204" style="stop-color:#E4EC99;stop-opacity:0.7542"/>
				<stop  offset="0.236" style="stop-color:#EBF2B9;stop-opacity:0.6726"/>
				<stop  offset="0.2706" style="stop-color:#F1F7D3;stop-opacity:0.5845"/>
				<stop  offset="0.3087" style="stop-color:#F5FAE6;stop-opacity:0.4875"/>
				<stop  offset="0.3522" style="stop-color:#F9FDF4;stop-opacity:0.3765"/>
				<stop  offset="0.4059" style="stop-color:#FAFFFD;stop-opacity:0.2396"/>
				<stop  offset="0.5" style="stop-color:#FBFFFF;stop-opacity:0"/>
				<stop  offset="0.5927" style="stop-color:#C4D6BE;stop-opacity:0.25"/>
				<stop  offset="0.786" style="stop-color:#54843C;stop-opacity:0.771"/>
				<stop  offset="0.871" style="stop-color:#276308"/>
			</linearGradient>
			<path fill="url(#SVGID_4_)" d="M95.566,121.275c0-0.563-0.213-0.911-0.588-1.256c-0.499-0.461-1-0.912-1.502-1.354
				c-0.215-0.221-0.269-0.328-0.269-0.548c0-0.217,0.161-0.327,0.43-0.328c2.652-0.012,5.268-0.026,7.83-0.043
				c0.208-0.002,0.362,0.122,0.362,0.371c0,0.251-0.104,0.375-0.26,0.622c-0.501,0.492-1.004,0.971-1.51,1.438
				c-0.366,0.29-0.524,0.702-0.524,1.302c0,6.281,0,12.562,0,18.842c0,0.18-0.104,0.261-0.263,0.201
				c-0.21-0.079-0.419-0.276-0.525-0.434c-0.527-0.725-1.056-1.428-1.587-2.111c-0.211-0.238-0.317-0.327-0.528-0.391
				c-0.16-0.047-0.319-0.037-0.533,0.071c-1.119,0.754-2.19,1.096-3.377,0.787c-6.771-1.731-7.093-12.831-7.079-21.335
				c-0.014-6.286,0.308-17.596,6.971-19.29c1.781-0.468,2.846,0.033,3.379,0.337c0.213,0.106,0.585,0.166,0.798,0.102
				c0.266-0.081,0.797-0.647,1.324-1.356c0.476-0.633,0.791-1.049,1.054-1.147s0.367,0.28,0.367,0.882c0,4.801,0,9.602,0,14.401
				c0,0.24-0.104,0.432-0.263,0.449c-0.21,0.023-0.367-0.197-0.473-0.54c-1.104-4.408-3.383-11.15-5.755-10.518
				c-2.266,0.546-2.924,5.619-2.922,16.69c-0.001,15.114,0.655,18.163,2.599,18.614c1.672,0.396,2.844-1.411,2.844-6.795
				C95.566,126.385,95.566,123.83,95.566,121.275z"/>
			<linearGradient id="SVGID_5_" gradientUnits="userSpaceOnUse" x1="108.2881" y1="146.1221" x2="109.2991" y2="88.2022">
				<stop  offset="0.1075" style="stop-color:#C1D000"/>
				<stop  offset="0.1193" style="stop-color:#C6D418;stop-opacity:0.9701"/>
				<stop  offset="0.1455" style="stop-color:#D1DD48;stop-opacity:0.9032"/>
				<stop  offset="0.174" style="stop-color:#DBE574;stop-opacity:0.8306"/>
				<stop  offset="0.204" style="stop-color:#E4EC99;stop-opacity:0.7542"/>
				<stop  offset="0.236" style="stop-color:#EBF2B9;stop-opacity:0.6726"/>
				<stop  offset="0.2706" style="stop-color:#F1F7D3;stop-opacity:0.5845"/>
				<stop  offset="0.3087" style="stop-color:#F5FAE6;stop-opacity:0.4875"/>
				<stop  offset="0.3522" style="stop-color:#F9FDF4;stop-opacity:0.3765"/>
				<stop  offset="0.4059" style="stop-color:#FAFFFD;stop-opacity:0.2396"/>
				<stop  offset="0.5" style="stop-color:#FBFFFF;stop-opacity:0"/>
				<stop  offset="0.5927" style="stop-color:#C4D6BE;stop-opacity:0.25"/>
				<stop  offset="0.786" style="stop-color:#54843C;stop-opacity:0.771"/>
				<stop  offset="0.871" style="stop-color:#276308"/>
			</linearGradient>
			<path fill="url(#SVGID_5_)" d="M113.67,108.827c0,0.241-0.095,0.421-0.284,0.46c-0.143,0.029-0.238-0.188-0.286-0.494
				c-0.758-6.423-3.067-14.766-5.366-13.479c-1.25,0.602-1.354,2.063-1.354,3.838c-0.012,3.524,0.688,5.938,4.312,17.247
				c3.39,11.221,3.721,14.788,3.733,21.044c0.007,8.771-2.594,9.45-4.418,8.311c-1.324-0.809-2.174-2.053-2.772-2.913
				c-0.552-0.769-0.854-1.113-1.006-1.188c-0.202-0.098-0.604,0.193-1.622,0.699c-0.204,0.1-0.407,0.266-0.613,0.168
				c-0.204-0.097-0.256-0.25-0.256-0.444c0-5.438,0-10.877,0-16.315c0-0.195,0.052-0.446,0.256-0.418
				c0.153,0.021,0.256,0.296,0.307,0.501c0.914,5.292,2.509,14.421,5.412,16.07c0.934,0.498,1.417-0.815,1.417-3.169
				c-0.004-5.023-1.438-11.372-4.297-19.73c-2.719-7.82-3.768-12.155-3.763-16.878c-0.002-6.01,2.12-8.875,4.664-10.331
				c0.947-0.526,2.031-0.377,2.762,0.095c0.244,0.08,0.536,0.136,0.73,0.021c0.194-0.113,0.678-0.932,1.109-1.91
				c0.431-0.901,0.717-1.496,1.003-1.693c0.237-0.166,0.332,0.166,0.332,0.648C113.67,95.586,113.67,102.207,113.67,108.827z"/>
		</g>
	</g>
	<path fill-rule="evenodd" clip-rule="evenodd" fill="#017A5A" d="M116.025,45.795c1.625,1.435,2.962,3.106,3.96,5.028
		c2.478,4.777,2.092,9.399-0.816,13.87c-0.668,1.024-1.424,1.971-2.317,2.808c-0.377,0.099-0.396,0.45-0.518,0.73l0.004-0.028
		c-0.155,0.032-0.295,0.076-0.249,0.286l0.018-0.015c-0.225-0.043-0.33,0.129-0.477,0.244c-0.875,0.693-1.747,1.392-2.643,2.06
		c-0.827,0.617-1.739,1.102-2.618,1.632c-1.125,0.676-2.226,1.39-3.411,1.965c-2.121,1.031-4.298,1.927-6.538,2.665
		c-0.548,0.18-0.579,0.115-0.52-0.471c0.124-1.249,0.148-2.502-0.014-3.753c-0.162-1.246-0.567-2.427-0.931-3.62
		c-0.074-0.252,0.22-0.633-0.263-0.74c-0.017-0.027-0.019-0.054-0.01-0.083c0.104-1.126-0.715-1.908-1.072-2.861
		c-0.049-0.129-0.263-0.07-0.406-0.062c-0.888-1.41-1.797-2.803-2.842-4.113c-1.317-1.65-2.794-3.14-4.322-4.584
		c-1.363-1.287-2.771-2.519-4.274-3.651c-1.081-0.813-2.174-1.604-3.281-2.378c-0.716-0.501-1.542-0.842-2.164-1.478
		c0.049-0.174-0.036-0.296-0.119-0.451c-0.279-0.519-0.449-0.994-0.177-1.664c0.203-0.499,0.655-0.96,0.558-1.577l0.012-0.013
		c0.244-0.124,0.568-0.188,0.718-0.384c0.399-0.526,0.76-1.077,1.384-1.368c0.231-0.109,0.148-0.307,0.174-0.479
		c0.747-0.554,1.477-1.13,2.274-1.616c1.119-0.683,2.212-1.398,3.195-2.278c0.832-0.745,1.711-1.439,2.567-2.156
		c0.69,0.044,0.91-0.585,1.312-0.94c0.55-0.49,1.981-0.786,2.661-0.491c0.542,0.235,1.086,0.413,1.696,0.453
		c0.546,0.036,1.074,0.281,1.621,0.378c0.896,0.163,1.693,0.767,2.663,0.592c2.091,0.75,4.174,1.522,6.162,2.522
		c0.054,0.178-0.043,0.49,0.231,0.487c0.331-0.003,0.514,0.256,0.774,0.32c0.626,0.152,1.026,0.861,1.769,0.7
		c0.196,0.008,0.347,0.125,0.506,0.222c1.041,0.631,2.043,1.321,3.024,2.04c0.141,0.394,0.655,0.404,0.803,0.831
		c0.146,0.423,0.546,0.485,0.956,0.42l-0.008-0.007c-0.128,0.599,0.458,0.522,0.716,0.757l0.04,0.007c0,0,0.001,0.042,0.001,0.041
		C115.838,45.714,115.899,45.783,116.025,45.795z"/>
	<path fill-rule="evenodd" clip-rule="evenodd" fill="#090A0A" d="M80.321,49.244c0.622,0.635,1.448,0.976,2.164,1.478
		c1.107,0.775,2.2,1.566,3.281,2.378c1.503,1.132,2.911,2.364,4.274,3.651c1.528,1.444,3.005,2.934,4.322,4.584
		c1.045,1.31,1.954,2.703,2.842,4.113c0.461,0.991,0.902,1.991,1.479,2.923c-0.009,0.029-0.007,0.056,0.01,0.083
		c0.019,0.271,0.059,0.534,0.263,0.74c0.363,1.193,0.769,2.375,0.931,3.62c0.162,1.251,0.138,2.504,0.014,3.753
		c-0.06,0.586-0.028,0.65,0.52,0.471c2.24-0.737,4.417-1.633,6.538-2.665c1.186-0.575,2.286-1.29,3.411-1.965
		c0.879-0.53,1.791-1.015,2.618-1.632c0.896-0.668,1.768-1.366,2.643-2.06c0.146-0.115,0.252-0.287,0.477-0.244
		c-0.794,1.193-1.851,2.143-2.915,3.073c-3.092,2.703-6.586,4.766-10.343,6.408c-1.398,0.609-2.889,1.022-4.227,1.727
		c-1.955,1.028-4.045,1.53-6.154,2.031c-2.101,0.499-4.256,0.634-6.385,0.946c-0.053,0.009-0.11-0.019-0.236-0.043
		c0.563-0.354,1.161-0.332,1.713-0.464c2.344-0.558,4.659-1.193,6.705-2.523c1.188-0.771,2.262-1.729,2.257-3.262
		c-0.005-1.456-0.215-2.911-0.628-4.33c-1.406-4.835-4.145-8.871-7.47-12.558c-2.124-2.352-4.479-4.454-6.986-6.385
		c-0.875-0.673-1.895-1.146-2.684-1.949c-1.349-1.376-1.812-2.451-2.1-5.073c-1.043,1.128-1.804,2.379-2.46,3.697
		c-0.683,1.371-1.17,2.811-1.535,4.297c-0.103,0.412-0.079,0.768,0.087,1.149c0.503,1.149,0.941,2.322,1.149,3.568
		c0.116,0.696,0.085,1.365-0.257,2.013c-0.81,1.53-1.503,3.127-2.597,4.49c-0.154,0.192-0.119,0.396-0.106,0.597
		c0.196,2.989,0.573,5.949,1.387,8.841c0.093,0.326,0.165,0.658,0.245,0.979c-0.288,0.118-0.267-0.115-0.31-0.217
		c-1.445-3.395-2.49-6.897-3.009-10.567c-0.433-3.064,0.008-5.984,0.966-8.883c1.469-4.452,3.183-8.798,5.232-13.014
		c0.375-0.768,0.653-1.584,0.963-2.382c0.056-0.141,0.173-0.345-0.034-0.439c-0.132-0.061-0.294-0.025-0.463,0.074
		c-1.625,0.946-2.875,2.267-3.928,3.806c-1.403,2.055-3.23,3.638-5.38,4.898c-1.408,0.826-2.7,1.865-3.782,3.086
		c-0.958,1.083-2.124,1.497-3.486,1.569c-2.269,0.119-4.474,0.541-6.594,1.372c-0.176,0.068-0.345,0.151-0.515,0.232
		c-0.035,0.016-0.06,0.054-0.126,0.113c0.862,0.177,1.692,0.342,2.52,0.52c1.107,0.239,2.169,0.575,3.125,1.227
		c0.787,0.535,1.75,0.253,2.431-0.685c0.866-1.193,1.79-2.32,3.069-3.098c0.205-0.126,0.417-0.24,0.705-0.249
		c-0.381,0.413-0.794,0.802-1.137,1.244c-2.573,3.321-2.789,6.916-1.154,10.686c1.082,2.497,2.794,4.596,4.395,6.762
		c1.66,2.246,3.444,4.379,5.661,6.11c0.413,0.322,0.86,0.588,1.311,0.852c1.216,0.712,2.416,0.514,3.588-0.063
		c0.759-0.373,1.187-1.014,1.266-1.889c0.292-3.272,0.704-6.529,1.345-9.755c0.154-0.777,0.391-1.523,0.727-2.251
		c0.478-1.031,0.599-2.117-0.699-3.079c-1.867-1.381-3.394-3.096-4.341-5.265c-0.4-0.92-0.559-1.872-0.457-2.865
		c0.159-0.047,0.193,0.055,0.229,0.148c1.143,3.082,2.915,5.665,5.73,7.477c0.896,0.577,1.479,1.472,1.827,2.488
		c0.291,0.845,0.184,1.646-0.347,2.383c-2.16,3-2.75,6.357-2.243,9.956c0.087,0.619,0.158,1.241,0.306,1.855
		c0.183,0.751-0.269,1.399-1.16,1.671c-1.378,0.421-2.715,0.949-4.067,1.438c-1.022,0.367-1.95,0.06-2.562-0.837
		c-0.866-1.273-1.286-1.722-1.938-2.039c-0.145,0.947-0.516,1.771-1.186,2.471c-1.147,1.198-2.609,1.665-4.184,1.84
		c-3.257,0.359-6.406-0.247-9.531-1.1c-4.903-1.338-9.599-3.167-13.952-5.814c-1.31-0.796-2.61-1.614-3.772-2.628
		c0.167-0.327,0.457-0.408,0.793-0.397c1.254,0.749,2.532,1.451,3.854,2.076c2.289,1.083,4.665,1.936,7.065,2.722
		c4.063,1.33,8.223,2.255,12.456,2.83c1.58,0.215,3.172,0.232,4.734-0.213c1.555-0.442,2.095-1.49,1.569-2.932
		c-0.219-0.597-0.542-1.129-0.878-1.657c-0.748-1.172-1.824-2.067-2.682-3.148c-1.974-2.486-3.722-5.089-4.704-8.152
		c-0.31-0.965-0.382-1.968-0.707-2.943c-0.542-1.622-2.537-2.299-3.854-2.09c-3.092,0.488-6.171,0.512-9.248-0.179
		c-3.081-0.69-5.83-2.031-8.239-4.064c-1.587-1.338-2.854-2.96-4.061-4.639c-0.666-0.926-1.101-1.981-1.752-2.911
		c-0.677-1.588-1.448-3.137-2.007-4.776c-0.82-2.409-1.475-4.857-1.852-7.376c0.07-0.001,0.141-0.003,0.211-0.005
		c0.587,2.326,1.234,4.632,2.431,6.738c0.403,0.709,0.887,1.364,1.487,1.924c0.099,0.093,0.205,0.259,0.365,0.174
		c0.163-0.086,0.05-0.259,0.043-0.393c-0.186-4.344,0.735-8.404,3.11-12.088c0.148-0.012,0.296-0.024,0.376,0.143
		c-0.777,1.845-1.483,3.712-1.837,5.696c-0.375,2.105-0.426,4.198,0.172,6.275c0.022,0.079,0.045,0.16,0.081,0.234
		c0.015,0.032,0.061,0.051,0.102,0.082c1.719-4.296,3.645-8.469,6.84-11.918c-1.953,3.356-3.839,6.737-4.852,10.522
		c-0.049,0.194-0.098,0.388-0.147,0.581c-0.013,0.038-0.038,0.061-0.076,0.07c-0.113,0.028-0.128,0.079-0.035,0.154
		c-0.117,0.657-0.268,1.31-0.346,1.971c-0.237,1.986-0.17,3.938,0.757,5.773c0.594,1.179,1.511,2.092,2.527,2.89
		c0.515,0.403,1.119,0.721,1.832,0.98c-0.587-2.557-0.061-4.823,1.123-6.976c0.423-0.021,0.423-0.268,0.306-0.577
		c0.036-0.072,0.091-0.097,0.168-0.075c0.017,0.06,0.04,0.063,0.065,0.007c0.001-0.002-0.029-0.02-0.045-0.029
		c0-0.056-0.001-0.111-0.002-0.167c0.119-0.069,0.143-0.182,0.14-0.306c0.054-0.082,0.107-0.164,0.161-0.245
		c0.029-0.044,0.057-0.089,0.085-0.133c1.254-2.021,2.827-3.762,4.626-5.308c0.05,0.034,0.098,0.066,0.147,0.101
		c-0.724,0.994-1.492,1.96-2.164,2.989c-1.711,2.616-3.172,5.328-2.836,8.623c0.031,0.512-0.224,1.124,0.489,1.397l0-0.003
		c0.012,0.223-0.061,0.494,0.301,0.51c0.78,0.98,1.781,1.652,2.897,2.209c1.86,0.929,3.709,0.862,5.712,0.097
		c-0.996-0.212-1.792-0.614-2.51-1.173c-0.567-0.441-0.557-0.582,0.088-0.868c1.334-0.587,2.671-1.172,4.197-1.424
		c-0.927-1.138-1.443-2.432-1.939-3.737c0.062-0.385,0.095-0.766-0.087-1.13c-0.004-0.095-0.008-0.19-0.011-0.284
		c0.053-0.637,0.049-1.276,0.09-1.914c0.053-0.823,0.499-1.526,0.564-2.328c0.037-0.467,0.41-0.73,0.645-1.152
		c0.039,0.129,0.078,0.188,0.068,0.237c-0.312,1.563-0.443,3.129-0.228,4.723c0.208,1.541,0.707,2.942,2.011,3.868
		c1.685,1.198,3.603,0.983,5.496,0.686c0.668-0.105,1.245-0.436,1.735-0.931c0.866-0.869,1.728-1.74,2.767-2.421
		c0.33-0.215,0.726-0.3,1.008-0.609c1.436-1.554,2.734-3.194,3.394-5.248c0.435-1.351,0.503-2.676-0.123-4.012
		c-0.636-1.356-1.805-2.144-2.954-2.969c-0.04-0.092-0.08-0.185-0.121-0.277c0.131,0.014,0.263,0.027,0.394,0.042
		c0.026,0.006,0.051,0.009,0.078,0.008c0.095,0.113,0.191,0.233,0.353,0.238c0.721,0.025,1.303,0.399,1.883,0.766
		c1.267,0.8,2.291,1.807,2.701,3.308c0.192,0.701,0.263,0.722,0.819,0.214c1.194-1.093,2.563-1.914,4.059-2.524
		c2.092-0.855,4.325-1.39,6.189-2.756l-0.007-0.007c0.007,0.834-0.45,1.448-1.028,1.947c-1.588,1.369-2.99,2.855-3.537,4.957
		c-0.093,0.359-0.254,0.815,0.025,1.073c0.303,0.282,0.579-0.173,0.874-0.284c0.039-0.015,0.076-0.035,0.113-0.056
		c2.809-1.544,5.43-3.338,7.594-5.736c0.539-0.446,0.949-0.991,1.247-1.623c0.082-0.094,0.165-0.187,0.247-0.282
		c0.307-0.356,0.353-0.586-0.232-0.676c-0.375-0.058-0.752-0.031-1.122-0.09c-2.063-0.326-4.142-0.455-6.222-0.595
		c-2.542-0.172-5.087-0.298-7.639-0.269c-0.083,0.001-0.166-0.006-0.249-0.015c-2.15-0.226-4.297-0.024-6.444,0.078
		c-1.667,0.079-3.318,0.322-4.968,0.573c-1.534,0.234-3.074,0.438-4.571,0.872c-0.983,0.013-1.915,0.316-2.857,0.534
		c-0.552,0.128-1.172,0.037-1.65,0.445c-0.181,0.049-0.359,0.11-0.543,0.145c-2.16,0.404-4.221,1.125-6.26,1.923
		c-2.646,1.035-5.173,2.309-7.613,3.76c-0.211-0.029-0.477-0.142-0.417,0.262c-0.075,0.047-0.15,0.094-0.225,0.142
		c-0.171-0.024-0.343-0.048-0.515-0.071c2.174-1.916,4.624-3.419,7.185-4.744c5.556-2.875,11.471-4.626,17.62-5.682
		c5.261-0.903,10.555-1.226,15.88-1.043c3.894,0.134,7.759,0.545,11.586,1.298c0.309,0.061,0.612,0.189,0.716-0.342
		c0.562-2.868-0.58-7.016-3.901-8.574c-1.656-0.777-3.393-0.99-5.194-0.814c-1.107,0.108-2.188,0.331-3.253,0.651
		c-0.159,0.048-0.339,0.032-0.513-0.004c2.573-1.108,5.229-1.763,8.034-1.293c3.476,0.582,5.637,2.774,7.026,5.886
		c0.584,1.311,0.582,2.682,0.544,4.064c-0.009,0.353-0.061,0.705-0.09,1.041c0.149,0.096,0.212,0.008,0.282-0.07
		c2.412-2.67,4.521-5.541,5.808-8.937c0.967-2.551,1.323-5.143,0.247-7.763c-1.836-4.471-6.28-7.447-11.112-7.458
		c-0.686-0.002-1.369-0.001-2.203-0.001c4.465-1.294,10.188-0.455,14.05,4.743c0.33-3.084-0.713-5.662-2.215-8.117
		c0.204-0.036,0.424-0.044,0.493-0.3c0.259,0.357,0.518,0.715,0.776,1.072c-0.06,0.193,0.01,0.304,0.21,0.333
		c1.476,2.266,2.259,4.773,2.633,7.433c0.885,6.284-1.224,11.727-4.69,16.788c-0.59,0.86-1.233,1.688-1.896,2.493
		c-0.298,0.361-0.285,0.451,0.175,0.582c3.964,1.134,7.788,2.625,11.397,4.633c2.547,1.417,4.95,3.036,7.07,5.051
		c0.014,0.17,0.18,0.435-0.217,0.348c-0.981-0.719-1.983-1.409-3.024-2.04c-0.159-0.097-0.31-0.214-0.506-0.222
		c-0.83-0.678-1.814-1.069-2.774-1.506c-1.988-1-4.071-1.773-6.162-2.522c-2.498-0.982-5.126-1.448-7.743-1.958
		c-0.142-0.027-0.315-0.052-0.419,0.069c-0.563,0.664-1.299,1.167-1.791,1.897c-0.856,0.717-1.735,1.411-2.567,2.156
		c-0.983,0.879-2.076,1.595-3.195,2.278c-0.798,0.486-1.527,1.063-2.274,1.616c-0.892,0.609-1.69,1.311-2.275,2.231l-0.012,0.013
		c-0.485,0.333-0.693,0.855-0.882,1.372C79.356,47.866,79.606,48.748,80.321,49.244z M71.466,57.188
		c-0.861,1.267-1.283,4.683-0.812,6.343C72.776,62.464,73.168,59.517,71.466,57.188z"/>
	<path fill-rule="evenodd" clip-rule="evenodd" fill="#F7E503" d="M31.952,47.165c0.651,0.929,1.086,1.984,1.752,2.911
		c1.208,1.679,2.474,3.301,4.061,4.639c2.41,2.033,5.159,3.374,8.239,4.064c3.076,0.69,6.156,0.667,9.248,0.179
		c1.317-0.209,3.312,0.468,3.854,2.09c0.325,0.975,0.397,1.978,0.707,2.943c0.981,3.063,2.73,5.666,4.704,8.152
		c0.858,1.081,1.934,1.977,2.682,3.148c0.336,0.528,0.66,1.06,0.878,1.657c0.526,1.441-0.014,2.489-1.569,2.932
		c-1.562,0.445-3.155,0.428-4.734,0.213c-4.233-0.575-8.394-1.5-12.456-2.83c-2.4-0.786-4.776-1.639-7.065-2.722
		c-1.322-0.625-2.6-1.327-3.854-2.076c-0.033-0.051-0.056-0.121-0.103-0.151c-1.331-0.858-2.653-1.727-3.852-2.769
		c-0.138-0.121-0.305-0.121-0.474-0.117c-0.584-0.546-1.003-1.234-1.521-1.82c-0.333-0.375-0.756-0.737-1.154-1.087
		c-0.807-0.708-1.134-1.737-1.742-2.581c-0.494-0.687-0.721-1.55-1.105-2.281c-1.085-2.061-0.928-4.218-0.849-6.38
		c0.032-0.877,0.345-1.739,0.676-2.562c0.267-0.665,0.353-1.398,0.73-2.017c0.566-0.924,1.141-1.84,1.843-2.676
		C31.167,47.643,31.424,47.248,31.952,47.165z"/>
	<path fill-rule="evenodd" clip-rule="evenodd" fill="#090A0A" d="M63.664,91.182c-0.207,0.521-0.122,0.966-0.185,1.392
		c-0.032,0.224,0,0.397-0.332,0.33c-0.263-0.054-0.465-0.024-0.403-0.427c0.101-0.656,0.103-1.33,0.174-1.992
		c0.016-0.146-0.126-0.478,0.169-0.418c0.302,0.059,0.672-0.208,0.925,0.22c0.291,0.493,0.664,0.939,1.077,1.513
		c0.065-0.513,0.154-0.894,0.151-1.274c-0.001-0.34,0.165-0.32,0.386-0.273c0.186,0.04,0.407-0.016,0.347,0.352
		c-0.109,0.657-0.117,1.327-0.2,1.989c-0.021,0.167,0.175,0.479-0.164,0.494c-0.243,0.011-0.516,0.109-0.724-0.266
		C64.572,92.25,64.108,91.764,63.664,91.182z"/>
	<path fill-rule="evenodd" clip-rule="evenodd" fill="#090A0A" d="M88.258,92.246c-0.488,0.083-0.891,0.283-1.167-0.266
		c-0.088-0.174-0.288-0.295-0.437-0.439c-0.143-0.143-0.315-0.101-0.47-0.054c-0.188,0.059-0.162,0.23-0.107,0.367
		c0.265,0.665-0.106,0.8-0.705,0.8c-0.122-0.866-0.237-1.743-0.378-2.615c-0.028-0.172,0.004-0.205,0.155-0.224
		c0.621-0.076,1.239-0.176,1.86-0.24c0.418-0.043,0.8,0.058,0.964,0.507c0.151,0.41,0.102,0.793-0.294,1.046
		c-0.229,0.145-0.216,0.249-0.035,0.423C87.837,91.736,88.002,91.951,88.258,92.246z M86.22,90.87
		c0.283-0.137,0.813,0.124,0.967-0.394c0.067-0.227-0.194-0.324-0.387-0.261c-0.308,0.105-0.791-0.162-0.897,0.377
		C85.872,90.736,85.886,90.959,86.22,90.87z"/>
	<path fill-rule="evenodd" clip-rule="evenodd" fill="#090A0A" d="M54.629,89.371c-0.548-0.123-0.953-0.222-1.363-0.303
		c-0.117-0.024-0.289-0.129-0.322,0.133c-0.026,0.202,0.067,0.245,0.23,0.277c0.205,0.041,0.402,0.132,0.607,0.147
		c0.291,0.025,0.323,0.128,0.25,0.399c-0.078,0.282-0.193,0.276-0.416,0.188c-0.171-0.07-0.36-0.11-0.545-0.129
		c-0.14-0.015-0.347-0.13-0.373,0.162c-0.017,0.206,0.055,0.288,0.269,0.324c0.39,0.066,0.77,0.205,1.161,0.255
		c0.253,0.033,0.399,0.061,0.313,0.361c-0.071,0.245-0.082,0.437-0.472,0.303c-0.607-0.209-1.256-0.295-1.887-0.434
		c-0.267-0.058-0.426-0.101-0.3-0.481c0.221-0.67,0.354-1.373,0.473-2.069c0.051-0.298,0.146-0.325,0.404-0.259
		c0.645,0.164,1.296,0.299,1.944,0.454c0.15,0.036,0.436-0.058,0.342,0.277C54.882,89.202,54.839,89.47,54.629,89.371z"/>
	<path fill-rule="evenodd" clip-rule="evenodd" fill="#090A0A" d="M42.281,85.16c0.76,0.01,1.328,0.291,1.865,0.675
		c0.179,0.128,0.343,0.243,0.074,0.393c-0.175,0.098-0.264,0.551-0.61,0.174c-0.305-0.334-0.712-0.492-1.175-0.482
		c-0.297,0.006-0.535,0.111-0.639,0.407c-0.108,0.308-0.033,0.569,0.216,0.79c0.354,0.312,0.789,0.408,1.224,0.362
		c0.553-0.058,0.325,0.393,0.382,0.582c0.097,0.321-0.215,0.206-0.371,0.192c-0.651-0.059-1.283-0.192-1.796-0.638
		c-0.533-0.461-0.681-1.011-0.436-1.627C41.259,85.383,41.763,85.191,42.281,85.16z"/>
	<path fill-rule="evenodd" clip-rule="evenodd" fill="#090A0A" d="M96.364,90.554c0.102-0.845,0.216-1.687,0.296-2.532
		c0.024-0.252,0.027-0.492,0.348-0.449c0.33,0.042,0.67-0.47,1.003,0.094c0.367,0.626,0.846,1.186,1.269,1.78
		c0.094,0.132,0.385,0.344,0.141,0.424c-0.219,0.072-0.593,0.441-0.803,0.003c-0.243-0.51-0.581-0.249-0.897-0.177
		c-0.288,0.065-0.636,0.05-0.619,0.525C97.119,90.744,96.627,90.441,96.364,90.554z M97.368,88.084
		c-0.13,0.478-0.289,0.896-0.087,1.202c0.108,0.164,0.506-0.099,0.855-0.156C97.868,88.766,97.647,88.465,97.368,88.084z"/>
	<path fill-rule="evenodd" clip-rule="evenodd" fill="#090A0A" d="M75.543,90.422c0.335,0,0.67,0.022,1.003-0.007
		c0.313-0.027,0.496-0.009,0.497,0.394c0,0.432-0.277,0.287-0.462,0.263c-0.509-0.068-0.728,0.089-0.643,0.633
		c0.053,0.349,0.01,0.711,0.025,1.067c0.014,0.294,0.09,0.541-0.4,0.538c-0.469-0.004-0.447-0.213-0.424-0.532
		c0.019-0.25-0.024-0.504-0.004-0.754c0.049-0.611-0.007-1.097-0.834-0.917c-0.348,0.075-0.266-0.215-0.298-0.405
		c-0.04-0.246,0.077-0.271,0.284-0.261c0.417,0.018,0.837,0.005,1.255,0.005C75.543,90.438,75.543,90.43,75.543,90.422z"/>
	<path fill-rule="evenodd" clip-rule="evenodd" fill="#090A0A" d="M107.389,84.55c0.16-0.043,0.206,0.035,0.244,0.186
		c0.069,0.281,0.169,0.558,0.268,0.831c0.362,1.003,0.363,1.003,1.404,0.641c0.177-0.062,0.37-0.098,0.528-0.191
		c0.232-0.141,0.36-0.125,0.422,0.159c0.043,0.201,0.219,0.376-0.169,0.478c-0.702,0.186-1.392,0.429-2.064,0.703
		c-0.32,0.131-0.392-0.003-0.471-0.243c-0.201-0.611-0.351-1.248-0.631-1.822C106.63,84.695,107.066,84.689,107.389,84.55z"/>
	<path fill-rule="evenodd" clip-rule="evenodd" fill="#2C2F2E" d="M33.97,69.427c0.169-0.004,0.336-0.004,0.474,0.117
		c1.199,1.042,2.521,1.911,3.852,2.769c0.047,0.031,0.07,0.101,0.103,0.151c-0.336-0.011-0.626,0.07-0.793,0.397
		C36.288,71.83,35.02,70.744,33.97,69.427z"/>
	<path fill-rule="evenodd" clip-rule="evenodd" fill="#2C2F2E" d="M97.868,4.808c-0.069,0.255-0.289,0.264-0.493,0.3
		c-0.744-1.011-1.546-1.977-2.326-2.971C96.162,2.85,97.116,3.721,97.868,4.808z"/>
	<path fill-rule="evenodd" clip-rule="evenodd" fill="#2C2F2E" d="M113.327,43.541c0.396,0.086,0.23-0.178,0.217-0.348
		c0.574,0.475,1.153,0.946,1.542,1.6c-0.41,0.065-0.81,0.003-0.956-0.42C113.982,43.945,113.468,43.935,113.327,43.541z"/>
	<path fill-rule="evenodd" clip-rule="evenodd" fill="#2C2F2E" d="M36.117,31.506c-0.081-0.167-0.229-0.155-0.376-0.143
		c0.281-0.516,0.606-0.998,1.164-1.328C36.643,30.526,36.38,31.016,36.117,31.506z"/>
	<path fill-rule="evenodd" clip-rule="evenodd" fill="#2C2F2E" d="M28.304,35.007c-0.07,0.001-0.141,0.003-0.211,0.005
		c-0.096-0.48-0.212-0.958-0.054-1.47C28.127,34.031,28.216,34.519,28.304,35.007z"/>
	<path fill-rule="evenodd" clip-rule="evenodd" fill="#2C2F2E" d="M36.475,42.977c0.05-0.193,0.099-0.387,0.147-0.581
		c0.086-0.043,0.171-0.086,0.255-0.129c0.172,0.023,0.343,0.047,0.515,0.071C37.087,42.551,36.782,42.765,36.475,42.977z"/>
	<path fill-rule="evenodd" clip-rule="evenodd" fill="#2C2F2E" d="M115.794,45.542c-0.258-0.234-0.844-0.158-0.716-0.757
		C115.377,44.981,115.63,45.218,115.794,45.542z"/>
	<path fill-rule="evenodd" clip-rule="evenodd" fill="#090A0A" d="M116.334,68.231c0.122-0.28,0.141-0.631,0.518-0.73
		C116.74,67.787,116.611,68.062,116.334,68.231z"/>
	<path fill-rule="evenodd" clip-rule="evenodd" fill="#090A0A" d="M116.089,68.489c-0.046-0.209,0.094-0.253,0.249-0.286
		C116.34,68.372,116.263,68.474,116.089,68.489z"/>
	<path fill-rule="evenodd" clip-rule="evenodd" fill="#2C2F2E" d="M98.854,6.212c-0.2-0.028-0.27-0.14-0.21-0.333
		C98.772,5.954,98.858,6.055,98.854,6.212z"/>
	<path fill-rule="evenodd" clip-rule="evenodd" fill="#2C2F2E" d="M116.025,45.795c-0.126-0.012-0.188-0.081-0.19-0.205
		C115.898,45.658,115.961,45.727,116.025,45.795z"/>
	<path fill-rule="evenodd" clip-rule="evenodd" fill="#3A6053" d="M90.907,37.258c0.492-0.73,1.229-1.233,1.791-1.897
		c0.104-0.122,0.277-0.097,0.419-0.069c2.617,0.51,5.245,0.976,7.743,1.958c-0.97,0.174-1.768-0.43-2.663-0.592
		c-0.547-0.098-1.075-0.342-1.621-0.378c-0.61-0.04-1.154-0.217-1.696-0.453c-0.68-0.295-2.111,0-2.661,0.491
		C91.817,36.673,91.598,37.302,90.907,37.258z"/>
	<path fill-rule="evenodd" clip-rule="evenodd" fill="#3A6053" d="M80.321,49.244c-0.715-0.496-0.965-1.378-0.62-2.32
		c0.188-0.517,0.396-1.039,0.882-1.372c0.098,0.617-0.354,1.079-0.558,1.577c-0.272,0.67-0.103,1.145,0.177,1.664
		C80.285,48.948,80.37,49.07,80.321,49.244z"/>
	<path fill-rule="evenodd" clip-rule="evenodd" fill="#3A6053" d="M98.684,68.372c-0.576-0.932-1.018-1.932-1.479-2.923
		c0.144-0.008,0.357-0.067,0.406,0.062C97.969,66.464,98.788,67.246,98.684,68.372z"/>
	<path fill-rule="evenodd" clip-rule="evenodd" fill="#3A6053" d="M107.022,39.772c0.96,0.437,1.944,0.828,2.774,1.506
		c-0.742,0.162-1.143-0.547-1.769-0.7c-0.261-0.063-0.443-0.323-0.774-0.32C106.979,40.262,107.076,39.951,107.022,39.772z"/>
	<path fill-rule="evenodd" clip-rule="evenodd" fill="#3A6053" d="M80.595,45.54c0.585-0.92,1.384-1.623,2.275-2.231
		c-0.025,0.172,0.058,0.37-0.174,0.479c-0.624,0.291-0.984,0.842-1.384,1.368C81.163,45.352,80.839,45.416,80.595,45.54z"/>
	<path fill-rule="evenodd" clip-rule="evenodd" fill="#3A6053" d="M98.956,69.195c-0.204-0.207-0.244-0.469-0.263-0.74
		C99.176,68.563,98.882,68.943,98.956,69.195z"/>
	<path fill-rule="evenodd" clip-rule="evenodd" fill="#017A5A" d="M52.047,48.313c0.002,0.094,0.006,0.189,0.011,0.284
		c-0.542-0.166-0.928-0.444-0.844-1.098c0.039-0.297-0.016-0.574-0.27-0.785c-0.34-0.285-0.32-0.646-0.182-1.02
		c0.039-0.106,0.207-0.269,0.056-0.309c-0.641-0.17-0.349-0.669-0.376-1.028c-0.077-0.934,0.11-1.854,0.249-2.773
		c0.019-0.128,0.084-0.225,0.142-0.334c0.451-0.861,0.74-1.772,0.823-2.745l0.01-0.019c0.592,0.117,0.697-0.275,0.776-0.721
		c0.088-0.499,0.241-0.941,0.654-1.319c0.606-0.552,1.326-0.659,2.061-0.678c1.042-0.029,1.911-0.729,2.969-0.673
		c-0.398-0.012-0.78,0.071-1.168,0.033c1.497-0.434,3.037-0.638,4.571-0.872c1.649-0.251,3.301-0.494,4.968-0.573
		c2.147-0.102,4.293-0.304,6.444-0.078c0.083,0.009,0.166,0.016,0.249,0.015c2.552-0.029,5.097,0.096,7.639,0.269
		c2.08,0.141,4.159,0.27,6.222,0.595c0.37,0.059,0.747,0.032,1.122,0.09c0.585,0.09,0.539,0.32,0.232,0.676
		c-0.082,0.095-0.165,0.188-0.247,0.282c-0.571,0.421-1.153,0.834-1.247,1.623c-2.164,2.397-4.785,4.192-7.594,5.736
		c-0.037,0.021-0.074,0.041-0.113,0.056c-0.295,0.111-0.571,0.565-0.874,0.284c-0.279-0.257-0.118-0.713-0.025-1.073
		c0.547-2.102,1.949-3.588,3.537-4.957c0.578-0.499,1.035-1.113,1.028-1.947c0.014-0.015,0.025-0.031,0.037-0.046
		c-0.009,0.018-0.02,0.035-0.03,0.053c-1.864,1.367-4.098,1.901-6.189,2.756c-1.495,0.61-2.864,1.431-4.059,2.524
		c-0.557,0.508-0.627,0.487-0.819-0.214c-0.41-1.5-1.435-2.507-2.701-3.308c-0.58-0.366-1.162-0.741-1.883-0.766
		c-0.161-0.005-0.257-0.125-0.353-0.238c-0.016-0.078-0.044-0.066-0.078-0.008c-0.131-0.015-0.263-0.028-0.394-0.042
		c-0.153-0.315-0.351-0.223-0.646-0.079c0.29,0.177,0.45,0.42,0.767,0.356c1.149,0.826,2.318,1.613,2.954,2.969
		c0.626,1.335,0.558,2.661,0.123,4.012c-0.659,2.054-1.958,3.694-3.394,5.248c-0.283,0.309-0.678,0.394-1.008,0.609
		c-1.039,0.681-1.901,1.553-2.767,2.421c-0.491,0.495-1.067,0.826-1.735,0.931c-1.893,0.297-3.811,0.512-5.496-0.686
		c-1.305-0.926-1.804-2.328-2.011-3.868c-0.216-1.593-0.084-3.16,0.228-4.723c0.01-0.049-0.029-0.107-0.068-0.237
		c-0.234,0.422-0.607,0.685-0.645,1.151c-0.515,0.242-0.751,0.652-0.75,1.216c0.001,0.31,0.071,0.66-0.047,0.922
		C51.572,46.954,51.654,47.634,52.047,48.313z M59.003,34.883c0.276,0.174,0.439,0.081,0.729-0.103
		C59.404,34.761,59.21,34.703,59.003,34.883z"/>
	<path fill-rule="evenodd" clip-rule="evenodd" fill="#F7E503" d="M36.475,42.977c0.307-0.212,0.612-0.426,0.918-0.64
		c0.074-0.047,0.149-0.094,0.224-0.141c0.182-0.019,0.306-0.131,0.417-0.262c2.44-1.451,4.967-2.725,7.613-3.76
		c2.04-0.798,4.1-1.519,6.26-1.923c0.184-0.034,0.362-0.096,0.543-0.145c0.416,0.053,0.23,0.267,0.127,0.464
		c-0.326,0.627-0.748,1.21-0.912,1.916l-0.01,0.019c-0.056,0.022-0.145,0.031-0.162,0.07c-0.896,2.088-1.541,4.242-1.296,6.539
		c0.182,1.712,0.712,3.323,1.947,4.614c0.496,1.305,1.012,2.599,1.939,3.737c-1.526,0.252-2.863,0.837-4.197,1.424
		c-0.645,0.286-0.656,0.426-0.088,0.868c0.717,0.559,1.514,0.961,2.51,1.173c-2.003,0.766-3.852,0.833-5.712-0.097
		c-1.117-0.558-2.118-1.229-2.897-2.209c-0.038-0.207-0.138-0.377-0.301-0.51l0,0.003c-0.163-0.467-0.326-0.932-0.489-1.397
		c-0.336-3.295,1.125-6.007,2.836-8.623c0.672-1.029,1.44-1.995,2.164-2.989c0.032-0.041,0.066-0.081,0.098-0.122
		c0.043-0.044,0.084-0.088,0.126-0.132c0.004-0.05,0.031-0.125,0.008-0.146c-0.051-0.047-0.098-0.006-0.122,0.054
		c-0.042,0.042-0.084,0.084-0.126,0.126c-0.044,0.041-0.088,0.08-0.131,0.12c-1.799,1.545-3.373,3.287-4.626,5.308
		c-0.064,0.021-0.112,0.052-0.085,0.133c-0.054,0.082-0.107,0.164-0.161,0.245c-0.1,0.078-0.188,0.16-0.14,0.306
		c0,0.056,0.001,0.111,0.003,0.167c0,0-0.021,0.022-0.021,0.022c-0.077-0.022-0.133,0.003-0.168,0.075
		c-0.179,0.151-0.286,0.341-0.307,0.577c-1.184,2.153-1.71,4.419-1.123,6.976c-0.713-0.259-1.317-0.577-1.832-0.98
		c-1.017-0.798-1.933-1.711-2.527-2.89c-0.927-1.835-0.994-3.788-0.757-5.773c0.078-0.661,0.229-1.314,0.346-1.971
		c0.012-0.052,0.023-0.103,0.035-0.154C36.437,43.038,36.462,43.015,36.475,42.977z"/>
	<path fill-rule="evenodd" clip-rule="evenodd" fill="#F7E503" d="M71.466,57.188c1.702,2.329,1.311,5.276-0.812,6.343
		C70.183,61.872,70.604,58.456,71.466,57.188z"/>
	<path fill-rule="evenodd" clip-rule="evenodd" fill="#3A6053" d="M52.145,49.728c-1.235-1.291-1.765-2.901-1.947-4.614
		c-0.244-2.297,0.401-4.451,1.296-6.539c0.018-0.039,0.106-0.047,0.162-0.07c-0.083,0.972-0.373,1.884-0.823,2.745
		c-0.058,0.11-0.123,0.207-0.142,0.334c-0.139,0.92-0.326,1.839-0.249,2.773c0.028,0.358-0.264,0.857,0.376,1.028
		c0.15,0.04-0.017,0.203-0.056,0.309c-0.138,0.374-0.158,0.735,0.182,1.02c0.253,0.211,0.309,0.488,0.27,0.785
		c-0.084,0.654,0.302,0.932,0.844,1.098C52.24,48.962,52.206,49.343,52.145,49.728z"/>
	<path fill-rule="evenodd" clip-rule="evenodd" fill="#3A6053" d="M51.666,38.487c0.164-0.706,0.586-1.288,0.912-1.916
		c0.103-0.198,0.288-0.412-0.127-0.464c0.479-0.408,1.098-0.316,1.65-0.445c0.943-0.218,1.875-0.521,2.857-0.534
		c0.388,0.038,0.77-0.045,1.168-0.033c-1.058-0.055-1.927,0.645-2.969,0.673c-0.735,0.02-1.455,0.126-2.061,0.678
		c-0.413,0.378-0.566,0.82-0.654,1.319C52.363,38.211,52.258,38.604,51.666,38.487z"/>
	<path fill-rule="evenodd" clip-rule="evenodd" fill="#3A6053" d="M52.047,48.313c-0.393-0.679-0.475-1.359-0.143-2.105
		c0.118-0.262,0.048-0.613,0.047-0.922c-0.001-0.564,0.234-0.974,0.75-1.216c-0.066,0.803-0.511,1.506-0.564,2.329
		C52.096,47.037,52.1,47.677,52.047,48.313z"/>
	<path fill-rule="evenodd" clip-rule="evenodd" fill="#3A6053" d="M86.91,37.155c0.094-0.789,0.676-1.202,1.247-1.623
		C87.859,36.165,87.449,36.709,86.91,37.155z"/>
	<path fill-rule="evenodd" clip-rule="evenodd" fill="#2C2F2E" d="M42.91,52.719c0.163,0.465,0.326,0.931,0.489,1.397
		C42.686,53.843,42.94,53.231,42.91,52.719z"/>
	<path fill-rule="evenodd" clip-rule="evenodd" fill="#2C2F2E" d="M66.521,36.243c-0.316,0.064-0.477-0.179-0.767-0.356
		c0.295-0.144,0.493-0.236,0.646,0.079C66.44,36.058,66.48,36.15,66.521,36.243z"/>
	<path fill-rule="evenodd" clip-rule="evenodd" fill="#2C2F2E" d="M42.256,47.839c0.021-0.236,0.128-0.426,0.307-0.577
		C42.679,47.571,42.679,47.817,42.256,47.839z"/>
	<path fill-rule="evenodd" clip-rule="evenodd" fill="#2C2F2E" d="M43.398,54.114c0.163,0.133,0.263,0.303,0.301,0.51
		C43.337,54.607,43.41,54.336,43.398,54.114z"/>
	<path fill-rule="evenodd" clip-rule="evenodd" fill="#2C2F2E" d="M38.034,41.934c-0.111,0.131-0.234,0.243-0.417,0.262
		C37.557,41.792,37.822,41.905,38.034,41.934z"/>
	<path fill-rule="evenodd" clip-rule="evenodd" fill="#2C2F2E" d="M42.75,46.998c-0.047-0.146,0.04-0.228,0.14-0.306
		C42.893,46.816,42.868,46.929,42.75,46.998z"/>
	<path fill-rule="evenodd" clip-rule="evenodd" fill="#2C2F2E" d="M42.731,47.187c0,0,0.021-0.021,0.021-0.022
		c0.015,0.009,0.045,0.026,0.044,0.029C42.771,47.25,42.748,47.247,42.731,47.187z"/>
	<path fill-rule="evenodd" clip-rule="evenodd" fill="#2C2F2E" d="M43.051,46.447c-0.027-0.081,0.021-0.111,0.085-0.133
		C43.107,46.358,43.08,46.403,43.051,46.447z"/>
	<path fill-rule="evenodd" clip-rule="evenodd" fill="#2C2F2E" d="M36.399,43.047c-0.012,0.052-0.023,0.103-0.035,0.154
		C36.271,43.126,36.286,43.075,36.399,43.047z"/>
	<path fill-rule="evenodd" clip-rule="evenodd" fill="#2C2F2E" d="M66.794,36.008c0.034-0.058,0.062-0.07,0.078,0.008
		C66.845,36.017,66.82,36.014,66.794,36.008z"/>
	<path fill-rule="evenodd" clip-rule="evenodd" fill="#3A6053" d="M59.003,34.883c0.208-0.18,0.401-0.122,0.729-0.103
		C59.442,34.964,59.279,35.057,59.003,34.883z"/>
	<path fill-rule="evenodd" clip-rule="evenodd" fill="#090A0A" d="M82.876,35.261c0.011-0.018,0.021-0.035,0.03-0.053
		c-0.012,0.015-0.023,0.031-0.037,0.046L82.876,35.261z"/>
	<path fill-rule="evenodd" clip-rule="evenodd" fill="#090A0A" d="M47.763,41.007c0.043-0.04,0.087-0.08,0.131-0.12
		c0.038,0.033,0.077,0.066,0.114,0.099c-0.032,0.041-0.066,0.081-0.098,0.122C47.861,41.073,47.813,41.041,47.763,41.007z"/>
	<path fill-rule="evenodd" clip-rule="evenodd" fill="#090A0A" d="M47.894,40.887c0.042-0.042,0.084-0.084,0.126-0.126
		c0.038,0.03,0.077,0.062,0.114,0.092c-0.042,0.044-0.083,0.088-0.126,0.132C47.971,40.953,47.932,40.919,47.894,40.887z"/>
	<path fill-rule="evenodd" clip-rule="evenodd" fill="#090A0A" d="M48.02,40.761c0.024-0.06,0.071-0.101,0.122-0.054
		c0.023,0.021-0.004,0.096-0.008,0.146C48.097,40.822,48.058,40.791,48.02,40.761z"/>
	<g>
		<g>
			<linearGradient id="SVGID_6_" gradientUnits="userSpaceOnUse" x1="45.8833" y1="103.9355" x2="45.8833" y2="137.7175">
				<stop  offset="0.0108" style="stop-color:#062E00"/>
				<stop  offset="1" style="stop-color:#246308"/>
			</linearGradient>
			<path fill="url(#SVGID_6_)" d="M50.702,113.885c0,0.183-0.102,0.291-0.304,0.263c-0.152-0.021-0.254-0.221-0.304-0.477
				c-0.813-4.969-3.229-13.985-5.461-15.354c-1.212-0.653-1.303,0.797-1.305,2.669c0.012,3.336,0.592,7.872,4.255,18.474
				c3.499,9.5,3.943,10.83,3.933,15.714c-0.004,6.25-2.804,9.512-4.627,10.599c-1.336,0.748-2.16,0.496-2.742,0.268
				c-0.532-0.18-0.819-0.228-0.963-0.141c-0.191,0.12-0.578,0.831-1.525,2.582c-0.189,0.352-0.378,0.784-0.566,0.916
				c-0.188,0.133-0.235,0.014-0.235-0.216c0-6.407,0-12.814,0-19.223c0-0.229,0.047-0.543,0.235-0.582
				c0.141-0.028,0.235,0.253,0.283,0.468c0.853,5.967,2.308,14.359,5.217,12.762c0.938-0.464,1.439-2.04,1.438-4.034
				c0.005-4.38-1.515-8.303-4.271-16.689c-2.598-8.115-3.505-14.69-3.511-20.286c0.001-7.459,1.902-8.323,4.382-6.763
				c0.923,0.568,2.007,1.932,2.753,3.087c0.248,0.323,0.548,0.664,0.747,0.761c0.2,0.097,0.701-0.113,1.153-0.46
				c0.453-0.284,0.758-0.444,1.062-0.299c0.253,0.12,0.355,0.473,0.355,0.84C50.702,103.803,50.702,108.844,50.702,113.885z"/>
			<linearGradient id="SVGID_7_" gradientUnits="userSpaceOnUse" x1="61.4404" y1="106.7383" x2="61.4404" y2="132.3329">
				<stop  offset="0.0108" style="stop-color:#062E00"/>
				<stop  offset="1" style="stop-color:#246308"/>
			</linearGradient>
			<path fill="url(#SVGID_7_)" d="M59.28,103.887c-0.654-0.173-1.306-0.354-1.955-0.547c-0.315-0.093-0.473,0.131-0.577,0.427
				c-0.91,3.342-1.813,6.833-2.711,10.51c-0.052,0.221-0.208,0.317-0.414,0.293c-0.208-0.025-0.259-0.147-0.259-0.438
				c0-4.878,0-9.756,0-14.635c0-0.115,0.104-0.188,0.259-0.125c5.046,2.065,10.297,3.458,15.62,4.179
				c0.163,0.021,0.272,0.13,0.272,0.222c0,3.906,0,7.813,0,11.72c0,0.231-0.055,0.322-0.272,0.313
				c-0.218-0.009-0.383-0.108-0.436-0.297c-0.944-3.132-1.885-6.342-2.824-9.663c-0.108-0.304-0.271-0.571-0.596-0.627
				c-0.667-0.115-1.332-0.24-1.996-0.374c0,10.348,0,20.696,0,31.044c0,0.591,0.054,1.024,0.43,1.293
				c0.539,0.367,1.079,0.731,1.62,1.094c0.161,0.114,0.378,0.217,0.378,0.361c0,0.143-0.054,0.297-0.324,0.35
				c-2.794,0.549-5.559,1.285-8.276,2.21c-0.263,0.091-0.316-0.054-0.316-0.216c0-0.164,0.211-0.397,0.369-0.61
				c0.526-0.692,1.053-1.365,1.583-2.019c0.371-0.469,0.424-0.949,0.424-1.575C59.28,125.813,59.28,114.851,59.28,103.887z"/>
			<linearGradient id="SVGID_8_" gradientUnits="userSpaceOnUse" x1="77.541" y1="110.166" x2="77.541" y2="131.1372">
				<stop  offset="0.0108" style="stop-color:#062E00"/>
				<stop  offset="1" style="stop-color:#246308"/>
			</linearGradient>
			<path fill="url(#SVGID_8_)" d="M79.213,130.3c-0.057-0.224-0.22-0.406-0.494-0.409c-1.354-0.01-2.708,0.004-4.061,0.039
				c-0.163,0.005-0.274,0.144-0.329,0.325c-0.274,1.663-0.548,3.332-0.822,5.007c-0.054,0.32,0.056,0.586,0.274,0.8
				c0.402,0.323,0.804,0.649,1.207,0.978c0.219,0.216,0.548,0.384,0.548,0.52c0,0.134-0.11,0.272-0.384,0.284
				c-2.103,0.088-4.202,0.28-6.29,0.575c-0.216,0.031-0.326-0.093-0.326-0.232c0-0.141,0.219-0.358,0.381-0.52
				c0.508-0.503,1.018-0.995,1.527-1.477c0.328-0.309,0.382-0.772,0.437-1.191c1.658-10.426,3.321-20.474,4.985-30.494
				c0.054-0.223,0.163-0.399,0.438-0.393c0.677,0.017,1.354,0.021,2.029,0.017c0.275-0.002,0.439,0.22,0.495,0.489
				c1.737,10.015,3.475,20.01,5.207,30.363c0.054,0.461,0.219,0.978,0.601,1.288c0.528,0.447,1.057,0.904,1.584,1.373
				c0.162,0.159,0.326,0.32,0.326,0.46s-0.109,0.264-0.381,0.228c-2.617-0.343-5.251-0.523-7.886-0.541
				c-0.275-0.002-0.385-0.137-0.385-0.271c0-0.136,0.221-0.27,0.385-0.402c0.493-0.401,0.987-0.797,1.48-1.188
				c0.222-0.174,0.331-0.485,0.275-0.892C79.762,133.453,79.487,131.875,79.213,130.3z M78.443,127.512
				c0.165,0,0.275-0.134,0.221-0.314c-0.641-3.669-1.281-7.328-1.921-10.998c-0.037,0-0.073,0-0.11-0.001
				c-0.604,3.679-1.208,7.363-1.811,11.068c-0.055,0.183,0.055,0.271,0.165,0.269C76.139,127.515,77.291,127.507,78.443,127.512z"/>
			<linearGradient id="SVGID_9_" gradientUnits="userSpaceOnUse" x1="94.9043" y1="107.4355" x2="94.9043" y2="133.023">
				<stop  offset="0.0108" style="stop-color:#062E00"/>
				<stop  offset="1" style="stop-color:#246308"/>
			</linearGradient>
			<path fill="url(#SVGID_9_)" d="M96.718,123.896c0-0.524-0.211-0.848-0.582-1.169c-0.495-0.43-0.992-0.849-1.49-1.26
				c-0.215-0.206-0.269-0.307-0.269-0.509s0.161-0.304,0.429-0.306c2.631-0.011,5.226-0.025,7.768-0.043
				c0.207-0.001,0.361,0.114,0.361,0.349s-0.104,0.351-0.259,0.583c-0.497,0.461-0.997,0.907-1.499,1.343
				c-0.363,0.27-0.519,0.654-0.519,1.214c0,5.871,0,11.741,0,17.612c0,0.168-0.104,0.24-0.262,0.182
				c-0.208-0.079-0.417-0.268-0.521-0.416c-0.522-0.687-1.047-1.354-1.573-2.001c-0.211-0.227-0.315-0.312-0.526-0.374
				c-0.158-0.048-0.316-0.041-0.528,0.057c-1.108,0.683-2.173,0.979-3.352,0.674c-6.716-1.718-7.036-11.942-7.021-19.805
				c-0.014-5.813,0.305-16.232,6.916-17.914c1.766-0.463,2.823-0.019,3.352,0.255c0.212,0.096,0.581,0.145,0.793,0.08
				c0.263-0.08,0.789-0.618,1.313-1.29c0.473-0.601,0.785-0.996,1.045-1.093c0.262-0.1,0.366,0.253,0.366,0.815
				c0,4.486,0,8.974,0,13.46c0,0.225-0.104,0.405-0.262,0.423c-0.208,0.022-0.364-0.183-0.469-0.503
				c-1.096-4.114-3.355-10.359-5.71-9.73c-2.247,0.541-2.901,5.248-2.9,15.503c-0.001,14.003,0.652,16.835,2.578,17.282
				c1.66,0.393,2.822-1.27,2.822-6.283C96.718,128.652,96.718,126.273,96.718,123.896z"/>
			<linearGradient id="SVGID_10_" gradientUnits="userSpaceOnUse" x1="109.7969" y1="102.3232" x2="109.7969" y2="135.8664">
				<stop  offset="0.0108" style="stop-color:#062E00"/>
				<stop  offset="1" style="stop-color:#246308"/>
			</linearGradient>
			<path fill="url(#SVGID_10_)" d="M114.68,112.141c0,0.229-0.092,0.4-0.281,0.439c-0.142,0.028-0.235-0.178-0.282-0.468
				c-0.752-6.094-3.044-13.936-5.326-12.658c-1.238,0.596-1.343,1.973-1.342,3.644c-0.012,3.329,0.682,5.553,4.278,16.233
				c3.362,10.621,3.692,14.047,3.704,19.982c0.007,8.337-2.574,8.898-4.384,7.768c-1.313-0.802-2.157-1.998-2.752-2.825
				c-0.547-0.737-0.847-1.068-0.997-1.143c-0.2-0.097-0.6,0.168-1.609,0.617c-0.203,0.09-0.405,0.238-0.608,0.143
				s-0.254-0.24-0.254-0.423c0-5.106,0-10.213,0-15.318c0-0.183,0.051-0.418,0.254-0.39c0.152,0.021,0.254,0.279,0.304,0.472
				c0.907,4.976,2.49,13.595,5.371,15.231c0.926,0.494,1.404-0.738,1.405-2.966c-0.005-4.753-1.428-10.801-4.264-18.678
				c-2.696-7.366-3.738-11.405-3.733-15.839c-0.002-5.634,2.104-8.375,4.627-9.818c0.941-0.523,2.017-0.412,2.741,0.013
				c0.242,0.071,0.532,0.115,0.725,0.003c0.192-0.113,0.673-0.901,1.102-1.841c0.428-0.866,0.711-1.439,0.994-1.636
				c0.236-0.166,0.328,0.149,0.328,0.607C114.68,99.574,114.68,105.857,114.68,112.141z"/>
		</g>
	</g>
	<g>
		<g>
			<linearGradient id="SVGID_11_" gradientUnits="userSpaceOnUse" x1="43.7607" y1="148.2178" x2="44.7785" y2="89.9102">
				<stop  offset="0.1075" style="stop-color:#C1D000"/>
				<stop  offset="0.1193" style="stop-color:#C6D418;stop-opacity:0.9701"/>
				<stop  offset="0.1455" style="stop-color:#D1DD48;stop-opacity:0.9032"/>
				<stop  offset="0.174" style="stop-color:#DBE574;stop-opacity:0.8306"/>
				<stop  offset="0.204" style="stop-color:#E4EC99;stop-opacity:0.7542"/>
				<stop  offset="0.236" style="stop-color:#EBF2B9;stop-opacity:0.6726"/>
				<stop  offset="0.2706" style="stop-color:#F1F7D3;stop-opacity:0.5845"/>
				<stop  offset="0.3087" style="stop-color:#F5FAE6;stop-opacity:0.4875"/>
				<stop  offset="0.3522" style="stop-color:#F9FDF4;stop-opacity:0.3765"/>
				<stop  offset="0.4059" style="stop-color:#FAFFFD;stop-opacity:0.2396"/>
				<stop  offset="0.5" style="stop-color:#FBFFFF;stop-opacity:0"/>
				<stop  offset="0.5927" style="stop-color:#C4D6BE;stop-opacity:0.25"/>
				<stop  offset="0.786" style="stop-color:#54843C;stop-opacity:0.771"/>
				<stop  offset="0.871" style="stop-color:#276308"/>
			</linearGradient>
			<path fill="url(#SVGID_11_)" d="M49.189,110.585c0,0.195-0.102,0.312-0.307,0.282c-0.152-0.021-0.255-0.232-0.306-0.503
				c-0.818-5.29-3.253-14.816-5.503-16.194c-1.222-0.66-1.313,0.875-1.315,2.854c0.012,3.53,0.597,8.272,4.289,19.505
				c3.527,10.091,3.973,11.544,3.963,16.741c-0.004,6.668-2.826,10.068-4.663,11.163c-1.347,0.754-2.178,0.462-2.763,0.204
				c-0.537-0.206-0.826-0.265-0.972-0.178c-0.192,0.121-0.583,0.862-1.537,2.679c-0.19,0.364-0.381,0.815-0.57,0.948
				c-0.19,0.134-0.237,0.006-0.237-0.234c0-6.751,0-13.501,0-20.251c0-0.242,0.047-0.573,0.237-0.612
				c0.143-0.029,0.237,0.269,0.285,0.497c0.86,6.292,2.326,15.191,5.258,13.582c0.946-0.469,1.451-2.13,1.451-4.246
				c0.005-4.647-1.527-8.854-4.304-17.727c-2.619-8.576-3.532-15.466-3.539-21.36c0.001-7.849,1.917-8.824,4.417-7.251
				c0.93,0.573,2.023,1.984,2.774,3.192c0.25,0.335,0.552,0.689,0.753,0.786c0.2,0.098,0.705-0.139,1.162-0.519
				c0.457-0.314,0.763-0.493,1.069-0.347c0.255,0.122,0.357,0.493,0.357,0.884C49.189,99.849,49.189,105.217,49.189,110.585z"/>
			<linearGradient id="SVGID_12_" gradientUnits="userSpaceOnUse" x1="59.3799" y1="139.9141" x2="60.1608" y2="95.1772">
				<stop  offset="0.1075" style="stop-color:#C1D000"/>
				<stop  offset="0.1193" style="stop-color:#C6D418;stop-opacity:0.9701"/>
				<stop  offset="0.1455" style="stop-color:#D1DD48;stop-opacity:0.9032"/>
				<stop  offset="0.174" style="stop-color:#DBE574;stop-opacity:0.8306"/>
				<stop  offset="0.204" style="stop-color:#E4EC99;stop-opacity:0.7542"/>
				<stop  offset="0.236" style="stop-color:#EBF2B9;stop-opacity:0.6726"/>
				<stop  offset="0.2706" style="stop-color:#F1F7D3;stop-opacity:0.5845"/>
				<stop  offset="0.3087" style="stop-color:#F5FAE6;stop-opacity:0.4875"/>
				<stop  offset="0.3522" style="stop-color:#F9FDF4;stop-opacity:0.3765"/>
				<stop  offset="0.4059" style="stop-color:#FAFFFD;stop-opacity:0.2396"/>
				<stop  offset="0.5" style="stop-color:#FBFFFF;stop-opacity:0"/>
				<stop  offset="0.5927" style="stop-color:#C4D6BE;stop-opacity:0.25"/>
				<stop  offset="0.786" style="stop-color:#54843C;stop-opacity:0.771"/>
				<stop  offset="0.871" style="stop-color:#276308"/>
			</linearGradient>
			<path fill="url(#SVGID_12_)" d="M57.834,99.776c-0.659-0.174-1.316-0.357-1.97-0.551c-0.318-0.095-0.476,0.147-0.582,0.466
				c-0.917,3.599-1.828,7.35-2.733,11.285c-0.052,0.237-0.208,0.341-0.416,0.316c-0.209-0.025-0.26-0.155-0.26-0.464
				c0-5.211,0-10.421,0-15.631c0-0.124,0.104-0.204,0.26-0.14c5.086,2.081,10.378,3.484,15.742,4.211
				c0.166,0.022,0.275,0.137,0.275,0.237c0,4.23,0,8.462,0,12.692c0,0.251-0.055,0.349-0.275,0.34
				c-0.218-0.009-0.383-0.116-0.438-0.319c-0.952-3.388-1.9-6.854-2.846-10.433c-0.108-0.327-0.273-0.612-0.6-0.669
				c-0.672-0.116-1.342-0.241-2.011-0.377c0,11.16,0,22.319,0,33.479c0,0.639,0.054,1.106,0.434,1.401
				c0.542,0.404,1.086,0.805,1.631,1.204c0.164,0.124,0.381,0.238,0.381,0.395c0,0.154-0.055,0.32-0.327,0.374
				c-2.815,0.553-5.603,1.295-8.34,2.228c-0.265,0.091-0.317-0.066-0.317-0.24c0-0.176,0.212-0.421,0.37-0.645
				c0.53-0.732,1.062-1.443,1.596-2.136c0.374-0.497,0.427-1.013,0.427-1.687C57.834,123.335,57.834,111.556,57.834,99.776z"/>
			<linearGradient id="SVGID_13_" gradientUnits="userSpaceOnUse" x1="76.2305" y1="137.1807" x2="76.8821" y2="99.8499">
				<stop  offset="0.1075" style="stop-color:#C1D000"/>
				<stop  offset="0.1193" style="stop-color:#C6D418;stop-opacity:0.9701"/>
				<stop  offset="0.1455" style="stop-color:#D1DD48;stop-opacity:0.9032"/>
				<stop  offset="0.174" style="stop-color:#DBE574;stop-opacity:0.8306"/>
				<stop  offset="0.204" style="stop-color:#E4EC99;stop-opacity:0.7542"/>
				<stop  offset="0.236" style="stop-color:#EBF2B9;stop-opacity:0.6726"/>
				<stop  offset="0.2706" style="stop-color:#F1F7D3;stop-opacity:0.5845"/>
				<stop  offset="0.3087" style="stop-color:#F5FAE6;stop-opacity:0.4875"/>
				<stop  offset="0.3522" style="stop-color:#F9FDF4;stop-opacity:0.3765"/>
				<stop  offset="0.4059" style="stop-color:#FAFFFD;stop-opacity:0.2396"/>
				<stop  offset="0.5" style="stop-color:#FBFFFF;stop-opacity:0"/>
				<stop  offset="0.5927" style="stop-color:#C4D6BE;stop-opacity:0.25"/>
				<stop  offset="0.786" style="stop-color:#54843C;stop-opacity:0.771"/>
				<stop  offset="0.871" style="stop-color:#276308"/>
			</linearGradient>
			<path fill="url(#SVGID_13_)" d="M77.924,128.258c-0.057-0.244-0.222-0.44-0.499-0.442c-1.364-0.011-2.729,0.003-4.091,0.039
				c-0.167,0.004-0.276,0.154-0.332,0.352c-0.276,1.804-0.552,3.613-0.828,5.429c-0.056,0.348,0.054,0.635,0.276,0.867
				c0.405,0.354,0.81,0.709,1.215,1.066c0.222,0.235,0.554,0.418,0.554,0.565c0,0.146-0.111,0.297-0.387,0.308
				c-2.119,0.09-4.234,0.283-6.338,0.58c-0.221,0.031-0.33-0.104-0.33-0.256c0-0.152,0.22-0.385,0.384-0.559
				c0.512-0.539,1.025-1.066,1.539-1.585c0.332-0.333,0.387-0.834,0.441-1.286c1.67-11.288,3.346-22.195,5.023-33.074
				c0.056-0.242,0.167-0.434,0.443-0.427c0.682,0.016,1.365,0.021,2.047,0.017c0.276-0.002,0.441,0.238,0.496,0.53
				c1.752,10.873,3.503,21.725,5.248,32.938c0.056,0.5,0.222,1.059,0.606,1.392c0.532,0.481,1.064,0.973,1.596,1.476
				c0.163,0.171,0.329,0.344,0.329,0.495c0,0.15-0.11,0.286-0.384,0.25c-2.639-0.345-5.293-0.527-7.948-0.545
				c-0.277-0.002-0.387-0.148-0.387-0.294c0-0.147,0.222-0.293,0.387-0.437c0.498-0.436,0.995-0.865,1.493-1.292
				c0.221-0.189,0.333-0.526,0.276-0.968C78.477,131.681,78.2,129.968,77.924,128.258z M77.148,125.231
				c0.167,0.001,0.276-0.145,0.223-0.341c-0.646-3.981-1.292-7.955-1.938-11.938c-0.037-0.001-0.073-0.001-0.11-0.001
				c-0.608,3.994-1.216,7.992-1.824,12.013c-0.056,0.196,0.055,0.292,0.165,0.29C74.825,125.235,75.987,125.228,77.148,125.231z"/>
			<linearGradient id="SVGID_14_" gradientUnits="userSpaceOnUse" x1="93.3262" y1="140.4365" x2="94.1079" y2="95.6499">
				<stop  offset="0.1075" style="stop-color:#C1D000"/>
				<stop  offset="0.1193" style="stop-color:#C6D418;stop-opacity:0.9701"/>
				<stop  offset="0.1455" style="stop-color:#D1DD48;stop-opacity:0.9032"/>
				<stop  offset="0.174" style="stop-color:#DBE574;stop-opacity:0.8306"/>
				<stop  offset="0.204" style="stop-color:#E4EC99;stop-opacity:0.7542"/>
				<stop  offset="0.236" style="stop-color:#EBF2B9;stop-opacity:0.6726"/>
				<stop  offset="0.2706" style="stop-color:#F1F7D3;stop-opacity:0.5845"/>
				<stop  offset="0.3087" style="stop-color:#F5FAE6;stop-opacity:0.4875"/>
				<stop  offset="0.3522" style="stop-color:#F9FDF4;stop-opacity:0.3765"/>
				<stop  offset="0.4059" style="stop-color:#FAFFFD;stop-opacity:0.2396"/>
				<stop  offset="0.5" style="stop-color:#FBFFFF;stop-opacity:0"/>
				<stop  offset="0.5927" style="stop-color:#C4D6BE;stop-opacity:0.25"/>
				<stop  offset="0.786" style="stop-color:#54843C;stop-opacity:0.771"/>
				<stop  offset="0.871" style="stop-color:#276308"/>
			</linearGradient>
			<path fill="url(#SVGID_14_)" d="M95.566,121.275c0-0.563-0.213-0.911-0.588-1.256c-0.499-0.461-1-0.912-1.502-1.354
				c-0.215-0.221-0.269-0.328-0.269-0.548c0-0.217,0.161-0.327,0.43-0.328c2.652-0.012,5.268-0.026,7.83-0.043
				c0.208-0.002,0.362,0.122,0.362,0.371c0,0.251-0.104,0.375-0.26,0.622c-0.501,0.492-1.004,0.971-1.51,1.438
				c-0.366,0.29-0.524,0.702-0.524,1.302c0,6.281,0,12.562,0,18.842c0,0.18-0.104,0.261-0.263,0.201
				c-0.21-0.079-0.419-0.276-0.525-0.434c-0.527-0.725-1.056-1.428-1.587-2.111c-0.211-0.238-0.317-0.327-0.528-0.391
				c-0.16-0.047-0.319-0.037-0.533,0.071c-1.119,0.754-2.19,1.096-3.377,0.787c-6.771-1.731-7.093-12.831-7.079-21.335
				c-0.014-6.286,0.308-17.596,6.971-19.29c1.781-0.468,2.846,0.033,3.379,0.337c0.213,0.106,0.585,0.166,0.798,0.102
				c0.266-0.081,0.797-0.647,1.324-1.356c0.476-0.633,0.791-1.049,1.054-1.147s0.367,0.28,0.367,0.882c0,4.801,0,9.602,0,14.401
				c0,0.24-0.104,0.432-0.263,0.449c-0.21,0.023-0.367-0.197-0.473-0.54c-1.104-4.408-3.383-11.15-5.755-10.518
				c-2.266,0.546-2.924,5.619-2.922,16.69c-0.001,15.114,0.655,18.163,2.599,18.614c1.672,0.396,2.844-1.411,2.844-6.795
				C95.566,126.385,95.566,123.83,95.566,121.275z"/>
			<linearGradient id="SVGID_15_" gradientUnits="userSpaceOnUse" x1="108.2881" y1="146.1221" x2="109.2991" y2="88.2022">
				<stop  offset="0.1075" style="stop-color:#C1D000"/>
				<stop  offset="0.1193" style="stop-color:#C6D418;stop-opacity:0.9701"/>
				<stop  offset="0.1455" style="stop-color:#D1DD48;stop-opacity:0.9032"/>
				<stop  offset="0.174" style="stop-color:#DBE574;stop-opacity:0.8306"/>
				<stop  offset="0.204" style="stop-color:#E4EC99;stop-opacity:0.7542"/>
				<stop  offset="0.236" style="stop-color:#EBF2B9;stop-opacity:0.6726"/>
				<stop  offset="0.2706" style="stop-color:#F1F7D3;stop-opacity:0.5845"/>
				<stop  offset="0.3087" style="stop-color:#F5FAE6;stop-opacity:0.4875"/>
				<stop  offset="0.3522" style="stop-color:#F9FDF4;stop-opacity:0.3765"/>
				<stop  offset="0.4059" style="stop-color:#FAFFFD;stop-opacity:0.2396"/>
				<stop  offset="0.5" style="stop-color:#FBFFFF;stop-opacity:0"/>
				<stop  offset="0.5927" style="stop-color:#C4D6BE;stop-opacity:0.25"/>
				<stop  offset="0.786" style="stop-color:#54843C;stop-opacity:0.771"/>
				<stop  offset="0.871" style="stop-color:#276308"/>
			</linearGradient>
			<path fill="url(#SVGID_15_)" d="M113.67,108.827c0,0.241-0.095,0.421-0.284,0.46c-0.143,0.029-0.238-0.188-0.286-0.494
				c-0.758-6.423-3.067-14.766-5.366-13.479c-1.25,0.602-1.354,2.063-1.354,3.838c-0.012,3.524,0.688,5.938,4.312,17.247
				c3.39,11.221,3.721,14.788,3.733,21.044c0.007,8.771-2.594,9.45-4.418,8.311c-1.324-0.809-2.174-2.053-2.772-2.913
				c-0.552-0.769-0.854-1.113-1.006-1.188c-0.202-0.098-0.604,0.193-1.622,0.699c-0.204,0.1-0.407,0.266-0.613,0.168
				c-0.204-0.097-0.256-0.25-0.256-0.444c0-5.438,0-10.877,0-16.315c0-0.195,0.052-0.446,0.256-0.418
				c0.153,0.021,0.256,0.296,0.307,0.501c0.914,5.292,2.509,14.421,5.412,16.07c0.934,0.498,1.417-0.815,1.417-3.169
				c-0.004-5.023-1.438-11.372-4.297-19.73c-2.719-7.82-3.768-12.155-3.763-16.878c-0.002-6.01,2.12-8.875,4.664-10.331
				c0.947-0.526,2.031-0.377,2.762,0.095c0.244,0.08,0.536,0.136,0.73,0.021c0.194-0.113,0.678-0.932,1.109-1.91
				c0.431-0.901,0.717-1.496,1.003-1.693c0.237-0.166,0.332,0.166,0.332,0.648C113.67,95.586,113.67,102.207,113.67,108.827z"/>
		</g>
	</g>
	<path fill-rule="evenodd" clip-rule="evenodd" fill="#017A5A" d="M116.025,45.795c1.625,1.435,2.962,3.106,3.96,5.028
		c2.478,4.777,2.092,9.399-0.816,13.87c-0.668,1.024-1.424,1.971-2.317,2.808c-0.377,0.099-0.396,0.45-0.518,0.73l0.004-0.028
		c-0.155,0.032-0.295,0.076-0.249,0.286l0.018-0.015c-0.225-0.043-0.33,0.129-0.477,0.244c-0.875,0.693-1.747,1.392-2.643,2.06
		c-0.827,0.617-1.739,1.102-2.618,1.632c-1.125,0.676-2.226,1.39-3.411,1.965c-2.121,1.031-4.298,1.927-6.538,2.665
		c-0.548,0.18-0.579,0.115-0.52-0.471c0.124-1.249,0.148-2.502-0.014-3.753c-0.162-1.246-0.567-2.427-0.931-3.62
		c-0.074-0.252,0.22-0.633-0.263-0.74c-0.017-0.027-0.019-0.054-0.01-0.083c0.104-1.126-0.715-1.908-1.072-2.861
		c-0.049-0.129-0.263-0.07-0.406-0.062c-0.888-1.41-1.797-2.803-2.842-4.113c-1.317-1.65-2.794-3.14-4.322-4.584
		c-1.363-1.287-2.771-2.519-4.274-3.651c-1.081-0.813-2.174-1.604-3.281-2.378c-0.716-0.501-1.542-0.842-2.164-1.478
		c0.049-0.174-0.036-0.296-0.119-0.451c-0.279-0.519-0.449-0.994-0.177-1.664c0.203-0.499,0.655-0.96,0.558-1.577l0.012-0.013
		c0.244-0.124,0.568-0.188,0.718-0.384c0.399-0.526,0.76-1.077,1.384-1.368c0.231-0.109,0.148-0.307,0.174-0.479
		c0.747-0.554,1.477-1.13,2.274-1.616c1.119-0.683,2.212-1.398,3.195-2.278c0.832-0.745,1.711-1.439,2.567-2.156
		c0.69,0.044,0.91-0.585,1.312-0.94c0.55-0.49,1.981-0.786,2.661-0.491c0.542,0.235,1.086,0.413,1.696,0.453
		c0.546,0.036,1.074,0.281,1.621,0.378c0.896,0.163,1.693,0.767,2.663,0.592c2.091,0.75,4.174,1.522,6.162,2.522
		c0.054,0.178-0.043,0.49,0.231,0.487c0.331-0.003,0.514,0.256,0.774,0.32c0.626,0.152,1.026,0.861,1.769,0.7
		c0.196,0.008,0.347,0.125,0.506,0.222c1.041,0.631,2.043,1.321,3.024,2.04c0.141,0.394,0.655,0.404,0.803,0.831
		c0.146,0.423,0.546,0.485,0.956,0.42l-0.008-0.007c-0.128,0.599,0.458,0.522,0.716,0.757l0.04,0.007c0,0,0.001,0.042,0.001,0.041
		C115.838,45.714,115.899,45.783,116.025,45.795z"/>
	<path fill-rule="evenodd" clip-rule="evenodd" fill="#090A0A" d="M80.321,49.244c0.622,0.635,1.448,0.976,2.164,1.478
		c1.107,0.775,2.2,1.566,3.281,2.378c1.503,1.132,2.911,2.364,4.274,3.651c1.528,1.444,3.005,2.934,4.322,4.584
		c1.045,1.31,1.954,2.703,2.842,4.113c0.461,0.991,0.902,1.991,1.479,2.923c-0.009,0.029-0.007,0.056,0.01,0.083
		c0.019,0.271,0.059,0.534,0.263,0.74c0.363,1.193,0.769,2.375,0.931,3.62c0.162,1.251,0.138,2.504,0.014,3.753
		c-0.06,0.586-0.028,0.65,0.52,0.471c2.24-0.737,4.417-1.633,6.538-2.665c1.186-0.575,2.286-1.29,3.411-1.965
		c0.879-0.53,1.791-1.015,2.618-1.632c0.896-0.668,1.768-1.366,2.643-2.06c0.146-0.115,0.252-0.287,0.477-0.244
		c-0.794,1.193-1.851,2.143-2.915,3.073c-3.092,2.703-6.586,4.766-10.343,6.408c-1.398,0.609-2.889,1.022-4.227,1.727
		c-1.955,1.028-4.045,1.53-6.154,2.031c-2.101,0.499-4.256,0.634-6.385,0.946c-0.053,0.009-0.11-0.019-0.236-0.043
		c0.563-0.354,1.161-0.332,1.713-0.464c2.344-0.558,4.659-1.193,6.705-2.523c1.188-0.771,2.262-1.729,2.257-3.262
		c-0.005-1.456-0.215-2.911-0.628-4.33c-1.406-4.835-4.145-8.871-7.47-12.558c-2.124-2.352-4.479-4.454-6.986-6.385
		c-0.875-0.673-1.895-1.146-2.684-1.949c-1.349-1.376-1.812-2.451-2.1-5.073c-1.043,1.128-1.804,2.379-2.46,3.697
		c-0.683,1.371-1.17,2.811-1.535,4.297c-0.103,0.412-0.079,0.768,0.087,1.149c0.503,1.149,0.941,2.322,1.149,3.568
		c0.116,0.696,0.085,1.365-0.257,2.013c-0.81,1.53-1.503,3.127-2.597,4.49c-0.154,0.192-0.119,0.396-0.106,0.597
		c0.196,2.989,0.573,5.949,1.387,8.841c0.093,0.326,0.165,0.658,0.245,0.979c-0.288,0.118-0.267-0.115-0.31-0.217
		c-1.445-3.395-2.49-6.897-3.009-10.567c-0.433-3.064,0.008-5.984,0.966-8.883c1.469-4.452,3.183-8.798,5.232-13.014
		c0.375-0.768,0.653-1.584,0.963-2.382c0.056-0.141,0.173-0.345-0.034-0.439c-0.132-0.061-0.294-0.025-0.463,0.074
		c-1.625,0.946-2.875,2.267-3.928,3.806c-1.403,2.055-3.23,3.638-5.38,4.898c-1.408,0.826-2.7,1.865-3.782,3.086
		c-0.958,1.083-2.124,1.497-3.486,1.569c-2.269,0.119-4.474,0.541-6.594,1.372c-0.176,0.068-0.345,0.151-0.515,0.232
		c-0.035,0.016-0.06,0.054-0.126,0.113c0.862,0.177,1.692,0.342,2.52,0.52c1.107,0.239,2.169,0.575,3.125,1.227
		c0.787,0.535,1.75,0.253,2.431-0.685c0.866-1.193,1.79-2.32,3.069-3.098c0.205-0.126,0.417-0.24,0.705-0.249
		c-0.381,0.413-0.794,0.802-1.137,1.244c-2.573,3.321-2.789,6.916-1.154,10.686c1.082,2.497,2.794,4.596,4.395,6.762
		c1.66,2.246,3.444,4.379,5.661,6.11c0.413,0.322,0.86,0.588,1.311,0.852c1.216,0.712,2.416,0.514,3.588-0.063
		c0.759-0.373,1.187-1.014,1.266-1.889c0.292-3.272,0.704-6.529,1.345-9.755c0.154-0.777,0.391-1.523,0.727-2.251
		c0.478-1.031,0.599-2.117-0.699-3.079c-1.867-1.381-3.394-3.096-4.341-5.265c-0.4-0.92-0.559-1.872-0.457-2.865
		c0.159-0.047,0.193,0.055,0.229,0.148c1.143,3.082,2.915,5.665,5.73,7.477c0.896,0.577,1.479,1.472,1.827,2.488
		c0.291,0.845,0.184,1.646-0.347,2.383c-2.16,3-2.75,6.357-2.243,9.956c0.087,0.619,0.158,1.241,0.306,1.855
		c0.183,0.751-0.269,1.399-1.16,1.671c-1.378,0.421-2.715,0.949-4.067,1.438c-1.022,0.367-1.95,0.06-2.562-0.837
		c-0.866-1.273-1.286-1.722-1.938-2.039c-0.145,0.947-0.516,1.771-1.186,2.471c-1.147,1.198-2.609,1.665-4.184,1.84
		c-3.257,0.359-6.406-0.247-9.531-1.1c-4.903-1.338-9.599-3.167-13.952-5.814c-1.31-0.796-2.61-1.614-3.772-2.628
		c0.167-0.327,0.457-0.408,0.793-0.397c1.254,0.749,2.532,1.451,3.854,2.076c2.289,1.083,4.665,1.936,7.065,2.722
		c4.063,1.33,8.223,2.255,12.456,2.83c1.58,0.215,3.172,0.232,4.734-0.213c1.555-0.442,2.095-1.49,1.569-2.932
		c-0.219-0.597-0.542-1.129-0.878-1.657c-0.748-1.172-1.824-2.067-2.682-3.148c-1.974-2.486-3.722-5.089-4.704-8.152
		c-0.31-0.965-0.382-1.968-0.707-2.943c-0.542-1.622-2.537-2.299-3.854-2.09c-3.092,0.488-6.171,0.512-9.248-0.179
		c-3.081-0.69-5.83-2.031-8.239-4.064c-1.587-1.338-2.854-2.96-4.061-4.639c-0.666-0.926-1.101-1.981-1.752-2.911
		c-0.677-1.588-1.448-3.137-2.007-4.776c-0.82-2.409-1.475-4.857-1.852-7.376c0.07-0.001,0.141-0.003,0.211-0.005
		c0.587,2.326,1.234,4.632,2.431,6.738c0.403,0.709,0.887,1.364,1.487,1.924c0.099,0.093,0.205,0.259,0.365,0.174
		c0.163-0.086,0.05-0.259,0.043-0.393c-0.186-4.344,0.735-8.404,3.11-12.088c0.148-0.012,0.296-0.024,0.376,0.143
		c-0.777,1.845-1.483,3.712-1.837,5.696c-0.375,2.105-0.426,4.198,0.172,6.275c0.022,0.079,0.045,0.16,0.081,0.234
		c0.015,0.032,0.061,0.051,0.102,0.082c1.719-4.296,3.645-8.469,6.84-11.918c-1.953,3.356-3.839,6.737-4.852,10.522
		c-0.049,0.194-0.098,0.388-0.147,0.581c-0.013,0.038-0.038,0.061-0.076,0.07c-0.113,0.028-0.128,0.079-0.035,0.154
		c-0.117,0.657-0.268,1.31-0.346,1.971c-0.237,1.986-0.17,3.938,0.757,5.773c0.594,1.179,1.511,2.092,2.527,2.89
		c0.515,0.403,1.119,0.721,1.832,0.98c-0.587-2.557-0.061-4.823,1.123-6.976c0.423-0.021,0.423-0.268,0.306-0.577
		c0.036-0.072,0.091-0.097,0.168-0.075c0.017,0.06,0.04,0.063,0.065,0.007c0.001-0.002-0.029-0.02-0.045-0.029
		c0-0.056-0.001-0.111-0.002-0.167c0.119-0.069,0.143-0.182,0.14-0.306c0.054-0.082,0.107-0.164,0.161-0.245
		c0.029-0.044,0.057-0.089,0.085-0.133c1.254-2.021,2.827-3.762,4.626-5.308c0.05,0.034,0.098,0.066,0.147,0.101
		c-0.724,0.994-1.492,1.96-2.164,2.989c-1.711,2.616-3.172,5.328-2.836,8.623c0.031,0.512-0.224,1.124,0.489,1.397l0-0.003
		c0.012,0.223-0.061,0.494,0.301,0.51c0.78,0.98,1.781,1.652,2.897,2.209c1.86,0.929,3.709,0.862,5.712,0.097
		c-0.996-0.212-1.792-0.614-2.51-1.173c-0.567-0.441-0.557-0.582,0.088-0.868c1.334-0.587,2.671-1.172,4.197-1.424
		c-0.927-1.138-1.443-2.432-1.939-3.737c0.062-0.385,0.095-0.766-0.087-1.13c-0.004-0.095-0.008-0.19-0.011-0.284
		c0.053-0.637,0.049-1.276,0.09-1.914c0.053-0.823,0.499-1.526,0.564-2.328c0.037-0.467,0.41-0.73,0.645-1.152
		c0.039,0.129,0.078,0.188,0.068,0.237c-0.312,1.563-0.443,3.129-0.228,4.723c0.208,1.541,0.707,2.942,2.011,3.868
		c1.685,1.198,3.603,0.983,5.496,0.686c0.668-0.105,1.245-0.436,1.735-0.931c0.866-0.869,1.728-1.74,2.767-2.421
		c0.33-0.215,0.726-0.3,1.008-0.609c1.436-1.554,2.734-3.194,3.394-5.248c0.435-1.351,0.503-2.676-0.123-4.012
		c-0.636-1.356-1.805-2.144-2.954-2.969c-0.04-0.092-0.08-0.185-0.121-0.277c0.131,0.014,0.263,0.027,0.394,0.042
		c0.026,0.006,0.051,0.009,0.078,0.008c0.095,0.113,0.191,0.233,0.353,0.238c0.721,0.025,1.303,0.399,1.883,0.766
		c1.267,0.8,2.291,1.807,2.701,3.308c0.192,0.701,0.263,0.722,0.819,0.214c1.194-1.093,2.563-1.914,4.059-2.524
		c2.092-0.855,4.325-1.39,6.189-2.756l-0.007-0.007c0.007,0.834-0.45,1.448-1.028,1.947c-1.588,1.369-2.99,2.855-3.537,4.957
		c-0.093,0.359-0.254,0.815,0.025,1.073c0.303,0.282,0.579-0.173,0.874-0.284c0.039-0.015,0.076-0.035,0.113-0.056
		c2.809-1.544,5.43-3.338,7.594-5.736c0.539-0.446,0.949-0.991,1.247-1.623c0.082-0.094,0.165-0.187,0.247-0.282
		c0.307-0.356,0.353-0.586-0.232-0.676c-0.375-0.058-0.752-0.031-1.122-0.09c-2.063-0.326-4.142-0.455-6.222-0.595
		c-2.542-0.172-5.087-0.298-7.639-0.269c-0.083,0.001-0.166-0.006-0.249-0.015c-2.15-0.226-4.297-0.024-6.444,0.078
		c-1.667,0.079-3.318,0.322-4.968,0.573c-1.534,0.234-3.074,0.438-4.571,0.872c-0.983,0.013-1.915,0.316-2.857,0.534
		c-0.552,0.128-1.172,0.037-1.65,0.445c-0.181,0.049-0.359,0.11-0.543,0.145c-2.16,0.404-4.221,1.125-6.26,1.923
		c-2.646,1.035-5.173,2.309-7.613,3.76c-0.211-0.029-0.477-0.142-0.417,0.262c-0.075,0.047-0.15,0.094-0.225,0.142
		c-0.171-0.024-0.343-0.048-0.515-0.071c2.174-1.916,4.624-3.419,7.185-4.744c5.556-2.875,11.471-4.626,17.62-5.682
		c5.261-0.903,10.555-1.226,15.88-1.043c3.894,0.134,7.759,0.545,11.586,1.298c0.309,0.061,0.612,0.189,0.716-0.342
		c0.562-2.868-0.58-7.016-3.901-8.574c-1.656-0.777-3.393-0.99-5.194-0.814c-1.107,0.108-2.188,0.331-3.253,0.651
		c-0.159,0.048-0.339,0.032-0.513-0.004c2.573-1.108,5.229-1.763,8.034-1.293c3.476,0.582,5.637,2.774,7.026,5.886
		c0.584,1.311,0.582,2.682,0.544,4.064c-0.009,0.353-0.061,0.705-0.09,1.041c0.149,0.096,0.212,0.008,0.282-0.07
		c2.412-2.67,4.521-5.541,5.808-8.937c0.967-2.551,1.323-5.143,0.247-7.763c-1.836-4.471-6.28-7.447-11.112-7.458
		c-0.686-0.002-1.369-0.001-2.203-0.001c4.465-1.294,10.188-0.455,14.05,4.743c0.33-3.084-0.713-5.662-2.215-8.117
		c0.204-0.036,0.424-0.044,0.493-0.3c0.259,0.357,0.518,0.715,0.776,1.072c-0.06,0.193,0.01,0.304,0.21,0.333
		c1.476,2.266,2.259,4.773,2.633,7.433c0.885,6.284-1.224,11.727-4.69,16.788c-0.59,0.86-1.233,1.688-1.896,2.493
		c-0.298,0.361-0.285,0.451,0.175,0.582c3.964,1.134,7.788,2.625,11.397,4.633c2.547,1.417,4.95,3.036,7.07,5.051
		c0.014,0.17,0.18,0.435-0.217,0.348c-0.981-0.719-1.983-1.409-3.024-2.04c-0.159-0.097-0.31-0.214-0.506-0.222
		c-0.83-0.678-1.814-1.069-2.774-1.506c-1.988-1-4.071-1.773-6.162-2.522c-2.498-0.982-5.126-1.448-7.743-1.958
		c-0.142-0.027-0.315-0.052-0.419,0.069c-0.563,0.664-1.299,1.167-1.791,1.897c-0.856,0.717-1.735,1.411-2.567,2.156
		c-0.983,0.879-2.076,1.595-3.195,2.278c-0.798,0.486-1.527,1.063-2.274,1.616c-0.892,0.609-1.69,1.311-2.275,2.231l-0.012,0.013
		c-0.485,0.333-0.693,0.855-0.882,1.372C79.356,47.866,79.606,48.748,80.321,49.244z M71.466,57.188
		c-0.861,1.267-1.283,4.683-0.812,6.343C72.776,62.464,73.168,59.517,71.466,57.188z"/>
	<path fill-rule="evenodd" clip-rule="evenodd" fill="#F7E503" d="M31.952,47.165c0.651,0.929,1.086,1.984,1.752,2.911
		c1.208,1.679,2.474,3.301,4.061,4.639c2.41,2.033,5.159,3.374,8.239,4.064c3.076,0.69,6.156,0.667,9.248,0.179
		c1.317-0.209,3.312,0.468,3.854,2.09c0.325,0.975,0.397,1.978,0.707,2.943c0.981,3.063,2.73,5.666,4.704,8.152
		c0.858,1.081,1.934,1.977,2.682,3.148c0.336,0.528,0.66,1.06,0.878,1.657c0.526,1.441-0.014,2.489-1.569,2.932
		c-1.562,0.445-3.155,0.428-4.734,0.213c-4.233-0.575-8.394-1.5-12.456-2.83c-2.4-0.786-4.776-1.639-7.065-2.722
		c-1.322-0.625-2.6-1.327-3.854-2.076c-0.033-0.051-0.056-0.121-0.103-0.151c-1.331-0.858-2.653-1.727-3.852-2.769
		c-0.138-0.121-0.305-0.121-0.474-0.117c-0.584-0.546-1.003-1.234-1.521-1.82c-0.333-0.375-0.756-0.737-1.154-1.087
		c-0.807-0.708-1.134-1.737-1.742-2.581c-0.494-0.687-0.721-1.55-1.105-2.281c-1.085-2.061-0.928-4.218-0.849-6.38
		c0.032-0.877,0.345-1.739,0.676-2.562c0.267-0.665,0.353-1.398,0.73-2.017c0.566-0.924,1.141-1.84,1.843-2.676
		C31.167,47.643,31.424,47.248,31.952,47.165z"/>
	<path fill-rule="evenodd" clip-rule="evenodd" fill="#090A0A" d="M63.664,91.182c-0.207,0.521-0.122,0.966-0.185,1.392
		c-0.032,0.224,0,0.397-0.332,0.33c-0.263-0.054-0.465-0.024-0.403-0.427c0.101-0.656,0.103-1.33,0.174-1.992
		c0.016-0.146-0.126-0.478,0.169-0.418c0.302,0.059,0.672-0.208,0.925,0.22c0.291,0.493,0.664,0.939,1.077,1.513
		c0.065-0.513,0.154-0.894,0.151-1.274c-0.001-0.34,0.165-0.32,0.386-0.273c0.186,0.04,0.407-0.016,0.347,0.352
		c-0.109,0.657-0.117,1.327-0.2,1.989c-0.021,0.167,0.175,0.479-0.164,0.494c-0.243,0.011-0.516,0.109-0.724-0.266
		C64.572,92.25,64.108,91.764,63.664,91.182z"/>
	<path fill-rule="evenodd" clip-rule="evenodd" fill="#090A0A" d="M88.258,92.246c-0.488,0.083-0.891,0.283-1.167-0.266
		c-0.088-0.174-0.288-0.295-0.437-0.439c-0.143-0.143-0.315-0.101-0.47-0.054c-0.188,0.059-0.162,0.23-0.107,0.367
		c0.265,0.665-0.106,0.8-0.705,0.8c-0.122-0.866-0.237-1.743-0.378-2.615c-0.028-0.172,0.004-0.205,0.155-0.224
		c0.621-0.076,1.239-0.176,1.86-0.24c0.418-0.043,0.8,0.058,0.964,0.507c0.151,0.41,0.102,0.793-0.294,1.046
		c-0.229,0.145-0.216,0.249-0.035,0.423C87.837,91.736,88.002,91.951,88.258,92.246z M86.22,90.87
		c0.283-0.137,0.813,0.124,0.967-0.394c0.067-0.227-0.194-0.324-0.387-0.261c-0.308,0.105-0.791-0.162-0.897,0.377
		C85.872,90.736,85.886,90.959,86.22,90.87z"/>
	<path fill-rule="evenodd" clip-rule="evenodd" fill="#090A0A" d="M54.629,89.371c-0.548-0.123-0.953-0.222-1.363-0.303
		c-0.117-0.024-0.289-0.129-0.322,0.133c-0.026,0.202,0.067,0.245,0.23,0.277c0.205,0.041,0.402,0.132,0.607,0.147
		c0.291,0.025,0.323,0.128,0.25,0.399c-0.078,0.282-0.193,0.276-0.416,0.188c-0.171-0.07-0.36-0.11-0.545-0.129
		c-0.14-0.015-0.347-0.13-0.373,0.162c-0.017,0.206,0.055,0.288,0.269,0.324c0.39,0.066,0.77,0.205,1.161,0.255
		c0.253,0.033,0.399,0.061,0.313,0.361c-0.071,0.245-0.082,0.437-0.472,0.303c-0.607-0.209-1.256-0.295-1.887-0.434
		c-0.267-0.058-0.426-0.101-0.3-0.481c0.221-0.67,0.354-1.373,0.473-2.069c0.051-0.298,0.146-0.325,0.404-0.259
		c0.645,0.164,1.296,0.299,1.944,0.454c0.15,0.036,0.436-0.058,0.342,0.277C54.882,89.202,54.839,89.47,54.629,89.371z"/>
	<path fill-rule="evenodd" clip-rule="evenodd" fill="#090A0A" d="M42.281,85.16c0.76,0.01,1.328,0.291,1.865,0.675
		c0.179,0.128,0.343,0.243,0.074,0.393c-0.175,0.098-0.264,0.551-0.61,0.174c-0.305-0.334-0.712-0.492-1.175-0.482
		c-0.297,0.006-0.535,0.111-0.639,0.407c-0.108,0.308-0.033,0.569,0.216,0.79c0.354,0.312,0.789,0.408,1.224,0.362
		c0.553-0.058,0.325,0.393,0.382,0.582c0.097,0.321-0.215,0.206-0.371,0.192c-0.651-0.059-1.283-0.192-1.796-0.638
		c-0.533-0.461-0.681-1.011-0.436-1.627C41.259,85.383,41.763,85.191,42.281,85.16z"/>
	<path fill-rule="evenodd" clip-rule="evenodd" fill="#090A0A" d="M96.364,90.554c0.102-0.845,0.216-1.687,0.296-2.532
		c0.024-0.252,0.027-0.492,0.348-0.449c0.33,0.042,0.67-0.47,1.003,0.094c0.367,0.626,0.846,1.186,1.269,1.78
		c0.094,0.132,0.385,0.344,0.141,0.424c-0.219,0.072-0.593,0.441-0.803,0.003c-0.243-0.51-0.581-0.249-0.897-0.177
		c-0.288,0.065-0.636,0.05-0.619,0.525C97.119,90.744,96.627,90.441,96.364,90.554z M97.368,88.084
		c-0.13,0.478-0.289,0.896-0.087,1.202c0.108,0.164,0.506-0.099,0.855-0.156C97.868,88.766,97.647,88.465,97.368,88.084z"/>
	<path fill-rule="evenodd" clip-rule="evenodd" fill="#090A0A" d="M75.543,90.422c0.335,0,0.67,0.022,1.003-0.007
		c0.313-0.027,0.496-0.009,0.497,0.394c0,0.432-0.277,0.287-0.462,0.263c-0.509-0.068-0.728,0.089-0.643,0.633
		c0.053,0.349,0.01,0.711,0.025,1.067c0.014,0.294,0.09,0.541-0.4,0.538c-0.469-0.004-0.447-0.213-0.424-0.532
		c0.019-0.25-0.024-0.504-0.004-0.754c0.049-0.611-0.007-1.097-0.834-0.917c-0.348,0.075-0.266-0.215-0.298-0.405
		c-0.04-0.246,0.077-0.271,0.284-0.261c0.417,0.018,0.837,0.005,1.255,0.005C75.543,90.438,75.543,90.43,75.543,90.422z"/>
	<path fill-rule="evenodd" clip-rule="evenodd" fill="#090A0A" d="M107.389,84.55c0.16-0.043,0.206,0.035,0.244,0.186
		c0.069,0.281,0.169,0.558,0.268,0.831c0.362,1.003,0.363,1.003,1.404,0.641c0.177-0.062,0.37-0.098,0.528-0.191
		c0.232-0.141,0.36-0.125,0.422,0.159c0.043,0.201,0.219,0.376-0.169,0.478c-0.702,0.186-1.392,0.429-2.064,0.703
		c-0.32,0.131-0.392-0.003-0.471-0.243c-0.201-0.611-0.351-1.248-0.631-1.822C106.63,84.695,107.066,84.689,107.389,84.55z"/>
	<path fill-rule="evenodd" clip-rule="evenodd" fill="#2C2F2E" d="M33.97,69.427c0.169-0.004,0.336-0.004,0.474,0.117
		c1.199,1.042,2.521,1.911,3.852,2.769c0.047,0.031,0.07,0.101,0.103,0.151c-0.336-0.011-0.626,0.07-0.793,0.397
		C36.288,71.83,35.02,70.744,33.97,69.427z"/>
	<path fill-rule="evenodd" clip-rule="evenodd" fill="#2C2F2E" d="M113.327,43.541c0.396,0.086,0.23-0.178,0.217-0.348
		c0.574,0.475,1.153,0.946,1.542,1.6c-0.41,0.065-0.81,0.003-0.956-0.42C113.982,43.945,113.468,43.935,113.327,43.541z"/>
	<path fill-rule="evenodd" clip-rule="evenodd" fill="#2C2F2E" d="M36.117,31.506c-0.081-0.167-0.229-0.155-0.376-0.143
		c0.281-0.516,0.606-0.998,1.164-1.328C36.643,30.526,36.38,31.016,36.117,31.506z"/>
	<path fill-rule="evenodd" clip-rule="evenodd" fill="#2C2F2E" d="M28.304,35.007c-0.07,0.001-0.141,0.003-0.211,0.005
		c-0.096-0.48-0.212-0.958-0.054-1.47C28.127,34.031,28.216,34.519,28.304,35.007z"/>
	<path fill-rule="evenodd" clip-rule="evenodd" fill="#2C2F2E" d="M36.475,42.977c0.05-0.193,0.099-0.387,0.147-0.581
		c0.086-0.043,0.171-0.086,0.255-0.129c0.172,0.023,0.343,0.047,0.515,0.071C37.087,42.551,36.782,42.765,36.475,42.977z"/>
	<path fill-rule="evenodd" clip-rule="evenodd" fill="#2C2F2E" d="M115.794,45.542c-0.258-0.234-0.844-0.158-0.716-0.757
		C115.377,44.981,115.63,45.218,115.794,45.542z"/>
	<path fill-rule="evenodd" clip-rule="evenodd" fill="#2C2F2E" d="M98.854,6.212c-0.2-0.028-0.27-0.14-0.21-0.333
		C98.772,5.954,98.858,6.055,98.854,6.212z"/>
	<path fill-rule="evenodd" clip-rule="evenodd" fill="#3A6053" d="M90.907,37.258c0.492-0.73,1.229-1.233,1.791-1.897
		c0.104-0.122,0.277-0.097,0.419-0.069c2.617,0.51,5.245,0.976,7.743,1.958c-0.97,0.174-1.768-0.43-2.663-0.592
		c-0.547-0.098-1.075-0.342-1.621-0.378c-0.61-0.04-1.154-0.217-1.696-0.453c-0.68-0.295-2.111,0-2.661,0.491
		C91.817,36.673,91.598,37.302,90.907,37.258z"/>
	<path fill-rule="evenodd" clip-rule="evenodd" fill="#3A6053" d="M80.321,49.244c-0.715-0.496-0.965-1.378-0.62-2.32
		c0.188-0.517,0.396-1.039,0.882-1.372c0.098,0.617-0.354,1.079-0.558,1.577c-0.272,0.67-0.103,1.145,0.177,1.664
		C80.285,48.948,80.37,49.07,80.321,49.244z"/>
	<path fill-rule="evenodd" clip-rule="evenodd" fill="#3A6053" d="M98.684,68.372c-0.576-0.932-1.018-1.932-1.479-2.923
		c0.144-0.008,0.357-0.067,0.406,0.062C97.969,66.464,98.788,67.246,98.684,68.372z"/>
	<path fill-rule="evenodd" clip-rule="evenodd" fill="#3A6053" d="M107.022,39.772c0.96,0.437,1.944,0.828,2.774,1.506
		c-0.742,0.162-1.143-0.547-1.769-0.7c-0.261-0.063-0.443-0.323-0.774-0.32C106.979,40.262,107.076,39.951,107.022,39.772z"/>
	<path fill-rule="evenodd" clip-rule="evenodd" fill="#3A6053" d="M80.595,45.54c0.585-0.92,1.384-1.623,2.275-2.231
		c-0.025,0.172,0.058,0.37-0.174,0.479c-0.624,0.291-0.984,0.842-1.384,1.368C81.163,45.352,80.839,45.416,80.595,45.54z"/>
	<path fill-rule="evenodd" clip-rule="evenodd" fill="#3A6053" d="M98.956,69.195c-0.204-0.207-0.244-0.469-0.263-0.74
		C99.176,68.563,98.882,68.943,98.956,69.195z"/>
	<path fill-rule="evenodd" clip-rule="evenodd" fill="#017A5A" d="M52.047,48.313c0.002,0.094,0.006,0.189,0.011,0.284
		c-0.542-0.166-0.928-0.444-0.844-1.098c0.039-0.297-0.016-0.574-0.27-0.785c-0.34-0.285-0.32-0.646-0.182-1.02
		c0.039-0.106,0.207-0.269,0.056-0.309c-0.641-0.17-0.349-0.669-0.376-1.028c-0.077-0.934,0.11-1.854,0.249-2.773
		c0.019-0.128,0.084-0.225,0.142-0.334c0.451-0.861,0.74-1.772,0.823-2.745l0.01-0.019c0.592,0.117,0.697-0.275,0.776-0.721
		c0.088-0.499,0.241-0.941,0.654-1.319c0.606-0.552,1.326-0.659,2.061-0.678c1.042-0.029,1.911-0.729,2.969-0.673
		c-0.398-0.012-0.78,0.071-1.168,0.033c1.497-0.434,3.037-0.638,4.571-0.872c1.649-0.251,3.301-0.494,4.968-0.573
		c2.147-0.102,4.293-0.304,6.444-0.078c0.083,0.009,0.166,0.016,0.249,0.015c2.552-0.029,5.097,0.096,7.639,0.269
		c2.08,0.141,4.159,0.27,6.222,0.595c0.37,0.059,0.747,0.032,1.122,0.09c0.585,0.09,0.539,0.32,0.232,0.676
		c-0.082,0.095-0.165,0.188-0.247,0.282c-0.571,0.421-1.153,0.834-1.247,1.623c-2.164,2.397-4.785,4.192-7.594,5.736
		c-0.037,0.021-0.074,0.041-0.113,0.056c-0.295,0.111-0.571,0.565-0.874,0.284c-0.279-0.257-0.118-0.713-0.025-1.073
		c0.547-2.102,1.949-3.588,3.537-4.957c0.578-0.499,1.035-1.113,1.028-1.947c0.014-0.015,0.025-0.031,0.037-0.046
		c-0.009,0.018-0.02,0.035-0.03,0.053c-1.864,1.367-4.098,1.901-6.189,2.756c-1.495,0.61-2.864,1.431-4.059,2.524
		c-0.557,0.508-0.627,0.487-0.819-0.214c-0.41-1.5-1.435-2.507-2.701-3.308c-0.58-0.366-1.162-0.741-1.883-0.766
		c-0.161-0.005-0.257-0.125-0.353-0.238c-0.016-0.078-0.044-0.066-0.078-0.008c-0.131-0.015-0.263-0.028-0.394-0.042
		c-0.153-0.315-0.351-0.223-0.646-0.079c0.29,0.177,0.45,0.42,0.767,0.356c1.149,0.826,2.318,1.613,2.954,2.969
		c0.626,1.335,0.558,2.661,0.123,4.012c-0.659,2.054-1.958,3.694-3.394,5.248c-0.283,0.309-0.678,0.394-1.008,0.609
		c-1.039,0.681-1.901,1.553-2.767,2.421c-0.491,0.495-1.067,0.826-1.735,0.931c-1.893,0.297-3.811,0.512-5.496-0.686
		c-1.305-0.926-1.804-2.328-2.011-3.868c-0.216-1.593-0.084-3.16,0.228-4.723c0.01-0.049-0.029-0.107-0.068-0.237
		c-0.234,0.422-0.607,0.685-0.645,1.151c-0.515,0.242-0.751,0.652-0.75,1.216c0.001,0.31,0.071,0.66-0.047,0.922
		C51.572,46.954,51.654,47.634,52.047,48.313z M59.003,34.883c0.276,0.174,0.439,0.081,0.729-0.103
		C59.404,34.761,59.21,34.703,59.003,34.883z"/>
	<path fill-rule="evenodd" clip-rule="evenodd" fill="#F7E503" d="M36.475,42.977c0.307-0.212,0.612-0.426,0.918-0.64
		c0.074-0.047,0.149-0.094,0.224-0.141c0.182-0.019,0.306-0.131,0.417-0.262c2.44-1.451,4.967-2.725,7.613-3.76
		c2.04-0.798,4.1-1.519,6.26-1.923c0.184-0.034,0.362-0.096,0.543-0.145c0.416,0.053,0.23,0.267,0.127,0.464
		c-0.326,0.627-0.748,1.21-0.912,1.916l-0.01,0.019c-0.056,0.022-0.145,0.031-0.162,0.07c-0.896,2.088-1.541,4.242-1.296,6.539
		c0.182,1.712,0.712,3.323,1.947,4.614c0.496,1.305,1.012,2.599,1.939,3.737c-1.526,0.252-2.863,0.837-4.197,1.424
		c-0.645,0.286-0.656,0.426-0.088,0.868c0.717,0.559,1.514,0.961,2.51,1.173c-2.003,0.766-3.852,0.833-5.712-0.097
		c-1.117-0.558-2.118-1.229-2.897-2.209c-0.038-0.207-0.138-0.377-0.301-0.51l0,0.003c-0.163-0.467-0.326-0.932-0.489-1.397
		c-0.336-3.295,1.125-6.007,2.836-8.623c0.672-1.029,1.44-1.995,2.164-2.989c0.032-0.041,0.066-0.081,0.098-0.122
		c0.043-0.044,0.084-0.088,0.126-0.132c0.004-0.05,0.031-0.125,0.008-0.146c-0.051-0.047-0.098-0.006-0.122,0.054
		c-0.042,0.042-0.084,0.084-0.126,0.126c-0.044,0.041-0.088,0.08-0.131,0.12c-1.799,1.545-3.373,3.287-4.626,5.308
		c-0.064,0.021-0.112,0.052-0.085,0.133c-0.054,0.082-0.107,0.164-0.161,0.245c-0.1,0.078-0.188,0.16-0.14,0.306
		c0,0.056,0.001,0.111,0.003,0.167c0,0-0.021,0.022-0.021,0.022c-0.077-0.022-0.133,0.003-0.168,0.075
		c-0.179,0.151-0.286,0.341-0.307,0.577c-1.184,2.153-1.71,4.419-1.123,6.976c-0.713-0.259-1.317-0.577-1.832-0.98
		c-1.017-0.798-1.933-1.711-2.527-2.89c-0.927-1.835-0.994-3.788-0.757-5.773c0.078-0.661,0.229-1.314,0.346-1.971
		c0.012-0.052,0.023-0.103,0.035-0.154C36.437,43.038,36.462,43.015,36.475,42.977z"/>
	<path fill-rule="evenodd" clip-rule="evenodd" fill="#F7E503" d="M71.466,57.188c1.702,2.329,1.311,5.276-0.812,6.343
		C70.183,61.872,70.604,58.456,71.466,57.188z"/>
	<path fill-rule="evenodd" clip-rule="evenodd" fill="#3A6053" d="M52.145,49.728c-1.235-1.291-1.765-2.901-1.947-4.614
		c-0.244-2.297,0.401-4.451,1.296-6.539c0.018-0.039,0.106-0.047,0.162-0.07c-0.083,0.972-0.373,1.884-0.823,2.745
		c-0.058,0.11-0.123,0.207-0.142,0.334c-0.139,0.92-0.326,1.839-0.249,2.773c0.028,0.358-0.264,0.857,0.376,1.028
		c0.15,0.04-0.017,0.203-0.056,0.309c-0.138,0.374-0.158,0.735,0.182,1.02c0.253,0.211,0.309,0.488,0.27,0.785
		c-0.084,0.654,0.302,0.932,0.844,1.098C52.24,48.962,52.206,49.343,52.145,49.728z"/>
	<path fill-rule="evenodd" clip-rule="evenodd" fill="#3A6053" d="M51.666,38.487c0.164-0.706,0.586-1.288,0.912-1.916
		c0.103-0.198,0.288-0.412-0.127-0.464c0.479-0.408,1.098-0.316,1.65-0.445c0.943-0.218,1.875-0.521,2.857-0.534
		c0.388,0.038,0.77-0.045,1.168-0.033c-1.058-0.055-1.927,0.645-2.969,0.673c-0.735,0.02-1.455,0.126-2.061,0.678
		c-0.413,0.378-0.566,0.82-0.654,1.319C52.363,38.211,52.258,38.604,51.666,38.487z"/>
	<path fill-rule="evenodd" clip-rule="evenodd" fill="#3A6053" d="M52.047,48.313c-0.393-0.679-0.475-1.359-0.143-2.105
		c0.118-0.262,0.048-0.613,0.047-0.922c-0.001-0.564,0.234-0.974,0.75-1.216c-0.066,0.803-0.511,1.506-0.564,2.329
		C52.096,47.037,52.1,47.677,52.047,48.313z"/>
	<path fill-rule="evenodd" clip-rule="evenodd" fill="#3A6053" d="M86.91,37.155c0.094-0.789,0.676-1.202,1.247-1.623
		C87.859,36.165,87.449,36.709,86.91,37.155z"/>
	<path fill-rule="evenodd" clip-rule="evenodd" fill="#2C2F2E" d="M42.91,52.719c0.163,0.465,0.326,0.931,0.489,1.397
		C42.686,53.843,42.94,53.231,42.91,52.719z"/>
	<path fill-rule="evenodd" clip-rule="evenodd" fill="#2C2F2E" d="M66.521,36.243c-0.316,0.064-0.477-0.179-0.767-0.356
		c0.295-0.144,0.493-0.236,0.646,0.079C66.44,36.058,66.48,36.15,66.521,36.243z"/>
	<path fill-rule="evenodd" clip-rule="evenodd" fill="#2C2F2E" d="M42.256,47.839c0.021-0.236,0.128-0.426,0.307-0.577
		C42.679,47.571,42.679,47.817,42.256,47.839z"/>
	<path fill-rule="evenodd" clip-rule="evenodd" fill="#2C2F2E" d="M43.398,54.114c0.163,0.133,0.263,0.303,0.301,0.51
		C43.337,54.607,43.41,54.336,43.398,54.114z"/>
	<path fill-rule="evenodd" clip-rule="evenodd" fill="#2C2F2E" d="M38.034,41.934c-0.111,0.131-0.234,0.243-0.417,0.262
		C37.557,41.792,37.822,41.905,38.034,41.934z"/>
	<path fill-rule="evenodd" clip-rule="evenodd" fill="#2C2F2E" d="M42.75,46.998c-0.047-0.146,0.04-0.228,0.14-0.306
		C42.893,46.816,42.868,46.929,42.75,46.998z"/>
	<path fill-rule="evenodd" clip-rule="evenodd" fill="#2C2F2E" d="M42.731,47.187c0,0,0.021-0.021,0.021-0.022
		c0.015,0.009,0.045,0.026,0.044,0.029C42.771,47.25,42.748,47.247,42.731,47.187z"/>
	<path fill-rule="evenodd" clip-rule="evenodd" fill="#2C2F2E" d="M43.051,46.447c-0.027-0.081,0.021-0.111,0.085-0.133
		C43.107,46.358,43.08,46.403,43.051,46.447z"/>
	<path fill-rule="evenodd" clip-rule="evenodd" fill="#2C2F2E" d="M36.399,43.047c-0.012,0.052-0.023,0.103-0.035,0.154
		C36.271,43.126,36.286,43.075,36.399,43.047z"/>
	<path fill-rule="evenodd" clip-rule="evenodd" fill="#2C2F2E" d="M66.794,36.008c0.034-0.058,0.062-0.07,0.078,0.008
		C66.845,36.017,66.82,36.014,66.794,36.008z"/>
	<path fill-rule="evenodd" clip-rule="evenodd" fill="#3A6053" d="M59.003,34.883c0.208-0.18,0.401-0.122,0.729-0.103
		C59.442,34.964,59.279,35.057,59.003,34.883z"/>
	<path fill-rule="evenodd" clip-rule="evenodd" fill="#090A0A" d="M82.876,35.261c0.011-0.018,0.021-0.035,0.03-0.053
		c-0.012,0.015-0.023,0.031-0.037,0.046L82.876,35.261z"/>
	<path fill-rule="evenodd" clip-rule="evenodd" fill="#090A0A" d="M47.763,41.007c0.043-0.04,0.087-0.08,0.131-0.12
		c0.038,0.033,0.077,0.066,0.114,0.099c-0.032,0.041-0.066,0.081-0.098,0.122C47.861,41.073,47.813,41.041,47.763,41.007z"/>
	<path fill-rule="evenodd" clip-rule="evenodd" fill="#090A0A" d="M47.894,40.887c0.042-0.042,0.084-0.084,0.126-0.126
		c0.038,0.03,0.077,0.062,0.114,0.092c-0.042,0.044-0.083,0.088-0.126,0.132C47.971,40.953,47.932,40.919,47.894,40.887z"/>
	<path fill-rule="evenodd" clip-rule="evenodd" fill="#090A0A" d="M48.02,40.761c0.024-0.06,0.071-0.101,0.122-0.054
		c0.023,0.021-0.004,0.096-0.008,0.146C48.097,40.822,48.058,40.791,48.02,40.761z"/>
	<g>
		<g>
			<linearGradient id="SVGID_16_" gradientUnits="userSpaceOnUse" x1="45.8833" y1="103.9355" x2="45.8833" y2="137.7175">
				<stop  offset="0.0108" style="stop-color:#062E00"/>
				<stop  offset="1" style="stop-color:#246308"/>
			</linearGradient>
			<path fill="url(#SVGID_16_)" d="M50.702,113.885c0,0.183-0.102,0.291-0.304,0.263c-0.152-0.021-0.254-0.221-0.304-0.477
				c-0.813-4.969-3.229-13.985-5.461-15.354c-1.212-0.653-1.303,0.797-1.305,2.669c0.012,3.336,0.592,7.872,4.255,18.474
				c3.499,9.5,3.943,10.83,3.933,15.714c-0.004,6.25-2.804,9.512-4.627,10.599c-1.336,0.748-2.16,0.496-2.742,0.268
				c-0.532-0.18-0.819-0.228-0.963-0.141c-0.191,0.12-0.578,0.831-1.525,2.582c-0.189,0.352-0.378,0.784-0.566,0.916
				c-0.188,0.133-0.235,0.014-0.235-0.216c0-6.407,0-12.814,0-19.223c0-0.229,0.047-0.543,0.235-0.582
				c0.141-0.028,0.235,0.253,0.283,0.468c0.853,5.967,2.308,14.359,5.217,12.762c0.938-0.464,1.439-2.04,1.438-4.034
				c0.005-4.38-1.515-8.303-4.271-16.689c-2.598-8.115-3.505-14.69-3.511-20.286c0.001-7.459,1.902-8.323,4.382-6.763
				c0.923,0.568,2.007,1.932,2.753,3.087c0.248,0.323,0.548,0.664,0.747,0.761c0.2,0.097,0.701-0.113,1.153-0.46
				c0.453-0.284,0.758-0.444,1.062-0.299c0.253,0.12,0.355,0.473,0.355,0.84C50.702,103.803,50.702,108.844,50.702,113.885z"/>
			<linearGradient id="SVGID_17_" gradientUnits="userSpaceOnUse" x1="61.4404" y1="106.7383" x2="61.4404" y2="132.3329">
				<stop  offset="0.0108" style="stop-color:#062E00"/>
				<stop  offset="1" style="stop-color:#246308"/>
			</linearGradient>
			<path fill="url(#SVGID_17_)" d="M59.28,103.887c-0.654-0.173-1.306-0.354-1.955-0.547c-0.315-0.093-0.473,0.131-0.577,0.427
				c-0.91,3.342-1.813,6.833-2.711,10.51c-0.052,0.221-0.208,0.317-0.414,0.293c-0.208-0.025-0.259-0.147-0.259-0.438
				c0-4.878,0-9.756,0-14.635c0-0.115,0.104-0.188,0.259-0.125c5.046,2.065,10.297,3.458,15.62,4.179
				c0.163,0.021,0.272,0.13,0.272,0.222c0,3.906,0,7.813,0,11.72c0,0.231-0.055,0.322-0.272,0.313
				c-0.218-0.009-0.383-0.108-0.436-0.297c-0.944-3.132-1.885-6.342-2.824-9.663c-0.108-0.304-0.271-0.571-0.596-0.627
				c-0.667-0.115-1.332-0.24-1.996-0.374c0,10.348,0,20.696,0,31.044c0,0.591,0.054,1.024,0.43,1.293
				c0.539,0.367,1.079,0.731,1.62,1.094c0.161,0.114,0.378,0.217,0.378,0.361c0,0.143-0.054,0.297-0.324,0.35
				c-2.794,0.549-5.559,1.285-8.276,2.21c-0.263,0.091-0.316-0.054-0.316-0.216c0-0.164,0.211-0.397,0.369-0.61
				c0.526-0.692,1.053-1.365,1.583-2.019c0.371-0.469,0.424-0.949,0.424-1.575C59.28,125.813,59.28,114.851,59.28,103.887z"/>
			<linearGradient id="SVGID_18_" gradientUnits="userSpaceOnUse" x1="77.541" y1="110.166" x2="77.541" y2="131.1372">
				<stop  offset="0.0108" style="stop-color:#062E00"/>
				<stop  offset="1" style="stop-color:#246308"/>
			</linearGradient>
			<path fill="url(#SVGID_18_)" d="M79.213,130.3c-0.057-0.224-0.22-0.406-0.494-0.409c-1.354-0.01-2.708,0.004-4.061,0.039
				c-0.163,0.005-0.274,0.144-0.329,0.325c-0.274,1.663-0.548,3.332-0.822,5.007c-0.054,0.32,0.056,0.586,0.274,0.8
				c0.402,0.323,0.804,0.649,1.207,0.978c0.219,0.216,0.548,0.384,0.548,0.52c0,0.134-0.11,0.272-0.384,0.284
				c-2.103,0.088-4.202,0.28-6.29,0.575c-0.216,0.031-0.326-0.093-0.326-0.232c0-0.141,0.219-0.358,0.381-0.52
				c0.508-0.503,1.018-0.995,1.527-1.477c0.328-0.309,0.382-0.772,0.437-1.191c1.658-10.426,3.321-20.474,4.985-30.494
				c0.054-0.223,0.163-0.399,0.438-0.393c0.677,0.017,1.354,0.021,2.029,0.017c0.275-0.002,0.439,0.22,0.495,0.489
				c1.737,10.015,3.475,20.01,5.207,30.363c0.054,0.461,0.219,0.978,0.601,1.288c0.528,0.447,1.057,0.904,1.584,1.373
				c0.162,0.159,0.326,0.32,0.326,0.46s-0.109,0.264-0.381,0.228c-2.617-0.343-5.251-0.523-7.886-0.541
				c-0.275-0.002-0.385-0.137-0.385-0.271c0-0.136,0.221-0.27,0.385-0.402c0.493-0.401,0.987-0.797,1.48-1.188
				c0.222-0.174,0.331-0.485,0.275-0.892C79.762,133.453,79.487,131.875,79.213,130.3z M78.443,127.512
				c0.165,0,0.275-0.134,0.221-0.314c-0.641-3.669-1.281-7.328-1.921-10.998c-0.037,0-0.073,0-0.11-0.001
				c-0.604,3.679-1.208,7.363-1.811,11.068c-0.055,0.183,0.055,0.271,0.165,0.269C76.139,127.515,77.291,127.507,78.443,127.512z"/>
			<linearGradient id="SVGID_19_" gradientUnits="userSpaceOnUse" x1="94.9043" y1="107.4355" x2="94.9043" y2="133.023">
				<stop  offset="0.0108" style="stop-color:#062E00"/>
				<stop  offset="1" style="stop-color:#246308"/>
			</linearGradient>
			<path fill="url(#SVGID_19_)" d="M96.718,123.896c0-0.524-0.211-0.848-0.582-1.169c-0.495-0.43-0.992-0.849-1.49-1.26
				c-0.215-0.206-0.269-0.307-0.269-0.509s0.161-0.304,0.429-0.306c2.631-0.011,5.226-0.025,7.768-0.043
				c0.207-0.001,0.361,0.114,0.361,0.349s-0.104,0.351-0.259,0.583c-0.497,0.461-0.997,0.907-1.499,1.343
				c-0.363,0.27-0.519,0.654-0.519,1.214c0,5.871,0,11.741,0,17.612c0,0.168-0.104,0.24-0.262,0.182
				c-0.208-0.079-0.417-0.268-0.521-0.416c-0.522-0.687-1.047-1.354-1.573-2.001c-0.211-0.227-0.315-0.312-0.526-0.374
				c-0.158-0.048-0.316-0.041-0.528,0.057c-1.108,0.683-2.173,0.979-3.352,0.674c-6.716-1.718-7.036-11.942-7.021-19.805
				c-0.014-5.813,0.305-16.232,6.916-17.914c1.766-0.463,2.823-0.019,3.352,0.255c0.212,0.096,0.581,0.145,0.793,0.08
				c0.263-0.08,0.789-0.618,1.313-1.29c0.473-0.601,0.785-0.996,1.045-1.093c0.262-0.1,0.366,0.253,0.366,0.815
				c0,4.486,0,8.974,0,13.46c0,0.225-0.104,0.405-0.262,0.423c-0.208,0.022-0.364-0.183-0.469-0.503
				c-1.096-4.114-3.355-10.359-5.71-9.73c-2.247,0.541-2.901,5.248-2.9,15.503c-0.001,14.003,0.652,16.835,2.578,17.282
				c1.66,0.393,2.822-1.27,2.822-6.283C96.718,128.652,96.718,126.273,96.718,123.896z"/>
			<linearGradient id="SVGID_20_" gradientUnits="userSpaceOnUse" x1="109.7969" y1="102.3232" x2="109.7969" y2="135.8664">
				<stop  offset="0.0108" style="stop-color:#062E00"/>
				<stop  offset="1" style="stop-color:#246308"/>
			</linearGradient>
			<path fill="url(#SVGID_20_)" d="M114.68,112.141c0,0.229-0.092,0.4-0.281,0.439c-0.142,0.028-0.235-0.178-0.282-0.468
				c-0.752-6.094-3.044-13.936-5.326-12.658c-1.238,0.596-1.343,1.973-1.342,3.644c-0.012,3.329,0.682,5.553,4.278,16.233
				c3.362,10.621,3.692,14.047,3.704,19.982c0.007,8.337-2.574,8.898-4.384,7.768c-1.313-0.802-2.157-1.998-2.752-2.825
				c-0.547-0.737-0.847-1.068-0.997-1.143c-0.2-0.097-0.6,0.168-1.609,0.617c-0.203,0.09-0.405,0.238-0.608,0.143
				s-0.254-0.24-0.254-0.423c0-5.106,0-10.213,0-15.318c0-0.183,0.051-0.418,0.254-0.39c0.152,0.021,0.254,0.279,0.304,0.472
				c0.907,4.976,2.49,13.595,5.371,15.231c0.926,0.494,1.404-0.738,1.405-2.966c-0.005-4.753-1.428-10.801-4.264-18.678
				c-2.696-7.366-3.738-11.405-3.733-15.839c-0.002-5.634,2.104-8.375,4.627-9.818c0.941-0.523,2.017-0.412,2.741,0.013
				c0.242,0.071,0.532,0.115,0.725,0.003c0.192-0.113,0.673-0.901,1.102-1.841c0.428-0.866,0.711-1.439,0.994-1.636
				c0.236-0.166,0.328,0.149,0.328,0.607C114.68,99.574,114.68,105.857,114.68,112.141z"/>
		</g>
	</g>
</g>
</svg>
