<?xml version="1.0" encoding="utf-8"?>
<!-- Generator: Adobe Illustrator 16.0.0, SVG Export Plug-In . SVG Version: 6.00 Build 0)  -->
<!DOCTYPE svg PUBLIC "-//W3C//DTD SVG 1.1//EN" "http://www.w3.org/Graphics/SVG/1.1/DTD/svg11.dtd">
<svg version="1.1" id="flag-icon-css-am" xmlns="http://www.w3.org/2000/svg" xmlns:xlink="http://www.w3.org/1999/xlink" x="0px"
	 y="0px" width="150px" height="150px" viewBox="0 0 150 150" enable-background="new 0 0 150 150" xml:space="preserve">
<g>
	<g>
		<path fill="#282828" d="M119.807,102.608c-6.611,12.779-41.861,32.35-41.861,32.35s-35.074-19.605-41.654-32.35
			c-8.317-16.105-8.31-64.195-8.31-64.195l49.964-23.281l50.172,23.281C128.117,38.413,128.138,86.51,119.807,102.608z"/>
		
			<linearGradient id="SVGID_1_" gradientUnits="userSpaceOnUse" x1="2.1011" y1="150.4941" x2="2.3265" y2="150.4941" gradientTransform="matrix(-471.1718 -83.0804 -83.0804 471.1718 13620.1816 -70650.0703)">
			<stop  offset="0" style="stop-color:#BABCBE"/>
			<stop  offset="1" style="stop-color:#565759"/>
		</linearGradient>
		<path fill="url(#SVGID_1_)" d="M119.807,102.608l-1.902-0.984c-0.698,1.354-1.865,2.937-3.38,4.604
			c-2.652,2.923-6.354,6.108-10.394,9.194c-6.062,4.634-12.885,9.063-18.18,12.323c-2.648,1.628-4.915,2.968-6.517,3.896
			c-0.801,0.466-1.437,0.827-1.869,1.073c-0.217,0.122-0.384,0.217-0.495,0.278c-0.056,0.032-0.097,0.056-0.125,0.071l-0.03,0.017
			l-0.011,0.005l1.041,1.873l1.045-1.869l-0.023-0.013c-0.498-0.28-9.247-5.207-18.626-11.59c-4.688-3.19-9.533-6.746-13.56-10.236
			c-2.013-1.743-3.82-3.47-5.293-5.107c-1.475-1.635-2.61-3.188-3.293-4.517c-0.94-1.818-1.814-4.205-2.581-6.961
			c-1.347-4.828-2.381-10.783-3.156-16.97c-1.163-9.284-1.749-19.098-2.041-26.588c-0.293-7.492-0.293-12.664-0.293-12.694v0h-2.14
			l2.12,0.292c0.016-0.117,0.02-0.212,0.02-0.292h-2.14l2.12,0.292l-2.122-0.292l0.905,1.942l49.061-22.86l49.269,22.861
			l0.902-1.943l-2.142-0.028v0.031c0,0.193-0.006,12.197-1.041,26.098c-0.517,6.948-1.292,14.372-2.442,21.001
			c-0.575,3.314-1.243,6.431-2.011,9.176c-0.767,2.745-1.638,5.122-2.577,6.933L119.807,102.608l1.903,0.984
			c1.134-2.194,2.076-4.814,2.897-7.747c1.434-5.13,2.486-11.225,3.278-17.521c1.186-9.441,1.776-19.326,2.074-26.902
			c0.297-7.575,0.299-12.837,0.299-13.006h-1.889l1.889,0.024v-0.024h-1.889l1.889,0.024l0.019-1.387L77.943,12.77L26.019,36.964
			l-0.16,1.156c-0.017,0.118-0.02,0.212-0.021,0.293v0c0,0.107,0.001,12.175,1.048,26.283c0.523,7.055,1.306,14.621,2.492,21.484
			c0.594,3.432,1.287,6.691,2.108,9.635c0.822,2.945,1.766,5.574,2.901,7.776c0.951,1.836,2.325,3.655,3.994,5.503
			c2.922,3.226,6.766,6.526,10.909,9.712c6.214,4.772,13.098,9.265,18.444,12.575c5.345,3.311,9.146,5.436,9.165,5.446l1.041,0.583
			l1.044-0.58c0.032-0.019,8.884-4.931,18.608-11.479c4.865-3.275,9.946-6.957,14.279-10.672c2.166-1.858,4.146-3.726,5.824-5.573
			c1.678-1.851,3.06-3.673,4.014-5.515L119.807,102.608z"/>
	</g>
	<g>
		
			<linearGradient id="SVGID_2_" gradientUnits="userSpaceOnUse" x1="1.062" y1="151.4746" x2="1.2876" y2="151.4746" gradientTransform="matrix(-2.625876e-005 -600.7305 -600.7305 2.625876e-005 91073.4375 780.3613)">
			<stop  offset="0" style="stop-color:#EF4723"/>
			<stop  offset="1" style="stop-color:#FFC855"/>
		</linearGradient>
		<path fill="url(#SVGID_2_)" d="M123.479,104.89l-1.902-0.984c-0.77,1.489-2.045,3.22-3.697,5.035
			c-2.891,3.186-6.916,6.648-11.306,10.002c-6.587,5.035-13.997,9.846-19.748,13.386c-2.876,1.77-5.337,3.223-7.076,4.232
			c-0.87,0.504-1.561,0.898-2.03,1.164c-0.236,0.134-0.417,0.236-0.539,0.305c-0.059,0.033-0.105,0.059-0.136,0.075l-0.033,0.02
			l-0.01,0.005l1.039,1.873l1.046-1.87l-0.026-0.013c-0.544-0.306-10.044-5.655-20.23-12.589
			c-5.092-3.465-10.356-7.328-14.735-11.123c-2.189-1.896-4.155-3.774-5.762-5.561c-1.607-1.782-2.849-3.477-3.602-4.939
			c-1.029-1.99-1.979-4.592-2.814-7.591c-1.466-5.254-2.59-11.725-3.431-18.445c-1.263-10.085-1.899-20.741-2.217-28.874
			c-0.318-8.135-0.318-13.751-0.318-13.786v0h-2.139l2.125,0.243c0.011-0.09,0.014-0.171,0.014-0.243h-2.139l2.125,0.243
			l-2.128-0.243l0.921,1.934l53.313-25.409l53.536,25.41l0.92-1.935l-2.143-0.025v0.028c0,0.214-0.007,13.247-1.13,28.342
			c-0.562,7.545-1.402,15.608-2.653,22.813c-0.624,3.602-1.351,6.987-2.188,9.977c-0.833,2.987-1.783,5.577-2.809,7.56
			L123.479,104.89l1.901,0.984c1.223-2.366,2.242-5.199,3.133-8.375c1.551-5.553,2.692-12.162,3.552-18.99
			c1.286-10.24,1.928-20.964,2.251-29.184c0.322-8.219,0.324-13.929,0.324-14.111H132.8l1.841,0.022v-0.022H132.8l1.841,0.022
			l0.017-1.372L78.039,6.991L21.815,33.788l-0.134,1.18c-0.011,0.09-0.014,0.171-0.014,0.244v0c0,0.115,0.001,13.21,1.136,28.515
			c0.568,7.654,1.418,15.86,2.704,23.301c0.643,3.722,1.396,7.252,2.284,10.439c0.89,3.188,1.912,6.031,3.135,8.405
			c1.021,1.972,2.504,3.938,4.309,5.935c3.159,3.488,7.324,7.067,11.817,10.521c6.736,5.173,14.205,10.046,20.003,13.637
			c5.798,3.592,9.922,5.896,9.942,5.908l1.042,0.582l1.042-0.579c0.033-0.019,9.637-5.349,20.185-12.451
			c5.276-3.553,10.787-7.546,15.481-11.57c2.347-2.014,4.49-4.035,6.306-6.033c1.814-1.999,3.304-3.97,4.329-5.946L123.479,104.89z"
			/>
	</g>
	<g>
		<path fill="#282828" d="M25.767,77.611c0-1.656,0-3.313,0-4.969c0.606,0.024,1.213,0.047,1.82,0.07c0-4.372,0-8.744,0-13.116
			c-0.606-0.066-1.213-0.134-1.82-0.203c0-1.656,0-3.312,0-4.968c5.458,0.774,10.93,1.419,16.412,1.936
			c0.951,0.09,1.828,0.896,1.828,1.685c0,6.071,0,12.142,0,18.213c0,0.854-0.8,1.511-1.828,1.504
			C36.697,77.723,31.225,77.672,25.767,77.611z M38.525,73.077c0-4.14,0-8.281,0-12.421c-1.826-0.153-3.65-0.319-5.473-0.494
			c0,4.248,0,8.497,0,12.746C34.875,72.967,36.7,73.024,38.525,73.077z"/>
		
			<linearGradient id="SVGID_3_" gradientUnits="userSpaceOnUse" x1="-4.2578" y1="151.3867" x2="-4.0322" y2="151.3867" gradientTransform="matrix(84.8818 0 0 -84.8818 386.7466 12916.0293)">
			<stop  offset="0" style="stop-color:#C1B378"/>
			<stop  offset="1" style="stop-color:#FFD066"/>
		</linearGradient>
		<path fill="url(#SVGID_3_)" d="M25.767,77.611h0.451c0-1.656,0-3.313,0-4.969h-0.451l-0.018,0.451
			c0.606,0.023,1.213,0.047,1.82,0.07l0.468,0.017v-0.468c0-4.372,0-8.744,0-13.116v-0.404l-0.402-0.044
			c-0.605-0.066-1.212-0.134-1.818-0.203l-0.051,0.448h0.451c0-1.656,0-3.312,0-4.968h-0.451l-0.063,0.447
			c5.465,0.775,10.944,1.421,16.433,1.938h-0.001c0.363,0.032,0.74,0.214,1.008,0.463c0.134,0.124,0.241,0.261,0.31,0.396
			c0.07,0.135,0.102,0.264,0.102,0.377c0,6.071,0,12.142,0,18.213c0,0.142-0.032,0.271-0.092,0.392
			c-0.09,0.181-0.248,0.345-0.466,0.466c-0.218,0.121-0.493,0.196-0.803,0.195h-0.012h0.001c-5.481-0.039-10.953-0.091-16.41-0.15
			L25.767,77.611h0.451H25.767l-0.005,0.451c5.458,0.062,10.931,0.111,16.413,0.151h0.001h0.018c0.607,0,1.162-0.194,1.577-0.537
			c0.207-0.172,0.379-0.384,0.499-0.624c0.12-0.241,0.188-0.512,0.188-0.794c0-6.071,0-12.142,0-18.213
			c-0.001-0.282-0.078-0.549-0.203-0.79c-0.187-0.362-0.479-0.669-0.829-0.905c-0.351-0.234-0.763-0.396-1.205-0.439l0,0
			c-5.474-0.515-10.94-1.159-16.39-1.933l-0.515-0.072v0.519c0,1.656,0,3.312,0,4.968v0.402l0.4,0.046
			c0.606,0.069,1.214,0.137,1.821,0.204l0.049-0.449h-0.451c0,4.372,0,8.744,0,13.116h0.451l0.017-0.45
			c-0.606-0.023-1.213-0.046-1.818-0.07l-0.469-0.019v0.469c0,1.656,0,3.313,0,4.969v0.446l0.446,0.005L25.767,77.611z
			 M38.525,73.077h0.451c0-4.14,0-8.281,0-12.421v-0.415l-0.413-0.035c-1.824-0.154-3.647-0.318-5.468-0.494l-0.495-0.049v0.498
			c0,4.248,0,8.497,0,12.746v0.436l0.437,0.016c1.824,0.06,3.648,0.117,5.475,0.169l0.464,0.014v-0.464H38.525l0.013-0.452
			c-1.825-0.052-3.648-0.109-5.472-0.169l-0.014,0.451h0.451c0-4.249,0-8.498,0-12.746h-0.451l-0.043,0.448
			c1.825,0.177,3.651,0.342,5.479,0.495l0.038-0.449h-0.45c0,4.141,0,8.281,0,12.421H38.525l0.013-0.452L38.525,73.077z"/>
		<path fill="#282828" d="M45.834,77.789c0-1.508,0-3.016,0-4.522c0.609,0.014,1.219,0.028,1.828,0.041c0-3.994,0-7.987,0-11.981
			c-0.609-0.039-1.219-0.078-1.828-0.119c0-1.507,0-3.015,0-4.521c2.438,0.204,4.877,0.381,7.318,0.535c0,2.944,0,5.888,0,8.833
			c1.831,0.069,3.663,0.13,5.494,0.182c0-2.904,0-5.809,0-8.713c2.442,0.115,4.886,0.204,7.33,0.268c0,1.435,0,2.869,0,4.304
			c-0.612-0.013-1.222-0.027-1.833-0.042c0,3.835,0,7.669,0,11.505c0.611,0.005,1.221,0.01,1.833,0.015c0,1.435,0,2.869,0,4.304
			c-2.444-0.004-4.888-0.012-7.33-0.021c0-2.905,0-5.809,0-8.714c-1.831-0.041-3.663-0.088-5.494-0.143c0,2.944,0,5.889,0,8.832
			C50.711,77.818,48.272,77.805,45.834,77.789z"/>
		
			<linearGradient id="SVGID_4_" gradientUnits="userSpaceOnUse" x1="-4.5669" y1="151.3496" x2="-4.3413" y2="151.3496" gradientTransform="matrix(93.3213 0 0 -93.3213 471.5269 14191.4785)">
			<stop  offset="0" style="stop-color:#C1B378"/>
			<stop  offset="1" style="stop-color:#FFD066"/>
		</linearGradient>
		<path fill="url(#SVGID_4_)" d="M45.834,77.789h0.45c0-1.508,0-3.016,0-4.522h-0.45l-0.01,0.451
			c0.609,0.014,1.219,0.027,1.83,0.041l0.46,0.011v-0.461c0-3.994,0-7.987,0-11.981v-0.423l-0.423-0.027
			c-0.609-0.039-1.218-0.078-1.827-0.119l-0.03,0.45h0.45c0-1.507,0-3.015,0-4.521h-0.45l-0.039,0.449
			c2.442,0.204,4.885,0.383,7.329,0.535l0.027-0.45h-0.45c0,2.944,0,5.888,0,8.833v0.434l0.433,0.017
			c1.833,0.069,3.666,0.13,5.498,0.182l0.464,0.014v-0.465c0-2.904,0-5.809,0-8.713h-0.451l-0.021,0.451
			c2.445,0.115,4.892,0.204,7.339,0.268l0.012-0.451h-0.451c0,1.435,0,2.869,0,4.304h0.451l0.009-0.451
			c-0.61-0.013-1.22-0.026-1.831-0.042l-0.462-0.012v0.462c0,3.835,0,7.669,0,11.505v0.447l0.447,0.004
			c0.611,0.005,1.222,0.01,1.833,0.015l0.003-0.451h-0.451c0,1.435,0,2.869,0,4.304h0.451l0.001-0.451
			c-2.444-0.005-4.887-0.011-7.329-0.021l-0.002,0.451h0.451c0-2.905,0-5.809,0-8.714V68.7l-0.441-0.01
			c-1.831-0.041-3.661-0.088-5.49-0.143l-0.464-0.014v0.465c0,2.944,0,5.889,0,8.832h0.45l0.002-0.451
			c-2.44-0.011-4.88-0.025-7.318-0.041L45.834,77.789h0.45H45.834l-0.004,0.451c2.439,0.017,4.879,0.03,7.32,0.042l0.453,0.002
			V77.83c0-2.943,0-5.888,0-8.832h-0.451l-0.013,0.451c1.832,0.054,3.663,0.101,5.497,0.142l0.01-0.451h-0.451
			c0,2.905,0,5.809,0,8.714v0.449l0.449,0.002c2.443,0.009,4.887,0.016,7.331,0.021l0.451,0.002v-0.453c0-1.435,0-2.869,0-4.304
			v-0.448l-0.447-0.003c-0.611-0.005-1.222-0.01-1.833-0.015l-0.004,0.451h0.451c0-3.835,0-7.67,0-11.505h-0.451l-0.011,0.451
			c0.611,0.015,1.223,0.029,1.834,0.042l0.46,0.01v-0.46c0-1.435,0-2.869,0-4.304v-0.439l-0.439-0.011
			c-2.441-0.064-4.881-0.153-7.32-0.268l-0.472-0.021v0.472c0,2.905,0,5.809,0,8.713h0.451l0.013-0.45
			c-1.83-0.052-3.661-0.113-5.49-0.182l-0.017,0.451h0.451c0-2.944,0-5.889,0-8.833v-0.424l-0.423-0.026
			c-2.438-0.152-4.875-0.331-7.309-0.535l-0.489-0.04v0.491c0,1.506,0,3.014,0,4.521v0.422l0.421,0.028
			c0.61,0.041,1.22,0.081,1.831,0.119l0.028-0.45h-0.451c0,3.994,0,7.987,0,11.981h0.451l0.01-0.451
			c-0.61-0.013-1.219-0.027-1.829-0.042l-0.461-0.01v0.461c0,1.507,0,3.015,0,4.522v0.447l0.448,0.004L45.834,77.789z"/>
		<path fill="#282828" d="M67.809,77.879c0-1.433,0-2.864,0-4.296c0.611,0.004,1.222,0.007,1.833,0.009c0-4.766,0-9.531,0-14.297
			c0-0.804,0.802-1.417,1.833-1.406c4.279,0.045,8.556,0.012,12.833-0.1c0.955-0.025,1.833,0.636,1.833,1.386
			c0,4.793,0,9.587,0,14.381c0.611-0.005,1.222-0.011,1.832-0.018c0,1.442,0,2.885,0,4.328c-2.443,0.006-4.886,0.012-7.33,0.014
			c0-1.905,0-3.812,0-5.718c-1.835,0.01-3.668,0.015-5.501,0.015c0,1.903,0,3.805,0,5.708
			C72.697,77.885,70.252,77.883,67.809,77.879z M80.643,69.304c0-2.383,0-4.766,0-7.149c-1.835,0.023-3.668,0.035-5.501,0.035
			c0,2.378,0,4.756,0,7.134C76.975,69.324,78.808,69.317,80.643,69.304z"/>
		
			<linearGradient id="SVGID_5_" gradientUnits="userSpaceOnUse" x1="-5.3691" y1="151.3711" x2="-5.1436" y2="151.3711" gradientTransform="matrix(93.4238 0 0 -93.4238 568.9131 14209.4736)">
			<stop  offset="0" style="stop-color:#C1B378"/>
			<stop  offset="1" style="stop-color:#FFD066"/>
		</linearGradient>
		<path fill="url(#SVGID_5_)" d="M67.809,77.879h0.451c0-1.433,0-2.864,0-4.296h-0.451l-0.003,0.451
			c0.611,0.003,1.223,0.006,1.834,0.009l0.453,0.002v-0.454c0-4.766,0-9.531,0-14.297c0.001-0.125,0.03-0.237,0.087-0.344
			c0.084-0.161,0.238-0.313,0.456-0.426c0.218-0.113,0.498-0.184,0.812-0.184h0.022c1.225,0.013,2.45,0.019,3.675,0.019
			c3.059,0,6.117-0.039,9.174-0.12h0.041c0.361-0.001,0.719,0.13,0.965,0.322c0.123,0.095,0.218,0.204,0.277,0.31
			c0.061,0.106,0.087,0.206,0.087,0.303l0,0c0,4.793,0,9.587,0,14.381v0.455l0.455-0.004c0.611-0.005,1.223-0.011,1.834-0.017
			l-0.006-0.452h-0.45c0,1.442,0,2.885,0,4.328h0.45l-0.001-0.451c-2.443,0.006-4.886,0.012-7.33,0.014l0.001,0.451h0.449
			c0-1.905,0-3.812,0-5.718v-0.453l-0.452,0.003c-1.833,0.009-3.666,0.014-5.498,0.014h-0.451v0.451c0,1.903,0,3.805,0,5.708h0.451
			v-0.45c-2.444,0-4.889-0.002-7.332-0.007L67.809,77.879h0.451H67.809l-0.001,0.451c2.444,0.004,4.89,0.006,7.334,0.006h0.452
			v-0.451c0-1.902,0-3.805,0-5.708h-0.452v0.451c1.834,0,3.669-0.005,5.503-0.015l-0.002-0.451H80.19c0,1.906,0,3.813,0,5.718v0.453
			l0.453-0.002c2.443-0.002,4.889-0.007,7.331-0.015l0.45-0.002v-0.448c0-1.443,0-2.886,0-4.328v-0.455l-0.456,0.004
			c-0.611,0.007-1.221,0.012-1.832,0.017l0.004,0.451h0.451c0-4.794,0-9.588,0-14.381v0c0-0.271-0.078-0.528-0.206-0.75
			c-0.191-0.334-0.488-0.6-0.839-0.788c-0.35-0.187-0.757-0.298-1.187-0.298c-0.021,0-0.043,0-0.065,0.001
			c-3.048,0.079-6.099,0.119-9.149,0.119c-1.221,0-2.444-0.006-3.665-0.019h-0.033c-0.599,0.001-1.146,0.177-1.561,0.499
			c-0.208,0.161-0.381,0.36-0.505,0.59c-0.122,0.231-0.191,0.494-0.191,0.768c0,4.766,0,9.531,0,14.297h0.451l0.002-0.451
			c-0.611-0.003-1.222-0.006-1.833-0.009l-0.454-0.003v0.454c0,1.432,0,2.863,0,4.296v0.45l0.451,0.001L67.809,77.879z
			 M80.643,69.304h0.449c0-2.383,0-4.766,0-7.149v-0.457l-0.456,0.006c-1.831,0.023-3.662,0.035-5.494,0.035h-0.451v0.451
			c0,2.378,0,4.756,0,7.134v0.451h0.451c1.834,0,3.67-0.007,5.504-0.021l0.446-0.003v-0.447H80.643l-0.005-0.452
			c-1.831,0.015-3.664,0.021-5.496,0.021v0.451h0.452c0-2.378,0-4.756,0-7.134h-0.452v0.451c1.836,0,3.672-0.012,5.507-0.035
			l-0.006-0.451H80.19c0,2.383,0,4.766,0,7.149H80.643l-0.005-0.452L80.643,69.304z"/>
		<path fill="#282828" d="M89.806,77.86c0-1.446,0-2.894,0-4.341c0.609-0.007,1.221-0.015,1.832-0.022c0-3.873,0-7.746,0-11.619
			c-0.611,0.023-1.223,0.045-1.832,0.065c0-1.447,0-2.894,0-4.341c2.442-0.103,4.885-0.229,7.326-0.382c0,2.944,0,5.888,0,8.833
			c1.83-3.014,3.659-6.081,5.488-9.22c2.439-0.191,4.877-0.408,7.312-0.65c0,1.541,0,3.08,0,4.621
			c-1.217,0.097-2.435,0.189-3.653,0.276c-0.915,1.583-1.829,3.147-2.744,4.694c1.524-0.074,3.049-0.156,4.571-0.242
			c0,2.548,0,5.096,0,7.644c0.608-0.017,1.217-0.032,1.826-0.049c0,1.541,0,3.081,0,4.622c-2.435,0.019-4.872,0.035-7.312,0.052
			c0-2.997,0-5.992,0-8.987c-1.829,0.068-3.658,0.129-5.488,0.184c0,2.944,0,5.889,0,8.832C94.69,77.842,92.248,77.853,89.806,77.86
			z"/>
		
			<linearGradient id="SVGID_6_" gradientUnits="userSpaceOnUse" x1="-6.1899" y1="151.3418" x2="-5.9644" y2="151.3418" gradientTransform="matrix(93.2539 0 0 -93.2539 666.5605 14180.2129)">
			<stop  offset="0" style="stop-color:#C1B378"/>
			<stop  offset="1" style="stop-color:#FFD066"/>
		</linearGradient>
		<path fill="url(#SVGID_6_)" d="M89.806,77.86h0.45c0-1.446,0-2.894,0-4.341h-0.45l0.006,0.451
			c0.609-0.007,1.221-0.014,1.832-0.022l0.444-0.006v-0.445c0-3.873,0-7.746,0-11.619v-0.468l-0.467,0.018
			c-0.611,0.022-1.221,0.044-1.83,0.064l0.015,0.451h0.45c0-1.447,0-2.894,0-4.341h-0.45l0.018,0.45
			c2.447-0.101,4.892-0.229,7.336-0.382l-0.027-0.45H96.68c0,2.944,0,5.888,0,8.833v1.61l0.838-1.376
			c1.831-3.016,3.662-6.086,5.493-9.227l-0.391-0.227l0.036,0.449c2.442-0.191,4.881-0.408,7.32-0.65l-0.045-0.449h-0.451
			c0,1.541,0,3.08,0,4.621h0.451l-0.035-0.45c-1.217,0.097-2.434,0.189-3.65,0.276l-0.239,0.017l-0.12,0.208
			c-0.913,1.581-1.827,3.145-2.739,4.69l-0.426,0.721l0.836-0.04c1.524-0.075,3.05-0.156,4.572-0.243l-0.024-0.45h-0.452
			c0,2.548,0,5.096,0,7.644v0.463l0.464-0.013c0.608-0.016,1.218-0.032,1.827-0.049l-0.013-0.451h-0.451c0,1.541,0,3.081,0,4.622
			h0.451l-0.003-0.451c-2.436,0.02-4.872,0.035-7.311,0.051l0.002,0.452h0.452c0-2.997,0-5.992,0-8.987v-0.468l-0.469,0.018
			c-1.827,0.068-3.655,0.129-5.486,0.183l-0.438,0.013v0.438c0,2.944,0,5.889,0,8.832h0.452l-0.003-0.451
			c-2.44,0.013-4.883,0.022-7.325,0.031L89.806,77.86h0.45H89.806l0.002,0.451c2.441-0.008,4.885-0.019,7.325-0.029l0.449-0.003
			V77.83c0-2.943,0-5.888,0-8.832h-0.45l0.013,0.451c1.832-0.054,3.663-0.116,5.493-0.184l-0.018-0.451h-0.449
			c0,2.996,0,5.99,0,8.987v0.453l0.453-0.003c2.438-0.016,4.876-0.032,7.312-0.051l0.447-0.004V77.75c0-1.541,0-3.081,0-4.622
			v-0.463l-0.463,0.012c-0.609,0.017-1.218,0.034-1.826,0.049l0.012,0.452h0.45c0-2.548,0-5.096,0-7.644v-0.478l-0.477,0.027
			c-1.521,0.087-3.043,0.168-4.566,0.242l0.021,0.451l0.389,0.229c0.916-1.548,1.83-3.114,2.745-4.698l-0.39-0.226l0.032,0.45
			c1.219-0.087,2.438-0.179,3.658-0.276l0.414-0.033v-0.417c0-1.541,0-3.081,0-4.621v-0.499l-0.496,0.05
			c-2.431,0.242-4.866,0.458-7.301,0.649l-0.236,0.018l-0.118,0.205c-1.828,3.136-3.656,6.201-5.485,9.213l0.386,0.234h0.45
			c0-2.944,0-5.889,0-8.833v-0.48l-0.479,0.029c-2.438,0.153-4.878,0.28-7.316,0.383l-0.433,0.017v0.433c0,1.447,0,2.894,0,4.341
			v0.466l0.466-0.016c0.612-0.021,1.223-0.042,1.833-0.065l-0.016-0.451h-0.451c0,3.873,0,7.746,0,11.619h0.451l-0.007-0.451
			c-0.609,0.007-1.221,0.016-1.831,0.022l-0.445,0.005v0.445c0,1.447,0,2.895,0,4.341v0.453l0.453-0.002L89.806,77.86z"/>
		<path fill="#282828" d="M111.758,77.734c0-1.553,0-3.105,0-4.658c0.608-0.018,1.217-0.036,1.825-0.054c0-5.218,0-10.437,0-15.655
			c0-0.879,0.799-1.651,1.824-1.771c4.256-0.491,8.506-1.059,12.745-1.706c0.947-0.146,1.817,0.535,1.817,1.428
			c0,5.7,0,11.399,0,17.099c0.604-0.026,1.21-0.053,1.814-0.08c0,1.729,0,3.459,0,5.188c-2.42,0.03-4.843,0.06-7.268,0.087
			c0-2.208,0-4.417,0-6.625c-1.819,0.088-3.641,0.172-5.463,0.25c0,2.145,0,4.288,0,6.433
			C116.624,77.693,114.193,77.715,111.758,77.734z M124.517,67.674c0-2.76,0-5.521,0-8.281c-1.819,0.207-3.641,0.402-5.463,0.586
			c0,2.681,0,5.36,0,8.041C120.876,67.912,122.697,67.796,124.517,67.674z"/>
		
			<linearGradient id="SVGID_7_" gradientUnits="userSpaceOnUse" x1="-7.0337" y1="151.3008" x2="-6.8086" y2="151.3008" gradientTransform="matrix(92.8105 0 0 -92.8105 764.0947 14108.1748)">
			<stop  offset="0" style="stop-color:#C1B378"/>
			<stop  offset="1" style="stop-color:#FFD066"/>
		</linearGradient>
		<path fill="url(#SVGID_7_)" d="M111.758,77.734h0.451c0-1.553,0-3.105,0-4.658h-0.451l0.014,0.451
			c0.608-0.018,1.217-0.036,1.824-0.054l0.438-0.014v-0.437c0-5.218,0-10.437,0-15.655c0-0.3,0.135-0.599,0.391-0.847
			c0.253-0.246,0.619-0.428,1.035-0.476l-0.001,0c4.261-0.491,8.516-1.061,12.762-1.708v0c0.063-0.01,0.127-0.014,0.188-0.014
			c0.307,0,0.59,0.117,0.791,0.301c0.201,0.187,0.316,0.425,0.317,0.696c0,5.7,0,11.399,0,17.099v0.471l0.472-0.02
			c0.604-0.027,1.211-0.053,1.815-0.08l-0.021-0.451h-0.452c0,1.729,0,3.459,0,5.188h0.452l-0.005-0.451
			c-2.42,0.03-4.843,0.06-7.269,0.088l0.006,0.45h0.45c0-2.208,0-4.417,0-6.625v-0.473l-0.474,0.023
			c-1.816,0.087-3.638,0.171-5.459,0.25l-0.432,0.019v0.432c0,2.145,0,4.288,0,6.433h0.451l-0.005-0.451
			c-2.429,0.024-4.861,0.046-7.295,0.065L111.758,77.734h0.451H111.758l0.004,0.45c2.435-0.019,4.866-0.04,7.296-0.064l0.447-0.005
			v-0.446c0-2.145,0-4.288,0-6.433h-0.451l0.02,0.451c1.823-0.079,3.644-0.162,5.465-0.25l-0.021-0.451h-0.452
			c0,2.208,0,4.417,0,6.625v0.455l0.457-0.004c2.425-0.027,4.85-0.057,7.269-0.088l0.445-0.006v-0.444c0-1.729,0-3.459,0-5.188
			v-0.472l-0.472,0.021c-0.604,0.027-1.209,0.054-1.814,0.08l0.021,0.451h0.449c0-5.699,0-11.399,0-17.099
			c0.001-0.542-0.242-1.026-0.61-1.361c-0.367-0.336-0.864-0.538-1.399-0.538c-0.107,0-0.217,0.008-0.326,0.025l0.001,0
			c-4.234,0.646-8.479,1.214-12.729,1.705h-0.001h0.001c-0.609,0.071-1.155,0.335-1.559,0.725c-0.4,0.388-0.664,0.915-0.664,1.494
			c0,5.218,0,10.437,0,15.655h0.451l-0.014-0.45c-0.607,0.018-1.217,0.036-1.825,0.053l-0.438,0.014v0.438c0,1.552,0,3.105,0,4.658
			v0.455l0.455-0.005L111.758,77.734z M124.517,67.674h0.45c0-2.76,0-5.521,0-8.281v-0.505l-0.502,0.057
			c-1.818,0.207-3.635,0.402-5.457,0.586l-0.405,0.041v0.408c0,2.681,0,5.36,0,8.041v0.478l0.479-0.028
			c1.823-0.109,3.646-0.225,5.464-0.347l0.422-0.029v-0.421H124.517l-0.03-0.45c-1.818,0.123-3.638,0.238-5.459,0.346l0.026,0.451
			h0.451c0-2.681,0-5.36,0-8.041h-0.451l0.045,0.449c1.824-0.184,3.647-0.38,5.469-0.587l-0.051-0.448h-0.452
			c0,2.76,0,5.521,0,8.281H124.517l-0.03-0.45L124.517,67.674z"/>
		<path fill="#282828" d="M5.375,108.258c0-1.886,0-3.773,0-5.66c0.602-0.099,1.204-0.195,1.806-0.29c0-4.97,0-9.938,0-14.906
			C6.58,87.434,5.978,87.467,5.375,87.5c0-1.887,0-3.773,0-5.661c5.415-0.085,10.851-0.161,16.301-0.228
			c0.946-0.009,1.817,0.785,1.817,1.656c0,3.357,0,6.711,0,10.066c0,0.942-0.795,1.748-1.817,1.845
			c-3.028,0.282-6.052,0.589-9.069,0.919c0,1.796,0,3.591,0,5.387c0.604-0.088,1.208-0.174,1.812-0.26c0,1.776,0,3.551,0,5.324
			C11.399,107.079,8.384,107.649,5.375,108.258z M18.045,92.062c0-1.734,0-3.469,0-5.203c-1.815,0.084-3.627,0.17-5.438,0.26
			c0,1.796,0,3.591,0,5.388C14.418,92.351,16.23,92.203,18.045,92.062z"/>
		
			<linearGradient id="SVGID_8_" gradientUnits="userSpaceOnUse" x1="-3.458" y1="152.5693" x2="-3.2324" y2="152.5693" gradientTransform="matrix(84.3477 0 0 -84.3477 296.5762 12963.8848)">
			<stop  offset="0" style="stop-color:#C1B378"/>
			<stop  offset="1" style="stop-color:#FFD066"/>
		</linearGradient>
		<path fill="url(#SVGID_8_)" d="M5.375,108.258h0.452c0-1.886,0-3.773,0-5.66H5.375l0.073,0.443
			c0.601-0.097,1.202-0.194,1.804-0.288l0.381-0.06v-0.386c0-4.97,0-9.938,0-14.906v-0.477L7.157,86.95
			c-0.602,0.032-1.204,0.066-1.806,0.101L5.375,87.5h0.452c0-1.887,0-3.773,0-5.661H5.375l0.008,0.451
			c5.415-0.086,10.848-0.161,16.299-0.228h-0.001h0.012c0.342-0.001,0.693,0.148,0.948,0.385c0.128,0.116,0.23,0.252,0.298,0.394
			c0.069,0.141,0.104,0.285,0.104,0.427c0,3.357,0,6.711,0,10.066c0,0.343-0.143,0.666-0.395,0.925
			c-0.252,0.254-0.609,0.434-1.014,0.471h0c-3.03,0.283-6.057,0.589-9.076,0.92l-0.402,0.043v0.405c0,1.796,0,3.591,0,5.387v0.521
			l0.515-0.075c0.604-0.087,1.207-0.173,1.81-0.259l-0.063-0.447h-0.451c0,1.776,0,3.551,0,5.324h0.451l-0.078-0.442
			c-3.024,0.529-6.042,1.1-9.054,1.71L5.375,108.258h0.452H5.375l0.089,0.443c3.005-0.61,6.016-1.179,9.032-1.708l0.373-0.064v-0.38
			c0-1.773,0-3.548,0-5.324v-0.518l-0.513,0.072c-0.605,0.085-1.21,0.171-1.813,0.259l0.064,0.446h0.451c0-1.796,0-3.591,0-5.387
			h-0.451l0.049,0.448c3.015-0.331,6.037-0.636,9.062-0.918h0.002h-0.002c0.618-0.059,1.169-0.33,1.571-0.737
			c0.401-0.405,0.655-0.955,0.655-1.557c0-3.355,0-6.709,0-10.066c0-0.291-0.072-0.571-0.195-0.821
			c-0.184-0.377-0.476-0.691-0.832-0.919c-0.355-0.227-0.777-0.366-1.226-0.366h-0.021h0h0c-5.451,0.066-10.886,0.142-16.302,0.228
			l-0.444,0.008v0.442c0,1.888,0,3.774,0,5.661v0.478l0.477-0.026c0.601-0.034,1.203-0.066,1.805-0.101l-0.025-0.449H6.73
			c0,4.969,0,9.937,0,14.906h0.451l-0.07-0.446c-0.602,0.097-1.205,0.192-1.807,0.29l-0.379,0.062v0.385c0,1.887,0,3.774,0,5.66
			v0.552l0.54-0.108L5.375,108.258z M18.045,92.062h0.451c0-1.734,0-3.469,0-5.203v-0.472l-0.472,0.021
			c-1.815,0.084-3.628,0.171-5.44,0.261l-0.428,0.021v0.429c0,1.796,0,3.591,0,5.388v0.492l0.489-0.043
			c1.81-0.154,3.621-0.304,5.435-0.444l0.416-0.032v-0.417H18.045l-0.035-0.449c-1.815,0.141-3.63,0.289-5.441,0.443l0.039,0.45
			h0.451c0-1.797,0-3.592,0-5.388h-0.451l0.022,0.451c1.81-0.091,3.622-0.178,5.436-0.26l-0.021-0.451h-0.451
			c0,1.734,0,3.469,0,5.203H18.045l-0.035-0.449L18.045,92.062z"/>
		<path fill="#282828" d="M25.313,104.815c0-1.661,0-3.321,0-4.981c0.606-0.07,1.213-0.139,1.819-0.205c0-4.383,0-8.767,0-13.149
			c-0.606,0.023-1.213,0.047-1.819,0.07c0-1.66,0-3.32,0-4.979c3.031-0.035,6.068-0.065,9.108-0.095c0,1.584,0,3.166,0,4.748
			c-0.608,0.02-1.215,0.04-1.824,0.061c0,4.258,0,8.516,0,12.774c1.216-0.118,2.432-0.232,3.648-0.342c0-1.046,0-2.091,0-3.138
			c1.825-0.136,3.65-0.263,5.478-0.379c0,2.553,0,5.104,0,7.657C36.241,103.381,30.77,104.033,25.313,104.815z"/>
		
			<linearGradient id="SVGID_9_" gradientUnits="userSpaceOnUse" x1="-4.7407" y1="152.6924" x2="-4.5151" y2="152.6924" gradientTransform="matrix(76.7695 0 0 -76.7695 388.8027 11815.377)">
			<stop  offset="0" style="stop-color:#C1B378"/>
			<stop  offset="1" style="stop-color:#FFD066"/>
		</linearGradient>
		<path fill="url(#SVGID_9_)" d="M25.313,104.815h0.451c0-1.661,0-3.321,0-4.981h-0.451l0.051,0.447
			c0.605-0.069,1.212-0.138,1.817-0.205l0.402-0.044v-0.403c0-4.383,0-8.767,0-13.149v-0.469l-0.468,0.019
			c-0.607,0.023-1.214,0.047-1.82,0.07l0.018,0.45h0.451c0-1.66,0-3.32,0-4.979h-0.451l0.005,0.45
			c3.032-0.034,6.067-0.065,9.107-0.093l-0.004-0.452h-0.451c0,1.584,0,3.166,0,4.748h0.451l-0.015-0.451
			c-0.608,0.02-1.216,0.04-1.824,0.061l-0.436,0.016v0.436c0,4.258,0,8.516,0,12.774v0.497l0.495-0.049
			c1.214-0.118,2.429-0.232,3.644-0.341l0.411-0.036v-0.413c0-1.046,0-2.091,0-3.138h-0.452l0.034,0.45
			c1.823-0.137,3.648-0.263,5.473-0.379l-0.028-0.45h-0.452c0,2.553,0,5.104,0,7.657h0.452l-0.043-0.449
			c-5.487,0.524-10.966,1.178-16.43,1.96L25.313,104.815h0.451H25.313l0.064,0.446c5.449-0.781,10.914-1.433,16.387-1.955
			l0.408-0.038v-0.411c0-2.553,0-5.104,0-7.657v-0.481l-0.48,0.031c-1.828,0.116-3.656,0.244-5.482,0.381l-0.417,0.03v0.418
			c0,1.047,0,2.092,0,3.138h0.451l-0.04-0.449c-1.218,0.109-2.436,0.224-3.652,0.343l0.043,0.448h0.451c0-4.259,0-8.517,0-12.774
			h-0.451l0.016,0.451c0.607-0.021,1.215-0.041,1.822-0.061l0.436-0.015v-0.437c0-1.582,0-3.164,0-4.748v-0.454l-0.455,0.004
			c-3.04,0.028-6.076,0.059-9.107,0.093l-0.447,0.005v0.447c0,1.659,0,3.319,0,4.979v0.47l0.47-0.02
			c0.605-0.023,1.212-0.046,1.818-0.069l-0.018-0.451h-0.451c0,4.383,0,8.767,0,13.149h0.451l-0.049-0.449
			c-0.607,0.067-1.214,0.136-1.821,0.205l-0.4,0.046v0.403c0,1.66,0,3.32,0,4.981v0.52l0.516-0.073L25.313,104.815z"/>
		<path fill="#282828" d="M43.549,102.688c0-1.52,0-3.04,0-4.561c0.609-0.044,1.218-0.087,1.828-0.13c0-5.032,0-10.064,0-15.097
			c0-0.851,0.8-1.518,1.828-1.522c4.268-0.026,8.54-0.047,12.815-0.063c0.954-0.003,1.833,0.687,1.833,1.438
			c0,4.812,0,9.623,0,14.434c0.611-0.018,1.221-0.035,1.833-0.051c0,1.439,0,2.878,0,4.317c-2.444,0.079-4.887,0.186-7.329,0.314
			c0-1.946,0-3.892,0-5.839c-1.831,0.072-3.662,0.155-5.491,0.249c0,1.975,0,3.952,0,5.927
			C48.424,102.273,45.986,102.469,43.549,102.688z M56.356,93.009c0-2.433,0-4.866,0-7.299c-1.831,0.026-3.662,0.058-5.491,0.094
			c0,2.469,0,4.939,0,7.409C52.695,93.137,54.526,93.068,56.356,93.009z"/>
		
			<linearGradient id="SVGID_10_" gradientUnits="userSpaceOnUse" x1="-4.4839" y1="152.2617" x2="-4.2588" y2="152.2617" gradientTransform="matrix(93.2949 0 0 -93.2949 461.415 14297.3232)">
			<stop  offset="0" style="stop-color:#C1B378"/>
			<stop  offset="1" style="stop-color:#FFD066"/>
		</linearGradient>
		<path fill="url(#SVGID_10_)" d="M43.549,102.688H44c0-1.52,0-3.04,0-4.561h-0.451l0.032,0.45c0.609-0.045,1.218-0.087,1.827-0.129
			l0.42-0.028v-0.423c0-5.032,0-10.064,0-15.097c0-0.142,0.032-0.271,0.093-0.396c0.092-0.183,0.253-0.35,0.474-0.474
			c0.221-0.123,0.5-0.2,0.813-0.202c4.268-0.026,8.54-0.047,12.814-0.062h0.004c0.367-0.002,0.735,0.137,0.991,0.341
			c0.128,0.102,0.228,0.217,0.292,0.327c0.064,0.113,0.092,0.219,0.092,0.317c0,4.812,0,9.623,0,14.434v0.465l0.465-0.013
			c0.61-0.02,1.22-0.037,1.831-0.053l-0.011-0.45h-0.452c0,1.439,0,2.878,0,4.317h0.452l-0.016-0.451
			c-2.446,0.079-4.892,0.186-7.336,0.316l0.023,0.449h0.452c0-1.946,0-3.892,0-5.839V95.46l-0.469,0.018
			c-1.833,0.072-3.666,0.155-5.498,0.249l-0.428,0.021v0.43c0,1.975,0,3.952,0,5.927h0.452l-0.032-0.45
			c-2.443,0.17-4.885,0.364-7.325,0.585L43.549,102.688H44H43.549l0.041,0.45c2.433-0.22,4.869-0.414,7.307-0.582l0.419-0.03v-0.421
			c0-1.975,0-3.952,0-5.927h-0.45l0.022,0.449c1.828-0.093,3.657-0.176,5.487-0.248l-0.019-0.45h-0.45c0,1.947,0,3.893,0,5.839
			v0.477l0.475-0.025c2.439-0.131,4.878-0.235,7.319-0.315l0.436-0.014v-0.437c0-1.439,0-2.878,0-4.317v-0.464l-0.463,0.014
			c-0.611,0.016-1.222,0.032-1.834,0.051l0.014,0.45h0.452c0-4.811,0-9.622,0-14.434c0-0.275-0.082-0.536-0.212-0.764
			c-0.195-0.342-0.497-0.615-0.854-0.812c-0.357-0.195-0.773-0.312-1.212-0.313h-0.007c-4.276,0.014-8.548,0.035-12.817,0.062
			c-0.61,0.004-1.168,0.202-1.585,0.548c-0.208,0.174-0.382,0.385-0.503,0.628c-0.121,0.24-0.189,0.514-0.188,0.798
			c0,5.032,0,10.064,0,15.097h0.451l-0.03-0.448c-0.61,0.04-1.22,0.084-1.83,0.128l-0.419,0.031v0.419c0,1.521,0,3.041,0,4.561
			v0.494l0.492-0.044L43.549,102.688z M56.356,93.009h0.452c0-2.433,0-4.866,0-7.299v-0.458l-0.458,0.007
			c-1.833,0.026-3.664,0.057-5.495,0.093l-0.442,0.009v0.443c0,2.469,0,4.939,0,7.409v0.471l0.469-0.02
			c1.829-0.077,3.658-0.146,5.489-0.205l0.437-0.014v-0.437H56.356l-0.015-0.451c-1.833,0.06-3.665,0.129-5.496,0.205l0.02,0.45
			h0.45c0-2.47,0-4.94,0-7.409h-0.45l0.009,0.449c1.829-0.034,3.659-0.064,5.49-0.093l-0.007-0.45h-0.45c0,2.433,0,4.866,0,7.299
			H56.356l-0.015-0.451L56.356,93.009z"/>
		<path fill="#282828" d="M69.184,101.315c0-1.429,0-2.859,0-4.289c0.611-0.009,1.222-0.016,1.833-0.021c0-3.81,0-7.618,0-11.427
			c-1.222,0.003-2.444,0.008-3.667,0.018c0,1.432,0,2.864,0,4.298c-1.222,0.011-2.444,0.028-3.665,0.046c0-2.878,0-5.756,0-8.635
			c6.72-0.017,13.443-0.019,20.165-0.006c0,2.868,0,5.736,0,8.604c-1.223-0.015-2.444-0.025-3.667-0.033c0-1.43,0-2.858,0-4.289
			c-1.222-0.004-2.444-0.007-3.666-0.008c0,3.804,0,7.61,0,11.415c0.611,0.003,1.222,0.005,1.832,0.009c0,1.429,0,2.856,0,4.285
			C75.294,101.253,72.239,101.265,69.184,101.315z"/>
		
			<linearGradient id="SVGID_11_" gradientUnits="userSpaceOnUse" x1="-5.2173" y1="152.2324" x2="-4.9917" y2="152.2324" gradientTransform="matrix(93.4258 0 0 -93.4258 550.5996 14313.8301)">
			<stop  offset="0" style="stop-color:#C1B378"/>
			<stop  offset="1" style="stop-color:#FFD066"/>
		</linearGradient>
		<path fill="url(#SVGID_11_)" d="M69.184,101.315h0.451c0-1.429,0-2.859,0-4.289h-0.451l0.006,0.45
			c0.61-0.008,1.221-0.015,1.831-0.02l0.447-0.006v-0.446c0-3.81,0-7.618,0-11.427v-0.453l-0.453,0.001
			c-1.222,0.004-2.444,0.011-3.667,0.018L66.9,85.146v0.449c0,1.432,0,2.864,0,4.298h0.451l-0.005-0.451
			c-1.223,0.013-2.445,0.027-3.667,0.047l0.007,0.45h0.45c0-2.878,0-5.756,0-8.635h-0.45l0,0.451
			c3.813-0.01,7.628-0.015,11.443-0.015c2.908,0,5.813,0.003,8.72,0.008l0.001-0.45h-0.452c0,2.868,0,5.736,0,8.604h0.452
			l0.005-0.451c-1.222-0.014-2.446-0.025-3.668-0.033l-0.004,0.451h0.451c0-1.43,0-2.858,0-4.289v-0.449l-0.448-0.001
			c-1.224-0.005-2.446-0.008-3.669-0.01h-0.451v0.452c0,3.804,0,7.61,0,11.415v0.45l0.449,0.002
			c0.611,0.001,1.222,0.005,1.832,0.009l0.002-0.452h-0.45c0,1.429,0,2.856,0,4.285h0.45l0.005-0.451
			c-1.069-0.01-2.14-0.015-3.21-0.015c-1.989,0-3.979,0.017-5.969,0.051L69.184,101.315h0.451H69.184l0.007,0.452
			c1.985-0.033,3.97-0.05,5.954-0.05c1.068,0,2.135,0.004,3.202,0.015l0.455,0.003v-0.454c0-1.429,0-2.856,0-4.285V96.55
			l-0.447-0.003c-0.612-0.005-1.225-0.009-1.836-0.011l-0.001,0.451h0.45c0-3.805,0-7.611,0-11.415h-0.45l-0.001,0.45
			c1.223,0.001,2.443,0.005,3.666,0.01l0.001-0.452h-0.45c0,1.431,0,2.859,0,4.289v0.447l0.447,0.003
			c1.222,0.009,2.442,0.021,3.665,0.034l0.456,0.005v-0.456c0-2.867,0-5.735,0-8.604V80.85l-0.451-0.002
			c-2.906-0.006-5.813-0.008-8.721-0.008c-3.815,0-7.632,0.004-11.445,0.014l-0.45,0.002v0.449c0,2.879,0,5.757,0,8.635v0.459
			l0.458-0.008c1.222-0.018,2.442-0.034,3.665-0.048l0.446-0.004v-0.445c0-1.434,0-2.866,0-4.298h-0.451l0.003,0.449
			c1.222-0.007,2.443-0.012,3.664-0.017l-0.001-0.45h-0.451c0,3.809,0,7.617,0,11.427h0.451l-0.004-0.451
			c-0.612,0.005-1.223,0.013-1.835,0.021l-0.446,0.006v0.445c0,1.43,0,2.86,0,4.289v0.461l0.459-0.009L69.184,101.315z"/>
		<path fill="#282828" d="M87.516,101.483c-1.107-0.039-1.833-0.628-1.833-1.497c0-5.748,0-11.497,0-17.246
			c0-0.81,0.802-1.436,1.833-1.433c4.275,0.012,8.549,0.029,12.819,0.054c0.953,0.005,1.829,0.727,1.829,1.506
			c0,5.98,0,11.963,0,17.943c0,0.842-0.801,1.434-1.829,1.359C96.064,101.862,91.791,101.634,87.516,101.483z M96.674,97.515
			c0-3.92,0-7.841,0-11.762c-1.83-0.031-3.662-0.058-5.493-0.081c0,3.869,0,7.738,0,11.607
			C93.013,97.347,94.844,97.425,96.674,97.515z"/>
		
			<linearGradient id="SVGID_12_" gradientUnits="userSpaceOnUse" x1="-7.4082" y1="152.6191" x2="-7.1826" y2="152.6191" gradientTransform="matrix(77.0879 0 0 -77.0879 656.3311 11856.915)">
			<stop  offset="0" style="stop-color:#C1B378"/>
			<stop  offset="1" style="stop-color:#FFD066"/>
		</linearGradient>
		<path fill="url(#SVGID_12_)" d="M87.516,101.483l0.016-0.45c-0.479-0.017-0.839-0.153-1.062-0.337
			c-0.113-0.092-0.194-0.194-0.249-0.31c-0.057-0.115-0.087-0.245-0.087-0.4c0-5.748,0-11.497,0-17.246l0,0
			c0.001-0.128,0.03-0.242,0.089-0.354c0.087-0.165,0.244-0.322,0.466-0.438s0.504-0.188,0.821-0.188h0.004
			c4.275,0.011,8.549,0.029,12.818,0.054c0.362,0,0.729,0.146,0.988,0.359c0.129,0.106,0.229,0.229,0.296,0.349
			s0.096,0.237,0.096,0.347c0,5.98,0,11.963,0,17.943c0,0.131-0.028,0.245-0.079,0.35c-0.076,0.154-0.209,0.293-0.4,0.396
			c-0.19,0.104-0.438,0.168-0.724,0.168c-0.046,0-0.093-0.001-0.142-0.005c-4.274-0.307-8.555-0.536-12.836-0.687L87.516,101.483
			l-0.016,0.452c4.27,0.149,8.538,0.378,12.803,0.684c0.068,0.006,0.138,0.008,0.206,0.008c0.563,0,1.078-0.17,1.467-0.486
			c0.195-0.158,0.356-0.355,0.466-0.583c0.112-0.225,0.173-0.481,0.173-0.747c0-5.98,0-11.963,0-17.943
			c0-0.28-0.079-0.547-0.207-0.78c-0.193-0.352-0.494-0.638-0.851-0.844c-0.357-0.206-0.776-0.33-1.221-0.332
			c-4.27-0.024-8.542-0.043-12.82-0.056H87.51c-0.605,0.001-1.159,0.184-1.577,0.511c-0.209,0.164-0.385,0.366-0.508,0.6
			c-0.122,0.232-0.193,0.498-0.193,0.774l0,0c0,5.749,0,11.498,0,17.246c0,0.281,0.06,0.55,0.175,0.79
			c0.174,0.362,0.469,0.65,0.83,0.844s0.791,0.298,1.263,0.315L87.516,101.483z M96.674,97.515h0.451c0-3.92,0-7.841,0-11.762
			v-0.444l-0.443-0.006c-1.832-0.032-3.664-0.059-5.496-0.082l-0.456-0.005v0.456c0,3.869,0,7.738,0,11.607v0.435l0.434,0.017
			c1.83,0.065,3.66,0.146,5.488,0.235l0.474,0.023v-0.475H96.674l0.022-0.45c-1.833-0.09-3.665-0.169-5.5-0.236l-0.016,0.451h0.45
			c0-3.869,0-7.738,0-11.607h-0.45l-0.007,0.452c1.832,0.022,3.663,0.049,5.493,0.079l0.007-0.45h-0.451c0,3.921,0,7.842,0,11.762
			H96.674l0.022-0.45L96.674,97.515z"/>
		<path fill="#282828" d="M106.734,102.689c-1.104-0.103-1.828-0.76-1.828-1.672c0-6.039,0-12.078,0-18.117
			c0-0.849,0.8-1.504,1.828-1.498c4.266,0.03,8.523,0.066,12.774,0.108c0.95,0.008,1.822,0.798,1.822,1.646c0,6.51,0,13.02,0,19.527
			c0,0.919-0.797,1.524-1.822,1.392C115.258,103.536,111,103.073,106.734,102.689z M115.864,98.884c0-4.221,0-8.439,0-12.66
			c-1.824-0.058-3.65-0.114-5.476-0.164c0,4.115,0,8.231,0,12.347C112.214,98.555,114.04,98.714,115.864,98.884z"/>
		
			<linearGradient id="SVGID_13_" gradientUnits="userSpaceOnUse" x1="-8.2935" y1="152.6729" x2="-8.0679" y2="152.6729" gradientTransform="matrix(76.835 0 0 -76.835 741.7075 11823.3496)">
			<stop  offset="0" style="stop-color:#C1B378"/>
			<stop  offset="1" style="stop-color:#FFD066"/>
		</linearGradient>
		<path fill="url(#SVGID_13_)" d="M106.734,102.689l0.041-0.45c-0.475-0.043-0.833-0.204-1.065-0.415
			c-0.116-0.106-0.201-0.226-0.261-0.358c-0.059-0.133-0.091-0.279-0.091-0.448c0-6.039,0-12.078,0-18.117v-0.027l-0.004-0.026
			l-0.445,0.052h0.449c0-0.035-0.004-0.052-0.004-0.052l-0.445,0.052h0.449c0-0.14,0.031-0.267,0.092-0.387
			c0.089-0.18,0.247-0.344,0.465-0.465c0.219-0.118,0.494-0.193,0.806-0.193h0.011c4.264,0.029,8.522,0.066,12.773,0.108h0.001l0,0
			c0.349,0.002,0.708,0.154,0.967,0.392c0.131,0.116,0.235,0.253,0.304,0.392c0.069,0.138,0.104,0.277,0.104,0.412
			c0,6.51,0,13.02,0,19.527c-0.003,0.299-0.108,0.516-0.291,0.683c-0.184,0.165-0.456,0.276-0.804,0.276
			c-0.07,0-0.143-0.004-0.219-0.015l0,0c-4.258-0.542-8.521-1.004-12.791-1.39L106.734,102.689l-0.041,0.448
			c4.26,0.384,8.513,0.847,12.76,1.387h-0.001c0.113,0.013,0.224,0.021,0.333,0.021c0.542,0.001,1.041-0.177,1.408-0.508
			c0.368-0.33,0.592-0.816,0.589-1.354c0-6.508,0-13.018,0-19.527c0-0.29-0.075-0.567-0.198-0.816
			c-0.188-0.372-0.483-0.686-0.841-0.911c-0.357-0.225-0.781-0.365-1.23-0.37l0,0c-4.251-0.042-8.511-0.078-12.775-0.109h-0.017
			c-0.607,0.002-1.161,0.193-1.576,0.536c-0.208,0.171-0.381,0.381-0.501,0.62c-0.121,0.241-0.188,0.512-0.188,0.792
			c0,0.036,0.005,0.054,0.005,0.054l0.446-0.052h-0.451c0,6.039,0,12.078,0,18.117c0,0.288,0.058,0.564,0.17,0.815
			c0.167,0.376,0.452,0.687,0.809,0.907c0.358,0.22,0.787,0.354,1.259,0.397L106.734,102.689z M115.864,98.884h0.45
			c0-4.221,0-8.439,0-12.66v-0.437l-0.437-0.015c-1.824-0.058-3.651-0.113-5.476-0.164l-0.466-0.012v0.463c0,4.115,0,8.231,0,12.347
			v0.416l0.415,0.034c1.824,0.146,3.647,0.307,5.47,0.478l0.493,0.046v-0.496H115.864l0.041-0.449
			c-1.825-0.17-3.652-0.329-5.479-0.479l-0.037,0.45h0.451c0-4.115,0-8.231,0-12.347h-0.451l-0.012,0.451
			c1.824,0.051,3.648,0.104,5.472,0.164l0.016-0.451h-0.452c0,4.221,0,8.439,0,12.66H115.864l0.041-0.449L115.864,98.884z"/>
		<path fill="#282828" d="M123.15,104.56c0-1.645,0-3.287,0-4.931c0.607,0.066,1.215,0.135,1.82,0.205c0-4.428,0-8.856,0-13.284
			c-0.605-0.023-1.213-0.047-1.82-0.07c0-1.644,0-3.285,0-4.93c2.428,0.026,4.853,0.054,7.273,0.084
			c2.42,4.603,4.837,9.41,7.252,14.464c0-4.789,0-9.578,0-14.366c2.415,0.033,4.825,0.071,7.23,0.107c0,1.888,0,3.774,0,5.661
			c-0.601-0.033-1.201-0.066-1.806-0.099c0,4.969,0,9.937,0,14.906c0.604,0.095,1.205,0.191,1.806,0.29c0,1.887,0,3.774,0,5.66
			c-2.405-0.487-4.815-0.948-7.23-1.385c-2.415-5.226-4.832-10.195-7.252-14.951c0,4.573,0,9.146,0,13.718
			C128.003,105.254,125.578,104.894,123.15,104.56z"/>
		
			<linearGradient id="SVGID_14_" gradientUnits="userSpaceOnUse" x1="-6.8486" y1="152.2373" x2="-6.623" y2="152.2373" gradientTransform="matrix(100.4805 0 0 -100.4805 810.8223 15391.748)">
			<stop  offset="0" style="stop-color:#C1B378"/>
			<stop  offset="1" style="stop-color:#FFD066"/>
		</linearGradient>
		<path fill="url(#SVGID_14_)" d="M123.15,104.56h0.451c0-1.645,0-3.287,0-4.931h-0.451l-0.049,0.447
			c0.606,0.067,1.212,0.136,1.818,0.205l0.502,0.058v-0.505c0-4.428,0-8.856,0-13.284v-0.434l-0.434-0.017
			c-0.606-0.023-1.213-0.047-1.819-0.07l-0.019,0.45h0.451c0-1.644,0-3.285,0-4.93h-0.451L123.146,82
			c2.426,0.027,4.85,0.056,7.271,0.085l0.007-0.451l-0.4,0.21c2.419,4.599,4.835,9.401,7.245,14.448l0.858,1.796v-1.99
			c0-4.789,0-9.578,0-14.366h-0.451l-0.006,0.45c2.413,0.034,4.824,0.071,7.23,0.108l0.006-0.451h-0.449c0,1.888,0,3.774,0,5.661
			h0.449l0.025-0.449c-0.601-0.034-1.203-0.068-1.806-0.101l-0.475-0.025v0.477c0,4.969,0,9.937,0,14.906v0.386l0.38,0.06
			c0.603,0.094,1.203,0.191,1.804,0.288l0.071-0.443h-0.449c0,1.887,0,3.774,0,5.66h0.449l0.091-0.441
			c-2.409-0.489-4.824-0.95-7.241-1.388l-0.08,0.444l0.409-0.19c-2.416-5.23-4.837-10.205-7.26-14.965l-0.854-1.676v1.88
			c0,4.573,0,9.146,0,13.718h0.452l0.07-0.446c-2.424-0.386-4.852-0.746-7.281-1.081L123.15,104.56h0.451H123.15l-0.06,0.447
			c2.422,0.334,4.844,0.692,7.261,1.078l0.521,0.083v-0.528c0-4.572,0-9.145,0-13.718h-0.449l-0.403,0.204
			c2.419,4.75,4.834,9.715,7.246,14.936l0.099,0.213l0.23,0.042c2.411,0.436,4.818,0.896,7.222,1.385l0.541,0.108v-0.552
			c0-1.886,0-3.773,0-5.66v-0.385l-0.379-0.062c-0.603-0.098-1.204-0.193-1.808-0.29l-0.071,0.446h0.452c0-4.97,0-9.938,0-14.906
			h-0.452l-0.023,0.449c0.603,0.034,1.204,0.066,1.805,0.101l0.477,0.026V87.5c0-1.887,0-3.773,0-5.661v-0.442l-0.443-0.008
			c-2.407-0.038-4.818-0.075-7.233-0.108l-0.457-0.006v0.457c0,4.788,0,9.577,0,14.366h0.451l0.407-0.194
			c-2.417-5.06-4.838-9.871-7.261-14.479l-0.125-0.238l-0.269-0.003c-2.421-0.031-4.846-0.059-7.272-0.085l-0.456-0.005v0.456
			c0,1.645,0,3.286,0,4.93v0.434l0.435,0.018c0.605,0.023,1.212,0.046,1.818,0.069l0.018-0.45h-0.451c0,4.428,0,8.856,0,13.284
			h0.451l0.052-0.449c-0.607-0.069-1.214-0.138-1.821-0.205l-0.501-0.055v0.504c0,1.644,0,3.286,0,4.931v0.393l0.391,0.055
			L123.15,104.56z"/>
	</g>
	<g>
		<path fill="#FFFFFF" d="M45.033,49.357c-0.337,0-0.62-0.043-0.847-0.129V48.19c0.29,0.073,0.541,0.108,0.754,0.108
			c0.674,0,1.012-0.427,1.012-1.28v-7.316h1.239v7.274c0,0.772-0.183,1.361-0.55,1.769C46.274,49.153,45.739,49.357,45.033,49.357z"
			/>
		<path fill="#FFFFFF" d="M53.831,47.251l-0.754-2.096h-2.886l-0.738,2.096h-1.301l2.824-7.58h1.342l2.825,7.58H53.831z
			 M52.752,44.091l-0.707-2.055c-0.052-0.138-0.124-0.355-0.215-0.651s-0.154-0.513-0.188-0.65
			c-0.093,0.423-0.229,0.886-0.408,1.389l-0.682,1.967H52.752z"/>
		<path fill="#FFFFFF" d="M59.402,47.251l-2.19-6.304h-0.04c0.058,0.936,0.087,1.813,0.087,2.633v3.671h-1.12v-7.548h1.74
			l2.096,6.004h0.031l2.158-6.004h1.746v7.548h-1.188v-3.733c0-0.375,0.01-0.864,0.029-1.466c0.019-0.603,0.035-0.968,0.049-1.095
			h-0.042l-2.267,6.294H59.402z"/>
		<path fill="#FFFFFF" d="M71.814,39.703v4.884c0,0.558-0.12,1.046-0.358,1.463c-0.24,0.419-0.586,0.741-1.039,0.966
			c-0.452,0.225-0.994,0.338-1.623,0.338c-0.937,0-1.665-0.248-2.185-0.744c-0.52-0.495-0.779-1.177-0.779-2.045v-4.863h1.239v4.775
			c0,0.623,0.144,1.083,0.434,1.378c0.289,0.296,0.732,0.444,1.331,0.444c1.163,0,1.746-0.611,1.746-1.833v-4.765H71.814z"/>
		<path fill="#FFFFFF" d="M80.033,47.251h-1.512l-3.712-6.016h-0.041l0.026,0.336c0.048,0.64,0.071,1.226,0.071,1.755v3.924h-1.119
			v-7.548h1.497l3.702,5.984h0.031c-0.007-0.08-0.02-0.368-0.041-0.865c-0.021-0.498-0.03-0.886-0.03-1.165v-3.955h1.129V47.251z"/>
		<path fill="#FFFFFF" d="M86.711,47.251l-0.755-2.096H83.07l-0.738,2.096h-1.301l2.823-7.58h1.343l2.825,7.58H86.711z
			 M85.631,44.091l-0.707-2.055c-0.052-0.138-0.122-0.355-0.214-0.651s-0.154-0.513-0.189-0.65
			c-0.093,0.423-0.229,0.886-0.408,1.389l-0.68,1.967H85.631z"/>
		<path fill="#FFFFFF" d="M89.018,39.703h2.241c1.04,0,1.79,0.151,2.254,0.454c0.463,0.303,0.694,0.782,0.694,1.436
			c0,0.441-0.114,0.807-0.341,1.1c-0.228,0.293-0.554,0.477-0.981,0.553v0.051c0.53,0.1,0.921,0.296,1.17,0.591
			c0.249,0.295,0.375,0.693,0.375,1.195c0,0.678-0.236,1.209-0.71,1.593c-0.474,0.383-1.133,0.576-1.976,0.576h-2.727V39.703z
			 M90.252,42.821h1.188c0.518,0,0.894-0.082,1.132-0.245c0.236-0.164,0.355-0.442,0.355-0.834c0-0.354-0.129-0.611-0.385-0.77
			c-0.257-0.158-0.664-0.237-1.222-0.237h-1.068V42.821z M90.252,43.823v2.39h1.312c0.517,0,0.905-0.098,1.17-0.296
			c0.263-0.198,0.396-0.51,0.396-0.937c0-0.393-0.136-0.683-0.404-0.873c-0.268-0.189-0.676-0.284-1.223-0.284H90.252z"/>
		<path fill="#FFFFFF" d="M100.682,47.251l-0.754-2.096h-2.887l-0.737,2.096h-1.302l2.824-7.58h1.343l2.824,7.58H100.682z
			 M99.603,44.091l-0.707-2.055c-0.052-0.138-0.123-0.355-0.215-0.651c-0.091-0.296-0.154-0.513-0.188-0.65
			c-0.093,0.423-0.229,0.886-0.408,1.389l-0.682,1.967H99.603z"/>
		<path fill="#FFFFFF" d="M109.279,47.251h-1.514l-3.713-6.016h-0.041l0.025,0.336c0.049,0.64,0.072,1.226,0.072,1.755v3.924h-1.12
			v-7.548h1.498l3.701,5.984h0.031c-0.007-0.08-0.021-0.368-0.041-0.865c-0.02-0.498-0.031-0.886-0.031-1.165v-3.955h1.132V47.251z"
			/>
		<path fill="#FFFFFF" d="M117.034,47.251h-1.431l-2.37-3.419l-0.728,0.594v2.825h-1.234v-7.548h1.234v3.604
			c0.336-0.413,0.673-0.811,1.007-1.193l2.039-2.411h1.404c-1.318,1.548-2.264,2.651-2.834,3.309L117.034,47.251z"/>
	</g>
	<linearGradient id="SVGID_15_" gradientUnits="userSpaceOnUse" x1="59.1953" y1="118.2148" x2="116.6885" y2="118.2148">
		<stop  offset="0" style="stop-color:#FFD066"/>
		<stop  offset="1" style="stop-color:#E46B2E"/>
	</linearGradient>
	<path fill="url(#SVGID_15_)" d="M59.195,110.829c0,0,48.785,2.466,57.493,16.811c0,0-9.61-8.862,0-15.073
		C116.688,112.566,89.508,105.382,59.195,110.829z"/>
	<g>
		
			<radialGradient id="SVGID_16_" cx="120.2109" cy="119.7725" r="7.6748" fx="115.9544" fy="121.1928" gradientUnits="userSpaceOnUse">
			<stop  offset="0" style="stop-color:#F37F81"/>
			<stop  offset="1" style="stop-color:#BE2026"/>
		</radialGradient>
		<circle fill-rule="evenodd" clip-rule="evenodd" fill="url(#SVGID_16_)" cx="120.21" cy="119.772" r="7.675"/>
		<g>
			<g>
				<path fill="#FFFFFF" d="M114.808,122.521l-0.005-0.266c0.146-0.005,0.293-0.01,0.438-0.018l0.017,0.266
					C115.106,122.513,114.957,122.519,114.808,122.521z M113.875,122.5c-0.151-0.009-0.302-0.022-0.447-0.037l0.028-0.266
					c0.144,0.016,0.289,0.027,0.436,0.038L113.875,122.5z M116.186,122.412l-0.037-0.264c0.144-0.02,0.291-0.043,0.434-0.068
					l0.047,0.263C116.482,122.369,116.332,122.393,116.186,122.412z M117.54,122.145l-0.066-0.259
					c0.141-0.036,0.282-0.075,0.424-0.117l0.074,0.256C117.829,122.067,117.684,122.107,117.54,122.145z M118.854,121.726
					l-0.095-0.25c0.137-0.051,0.273-0.104,0.408-0.162l0.104,0.246C119.134,121.618,118.995,121.673,118.854,121.726z
					 M120.117,121.167l-0.122-0.237c0.13-0.065,0.261-0.134,0.389-0.205l0.129,0.233
					C120.381,121.03,120.248,121.101,120.117,121.167z M121.313,120.481l-0.143-0.225c0.121-0.077,0.244-0.16,0.365-0.242l0.15,0.22
					C121.563,120.319,121.437,120.401,121.313,120.481z M122.436,119.686l-0.163-0.212c0.114-0.088,0.229-0.181,0.342-0.274
					l0.171,0.206C122.67,119.5,122.553,119.594,122.436,119.686z M123.484,118.792l-0.182-0.196
					c0.107-0.099,0.213-0.199,0.318-0.302l0.187,0.19C123.7,118.588,123.593,118.691,123.484,118.792z M124.457,117.817l-0.197-0.18
					c0.099-0.107,0.199-0.218,0.296-0.327l0.2,0.177C124.656,117.599,124.557,117.71,124.457,117.817z M125.354,116.776
					l-0.207-0.167c0.091-0.112,0.182-0.229,0.272-0.346l0.21,0.164C125.539,116.545,125.446,116.662,125.354,116.776z"/>
			</g>
			<g>
				<path fill="#FFFFFF" d="M126.184,115.677l-0.218-0.154c0.043-0.062,0.086-0.123,0.13-0.186l0.22,0.15
					C126.271,115.551,126.227,115.614,126.184,115.677z"/>
			</g>
		</g>
		<g>
			<g>
				<path fill="#FFFFFF" d="M115.202,124.6c-0.151-0.004-0.303-0.013-0.449-0.024l0.021-0.266c0.143,0.011,0.29,0.019,0.437,0.023
					L115.202,124.6z M116.137,124.594l-0.014-0.266c0.145-0.008,0.292-0.018,0.438-0.03l0.023,0.266
					C116.436,124.576,116.284,124.587,116.137,124.594z M117.51,124.443l-0.044-0.263c0.143-0.023,0.287-0.051,0.431-0.081
					l0.053,0.262C117.805,124.392,117.656,124.419,117.51,124.443z M118.856,124.137l-0.075-0.257
					c0.139-0.041,0.281-0.084,0.419-0.13l0.083,0.254C119.142,124.051,118.998,124.095,118.856,124.137z M120.157,123.679
					l-0.102-0.247c0.134-0.055,0.27-0.114,0.402-0.174l0.11,0.242C120.434,123.563,120.295,123.621,120.157,123.679z
					 M121.402,123.083l-0.128-0.233c0.128-0.069,0.257-0.144,0.382-0.218l0.135,0.229
					C121.663,122.938,121.532,123.012,121.402,123.083z M122.577,122.361l-0.149-0.219c0.119-0.082,0.239-0.167,0.357-0.253
					l0.156,0.215C122.822,122.192,122.699,122.28,122.577,122.361z M123.677,121.533l-0.17-0.206
					c0.112-0.093,0.224-0.188,0.334-0.285l0.175,0.2C123.904,121.341,123.79,121.438,123.677,121.533z M124.697,120.609l-0.187-0.19
					c0.104-0.101,0.207-0.207,0.31-0.312l0.191,0.185C124.908,120.399,124.803,120.506,124.697,120.609z M125.64,119.607l-0.2-0.176
					c0.096-0.109,0.191-0.223,0.285-0.335l0.205,0.171C125.834,119.382,125.737,119.497,125.64,119.607z M126.507,118.54
					l-0.213-0.161c0.088-0.115,0.176-0.233,0.262-0.354l0.216,0.157C126.685,118.303,126.595,118.423,126.507,118.54z"/>
			</g>
			<g>
				<path fill="#FFFFFF" d="M127.304,117.415l-0.222-0.147c0.041-0.063,0.082-0.125,0.124-0.189l0.225,0.146
					C127.388,117.288,127.346,117.352,127.304,117.415z"/>
			</g>
		</g>
	</g>
</g>
<g>
	
		<linearGradient id="SVGID_17_" gradientUnits="userSpaceOnUse" x1="3.8169" y1="156.7969" x2="4.042" y2="156.7969" gradientTransform="matrix(-3.977523e-006 -90.9951 -90.9951 3.977523e-006 14342.2656 479.3719)">
		<stop  offset="0" style="stop-color:#FFFFFF"/>
		<stop  offset="0.0016" style="stop-color:#FFFEFD"/>
		<stop  offset="0.119" style="stop-color:#FEE2C4"/>
		<stop  offset="0.2381" style="stop-color:#FDCC9A"/>
		<stop  offset="0.3597" style="stop-color:#FCBA78"/>
		<stop  offset="0.4824" style="stop-color:#FAAB5C"/>
		<stop  offset="0.6066" style="stop-color:#F9A044"/>
		<stop  offset="0.7327" style="stop-color:#F89834"/>
		<stop  offset="0.8622" style="stop-color:#F7942A"/>
		<stop  offset="1" style="stop-color:#F79226"/>
	</linearGradient>
	<path fill="url(#SVGID_17_)" d="M71.567,112.075l5.074,19.616c0.063,0.242,0.309,0.387,0.551,0.325
		c0.24-0.063,0.386-0.31,0.323-0.55l-5.073-19.618c-0.063-0.24-0.309-0.386-0.55-0.324
		C71.649,111.588,71.505,111.835,71.567,112.075"/>
	
		<linearGradient id="SVGID_18_" gradientUnits="userSpaceOnUse" x1="4.1816" y1="157.79" x2="4.4067" y2="157.79" gradientTransform="matrix(-3.584163e-006 -81.9961 -81.9961 3.584163e-006 13019.9121 474.8725)">
		<stop  offset="0" style="stop-color:#FFFFFF"/>
		<stop  offset="0.0016" style="stop-color:#FFFEFD"/>
		<stop  offset="0.119" style="stop-color:#FEE2C4"/>
		<stop  offset="0.2381" style="stop-color:#FDCC9A"/>
		<stop  offset="0.3597" style="stop-color:#FCBA78"/>
		<stop  offset="0.4824" style="stop-color:#FAAB5C"/>
		<stop  offset="0.6066" style="stop-color:#F9A044"/>
		<stop  offset="0.7327" style="stop-color:#F89834"/>
		<stop  offset="0.8622" style="stop-color:#F7942A"/>
		<stop  offset="1" style="stop-color:#F79226"/>
	</linearGradient>
	<path fill="url(#SVGID_18_)" d="M84.088,113.856l-5.505,17.589c-0.075,0.237,0.058,0.49,0.294,0.564
		c0.239,0.075,0.492-0.059,0.565-0.297l5.506-17.587c0.074-0.238-0.057-0.49-0.295-0.565
		C84.416,113.486,84.163,113.619,84.088,113.856"/>
	
		<linearGradient id="SVGID_19_" gradientUnits="userSpaceOnUse" x1="4.1865" y1="157.6289" x2="4.4121" y2="157.6289" gradientTransform="matrix(-3.584334e-006 -82 -82 3.584334e-006 13003.5 475.4995)">
		<stop  offset="0" style="stop-color:#FFFFFF"/>
		<stop  offset="0.0016" style="stop-color:#FFFEFD"/>
		<stop  offset="0.119" style="stop-color:#FEE2C4"/>
		<stop  offset="0.2381" style="stop-color:#FDCC9A"/>
		<stop  offset="0.3597" style="stop-color:#FCBA78"/>
		<stop  offset="0.4824" style="stop-color:#FAAB5C"/>
		<stop  offset="0.6066" style="stop-color:#F9A044"/>
		<stop  offset="0.7327" style="stop-color:#F89834"/>
		<stop  offset="0.8622" style="stop-color:#F7942A"/>
		<stop  offset="1" style="stop-color:#F79226"/>
	</linearGradient>
	<path fill="url(#SVGID_19_)" d="M77.478,114.135v17.589c0,0.249,0.202,0.451,0.451,0.451s0.451-0.202,0.451-0.451v-17.589
		c0-0.249-0.202-0.451-0.451-0.451S77.478,113.886,77.478,114.135"/>
</g>
</svg>
