<?xml version="1.0" encoding="utf-8"?>
<!-- Generator: Adobe Illustrator 16.0.0, SVG Export Plug-In . SVG Version: 6.00 Build 0)  -->
<!DOCTYPE svg PUBLIC "-//W3C//DTD SVG 1.1//EN" "http://www.w3.org/Graphics/SVG/1.1/DTD/svg11.dtd">
<svg version="1.1" id="flag-icon-css-am" xmlns="http://www.w3.org/2000/svg" xmlns:xlink="http://www.w3.org/1999/xlink" x="0px"
	 y="0px" width="150px" height="150px" viewBox="0 0 150 150" enable-background="new 0 0 150 150" xml:space="preserve">
<g>
	<path fill-rule="evenodd" clip-rule="evenodd" fill="#209198" d="M97.181,78.938c0.478,0.894,0.532,1.816,0.412,2.828
		c-0.317,2.706-0.556,5.421-0.629,8.15c-0.023,0.907,0.172,1.342,1.206,1.189c0.791-0.116,1.612-0.023,2.37-0.023
		c-0.478,1.436-1.581,2.16-2.792,2.754c-2.674,1.315-1.634,3.808-1.837,5.92c0.139-0.313,0.274-0.626,0.412-0.939
		c0.842,0.412,0.28,1.072,0.351,1.646c0.22,1.739-0.541,3.245-0.936,4.835c-0.2,0.808-0.514,1.567-1.388,2.024
		c-1.049,0.547-1.42,0.436-1.531-0.788c-0.289-3.162-0.52-6.329-0.318-9.508c0.114-1.805,0.104-1.778-1.623-1.496
		c-1.706,0.28-3.21,1.103-4.719,1.837c-0.74,0.363-1.48,1.199-1.731,1.979c-0.537,1.67-1.728,2.904-2.675,4.238
		c-0.967,1.356-2.131,2.697-3.54,3.717c-0.149,0.107-0.284,0.089-0.453,0.053c-0.917-0.198-1.672-1.622-1.281-2.482
		c0.651-1.433,1.323-2.859,2.048-4.415c-1.088,0-1.983,0.334-2.581,0.913c-1.621,1.569-3.757,2.085-5.647,3.101
		c-2.07,1.112-4.332,1.786-6.356,2.968c-1.626,0.951-3.081,0.439-4.391-0.568c-1.147-0.88-1.291-2.157-1.004-3.528
		c1.047-5.033,2.545-9.923,4.708-14.592c1.366-2.951,2.744-5.898,4.214-8.798c0.331-0.652,0.641-1.733,1.855-1.278
		c0.592,0.401,0.849,1.304,1.874,1.055c2.003-0.484,4.028-0.88,6.045-1.313c0.979,0.045,1.959,0.088,2.939,0.131
		c1.206,0.097,1.033,0.653,0.448,1.347c-0.248,1.483-1.431,3.093-2.486,3.21c-1.204,0.133-2.41,0.359-3.578,0.678
		c-1.325,0.362-2.891,0.66-3.723,1.648c-0.999,1.189-1.64,2.742-2.517,4.123c0.475,0.182,0.771,0.005,1.081-0.069
		c2.375-0.578,4.785-0.947,7.222-1.122c0.354-0.024,0.899-0.187,1.038,0.349c0.112,0.431-0.318,0.58-0.627,0.783
		c-0.48,0.314-1.094,0.688,0.092,0.867c0.321,0.049,0.387,0.331,0.163,0.535c-0.495,0.449-0.996,1.146-1.563,1.221
		c-2.645,0.343-4.965,1.739-7.565,2.191c-1.509,0.263-2.68,0.901-2.989,2.609c-0.136,0.749-0.537,1.446-0.776,2.179
		c-0.247,0.758-0.803,1.71-0.18,2.274c0.54,0.485,1.448-0.077,2.145-0.385c3.314-1.456,6.661-2.822,10.166-3.768
		c0.254-0.067,0.474-0.159,0.548-0.416c0.322-1.1,1.216-1.459,2.197-1.687c1.07-0.246,1.918-0.712,2.495-1.742
		c0.931-1.668,1.954-3.287,3.006-4.883c1.834-2.781,3.772-5.496,5.146-8.553c0.12-0.161,0.265-0.311,0.352-0.486
		c0.845-1.682,2.11-2.447,4.064-2.209c0.996,0.122,1.578,0.718,2.271,1.24C96.807,78.629,96.991,78.785,97.181,78.938z
		 M88.562,92.669c1.328-0.502,2.484-0.854,3.695-0.957c0.277-0.023,0.459-0.19,0.46-0.473c0.01-1.541,0.004-3.081,0.004-4.786
		C91.308,88.565,90.004,90.513,88.562,92.669z"/>
	<path fill-rule="evenodd" clip-rule="evenodd" fill="#CD4E9D" d="M97.181,78.938c-0.189-0.153-0.374-0.31-0.568-0.456
		c-0.693-0.522-1.275-1.118-2.271-1.24c-1.954-0.238-3.22,0.527-4.064,2.209c-0.087,0.176-0.231,0.325-0.352,0.486
		c-3.097-0.015-6.196-0.029-9.294-0.044c0.585-0.693,0.758-1.25-0.448-1.347c-0.002-8.376,0.005-16.753-0.026-25.13
		c-0.003-0.844,0.222-1.117,1.089-1.106c3.536,0.046,7.075,0.054,10.613,0.012c7.433-0.088,9.782,4.365,8.822,10.677
		c-0.331,2.18-0.547,4.149,0.037,6.317c0.519,1.917,0.263,3.965-0.389,5.892C99.773,76.857,98.716,78.104,97.181,78.938z
		 M90.122,62.725c0-0.018,0-0.036,0-0.054c0.853,0,1.712,0.071,2.557-0.019c0.983-0.104,1.36-0.809,1.317-1.736
		c-0.044-0.924-0.455-1.575-1.473-1.591c-1.546-0.025-3.091-0.003-4.636-0.022c-0.498-0.005-0.697,0.161-0.751,0.692
		c-0.273,2.681-0.247,2.73,2.375,2.729C89.714,62.725,89.919,62.725,90.122,62.725z M90.121,69.615c0-0.002,0-0.003,0-0.006
		c-0.77,0-1.539,0.002-2.307-0.001c-0.352-0.001-0.656,0.05-0.656,0.502c0,0.809-0.003,1.618,0.002,2.427
		c0.002,0.453,0.315,0.496,0.664,0.495c1.538-0.004,3.078,0.019,4.615-0.016c1.029-0.024,1.524-0.644,1.563-1.642
		c0.04-1.063-0.502-1.686-1.574-1.75C91.661,69.577,90.89,69.615,90.121,69.615z"/>
	<path fill-rule="evenodd" clip-rule="evenodd" fill="#CD4E9D" d="M141.277,64.561c0-3.539,0.001-7.077,0-10.615
		c0-1.615-0.001-1.615,1.669-1.616c1.465-0.001,2.932,0.025,4.396-0.013c0.676-0.018,0.92,0.189,0.918,0.896
		c-0.02,8.589-0.021,17.178,0.003,25.768c0.003,0.771-0.265,0.968-0.988,0.948c-1.668-0.043-3.34-0.063-5.005,0.008
		c-0.824,0.035-1.226-0.271-1.589-0.979c-1.701-3.333-3.455-6.641-5.2-9.952c-0.242-0.457-0.411-0.971-0.845-1.329
		c-0.393,0.334-0.211,0.769-0.213,1.142c-0.017,3.338-0.036,6.677,0.009,10.015c0.012,0.848-0.227,1.135-1.094,1.102
		c-1.624-0.064-3.254-0.041-4.882-0.008c-0.65,0.014-0.942-0.131-0.94-0.868c0.021-8.63,0.019-17.26,0.003-25.89
		c-0.002-0.63,0.192-0.862,0.835-0.852c1.833,0.032,3.664,0.049,5.495-0.004c0.772-0.023,0.948,0.508,1.205,0.996
		c1.803,3.419,3.594,6.844,5.393,10.265c0.183,0.349,0.386,0.688,0.578,1.033C141.109,64.591,141.194,64.576,141.277,64.561z"/>
	<path fill-rule="evenodd" clip-rule="evenodd" fill="#CD4E9D" d="M30.276,60.392c0.049,4.413-0.292,8.756-1.918,12.937
		c-1.7,4.367-4.94,6.381-9.493,6.514c-1.585,0.047-3.174-0.014-4.759,0.031c-0.713,0.021-1.015-0.152-0.998-0.939
		c0.048-2.195,0.049-4.395,0-6.589c-0.018-0.796,0.306-0.959,1.006-0.939c1.301,0.038,2.604,0.034,3.906,0.001
		c1.432-0.037,2.019-0.601,2.022-2.014c0.017-5.98,0.017-11.961,0-17.941c-0.004-1.434-0.659-2.058-2.119-2.078
		c-1.912-0.025-3.824-0.032-5.736,0c-0.685,0.012-1.035-0.106-1.016-0.916c0.051-2.196,0.021-4.394,0.014-6.591
		c-0.001-0.48,0-0.895,0.676-0.869c3.084,0.117,6.184-0.253,9.256,0.262c2.921,0.492,5.068,2.039,6.472,4.665
		c1.932,3.613,2.461,7.539,2.68,11.539C30.322,58.437,30.276,59.416,30.276,60.392z"/>
	<path fill-rule="evenodd" clip-rule="evenodd" fill="#CD4E9D" d="M77.243,78.416c-2.018,0.433-4.042,0.828-6.045,1.313
		c-1.025,0.249-1.282-0.653-1.874-1.055c-1.421-2.976-3.258-5.72-4.842-8.606c-0.208-0.38-0.503-0.521-0.903-0.439
		c-0.548,0.111-0.352,0.576-0.354,0.896c-0.016,2.769-0.041,5.537,0.009,8.303c0.016,0.848-0.241,1.212-1.086,1.113
		c-0.073-0.098-0.175-0.185-0.215-0.294c-0.458-1.233-1.614-1.744-2.663-1.85c-1.014-0.103-1.325,1.135-1.77,1.939
		c-0.039,0.07-0.093,0.133-0.141,0.199c-0.921,0.135-1.141-0.275-1.138-1.168c0.034-8.415,0.018-16.831,0.025-25.246
		c0.001-0.53-0.204-1.213,0.744-1.192c4.386,0.094,8.786-0.277,13.158,0.179c3.955,0.413,6,2.405,6.655,6.287
		c0.333,1.976,0.265,3.971-0.353,5.909c-0.601,1.882-1.762,3.318-3.603,4.053c-0.866,0.345-0.745,0.667-0.376,1.301
		C74.085,72.832,75.656,75.628,77.243,78.416z M66.274,59.319c0-0.003,0-0.006,0-0.011c-0.773,0-1.545,0.002-2.316-0.001
		c-0.392,0-0.743,0.031-0.738,0.56c0.007,0.771,0.001,1.544,0,2.315c0,0.34,0.156,0.541,0.51,0.536
		c1.704-0.022,3.415,0.032,5.109-0.104c0.978-0.08,1.278-0.92,1.211-1.818c-0.067-0.875-0.517-1.449-1.461-1.473
		C67.817,59.304,67.045,59.319,66.274,59.319z"/>
	<path fill-rule="evenodd" clip-rule="evenodd" fill="#CD4E9D" d="M107.181,79.957c-1.26-0.014-2.525-0.082-3.782-0.021
		c-0.957,0.045-1.177-0.184-0.908-1.158c1.433-5.171,2.794-10.361,4.184-15.544c0.894-3.338,1.824-6.667,2.681-10.014
		c0.178-0.698,0.477-0.912,1.165-0.901c2.156,0.034,4.316,0.04,6.473-0.003c0.688-0.014,1.019,0.191,1.197,0.872
		c2.284,8.605,4.581,17.207,6.908,25.8c0.221,0.816,0.011,0.971-0.756,0.943c-1.424-0.049-2.85-0.016-4.273-0.016
		c-0.173-1.402-0.963-1.942-2.332-1.672c-0.46-1.762-0.46-1.762-2.271-1.762c-0.767,0-1.532,0-2.299,0c-2.963,0-2.963,0-3.671,2.914
		C108.724,79.583,107.952,79.77,107.181,79.957z M113.869,63.792c-0.068-0.004-0.14-0.007-0.209-0.011
		c-0.45,1.682-0.899,3.365-1.351,5.047c-0.091,0.342-0.313,0.752,0.331,0.762c0.731,0.012,1.461,0,2.192,0.002
		c0.482,0.001,0.518-0.299,0.424-0.654C114.798,67.222,114.332,65.507,113.869,63.792z"/>
	<path fill-rule="evenodd" clip-rule="evenodd" fill="#CD4E9D" d="M43.953,79.937c-1.906-0.114-3.828,0.165-5.722-0.229
		c-3.612-0.756-5.851-3.045-5.946-6.73c-0.172-6.631-0.073-13.269-0.11-19.903c-0.004-0.741,0.411-0.75,0.939-0.747
		c1.628,0.009,3.258,0.048,4.884-0.015c0.865-0.034,1.094,0.255,1.089,1.102c-0.034,5.739-0.019,11.48-0.017,17.219
		c0.001,2.038,0.367,2.396,2.423,2.401c0.773,0.001,1.547,0.006,2.32-0.002c1.665-0.017,2.111-0.443,2.113-2.089
		c0.009-5.781,0.029-11.561-0.019-17.34c-0.008-1.003,0.236-1.356,1.275-1.295c1.542,0.089,3.092,0.049,4.639,0.011
		c0.701-0.017,1.018,0.148,1.014,0.94c-0.037,6.391,0.004,12.781-0.064,19.172c-0.027,2.408-0.813,4.557-2.907,6.02
		c-0.377-0.578-0.769-1.166-1.565-1.138c-0.657,0.022-1.296,0.184-1.685-0.626c-0.165-0.342-0.456,0.004-0.689,0.149
		C44.766,77.557,44.644,78.926,43.953,79.937z"/>
	<path fill-rule="evenodd" clip-rule="evenodd" fill="#209198" d="M43.953,79.937c0.69-1.011,0.813-2.38,1.971-3.102
		c0.233-0.146,0.524-0.491,0.689-0.149c0.389,0.81,1.028,0.648,1.685,0.626c0.796-0.028,1.188,0.56,1.565,1.138
		c1.279,1.463,0.914,2.854,0.077,4.442c-1.265,2.398-2.285,4.927-3.399,7.405c-0.142,0.313-0.225,0.655-0.358,1.056
		c2.141-0.402,4.12-1.028,6.194-1.089c0.675-0.02,0.864-0.547,1.083-1.012c1.433-3.049,2.727-6.158,3.897-9.316
		c0.049-0.066,0.104-0.129,0.142-0.199c0.445-0.805,0.756-2.042,1.77-1.939c1.048,0.105,2.204,0.616,2.663,1.85
		c0.04,0.109,0.142,0.196,0.215,0.294c0.551,1.213,0.307,2.28-0.349,3.433c-1.223,2.146-2.282,4.386-3.469,6.702
		c1.006,0.157,1.954,0.116,2.805,0.827c-0.433,0.365-1.471,0.561-0.475,1.282c0.221,0.161,0.1,0.363-0.125,0.455
		c-0.74,0.304-1.214,1.035-2.177,1.039c-1.127,0.004-1.967,0.518-2.451,1.753c-0.936,2.384-1.878,4.78-2.537,7.236
		c-0.306,1.139-0.367,2.36-0.896,3.469c-0.509,1.067-2.739,1.7-3.708,1.021c-0.349-0.244-0.373-0.557-0.303-0.963
		c0.503-2.923,0.974-5.854,2.015-8.65c0.313-0.842,0.427-1.712,0.564-2.639c-2.271,0.106-4.348,0.79-6.433,1.404
		c-0.859,0.253-0.919,1.188-1.17,1.877c-0.92,2.512-1.77,5.052-2.646,7.58c-0.053,0.15-0.133,0.435-0.17,0.43
		c-1.514-0.193-1.384,1.557-2.369,1.995c-0.515,0.229-1.035,0.739-1.56,0.473c-0.565-0.288-0.604-1.023-0.56-1.616
		c0.11-1.503,0.438-2.971,0.848-4.422c0.427-1.512,0.913-3.013,1.117-4.568c-0.146-0.047-0.221-0.1-0.284-0.088
		c-0.776,0.151-1.649,0.83-2.273-0.127c-0.543-0.832,0.041-3.062,0.835-3.569c0.504-0.323,1.043-0.726,1.604-0.799
		c1.304-0.169,1.805-0.994,2.165-2.095C41.399,87.56,42.683,83.75,43.953,79.937z"/>
	<path fill-rule="evenodd" clip-rule="evenodd" fill="#CD4E9D" d="M2.892,67.656c0-3.498-0.002-6.997,0.001-10.495
		c0.001-1.517,0.124-1.676,1.649-1.726c0.627-0.021,0.851-0.201,0.846-0.842c-0.024-3.417-0.041-6.835,0.008-10.25
		c0.013-0.908-0.878-1.402-0.786-2.372c0.083-0.872,0.261-1.281,1.194-1.178c0.563,0.061,1.138,0.012,1.707,0.012
		c1.591,0.001,2.159,0.961,1.315,2.363c-0.363,0.604-0.416,1.171-0.407,1.842c0.044,3.05,0.049,6.101,0.013,9.152
		c-0.01,0.873,0.112,1.41,1.17,1.268c1.163-0.156,1.592,0.459,1.591,1.58c-0.013,7.159-0.01,14.318,0.016,21.477
		c0.004,0.969-0.331,1.442-1.336,1.43c-1.871-0.022-3.742-0.021-5.613,0.002c-0.981,0.011-1.375-0.41-1.367-1.402
		c0.032-3.619,0.013-7.24,0.013-10.86C2.901,67.656,2.896,67.656,2.892,67.656z"/>
	<path fill-rule="evenodd" clip-rule="evenodd" fill="#209198" d="M107.181,79.957c0.771-0.188,1.543-0.374,2.313-0.563
		c2.7-0.715,5.454-1.052,8.242-1.152c1.369-0.271,2.159,0.27,2.332,1.672c0.09,1.335-0.71,1.709-1.86,2.012
		c-1.117,0.294-2.149,0.916-3.302,1.191c-0.477,0.113-0.672,0.545-0.859,0.962c-2.846,6.376-5.627,12.776-7.348,19.576
		c-0.218,0.861-0.63,1.66-0.844,2.537c-0.217,0.885-2.154,1.763-2.993,1.459c-0.134-0.047-0.327-0.203-0.327-0.312
		c-0.006-1.409-0.865-2.646-0.587-4.16c1.054-5.747,3.052-11.194,5.045-16.65c0.139-0.379,0.254-0.769,0.38-1.154
		c0.07-0.103,0.119-0.211-0.018-0.289c-0.021-0.013-0.104,0.086-0.158,0.133c-1.492,0.836-3.142,1.258-4.756,1.76
		c-0.888,0.275-1.548-0.258-1.313-1.13c0.4-1.485,0.378-3.125,1.801-4.263c0.7-0.56,1.505-0.486,2.209-0.854
		C105.779,80.397,106.497,80.209,107.181,79.957z"/>
	<path fill-rule="evenodd" clip-rule="evenodd" fill="#FEFEFE" d="M107.197,85.219c0.054-0.047,0.138-0.146,0.158-0.133
		c0.137,0.078,0.088,0.187,0.018,0.289C107.31,85.33,107.249,85.277,107.197,85.219z"/>
</g>
</svg>
