<?xml version="1.0" encoding="utf-8"?>
<!-- Generator: Adobe Illustrator 16.0.0, SVG Export Plug-In . SVG Version: 6.00 Build 0)  -->
<!DOCTYPE svg PUBLIC "-//W3C//DTD SVG 1.1//EN" "http://www.w3.org/Graphics/SVG/1.1/DTD/svg11.dtd">
<svg version="1.1" id="flag-icon-css-am" xmlns="http://www.w3.org/2000/svg" xmlns:xlink="http://www.w3.org/1999/xlink" x="0px"
	 y="0px" width="150px" height="150px" viewBox="0 0 150 150" enable-background="new 0 0 150 150" xml:space="preserve">
<g>
	<radialGradient id="SVGID_1_" cx="71.4746" cy="65.6055" r="47.6198" gradientUnits="userSpaceOnUse">
		<stop  offset="0" style="stop-color:#FFFFFF"/>
		<stop  offset="1" style="stop-color:#000000"/>
	</radialGradient>
	<path fill="url(#SVGID_1_)" d="M114.508,29.858l0.006-2.327c0.3,0.001,0.523,0.061,0.585,0.078
		c-0.182-0.053-1.121-0.379-2.115-0.723c-4.438-1.537-13.997-4.846-23.148-7.48c-0.336,0.81-0.699,1.61-1.074,2.402
		c-0.299,0.636-0.617,1.26-0.962,1.863c6.308,1.804,14.146,4.326,23.493,7.56c-1.666,3.606-3.88,9.198-3.837,17.653
		c0.021,4.222,0.896,8.421,1.821,12.867c1.063,5.106,2.163,10.385,1.841,15.657c-0.018,0.266-0.032,0.539-0.048,0.818
		c-0.454,7.901-1.139,19.842-21.563,25.914c-1.184,0.353-3.092,0.733-5.112,1.138c-3.228,0.647-6.564,1.314-8.631,2.16
		c-0.357,0.147-1.385,0.645-3.807,2.289c-0.551-0.445-1.163-0.933-1.62-1.276c-1.832-1.382-6.49-2.555-13.387-4.186
		c-2.74-0.648-6.472-1.533-7.322-1.943c-0.629-0.475-1.43-0.86-2.43-1.346c-4.355-2.105-12.465-6.027-14.025-21.79
		c-0.456-4.605,0.905-11.731,2.106-18.018c0.979-5.129,1.824-9.556,1.76-12.604c-0.171-7.989-2.465-14.192-3.974-17.436
		c1.012-0.383,2.046-0.776,3.112-1.183c10.484-3.993,23.347-8.89,32.831-9.573c-0.102-1.045,0.01-2.104,0.416-3.1
		c0.242-0.594,0.561-1.135,0.937-1.631c-0.073,0.002-0.144,0.001-0.217,0.003c-0.101,0.152-0.197,0.308-0.283,0.468
		c-0.063,0.116-0.239,0.012-0.176-0.104c0.065-0.121,0.136-0.238,0.209-0.353c-10.313,0.392-23.598,5.449-35.375,9.935
		c-1.939,0.738-3.77,1.436-5.544,2.095l-2.657,0.994l1.487,2.416c0.043,0.071,4.353,7.189,4.575,17.567
		c0.055,2.556-0.786,6.963-1.679,11.629c-1.259,6.598-2.688,14.076-2.166,19.351c1.817,18.364,11.824,23.202,16.633,25.528
		c0.668,0.323,1.423,0.688,1.664,0.878c1.008,0.802,3.035,1.327,9.042,2.75c3.916,0.926,10.468,2.477,11.656,3.371
		c0.963,0.729,2.811,2.249,2.829,2.267l1.372,1.131l1.454-1.024c3.253-2.298,4.341-2.792,4.338-2.792
		c1.657-0.679,4.912-1.33,7.783-1.903c2.128-0.429,4.14-0.831,5.525-1.242c23.561-7.004,24.424-22.037,24.887-30.112
		c0.016-0.274,0.03-0.542,0.047-0.803c0.358-5.895-0.805-11.484-1.931-16.891c-0.876-4.21-1.704-8.187-1.724-11.939
		c-0.041-8.263,2.278-13.307,3.873-16.669h0.022l0.618-1.358c0-0.003,0.002-0.006,0.003-0.009v-0.001L114.508,29.858z"/>
</g>
<g>
	<linearGradient id="SVGID_2_" gradientUnits="userSpaceOnUse" x1="109.3018" y1="92.1719" x2="33.2015" y2="28.3162">
		<stop  offset="0" style="stop-color:#B0B0B0"/>
		<stop  offset="1" style="stop-color:#303030"/>
	</linearGradient>
	<path fill="url(#SVGID_2_)" d="M111.433,31.989l0.002-1.549c0.205,0,0.356,0.042,0.387,0.051c-0.16-0.047-1.006-0.348-1.987-0.696
		c-4.12-1.462-13.021-4.624-21.497-7.122c-0.494,0.966-1.038,1.894-1.685,2.749c5.926,1.729,13.314,4.166,22.142,7.3
		c0.188,0.066,0.356,0.127,0.516,0.182c-1.535,3.331-3.841,8.714-3.801,17.135c0.021,3.936,0.823,7.887,1.671,12.069
		c0.993,4.889,2.02,9.946,1.717,15.042c-0.015,0.25-0.029,0.507-0.045,0.771c-0.403,7.218-1.077,19.294-20.388,25.183
		c-1.118,0.342-2.896,0.706-4.777,1.093c-2.96,0.607-6.021,1.236-7.884,2.018c-0.259,0.11-1.242,0.581-3.763,2.357
		c-0.579-0.479-1.306-1.079-1.818-1.473c-1.603-1.241-5.858-2.336-12.167-3.866c-2.79-0.681-6.256-1.521-6.949-1.917
		c-0.54-0.429-1.271-0.792-2.191-1.248c-4.141-2.053-11.847-5.876-13.327-21.204c-0.431-4.471,0.838-11.284,1.958-17.298
		c0.899-4.825,1.675-8.994,1.617-11.813c-0.168-8.062-2.587-14.16-3.92-16.928c1.139-0.44,2.306-0.896,3.52-1.37
		c10.294-4.021,21.869-8.551,30.683-9.138c-0.343-0.99-0.519-2.04-0.458-3.076c-9.271,0.696-20.951,5.256-31.355,9.321
		c-1.794,0.7-3.487,1.362-5.13,1.988l-1.733,0.664l0.958,1.591c0.041,0.068,4.121,6.958,4.332,17.013
		c0.051,2.5-0.733,6.715-1.565,11.182c-1.157,6.213-2.468,13.257-1.995,18.162c1.646,17.047,10.691,21.535,15.039,23.691
		c0.706,0.35,1.374,0.681,1.648,0.905c0.829,0.673,2.891,1.218,8.138,2.492c3.904,0.946,9.801,2.378,11,3.307
		c0.902,0.695,2.62,2.149,2.638,2.164l0.928,0.785l0.985-0.711c3.124-2.261,4.125-2.712,4.132-2.717
		c1.584-0.663,4.624-1.286,7.306-1.839c1.957-0.401,3.804-0.78,5.06-1.163c21.385-6.52,22.165-20.48,22.584-27.979
		c0.014-0.261,0.028-0.516,0.043-0.762c0.327-5.501-0.739-10.758-1.772-15.844c-0.818-4.029-1.592-7.835-1.609-11.467
		c-0.039-8.154,2.233-13.058,3.737-16.303c0.027-0.059,0.054-0.117,0.08-0.174l0.424-0.928L111.433,31.989z"/>
</g>
<linearGradient id="SVGID_3_" gradientUnits="userSpaceOnUse" x1="118.2139" y1="39.9463" x2="35.0542" y2="39.9463">
	<stop  offset="0" style="stop-color:#FF4000"/>
	<stop  offset="1" style="stop-color:#FFC700"/>
</linearGradient>
<path fill-rule="evenodd" clip-rule="evenodd" fill="url(#SVGID_3_)" d="M85.289,71.925c-9.048-6.864-19.055-9.918-30.123-8.966
	c-3.261,0.281-2.809-1.355-2.241-3.239c2.401-7.98,6.576-14.944,12.222-21.052c1.006-1.091,1.939-2.252,2.877-3.35
	c-1.342-1.719-3.231-0.707-5.028-2.207c5.483-5.463,11.761-9.843,18.57-13.569c-0.631-2.002-3.089-1.37-3.899-3.293
	c8.584-5.515,17.552-10.578,27.993-7.182c8.385,2.728,17.581,5.101,21.94,14.378c0.786,1.676,2.558,2.222,4.012,2.993
	c3.589,1.901,4.434,4.933,3.945,8.598c-0.517,3.86-3.434,5.692-6.487,7.292c-1.213,0.636-1.689,0.148-2.017-1.368
	c-0.949-4.384-4.889-6.593-9.344-5.379c-14.889,4.056-24.66,13.547-29.536,28.127c-0.833,2.486-1.489,5.031-2.24,7.544
	C85.9,71.369,85.753,71.451,85.289,71.925z M118.185,21.405c-2.444-2.927-4.42-4.517-7.259-5.186
	C110.064,22.294,114.467,20.561,118.185,21.405z"/>
<path fill-rule="evenodd" clip-rule="evenodd" fill="#FE650A" d="M44.782,71.897c8.328-1.293,16.645-2.652,25.029-0.303
	c5.329,1.494,9.999,4.097,14.067,7.956c-4.938-0.055-9.403-2.107-14.167-2.799C59.35,75.249,50.024,77.06,41.462,83.35
	c-5.102,3.746-10.837,6.561-17.012,8.22c-2.494,0.67-5.087,1.27-8.149,0.023c9.591-5.658,14.377-14.467,17.523-24.302
	c3.133-9.793,8.845-18.165,14.224-26.661c-0.767-1.735-2.77-0.16-3.788-1.993c5.964-7.513,14.421-11.93,22.484-16.765
	c-0.517-1.949-2.944-1.207-3.511-3.033c4.038-2.365,11.135-5.006,15.766-7.173c-1.314,2.753-6.794,4.663-8.029,6.888
	c0.82,1.521,2.699,1.331,4.071,2.838c-5.336,2.784-10.307,5.966-14.689,9.935c-1.297,1.176-4.079,1.131-3.834,3.467
	c0.253,2.417,3.39,0.612,4.638,2.554C52.466,47.119,46.14,58.188,44.3,71.434c-0.095,0.196-0.191,0.394-0.286,0.59
	C44.271,71.979,44.526,71.939,44.782,71.897z"/>
<g>
	<path fill="#3B3B3B" d="M11.12,126.049h3.786v1.885H11.12v5.282H8.707v-11.798h7.396c0.023,0.131,0.038,0.238,0.044,0.327
		c0.006,0.087,0.009,0.195,0.009,0.325c0,0.353-0.103,0.645-0.308,0.88c-0.206,0.236-0.579,0.353-1.119,0.353H11.12V126.049z"/>
	<path fill="#3B3B3B" d="M23.127,133.216l-1.003-2.887h-4.067l-0.968,2.887h-2.395l4.085-11.621c0.141-0.059,0.337-0.114,0.59-0.168
		c0.252-0.052,0.525-0.079,0.819-0.079c0.129,0,0.273,0.013,0.432,0.035c0.158,0.023,0.313,0.073,0.466,0.149
		c0.153,0.078,0.297,0.185,0.432,0.325c0.135,0.143,0.244,0.337,0.326,0.582l3.785,10.776H23.127z M20.117,123.549l-1.602,5.018
		h3.151L20.117,123.549z"/>
	<path fill="#3B3B3B" d="M29.379,131.261h3.433c0.282,0,0.517,0.035,0.705,0.105c0.188,0.069,0.334,0.166,0.44,0.282
		c0.105,0.116,0.179,0.253,0.22,0.405c0.041,0.153,0.062,0.307,0.062,0.458c0,0.116-0.003,0.259-0.009,0.423
		c-0.006,0.163-0.015,0.259-0.026,0.281h-7.254v-11.779c0.164-0.024,0.326-0.045,0.483-0.062c0.159-0.019,0.279-0.027,0.361-0.027
		c0.176,0,0.355,0.019,0.537,0.054c0.182,0.035,0.353,0.104,0.51,0.203c0.159,0.098,0.288,0.236,0.388,0.414
		c0.1,0.176,0.15,0.41,0.15,0.702V131.261z"/>
	<path fill="#3B3B3B" d="M43.183,132.547c-0.07,0.07-0.185,0.157-0.344,0.264c-0.158,0.105-0.373,0.211-0.643,0.316
		s-0.596,0.198-0.977,0.273c-0.382,0.076-0.819,0.114-1.312,0.114c-0.951,0-1.772-0.153-2.465-0.458
		c-0.693-0.305-1.265-0.729-1.717-1.277c-0.452-0.545-0.783-1.189-0.995-1.937c-0.211-0.744-0.317-1.563-0.317-2.456
		c0-0.891,0.115-1.717,0.343-2.473c0.229-0.758,0.573-1.412,1.03-1.964c0.458-0.551,1.03-0.981,1.717-1.294
		c0.687-0.311,1.494-0.466,2.421-0.466c0.458,0,0.871,0.041,1.241,0.122c0.37,0.083,0.693,0.179,0.969,0.292
		c0.275,0.11,0.505,0.228,0.687,0.351c0.182,0.124,0.319,0.226,0.413,0.309c0.106,0.095,0.197,0.205,0.273,0.335
		c0.077,0.128,0.114,0.27,0.114,0.421c0,0.237-0.088,0.47-0.264,0.706c-0.176,0.233-0.37,0.451-0.581,0.65
		c-0.142-0.14-0.3-0.284-0.476-0.432c-0.176-0.146-0.373-0.273-0.59-0.387c-0.217-0.11-0.464-0.205-0.74-0.281
		c-0.276-0.075-0.584-0.116-0.924-0.116c-0.599,0-1.101,0.122-1.505,0.362s-0.73,0.555-0.978,0.94
		c-0.247,0.389-0.422,0.832-0.528,1.331c-0.106,0.499-0.159,1.007-0.159,1.522c0,0.553,0.053,1.081,0.159,1.586
		c0.105,0.505,0.287,0.95,0.545,1.338c0.258,0.387,0.596,0.698,1.013,0.934c0.417,0.234,0.936,0.351,1.558,0.351
		c0.329,0,0.631-0.04,0.907-0.123c0.275-0.082,0.519-0.182,0.73-0.3c0.211-0.116,0.396-0.24,0.555-0.368
		c0.158-0.129,0.29-0.242,0.396-0.334c0.07,0.081,0.152,0.181,0.246,0.298c0.094,0.118,0.182,0.241,0.264,0.369
		c0.082,0.131,0.152,0.259,0.211,0.388c0.059,0.13,0.088,0.248,0.088,0.354c0,0.153-0.029,0.281-0.088,0.386
		C43.406,132.299,43.312,132.417,43.183,132.547z"/>
	<path fill="#3B3B3B" d="M55.244,127.281c0,0.845-0.1,1.646-0.298,2.404c-0.201,0.756-0.518,1.42-0.951,1.989
		c-0.435,0.568-0.992,1.018-1.672,1.347c-0.682,0.329-1.503,0.493-2.465,0.493c-0.951,0-1.761-0.168-2.43-0.502
		c-0.669-0.335-1.215-0.786-1.637-1.354c-0.423-0.571-0.731-1.231-0.924-1.981c-0.194-0.752-0.291-1.543-0.291-2.379
		c0-0.82,0.105-1.6,0.317-2.339c0.211-0.741,0.54-1.391,0.986-1.946c0.446-0.559,1.009-1.002,1.69-1.331
		c0.681-0.329,1.49-0.491,2.43-0.491c0.927,0,1.723,0.157,2.386,0.475c0.663,0.316,1.206,0.749,1.629,1.294s0.733,1.188,0.934,1.93
		C55.144,125.626,55.244,126.424,55.244,127.281z M52.762,127.298c0-0.562-0.047-1.096-0.141-1.6
		c-0.094-0.505-0.252-0.948-0.475-1.331c-0.224-0.381-0.511-0.684-0.863-0.905c-0.352-0.224-0.787-0.337-1.303-0.337
		c-0.54,0-0.995,0.113-1.365,0.337c-0.37,0.222-0.669,0.524-0.898,0.905c-0.229,0.383-0.394,0.826-0.493,1.331
		c-0.1,0.504-0.149,1.038-0.149,1.6c0,0.565,0.05,1.105,0.149,1.621c0.1,0.518,0.261,0.976,0.485,1.373
		c0.223,0.401,0.516,0.717,0.88,0.952c0.364,0.234,0.811,0.353,1.338,0.353c0.529,0,0.975-0.118,1.339-0.353
		c0.363-0.235,0.654-0.551,0.871-0.952c0.217-0.397,0.375-0.855,0.476-1.373C52.711,128.403,52.762,127.863,52.762,127.298z"/>
	<path fill="#3B3B3B" d="M66.601,133.216h-2.042l-5.019-7.747v7.747h-2.306v-11.763c0.117-0.022,0.275-0.047,0.475-0.07
		c0.2-0.022,0.399-0.035,0.599-0.035c0.375,0,0.669,0.064,0.88,0.193c0.21,0.13,0.398,0.329,0.563,0.6l4.543,7.412v-8.116
		c0.164-0.024,0.317-0.045,0.457-0.062c0.142-0.019,0.252-0.027,0.334-0.027c0.177,0,0.352,0.019,0.529,0.054
		c0.176,0.035,0.337,0.104,0.484,0.203c0.147,0.098,0.267,0.236,0.361,0.414c0.093,0.176,0.141,0.41,0.141,0.702V133.216z"/>
	<path fill="#3B3B3B" d="M75.316,126.208h4.438v-4.771c0.164-0.024,0.328-0.045,0.492-0.062c0.165-0.019,0.294-0.027,0.389-0.027
		c0.151,0,0.319,0.019,0.501,0.054c0.183,0.035,0.35,0.104,0.502,0.203c0.152,0.098,0.278,0.236,0.379,0.414
		c0.099,0.176,0.149,0.41,0.149,0.702v10.495h-2.412v-5.106h-4.438v5.106h-2.413v-11.779c0.165-0.024,0.326-0.045,0.484-0.062
		c0.159-0.019,0.279-0.027,0.361-0.027c0.176,0,0.354,0.019,0.538,0.054c0.181,0.035,0.349,0.104,0.501,0.203
		c0.152,0.098,0.279,0.236,0.379,0.414c0.1,0.176,0.149,0.41,0.149,0.702V126.208z"/>
	<path fill="#3B3B3B" d="M93.558,128.461c0,0.236-0.005,0.469-0.018,0.706c-0.011,0.232-0.028,0.475-0.053,0.721
		c-0.047,0.493-0.167,0.961-0.36,1.4s-0.476,0.82-0.845,1.144c-0.37,0.324-0.831,0.579-1.383,0.766
		c-0.552,0.188-1.203,0.283-1.954,0.283c-0.764,0-1.409-0.084-1.937-0.248c-0.529-0.165-0.969-0.401-1.322-0.712
		c-0.351-0.312-0.621-0.692-0.809-1.146c-0.188-0.451-0.317-0.97-0.388-1.558c-0.023-0.211-0.041-0.429-0.053-0.65
		c-0.012-0.224-0.018-0.459-0.018-0.706v-7.024c0.164-0.024,0.325-0.045,0.483-0.062c0.159-0.019,0.279-0.027,0.361-0.027
		c0.177,0,0.354,0.019,0.538,0.054c0.182,0.035,0.348,0.104,0.501,0.203c0.153,0.098,0.278,0.236,0.379,0.414
		c0.1,0.176,0.149,0.41,0.149,0.702v5.898c0,0.424,0.026,0.805,0.079,1.145c0.053,0.342,0.159,0.632,0.317,0.872
		s0.378,0.429,0.66,0.563c0.281,0.135,0.651,0.202,1.109,0.202c0.798,0,1.355-0.231,1.672-0.695
		c0.317-0.464,0.477-1.112,0.477-1.944v-7.325c0.163-0.024,0.325-0.045,0.483-0.062c0.158-0.019,0.278-0.027,0.361-0.027
		c0.176,0,0.355,0.019,0.537,0.054c0.183,0.035,0.35,0.104,0.501,0.203c0.153,0.098,0.279,0.236,0.379,0.414
		c0.1,0.176,0.149,0.41,0.149,0.702V128.461z"/>
	<path fill="#3B3B3B" d="M105.179,133.216h-2.042l-5.019-7.747v7.747h-2.306v-11.763c0.116-0.022,0.274-0.047,0.475-0.07
		c0.199-0.022,0.398-0.035,0.599-0.035c0.376,0,0.67,0.064,0.88,0.193c0.212,0.13,0.399,0.329,0.563,0.6l4.543,7.412v-8.116
		c0.164-0.024,0.317-0.045,0.458-0.062c0.141-0.019,0.253-0.027,0.335-0.027c0.176,0,0.352,0.019,0.528,0.054
		c0.176,0.035,0.337,0.104,0.484,0.203c0.146,0.098,0.266,0.236,0.36,0.414c0.094,0.176,0.141,0.41,0.141,0.702V133.216z"/>
	<path fill="#3B3B3B" d="M110.145,123.392h-3.681v-0.019c-0.023-0.143-0.038-0.259-0.044-0.354
		c-0.006-0.092-0.009-0.205-0.009-0.334c0-0.316,0.114-0.606,0.344-0.87c0.229-0.265,0.612-0.397,1.153-0.397h8.275
		c0.035,0.247,0.053,0.501,0.053,0.758c0,0.305-0.105,0.584-0.316,0.837c-0.212,0.251-0.587,0.379-1.127,0.379h-2.22v9.824h-2.429
		V123.392z"/>
	<path fill="#3B3B3B" d="M123.755,131.35c0.563,0,0.947,0.129,1.153,0.388c0.205,0.259,0.308,0.545,0.308,0.861
		c0,0.129-0.003,0.238-0.008,0.327c-0.007,0.087-0.016,0.185-0.027,0.29h-7.624v-11.798h7.343c0.022,0.131,0.038,0.238,0.044,0.327
		c0.006,0.087,0.01,0.195,0.01,0.325c0,0.41-0.106,0.719-0.318,0.924c-0.211,0.207-0.604,0.309-1.179,0.309h-3.469v2.905h3.731
		v1.883h-3.731v3.259H123.755z"/>
	<path fill="#3B3B3B" d="M134.848,124.8c0,0.493-0.063,0.928-0.186,1.303c-0.122,0.375-0.29,0.704-0.501,0.985
		c-0.212,0.28-0.452,0.518-0.722,0.704c-0.271,0.188-0.547,0.334-0.828,0.441l2.906,4.858c-0.224,0.095-0.459,0.168-0.705,0.22
		c-0.247,0.054-0.481,0.08-0.704,0.08c-0.435,0-0.799-0.093-1.092-0.281c-0.294-0.188-0.563-0.493-0.811-0.917l-2.007-3.415h-0.968
		v4.438h-2.431v-11.728c0.528-0.058,1.068-0.102,1.62-0.132c0.552-0.029,1.051-0.044,1.497-0.044c1.702,0,2.949,0.288,3.741,0.863
		C134.452,122.75,134.848,123.626,134.848,124.8z M132.312,125.028c0-0.74-0.193-1.26-0.581-1.56
		c-0.387-0.299-0.915-0.449-1.584-0.449c-0.211,0-0.394,0.008-0.546,0.019c-0.152,0.012-0.282,0.024-0.388,0.035v4.068h0.827
		c0.704,0,1.259-0.174,1.665-0.52C132.109,126.276,132.312,125.744,132.312,125.028z"/>
	<path fill="#3B3B3B" d="M136.891,130.505c0.328,0.259,0.73,0.512,1.206,0.765s1.041,0.379,1.699,0.379
		c0.246,0,0.486-0.029,0.722-0.087c0.234-0.061,0.442-0.151,0.625-0.273c0.183-0.124,0.331-0.284,0.449-0.484
		c0.116-0.199,0.176-0.447,0.176-0.741c0-0.305-0.064-0.562-0.193-0.774c-0.129-0.21-0.3-0.39-0.511-0.535
		c-0.211-0.146-0.459-0.273-0.739-0.379c-0.282-0.105-0.57-0.213-0.863-0.318c-0.376-0.127-0.754-0.27-1.136-0.421
		c-0.382-0.153-0.726-0.354-1.03-0.599c-0.306-0.248-0.555-0.563-0.748-0.942c-0.193-0.381-0.29-0.865-0.29-1.453
		c0-0.563,0.11-1.063,0.334-1.497c0.223-0.435,0.528-0.795,0.915-1.083c0.388-0.288,0.833-0.504,1.339-0.65
		c0.505-0.147,1.038-0.22,1.603-0.22c0.387,0,0.748,0.029,1.083,0.087c0.334,0.059,0.634,0.129,0.897,0.211
		c0.264,0.083,0.487,0.168,0.669,0.257c0.183,0.087,0.32,0.166,0.413,0.236c0.329,0.188,0.494,0.453,0.494,0.793
		c0,0.141-0.063,0.33-0.186,0.572c-0.122,0.24-0.296,0.479-0.519,0.712c-0.294-0.232-0.672-0.456-1.136-0.667
		c-0.464-0.213-0.96-0.318-1.488-0.318c-0.211,0-0.429,0.021-0.652,0.062c-0.223,0.042-0.425,0.112-0.606,0.212
		c-0.183,0.101-0.332,0.237-0.449,0.414c-0.117,0.176-0.177,0.392-0.177,0.65c0,0.246,0.06,0.463,0.177,0.644
		c0.117,0.183,0.275,0.34,0.476,0.475c0.199,0.135,0.432,0.255,0.695,0.36s0.537,0.213,0.819,0.318
		c0.375,0.141,0.757,0.294,1.144,0.458c0.388,0.163,0.739,0.372,1.057,0.625c0.316,0.251,0.575,0.569,0.775,0.949
		c0.199,0.383,0.299,0.861,0.299,1.437c0,0.623-0.108,1.172-0.326,1.646c-0.217,0.475-0.52,0.876-0.906,1.205
		s-0.854,0.574-1.399,0.741c-0.547,0.162-1.143,0.245-1.787,0.245c-0.846,0-1.529-0.085-2.052-0.255s-0.901-0.325-1.136-0.466
		c-0.142-0.096-0.259-0.207-0.352-0.336c-0.095-0.129-0.142-0.275-0.142-0.439c0-0.2,0.079-0.44,0.238-0.723
		C136.529,131.015,136.702,130.75,136.891,130.505z"/>
</g>
</svg>
