<?xml version="1.0" encoding="utf-8"?>
<!-- Generator: Adobe Illustrator 16.0.0, SVG Export Plug-In . SVG Version: 6.00 Build 0)  -->
<!DOCTYPE svg PUBLIC "-//W3C//DTD SVG 1.1//EN" "http://www.w3.org/Graphics/SVG/1.1/DTD/svg11.dtd">
<svg version="1.1" id="flag-icon-css-am" xmlns="http://www.w3.org/2000/svg" xmlns:xlink="http://www.w3.org/1999/xlink" x="0px"
	 y="0px" width="150px" height="150px" viewBox="0 0 150 150" enable-background="new 0 0 150 150" xml:space="preserve">
<path fill-rule="evenodd" clip-rule="evenodd" fill="#E53613" d="M40.946,33.074c0.483,0.535,0.429,0.991,0.429,1.421
	c0.001,3.722,0.233,7.465-0.098,11.157c-0.231,2.57-0.319,5.196-1.068,7.737c-0.36,1.221-0.377,2.561-0.617,3.851
	c-1.253,6.741-3.262,13.235-5.702,19.629c-1.779,4.663-3.817,9.179-6.296,13.513c-0.724,1.264-0.42,2.857-0.843,4.274
	c-0.285,0.952-0.442,2.001-0.565,2.982c-0.246,1.951-1.584,1.141-2.527,1.253c-1.12,0.134-1.325-0.68-1.46-1.588
	c-0.273-1.831-0.601-3.649-0.86-5.482c-0.292-2.058-1.757-3.729-2.663-5.591c-1.84-3.782-3.415-7.663-4.917-11.591
	c-1.124-2.938-2.025-5.941-2.9-8.942c-0.627-2.149-1.064-4.385-1.58-6.575C8.589,56.199,8.463,53.189,7.66,50.3
	c-0.026-0.094-0.042-0.193-0.046-0.29c-0.227-5.312-1.181-10.59-0.719-15.932c0.024-0.278-0.038-0.604,0.373-0.832
	c0.385,0.587,0.792,1.132,0.899,1.887c0.351,2.479,1.107,4.863,1.733,7.278c0.567,2.19,0.979,4.421,1.508,6.622
	c0.485,2.013,1.038,4.009,1.559,6.012c0.544,2.091,1.082,4.183,1.632,6.272c0.453,1.719,0.857,3.454,1.396,5.147
	c0.74,2.327,1.54,4.638,2.396,6.925c1.268,3.39,3.217,6.412,5.238,9.388c0.425,0.626,0.816,0.67,1.297-0.054
	c2.558-3.85,4.844-7.798,6.257-12.264c1.029-3.256,1.918-6.553,2.961-9.804c0.891-2.778,1.354-5.69,2.071-8.526
	c0.542-2.144,1.341-4.232,1.739-6.398c0.401-2.176,1.015-4.296,1.445-6.462C39.801,37.254,40.389,35.274,40.946,33.074z"/>
<path fill-rule="evenodd" clip-rule="evenodd" fill="#E53613" d="M24.241,112.901c-2.555,0.169-4.952-0.296-7.058-1.849
	c-1.038-0.765-1.68-1.697-1.643-3.07c0.093-3.479-0.304-6.868-1.467-10.199c-0.534-1.531-0.189-3.3-0.694-4.912
	c-0.38-1.214-0.811-1.378-1.847-0.569c-0.077,0.061-0.145,0.132-0.219,0.195c-2.458,2.099-3.838,1.941-5.839-0.688
	c-1.894-2.487-2.569-5.159-1.17-8.126c0.382-0.811,0.746-1.049,1.471-0.222c1.386,1.582,3.528,1.712,5.302,2.557
	c1.596,0.761,2.962,1.629,3.669,3.45c1.342,3.457,2.299,6.905,2.469,10.682c0.168,3.737,2.388,6.731,5.11,9.234
	c0.794,0.73,3.485,0.419,4.254-0.355c1.91-1.925,3.427-4.113,4.326-6.688c0.172-0.493,0.187-1.056,0.192-1.588
	c0.042-4.369,1.339-8.425,3.191-12.306c0.939-1.969,3.053-2.372,4.888-3.075c1.219-0.468,2.499-0.804,3.491-1.736
	c0.967-0.91,1.333-0.771,1.865,0.53c1.09,2.668,0.388,5.019-1.197,7.228c-0.255,0.356-0.521,0.716-0.839,1.013
	c-1.745,1.627-2.93,2.634-5.24,0.151c-0.38-0.409-0.773-0.974-1.483-0.615c-0.653,0.327-0.836,0.926-0.806,1.603
	c0.126,2.787-0.905,5.325-1.665,7.928c-0.415,1.423-0.229,2.912-0.235,4.373c-0.019,4.493-2.058,6.688-6.625,7.047
	C25.711,112.95,24.975,112.901,24.241,112.901z"/>
<path fill-rule="evenodd" clip-rule="evenodd" fill="#444545" d="M115.567,58.03c1.329-0.196,2.586,0.18,3.864,0.278
	c2.156,0.166,2.725,1.309,3.237,3.103c0.516,1.805,1.104,3.605,1.672,5.403c0.112,0.354,0.054,0.849,0.639,0.776
	c0.427-0.053,0.485-0.426,0.549-0.767c0.31-1.67,0.64-3.335,1.226-4.937c0.267-0.73-0.106-1.28-0.843-1.985
	c2.652-0.104,4.664,1.149,7.186,1.421c-2.488,1.811-2.299,4.503-3.056,6.802c-0.79,2.401-1.475,4.838-2.248,7.246
	c-0.241,0.754-0.533,1.501-0.311,2.28c0.245,0.856-0.263,0.826-0.773,0.707c-1.089-0.254-2.17-0.546-3.239-0.875
	c-0.601-0.184-0.874-0.635-1.038-1.28c-0.598-2.363-1.283-4.701-1.944-7.047c-0.085-0.305-0.065-0.753-0.561-0.689
	c-0.394,0.05-0.579,0.395-0.582,0.743c-0.015,2.231-1.292,4.324-0.673,6.635c0.226,0.847-0.559,0.526-0.83,0.451
	c-1.376-0.383-2.786-0.486-4.306-0.603c1.586-2.791,1.512-5.871,1.713-8.799C115.445,64.03,116.972,61.156,115.567,58.03z"/>
<path fill-rule="evenodd" clip-rule="evenodd" fill="#444545" d="M147.957,70.894c0.007,2.562-0.453,2.809-2.797,1.837
	c-1.136-0.47-2.025-0.857-1.775-2.428c0.173-1.077-2.13-2.479-3.158-2.105c-0.784,0.283-0.585,1.068-0.824,1.612
	c-0.916,2.086-1.728,4.22-2.63,6.313c-0.362,0.842-0.026,1.512,0.523,1.969c0.652,0.545,1.474,1.25,2.358,0.875
	c0.888-0.377,0.928-1.501,1.296-2.318c0.324-0.72-0.313-0.92-0.737-1.212c-1.505-1.04,0.044-1.991,0.187-2.926
	c0.139-0.909,0.941-0.373,1.516-0.096c1.526,0.735,3.068,1.439,4.619,2.122c0.408,0.181,0.854,0.435,0.379,0.785
	c-1.903,1.404-2.233,3.712-3.293,5.586c-1.233,2.184-2.258,4.493-3.262,6.796c-0.454,1.041-1.268,1.542-2.15,2.063
	c-0.233,0.137-0.44,0.228-0.645,0.051c-0.223-0.194-0.122-0.474-0.019-0.677c0.327-0.642,0.705-1.255,1.036-1.893
	c0.601-1.155,0.491-2.388,0.225-3.58c-0.157-0.698-0.565-1.229-1.385-1.534c-1.603-0.601-3.03-1.508-4.015-3.019
	c-1.429-2.194-0.639-4.289,0.081-6.445c1.023-3.063,2.333-6.04,2.899-9.246c0.076-0.429,0.284-0.642,0.688-0.488
	c3.492,1.327,7.411,1.838,9.894,5.111C147.631,68.923,148.119,69.87,147.957,70.894z"/>
<path fill-rule="evenodd" clip-rule="evenodd" fill="#444545" d="M66.7,90.578c-1.779-0.516-2.849-1.71-3.65-3.371
	c-2.745-5.693-5.585-11.341-8.38-17.011c-0.208-0.422-0.511-0.692-0.936-0.872c-0.274-0.116-0.767,0.023-0.709-0.53
	c0.043-0.42,0.405-0.493,0.711-0.646c3.763-1.887,7.69-3.387,11.576-4.988c0.689-0.284,1.154,0.061,1.298,0.548
	c0.348,1.176,1.115,2.268,0.888,3.793c-1.352-1.309-2.385,0.038-3.535,0.26c-0.931,0.18-1.787,0.727-2.688,1.076
	c-1.032,0.399-1.522,0.738-0.929,2.106c0.586,1.351,1.131,1.595,2.333,1.026c0.701-0.331,1.434-0.59,2.145-0.899
	c2.244-0.977,2.222-0.972,3.059,1.307c0.328,0.889,0.277,1.419-0.775,1.749c-1.243,0.389-2.415,0.997-3.627,1.487
	c-0.65,0.264-0.941,0.605-0.543,1.316c0.284,0.504,0.463,1.067,0.701,1.599c0.922,2.067,1.944,4.033,1.242,6.505
	c-0.515,1.815,0.735,3.345,1.687,4.822C66.7,90.064,66.882,90.221,66.7,90.578z"/>
<path fill-rule="evenodd" clip-rule="evenodd" fill="#444545" d="M83.658,66.534c1.221,0.765,2.109,1.676,2.303,3.179
	c0.255,1.986,0.57,3.967,0.922,5.938c0.098,0.548,0.168,0.768-0.544,0.777c-2.863,0.04-5.54,1.043-8.28,1.714
	c-1.031,0.253-2.063,0.505-3.359,0.823c1.129-1.635,0.055-2.932-0.297-4.244c-0.952-3.556-2.309-6.992-3.214-10.57
	c-0.214-0.846-0.546-1.814-2.043-1.936c2.367-1.292,4.664-1.56,7.115-2.258c-1.363,2.25,0.052,4.15,0.364,6.126
	c0.362,2.293,1.15,4.516,1.642,6.792c0.187,0.861,0.527,1.29,1.357,1.014c1.453-0.482,3.344-0.062,4.159-1.911
	c0.602-1.366,0.531-2.766,0.028-4.131C83.656,67.43,83.438,67.072,83.658,66.534z"/>
<path fill-rule="evenodd" clip-rule="evenodd" fill="#444545" d="M95.952,75.042c-1.485,0.099-2.938,0.182-4.389,0.295
	c-0.529,0.042-0.558-0.23-0.492-0.626c0.39-2.368-0.301-4.65-0.566-6.966c-0.04-0.348-0.198-0.621-0.435-0.897
	c-2.276-2.664-4.435-5.432-7.037-7.944c1.725-0.929,3.527-1.062,5.365-1.04c0.409,0.005,0.598,0.227,0.747,0.573
	c0.531,1.227,1.587,2.076,2.319,3.163c0.504,0.745,1.141,0.793,1.521-0.123c0.534-1.287,1.657-2.276,1.853-3.727
	c0.06-0.441,0.414-0.492,0.755-0.546c1.449-0.229,2.902-0.397,4.374-0.41c0.978-0.009,0.981,0.38,0.523,1.046
	c-1.844,2.684-3.486,5.489-5.088,8.321c-0.194,0.344-0.475,0.657-0.454,1.056C95.081,69.813,94.809,72.461,95.952,75.042z"/>
<path fill-rule="evenodd" clip-rule="evenodd" fill="#444545" d="M93.039,78.398c0.912,0.062,1.851-0.18,2.745,0.24
	c3.026,1.419,3.482,5.028,0.813,7.138c-0.674,0.532-0.66,0.851-0.243,1.448c0.895,1.279,1.729,2.599,2.638,3.868
	c0.388,0.54,0.262,0.716-0.32,0.899c-1.693,0.539-2.418,0.298-3.46-1.194c-0.418-0.599-0.858-1.185-1.327-1.744
	c-0.191-0.228-0.321-0.701-0.776-0.462c-0.313,0.164-0.231,0.498-0.193,0.789c0.09,0.679-0.035,1.497,0.305,2.008
	c0.771,1.162,0.052,1.312-0.785,1.485c-0.525,0.109-1.058,0.199-1.592,0.253c-0.276,0.027-0.615,0.044-0.637-0.395
	c-0.185-3.865-1.865-7.424-2.326-11.236c-0.038-0.321-0.175-0.697-0.396-0.921c-1.051-1.067-0.417-1.453,0.642-1.497
	C89.791,79.008,91.326,78.081,93.039,78.398z M91.786,82.601c0.02,0.801-0.015,1.606,1.093,1.507
	c0.998-0.091,1.889-0.558,1.925-1.596c0.03-0.822-0.823-1.151-1.595-1.146C92.411,81.374,91.579,81.479,91.786,82.601z"/>
<path fill-rule="evenodd" clip-rule="evenodd" fill="#444545" d="M83.42,81.597c-0.201,1.137,0.548,2.097,0.775,3.189
	c0.363,1.751,0.926,3.464,1.467,5.174c0.705,2.227-0.28,4.501-2.479,5.576c-2.23,1.092-4.8,0.62-6.009-1.314
	c-1.179-1.889-2.228-3.874-3.16-5.896c-0.813-1.766,0.417-4.361,2.407-5.395c2.021-1.048,4.196-1.726,6.351-2.433
	C83.987,80.1,83.275,81.138,83.42,81.597z M82.826,91.317c-0.074-0.202-0.199-0.568-0.34-0.928
	c-0.524-1.355-1.055-2.708-1.583-4.062c-0.291-0.743-0.389-1.754-1.585-1.438c-1.525,0.401-2.001,1.084-1.652,2.367
	c0.483,1.787,1.302,3.45,2.074,5.125c0.375,0.81,1.098,0.896,1.871,0.699C82.416,92.876,82.856,92.362,82.826,91.317z"/>
<path fill-rule="evenodd" clip-rule="evenodd" fill="#444545" d="M114.764,93.488c1.511-1.733,3.041-3.305,4.714-4.724
	c0.688-0.583,0.76-1.042,0.582-1.971c-0.448-2.338-1.342-4.536-1.852-6.958c1.545,0.181,2.947,0.809,4.401,1.226
	c0.364,0.104,0.126,0.325,0.077,0.559c-0.228,1.078,0.499,2.016,0.516,3.085c0.008,0.466,0.53,0.312,0.822,0.147
	c0.509-0.286,1.14-0.519,1.452-0.963c0.963-1.37,2.023-1.219,3.191-0.394c0.679,0.481,2.009,0.327,2.011,1.346
	c0.002,0.675-1.192,0.76-1.81,1.188c-1.395,0.97-2.864,1.832-4.289,2.761c-0.454,0.297-0.522,0.776-0.479,1.301
	c0.187,2.289,0.353,4.58,0.526,6.871c-2.23-0.052-3.042-0.801-3.288-2.895c-0.08-0.688,0.176-1.681-0.579-1.956
	c-0.537-0.195-1.127,0.576-1.443,1.067C117.974,95.272,116.436,94.092,114.764,93.488z"/>
<path fill-rule="evenodd" clip-rule="evenodd" fill="#444545" d="M105.339,56.95c1.864,0.132,4.028,0.285,6.466,0.458
	c-1.103,0.937-1.472,1.922-1.443,3.034c0.101,4.071-0.931,8.054-0.915,12.117c0.002,0.438-0.167,0.95,0.001,1.305
	c0.716,1.515-0.272,1.313-1.17,1.246c-1.162-0.088-2.322-0.175-3.12-0.234C105.217,68.866,106.189,62.974,105.339,56.95z"/>
<path fill-rule="evenodd" clip-rule="evenodd" fill="#444545" d="M101.339,77.959c1.465-0.405,2.823-0.2,4.166-0.172
	c0.445,0.01,0.567,0.348,0.692,0.781c0.353,1.218,0.932,2.338,1.862,3.357c0.672-1.16,1.772-1.889,2.307-3.061
	c0.234-0.512,0.702-0.438,1.136-0.469c1.313-0.095,2.451,0.504,3.773,0.845c-1.808,1.898-3.558,3.655-5.141,5.574
	c-1.851,2.24-1.295,4.891-1.815,7.576c-0.635,0.203-1.577-0.217-2.53-0.29c-0.554-0.044-0.687-0.439-0.518-0.97
	c0.131-0.415,0.174-0.855,0.284-1.277c1.107-4.242-1.435-7.336-3.336-10.632c-0.122-0.21-0.249-0.419-0.387-0.619
	C101.705,78.417,101.559,78.244,101.339,77.959z"/>
</svg>
