<?xml version="1.0" encoding="utf-8"?>
<!-- Generator: Adobe Illustrator 16.0.0, SVG Export Plug-In . SVG Version: 6.00 Build 0)  -->
<!DOCTYPE svg PUBLIC "-//W3C//DTD SVG 1.1//EN" "http://www.w3.org/Graphics/SVG/1.1/DTD/svg11.dtd">
<svg version="1.1" id="flag-icon-css-am" xmlns="http://www.w3.org/2000/svg" xmlns:xlink="http://www.w3.org/1999/xlink" x="0px"
	 y="0px" width="150px" height="150px" viewBox="0 0 150 150" enable-background="new 0 0 150 150" xml:space="preserve">
<path fill-rule="evenodd" clip-rule="evenodd" fill="#471CA5" d="M51.134,148.335c0.783-5.485,1.431-10.599,2.27-15.678
	c0.579-3.506,0.574-3.684-2.798-4.379c-1.762-0.359-3.524-0.728-5.356-1.107c0.345-2.205,0.647-4.132,0.982-6.271
	c-2.714-0.268-5.271-0.486-7.818-0.787c-1.428-0.172-2.927-0.278-4.223-0.819c-0.627-0.261-1.202-1.45-1.222-2.237
	c-0.105-4.118-0.089-8.242,0.018-12.363c0.05-1.877-0.683-2.396-2.515-2.609c-4.366-0.509-8.691-1.373-13.037-2.059
	c-1.682-0.264-2.234-1.192-2.199-2.852c0.084-4.095,0.027-8.19,0.027-12.975c-2.412,1.366-4.297,2.407-6.154,3.496
	c-1.434,0.843-2.128,0.924-2.111-1.188c0.082-10,0.076-20-0.029-29.998c-0.021-2.07,0.559-3.227,2.449-4.306
	c6.94-3.966,5.781-1.53,5.774-9.64c-0.002-2.33,0.569-3.765,2.802-4.509c0.928-0.308,1.734-0.976,2.66-1.29
	c2.746-0.93,4.699-2.24,4.033-5.692c-0.129-0.672,0.826-1.977,1.587-2.33c9.174-4.269,18.298-8.669,27.646-12.524
	c11.28-4.651,23.097-7.741,35.02-10.183c8.926-1.829,18.029-2.797,27.057-4.125c1.86-0.273,3.732-0.442,5.936-0.698
	c0,3.367,0.078,6.477-0.031,9.579c-0.06,1.685,0.47,2.308,2.204,2.242c2.283-0.086,4.577,0.188,6.861,0.135
	c2.167-0.048,2.657,0.955,2.567,2.946c-0.144,3.199,0.047,6.41-0.006,9.614c-0.026,1.571,0.603,2.23,2.148,2.166
	c0.522-0.023,1.058,0.137,1.581,0.233c4.477,0.829,4.493,0.854,3.712,5.842c-1.345-0.061-2.726-0.123-4.734-0.212
	c0.925,1.337,1.66,2.241,2.217,3.245c1.233,2.228,2.816,4.391,3.446,6.792c0.846,3.215-1.658,5.982-4.867,6
	c-0.929,0.005-1.855,0.185-3.062,0.315c3.966,2.34,8.358-0.712,9.108-5.913c2.01,3.858-0.694,7.777-5.563,8.067
	c-1.248,0.075-3.133-0.299-3.594,0.343c-0.67,0.938-0.377,2.608-0.387,3.966c-0.029,3.969,0.12,7.944-0.075,11.903
	c-0.062,1.198-0.731,2.683-1.622,3.47c-4.698,4.152-10.289,6.769-16.221,8.62c-1.666,0.521-2.111,1.362-2.08,2.96
	c0.078,4.044-0.084,8.095,0.076,12.135c0.074,1.907-0.561,3.33-2.024,4.297c-2.788,1.84-5.595,3.689-8.564,5.205
	c-1.898,0.968-3.415,2.085-4.552,3.903c-4.408,7.056-4.449,6.981-12.378,8.416c-2.687,0.487-5.359,1.192-7.927,2.108
	c-0.85,0.304-1.788,1.516-1.925,2.427c-0.377,2.535-1.58,4.094-3.751,5.533c-7.684,5.099-14.184,11.513-19.762,18.858
	C52.296,146.986,51.812,147.522,51.134,148.335z M98.745,78.848c-0.011-0.21-0.021-0.422-0.031-0.632
	c2.964-0.427,5.922-0.906,8.895-1.257c1.62-0.192,3.068-0.264,2.834-2.561c-0.265-2.605-0.433-3.003-3.28-2.67
	c-6.126,0.717-12.227,1.639-18.331,2.507c-3.577,0.51-3.509,0.542-3.9,4.081c-0.069,0.626-0.844,1.53-1.45,1.683
	c-5.298,1.337-10.636,2.51-15.952,3.779c-1.938,0.463-3.846,1.055-5.816,1.602c-0.213-1.638-0.385-2.956-0.581-4.47
	c-8.284,2.387-16.126,5.073-23.518,8.923c-1.889,0.985-1.555,2.666-0.805,4.396c2.458-0.601,4.788-1.169,7.119-1.736
	c-1.816,1.493-3.638,2.745-5.586,3.751c-1.563,0.81-2.169,1.859-2.104,3.625c0.119,3.125-0.005,6.259,0.01,9.389
	c0.003,0.783,0.151,1.571,0.25,2.502c0.667-0.155,1.038-0.201,1.377-0.327c6.913-2.604,13.781-5.33,20.754-7.751
	c2.191-0.762,3.149-1.716,2.83-4.03c-0.147-1.068-0.336-2.354,1.279-2.752c6.808-1.684,13.607-3.393,20.409-5.096
	c1.341-0.333,2.035,0.063,1.982,1.563c-0.038,1.091,0.079,2.187,0.129,3.286c4.073-0.603,7.832-1.219,11.607-1.709
	c3.854-0.496,7.719-0.904,11.587-1.269c1.413-0.135,2.015-0.702,1.993-2.16c-0.05-3.433-0.079-6.868,0.063-10.296
	c0.077-1.863-0.678-2.425-2.397-2.389C104.99,78.894,101.866,78.848,98.745,78.848z M25.85,73.226c0,1.307-0.095,2.363,0.023,3.394
	c0.167,1.438-0.375,2.443-1.7,2.826c-5.045,1.459-6.7,4.92-5.998,9.852c0.032,0.224,0.029,0.457,0.013,0.686
	c-0.127,1.785,0.494,2.158,2.159,1.388c8.151-3.775,16.306-7.54,24.52-11.176c4.711-2.085,4.878-1.975,4.708-7.126
	c-0.07-2.107,0.713-2.977,2.615-3.476c7.812-2.054,15.566-4.329,23.403-6.269c6.354-1.575,12.796-2.78,19.197-4.165
	c1.49-0.323,2.126,0.185,2.055,1.751c-0.083,1.78-0.02,3.568-0.02,5.436c0.708,0,1.007,0.01,1.304-0.002
	c10.496-0.439,20.993-0.863,31.485-1.377c0.481-0.023,1.308-0.849,1.321-1.32c0.102-3.504,0.111-7.015-0.051-10.516
	c-0.025-0.553-1.01-1.429-1.644-1.521c-2.98-0.437-5.991-0.67-8.997-0.926c-0.413-0.036-0.859,0.174-1.269,0.324
	c-2.838,1.04-5.662,1.8-7.813,0.022c-1.229,0.575-1.948,1.132-2.729,1.242c-6.021,0.835-12.057,1.582-18.086,2.364
	c-4.226,0.547-8.472,3.285-12.843-0.754c0.312,2.597-0.592,3.419-2.583,3.717c-2.238,0.333-4.383,1.25-6.607,1.744
	c-1.701,0.376-3.46,0.49-5.634,0.78c-0.975,1.58-11.189,4.947-13.608,4.32c-1.169,0.8-1.968,1.596-2.93,1.962
	c-3.883,1.476-7.818,2.812-11.726,4.221c-0.345,0.125-0.66,0.376-0.944,0.624C31.378,73.075,29.077,74.221,25.85,73.226z
	 M26.212,49.41c1.256-0.484,2.164-0.806,3.049-1.181c3.995-1.69,7.904-3.625,11.997-5.028c3.877-1.329,7.546-4.408,12.298-1.864
	c-0.323-2.549,1.155-3.233,3.001-3.649c1.409-0.318,2.789-0.767,4.177-1.172c2.615-0.763,5.184-1.079,7.635,1.046
	c0.141-1.192,0.245-2.075,0.373-3.167c3.113-0.253,5.99-2.751,9.414-0.749c3.47-2.708,7.266-4.386,11.563-2.388
	c0.801-0.549,1.447-1.353,2.176-1.437c6.507-0.748,13.017-1.523,19.548-1.982c5.93-0.414,11.886-0.462,17.831-0.621
	c1.271-0.034,1.798-0.558,1.784-1.795c-0.028-2.594-0.053-5.19-0.01-7.783c0.023-1.359-0.58-1.989-1.9-1.968
	c-9.676,0.149-19.355,0.181-29.024,0.514c-3.444,0.119-3.431,0.454-3.409,3.806c0.005,0.764-0.069,1.532,0,2.289
	c0.167,1.85-0.497,2.481-2.476,2.873c-10.744,2.126-21.452,4.457-32.14,6.862c-4.061,0.913-8.034,2.214-12.492,3.461
	c0-2.652,0-5.012,0-7.575c-0.926,0.196-1.46,0.227-1.93,0.419c-8.524,3.498-17.083,6.917-25.542,10.566
	c-4.299,1.855-4.356,2.331-3.548,7.608c1.647-0.723,3.214-1.427,4.795-2.096c1.881-0.798,2.459-0.452,2.64,1.584
	C26.113,47.002,26.138,48.029,26.212,49.41z M55.891,136.029c0.207,0.063,0.415,0.125,0.621,0.188
	c0.323-0.396,0.6-0.843,0.975-1.179c3.611-3.238,6.974-6.851,10.963-9.528c2.277-1.524,2.916-3.129,3.133-5.434
	c0.115-1.227-0.265-1.785-1.595-1.868c-1.873-0.116-3.73-0.464-5.594-0.712c-0.012-0.259-0.025-0.517-0.037-0.772
	c7.532-1.828,14.991-4.128,22.622-5.292c4.207-0.644,6.79-2.33,8.609-5.821c0.809-1.55,1.577-3.122,2.585-5.126
	c-1.741,0.087-2.811,0.03-3.837,0.213c-3.667,0.662-7.357,1.242-10.966,2.145c-9.815,2.442-19.601,5.011-29.372,7.624
	c-0.716,0.193-1.577,1.035-1.779,1.745c-0.837,2.923-1.448,5.913-2.14,8.879c-0.311,1.333,0.021,2.178,1.545,2.448
	c1.923,0.341,3.817,0.857,5.855,1.326C56.93,128.721,56.41,132.374,55.891,136.029z M13.336,62.915c0-3.828,0-7.572,0-11.334
	c-3.854,0.417-5.514,2.122-5.512,5.396C7.828,65.288,7.831,73.6,7.859,81.91c0.003,0.849,0.178,1.695,0.28,2.615
	c4.968-1.731,5.32-2.195,5.349-6.827c0.012-1.905-0.01-3.812-0.006-5.718c0.005-3.62,0.402-4.1,4.367-5.038
	c0,4.042,0,8.025,0,12.058c4.629-0.98,5.713-2.272,5.733-6.359c0.035-7.396,0.124-14.791,0.153-22.187
	c0.007-1.408-0.156-2.817-0.243-4.248c-4.631,0.739-5.714,1.978-5.681,6.158c0.014,1.753-0.019,3.506-0.025,5.26
	C17.775,61.319,17.43,61.755,13.336,62.915z M33.124,28.38c0.096,0.14,0.191,0.281,0.287,0.421
	c7.841-2.65,15.623-5.493,23.536-7.905c12.626-3.848,25.53-6.524,38.663-7.956c6.512-0.71,13.054-1.146,19.57-1.814
	c0.729-0.076,1.383-0.862,2.072-1.317c-0.694-0.303-1.381-0.858-2.078-0.871c-4.475-0.081-8.95-0.041-13.425-0.041
	c0.248-0.423,0.523-0.477,0.802-0.522c4.432-0.723,8.866-1.424,13.292-2.197c0.492-0.086,0.915-0.578,1.372-0.881
	c-0.509-0.313-0.996-0.672-1.534-0.919c-0.251-0.115-0.607-0.05-0.905-0.003c-8.253,1.317-16.57,2.322-24.74,4.031
	c-16.686,3.492-32.688,9.194-48.334,15.905C38.796,25.558,35.981,27.018,33.124,28.38z M107.752,39.345
	c0.079,0.135,0.388,0.484,0.495,0.886c0.568,2.131,1.021,4.294,1.641,6.41c0.587,2.006,2.095,2.697,4.081,2.411
	c1.901-0.274,3.149-0.944,3.058-3.328c-0.183-4.793-0.078-9.597-0.047-14.396c0.009-1.496,0.002-2.609-2.121-2.534
	c-1.892,0.066-2.597,0.656-2.466,2.517c0.212,3.051,0.321,6.107,0.474,9.162c-1.239-3.176-2.16-6.376-2.934-9.61
	c-0.314-1.317-0.925-1.826-2.235-1.584c-0.598,0.109-1.223,0.237-1.813,0.17c-2.207-0.249-2.709,0.883-2.678,2.839
	c0.079,5.027-0.004,10.056,0.044,15.083c0.01,0.919-0.5,2.469,1.331,2.219c1.422-0.193,3.382,0.191,3.209-2.438
	C107.618,44.5,107.752,41.829,107.752,39.345z M66.104,46.519c0.58-1.839,1.375-3.525,1.604-5.286
	c0.339-2.59-1.186-4.295-3.709-3.929c-2.821,0.412-5.928,0.875-8.167,2.407c-1.105,0.756-0.54,3.96-0.725,6.056
	c-0.027,0.304-0.033,0.61-0.033,0.915c-0.002,4.243-0.001,8.486-0.001,12.715c4.135,0.111,5.029-0.68,5.043-4.162
	c0.006-1.221-0.076-2.451,0.052-3.658c0.047-0.448,0.581-0.845,0.894-1.264c0.412,0.345,1.083,0.628,1.181,1.048
	c0.224,0.95,0.185,1.964,0.216,2.955c0.045,1.457,0.201,2.847,2.104,2.914c1.862,0.065,4.122-1.397,4.232-2.805
	c0.047-0.607-0.277-1.264-0.512-1.868c-0.305-0.785-0.747-1.516-1.025-2.309C66.819,48.999,66.47,47.719,66.104,46.519z
	 M46.86,54.852c0.234,0.15,0.469,0.301,0.704,0.45c0.146,1.121,0.268,2.248,0.444,3.365c0.596,3.746,1.24,4.044,4.65,2.188
	c1.862-1.015,2.167-2.609,0.878-4.229c-0.352-0.442-0.617-1.02-0.728-1.574c-0.497-2.496-2.086-4.975,0.008-7.539
	c0.39-0.477,0.171-1.479,0.17-2.239c-0.007-2.818-1-3.893-3.755-3.427c-2.221,0.375-4.343,1.323-6.522,1.969
	c-1.453,0.431-2.042,1.304-2.029,2.853c0.034,4.04-0.072,8.083-0.105,12.125c-0.019,2.017-0.003,4.032-0.003,6.133
	c4.901-0.844,5.264-1.255,5.252-5.42c-0.002-0.992-0.12-2.004,0.047-2.967C45.976,55.938,46.516,55.413,46.86,54.852z
	 M30.822,49.253c-4.547,0.856-5.048,1.453-5.05,5.548c0,4.04-0.108,8.083,0.04,12.117c0.049,1.319,0.751,2.613,1.155,3.917
	c1.317-0.435,2.662-0.802,3.938-1.333c0.529-0.219,0.871-0.856,1.376-1.177c0.479-0.304,1.06-0.455,1.6-0.657
	c1.639-0.616,3.41-1.019,4.857-1.934c0.592-0.375,0.953-2.484,0.629-2.719c-1.757-1.275-1.06-2.99-1.106-4.517
	c-0.074-2.512,0.059-5.028,0.086-7.542c0.018-1.616,0.002-3.234,0.002-4.946c-4.735,0.964-4.87,1.097-4.911,5.161
	c-0.04,3.886-0.097,7.775-0.019,11.661c0.036,1.796-0.743,2.417-2.598,2.396C30.822,59.871,30.822,54.64,30.822,49.253z
	 M96.906,50.195c4.68,0.215,4.791,0.208,4.533-4.136c-0.314-5.283-0.842-10.556-1.298-16.111c-2.78,0.373-5.177,0.649-7.551,1.058
	c-0.379,0.066-0.866,0.678-0.95,1.107c-1.259,6.404-2.459,12.818-3.674,19.237c3.771,0.589,4.757-0.05,5.441-3.294
	c0.077-0.373,0.202-0.744,0.223-1.12c0.09-1.541,0.901-1.938,2.375-1.537C96.303,46.976,96.595,48.53,96.906,50.195z
	 M124.523,36.534c-0.636-3.772-0.622-3.698,2.832-4.332c0.583-0.107,1.36-1.169,1.37-1.802c0.009-0.602-0.826-1.697-1.362-1.743
	c-2.191-0.186-4.417-0.158-6.612,0.034c-0.532,0.044-1.396,0.996-1.411,1.552c-0.149,5.175-0.176,10.357-0.172,15.536
	c0.001,1.762,1.06,2.608,2.784,2.631c1.828,0.023,3.66,0.1,5.481-0.014c0.503-0.033,1.218-0.562,1.408-1.035
	c0.813-2.024,0.191-3.027-1.957-2.798c-2.393,0.254-2.999-0.722-2.635-2.824c0.088-0.503,0.17-1.007,0.25-1.468
	c3.883-0.57,3.883-0.57,3.083-3.518C126.577,36.682,125.537,36.606,124.523,36.534z M136.435,45.005
	c-1.579,0-2.626,0.015-3.676-0.003c-1.046-0.018-2.008-0.011-2.106,1.427c-0.095,1.344,0.307,2.256,1.761,2.402
	c1.133,0.115,2.275,0.282,3.406,0.24c4.73-0.174,6.849-3.657,4.658-7.847c-0.979-1.873-2.435-3.49-3.566-5.289
	c-0.491-0.781-0.709-1.732-1.052-2.605c0.846-0.163,1.688-0.438,2.538-0.457c1.1-0.023,1.935-0.082,1.967-1.52
	c0.029-1.283-0.09-2.314-1.678-2.39c-0.837-0.042-1.682-0.009-2.509-0.119c-4.453-0.593-7.213,3.762-4.597,8.033
	c1.072,1.746,2.467,3.29,3.587,5.01C135.695,42.698,135.923,43.709,136.435,45.005z M82.104,48.92c0-2.688-0.024-5.183,0.01-7.677
	c0.021-1.439-0.3-3.134,0.35-4.23c0.475-0.805,2.278-0.823,3.489-1.193c0.145-0.043,0.388-0.062,0.418-0.147
	c0.307-0.927,0.79-1.872,0.76-2.796c-0.012-0.381-1.173-1.078-1.766-1.031c-3.846,0.299-6.786,2.167-7.704,6.002
	c-0.713,2.986-1.05,6.146-0.986,9.217c0.108,5.212,2.811,7.001,7.879,5.665c2.741-0.722,3.083-1.321,2.364-4.468
	C85.411,48.467,83.881,48.677,82.104,48.92z M70.242,55.816c1.81-1.275,4.561,0.05,4.69-2.861
	c0.257-5.769,0.318-11.547,0.434-17.322c0.007-0.404-0.095-0.987-0.367-1.191c-1.213-0.908-4.809,0.994-4.832,2.568
	c-0.077,5.094-0.103,10.188-0.122,15.281C70.041,53.259,70.15,54.228,70.242,55.816z M66.55,23.986
	c0.129,0.11,0.258,0.221,0.387,0.332c0.239,1.071,0.478,2.143,0.718,3.215c1.723-0.551,4.184-0.611,4.971-1.788
	c0.863-1.292,0.183-3.616,0.176-5.49c-1.443,0.062-3.129-0.313-4.254,0.317C67.555,21.127,67.191,22.804,66.55,23.986z
	 M86.172,21.603c0.19-0.057,0.38-0.115,0.57-0.172c0.082-1.255,0.268-2.52,0.179-3.763c-0.023-0.339-0.859-0.848-1.353-0.888
	c-3.48-0.277-4.458,0.651-4.355,4.106c0.036,1.195,0.266,2.385,0.406,3.578c0.245-0.014,0.491-0.028,0.737-0.042
	c0.17-0.393,0.345-0.782,0.508-1.178c0.183-0.441,0.354-0.885,0.552-1.382c2.688,2.062,3.468,2.307,3.715,1.073
	C86.856,22.553,86.514,22.079,86.172,21.603z M59.711,25.926c0.061,0.903,0.026,1.827,0.227,2.697
	c0.084,0.37,0.728,0.939,1.008,0.882c1.472-0.299,2.975-0.619,4.337-1.223c1.292-0.575,1.519-5.935,0.396-6.728
	c-0.17-0.122-0.405-0.19-0.617-0.208C62.154,21.117,59.972,23.022,59.711,25.926z M56.764,28.57c0.462,0.62,0.899,1.207,1.337,1.794
	c0.235-0.734,0.593-1.456,0.677-2.208c0.117-1.052,0.094-2.133-0.002-3.191c-0.04-0.441-0.425-0.851-0.652-1.275
	c-0.301,0.355-0.857,0.706-0.861,1.064c-0.029,2.042-1.426,1.947-2.443,2.028c-0.642-0.738-1.083-1.243-1.524-1.748
	c-0.272,0.316-0.769,0.625-0.781,0.952c-0.074,2.011-0.038,4.024-0.038,6.221C55.114,31.823,53.338,27.397,56.764,28.57z
	 M73.802,25.478c0.216,0.28,0.431,0.559,0.644,0.838c1.448-2.381,3.192-3.003,5.295-1.486c0.216-0.452,0.723-1.02,0.598-1.336
	c-0.585-1.479-1.244-2.954-2.107-4.28c-0.222-0.339-1.778-0.361-1.878-0.143C75.399,21.16,74.627,23.331,73.802,25.478z
	 M90.422,22.602c0.356,0.029,0.711,0.06,1.066,0.089c0.135-1.689,0.271-3.377,0.407-5.095c0.206-0.06,0.451-0.073,0.628-0.192
	c0.539-0.364,1.052-0.768,1.576-1.156c-0.579-0.187-1.147-0.487-1.737-0.532c-0.746-0.056-1.546-0.024-2.254,0.192
	c-0.775,0.237-1.472,0.73-2.204,1.113c0.666,0.409,1.33,0.817,2.216,1.36C90.203,19.536,90.313,21.069,90.422,22.602z"/>
</svg>
