<?xml version="1.0" encoding="utf-8"?>
<!-- Generator: Adobe Illustrator 16.0.0, SVG Export Plug-In . SVG Version: 6.00 Build 0)  -->
<!DOCTYPE svg PUBLIC "-//W3C//DTD SVG 1.1//EN" "http://www.w3.org/Graphics/SVG/1.1/DTD/svg11.dtd">
<svg version="1.1" id="flag-icon-css-am" xmlns="http://www.w3.org/2000/svg" xmlns:xlink="http://www.w3.org/1999/xlink" x="0px"
	 y="0px" width="150px" height="150px" viewBox="0 0 150 150" enable-background="new 0 0 150 150" xml:space="preserve">
<g>
	<path fill-rule="evenodd" clip-rule="evenodd" fill="#FD5C0A" d="M14.651,80.509c0.757,0.846,1.082,1.665,1.805,2.139
		c0.331,0.218,0.687,0.418,1.054,0.229c0.42-0.214,0.262-0.652,0.242-1.02c-0.045-0.854-0.496-1.598-0.593-2.461
		c-0.466-4.122,1.733-7.1,4.176-9.965c1.864-2.186,3.942-4.181,5.731-6.441c2.569-3.244,3.124-6.806,2.071-10.751
		c-0.58-2.173-1.131-4.379-1.387-6.607c-0.354-3.078,0.847-5.708,2.965-7.936c0.164-0.172,0.286-0.419,0.555-0.332
		c0.272,0.087,0.26,0.37,0.256,0.601c-0.013,0.613,0.015,1.236-0.078,1.839c-0.745,4.841,1.388,8.709,4.138,12.378
		c1.414,1.886,2.756,3.828,4.233,5.663c2.257,2.806,1.712,5.683,0.427,8.634c-0.486,1.117-1.121,2.183-1.182,3.453
		c-0.088,1.884,0.541,2.811,2.151,3.104c1.606,0.292,2.936-0.584,3.368-2.264c0.177-0.684,0.317-1.372,0.805-2.015
		c1.867,1.72,2.648,3.92,2.992,6.261c0.328,2.241,0.287,4.513-0.026,6.768c-0.049,0.35-0.323,0.791,0.137,1.012
		c0.451,0.218,0.775-0.121,1.093-0.432c0.401-0.392,0.758-0.812,0.993-1.422c0.654,0.608,0.353,1.076,0.078,1.571
		c-1.116,2.013-3.075,2.895-5.078,3.58c-1.313,0.451-2.715,0.707-4.113,0.934c-1.199,0.195-1.056-0.271-0.81-0.999
		c0.224-0.663,0.547-1.271,0.628-2.005c0.322-2.887-1.365-3.843-3.753-4.313c-1.057-0.208-2.262,0.354-3.115-0.814
		c-0.957-1.313-1.154-2.74-0.978-4.292c0.048-0.421,0.461-0.972-0.124-1.263c-0.446-0.223-0.786,0.259-1.093,0.504
		c-3.498,2.788-5.169,6.371-4.689,10.886c0.074,0.697,0.483,1.225,0.754,1.816c0.232,0.51,0.221,0.882-0.397,0.831
		c-4.277-0.356-8.578-0.685-11.957-3.832C14.917,82.602,14.904,82.478,14.651,80.509z"/>
	<path fill-rule="evenodd" clip-rule="evenodd" fill="#2372BB" d="M14.429,70.608c-1.084,1.006-2.24,1.767-3.104,2.881
		c-2.371,3.057-1.934,7.073,0.849,9.886c3.527,3.564,7.968,5.153,12.771,6.11c3.618,0.72,7.241,0.626,10.871,0.527
		c5.565-0.151,10.835-1.442,15.449-4.69c2.44-1.716,4.542-3.766,4.229-7.163c-0.163-1.772-1.066-3.191-2.195-4.493
		c-0.459-0.527-0.956-1.021-1.457-1.552c0.787-0.624,1.273,0.042,1.746,0.345c2.054,1.316,4.099,2.637,5.168,5.005
		c1.771,3.924,0.571,8.569-3.004,11.387c-3.078,2.425-6.659,3.85-10.309,5.097c-4.414,1.506-8.991,2.154-13.636,1.846
		c-7.322-0.484-14.453-1.833-20.874-5.665c-1.992-1.188-3.751-2.668-5.028-4.665c-2.151-3.362-1.346-7.32,0.942-10.107
		c1.701-2.073,3.968-3.434,6.363-4.58c0.21-0.1,0.444-0.164,0.674-0.199C14.061,70.55,14.247,70.595,14.429,70.608z"/>
	<path fill-rule="evenodd" clip-rule="evenodd" fill="#2372BB" d="M15.425,93.68c2.755,2.079,5.632,3.482,8.691,4.443
		c5.53,1.738,11.157,2.205,16.864,0.907c2.438-1.927,6.096-1.62,8.064-4.447c0.485-0.697,1.402-0.399,1.757,0.471
		c0.524,1.287,0.085,2.295-0.954,3.085c-2.405,1.829-5.129,2.825-8.145,2.975c-1.744,0.087-3.493,0.096-5.239,0.143
		c-0.458,0.013-0.938-0.076-1.639,0.436c2.99,0.078,5.704-0.038,8.488,0.237c-0.18,0.571-0.534,0.526-0.823,0.537
		c-5.048,0.197-10.127,0.463-15.081-0.71c-4.448-1.052-8.55-2.909-11.542-6.604C15.524,94.726,15.523,94.726,15.425,93.68z"/>
	<path fill-rule="evenodd" clip-rule="evenodd" fill="#FD5C0A" d="M25.775,48.728c2.748,4.919,2.039,9.378-0.667,13.712
		c-0.183,0.292-0.183,0.835-0.729,0.667c-0.389-0.121-0.567-0.517-0.623-0.888c-0.205-1.361-0.271-2.749,0.006-4.089
		c0.381-1.837,0.817-3.68,1.448-5.442C25.653,51.453,25.492,50.182,25.775,48.728z"/>
	<path fill-rule="evenodd" clip-rule="evenodd" fill="#FD5C0A" d="M40.074,53.948c-1.929-3.023-5.312-4.503-6.185-8.069
		c-0.41-1.675-0.001-3.239,0.404-4.905c0.609,0.624,0.381,1.386,0.583,2.028c0.561,1.784,1.384,3.438,2.862,4.592
		C39.696,49.123,40.506,51.04,40.074,53.948z"/>
	<path fill-rule="evenodd" clip-rule="evenodd" fill="#2372BB" d="M31.652,104.865c1.224,0.788,2.436,1.553,3.883,1.814
		c1.088,0.196,2.137,0.306,3.148-0.271c0.35-0.197,0.696-0.935,1.113-0.242c0.281,0.468,0.229,1.12-0.333,1.518
		c-0.493,0.351-0.987,0.71-1.61,0.809c-0.473,0.076-0.778,0.222-0.584,0.824c0.787,2.44-0.996,3.755-2.35,5.548
		c-0.586-1.818-1.047-3.389-1.601-4.925c-0.421-1.165,0.283-0.938,0.913-0.813c0.597,0.118,1.364,0.955,1.717,0.22
		c0.28-0.585-0.819-0.796-1.302-1.179c-0.912-0.719-2.072-1.125-2.724-2.177C31.731,105.682,31.401,105.432,31.652,104.865z"/>
	<path fill-rule="evenodd" clip-rule="evenodd" fill="#FD5C0A" d="M32.845,39.751c-0.351-3.096,2.028-4.812,2.829-7.355
		C36.602,35.567,35.079,37.622,32.845,39.751z"/>
	<g>
		<linearGradient id="SVGID_1_" gradientUnits="userSpaceOnUse" x1="69.5225" y1="81.7314" x2="69.372" y2="94.0719">
			<stop  offset="0" style="stop-color:#0043A9"/>
			<stop  offset="1" style="stop-color:#15C7FF"/>
		</linearGradient>
		<path fill="url(#SVGID_1_)" d="M72.801,81.833v3.92h-2.66l-0.044-0.293c-0.059-0.505-0.312-0.758-0.76-0.758
			c-0.546,0-0.819,0.193-0.819,0.578c0,0.441,0.473,0.823,1.417,1.149c1.492,0.521,2.439,0.999,2.844,1.43
			c0.404,0.433,0.606,1.189,0.606,2.271c0,2.005-0.916,3.007-2.749,3.007c-0.985,0-1.773-0.323-2.368-0.97v0.79h-2.5v-4.229h2.5
			v0.164c0,0.732,0.346,1.1,1.039,1.1c0.643,0,0.964-0.258,0.964-0.774c0-0.533-0.364-0.938-1.096-1.214l-1.461-0.563
			c-1.462-0.559-2.194-1.479-2.194-2.763c0-2.021,0.893-3.03,2.675-3.03c0.887,0,1.589,0.322,2.105,0.969v-0.782H72.801z"/>
		<linearGradient id="SVGID_2_" gradientUnits="userSpaceOnUse" x1="78.3213" y1="81.8379" x2="78.1708" y2="94.1782">
			<stop  offset="0" style="stop-color:#0043A9"/>
			<stop  offset="1" style="stop-color:#15C7FF"/>
		</linearGradient>
		<path fill="url(#SVGID_2_)" d="M82.698,81.833v4.915h-1.696v-2.071h-1.285v5.307h0.949v2.974h-4.838v-2.974h1.096v-5.307h-1.345
			v2.071h-1.696v-4.915H82.698z"/>
		<linearGradient id="SVGID_3_" gradientUnits="userSpaceOnUse" x1="87.5303" y1="81.9502" x2="87.3798" y2="94.2913">
			<stop  offset="0" style="stop-color:#0043A9"/>
			<stop  offset="1" style="stop-color:#15C7FF"/>
		</linearGradient>
		<path fill="url(#SVGID_3_)" d="M83.59,88.735v-2.478c0-1.868,0.257-3.103,0.774-3.703c0.518-0.6,1.579-0.9,3.187-0.9
			c1.511,0,2.52,0.312,3.025,0.933c0.508,0.622,0.761,1.852,0.761,3.688v2.46c0,1.695-0.273,2.854-0.818,3.472
			c-0.546,0.619-1.568,0.93-3.07,0.93c-1.529,0-2.556-0.297-3.077-0.892C83.851,91.649,83.59,90.479,83.59,88.735z M86.528,86.299
			v2.07c0,1.082,0.322,1.622,0.964,1.622c0.604,0,0.906-0.546,0.906-1.638v-2.128l-0.029-0.481l-0.015-0.334
			c-0.039-0.467-0.336-0.701-0.892-0.701C86.84,84.709,86.528,85.239,86.528,86.299z"/>
		<linearGradient id="SVGID_4_" gradientUnits="userSpaceOnUse" x1="97.7305" y1="82.0742" x2="97.58" y2="94.4148">
			<stop  offset="0" style="stop-color:#0043A9"/>
			<stop  offset="1" style="stop-color:#15C7FF"/>
		</linearGradient>
		<path fill="url(#SVGID_4_)" d="M102.594,88.81c0.107,0.625,0.161,1.157,0.161,1.597c0,1.756-0.751,2.634-2.252,2.634
			c-1.434,0-2.149-0.913-2.149-2.74l0.015-0.732l0.015-0.742c0-0.667-0.575-1.003-1.726-1.003c-0.038,0-0.126,0.004-0.262,0.009
			v2.152h1.052v2.974h-4.839v-2.974h0.994v-5.307h-0.994v-2.844h4.532c1.646,0,2.748,0.196,3.304,0.592
			c0.555,0.394,0.833,1.175,0.833,2.342c0,1.418-0.774,2.23-2.324,2.437c-0.077,0.011-0.19,0.025-0.336,0.042
			c1.325,0.125,2.022,0.459,2.091,1.002l0.072,0.766l0.058,0.611c0.03,0.31,0.187,0.464,0.469,0.464c0.399,0,0.6-0.366,0.6-1.1
			V88.81H102.594z M96.396,86.731h0.321c1.247,0,1.871-0.32,1.871-0.963c0-0.733-0.604-1.099-1.813-1.099
			c-0.078,0-0.204,0.002-0.379,0.007V86.731z"/>
		<linearGradient id="SVGID_5_" gradientUnits="userSpaceOnUse" x1="109.8477" y1="82.2217" x2="109.6972" y2="94.5621">
			<stop  offset="0" style="stop-color:#0043A9"/>
			<stop  offset="1" style="stop-color:#15C7FF"/>
		</linearGradient>
		<path fill="url(#SVGID_5_)" d="M116.158,81.833v2.844h-0.993v5.307h0.993v2.974h-4.634v-2.974h0.848v-6.071l-2.28,9.045h-1.154
			l-2.471-8.965v5.991h0.979v2.974h-4.035v-2.974h0.966v-5.307h-0.966v-2.844h5.102l1.315,5.095l1.331-5.095H116.158z"/>
		<linearGradient id="SVGID_6_" gradientUnits="userSpaceOnUse" x1="121.4814" y1="82.3643" x2="121.331" y2="94.7047">
			<stop  offset="0" style="stop-color:#0043A9"/>
			<stop  offset="1" style="stop-color:#15C7FF"/>
		</linearGradient>
		<path fill="url(#SVGID_6_)" d="M125.339,81.833v4.45h-2.31v-1.606h-1.959v1.997h2.441v1.142h-2.441v2.168h1.959v-1.621h2.499
			v4.595h-8.215v-2.974h0.965v-5.307h-0.965v-2.844H125.339z"/>
		<linearGradient id="SVGID_7_" gradientUnits="userSpaceOnUse" x1="131.7861" y1="82.4893" x2="131.6357" y2="94.8304">
			<stop  offset="0" style="stop-color:#0043A9"/>
			<stop  offset="1" style="stop-color:#15C7FF"/>
		</linearGradient>
		<path fill="url(#SVGID_7_)" d="M136.653,88.81c0.106,0.625,0.16,1.157,0.16,1.597c0,1.756-0.75,2.634-2.252,2.634
			c-1.431,0-2.148-0.913-2.148-2.74l0.016-0.732l0.014-0.742c0-0.667-0.575-1.003-1.724-1.003c-0.04,0-0.128,0.004-0.265,0.009
			v2.152h1.053v2.974h-4.838v-2.974h0.994v-5.307h-0.994v-2.844h4.531c1.646,0,2.749,0.196,3.304,0.592
			c0.556,0.394,0.834,1.175,0.834,2.342c0,1.418-0.776,2.23-2.325,2.437c-0.078,0.011-0.19,0.025-0.337,0.042
			c1.326,0.125,2.022,0.459,2.091,1.002l0.074,0.766l0.058,0.611c0.029,0.31,0.186,0.464,0.469,0.464c0.398,0,0.598-0.366,0.598-1.1
			V88.81H136.653z M130.454,86.731h0.322c1.247,0,1.871-0.32,1.871-0.963c0-0.733-0.604-1.099-1.812-1.099
			c-0.079,0-0.205,0.002-0.382,0.007V86.731z"/>
		<linearGradient id="SVGID_8_" gradientUnits="userSpaceOnUse" x1="141.2578" y1="82.6055" x2="141.1073" y2="94.946">
			<stop  offset="0" style="stop-color:#0043A9"/>
			<stop  offset="1" style="stop-color:#15C7FF"/>
		</linearGradient>
		<path fill="url(#SVGID_8_)" d="M144.547,81.833v3.92h-2.66l-0.045-0.293c-0.058-0.505-0.311-0.758-0.76-0.758
			c-0.546,0-0.818,0.193-0.818,0.578c0,0.441,0.472,0.823,1.418,1.149c1.49,0.521,2.439,0.999,2.843,1.43
			c0.405,0.433,0.607,1.189,0.607,2.271c0,2.005-0.916,3.007-2.749,3.007c-0.984,0-1.773-0.323-2.367-0.97v0.79h-2.5v-4.229h2.5
			v0.164c0,0.732,0.346,1.1,1.037,1.1c0.643,0,0.965-0.258,0.965-0.774c0-0.533-0.365-0.938-1.096-1.214l-1.463-0.563
			c-1.462-0.559-2.192-1.479-2.192-2.763c0-2.021,0.893-3.03,2.675-3.03c0.888,0,1.59,0.322,2.105,0.969v-0.782H144.547z"/>
	</g>
	<g>
		<linearGradient id="SVGID_9_" gradientUnits="userSpaceOnUse" x1="75.0469" y1="61.9155" x2="75.0469" y2="78.9031">
			<stop  offset="0" style="stop-color:#FF4000"/>
			<stop  offset="1" style="stop-color:#FFC700"/>
		</linearGradient>
		<path fill="url(#SVGID_9_)" d="M84.652,60.283v4.903H82.63v9.15h2.022v5.106h-8.797v-5.106h1.012v-3.741h-3.641v3.741h1.011v5.106
			h-8.796v-5.106h2.021v-9.15h-2.021v-4.903h8.796v4.903h-1.011v3.438h3.641v-3.438h-1.012v-4.903H84.652z"/>
		<linearGradient id="SVGID_10_" gradientUnits="userSpaceOnUse" x1="95.5859" y1="61.9155" x2="95.5859" y2="78.9031">
			<stop  offset="0" style="stop-color:#FF4000"/>
			<stop  offset="1" style="stop-color:#FFC700"/>
		</linearGradient>
		<path fill="url(#SVGID_10_)" d="M103.7,60.283v7.685h-4.752v-2.781h-4.095v3.438h5.056v1.972h-5.056v3.741h4.095v-2.78h5.156
			v7.886H87.068v-5.106h2.022v-9.15h-2.022v-4.903H103.7z"/>
		<linearGradient id="SVGID_11_" gradientUnits="userSpaceOnUse" x1="115.5283" y1="61.9155" x2="115.5283" y2="78.9031">
			<stop  offset="0" style="stop-color:#FF4000"/>
			<stop  offset="1" style="stop-color:#FFC700"/>
		</linearGradient>
		<path fill="url(#SVGID_11_)" d="M125.361,74.336v5.106h-10.01v-5.106h2.146l-0.635-2.577h-4.487l-0.665,2.577h2.326v5.106h-8.341
			v-5.106h1.903l4.111-14.053h7.633l4.233,14.053H125.361z M116.289,69.787l-1.672-5.922l-1.729,5.922H116.289z"/>
		<linearGradient id="SVGID_12_" gradientUnits="userSpaceOnUse" x1="135.417" y1="61.9155" x2="135.417" y2="78.9031">
			<stop  offset="0" style="stop-color:#FF4000"/>
			<stop  offset="1" style="stop-color:#FFC700"/>
		</linearGradient>
		<path fill="url(#SVGID_12_)" d="M144.542,60.283v8.493h-3.538v-3.59h-2.629v9.15h1.971v5.106h-10.009v-5.106h2.274v-9.15h-2.78
			v3.59h-3.539v-8.493H144.542z"/>
	</g>
</g>
</svg>
