<?xml version="1.0" encoding="utf-8"?>
<!-- Generator: Adobe Illustrator 16.0.0, SVG Export Plug-In . SVG Version: 6.00 Build 0)  -->
<!DOCTYPE svg PUBLIC "-//W3C//DTD SVG 1.1//EN" "http://www.w3.org/Graphics/SVG/1.1/DTD/svg11.dtd">
<svg version="1.1" id="flag-icon-css-am" xmlns="http://www.w3.org/2000/svg" xmlns:xlink="http://www.w3.org/1999/xlink" x="0px"
	 y="0px" width="150px" height="150px" viewBox="0 0 150 150" enable-background="new 0 0 150 150" xml:space="preserve">
<g>
	<path fill-rule="evenodd" clip-rule="evenodd" fill="#055E05" d="M72.56,3.505c1.626,0,3.25,0,4.875,0
		c0.467,0.057,0.933,0.117,1.399,0.171c3.188,0.368,6.416,0.532,9.558,1.138c17.478,3.374,31.879,11.993,43.08,25.822
		c8.656,10.688,13.772,22.926,15.443,36.588c0.225,1.838,0.386,3.684,0.577,5.527c0,2.167,0,4.332,0,6.498
		c-0.06,0.396-0.126,0.79-0.177,1.187c-0.438,3.381-0.639,6.812-1.342,10.137c-3.916,18.479-13.563,33.316-28.852,44.397
		c-9.93,7.197-21.054,11.479-33.241,12.95c-1.808,0.217-3.621,0.385-5.432,0.575c-2.302,0-4.602,0-6.904,0
		c-0.363-0.061-0.724-0.133-1.088-0.181c-3.349-0.439-6.742-0.663-10.04-1.351c-15.259-3.18-28.322-10.431-38.726-22.039
		C5.508,106.873-0.441,85.69,4.085,61.919C7.858,42.101,18.628,26.632,35.387,15.42c9.427-6.307,19.854-10.029,31.13-11.335
		C68.527,3.852,70.546,3.696,72.56,3.505z M76.609,141.207c36.256,0.083,65.728-29.041,66.6-65.264
		c0.898-37.397-28.578-67.749-64.896-68.575c-36.933-0.84-67.462,28.699-68.029,65.856C9.711,110.776,39.724,141.127,76.609,141.207
		z"/>
	<path fill-rule="evenodd" clip-rule="evenodd" fill="#055E05" d="M70.496,113.312c0.396-1.172,0.691-2.055,0.994-2.937
		c1.206-3.515,2.53-6.992,3.59-10.551c1.723-5.782,1.084-11.329-1.867-16.661c-3.016-5.444-6.424-10.58-10.878-14.959
		c-0.811-0.796-1.75-1.513-2.743-2.059c-1.434-0.788-2.582-0.107-2.488,1.509c0.13,2.257,0.59,4.498,0.688,6.754
		c0.074,1.701-0.016,3.455-0.355,5.118c-0.625,3.067-5.911,5.398-8.571,1.882c-0.02-0.026-0.047-0.049-0.068-0.075
		c-2.646-3.249-2.653-2.8-6.417-2.046c-1.119,0.225-2.277,0.366-3.415,0.351c-1.623-0.024-2.644-0.887-3.136-2.42
		c-0.697-2.161-0.314-4.124,1.359-5.673c1.085-1.004,2.355-1.808,3.536-2.709c0.617-0.47,1.283-0.898,1.82-1.449
		c1.24-1.274,0.824-2.815-0.895-3.238c-0.943-0.232-1.939-0.248-2.912-0.359c-1.342-0.151-2.703-0.214-4.023-0.475
		c-1.525-0.301-2.628-1.143-2.973-2.803c-0.375-1.8-0.126-3.384,1.388-4.567c0.607-0.475,1.278-0.904,1.981-1.216
		c1.398-0.621,1.905-1.722,1.951-3.154c0.043-1.352,0.064-2.708,0.186-4.054c0.159-1.753,0.949-3.145,2.538-4.03
		c2.941-1.639,5.152-1.072,6.816,1.838c0.652,1.142,1.138,2.379,1.775,3.531c0.388,0.701,0.852,1.389,1.408,1.958
		c0.614,0.631,1.542,0.821,2.236,0.324c0.487-0.347,0.929-1.148,0.912-1.733c-0.041-1.511-0.357-3.014-0.547-4.522
		c-0.245-1.943-0.585-3.883-0.677-5.834c-0.073-1.545,0.193-3.139,1.937-3.781c1.976-0.728,3.978-0.875,5.533,0.869
		c0.842,0.945,1.5,2.078,2.125,3.191c1.469,2.619,2.113,3.069,5.031,2.549c2.24-0.399,3.716,0.599,4.968,2.203
		c0.854,1.093,0.946,2.369,0.278,3.534c-0.7,1.219-1.504,2.422-2.47,3.435c-1.654,1.738-3.5,3.291-5.203,4.983
		c-0.761,0.755-1.486,1.594-2.025,2.512c-0.736,1.255-0.349,2.385,1.027,2.856c1.197,0.411,2.498,0.714,3.755,0.72
		c7.54,0.043,14.61-1.727,20.974-5.875c1.313-0.857,2.521-1.954,3.556-3.138c1.513-1.734,1.092-3.191-1.114-3.791
		c-2.013-0.546-4.119-0.743-6.17-1.154c-1.785-0.356-3.614-0.627-5.318-1.232c-3.837-1.363-4.728-5.35-1.652-7.99
		c2.041-1.752,3.175-3.746,3.862-6.292c0.938-3.486,3.267-5.064,6.615-4.996c1.848,0.038,3.353,0.759,4.413,2.285
		c0.637,0.914,1.106,1.958,1.818,2.801c0.404,0.479,1.176,0.955,1.734,0.903c0.495-0.045,1.087-0.744,1.339-1.292
		c0.406-0.879,0.562-1.872,0.831-2.813c0.196-0.682,0.39-1.365,0.619-2.035c1.481-4.317,4.963-4.803,8.124-3.956
		c1.386,0.372,2.181,1.396,2.733,2.663c1.16,2.65,1.447,2.798,4.218,1.884c2.016-0.665,3.841-0.69,5.377,1.06
		c1.234,1.407,1.506,3.042,0.369,4.534c-0.868,1.139-1.983,2.114-3.095,3.034c-1.011,0.838-2.171,1.494-3.252,2.25
		c-0.608,0.425-1.228,0.849-1.776,1.346c-1.328,1.204-1.139,2.445,0.524,3.128c1.247,0.513,2.574,0.829,3.833,1.312
		c1.102,0.422,2.221,0.854,3.225,1.456c3.054,1.825,3.798,5.493,1.629,8.312c-0.787,1.024-1.846,1.877-2.895,2.654
		c-0.893,0.659-1.585,1.393-1.781,2.479c-0.585,3.221-2.729,4.78-5.736,5.347c-1.453,0.274-2.945,0.468-4.42,0.468
		c-2.258-0.002-3.871-1.193-4.652-3.294c-0.478-1.287-0.802-2.656-0.997-4.016c-0.482-3.348-1.571-3.917-4.234-1.809
		c-4.011,3.175-8.367,5.715-13.062,7.704c-1.833,0.777-3.689,1.5-5.732,2.327c4.693,2.363,9.333,4.522,13.797,6.999
		c4.481,2.484,8.785,5.286,13.134,7.93c-0.239-1.106-0.669-2.306-0.721-3.521c-0.071-1.601-0.022-3.248,0.3-4.81
		c0.378-1.827,1.67-3.085,3.442-3.709c3.098-1.091,6.07-1.07,8.321,1.704c2.191,2.699,4.947,4.09,8.375,4.289
		c0.503,0.028,1,0.167,1.496,0.273c3.506,0.743,5.179,3.954,3.633,7.227c-0.534,1.138-1.413,2.131-2.233,3.108
		c-0.846,1.008-1.89,1.853-2.707,2.879c-1.112,1.398-0.666,2.651,1.059,3.155c0.675,0.198,1.395,0.257,2.096,0.349
		c0.67,0.089,1.35,0.123,2.021,0.207c2.951,0.37,3.913,2.17,2.434,4.775c-0.465,0.817-1.278,1.456-1.999,2.103
		c-0.474,0.424-1.057,0.729-1.606,1.061c-1.698,1.02-2.674,2.521-3.091,4.442c-0.28,1.287-0.597,2.571-0.991,3.827
		c-0.619,1.967-1.755,3.45-3.997,3.647c-2.438,0.213-4.682-0.278-5.966-2.566c-0.731-1.303-1.077-2.823-1.581-4.252
		c-0.28-0.794-0.436-1.646-0.811-2.391c-0.701-1.396-2.194-1.467-2.919-0.086c-0.783,1.49-1.267,3.134-2.038,4.632
		c-0.937,1.822-1.849,3.709-3.111,5.298c-1.749,2.199-4.587,2.755-6.979,1.776c-0.998-0.406-1.736-1.061-2.012-2.126
		c-0.708-2.745-2.326-4.53-5.114-5.356c-1.988-0.59-3.064-3.23-2.501-5.575c0.523-2.175,1.995-3.652,3.712-4.912
		c3.038-2.23,6.498-3.58,10.063-4.696c0.227-0.07,0.454-0.135,0.681-0.201c2.14-0.629,2.437-1.572,1.073-3.378
		c-2.386-3.156-5.178-5.893-8.418-8.166c-5.853-4.105-12.222-7.189-18.954-9.551c-0.473-0.167-0.978-0.302-1.475-0.333
		c-1.067-0.068-1.688,0.657-1.381,1.686c0.199,0.668,0.564,1.299,0.938,1.896c1.43,2.296,2.936,4.544,4.341,6.854
		c3.875,6.375,5.418,13.213,3.933,20.617c-0.505,2.515-1.031,5.027-1.549,7.541c-0.164,0.799-0.634,1.244-1.426,1.525
		C75.483,111.388,73.159,112.304,70.496,113.312z"/>
	<path fill-rule="evenodd" clip-rule="evenodd" fill="#055E05" d="M72.874,71.647c11.008,3.913,21.456,8.609,28.674,18.505
		c-0.632,0.424-1.018,0.692-1.524,0.084c-3.655-4.395-8.276-7.586-13.297-10.156c-3.812-1.95-7.809-3.536-11.729-5.272
		C73.653,74.211,73.326,72.918,72.874,71.647z"/>
	<path fill-rule="evenodd" clip-rule="evenodd" fill="#055E05" d="M58.681,79.995c0.281,3.851-1.967,6.653-5.568,7.12
		c-1.4,0.181-2.624-0.246-3.627-1.207c-0.707-0.676-1.35-1.422-1.979-2.173c-0.748-0.895-1.61-1.228-2.782-0.937
		c-1.343,0.333-2.709,0.621-4.081,0.773c-3.307,0.37-5.023-1.066-5.406-4.55c2.373,2.635,5.223,2.014,8.002,1.309
		c1.734-0.439,2.958-0.328,4.213,1.235C50.95,85.921,56.062,85.211,58.681,79.995z"/>
	<path fill-rule="evenodd" clip-rule="evenodd" fill="#055E05" d="M86.006,107.109c1.004,0.517,1.991,1.166,3.073,1.551
		c1.662,0.591,2.732,1.663,3.316,3.295c1.559,4.341,5.775,5.766,9.738,3.29c2.131-1.331,3.369-3.376,4.365-5.584
		c0.666-1.477,1.212-3.006,1.844-4.498c0.282-0.662,0.644-1.292,0.969-1.936c0.139-0.003,0.277-0.006,0.416-0.009
		c0.352,1.012,0.702,2.022,1.066,3.069c-0.558-0.08-1.042-0.294-1.391-0.157c-0.352,0.138-0.658,0.585-0.825,0.968
		c-0.677,1.543-1.193,3.165-1.958,4.663c-0.868,1.701-1.762,3.448-2.96,4.915c-1.967,2.404-5.028,3.041-7.705,1.944
		c-1.126-0.46-1.937-1.208-2.293-2.398c-0.067-0.227-0.161-0.444-0.226-0.672c-0.627-2.189-2.017-3.57-4.215-4.25
		C87.087,110.641,86.068,109.149,86.006,107.109z"/>
	<path fill-rule="evenodd" clip-rule="evenodd" fill="#055E05" d="M111.925,109.833c1.394,2.623,3.648,3.708,6.506,3.758
		c2.706,0.049,4.651-1.087,5.677-3.592c0.571-1.396,0.969-2.886,1.265-4.368c0.405-2.026,1.45-3.458,3.201-4.563
		c1.394-0.881,2.6-2.06,3.858-3.08c0.154,1.658-0.411,3.264-1.875,4.483c-0.854,0.71-1.806,1.307-2.739,1.914
		c-1.343,0.873-2.197,2.056-2.561,3.623c-0.328,1.415-0.68,2.826-1.108,4.212c-0.703,2.277-2.07,3.877-4.617,4.061
		c-2.667,0.192-5.013-0.474-6.451-2.923c-0.62-1.054-0.979-2.262-1.459-3.399C111.724,109.915,111.824,109.874,111.925,109.833z"/>
	<path fill-rule="evenodd" clip-rule="evenodd" fill="#055E05" d="M79.462,66.501c6.76-2.478,12.773-5.884,18.192-10.353
		c0.111,0.08,0.223,0.159,0.332,0.238c0.165,0.841,0.329,1.684,0.448,2.3c-1.236,0.804-2.405,1.443-3.438,2.255
		c-3.668,2.878-7.725,5.063-11.982,6.908c-0.221,0.095-0.544,0.144-0.745,0.053C81.387,67.503,80.532,67.043,79.462,66.501z"/>
	<path fill-rule="evenodd" clip-rule="evenodd" fill="#055E05" d="M122.11,54.161c0.145,1.311-0.208,2.749-1.16,3.926
		c-0.816,1.012-1.768,1.981-2.836,2.708c-1.159,0.787-1.795,1.764-2.089,3.077c-0.345,1.54-1.107,2.841-2.483,3.674
		c-0.318,0.193-0.821,0.241-1.196,0.159c-2.652-0.575-5.194-0.317-7.532,1.079c-0.661,0.395-1.15,0.38-1.761,0.068
		c-1.766-0.901-2.616-2.474-3.17-4.267c-0.118-0.383-0.199-0.779-0.303-1.194c0.101,0.016,0.177,0.006,0.193,0.033
		c1.548,2.666,3.982,3.616,6.886,3.257c1.959-0.242,3.924-0.7,5.788-1.343c2.031-0.701,3.344-2.28,3.834-4.401
		c0.32-1.395,1.057-2.337,2.211-3.208C119.857,56.7,120.959,55.322,122.11,54.161z"/>
	<path fill-rule="evenodd" clip-rule="evenodd" fill="#055E05" d="M22.143,95.07c0.188,0.15,0.65,0.358,0.858,0.715
		c1.718,2.941,3.404,5.902,5.064,8.876c0.528,0.946,0.067,1.706-1.385,2.465c-0.874,0.457-1.29-0.058-1.669-0.745
		c-1.581-2.864-3.18-5.72-4.768-8.581C19.395,96.272,20.075,95.144,22.143,95.07z"/>
	<path fill-rule="evenodd" clip-rule="evenodd" fill="#055E05" d="M29.905,107.918c0.388,0.26,0.769,0.423,1.022,0.7
		c2.245,2.476,4.478,4.963,6.688,7.468c0.708,0.804,0.515,1.386-0.645,2.451c-0.704,0.647-1.292,0.534-1.902-0.144
		c-2.259-2.508-4.542-4.994-6.802-7.502c-0.803-0.891-0.744-1.331,0.236-2.052C28.927,108.526,29.384,108.257,29.905,107.918z"/>
	<path fill-rule="evenodd" clip-rule="evenodd" fill="#055E05" d="M21.215,91.756c0.017,0.799-0.81,1.507-1.99,1.682
		c-0.781,0.114-1.077-0.383-1.253-1.025c-0.909-3.317-1.811-6.636-2.736-9.947c-0.225-0.802,0.01-1.31,0.789-1.583
		c1.162-0.406,1.851-0.259,2.122,0.606c1.037,3.313,2.018,6.644,3.019,9.969C21.193,91.553,21.199,91.656,21.215,91.756z"/>
	<path fill-rule="evenodd" clip-rule="evenodd" fill="#055E05" d="M74.937,45.934c2.455,2.66,5.771,2.939,8.988,3.484
		c1.926,0.325,3.856,0.649,5.77,1.047c0.497,0.104,1.229,0.239,1.06,1.066c-0.18,0.883-1.009,1.461-1.764,1.333
		c-2.896-0.493-5.802-0.923-8.685-1.483c-0.977-0.19-1.938-0.603-2.826-1.071C75.792,49.419,75.025,48.025,74.937,45.934z"/>
	<path fill-rule="evenodd" clip-rule="evenodd" fill="#055E05" d="M49.913,126.122c-0.495,0.696-0.798,1.39-1.327,1.759
		c-0.281,0.197-1.044-0.03-1.433-0.295c-2.682-1.827-5.319-3.72-7.977-5.58c-0.652-0.456-1.135-0.973-0.476-1.731
		c1.156-1.328,1.604-1.619,2.521-0.907c2.453,1.909,4.998,3.7,7.49,5.559C49.115,125.228,49.436,125.641,49.913,126.122z"/>
	<path fill-rule="evenodd" clip-rule="evenodd" fill="#055E05" d="M43.294,113.866c-0.572-0.43-0.981-0.659-1.29-0.983
		c-1.96-2.058-3.892-4.14-5.846-6.202c-0.537-0.566-0.908-1.134-0.256-1.839c0.948-1.028,1.889-1.236,2.634-0.511
		c1.04,1.015,2.02,2.093,3.02,3.146c1.002,1.055,2.042,2.078,2.975,3.188c0.297,0.354,0.566,1.09,0.396,1.404
		C44.569,112.729,43.91,113.223,43.294,113.866z"/>
	<path fill-rule="evenodd" clip-rule="evenodd" fill="#055E05" d="M30.121,92.602c0.198,0.147,0.7,0.357,0.945,0.734
		c1.527,2.346,3.014,4.717,4.475,7.103c0.53,0.867,0.185,1.504-1.047,2.225c-0.784,0.461-1.344,0.212-1.778-0.505
		c-1.433-2.365-2.865-4.73-4.291-7.1C27.593,93.679,28.196,92.631,30.121,92.602z"/>
	<path fill-rule="evenodd" clip-rule="evenodd" fill="#055E05" d="M47.43,113.541c0.63,0.369,1.046,0.573,1.417,0.84
		c2,1.44,3.983,2.905,5.985,4.345c0.869,0.625,0.913,0.865,0.229,2.017c-0.603,1.015-1.131,1.271-1.943,0.741
		c-1.695-1.106-3.342-2.289-5.001-3.453c-0.552-0.388-1.083-0.808-1.616-1.222c-0.48-0.373-1.146-0.788-0.744-1.459
		C46.159,114.679,46.832,114.168,47.43,113.541z"/>
	<path fill-rule="evenodd" clip-rule="evenodd" fill="#055E05" d="M14.263,72.118c0-1.653,0.014-3.308-0.005-4.962
		c-0.01-0.839,0.309-1.375,1.189-1.445c0.835-0.068,1.317,0.383,1.377,1.37c0.193,3.201,0.37,6.404,0.522,9.607
		c0.058,1.21-0.814,1.937-2.025,1.768c-0.689-0.095-0.847-0.581-0.848-1.172c-0.003-1.723-0.001-3.443-0.001-5.166
		C14.402,72.118,14.333,72.118,14.263,72.118z"/>
	<path fill-rule="evenodd" clip-rule="evenodd" fill="#055E05" d="M28.938,89.153c0.02,1.153-0.808,1.437-1.539,1.535
		c-0.422,0.057-1.203-0.317-1.333-0.676c-1.081-2.974-2.077-5.977-3.005-9c-0.105-0.348,0.258-1.054,0.606-1.274
		c0.627-0.4,1.376-0.351,1.888,0.343c0.155,0.211,0.235,0.482,0.329,0.733c0.946,2.559,1.887,5.12,2.829,7.68
		C28.805,88.745,28.886,89.001,28.938,89.153z"/>
	<path fill-rule="evenodd" clip-rule="evenodd" fill="#055E05" d="M74.388,89.361c-2.336-4.764-5.13-9.179-8.45-13.247
		c-1.342-1.644-2.803-3.207-4.338-4.668c-0.849-0.809-1.965-1.335-3.223-2.16c-0.022-0.452-0.061-1.279-0.117-2.464
		c0.811,0.465,1.474,0.676,1.899,1.117c2.011,2.086,4.097,4.124,5.893,6.388c3.22,4.058,5.948,8.444,7.792,13.325
		C74.055,88.21,74.208,88.791,74.388,89.361z"/>
	<path fill-rule="evenodd" clip-rule="evenodd" fill="#055E05" d="M61.675,132.122c-0.008,1.365-0.821,1.925-1.85,1.495
		c-2.614-1.094-5.217-2.219-7.831-3.314c-0.709-0.298-1.178-0.686-0.823-1.533c0.487-1.161,1.161-1.554,2.085-1.131
		c2.086,0.953,4.157,1.945,6.233,2.922c0.489,0.23,1.018,0.405,1.45,0.716C61.29,131.526,61.521,131.937,61.675,132.122z"/>
	<path fill-rule="evenodd" clip-rule="evenodd" fill="#055E05" d="M81.691,106.027c-0.617,2.412-1.199,4.831-1.882,7.223
		c-0.116,0.404-0.613,0.824-1.031,0.993c-2.507,1.009-5.045,1.94-7.565,2.91c-0.771,0.295-1.007-0.002-0.891-0.742
		c0.178-1.141,0.507-2.041,1.836-2.454c2.189-0.676,4.299-1.607,6.458-2.393c0.827-0.302,1.388-0.802,1.635-1.649
		c0.385-1.325,0.774-2.649,1.161-3.974C81.507,105.971,81.599,105.999,81.691,106.027z"/>
	<path fill-rule="evenodd" clip-rule="evenodd" fill="#055E05" d="M65.872,125.132c0.008,1.719-0.879,2.325-2.115,1.758
		c-1.961-0.902-3.911-1.826-5.872-2.726c-0.762-0.351-1.271-0.792-0.842-1.719c0.569-1.234,1.193-1.587,2.17-1.115
		c1.943,0.937,3.88,1.888,5.785,2.896C65.417,124.45,65.694,124.941,65.872,125.132z"/>
	<path fill-rule="evenodd" clip-rule="evenodd" fill="#055E05" d="M72.922,48.667c-0.167,0.86-0.143,1.821-0.54,2.551
		c-0.685,1.259-1.51,2.492-2.498,3.524c-1.794,1.876-3.737,3.613-5.658,5.363c-0.208,0.188-0.791,0.235-0.997,0.079
		c-0.231-0.173-0.402-0.722-0.296-0.985c0.209-0.515,0.573-1,0.971-1.399c1.118-1.125,2.316-2.169,3.428-3.3
		C69.181,52.617,70.987,50.69,72.922,48.667z"/>
	<path fill-rule="evenodd" clip-rule="evenodd" fill="#055E05" d="M24.605,75.669c0.026,0.873-0.531,1.474-1.427,1.486
		c-0.87,0.01-1.139-0.556-1.203-1.319c-0.229-2.724-0.462-5.45-0.712-8.173c-0.07-0.758,0.067-1.434,0.912-1.537
		c0.875-0.108,1.266,0.53,1.371,1.306c0.306,2.274,0.582,4.554,0.872,6.832C24.477,74.732,24.543,75.201,24.605,75.669z"/>
	<path fill-rule="evenodd" clip-rule="evenodd" fill="#055E05" d="M31.379,62.786c1.48,1.53,3.25,1.895,5.085,2.067
		c1.51,0.143,3.025,0.228,4.53,0.405c0.35,0.042,0.667,0.357,1,0.546c-0.197,0.336-0.339,0.725-0.601,0.998
		c-0.678,0.706-1.465,1.118-2.523,0.931c-1.52-0.27-3.094-0.302-4.577-0.692C32.286,66.512,31.399,65.113,31.379,62.786z"/>
	<path fill-rule="evenodd" clip-rule="evenodd" fill="#055E05" d="M111.131,41.743c2.942-2.753,6.927-4.139,9.212-7.773
		c0.416,1.498,0.098,2.696-0.733,3.663c-0.894,1.042-1.935,1.969-2.979,2.866c-0.714,0.613-1.54,1.094-2.324,1.623
		C113.09,42.941,112.505,42.89,111.131,41.743z"/>
	<path fill-rule="evenodd" clip-rule="evenodd" fill="#055E05" d="M18.764,53.22c-0.477,2.567-0.906,4.887-1.337,7.206
		c-0.105,0.563-0.196,1.129-0.327,1.687c-0.203,0.865-0.847,1.308-1.625,1.111c-0.888-0.224-0.761-0.849-0.602-1.524
		c0.642-2.722,1.257-5.45,1.888-8.174c0.149-0.643,0.471-1.222,1.207-1.071C18.313,52.523,18.569,53.02,18.764,53.22z"/>
	<path fill-rule="evenodd" clip-rule="evenodd" fill="#055E05" d="M69.371,126.005c0.093,0.023,0.257,0.06,0.417,0.109
		c1.87,0.577,3.742,1.149,5.609,1.739c0.799,0.252,1.18,0.802,0.93,1.632c-0.231,0.774-0.822,1.057-1.587,0.857
		c-1.96-0.511-3.915-1.037-5.863-1.589c-0.67-0.188-1.009-0.664-0.85-1.387C68.181,126.671,68.453,126.071,69.371,126.005z"/>
	<path fill-rule="evenodd" clip-rule="evenodd" fill="#055E05" d="M71.513,136.616c-2.52-0.551-4.767-1.025-7.002-1.544
		c-0.641-0.147-0.825-0.663-0.663-1.27c0.19-0.712,0.644-1.138,1.416-0.961c1.183,0.271,2.355,0.596,3.529,0.905
		c0.948,0.25,1.925,0.431,2.819,0.807c0.384,0.163,0.845,0.778,0.804,1.134C72.373,136.062,71.771,136.37,71.513,136.616z"/>
	<path fill-rule="evenodd" clip-rule="evenodd" fill="#055E05" d="M85.448,131.817c-1.813-0.179-3.623-0.363-5.438-0.532
		c-0.683-0.064-1.219-0.311-1.168-1.09c0.052-0.791,0.554-1.288,1.341-1.199c2.009,0.229,4.017,0.497,6.002,0.871
		c0.356,0.068,0.887,0.759,0.843,1.096C86.921,131.776,86.174,131.882,85.448,131.817z"/>
	<path fill-rule="evenodd" clip-rule="evenodd" fill="#055E05" d="M24.239,54.979c-0.282,2.684-0.522,4.996-0.77,7.308
		c-0.08,0.754-0.417,1.373-1.261,1.237c-0.815-0.13-0.859-0.82-0.75-1.513c0.337-2.164,0.665-4.329,0.999-6.493
		c0.02-0.134,0.009-0.296,0.083-0.392c0.298-0.395,0.623-0.768,0.939-1.148C23.785,54.384,24.095,54.79,24.239,54.979z"/>
	<path fill-rule="evenodd" clip-rule="evenodd" fill="#055E05" d="M94.688,129.844c1.045,0,2.093-0.053,3.131,0.025
		c0.439,0.033,0.858,0.338,1.288,0.521c-0.414,0.274-0.799,0.725-1.245,0.796c-1.361,0.218-2.745,0.293-4.121,0.418
		c-0.871,0.079-1.745,0.149-2.618,0.224c-0.619,0.054-1.377,0.128-1.421-0.69c-0.042-0.774,0.668-1.042,1.349-1.061
		c1.213-0.038,2.427-0.012,3.638-0.012C94.688,129.991,94.688,129.918,94.688,129.844z"/>
	<path fill-rule="evenodd" clip-rule="evenodd" fill="#055E05" d="M79.371,137.102c-1.112,0-2.233,0.067-3.336-0.034
		c-0.394-0.036-1.027-0.442-1.066-0.743c-0.09-0.68,0.508-0.981,1.137-0.982c0.639,0,1.278,0.099,1.916,0.157
		c1.581,0.142,3.165,0.25,4.737,0.453c0.396,0.051,0.752,0.408,1.128,0.625c-0.392,0.247-0.768,0.671-1.178,0.706
		c-1.105,0.101-2.225,0.034-3.338,0.034C79.371,137.246,79.371,137.175,79.371,137.102z"/>
	<path fill-rule="evenodd" clip-rule="evenodd" fill="#055E05" d="M129.699,83.471c0.157,1.234-0.109,2.467-0.821,3.493
		c-0.879,1.267-1.938,2.41-2.947,3.581c-0.532,0.62-1.171,0.304-1.61-0.072c-0.157-0.137-0.009-0.865,0.215-1.157
		c0.511-0.665,1.184-1.202,1.737-1.835C127.424,86.17,128.541,84.83,129.699,83.471z"/>
	<path fill-rule="evenodd" clip-rule="evenodd" fill="#055E05" d="M22.626,43.291c-0.978,2.16-1.926,4.314-2.954,6.429
		c-0.096,0.197-0.743,0.268-1.051,0.161c-0.161-0.057-0.296-0.7-0.179-0.958c0.87-1.901,1.782-3.786,2.746-5.642
		c0.15-0.289,0.619-0.433,0.968-0.579C22.208,42.68,22.411,43.016,22.626,43.291z"/>
	<path fill-rule="evenodd" clip-rule="evenodd" fill="#055E05" d="M26.884,44.651c-0.043,0.415-0.024,0.85-0.145,1.243
		c-0.464,1.518-0.963,3.027-1.473,4.531c-0.106,0.31-0.262,0.642-0.491,0.864c-0.435,0.421-0.943,0.221-0.998-0.381
		c-0.026-0.29,0.041-0.61,0.145-0.887c0.56-1.486,1.121-2.971,1.737-4.434c0.175-0.416,0.531-0.755,0.804-1.129
		C26.604,44.521,26.744,44.586,26.884,44.651z"/>
	<path fill-rule="evenodd" clip-rule="evenodd" fill="#055E05" d="M96.514,134.993c-1.204,0.951-9.284,2.161-10.217,1.655
		c0.328-0.237,0.582-0.572,0.872-0.606C90.28,135.666,93.397,135.335,96.514,134.993z"/>
	<path fill-rule="evenodd" clip-rule="evenodd" fill="#055E05" d="M23.345,40.351c-0.043-0.965,2.66-4.747,3.792-5.305
		C27.362,36.179,24.377,40.354,23.345,40.351z"/>
	<path fill-rule="evenodd" clip-rule="evenodd" fill="#055E05" d="M100.918,130.077c0.375-0.242,0.729-0.645,1.129-0.697
		c1.912-0.256,3.838-0.419,5.775-0.503c-2.236,0.57-4.409,1.409-6.716,1.613C101.044,130.353,100.981,130.215,100.918,130.077z"/>
	<path fill-rule="evenodd" clip-rule="evenodd" fill="#055E05" d="M27.789,42.494c-0.225-1.322,1.652-4.553,2.901-5.142
		C29.956,39.1,29.216,40.845,27.789,42.494z"/>
	<path fill-rule="evenodd" clip-rule="evenodd" fill="#055E05" d="M33.578,28.487c-1.491,1.565-2.982,3.131-4.473,4.697
		c-0.112-0.107-0.223-0.215-0.334-0.323c1.335-1.716,3.038-3.078,4.59-4.583C33.434,28.347,33.506,28.417,33.578,28.487z"/>
	<path fill-rule="evenodd" clip-rule="evenodd" fill="#055E05" d="M35.293,31.369c-0.982,1.255-1.966,2.511-2.948,3.766
		c-0.116-0.095-0.23-0.189-0.347-0.284c1.026-1.229,2.053-2.459,3.078-3.688C35.149,31.231,35.222,31.299,35.293,31.369z"/>
</g>
</svg>
