<?xml version="1.0" encoding="utf-8"?>
<!-- Generator: Adobe Illustrator 16.0.0, SVG Export Plug-In . SVG Version: 6.00 Build 0)  -->
<!DOCTYPE svg PUBLIC "-//W3C//DTD SVG 1.1//EN" "http://www.w3.org/Graphics/SVG/1.1/DTD/svg11.dtd">
<svg version="1.1" id="flag-icon-css-am" xmlns="http://www.w3.org/2000/svg" xmlns:xlink="http://www.w3.org/1999/xlink" x="0px"
	 y="0px" width="150px" height="150px" viewBox="0 0 150 150" enable-background="new 0 0 150 150" xml:space="preserve">
<g>
	
		<linearGradient id="SVGID_1_" gradientUnits="userSpaceOnUse" x1="1.2388" y1="150.582" x2="1.4476" y2="150.582" gradientTransform="matrix(5.9999 -299.9857 -299.9857 -5.9999 45236.8555 1404.9761)">
		<stop  offset="0" style="stop-color:#FFFFFF"/>
		<stop  offset="1" style="stop-color:#010101"/>
	</linearGradient>
	<path fill="url(#SVGID_1_)" d="M115.424,104.05c-6.123,11.834-40.853,36.222-40.853,36.222s-34.567-24.42-40.661-36.222
		c-7.701-14.913-7.695-78.029-7.695-78.029l48.356-15.711l46.459,15.711C121.03,26.021,123.138,89.143,115.424,104.05z"/>
	
		<linearGradient id="SVGID_2_" gradientUnits="userSpaceOnUse" x1="0.9287" y1="150.5654" x2="1.1372" y2="150.5654" gradientTransform="matrix(-110.1308 -624.5826 -624.5826 110.1308 94233.7422 -15862.1387)">
		<stop  offset="0" style="stop-color:#565759"/>
		<stop  offset="1" style="stop-color:#BABCBE"/>
	</linearGradient>
	<path fill="url(#SVGID_2_)" d="M115.424,104.05l-1.762-0.911c-0.652,1.267-1.784,2.852-3.261,4.578
		c-1.291,1.513-2.844,3.144-4.568,4.828c-3.018,2.95-6.56,6.067-10.17,9.073c-5.414,4.51-10.98,8.773-15.188,11.905
		c-2.104,1.566-3.867,2.849-5.104,3.739c-0.618,0.446-1.104,0.793-1.436,1.027c-0.166,0.118-0.293,0.208-0.378,0.268
		c-0.043,0.03-0.074,0.054-0.096,0.068s-0.031,0.021-0.031,0.021l1.141,1.624l1.144-1.621l-0.023-0.017
		c-0.503-0.355-9.138-6.485-18.359-13.946c-4.609-3.729-9.367-7.792-13.31-11.609c-1.971-1.907-3.737-3.753-5.173-5.449
		c-1.436-1.692-2.538-3.245-3.177-4.488c-0.416-0.805-0.834-1.833-1.232-3.04c-0.749-2.265-1.429-5.152-2.023-8.442
		c-1.043-5.76-1.836-12.755-2.43-19.987c-0.892-10.852-1.339-22.245-1.563-30.931c-0.224-8.687-0.225-14.669-0.225-14.719l-1.963,0
		l1.963,0.044l0-0.044h-1.963l1.963,0.044l-1.983-0.045l0.613,1.887l47.73-15.508L120.396,27.9l0.635-1.879l-1.982,0.066
		c0,0,0.002,0.028,0.003,0.088c0.029,0.89,0.259,8.43,0.259,18.568c0.001,9.898-0.221,22.278-1.059,33.334
		c-0.418,5.526-0.991,10.724-1.76,15.088c-0.383,2.182-0.814,4.154-1.292,5.845c-0.476,1.689-1.002,3.098-1.537,4.129
		L115.424,104.05l1.762,0.912c0.713-1.379,1.305-3.012,1.832-4.875c0.919-3.258,1.628-7.229,2.193-11.654
		c0.847-6.634,1.36-14.282,1.666-21.914c0.305-7.63,0.4-15.241,0.4-21.776c0-10.877-0.264-18.773-0.264-18.789l-0.046-1.373
		L74.583,8.219l-50.319,16.35l-0.032,1.407l0,0.045c0,0.121,0.001,15.931,0.967,33.614c0.483,8.844,1.207,18.153,2.3,26.235
		c0.547,4.043,1.186,7.777,1.942,11.013c0.379,1.617,0.787,3.111,1.232,4.462c0.447,1.351,0.93,2.559,1.475,3.616
		c0.875,1.687,2.161,3.449,3.749,5.319c1.389,1.634,3.011,3.34,4.79,5.087c3.113,3.054,6.707,6.229,10.354,9.282
		c5.471,4.579,11.06,8.884,15.285,12.048c4.227,3.163,7.09,5.187,7.101,5.194l1.142,0.807l1.143-0.804
		c0.021-0.015,8.729-6.128,18.232-13.749c4.753-3.812,9.705-7.998,13.889-12.012c2.092-2.009,3.993-3.973,5.588-5.842
		c1.596-1.872,2.889-3.638,3.767-5.33L115.424,104.05z"/>
</g>
<g>
	<path fill-rule="evenodd" clip-rule="evenodd" fill="#1C2553" d="M140.352,39.017c0.15-0.031,0.186,0.03,0.185,0.182
		c-0.008,1-0.004,2-0.004,3c0,6.171,0,12.343,0,18.514c-0.133,0.006-0.267,0.012-0.403,0.019c0.089,0.389,0.18,0.738,0.245,1.093
		c0.066,0.354,0.106,0.713,0.158,1.07c0,5.453,0,10.908,0,16.362c-0.018,0.088-0.045,0.176-0.053,0.265
		c-0.086,1.111-0.388,2.16-0.91,3.146c-1.389,2.613-4.105,4.096-6.997,3.765c-1.733-0.198-3.456-0.489-5.188-0.701
		c-3.855-0.472-7.71-0.963-11.573-1.364c-3.732-0.388-7.473-0.713-11.215-0.993c-3.622-0.272-7.25-0.479-10.878-0.666
		c-2.922-0.149-5.847-0.246-8.771-0.333c-2.28-0.068-4.562-0.107-6.842-0.122c-2.494-0.016-4.987-0.003-7.481,0.022
		c-2.32,0.022-4.643,0.063-6.963,0.121c-2.098,0.052-4.196,0.12-6.293,0.214c-2.601,0.117-5.2,0.256-7.8,0.407
		c-1.844,0.108-3.686,0.236-5.527,0.383c-2.494,0.198-4.988,0.408-7.48,0.642c-2.24,0.21-4.479,0.442-6.715,0.691
		c-2.125,0.236-4.249,0.495-6.37,0.767c-2.352,0.301-4.7,0.627-7.05,0.941c-0.588,0.077-1.177,0.153-1.788,0.232
		c0-6.204,0-12.37,0-18.566c0.667-0.056,1.325-0.111,1.979-0.165c0-0.59,0-1.14,0-1.703c-1.68-0.037-3.334-0.072-4.988-0.112
		c-1.009-0.023-2.017-0.054-3.025-0.08c0-9.01,0-18.019,0-27.028c0.061,0,0.121,0,0.182,0c0.066,0.021,0.13,0.05,0.197,0.06
		c1.796,0.269,3.589,0.554,5.388,0.8c4.438,0.609,8.873,1.237,13.317,1.789c3.154,0.392,6.319,0.697,9.482,0.994
		c3.094,0.29,6.193,0.543,9.292,0.769c2.616,0.191,5.235,0.344,7.855,0.47c3.084,0.148,6.169,0.27,9.255,0.362
		c2.623,0.078,5.247,0.125,7.871,0.138c3.069,0.016,6.139-0.006,9.208-0.039c2.18-0.022,4.36-0.064,6.538-0.144
		c3.186-0.116,6.371-0.256,9.556-0.421c2.549-0.134,5.097-0.308,7.643-0.489c1.842-0.131,3.684-0.275,5.521-0.463
		c1.555-0.159,3.037,0.005,4.445,0.715c0.083,0.042,0.251,0.002,0.335-0.059c0.958-0.705,2.005-1.231,3.186-1.391
		c2.3-0.311,4.606-0.555,6.909-0.848c2.191-0.278,4.382-0.569,6.568-0.879c2.397-0.339,4.79-0.706,7.184-1.065
		C139.143,39.227,139.746,39.117,140.352,39.017z"/>
	
		<radialGradient id="SVGID_3_" cx="0.3779" cy="150.373" r="0.2091" gradientTransform="matrix(246.7785 0 0 -246.7785 -18.7643 37171.918)" gradientUnits="userSpaceOnUse">
		<stop  offset="0" style="stop-color:#565759"/>
		<stop  offset="1" style="stop-color:#BABCBE"/>
	</radialGradient>
	<path fill="url(#SVGID_3_)" d="M140.352,39.017l0.41,2.047l-0.344-1.716v1.75c0.165-0.001,0.272-0.02,0.344-0.034l-0.344-1.716
		v1.75v-1.922l-0.37,1.886c0.146,0.029,0.27,0.036,0.37,0.037v-1.922l-0.37,1.886l0.381-1.942l-0.803,1.81
		c0.15,0.066,0.295,0.108,0.422,0.133l0.381-1.942l-0.803,1.81l0.812-1.831l-1.202,1.601c0.125,0.094,0.259,0.172,0.391,0.23
		l0.812-1.831l-1.202,1.601l1.201-1.599l-1.714,1.031c0.114,0.193,0.293,0.404,0.513,0.567l1.201-1.599l-1.714,1.031l1.68-1.011
		l-1.86,0.62c0.037,0.112,0.094,0.246,0.181,0.391l1.68-1.011l-1.86,0.62l1.754-0.584l-1.838,0.207
		c0.011,0.086,0.028,0.208,0.084,0.378l1.754-0.584l-1.838,0.207l1.522-0.171l-1.532,0c0,0.032,0.001,0.084,0.01,0.171l1.522-0.171
		l-1.532,0h1.149l-1.149-0.002v0.002h1.149l-1.149-0.002v0.01v-0.016c-0.004,0.521-0.005,1.04-0.005,1.556
		c0,0.489,0.001,0.976,0.001,1.459c0,6.171,0,12.343,0,18.514h2.088l-0.096-2.086c-0.131,0.006-0.266,0.012-0.407,0.019
		l-2.489,0.119l0.553,2.43c0.099,0.429,0.183,0.756,0.229,1.012v-0.001c0.049,0.258,0.088,0.589,0.144,0.986l2.067-0.297h-2.088
		c0,5.453,0,10.908,0,16.362h2.088l-2.046-0.418l0.011,0.003l-0.011-0.003l0,0l0.011,0.003l-0.011-0.003
		c-0.008,0.043-0.061,0.208-0.089,0.516v0.002v0.004c-0.066,0.838-0.284,1.59-0.673,2.327v-0.001
		c-0.46,0.864-1.103,1.536-1.85,1.996c-0.749,0.458-1.6,0.706-2.503,0.707c-0.186,0-0.373-0.011-0.563-0.032l0,0
		c-1.659-0.189-3.377-0.479-5.172-0.7h-0.001c-3.849-0.471-7.715-0.963-11.61-1.368c-3.756-0.39-7.517-0.717-11.274-0.998
		l-0.007-0.001l0.007,0.001c-3.647-0.273-7.291-0.481-10.927-0.669c-2.947-0.151-5.888-0.248-8.815-0.336h-0.001
		c-2.299-0.068-4.596-0.106-6.891-0.122l0,0c-0.763-0.005-1.524-0.007-2.285-0.007c-1.746,0-3.489,0.012-5.23,0.028h0.001
		c-2.332,0.022-4.664,0.064-6.995,0.122l0,0c-2.108,0.053-4.221,0.121-6.335,0.216h-0.001c-2.612,0.118-5.221,0.258-7.826,0.409l0,0
		c-1.859,0.108-3.717,0.238-5.571,0.385l0,0c-2.501,0.2-5.004,0.41-7.509,0.645h0c-2.254,0.211-4.505,0.445-6.751,0.695h0
		c-2.139,0.238-4.274,0.498-6.403,0.77l-0.003,0.001h0.002c-2.367,0.303-4.719,0.629-7.062,0.942h0.002
		c-0.582,0.077-1.169,0.152-1.783,0.232l0.27,2.07h2.088c0-6.204,0-12.37,0-18.566h-2.088l0.175,2.081
		c0.666-0.056,1.324-0.11,1.978-0.166l1.914-0.16v-1.92c0-0.59,0-1.14,0-1.703v-2.041l-2.042-0.046
		c-1.681-0.038-3.334-0.073-4.985-0.112h0c-1-0.024-2.006-0.054-3.019-0.081l-0.056,2.088h2.088c0-9.01,0-18.019,0-27.028H8.604
		v2.088c0.061,0,0.121,0,0.182,0v-2.088l-0.616,1.995L8.5,39.939l-0.36,1.063l0.029,0.009L8.5,39.939l-0.36,1.063l0.196-0.579
		l-0.201,0.577l0.005,0.001l0.196-0.579l-0.201,0.577h0c0.006,0.002,0.051,0.019,0.137,0.047c0.086,0.027,0.216,0.065,0.395,0.093
		l0.002,0l0.003,0c1.784,0.267,3.585,0.553,5.413,0.804c4.432,0.608,8.875,1.238,13.344,1.792l0.033,0.004l-0.033-0.004
		c3.191,0.396,6.377,0.704,9.545,1l0,0c3.111,0.292,6.224,0.545,9.336,0.772h-0.001c2.636,0.192,5.272,0.347,7.907,0.474h0.001
		c3.095,0.149,6.193,0.271,9.292,0.364c2.641,0.079,5.281,0.125,7.924,0.138h-0.001c0.712,0.004,1.424,0.005,2.136,0.005
		c2.372,0,4.74-0.019,7.105-0.043h-0.001c2.191-0.023,4.391-0.064,6.593-0.145c3.196-0.117,6.393-0.257,9.588-0.423h0.001
		c2.57-0.135,5.132-0.31,7.681-0.491c1.853-0.132,3.716-0.278,5.585-0.469h0.001c0.291-0.03,0.57-0.045,0.84-0.045
		c0.455,0,0.879,0.043,1.281,0.131c0.403,0.089,0.787,0.222,1.173,0.416l-0.006-0.002c0.227,0.114,0.426,0.169,0.595,0.202
		c0.17,0.032,0.312,0.041,0.438,0.041c0.157,0,0.289-0.014,0.411-0.035c0.184-0.031,0.345-0.076,0.512-0.141
		c0.168-0.067,0.342-0.148,0.558-0.304l0.002-0.001l0.002-0.001c0.387-0.285,0.766-0.513,1.133-0.68
		c0.369-0.167,0.726-0.273,1.094-0.323c2.26-0.305,4.563-0.55,6.893-0.846c2.199-0.279,4.399-0.571,6.599-0.883
		c2.412-0.341,4.811-0.708,7.201-1.067h-0.001c0.647-0.097,1.263-0.208,1.849-0.306l0.034-0.006l0.033-0.007L140.352,39.017
		l-0.344-2.06c-0.625,0.104-1.217,0.211-1.781,0.295h-0.001c-2.396,0.36-4.784,0.725-7.166,1.063
		c-2.175,0.308-4.354,0.598-6.538,0.875c-2.274,0.289-4.587,0.534-6.926,0.85c-0.812,0.109-1.569,0.346-2.259,0.658
		c-0.69,0.313-1.313,0.7-1.885,1.121l0.003-0.003l1.044,1.424l-0.761-1.593c-0.078,0.038-0.168,0.086-0.283,0.169l1.044,1.424
		l-0.761-1.593l0.691,1.447l-0.376-1.56c-0.105,0.026-0.198,0.057-0.315,0.113l0.691,1.447l-0.376-1.56l0.39,1.619v-1.665
		c-0.171,0.001-0.285,0.021-0.39,0.045l0.39,1.619v-1.665v1.832l0.343-1.799c-0.14-0.026-0.25-0.032-0.343-0.033v1.832l0.343-1.799
		l-0.362,1.902l0.876-1.727c-0.203-0.102-0.374-0.148-0.514-0.176l-0.362,1.902l0.876-1.727l-0.003-0.001l-0.002-0.001
		c-0.702-0.354-1.428-0.606-2.156-0.766s-1.458-0.229-2.177-0.229c-0.425,0-0.847,0.024-1.265,0.066l0,0
		c-1.805,0.185-3.625,0.328-5.456,0.458c-2.543,0.181-5.077,0.354-7.604,0.486l0,0c-3.172,0.165-6.348,0.303-9.523,0.419
		c-2.153,0.079-4.316,0.121-6.483,0.143h-0.016h0.015c-2.357,0.025-4.711,0.043-7.061,0.043c-0.705,0-1.409-0.001-2.114-0.005l0,0
		c-2.606-0.013-5.214-0.059-7.819-0.137c-3.072-0.092-6.146-0.213-9.218-0.361l-0.061-0.003l0.062,0.003
		c-2.605-0.125-5.208-0.278-7.805-0.467l0,0c-3.087-0.225-6.171-0.477-9.249-0.765l0,0c-3.16-0.296-6.304-0.6-9.42-0.987l0,0
		c-4.421-0.549-8.847-1.175-13.291-1.785c-1.77-0.243-3.555-0.526-5.363-0.797l0.005,0.001l-0.229,1.497l0.492-1.434
		c-0.014-0.004-0.098-0.036-0.263-0.063l-0.229,1.497l0.492-1.434l-0.104,0.301l0.105-0.3l-0.002-0.001l-0.104,0.301l0.105-0.3
		c-0.002,0-0.055-0.021-0.162-0.055L9.1,36.928H8.785c-0.061,0-0.121,0-0.182,0H6.516v2.088c0,9.009,0,18.019,0,27.028v2.033
		l2.032,0.054c1.004,0.027,2.015,0.057,3.031,0.081h0c1.657,0.039,3.313,0.074,4.991,0.112l0.047-2.088h-2.088
		c0,0.563,0,1.113,0,1.703h2.088l-0.174-2.081c-0.653,0.055-1.312,0.109-1.979,0.166l-1.913,0.16v1.92c0,6.196,0,12.362,0,18.566
		v2.378l2.358-0.307c0.608-0.079,1.198-0.155,1.792-0.233H16.7l0.002-0.001c2.357-0.315,4.701-0.641,7.038-0.94h0
		c2.113-0.27,4.226-0.526,6.337-0.762h0c2.227-0.248,4.453-0.479,6.679-0.688l0,0c2.479-0.232,4.963-0.441,7.452-0.64h0
		c1.827-0.146,3.655-0.272,5.483-0.379h-0.001c2.593-0.15,5.184-0.289,7.772-0.406H57.46c2.08-0.093,4.164-0.16,6.252-0.212l0,0
		c2.312-0.059,4.622-0.099,6.932-0.121h0.001c1.731-0.018,3.461-0.029,5.188-0.029c0.753,0,1.506,0.002,2.258,0.008l0,0
		c2.267,0.014,4.531,0.052,6.793,0.12l0,0c2.92,0.088,5.831,0.183,8.727,0.332c3.62,0.187,7.231,0.393,10.829,0.662l0.006,0.001
		l-0.007-0.001c3.727,0.279,7.447,0.603,11.156,0.988l0,0c3.831,0.398,7.673,0.888,11.535,1.359l0,0
		c1.669,0.204,3.397,0.497,5.205,0.704l0,0c0.347,0.039,0.693,0.059,1.037,0.059c1.681,0.001,3.3-0.471,4.688-1.325
		c1.39-0.853,2.553-2.087,3.352-3.594l0.012-0.021l-0.011,0.021c0.656-1.232,1.043-2.578,1.148-3.965l-0.001,0.007l-1.369-0.11
		l1.354,0.238c0.005-0.027,0.012-0.07,0.016-0.128l-1.369-0.11l1.354,0.238l-0.873-0.153l0.866,0.189
		c0.001-0.003,0.003-0.016,0.007-0.036l-0.873-0.153l0.866,0.189l-0.115-0.024l0.114,0.026l0.001-0.002l-0.115-0.024l0.114,0.026
		c0.001-0.006,0.018-0.064,0.041-0.18l0.042-0.207v-0.211c0-5.454,0-10.909,0-16.362v-0.149l-0.021-0.148
		c-0.047-0.316-0.089-0.703-0.172-1.152v-0.001c-0.085-0.453-0.184-0.825-0.263-1.175l-2.036,0.463l0.1,2.086
		c0.132-0.007,0.265-0.013,0.4-0.019l1.991-0.092v-1.994c0-6.171,0-12.343,0-18.514c0-0.489-0.001-0.975-0.001-1.459
		c0-0.511,0.001-1.019,0.006-1.524v-0.008v-0.008h-1.122l1.122,0.002v-0.002h-1.122l1.122,0.002v-0.009
		c-0.001-0.104-0.003-0.235-0.035-0.427c-0.024-0.144-0.066-0.326-0.164-0.547c-0.073-0.165-0.182-0.352-0.335-0.531
		c-0.114-0.135-0.254-0.263-0.405-0.369c-0.229-0.161-0.479-0.267-0.699-0.323c-0.222-0.058-0.412-0.073-0.568-0.073
		c-0.204,0.001-0.355,0.024-0.479,0.049L140.352,39.017l-0.344-2.06L140.352,39.017z"/>
</g>
<g>
	<path fill="#1C2553" d="M119.709,61.713c1.229-17.708,1.225-34.47,1.225-34.47l-46.46-15.711L28.207,27.243
		c0,0-0.002,16.762,1.229,34.47H119.709z"/>
	<radialGradient id="SVGID_4_" cx="74.5698" cy="33.9258" r="39.2846" gradientUnits="userSpaceOnUse">
		<stop  offset="0" style="stop-color:#303030"/>
		<stop  offset="1" style="stop-color:#B0B0B0"/>
	</radialGradient>
	<path fill="url(#SVGID_4_)" d="M30.937,46.094c-0.497-10.442-0.609-13.935-0.635-17.357l44.173-15l44.364,15.003
		c-0.024,3.423-0.135,6.913-0.631,17.354l4.181-0.835c0.627-13.326,0.633-17.876,0.633-18.016v-1.498L74.472,9.327l-48.354,16.42
		v1.496c0,0.14,0.009,4.69,0.638,18.016L30.937,46.094z"/>
</g>
<g>
	<g>
		<linearGradient id="SVGID_5_" gradientUnits="userSpaceOnUse" x1="41.4004" y1="48.2588" x2="40.8585" y2="17.9139">
			<stop  offset="0" style="stop-color:#EF4723"/>
			<stop  offset="1" style="stop-color:#FFC808"/>
		</linearGradient>
		<path fill="url(#SVGID_5_)" d="M36.728,44.114c0-0.882,0-1.764,0-2.646c0.275-0.029,0.55-0.057,0.826-0.085
			c-0.009-2.428-0.018-4.855-0.027-7.283c-0.267,0.103-0.533,0.207-0.799,0.312c0-0.882,0-1.764,0-2.646
			c1.05-0.535,2.109-1.047,3.176-1.535c0.024,1.983,0.048,3.967,0.072,5.95c0.792-2.193,1.571-4.535,2.342-7.009
			c1.078-0.453,2.163-0.882,3.254-1.288c0.025,1.16,0.051,2.319,0.076,3.479c-0.548,0.159-1.095,0.323-1.641,0.492
			c-0.387,1.241-0.775,2.45-1.166,3.625c0.684-0.16,1.37-0.314,2.058-0.463c0.04,1.896,0.08,3.791,0.119,5.686
			c0.277-0.022,0.554-0.044,0.833-0.066c0.024,1.159,0.05,2.318,0.075,3.478c-1.115,0-2.229,0-3.344,0
			c-0.038-2.135-0.075-4.269-0.113-6.404c-0.825,0.146-1.647,0.297-2.468,0.454c0.024,1.983,0.048,3.966,0.072,5.95
			C38.957,44.114,37.842,44.114,36.728,44.114z"/>
		<linearGradient id="SVGID_6_" gradientUnits="userSpaceOnUse" x1="54.8794" y1="48.8159" x2="54.2119" y2="11.4364">
			<stop  offset="0" style="stop-color:#EF4723"/>
			<stop  offset="1" style="stop-color:#FFC808"/>
		</linearGradient>
		<path fill="url(#SVGID_6_)" d="M50.245,44.114c-0.029-1.263-0.059-2.526-0.089-3.789c0.278-0.019,0.557-0.037,0.835-0.055
			c-0.079-3.417-0.158-6.833-0.238-10.25c-0.277,0.065-0.555,0.132-0.832,0.2c-0.029-1.263-0.059-2.527-0.088-3.79
			c1.106-0.345,2.219-0.666,3.337-0.963c0.06,2.664,0.12,5.328,0.18,7.991c0.837-0.127,1.676-0.247,2.516-0.36
			c-0.059-2.753-0.117-5.507-0.175-8.261c1.124-0.262,2.252-0.501,3.383-0.716c0.026,1.428,0.053,2.856,0.079,4.285
			c-0.281,0.042-0.563,0.085-0.845,0.13c0.072,3.776,0.145,7.553,0.218,11.329c0.279-0.012,0.559-0.024,0.838-0.036
			c0.026,1.428,0.053,2.856,0.079,4.284c-1.115,0-2.229,0-3.345,0c-0.059-2.754-0.116-5.508-0.175-8.261
			c-0.839,0.084-1.677,0.174-2.513,0.27c0.06,2.664,0.119,5.328,0.18,7.992C52.475,44.114,51.36,44.114,50.245,44.114z"/>
		<linearGradient id="SVGID_7_" gradientUnits="userSpaceOnUse" x1="68.6426" y1="48.7578" x2="67.9261" y2="8.6327">
			<stop  offset="0" style="stop-color:#EF4723"/>
			<stop  offset="1" style="stop-color:#FFC808"/>
		</linearGradient>
		<path fill="url(#SVGID_7_)" d="M65.435,44.114c-0.505,0-0.844-0.589-0.855-1.487c-0.064-4.957-0.129-9.914-0.193-14.871
			c-0.283,0.028-0.566,0.057-0.851,0.087c-0.021-1.479-0.041-2.959-0.062-4.438c1.139-0.154,2.28-0.285,3.424-0.392
			c0.055,5.526,0.11,11.053,0.165,16.579c0.841-0.017,1.681-0.032,2.521-0.043c-0.037-5.579-0.075-11.158-0.112-16.737
			c1.145-0.072,2.291-0.12,3.438-0.145c0.003,1.532,0.007,3.064,0.011,4.596c-0.285,0.005-0.57,0.011-0.854,0.018
			c0.018,5.101,0.035,10.201,0.053,15.302c0.003,0.861-0.361,1.53-0.832,1.53C69.336,44.114,67.386,44.114,65.435,44.114z"/>
		<linearGradient id="SVGID_8_" gradientUnits="userSpaceOnUse" x1="81.2344" y1="48.3887" x2="80.5132" y2="8.0012">
			<stop  offset="0" style="stop-color:#EF4723"/>
			<stop  offset="1" style="stop-color:#FFC808"/>
		</linearGradient>
		<path fill="url(#SVGID_8_)" d="M77.28,44.114c0.005-1.53,0.011-3.061,0.016-4.591c0.281,0.002,0.562,0.004,0.842,0.007
			c0.019-4.074,0.038-8.148,0.057-12.223c-0.285-0.009-0.57-0.018-0.856-0.025c0.006-1.531,0.011-3.061,0.017-4.591
			c1.433,0.045,2.865,0.127,4.295,0.247c-0.014,1.513-0.026,3.026-0.04,4.539c-0.284-0.019-0.569-0.036-0.854-0.053
			c-0.031,4.046-0.063,8.092-0.095,12.138c0.56,0.009,1.12,0.02,1.681,0.031c0.01-1.005,0.021-2.01,0.03-3.015
			c0.844,0.029,1.688,0.062,2.53,0.101c-0.032,2.479-0.064,4.957-0.097,7.436C82.297,44.114,79.789,44.114,77.28,44.114z"/>
		<linearGradient id="SVGID_9_" gradientUnits="userSpaceOnUse" x1="94.5713" y1="47.7344" x2="93.8938" y2="9.7963">
			<stop  offset="0" style="stop-color:#EF4723"/>
			<stop  offset="1" style="stop-color:#FFC808"/>
		</linearGradient>
		<path fill="url(#SVGID_9_)" d="M89.126,44.114c0.025-1.439,0.051-2.878,0.076-4.318c0.279,0.011,0.56,0.022,0.839,0.034
			c0.07-3.808,0.141-7.616,0.211-11.424c-0.282-0.042-0.564-0.083-0.847-0.123c0.025-1.439,0.051-2.879,0.076-4.319
			c1.134,0.204,2.264,0.43,3.39,0.681c1.049,3.959,2.088,7.798,3.123,11.478c0.08-3.552,0.16-7.104,0.24-10.655
			c1.118,0.297,2.23,0.619,3.337,0.963c-0.029,1.263-0.059,2.527-0.088,3.79c-0.277-0.068-0.555-0.134-0.832-0.2
			c-0.08,3.417-0.159,6.833-0.238,10.25c0.278,0.018,0.557,0.036,0.835,0.055c-0.03,1.263-0.06,2.526-0.089,3.789
			c-1.115,0-2.229,0-3.345,0c-1.034-3.552-2.07-7.274-3.115-11.125c-0.076,3.708-0.152,7.417-0.229,11.125
			C91.355,44.114,90.241,44.114,89.126,44.114z"/>
		<linearGradient id="SVGID_10_" gradientUnits="userSpaceOnUse" x1="108.1465" y1="46.6484" x2="107.6184" y2="17.0747">
			<stop  offset="0" style="stop-color:#EF4723"/>
			<stop  offset="1" style="stop-color:#FFC808"/>
		</linearGradient>
		<path fill="url(#SVGID_10_)" d="M103.479,44.114c0.025-1.159,0.051-2.318,0.075-3.478c0.278,0.021,0.555,0.043,0.832,0.066
			c0.08-3.791,0.159-7.581,0.239-11.372c0.014-0.643,0.382-1.003,0.839-0.82c1.898,0.751,3.777,1.575,5.63,2.47
			c0.414,0.203,0.791,0.828,0.789,1.299c-0.011,3.035-0.021,6.069-0.033,9.104c0.275,0.028,0.551,0.056,0.826,0.085
			c0,0.882,0,1.764,0,2.646c-1.114,0-2.229,0-3.344,0c0.016-1.322,0.032-2.645,0.048-3.967c-0.826-0.104-1.653-0.206-2.481-0.303
			c-0.025,1.423-0.05,2.846-0.075,4.27C105.709,44.114,104.595,44.114,103.479,44.114z M109.405,38.164
			c0.02-1.653,0.04-3.305,0.06-4.958c-0.808-0.288-1.619-0.565-2.434-0.832c-0.031,1.778-0.063,3.557-0.094,5.336
			C107.762,37.856,108.584,38.007,109.405,38.164z"/>
	</g>
</g>
<g>
	
		<linearGradient id="SVGID_11_" gradientUnits="userSpaceOnUse" x1="1.0952" y1="151.5176" x2="1.3041" y2="151.5176" gradientTransform="matrix(-4.2456 157.0818 157.0818 4.2456 -23770.9355 -769.8748)">
		<stop  offset="0" style="stop-color:#C1D3A1"/>
		<stop  offset="0.0108" style="stop-color:#C1D3A1"/>
		<stop  offset="0.3871" style="stop-color:#9EBA3B"/>
		<stop  offset="1" style="stop-color:#289646"/>
	</linearGradient>
	<path fill="url(#SVGID_11_)" d="M19.866,80.06c0-2.46,0-4.92,0-7.38c0.672-0.052,1.344-0.104,2.017-0.154
		c0-6.457,0-12.913,0-19.371c-1.345-0.101-2.689-0.205-4.032-0.313c0,2.5,0,5,0,7.5c-1.343-0.027-2.686-0.056-4.027-0.084
		c0-5.168,0-10.336,0-15.504c7.379,1.118,14.784,2.031,22.204,2.739c0,4.385,0,8.771,0,13.156c-1.349-0.019-2.698-0.037-4.046-0.058
		c0-2.251,0-4.501,0-6.752c-1.348-0.081-2.695-0.167-4.042-0.256c0,6.172,0,12.345,0,18.518c0.673-0.045,1.347-0.089,2.021-0.132
		c0,2.282,0,4.564,0,6.847C26.591,79.188,23.226,79.603,19.866,80.06z"/>
	
		<linearGradient id="SVGID_12_" gradientUnits="userSpaceOnUse" x1="0.7051" y1="149.6016" x2="0.9136" y2="149.6016" gradientTransform="matrix(-7.693631e-006 -176.0098 -176.0098 7.693631e-006 26356.3438 204.8787)">
		<stop  offset="0" style="stop-color:#24346F"/>
		<stop  offset="1" style="stop-color:#176BA9"/>
	</linearGradient>
	<path fill="url(#SVGID_12_)" d="M19.866,80.06h0.626c0-2.46,0-4.92,0-7.38h-0.626l0.049,0.625c0.671-0.053,1.343-0.104,2.015-0.154
		l0.58-0.043v-0.582c0-6.457,0-12.913,0-19.371v-0.581l-0.58-0.043c-1.344-0.101-2.687-0.205-4.029-0.313l-0.677-0.055v0.679
		c0,2.5,0,5,0,7.5h0.626l0.013-0.626c-1.343-0.027-2.686-0.056-4.027-0.085l-0.013,0.627h0.626c0-5.168,0-10.336,0-15.504h-0.626
		l-0.094,0.619c7.391,1.12,14.807,2.035,22.239,2.744l0.06-0.624h-0.626c0,4.385,0,8.771,0,13.156h0.626l0.008-0.626
		c-1.349-0.019-2.697-0.038-4.045-0.059l-0.01,0.627h0.627c0-1.125,0-2.251,0-3.376c0-1.125,0-2.25,0-3.376v-0.589l-0.589-0.036
		c-1.347-0.081-2.693-0.166-4.039-0.255l-0.667-0.044v0.669c0,6.172,0,12.345,0,18.518v0.669l0.667-0.045
		c0.673-0.044,1.346-0.088,2.019-0.13l-0.04-0.626h-0.626c0,2.282,0,4.564,0,6.847h0.626l-0.069-0.623
		c-3.374,0.373-6.744,0.79-10.109,1.248L19.866,80.06h0.626H19.866l0.084,0.621c3.355-0.457,6.715-0.872,10.078-1.244l0.558-0.062
		v-0.561c0-2.282,0-4.564,0-6.847v-0.667l-0.666,0.043c-0.674,0.042-1.349,0.085-2.022,0.13l0.042,0.626h0.626
		c0-6.173,0-12.346,0-18.518h-0.626l-0.042,0.625c1.348,0.089,2.696,0.174,4.045,0.256l0.038-0.625h-0.626c0,1.125,0,2.251,0,3.376
		c0,1.125,0,2.251,0,3.376v0.617l0.617,0.009c1.349,0.021,2.697,0.04,4.047,0.059l0.635,0.009v-0.636c0-4.385,0-8.771,0-13.156
		v-0.57l-0.567-0.054c-7.409-0.707-14.802-1.619-22.17-2.735l-0.72-0.109v0.729c0,5.168,0,10.336,0,15.504v0.612l0.613,0.014
		c1.342,0.029,2.685,0.058,4.028,0.084l0.639,0.013v-0.639c0-2.5,0-5,0-7.5h-0.626L17.8,53.466c1.345,0.108,2.69,0.213,4.037,0.314
		l0.046-0.625h-0.626c0,6.458,0,12.914,0,19.371h0.626l-0.046-0.624c-0.673,0.05-1.346,0.102-2.019,0.153l-0.578,0.046v0.579
		c0,2.46,0,4.92,0,7.38v0.718l0.711-0.097L19.866,80.06z"/>
	
		<linearGradient id="SVGID_13_" gradientUnits="userSpaceOnUse" x1="1.1343" y1="150.7246" x2="1.3427" y2="150.7246" gradientTransform="matrix(-3.4149 126.3463 126.3463 3.4149 -18979.9668 -608.2346)">
		<stop  offset="0" style="stop-color:#C1D3A1"/>
		<stop  offset="0.0108" style="stop-color:#C1D3A1"/>
		<stop  offset="0.3871" style="stop-color:#9EBA3B"/>
		<stop  offset="1" style="stop-color:#289646"/>
	</linearGradient>
	<path fill="url(#SVGID_13_)" d="M52.237,76.97c-1.226,0.068-2.028-0.688-2.028-1.918c0-8.141,0-16.281,0-24.421
		c0-1.147,0.887-1.983,2.028-1.919c5.409,0.298,10.824,0.488,16.24,0.569c0,2.583,0,5.166,0,7.749
		c-2.031-0.013-4.063-0.033-6.093-0.059c0-0.652,0-1.305,0-1.957c-2.03-0.035-4.061-0.078-6.09-0.131c0,5.305,0,10.61,0,15.915
		c2.029-0.052,4.06-0.096,6.09-0.131c0-1.956,0-3.913,0-5.87c-1.354,0.006-2.707,0.013-4.06,0.021c0-1.318,0-2.636,0-3.954
		c3.383,0.02,6.767,0.033,10.152,0.04c0,5.165,0,10.331,0,15.497C63.062,76.481,57.646,76.671,52.237,76.97z"/>
	
		<linearGradient id="SVGID_14_" gradientUnits="userSpaceOnUse" x1="0.6709" y1="150.3047" x2="0.8794" y2="150.3047" gradientTransform="matrix(-6.179228e-006 -141.3643 -141.3643 6.179228e-006 21306.9453 172.4312)">
		<stop  offset="0" style="stop-color:#24346F"/>
		<stop  offset="1" style="stop-color:#176BA9"/>
	</linearGradient>
	<path fill="url(#SVGID_14_)" d="M52.237,76.97l-0.035-0.626c-0.04,0.003-0.08,0.004-0.118,0.004
		c-0.217-0.001-0.398-0.035-0.549-0.093c-0.225-0.089-0.382-0.22-0.502-0.409c-0.118-0.189-0.197-0.449-0.198-0.794
		c0-8.141,0-16.281,0-24.421c0.002-0.397,0.143-0.709,0.365-0.934c0.224-0.223,0.532-0.361,0.914-0.362c0.029,0,0.058,0,0.088,0.002
		h0.001c5.417,0.299,10.84,0.489,16.265,0.57l0.01-0.626h-0.627c0,2.583,0,5.166,0,7.749h0.627l0.003-0.626
		c-2.029-0.013-4.059-0.033-6.088-0.059l-0.008,0.626h0.627c0-0.652,0-1.305,0-1.957v-0.616l-0.616-0.011
		c-2.028-0.035-4.057-0.078-6.084-0.131l-0.643-0.016v0.643c0,5.305,0,10.61,0,15.915v0.643l0.643-0.016
		c2.027-0.053,4.056-0.097,6.084-0.132l0.616-0.01v-0.616c0-1.956,0-3.913,0-5.87v-0.629l-0.63,0.003
		c-1.354,0.006-2.707,0.013-4.061,0.021l0.004,0.626h0.626c0-1.318,0-2.636,0-3.954h-0.626l-0.004,0.627
		c3.384,0.019,6.769,0.032,10.154,0.04l0.002-0.627h-0.627c0,5.165,0,10.331,0,15.497h0.627l-0.01-0.627
		c-5.425,0.082-10.848,0.271-16.265,0.57h-0.001l0,0L52.237,76.97l0.034,0.625c5.401-0.298,10.808-0.487,16.215-0.568l0.617-0.01
		V76.4c0-5.166,0-10.332,0-15.497v-0.625l-0.625-0.001c-3.384-0.008-6.769-0.021-10.149-0.04l-0.631-0.004v0.63
		c0,1.318,0,2.636,0,3.954v0.63l0.631-0.004c1.353-0.007,2.705-0.014,4.059-0.02l-0.003-0.627h-0.626c0,1.957,0,3.914,0,5.87h0.626
		l-0.011-0.626c-2.032,0.035-4.063,0.078-6.095,0.131l0.016,0.626h0.627c0-5.305,0-10.61,0-15.915h-0.627l-0.016,0.626
		c2.031,0.052,4.063,0.096,6.095,0.131l0.011-0.626h-0.626c0,0.652,0,1.305,0,1.957v0.618l0.618,0.008
		c2.032,0.026,4.063,0.045,6.096,0.059l0.631,0.004v-0.631c0-2.583,0-5.166,0-7.749v-0.617l-0.617-0.009
		c-5.407-0.081-10.813-0.271-16.215-0.568h0.001c-0.053-0.003-0.105-0.004-0.158-0.004c-0.699-0.001-1.344,0.269-1.802,0.731
		c-0.46,0.46-0.731,1.109-0.73,1.818c0,8.14,0,16.281,0,24.421c0,0.359,0.057,0.701,0.172,1.014c0.171,0.469,0.483,0.87,0.895,1.136
		c0.41,0.268,0.907,0.399,1.436,0.399c0.063,0,0.125-0.002,0.188-0.006h-0.001L52.237,76.97z"/>
	
		<linearGradient id="SVGID_15_" gradientUnits="userSpaceOnUse" x1="1.1533" y1="150.0801" x2="1.3621" y2="150.0801" gradientTransform="matrix(-3.3631 124.4327 124.4327 3.3631 -18590.0664 -598.1816)">
		<stop  offset="0" style="stop-color:#C1D3A1"/>
		<stop  offset="0.0108" style="stop-color:#C1D3A1"/>
		<stop  offset="0.3871" style="stop-color:#9EBA3B"/>
		<stop  offset="1" style="stop-color:#289646"/>
	</linearGradient>
	<path fill="url(#SVGID_15_)" d="M70.508,76.375c0-1.934,0-3.867,0-5.801c0.677-0.004,1.354-0.007,2.03-0.009
		c0-5.149,0-10.3,0-15.45c-0.677-0.002-1.354-0.005-2.03-0.009c0-1.934,0-3.867,0-5.8c6.77,0.068,13.541-0.034,20.307-0.305
		c0,2.636,0,5.272,0,7.908c-2.03,0.035-4.06,0.063-6.091,0.085c0-0.649,0-1.299,0-1.949c-2.03,0.029-4.061,0.049-6.092,0.061
		c0,1.934,0,3.867,0,5.801c2.708-0.004,5.415-0.012,8.123-0.023c0,1.305,0,2.609,0,3.913c-2.708-0.012-5.415-0.019-8.123-0.022
		c0,1.933,0,3.866,0,5.8c2.031,0.012,4.062,0.032,6.092,0.061c0-0.649,0-1.299,0-1.948c2.031,0.022,4.061,0.05,6.091,0.085
		c0,2.636,0,5.272,0,7.908C84.049,76.408,77.277,76.307,70.508,76.375z"/>
	
		<linearGradient id="SVGID_16_" gradientUnits="userSpaceOnUse" x1="0.666" y1="150.8828" x2="0.875" y2="150.8828" gradientTransform="matrix(-6.067025e-006 -138.7974 -138.7974 6.067025e-006 21022.7539 169.7728)">
		<stop  offset="0" style="stop-color:#24346F"/>
		<stop  offset="1" style="stop-color:#176BA9"/>
	</linearGradient>
	<path fill="url(#SVGID_16_)" d="M70.508,76.375h0.627c0-1.934,0-3.867,0-5.801h-0.627l0.004,0.627
		c0.677-0.004,1.353-0.008,2.028-0.009l0.625-0.002v-0.625c0-5.149,0-10.3,0-15.45v-0.625l-0.625-0.002
		c-0.676-0.002-1.353-0.005-2.028-0.008l-0.004,0.626h0.627c0-1.934,0-3.867,0-5.8h-0.627l-0.007,0.626
		c1.356,0.013,2.711,0.02,4.066,0.02c5.425,0,10.851-0.108,16.272-0.326l-0.025-0.625h-0.626c0,2.636,0,5.272,0,7.908h0.626
		l-0.011-0.626c-2.028,0.035-4.058,0.063-6.086,0.085l0.006,0.626h0.627c0-0.649,0-1.299,0-1.949V54.41l-0.636,0.009
		c-2.028,0.029-4.058,0.05-6.087,0.061l-0.623,0.003v0.623c0,1.934,0,3.867,0,5.801v0.627l0.627-0.001
		c2.709-0.004,5.417-0.012,8.125-0.023l-0.002-0.626h-0.627c0,1.305,0,2.609,0,3.913h0.627l0.002-0.626
		c-2.708-0.012-5.416-0.02-8.125-0.023l-0.627-0.001v0.628c0,1.933,0,3.866,0,5.8v0.623l0.623,0.004
		c2.029,0.011,4.059,0.031,6.087,0.061l0.636,0.009v-0.636c0-0.649,0-1.299,0-1.948h-0.627l-0.006,0.627
		c2.028,0.021,4.058,0.05,6.086,0.084l0.011-0.626h-0.626c0,2.636,0,5.272,0,7.908h0.626l0.025-0.626
		c-5.422-0.217-10.847-0.325-16.271-0.325c-1.356,0-2.712,0.006-4.068,0.02L70.508,76.375h0.627H70.508l0.007,0.626
		c1.351-0.013,2.702-0.021,4.055-0.021c5.407,0,10.815,0.108,16.22,0.325l0.651,0.026V76.68c0-2.636,0-5.272,0-7.908v-0.615
		l-0.615-0.011c-2.031-0.035-4.063-0.063-6.095-0.086l-0.633-0.006v0.633c0,0.649,0,1.299,0,1.948h0.626l0.009-0.626
		c-2.032-0.029-4.064-0.049-6.098-0.062l-0.003,0.627h0.626c0-1.934,0-3.867,0-5.8h-0.626L78.631,65.4
		c2.707,0.004,5.415,0.012,8.121,0.023l0.629,0.002v-0.629c0-1.304,0-2.608,0-3.913v-0.629l-0.629,0.003
		c-2.706,0.011-5.414,0.019-8.121,0.022l0.001,0.627h0.626c0-1.934,0-3.867,0-5.801h-0.626l0.003,0.626
		c2.033-0.012,4.065-0.032,6.098-0.061l-0.009-0.626h-0.626c0,0.65,0,1.3,0,1.949v0.633l0.633-0.007
		c2.032-0.022,4.063-0.05,6.095-0.085l0.615-0.011V56.91c0-2.636,0-5.272,0-7.908v-0.652l-0.651,0.026
		C85.384,48.592,79.976,48.7,74.567,48.7c-1.352,0-2.702-0.006-4.053-0.02l-0.634-0.006v0.633c0,1.934,0,3.867,0,5.8v0.623
		l0.623,0.003c0.678,0.004,1.355,0.007,2.032,0.009l0.002-0.626h-0.626c0,5.15,0,10.301,0,15.45h0.626l-0.002-0.626
		c-0.677,0.002-1.354,0.005-2.032,0.008l-0.623,0.004v0.623c0,1.934,0,3.867,0,5.801v0.633l0.634-0.007L70.508,76.375z"/>
	
		<linearGradient id="SVGID_17_" gradientUnits="userSpaceOnUse" x1="1.1318" y1="149.4707" x2="1.3403" y2="149.4707" gradientTransform="matrix(-3.6923 136.6107 136.6107 3.6923 -20310.8203 -656.8695)">
		<stop  offset="0" style="stop-color:#C1D3A1"/>
		<stop  offset="0.0108" style="stop-color:#C1D3A1"/>
		<stop  offset="0.3871" style="stop-color:#9EBA3B"/>
		<stop  offset="1" style="stop-color:#289646"/>
	</linearGradient>
	<path fill="url(#SVGID_17_)" d="M92.844,76.767c0-1.99,0-3.979,0-5.969c0.677,0.018,1.354,0.036,2.03,0.056
		c0-5.342,0-10.684,0-16.026c-0.677,0.02-1.354,0.038-2.03,0.055c0-1.989,0-3.979,0-5.968c6.089-0.274,12.172-0.686,18.245-1.235
		c1.055-0.098,2.024,0.86,2.024,2.005c0,3.654,0,7.309,0,10.963c0,1.236-0.886,2.195-2.024,2.193
		c1.055-0.003,2.024,1.047,2.024,2.192c0,2.192,0,4.386,0,6.577c0.674,0.037,1.349,0.075,2.023,0.114c0,2.221,0,4.441,0,6.662
		c-2.023-0.203-4.047-0.391-6.072-0.563c-1.225-0.106-2.026-1.008-2.026-2.284c0-3.527,0-7.055,0-10.582
		c-2.025-0.023-4.052-0.045-6.08-0.063c0,2.053,0,4.106,0,6.16c0.677,0.025,1.352,0.052,2.028,0.078c0,2.073,0,4.146,0,6.219
		C99.607,77.113,96.227,76.919,92.844,76.767z M107.038,60.724c0-2.116,0-4.232,0-6.349c-2.025,0.093-4.052,0.177-6.08,0.253
		c0,2.053,0,4.106,0,6.16C102.986,60.769,105.013,60.747,107.038,60.724z"/>
	
		<linearGradient id="SVGID_18_" gradientUnits="userSpaceOnUse" x1="0.6938" y1="151.4219" x2="0.9028" y2="151.4219" gradientTransform="matrix(-6.705707e-006 -153.4087 -153.4087 6.705707e-006 23333.5078 185.4533)">
		<stop  offset="0" style="stop-color:#24346F"/>
		<stop  offset="1" style="stop-color:#176BA9"/>
	</linearGradient>
	<path fill="url(#SVGID_18_)" d="M92.844,76.767h0.627c0-1.99,0-3.979,0-5.969h-0.627l-0.016,0.627
		c0.676,0.017,1.352,0.035,2.027,0.055l0.645,0.019v-0.645c0-5.342,0-10.684,0-16.026v-0.645l-0.645,0.019
		c-0.676,0.019-1.352,0.038-2.027,0.055l0.016,0.626h0.627c0-1.989,0-3.979,0-5.968h-0.627l0.029,0.626
		c6.097-0.275,12.189-0.688,18.272-1.237h0.001h0.001c0.03-0.003,0.061-0.004,0.09-0.004c0.152,0,0.303,0.035,0.449,0.103
		c0.219,0.101,0.423,0.28,0.568,0.506c0.146,0.227,0.231,0.495,0.231,0.777c0,3.654,0,7.309,0,10.963
		c-0.001,0.468-0.166,0.861-0.418,1.135c-0.254,0.273-0.585,0.43-0.975,0.432h-0.005l0.002,1.253h0.003
		c0.158,0,0.322,0.039,0.484,0.118c0.244,0.118,0.479,0.329,0.646,0.59c0.166,0.261,0.263,0.563,0.262,0.858
		c0,2.192,0,4.386,0,6.577v0.594l0.593,0.033c0.674,0.036,1.348,0.074,2.021,0.112l0.037-0.625h-0.627c0,2.221,0,4.441,0,6.662
		h0.627l0.063-0.623c-2.026-0.203-4.054-0.392-6.082-0.564h0.001c-0.472-0.043-0.814-0.224-1.057-0.495
		c-0.241-0.273-0.396-0.656-0.396-1.165c0-3.527,0-7.055,0-10.582v-0.62l-0.619-0.007c-2.026-0.023-4.054-0.044-6.082-0.063
		l-0.632-0.006v0.632c0,2.053,0,4.106,0,6.16v0.604l0.604,0.022c0.675,0.024,1.35,0.051,2.025,0.078l0.025-0.626h-0.627
		c0,2.073,0,4.146,0,6.219h0.627l0.043-0.625c-3.383-0.237-6.769-0.433-10.156-0.585L92.844,76.767h0.627H92.844l-0.027,0.625
		c3.377,0.152,6.752,0.347,10.126,0.584l0.67,0.047v-0.672c0-2.073,0-4.146,0-6.219V70.53l-0.602-0.024
		c-0.677-0.027-1.353-0.053-2.029-0.079l-0.023,0.627h0.627c0-2.054,0-4.107,0-6.16h-0.627l-0.006,0.627
		c2.027,0.019,4.054,0.039,6.079,0.063l0.007-0.626h-0.626c0,3.527,0,7.055,0,10.582c-0.002,0.768,0.246,1.474,0.712,1.997
		c0.464,0.524,1.134,0.848,1.886,0.911h0.001l0,0c2.022,0.173,4.043,0.36,6.063,0.563l0.689,0.069v-0.693c0-2.221,0-4.441,0-6.662
		v-0.592l-0.591-0.034c-0.675-0.038-1.35-0.076-2.025-0.113l-0.033,0.625h0.626c0-2.191,0-4.385,0-6.577
		c0-0.374-0.079-0.735-0.215-1.064c-0.205-0.494-0.536-0.921-0.952-1.236c-0.415-0.313-0.926-0.518-1.479-0.519h-0.007l0.002,1.253
		h0.005c0.747,0.002,1.426-0.321,1.896-0.835c0.474-0.515,0.749-1.218,0.749-1.984c0-3.654,0-7.309,0-10.963
		c-0.001-0.716-0.286-1.367-0.734-1.844c-0.225-0.239-0.491-0.436-0.79-0.575c-0.299-0.139-0.631-0.219-0.978-0.219
		c-0.068,0-0.137,0.003-0.206,0.009h0.001c-6.063,0.548-12.138,0.959-18.216,1.233l-0.599,0.027v0.599c0,1.99,0,3.979,0,5.968v0.643
		l0.643-0.017c0.677-0.018,1.354-0.036,2.031-0.055l-0.018-0.626h-0.627c0,5.342,0,10.684,0,16.026h0.627l0.018-0.627
		c-0.677-0.02-1.354-0.038-2.031-0.055l-0.643-0.017v0.643c0,1.989,0,3.979,0,5.969v0.599l0.599,0.026L92.844,76.767z
		 M107.038,60.724h0.627c0-2.116,0-4.232,0-6.349v-0.656l-0.655,0.03c-2.024,0.093-4.049,0.177-6.074,0.253l-0.604,0.022v0.604
		c0,2.053,0,4.106,0,6.16v0.633l0.632-0.007c2.028-0.019,4.056-0.039,6.082-0.063l0.619-0.008v-0.619H107.038l-0.007-0.626
		c-2.025,0.023-4.052,0.044-6.079,0.063l0.006,0.626h0.627c0-2.053,0-4.106,0-6.16h-0.627l0.023,0.626
		c2.029-0.076,4.059-0.16,6.086-0.253l-0.029-0.626h-0.626c0,2.117,0,4.233,0,6.349H107.038l-0.007-0.626L107.038,60.724z"/>
	
		<linearGradient id="SVGID_19_" gradientUnits="userSpaceOnUse" x1="1.0972" y1="149.0977" x2="1.3062" y2="149.0977" gradientTransform="matrix(-4.3358 160.4182 160.4182 4.3358 -23786.6465 -775.1145)">
		<stop  offset="0" style="stop-color:#C1D3A1"/>
		<stop  offset="0.0108" style="stop-color:#C1D3A1"/>
		<stop  offset="0.3871" style="stop-color:#9EBA3B"/>
		<stop  offset="1" style="stop-color:#289646"/>
	</linearGradient>
	<path fill="url(#SVGID_19_)" d="M117.158,78.596c0-3.001,0-6.002,0-9.003c2.022,0.092,4.043,0.189,6.063,0.294
		c0,0.783,0,1.565,0,2.349c2.019,0.14,4.037,0.288,6.053,0.444c0-2.46,0-4.919,0-7.38c-3.36-0.064-6.725-0.124-10.094-0.178
		c-1.221-0.021-2.021-0.925-2.021-2.281c0-4.502,0-9.003,0-13.505c0-1.263,0.885-2.34,2.021-2.469
		c5.39-0.597,10.77-1.301,16.137-2.114c0,3.445,0,6.891,0,10.336c-2.012,0.13-4.026,0.255-6.043,0.373c0-0.82,0-1.64,0-2.46
		c-2.017,0.157-4.034,0.305-6.053,0.444c0,2.349,0,4.698,0,7.047c3.365-0.059,6.727-0.123,10.083-0.192
		c1.049-0.027,2.013,1.19,2.013,2.541c0,5.168,0,10.336,0,15.504c0,1.458-0.88,2.454-2.013,2.284
		C127.934,79.843,122.55,79.165,117.158,78.596z"/>
	
		<linearGradient id="SVGID_20_" gradientUnits="userSpaceOnUse" x1="0.7129" y1="151.7656" x2="0.9214" y2="151.7656" gradientTransform="matrix(-7.797745e-006 -178.3916 -178.3916 7.797745e-006 27199.9355 208.4446)">
		<stop  offset="0" style="stop-color:#24346F"/>
		<stop  offset="1" style="stop-color:#176BA9"/>
	</linearGradient>
	<path fill="url(#SVGID_20_)" d="M117.158,78.596h0.627c0-3.001,0-6.002,0-9.003h-0.627l-0.028,0.626
		c2.021,0.091,4.04,0.189,6.059,0.294l0.032-0.626h-0.627c0,0.783,0,1.565,0,2.349v0.585l0.584,0.04
		c2.018,0.14,4.033,0.287,6.047,0.444l0.676,0.052V72.68c0-2.46,0-4.919,0-7.38v-0.614l-0.615-0.012
		c-3.36-0.065-6.727-0.125-10.095-0.178h0.001c-0.229-0.005-0.425-0.049-0.59-0.122c-0.247-0.11-0.437-0.282-0.582-0.532
		c-0.143-0.249-0.234-0.584-0.234-1.001c0-4.502,0-9.003,0-13.505c-0.001-0.484,0.171-0.932,0.442-1.263
		c0.272-0.332,0.633-0.54,1.023-0.583h-0.002c5.397-0.597,10.786-1.303,16.161-2.118l-0.094-0.619h-0.626c0,3.445,0,6.891,0,10.336
		h0.626l-0.04-0.625c-2.012,0.131-4.024,0.255-6.039,0.373l0.036,0.625h0.627c0-0.82,0-1.64,0-2.46v-0.677l-0.676,0.053
		c-2.014,0.157-4.029,0.305-6.048,0.444l-0.583,0.041v0.584c0,2.349,0,4.698,0,7.047v0.637l0.638-0.011
		c3.365-0.059,6.729-0.122,10.085-0.192h0.002h0.001h0.019c0.136,0,0.28,0.038,0.435,0.126c0.229,0.13,0.469,0.376,0.64,0.695
		c0.173,0.318,0.278,0.703,0.278,1.094c0,5.168,0,10.336,0,15.504c0.001,0.559-0.158,0.999-0.372,1.274
		c-0.107,0.139-0.228,0.237-0.353,0.303c-0.127,0.064-0.26,0.1-0.413,0.1c-0.05,0-0.102-0.004-0.156-0.013h-0.001h-0.001
		c-5.379-0.787-10.77-1.466-16.17-2.036L117.158,78.596h0.627H117.158l-0.065,0.623c5.384,0.568,10.758,1.245,16.12,2.03
		l-0.002-0.001c0.114,0.018,0.229,0.026,0.342,0.026c0.351,0.001,0.691-0.085,0.99-0.241c0.45-0.233,0.805-0.619,1.04-1.083
		c0.237-0.465,0.36-1.012,0.36-1.605c0-5.168,0-10.336,0-15.504c-0.002-0.816-0.282-1.575-0.734-2.157
		c-0.227-0.291-0.499-0.538-0.814-0.72c-0.314-0.18-0.676-0.291-1.057-0.291h-0.05h0.003c-3.355,0.07-6.717,0.135-10.081,0.192
		l0.011,0.627h0.626c0-2.349,0-4.698,0-7.047h-0.626l0.042,0.625c2.021-0.14,4.041-0.288,6.059-0.445l-0.048-0.625h-0.627
		c0,0.82,0,1.64,0,2.46v0.664l0.663-0.038c2.018-0.118,4.033-0.242,6.048-0.373l0.586-0.038v-0.587c0-3.445,0-6.891,0-10.336v-0.729
		l-0.721,0.109c-5.358,0.812-10.73,1.516-16.111,2.111h-0.002l0,0c-0.747,0.084-1.397,0.48-1.852,1.035
		c-0.455,0.556-0.726,1.279-0.726,2.057c0,4.501,0,9.003,0,13.505c0,0.4,0.059,0.78,0.178,1.128
		c0.177,0.521,0.493,0.972,0.924,1.285c0.43,0.315,0.964,0.485,1.535,0.495h0.001c3.368,0.053,6.732,0.112,10.091,0.178l0.013-0.627
		h-0.627c0,2.461,0,4.92,0,7.38h0.627l0.048-0.625c-2.018-0.156-4.037-0.305-6.059-0.444l-0.042,0.625h0.626
		c0-0.783,0-1.565,0-2.349v-0.595l-0.595-0.03c-2.021-0.105-4.042-0.203-6.065-0.295l-0.654-0.029v0.655c0,3.001,0,6.002,0,9.003
		v0.564l0.561,0.059L117.158,78.596z"/>
</g>
<g>
	
		<radialGradient id="SVGID_21_" cx="-1420.1118" cy="3366.9355" r="7.1077" fx="-1424.0538" fy="3368.251" gradientTransform="matrix(0.4773 0.8787 0.8787 -0.4773 -2237.814 2907.5645)" gradientUnits="userSpaceOnUse">
		<stop  offset="0" style="stop-color:#D1D1D1"/>
		<stop  offset="1" style="stop-color:#B0B0B0"/>
	</radialGradient>
	<circle fill-rule="evenodd" clip-rule="evenodd" fill="url(#SVGID_21_)" cx="42.894" cy="52.674" r="7.107"/>
	<g>
		<g>
			<path fill="#272626" d="M42.927,47.435l-0.223,0.105c-0.058-0.123-0.118-0.245-0.18-0.364l0.219-0.114
				C42.807,47.185,42.869,47.311,42.927,47.435z M42.104,46.444c-0.073-0.115-0.147-0.229-0.223-0.338l0.203-0.141
				c0.078,0.112,0.154,0.229,0.229,0.347L42.104,46.444z M43.401,48.624l-0.234,0.078c-0.042-0.127-0.088-0.256-0.136-0.382
				l0.231-0.087C43.312,48.361,43.358,48.492,43.401,48.624z M43.737,49.856l-0.241,0.051c-0.028-0.131-0.059-0.265-0.091-0.395
				l0.239-0.06C43.677,49.586,43.708,49.722,43.737,49.856z M43.933,51.12l-0.246,0.024c-0.014-0.134-0.029-0.27-0.047-0.403
				l0.245-0.033C43.903,50.844,43.919,50.982,43.933,51.12z M43.992,52.396l-0.247-0.001c0.001-0.135-0.001-0.272-0.005-0.406
				l0.247-0.007C43.991,52.118,43.993,52.257,43.992,52.396z M43.921,53.67l-0.246-0.025c0.014-0.135,0.026-0.271,0.036-0.405
				l0.246,0.018C43.948,53.394,43.936,53.532,43.921,53.67z M43.732,54.931l-0.242-0.048c0.025-0.133,0.05-0.267,0.072-0.4
				l0.244,0.041C43.783,54.659,43.759,54.796,43.732,54.931z M43.436,56.171l-0.238-0.067c0.037-0.131,0.073-0.263,0.106-0.394
				l0.239,0.061C43.509,55.904,43.473,56.038,43.436,56.171z M43.043,57.382l-0.232-0.084c0.046-0.127,0.092-0.257,0.135-0.385
				l0.234,0.08C43.137,57.122,43.09,57.252,43.043,57.382z M42.567,58.562l-0.227-0.1c0.056-0.124,0.109-0.25,0.161-0.375
				l0.228,0.095C42.677,58.309,42.622,58.436,42.567,58.562z"/>
		</g>
		<g>
			<path fill="#272626" d="M42.2,59.344l-0.221-0.109c-0.031,0.063-0.062,0.125-0.094,0.188l0.22,0.111
				C42.138,59.471,42.169,59.408,42.2,59.344z"/>
		</g>
	</g>
	<g>
		<g>
			<path fill="#272626" d="M44.396,46.59c-0.068-0.118-0.14-0.233-0.213-0.344l0.207-0.135c0.074,0.114,0.148,0.233,0.219,0.354
				L44.396,46.59z M45.189,47.605l-0.226,0.098c-0.055-0.124-0.111-0.249-0.169-0.369l0.222-0.107
				C45.075,47.351,45.133,47.478,45.189,47.605z M45.628,48.807l-0.236,0.071c-0.04-0.129-0.081-0.26-0.125-0.387l0.233-0.08
				C45.546,48.542,45.588,48.674,45.628,48.807z M45.927,50.049l-0.242,0.044c-0.024-0.133-0.052-0.267-0.08-0.398l0.241-0.053
				C45.875,49.777,45.902,49.914,45.927,50.049z M46.085,51.317l-0.246,0.017c-0.01-0.135-0.021-0.271-0.035-0.404l0.245-0.026
				C46.063,51.041,46.075,51.18,46.085,51.317z M46.106,52.595l-0.246-0.009c0.004-0.135,0.007-0.271,0.007-0.406l0.247,0
				C46.114,52.317,46.111,52.457,46.106,52.595z M45.999,53.866l-0.245-0.033c0.019-0.134,0.034-0.27,0.048-0.404l0.245,0.026
				C46.033,53.591,46.017,53.729,45.999,53.866z M45.772,55.121l-0.241-0.054c0.03-0.132,0.059-0.266,0.085-0.398l0.241,0.048
				C45.832,54.851,45.803,54.987,45.772,55.121z M45.439,56.351l-0.235-0.074c0.041-0.129,0.08-0.261,0.118-0.389l0.237,0.068
				C45.521,56.086,45.48,56.22,45.439,56.351z M45.011,57.55l-0.229-0.091c0.05-0.126,0.1-0.254,0.146-0.38l0.231,0.086
				C45.111,57.292,45.062,57.423,45.011,57.55z M44.5,58.716l-0.223-0.106c0.059-0.123,0.117-0.247,0.172-0.369l0.226,0.102
				C44.618,58.465,44.559,58.592,44.5,58.716z"/>
		</g>
		<g>
			<path fill="#272626" d="M44.111,59.488l-0.218-0.116c-0.033,0.062-0.066,0.124-0.1,0.186l0.217,0.117
				C44.044,59.612,44.078,59.55,44.111,59.488z"/>
		</g>
	</g>
</g>
<g>
	
		<linearGradient id="SVGID_22_" gradientUnits="userSpaceOnUse" x1="1.0205" y1="150.2354" x2="1.229" y2="150.2354" gradientTransform="matrix(-145.5318 -298.36 -298.36 145.5318 45038.1992 -21437.1133)">
		<stop  offset="0" style="stop-color:#FFD066"/>
		<stop  offset="1" style="stop-color:#E46B2E"/>
	</linearGradient>
	<path fill="url(#SVGID_22_)" d="M47.47,61.17c0,0-7.274,1.963-10.161-2.05c0,0-6.831,42.57,25.978,64.453
		C63.286,123.573,40.333,96.175,47.47,61.17z"/>
	<path fill="#18488B" d="M47.47,61.17l-0.108-0.403l-0.004,0.001c-0.085,0.023-1.794,0.466-3.815,0.465
		c-1.066,0-2.217-0.123-3.257-0.481c-1.042-0.359-1.968-0.944-2.638-1.875l-0.591-0.822l-0.161,1
		c-0.003,0.017-0.595,3.716-0.595,9.496c0,6.94,0.854,16.88,4.624,27.043c3.769,10.16,10.465,20.549,22.129,28.328l2.42,1.613
		l-1.867-2.229l-0.012-0.013c-0.245-0.297-4.521-5.509-8.731-14.099c-4.211-8.59-8.353-20.553-8.352-34.355
		c0-4.359,0.413-8.903,1.367-13.585l0.135-0.663l-0.652,0.177L47.47,61.17l-0.409-0.084c-0.966,4.739-1.385,9.34-1.385,13.752
		c0.001,14.193,4.322,26.437,8.64,35.134c4.319,8.697,8.636,13.852,8.65,13.87l0.32-0.269l0.231-0.348
		c-11.498-7.671-18.085-17.889-21.81-27.924c-3.723-10.033-4.572-19.88-4.572-26.752c0-2.861,0.147-5.206,0.293-6.834
		c0.073-0.813,0.146-1.448,0.201-1.879c0.027-0.214,0.05-0.378,0.066-0.488c0.008-0.055,0.014-0.096,0.019-0.124
		c0.004-0.027,0.006-0.039,0.006-0.039l-0.412-0.066l-0.339,0.244c0.789,1.098,1.882,1.778,3.043,2.177
		c1.163,0.399,2.4,0.526,3.529,0.526c2.209-0.001,4.015-0.489,4.036-0.494L47.47,61.17l-0.409-0.084L47.47,61.17z"/>
</g>
<g>
	<path fill-rule="evenodd" clip-rule="evenodd" d="M77.844,74.664c0.007-0.336,0.012-0.582,0.019-0.928
		c3.146,0.078,6.111,0.551,8.593,3.05c0.305-0.41,0.573-0.862,0.92-1.223c0.658-0.687,1.304-1.419,2.061-1.951
		c1.198-0.841,2.271-0.595,2.897,0.792c0.665,1.471,1.182,3.051,1.557,4.642c0.324,1.375,0.341,2.835,0.536,4.251
		c0.046,0.33,0.224,0.663,0.409,0.94c0.56,0.844,1.152,1.661,1.605,2.623c-0.414-0.111-0.829-0.223-1.243-0.334
		c1.673,2.171,2.303,4.736,3.049,7.244c-0.387,0.074-0.711,0.136-1.04,0.199c0.45,1.07,0.851,2.021,1.263,3
		c0.606-0.13,1.213-0.258,1.819-0.387c0.015,0.043,0.029,0.085,0.044,0.128c-0.359,0.187-0.717,0.379-1.079,0.56
		c-0.327,0.164-0.73,0.257-0.537,0.831c0.156,0.461,0.167,1.016,0.873,0.92c0.466-0.063,0.954,0.072,1.433,0.202
		c-1.759,0.234-3.295,0.841-4.416,2.745c1.641-0.374,3.146-0.761,4.683-0.228c-1.519,0.346-2.996,0.683-4.475,1.02
		c0.012,0.082,0.023,0.164,0.035,0.246c0.218,0.014,0.435,0.028,0.729,0.048c-1.085,2.627-2.469,4.896-4.646,6.503
		c-0.842,0.621-1.669,1.278-2.447,1.992c-0.901,0.826-1.244,1.895-1.081,3.216c0.314,2.55-0.26,4.728-2.407,6.133
		c-0.108,0.071-0.229,0.117-0.412,0.209c-0.055-0.343-0.103-0.629-0.125-0.767c-1.847,0.069-3.634,0.136-5.42,0.203
		c-1.294,0.05-2.439,0.56-3.629,1.48c-0.573-1.399-1.129-2.759-1.723-4.208c-0.431,0.36-0.854,0.714-1.268,1.061
		c-0.066-0.773-0.091-1.526-0.2-2.265c-0.272-1.826-1.349-2.914-3.032-2.764c-1.512,0.135-3,0.582-4.517,0.895
		c-0.143-0.562-0.143-0.562,0.655-1.956c-1.346-0.011-2.718,0.034-4.083-0.049c-1.382-0.082-2.609-0.631-3.727-1.591
		c-0.822-0.707-1.8-1.197-2.818-1.854c0.175-0.896,1.085-1.266,2.01-1.85c-1.516-0.577-2.911-1.106-4.515-1.718
		c1.002-0.421,1.805-0.758,2.648-1.111c-0.829-0.817-1.089-0.83-3.747-0.239c-0.13-2.158,0.62-4.074,1.402-6.247
		c-0.54,0.449-0.893,0.742-1.365,1.135c0.289-3.685,1.298-6.842,3.88-9.505c-1.011-0.339-1.88-0.63-2.855-0.957
		c0.81-2.189,2.635-3.316,4.192-4.753c-0.544-0.603-1.175-1.143-1.615-1.831c-0.638-0.994-1.307-2.031-1.662-3.163
		c-0.885-2.815,0.92-5.45,3.638-5.48c2.471-0.027,4.706,0.924,6.862,2.11c0.691,0.381,1.201,0.42,1.921,0.015
		c2.931-1.646,6.072-1.661,9.249-1.224C77.075,74.521,77.408,74.589,77.844,74.664z M74.854,110.462
		c0.141-0.705,0.168-1.358,0.401-1.907c0.532-1.259,0.271-2.444-0.262-3.532c-0.405-0.826-0.204-1.397,0.239-2.013
		c0.193-0.27,0.392-0.537,0.605-0.789c0.81-0.951,1.411-1.057,2.25-0.113c0.829,0.933,1.57,1.988,2.212,3.089
		c1.089,1.869,2.104,2.136,3.942,1.141c0.98-0.53,2.108-0.735,3.173-1.077c0.184-0.059,0.379-0.071,0.585-0.108
		c-0.267-0.664-0.331-0.734-1.222-0.906c-0.967-0.187-1.769-0.664-2.392-1.496c-0.39-0.521-0.249-0.995,0.101-1.471
		c0.341-0.464,0.742-0.649,1.231-0.352c1.974,1.205,3.973,0.682,6.026,0.2c-0.094-1.095-0.148-2.123-0.275-3.142
		c-0.281-2.263-0.746-4.42-2.899-5.296c0.391-0.498,0.803-1.037,1.228-1.562c0.535-0.661,1.01-1.415,1.644-1.936
		c0.642-0.529,1.08-1.013,0.681-2.067c0.391,0.324,0.649,0.54,1.06,0.882c-0.899-2.257-1.899-4.177-3.631-5.504
		c-1.928-1.48-4.128-1.354-5.915,0.335c-1.648-1.255-3.531-1.704-5.49-1.509c-1.916,0.191-3.812,0.609-5.722,0.929
		c0.861-1.698,2.001-3.138,3.785-3.806c1.761-0.659,3.438-0.139,5.152,0.628c-0.883-1.841-2.226-2.613-3.927-2.733
		c-0.494-0.034-0.989-0.097-1.482-0.086c-1.965,0.045-3.823,0.569-5.793,1.537c0.87,0.398,1.554,0.711,2.362,1.082
		c-0.979,0.44-1.823,0.801-2.651,1.201c-0.416,0.201-0.737,0.155-1.152-0.091c-1.879-1.114-3.753-2.256-5.703-3.202
		c-1.076-0.521-2.284-0.822-3.459-0.96c-1.39-0.163-1.982,0.405-2.308,1.738c-0.382,1.562,0.002,2.701,1.088,3.374
		c0.246-0.675,0.496-1.36,0.746-2.047c0.072,0.023,0.144,0.047,0.215,0.07c0.031,0.245,0.045,0.495,0.1,0.734
		c0.054,0.24,0.148,0.47,0.225,0.704c0.293-1.026,0.56-1.957,1.484-2.54c0.021,0.859-0.027,1.639,0.078,2.393
		c0.108,0.765,0.367,1.505,0.557,2.246c4.668-1.286,6.484-1.223,7.728,0.246c-2.101,1.48-4.194,2.956-6.481,4.567
		c1.077,0.055,1.913,0.097,2.882,0.147c-1.995,2.354-3.363,4.982-4.38,7.813c-0.312,0.867-0.395,1.907-0.326,2.846
		c0.118,1.655,1.165,2.6,2.679,2.656c0.596,0.021,1.193-0.018,1.789,0.016c1.606,0.088,3.204,0.255,4.893,0.967
		c-1.521,0.368-2.874,0.694-4.226,1.022c0.011,0.104,0.021,0.207,0.033,0.311c1.132-0.115,2.263-0.276,3.397-0.337
		c1.428-0.075,2.473,0.652,3.129,1.88c-1.004-0.257-2.061-0.527-3.117-0.799c-0.033,0.09-0.068,0.179-0.102,0.269
		C72.108,105.46,73.377,107.998,74.854,110.462z M59.328,88.394c-1.796,1.978-2.966,4.174-3.563,6.845
		c0.613-0.29,1.094-0.517,1.729-0.815c-1.332,2.574-1.468,5.164-1.424,7.824c1.854-0.275,3.925,1.818,4.549,3.414
		c-0.555,0.057-1.085,0.111-1.615,0.165c-0.009,0.058-0.018,0.115-0.026,0.173c1.216,0.632,2.433,1.265,3.815,1.983
		c-1.143,0.404-2.085,0.738-3.104,1.099c3.4,1.69,6.783,2.357,10.478,1.109c-0.258,0.646-0.421,1.049-0.594,1.479
		c0.652-0.066,1.248-0.211,1.83-0.164c0.605,0.049,1.2,0.283,1.983,0.482c-2.164-3.255-5.002-5.093-8.165-6.417
		c-0.042,0.06-0.084,0.119-0.126,0.179c0.756,0.771,1.511,1.543,2.267,2.314c-0.043,0.099-0.085,0.198-0.128,0.297
		c-0.779-0.317-1.6-0.55-2.331-0.97c-1.781-1.023-3.162-2.592-4.52-4.19c-1.955-2.305-2.304-4.905-1.276-7.79
		c0.726-2.036,1.903-3.739,3.26-5.308c0.146-0.169,0.335-0.293,0.504-0.438c-0.056-0.058-0.111-0.115-0.167-0.172
		c-1.066,0.358-2.133,0.718-3.344,1.125c1.158-3.052,3.182-4.956,5.387-6.72c-2.428,1.127-4.854,2.256-7.376,3.428
		C58.053,87.698,58.63,88.013,59.328,88.394z M79.083,119.583c2.16-1.607,2.301-1.632,5.034-1.271c1.132,0.15,2.134-0.15,2.827-1.23
		c0.969-1.508,0.701-2.265-0.928-2.543c-2.129-0.364-4.074,0.357-5.962,1.327c-1.313,0.674-1.354,0.704-2.102-0.662
		c-0.439-0.804-0.754-1.69-1.117-2.545c-0.11-0.26-0.192-0.534-0.368-1.028c-0.334,2.428,0.005,4.44,1.102,6.426
		c0.215-0.48,0.363-0.813,0.57-1.277C78.483,117.803,78.771,118.655,79.083,119.583z M84.596,110.168
		c-0.573,1.347-1.392,2.042-2.431,2.553c-0.712,0.351-1.302,1-1.946,1.515c2.406-1.032,4.815-0.994,7.264-0.434
		c0.168,0.038,0.495-0.159,0.57-0.337c0.424-1.014,0.439-2.065,0.081-3.428c-0.612,2.178-1.992,1.706-3.284,1.64
		C84.775,111.236,84.71,110.847,84.596,110.168z M88.235,78.343c1.005,0.515,1.913,0.98,2.855,1.465
		c0.522-1.191,0.502-2.402,0.145-3.64c-0.144-0.499-0.416-0.651-0.821-0.382C89.466,76.414,88.715,77.249,88.235,78.343z
		 M82.418,79.887c0.926-0.486,1.734-0.912,2.543-1.337c-0.848-1.761-2.508-2.455-3.955-1.646
		C81.471,77.886,81.935,78.865,82.418,79.887z M92.469,102.442c-0.029-0.034-0.059-0.068-0.087-0.102
		c-0.841,0.785-1.685,1.564-2.519,2.358c-0.226,0.214-0.418,0.471-0.636,0.72c0.618,0.374,1.136,0.781,1.713,0.995
		c0.281,0.104,0.769-0.041,0.992-0.271c0.296-0.309,0.427-0.81,0.675-1.319c-0.297,0.03-0.474,0.048-0.717,0.073
		c0.513-0.64,1.511-0.915,0.999-2.088c-0.38,0.265-0.737,0.515-1.095,0.765c-0.021-0.03-0.043-0.062-0.064-0.092
		C91.977,103.136,92.223,102.789,92.469,102.442z M92.01,95.344c1.982-1.755,2.435-2.977,1.874-4.962
		c-0.569,0.038-0.88,0.228-0.78,0.994c0.142,1.092-0.288,1.776-1.217,2.21c-0.249,0.116-0.505,0.212-0.817,0.342
		C91.398,94.423,91.685,94.854,92.01,95.344z M80.061,106.806c-0.074,0.051-0.148,0.102-0.223,0.152
		c0.307,0.538,0.623,1.068,0.917,1.613c0.196,0.364,0.365,0.748,0.54,1.128c0.217,0.471,0.427,0.945,0.639,1.418
		c0.082-0.029,0.165-0.059,0.247-0.088c0.192-0.872,0.384-1.745,0.601-2.732C81.346,108.823,80.658,107.906,80.061,106.806z
		 M90.72,107.296c-0.448-0.139-0.843-0.262-1.246-0.387c0.004,0.963,0.008,1.829,0.011,2.694c0.041,0.018,0.082,0.036,0.123,0.053
		C89.959,108.91,90.312,108.162,90.72,107.296z M92.723,91.008c-0.66,0.563-1.249,1.066-1.935,1.651
		C92.342,92.964,92.902,92.476,92.723,91.008z"/>
	<g>
		<path fill-rule="evenodd" clip-rule="evenodd" fill="#F7BD3C" d="M74.854,110.462c-1.478-2.464-2.746-5.002-5.216-6.356
			c0.033-0.09,0.068-0.179,0.102-0.269c1.057,0.271,2.113,0.542,3.117,0.799c-0.656-1.228-1.701-1.955-3.129-1.88
			c-1.135,0.061-2.266,0.222-3.397,0.337c-0.012-0.104-0.022-0.207-0.033-0.311c1.352-0.328,2.705-0.654,4.226-1.022
			c-1.688-0.712-3.286-0.879-4.893-0.967c-0.596-0.033-1.193,0.006-1.789-0.016c-1.514-0.057-2.561-1.001-2.679-2.656
			c-0.068-0.938,0.015-1.979,0.326-2.846c1.017-2.831,2.385-5.46,4.38-7.813c-0.969-0.051-1.805-0.093-2.882-0.147
			c2.287-1.611,4.381-3.087,6.481-4.567c-1.243-1.469-3.06-1.532-7.728-0.246c-0.189-0.741-0.448-1.481-0.557-2.246
			c-0.105-0.754-0.057-1.533-0.078-2.393c-0.925,0.583-1.191,1.514-1.484,2.54c-0.076-0.234-0.171-0.464-0.225-0.704
			c-0.055-0.239-0.068-0.489-0.1-0.734c-0.071-0.023-0.143-0.047-0.215-0.07c-0.25,0.687-0.5,1.372-0.746,2.047
			c-1.086-0.673-1.47-1.813-1.088-3.374c0.325-1.333,0.918-1.901,2.308-1.738c1.175,0.138,2.383,0.439,3.459,0.96
			c1.95,0.946,3.824,2.088,5.703,3.202c0.415,0.246,0.736,0.292,1.152,0.091c0.828-0.4,1.673-0.761,2.651-1.201
			c-0.809-0.371-1.492-0.684-2.362-1.082c1.97-0.968,3.828-1.492,5.793-1.537c0.493-0.011,0.988,0.052,1.482,0.086
			c1.701,0.12,3.044,0.893,3.927,2.733c-1.714-0.767-3.392-1.287-5.152-0.628c-1.784,0.668-2.924,2.107-3.785,3.806
			c1.91-0.319,3.806-0.737,5.722-0.929c1.959-0.195,3.842,0.254,5.49,1.509c1.787-1.688,3.987-1.815,5.915-0.335
			c1.731,1.327,2.731,3.247,3.631,5.504c-0.41-0.342-0.669-0.558-1.06-0.882c0.399,1.055-0.039,1.538-0.681,2.067
			c-0.634,0.521-1.108,1.274-1.644,1.936c-0.425,0.524-0.837,1.063-1.228,1.562c2.153,0.876,2.618,3.033,2.899,5.296
			c0.127,1.019,0.182,2.047,0.275,3.142c-2.054,0.481-4.053,1.005-6.026-0.2c-0.489-0.298-0.891-0.112-1.231,0.352
			c-0.35,0.476-0.49,0.95-0.101,1.471c0.623,0.832,1.425,1.31,2.392,1.496c0.891,0.172,0.955,0.242,1.222,0.906
			c-0.206,0.037-0.401,0.05-0.585,0.108c-1.064,0.342-2.192,0.547-3.173,1.077c-1.838,0.995-2.854,0.729-3.942-1.141
			c-0.642-1.101-1.383-2.156-2.212-3.089c-0.839-0.943-1.44-0.838-2.25,0.113c-0.214,0.252-0.412,0.52-0.605,0.789
			c-0.443,0.615-0.645,1.187-0.239,2.013c0.533,1.088,0.794,2.273,0.262,3.532C75.022,109.104,74.995,109.757,74.854,110.462z
			 M79.708,99.033c-0.826-0.699-1.652-1.396-2.569-2.172c2.479-0.924,3.679,0.851,5.009,2.412c-0.17-0.745-0.376-1.447-0.652-2.115
			c-1.092-2.638-2.373-2.938-4.315-0.983c-0.387,0.389-0.636,0.386-1.063,0.112c-2.044-1.307-4.207-2.313-6.582-2.56
			c-1.174-0.122-2.368-0.005-3.624,0.005c-0.096-2.185,0.873-4.058,1.684-5.997c-1.5,1.603-2.872,3.317-3.77,5.396
			c-0.429,0.989-0.649,2.098-0.892,3.172c-0.176,0.781,0.157,1.28,0.918,1.338c0.753,0.057,1.509,0.053,2.259,0.132
			c1.602,0.168,3.204,0.345,4.797,0.581c0.431,0.064,0.834,0.356,1.17,0.509c-1.129,0.116-2.265,0.211-3.396,0.354
			c-1.526,0.192-2.595,0.613-3.148,1.21c4.962-1.485,9.681-0.086,14.418,1.198c-1.896-1.099-3.906-1.805-6.004-2.227
			c-1.092-0.219-1.171-0.285-1.653-1.688c2.405,0.834,4.691,1.627,6.978,2.419c0.025-0.065,0.051-0.133,0.075-0.198
			c-1.523-0.724-3.004-1.601-4.581-2.136c-2.227-0.755-4.519-1.283-6.793-1.86c-0.917-0.232-1.666-0.601-1.974-1.808
			C71.182,93.938,75.42,96.531,79.708,99.033z M81.757,96.407c0.073-0.002,0.146-0.005,0.22-0.007
			c-0.045-1.04-0.089-2.08-0.135-3.146c0.563-0.153,1.127-0.307,1.525-0.416c-0.808-0.421-1.825-0.723-2.573-1.39
			c-1.461-1.302-3.039-2.19-4.893-2.5c-1.274-0.214-2.524-0.484-3.457-1.948c-0.879,1.034-1.671,1.966-2.463,2.898
			c0.016,0.09,0.032,0.18,0.049,0.27c1.408-0.164,2.084,0.563,2.201,1.969c0.005,0.055,0.033,0.108,0.057,0.16
			c0.421,0.959,1.127,1.499,1.791,1.439c-0.207-0.804-0.438-1.618-0.614-2.446c-0.031-0.147,0.148-0.496,0.246-0.503
			c0.221-0.017,0.599,0.056,0.655,0.207c0.49,1.321,1.301,2.243,2.609,2.587c-0.29,0.73-0.534,1.347-0.835,2.108
			C79.393,92.649,80.717,93.462,81.757,96.407z M82.47,89.454c0.068,0.053,0.138,0.105,0.208,0.158
			c0.582-0.999,1.209-1.971,1.729-3.008c0.28-0.557,0.259-1.23-0.404-1.519c-0.883-0.385-1.78-0.259-2.776,0.042
			C82.83,86.098,83.014,86.796,82.47,89.454z M88.61,85.046c-0.643-0.029-1.291-0.126-1.929-0.075
			c-0.999,0.079-1.382,0.73-0.926,1.692c0.476,1.001,1.114,1.909,1.682,2.857C86.718,86.763,86.834,86.291,88.61,85.046z"/>
		<path fill="#F99D39" d="M74.854,110.462l0.537-0.322c-0.731-1.218-1.425-2.484-2.267-3.642c-0.842-1.154-1.843-2.206-3.185-2.942
			l-0.302,0.55l0.586,0.222c0.033-0.089,0.067-0.179,0.102-0.27l-0.586-0.221l-0.156,0.607c1.058,0.271,2.114,0.541,3.117,0.799
			l1.379,0.353l-0.671-1.255c-0.351-0.657-0.816-1.215-1.406-1.607c-0.589-0.394-1.299-0.61-2.074-0.609
			c-0.077,0-0.155,0.002-0.233,0.007h-0.001c-1.171,0.063-2.312,0.226-3.427,0.339l0.063,0.623l0.622-0.068
			c-0.011-0.102-0.021-0.205-0.032-0.309l-0.623,0.066l0.146,0.608c1.353-0.327,2.705-0.654,4.227-1.022l1.849-0.448l-1.753-0.738
			c-1.788-0.754-3.477-0.925-5.103-1.014h0.001c-0.212-0.012-0.419-0.016-0.622-0.016c-0.262,0-0.516,0.005-0.761,0.005
			c-0.143,0-0.281-0.001-0.417-0.006l0,0c-0.316-0.013-0.596-0.069-0.836-0.163c-0.36-0.143-0.638-0.36-0.849-0.668
			c-0.21-0.307-0.354-0.715-0.393-1.244l0,0c-0.014-0.186-0.021-0.375-0.021-0.565c-0.001-0.707,0.099-1.434,0.311-2.023l0,0
			c0.999-2.779,2.332-5.336,4.269-7.621l0.818-0.965L65.9,86.836c-0.968-0.05-1.805-0.093-2.882-0.147l-0.031,0.626l0.36,0.512
			c2.287-1.611,4.382-3.087,6.481-4.566l0.56-0.396l-0.442-0.521c-0.376-0.446-0.831-0.809-1.377-1.042
			c-0.547-0.234-1.17-0.339-1.885-0.339c-1.281,0.002-2.885,0.324-5.11,0.936l0.167,0.604l0.606-0.155
			c-0.201-0.776-0.448-1.494-0.542-2.178c-0.063-0.443-0.066-0.924-0.066-1.46c0-0.042,0-0.083,0-0.126c0-0.234,0-0.479-0.007-0.735
			l-0.028-1.103l-0.932,0.589c-0.569,0.356-0.951,0.845-1.204,1.352c-0.255,0.507-0.401,1.033-0.548,1.546l0.602,0.172l0.596-0.195
			c-0.088-0.263-0.172-0.475-0.209-0.646l0,0c-0.04-0.17-0.055-0.4-0.089-0.677l-0.051-0.393l-0.376-0.123
			c-0.074-0.024-0.147-0.047-0.217-0.069l-0.575-0.187l-0.206,0.567c-0.25,0.686-0.501,1.371-0.747,2.046l0.589,0.215l0.33-0.533
			c-0.327-0.203-0.549-0.438-0.7-0.715c-0.15-0.277-0.235-0.609-0.235-1.026c0-0.28,0.04-0.599,0.126-0.951l0,0
			c0.065-0.268,0.14-0.486,0.22-0.656c0.061-0.127,0.123-0.227,0.188-0.304c0.096-0.115,0.188-0.183,0.315-0.237
			c0.127-0.054,0.299-0.09,0.542-0.09c0.107,0,0.229,0.007,0.362,0.022l0,0c1.118,0.13,2.263,0.419,3.258,0.901h-0.001
			c1.915,0.93,3.775,2.061,5.658,3.178l0,0c0.146,0.087,0.296,0.161,0.46,0.217c0.161,0.055,0.339,0.088,0.519,0.088
			c0.268,0,0.528-0.073,0.766-0.188h0.001h-0.001c0.811-0.393,1.65-0.751,2.636-1.195l1.26-0.565l-1.256-0.575
			c-0.809-0.37-1.492-0.684-2.361-1.082l-0.262,0.57l0.276,0.562c1.912-0.938,3.67-1.43,5.53-1.473l0,0c0.035,0,0.069,0,0.104,0
			c0.404-0.001,0.845,0.051,1.32,0.085c0.77,0.056,1.414,0.25,1.967,0.618c0.553,0.369,1.034,0.921,1.439,1.761l0.564-0.271
			l0.256-0.571c-0.598-0.268-1.202-0.512-1.823-0.69c-0.621-0.18-1.26-0.294-1.918-0.294c-0.618,0-1.252,0.104-1.888,0.341
			c-0.99,0.37-1.806,0.961-2.476,1.675c-0.67,0.715-1.198,1.55-1.647,2.435l-0.562,1.105l1.223-0.204
			c1.932-0.324,3.815-0.738,5.681-0.923c0.272-0.027,0.541-0.041,0.808-0.041c1.523,0.002,2.945,0.439,4.241,1.425l0.423,0.322
			l0.387-0.366c0.433-0.408,0.881-0.706,1.332-0.9c0.452-0.195,0.907-0.29,1.364-0.29c0.789,0.001,1.603,0.281,2.408,0.896
			l0.005,0.005L89.171,83c0.795,0.61,1.428,1.358,1.978,2.238c0.549,0.878,1.01,1.889,1.453,3l0.581-0.231l0.4-0.482
			c-0.41-0.341-0.669-0.556-1.06-0.882l-1.828-1.518l0.842,2.222c0.086,0.228,0.112,0.392,0.112,0.509
			c0,0.081-0.012,0.142-0.031,0.2c-0.029,0.086-0.081,0.175-0.177,0.284c-0.094,0.108-0.23,0.231-0.398,0.368h0.001
			c-0.372,0.307-0.676,0.66-0.952,1.012c-0.277,0.353-0.528,0.703-0.779,1.014c-0.433,0.534-0.847,1.075-1.234,1.569l-0.514,0.654
			l0.771,0.313c0.462,0.189,0.816,0.436,1.109,0.735c0.437,0.448,0.737,1.032,0.955,1.729c0.218,0.694,0.347,1.495,0.45,2.33v-0.001
			c0.123,0.989,0.178,2.011,0.271,3.118l0.625-0.054l-0.144-0.609c-1.126,0.266-2.188,0.522-3.175,0.521
			c-0.411,0-0.81-0.043-1.202-0.145c-0.395-0.102-0.784-0.261-1.18-0.502l0,0c-0.236-0.146-0.507-0.236-0.784-0.236
			c-0.281-0.001-0.547,0.096-0.756,0.236c-0.212,0.141-0.378,0.319-0.522,0.515l0,0c-0.121,0.166-0.231,0.343-0.315,0.542
			c-0.084,0.198-0.141,0.423-0.141,0.663c0,0.174,0.03,0.354,0.092,0.525c0.062,0.171,0.153,0.334,0.268,0.486l0,0
			c0.353,0.474,0.77,0.859,1.238,1.147c0.469,0.29,0.986,0.482,1.535,0.589h0.001c0.216,0.041,0.371,0.076,0.465,0.104
			c0.071,0.021,0.104,0.038,0.114,0.045l0.005,0.003l0.001-0.002l-0.001,0.002l0,0l0.001-0.002l-0.001,0.002l0.01,0.013
			c0.022,0.03,0.082,0.149,0.164,0.359l0.582-0.233l-0.111-0.617c-0.081,0.016-0.176,0.027-0.287,0.045
			c-0.11,0.017-0.236,0.039-0.378,0.084l-0.001,0.001c-0.505,0.162-1.049,0.298-1.604,0.463c-0.555,0.166-1.124,0.362-1.674,0.659
			c-0.321,0.174-0.605,0.3-0.85,0.38c-0.246,0.08-0.45,0.113-0.621,0.113c-0.144,0-0.265-0.022-0.386-0.065
			c-0.179-0.065-0.363-0.185-0.574-0.399c-0.209-0.216-0.435-0.524-0.673-0.934l0,0c-0.659-1.131-1.423-2.221-2.285-3.189
			c-0.225-0.253-0.448-0.458-0.699-0.613c-0.25-0.154-0.541-0.254-0.843-0.253c-0.168,0-0.335,0.03-0.488,0.084
			c-0.231,0.081-0.435,0.209-0.623,0.361c-0.188,0.154-0.364,0.336-0.541,0.545c-0.232,0.272-0.44,0.554-0.639,0.829l0.001-0.001
			c-0.154,0.216-0.296,0.441-0.402,0.696c-0.106,0.254-0.175,0.539-0.174,0.842c-0.001,0.365,0.099,0.74,0.283,1.116l0,0
			c0.303,0.617,0.49,1.231,0.489,1.841c0,0.382-0.07,0.765-0.242,1.172l0,0c-0.147,0.349-0.219,0.697-0.276,1.036
			c-0.056,0.338-0.098,0.669-0.163,0.992L74.854,110.462l0.537-0.322L74.854,110.462l0.614,0.123
			c0.075-0.382,0.119-0.729,0.17-1.032c0.05-0.302,0.108-0.554,0.193-0.753v-0.001c0.238-0.559,0.343-1.12,0.342-1.66
			c0-0.868-0.263-1.668-0.617-2.392l0,0c-0.12-0.246-0.155-0.422-0.155-0.565c0-0.121,0.023-0.229,0.077-0.36
			c0.055-0.129,0.142-0.278,0.263-0.446l0.002-0.002l-0.001,0.002c0.189-0.265,0.378-0.519,0.573-0.748
			c0.192-0.226,0.358-0.379,0.479-0.459c0.061-0.04,0.108-0.063,0.144-0.075c0.034-0.013,0.056-0.015,0.076-0.015
			c0.035,0.001,0.083,0.006,0.188,0.069c0.103,0.062,0.248,0.184,0.419,0.376c0.796,0.896,1.516,1.919,2.139,2.988l0,0
			c0.363,0.621,0.732,1.11,1.177,1.467c0.223,0.178,0.465,0.318,0.726,0.413c0.259,0.095,0.535,0.141,0.813,0.141
			c0.334,0,0.669-0.064,1.01-0.176s0.688-0.27,1.058-0.469c0.431-0.233,0.915-0.405,1.436-0.56c0.52-0.155,1.071-0.292,1.63-0.472
			l0,0c0.042-0.014,0.104-0.027,0.189-0.04c0.084-0.014,0.189-0.026,0.314-0.048l0.757-0.136l-0.286-0.715
			c-0.069-0.171-0.129-0.318-0.213-0.47c-0.063-0.113-0.145-0.231-0.253-0.335c-0.08-0.079-0.173-0.147-0.27-0.2
			c-0.144-0.08-0.288-0.129-0.44-0.171c-0.152-0.041-0.315-0.075-0.508-0.112l0,0c-0.418-0.08-0.785-0.22-1.115-0.424
			c-0.329-0.204-0.625-0.474-0.894-0.833l0,0c-0.05-0.066-0.076-0.119-0.091-0.158c-0.014-0.042-0.019-0.07-0.019-0.103
			c0-0.044,0.009-0.099,0.043-0.177c0.032-0.078,0.089-0.176,0.17-0.286l0,0c0.083-0.114,0.158-0.184,0.204-0.213
			c0.048-0.03,0.055-0.025,0.064-0.027c0.009,0.001,0.044,0,0.132,0.053h-0.001c0.501,0.306,1.011,0.516,1.521,0.646
			c0.509,0.132,1.017,0.184,1.515,0.184c1.199-0.002,2.346-0.294,3.461-0.554l0.527-0.124l-0.046-0.539
			c-0.093-1.082-0.147-2.117-0.277-3.166l-0.002-0.014l0.002,0.014c-0.145-1.148-0.332-2.31-0.799-3.349
			c-0.233-0.519-0.542-1.006-0.951-1.428c-0.41-0.423-0.922-0.773-1.536-1.022l-0.235,0.58l0.492,0.387
			c0.395-0.503,0.804-1.038,1.223-1.554c0.283-0.351,0.537-0.707,0.79-1.027c0.252-0.321,0.502-0.605,0.764-0.819l0,0
			c0.248-0.206,0.5-0.424,0.708-0.719c0.104-0.146,0.194-0.314,0.258-0.501c0.063-0.187,0.097-0.391,0.097-0.601
			c0-0.306-0.068-0.62-0.194-0.953l-0.585,0.223l-0.4,0.481c0.391,0.325,0.649,0.54,1.06,0.882l1.895,1.574l-0.912-2.288
			c-0.456-1.146-0.945-2.224-1.554-3.2c-0.608-0.976-1.342-1.852-2.277-2.568l0,0c-0.982-0.757-2.074-1.157-3.171-1.157
			c-0.633,0-1.262,0.134-1.861,0.394c-0.599,0.26-1.169,0.644-1.695,1.141l0.431,0.455l0.379-0.498
			c-1.509-1.152-3.232-1.684-5-1.682c-0.309,0-0.62,0.017-0.933,0.047c-1.964,0.197-3.873,0.62-5.762,0.935l0.104,0.618l0.558,0.283
			c0.413-0.813,0.885-1.547,1.445-2.144c0.562-0.598,1.208-1.061,2.002-1.358c0.491-0.184,0.966-0.261,1.447-0.262
			c0.512,0,1.033,0.09,1.57,0.245c0.538,0.154,1.091,0.376,1.66,0.63l1.559,0.697l-0.738-1.54c-0.479-1.001-1.11-1.756-1.875-2.263
			c-0.764-0.509-1.642-0.76-2.572-0.825c-0.435-0.029-0.904-0.088-1.409-0.088c-0.044,0-0.088,0-0.132,0.001l0,0
			c-2.069,0.046-4.027,0.604-6.056,1.601l-1.186,0.582l1.201,0.55c0.87,0.398,1.554,0.712,2.362,1.082l0.261-0.569l-0.257-0.571
			c-0.973,0.438-1.821,0.799-2.667,1.209v-0.001c-0.116,0.056-0.175,0.063-0.221,0.064c-0.031-0.001-0.065-0.005-0.119-0.022
			c-0.055-0.019-0.128-0.052-0.221-0.107l0,0c-1.875-1.111-3.764-2.262-5.749-3.227h-0.001c-1.156-0.56-2.429-0.874-3.658-1.019
			h-0.004h0.004c-0.176-0.021-0.344-0.031-0.508-0.031c-0.326,0-0.635,0.043-0.92,0.146c-0.214,0.076-0.414,0.187-0.588,0.325
			c-0.264,0.209-0.466,0.479-0.619,0.776c-0.154,0.3-0.266,0.63-0.354,0.996l-0.001,0.004l0.001-0.004
			c-0.106,0.435-0.162,0.85-0.162,1.248c-0.001,0.59,0.125,1.144,0.388,1.625c0.261,0.482,0.655,0.882,1.142,1.182l0.654,0.405
			l0.264-0.724c0.246-0.675,0.496-1.359,0.746-2.046l-0.589-0.215l-0.192,0.597c0.073,0.023,0.144,0.047,0.213,0.068l0.194-0.595
			l-0.621,0.079c0.029,0.216,0.042,0.484,0.109,0.793l0,0c0.071,0.309,0.175,0.557,0.24,0.761l0.638,1.944l0.561-1.967
			c0.146-0.514,0.279-0.966,0.462-1.326c0.186-0.361,0.399-0.629,0.754-0.856l-0.334-0.529l-0.627,0.016
			c0.006,0.237,0.007,0.471,0.007,0.704c0,0.042,0,0.084,0,0.126c0.001,0.539,0.001,1.078,0.078,1.634
			c0.121,0.848,0.391,1.608,0.57,2.315l0.158,0.617l0.614-0.169c2.181-0.603,3.713-0.894,4.777-0.892
			c0.596,0.001,1.037,0.087,1.391,0.238c0.354,0.153,0.635,0.371,0.915,0.7l0.479-0.405l-0.361-0.512
			c-2.1,1.48-4.194,2.955-6.481,4.566l-1.484,1.046l1.813,0.092c1.077,0.056,1.914,0.098,2.882,0.147l0.032-0.625l-0.479-0.405
			c-2.053,2.421-3.456,5.124-4.491,8.008l0,0c-0.276,0.774-0.384,1.626-0.385,2.446c0,0.222,0.008,0.44,0.023,0.655l0,0
			c0.034,0.475,0.136,0.914,0.305,1.308c0.253,0.591,0.663,1.076,1.182,1.403c0.519,0.33,1.135,0.502,1.795,0.526l0,0
			c0.157,0.005,0.312,0.008,0.463,0.008c0.262,0,0.516-0.006,0.761-0.006c0.189,0,0.374,0.003,0.553,0.014l0,0
			c1.59,0.087,3.097,0.249,4.685,0.918l0.243-0.577l-0.147-0.609c-1.521,0.368-2.874,0.695-4.227,1.022l-0.532,0.13l0.058,0.546
			c0.011,0.104,0.021,0.208,0.033,0.313l0.068,0.619l0.618-0.063c1.148-0.118,2.27-0.277,3.367-0.336l0,0
			c0.057-0.003,0.112-0.004,0.167-0.004c0.551,0.001,0.992,0.143,1.38,0.399c0.387,0.257,0.722,0.642,0.996,1.155l0.553-0.296
			l0.155-0.606c-1.004-0.258-2.061-0.528-3.117-0.799l-0.544-0.14l-0.197,0.525c-0.034,0.087-0.067,0.177-0.102,0.267l-0.193,0.51
			l0.478,0.262c1.128,0.619,1.996,1.515,2.775,2.582c0.778,1.067,1.458,2.302,2.205,3.548l0.834,1.391l0.317-1.59L74.854,110.462z
			 M79.708,99.033l0.404-0.479c-0.825-0.698-1.651-1.396-2.569-2.171l-0.404,0.479l0.219,0.587c0.414-0.154,0.765-0.215,1.07-0.215
			c0.324,0.001,0.603,0.066,0.873,0.186c0.404,0.178,0.794,0.49,1.183,0.892c0.39,0.4,0.775,0.884,1.188,1.369l1.658,1.945
			l-0.571-2.492c-0.175-0.767-0.39-1.504-0.684-2.214l0,0c-0.33-0.792-0.68-1.415-1.114-1.878c-0.218-0.23-0.459-0.421-0.731-0.554
			c-0.271-0.133-0.571-0.203-0.873-0.203c-0.458,0.001-0.899,0.153-1.326,0.402c-0.429,0.251-0.851,0.601-1.294,1.047
			c-0.079,0.079-0.134,0.117-0.149,0.125l-0.005,0.003l0.041,0.1v-0.106l-0.041,0.007l0.041,0.1v-0.106v0.074l0.016-0.073
			l-0.016-0.001v0.074l0.016-0.073c0,0-0.016-0.003-0.048-0.019c-0.032-0.015-0.078-0.04-0.136-0.077h0.001
			c-1.046-0.668-2.13-1.267-3.268-1.73c-1.139-0.465-2.332-0.795-3.588-0.926l0,0c-0.423-0.043-0.843-0.058-1.259-0.058
			c-0.819,0.001-1.626,0.055-2.435,0.061l0.005,0.626l0.626-0.027c-0.004-0.092-0.006-0.184-0.006-0.275
			c0-0.934,0.208-1.821,0.52-2.718s0.729-1.796,1.121-2.735l1.341-3.211l-2.376,2.542c-1.52,1.625-2.946,3.397-3.887,5.574l0,0
			c-0.463,1.075-0.687,2.219-0.927,3.283l0,0c-0.04,0.176-0.062,0.35-0.062,0.521c0,0.202,0.03,0.404,0.101,0.595
			c0.104,0.288,0.309,0.545,0.569,0.711c0.26,0.166,0.56,0.249,0.873,0.273c0.786,0.058,1.536,0.055,2.24,0.13h0.001l0,0
			c1.599,0.167,3.191,0.343,4.77,0.577l0,0c0.105,0.015,0.257,0.071,0.428,0.16c0.173,0.087,0.357,0.2,0.576,0.3l0.258-0.57
			l-0.064-0.624c-1.12,0.116-2.262,0.212-3.41,0.356l0,0c-0.801,0.102-1.496,0.263-2.086,0.49c-0.588,0.229-1.077,0.523-1.443,0.915
			l-1.564,1.687l2.204-0.66c1.455-0.436,2.888-0.612,4.317-0.613c3.238-0.002,6.464,0.921,9.758,1.815l4.609,1.251l-4.132-2.396
			c-1.961-1.139-4.041-1.867-6.195-2.3l0,0c-0.268-0.053-0.457-0.097-0.567-0.136c-0.083-0.029-0.117-0.051-0.142-0.069
			c-0.018-0.014-0.033-0.029-0.06-0.064c-0.039-0.052-0.096-0.154-0.165-0.321c-0.068-0.166-0.149-0.394-0.25-0.687l-0.593,0.203
			l-0.205,0.593c2.405,0.833,4.691,1.625,6.978,2.418l0.572,0.198l0.218-0.565c0.026-0.068,0.051-0.134,0.076-0.199l0.206-0.54
			l-0.522-0.248c-1.49-0.707-2.989-1.598-4.649-2.164l-0.006-0.002l0.006,0.002c-2.267-0.77-4.574-1.299-6.84-1.874v-0.001
			c-0.211-0.053-0.399-0.112-0.563-0.181c-0.245-0.104-0.427-0.225-0.579-0.395c-0.15-0.171-0.283-0.403-0.379-0.78l-0.607,0.155
			l0.022,0.626c0.17-0.007,0.339-0.01,0.507-0.01c2.365,0.001,4.535,0.597,6.644,1.502c2.107,0.904,4.146,2.119,6.221,3.33
			l0.72-1.021L79.708,99.033l0.315-0.542c-2.066-1.205-4.146-2.448-6.356-3.398c-2.21-0.949-4.56-1.604-7.139-1.604
			c-0.183,0-0.366,0.003-0.552,0.011L65.2,93.527l0.191,0.753c0.09,0.354,0.218,0.664,0.383,0.933
			c0.247,0.404,0.582,0.704,0.939,0.908c0.358,0.205,0.734,0.325,1.105,0.42l0,0c2.283,0.579,4.559,1.104,6.745,1.847h-0.001
			c1.494,0.505,2.958,1.365,4.515,2.108l0.269-0.566l-0.585-0.223c-0.025,0.066-0.051,0.133-0.075,0.196l0.585,0.225l0.205-0.592
			c-2.286-0.793-4.573-1.586-6.978-2.419l-1.215-0.421l0.417,1.216c0.122,0.355,0.221,0.634,0.329,0.877
			c0.081,0.182,0.17,0.349,0.288,0.502c0.089,0.115,0.195,0.221,0.313,0.306c0.179,0.13,0.372,0.21,0.564,0.268
			c0.194,0.06,0.394,0.101,0.628,0.147l0,0c2.042,0.41,3.983,1.094,5.813,2.154l0.314-0.542l0.164-0.604
			c-3.279-0.887-6.608-1.856-10.085-1.859c-1.533,0-3.094,0.192-4.678,0.666l0.181,0.6l0.459,0.427
			c0.188-0.206,0.511-0.42,0.977-0.599c0.464-0.181,1.066-0.325,1.791-0.417l0,0c1.113-0.14,2.245-0.235,3.381-0.352l2.312-0.238
			l-2.117-0.956c-0.118-0.052-0.303-0.161-0.522-0.274c-0.223-0.112-0.487-0.233-0.813-0.283l0,0
			c-1.609-0.238-3.221-0.416-4.824-0.584h0.001c-0.796-0.083-1.559-0.078-2.278-0.134c-0.104-0.008-0.179-0.027-0.229-0.047
			c-0.076-0.032-0.094-0.055-0.113-0.083c-0.018-0.028-0.041-0.082-0.043-0.199c0-0.064,0.01-0.147,0.031-0.246l0,0
			c0.244-1.085,0.462-2.156,0.854-3.061v-0.001c0.854-1.978,2.174-3.636,3.652-5.216l-0.457-0.428l-0.579-0.241
			c-0.379,0.91-0.808,1.83-1.147,2.805s-0.59,2.009-0.59,3.131c0,0.11,0.003,0.221,0.007,0.331l0.026,0.604l0.604-0.005
			c0.856-0.007,1.662-0.061,2.425-0.061c0.387,0,0.764,0.014,1.131,0.052l0,0c1.119,0.115,2.194,0.411,3.242,0.839
			c1.048,0.427,2.066,0.986,3.065,1.626l0,0c0.119,0.075,0.239,0.144,0.377,0.198c0.136,0.054,0.295,0.094,0.466,0.094
			c0.203,0.002,0.407-0.061,0.57-0.152c0.166-0.093,0.301-0.208,0.432-0.339c0.391-0.395,0.742-0.677,1.037-0.848
			c0.296-0.173,0.523-0.231,0.694-0.231c0.115,0.001,0.213,0.023,0.324,0.076c0.163,0.079,0.363,0.246,0.578,0.542
			c0.214,0.294,0.438,0.709,0.658,1.242l0,0c0.26,0.626,0.456,1.294,0.621,2.016l0.61-0.14l0.477-0.406
			c-0.527-0.617-1.057-1.307-1.711-1.875c-0.328-0.283-0.691-0.536-1.105-0.719c-0.413-0.184-0.878-0.293-1.38-0.293
			c-0.475,0-0.977,0.096-1.508,0.294l-1.004,0.374l0.818,0.691c0.917,0.775,1.743,1.474,2.569,2.172L79.708,99.033l0.315-0.542
			L79.708,99.033z M81.757,96.407l0.022,0.626c0.069-0.002,0.141-0.005,0.214-0.007l0.636-0.018l-0.026-0.635
			c-0.045-1.04-0.089-2.081-0.135-3.147l-0.626,0.027l0.165,0.604c0.563-0.154,1.127-0.308,1.525-0.416l1.543-0.422l-1.418-0.738
			c-0.445-0.231-0.906-0.413-1.332-0.613s-0.812-0.417-1.114-0.688l0,0c-0.762-0.678-1.563-1.257-2.426-1.709
			s-1.786-0.775-2.78-0.941l0,0c-0.629-0.104-1.199-0.22-1.693-0.454c-0.248-0.116-0.479-0.262-0.701-0.455
			c-0.221-0.194-0.434-0.438-0.638-0.757l-0.456-0.716l-0.55,0.646c-0.878,1.033-1.671,1.966-2.463,2.898l-0.192,0.226l0.054,0.293
			c0.016,0.09,0.033,0.18,0.05,0.27l0.105,0.577l0.583-0.068c0.108-0.013,0.209-0.019,0.302-0.019c0.224,0,0.395,0.035,0.524,0.087
			c0.098,0.039,0.175,0.088,0.244,0.151c0.104,0.093,0.196,0.223,0.273,0.418c0.077,0.192,0.135,0.449,0.161,0.762l-0.001-0.002
			c0.011,0.12,0.041,0.204,0.063,0.261s0.039,0.09,0.043,0.101l0,0c0.233,0.53,0.548,0.97,0.93,1.291
			c0.19,0.161,0.399,0.292,0.624,0.384s0.466,0.145,0.712,0.145c0.052,0,0.104-0.004,0.155-0.008l0.736-0.065l-0.186-0.715
			c-0.209-0.813-0.437-1.619-0.607-2.421l-0.001-0.001l-0.431,0.093h0.441c0-0.021-0.001-0.051-0.011-0.093l-0.431,0.093h0.441
			h-0.273l0.27,0.052c0.001-0.007,0.004-0.021,0.004-0.052h-0.273l0.27,0.052l-0.075-0.015l0.073,0.02l0.002-0.005l-0.075-0.015
			l0.073,0.02l0.011-0.027l0.015-0.029l0.005-0.009l-0.207-0.147l0.166,0.19c0.035-0.031,0.04-0.042,0.041-0.043l-0.207-0.147
			l0.166,0.19l-0.317-0.363l0.227,0.426c0.047-0.025,0.073-0.047,0.091-0.063l-0.317-0.363l0.227,0.426l-0.265-0.498l0.041,0.562
			c0.105-0.008,0.177-0.039,0.224-0.063l-0.265-0.498l0.041,0.562l0,0l0,0h0.019c0.045-0.002,0.137,0.012,0.174,0.025l0.014,0.005
			l0.087-0.198l-0.136,0.166c0.035,0.027,0.049,0.031,0.049,0.032l0.087-0.198l-0.136,0.166l0.29-0.354l-0.426,0.158
			c0.043,0.111,0.104,0.169,0.136,0.196l0.29-0.354l-0.426,0.158l0,0c0.269,0.721,0.634,1.362,1.138,1.879
			c0.501,0.517,1.144,0.898,1.901,1.095l0.158-0.605l-0.583-0.231c-0.289,0.73-0.533,1.348-0.835,2.108l-1.026,2.592l2.037-1.903
			c0.688-0.644,1.275-1.096,1.76-1.374c0.241-0.14,0.455-0.235,0.64-0.295c0.186-0.061,0.341-0.084,0.471-0.084
			c0.167,0.002,0.296,0.035,0.431,0.105c0.101,0.054,0.204,0.133,0.313,0.243c0.163,0.167,0.333,0.409,0.498,0.726
			c0.166,0.314,0.328,0.701,0.485,1.148l0.153,0.434l0.461-0.017L81.757,96.407l0.59-0.208c-0.307-0.863-0.637-1.581-1.09-2.133
			c-0.227-0.274-0.489-0.508-0.798-0.672c-0.308-0.166-0.66-0.255-1.021-0.253c-0.282,0-0.567,0.05-0.855,0.144
			c-0.433,0.14-0.873,0.372-1.345,0.694c-0.472,0.324-0.976,0.738-1.526,1.252l0.429,0.458l0.582,0.23
			c0.301-0.761,0.546-1.378,0.835-2.108l0.261-0.657l-0.684-0.18c-0.552-0.146-0.97-0.397-1.322-0.758
			c-0.352-0.359-0.637-0.84-0.859-1.44v-0.001c-0.04-0.107-0.1-0.191-0.158-0.254c-0.103-0.109-0.201-0.166-0.289-0.21
			c-0.134-0.063-0.256-0.096-0.376-0.119s-0.237-0.034-0.354-0.034c-0.036,0-0.073,0.001-0.11,0.004l0,0
			c-0.088,0.007-0.158,0.028-0.214,0.052c-0.105,0.045-0.165,0.095-0.214,0.137c-0.081,0.074-0.128,0.139-0.171,0.204
			c-0.064,0.097-0.112,0.193-0.152,0.302c-0.021,0.054-0.038,0.11-0.054,0.174c-0.014,0.063-0.025,0.133-0.025,0.221
			c0,0.05,0.004,0.105,0.018,0.171V91.42c0.182,0.855,0.416,1.679,0.62,2.474l0.606-0.157l-0.055-0.624l-0.045,0.002
			c-0.07,0-0.148-0.014-0.238-0.051c-0.134-0.054-0.291-0.161-0.447-0.332c-0.155-0.169-0.307-0.4-0.433-0.687l0,0
			c-0.009-0.021-0.017-0.035-0.021-0.046l-0.005-0.012l-0.089,0.037l0.09-0.033l-0.001-0.004l-0.089,0.037l0.09-0.033l-0.34,0.124
			l0.359-0.029c-0.005-0.055-0.016-0.084-0.02-0.095l-0.34,0.124l0.359-0.029l-0.001-0.001c-0.029-0.36-0.093-0.695-0.2-1.004
			c-0.08-0.231-0.188-0.449-0.326-0.645c-0.205-0.295-0.488-0.537-0.82-0.692c-0.333-0.156-0.707-0.226-1.104-0.226
			c-0.146,0-0.294,0.01-0.447,0.027l0.072,0.622l0.616-0.113c-0.017-0.09-0.032-0.18-0.05-0.27l-0.615,0.113l0.477,0.405
			c0.793-0.932,1.585-1.863,2.464-2.897L72.444,87l-0.528,0.337c0.262,0.412,0.555,0.752,0.87,1.027
			c0.473,0.414,0.991,0.678,1.504,0.853c0.515,0.175,1.023,0.268,1.508,0.35h0.001c0.858,0.144,1.649,0.42,2.405,0.815
			c0.755,0.396,1.473,0.911,2.173,1.535v-0.001c0.445,0.396,0.942,0.663,1.414,0.887c0.473,0.221,0.925,0.401,1.288,0.591
			l0.288-0.556l-0.164-0.604c-0.398,0.109-0.962,0.262-1.526,0.416l-0.482,0.132l0.021,0.5c0.046,1.065,0.09,2.105,0.135,3.146
			l0.626-0.027l-0.018-0.626c-0.073,0.002-0.148,0.004-0.226,0.007L81.757,96.407l0.59-0.208L81.757,96.407z M82.47,89.454
			l-0.381,0.497c0.07,0.054,0.14,0.106,0.207,0.158l0.563,0.434l0.358-0.615c0.573-0.982,1.208-1.966,1.749-3.042l0,0
			c0.143-0.286,0.235-0.604,0.236-0.943c0.001-0.272-0.065-0.565-0.229-0.826c-0.161-0.262-0.417-0.474-0.722-0.605l0,0
			c-0.472-0.206-0.957-0.292-1.432-0.291c-0.604,0.001-1.189,0.132-1.776,0.309l-1.348,0.407l1.205,0.729
			c0.255,0.154,0.461,0.295,0.62,0.427c0.241,0.199,0.373,0.366,0.46,0.553c0.086,0.187,0.136,0.417,0.137,0.769
			c0.001,0.446-0.09,1.071-0.264,1.916l-0.078,0.385l0.312,0.238L82.47,89.454l0.614,0.126c0.178-0.878,0.287-1.563,0.288-2.168
			c0-0.315-0.031-0.61-0.106-0.891c-0.111-0.421-0.332-0.796-0.628-1.104c-0.297-0.311-0.657-0.564-1.088-0.826l-0.323,0.536
			l0.181,0.6c0.528-0.16,0.997-0.256,1.414-0.255c0.328,0.001,0.626,0.055,0.931,0.188l0,0c0.105,0.048,0.137,0.086,0.16,0.12
			c0.021,0.035,0.037,0.081,0.038,0.162c0.001,0.099-0.032,0.241-0.104,0.382l0,0c-0.5,0.997-1.118,1.958-1.711,2.973l0.542,0.315
			l0.381-0.497c-0.071-0.055-0.141-0.106-0.208-0.158L82.47,89.454l0.614,0.126L82.47,89.454z M88.61,85.046l0.029-0.626
			c-0.479-0.021-1.005-0.089-1.57-0.09c-0.144,0-0.289,0.005-0.438,0.017l0.001-0.001c-0.227,0.019-0.439,0.06-0.639,0.132
			c-0.299,0.105-0.574,0.286-0.768,0.547c-0.194,0.26-0.29,0.585-0.288,0.903c0.001,0.337,0.094,0.67,0.252,1.004l0,0
			c0.507,1.064,1.159,1.987,1.709,2.91l2.252,3.768l-1.108-4.247c-0.261-0.993-0.396-1.665-0.393-2.096
			c0-0.188,0.021-0.327,0.06-0.447c0.058-0.177,0.15-0.33,0.35-0.535c0.197-0.201,0.499-0.438,0.911-0.726l1.503-1.054L88.64,84.42
			L88.61,85.046l-0.358-0.514c-0.579,0.408-1.023,0.75-1.357,1.186c-0.165,0.218-0.296,0.46-0.379,0.723
			c-0.083,0.262-0.118,0.539-0.118,0.826c0.003,0.662,0.17,1.394,0.434,2.412l0.606-0.158l0.538-0.321
			c-0.585-0.976-1.21-1.867-1.653-2.805l0,0c-0.101-0.21-0.132-0.371-0.131-0.467c0-0.062,0.011-0.097,0.021-0.121
			c0.017-0.035,0.033-0.063,0.108-0.107c0.073-0.043,0.209-0.089,0.409-0.104l0,0c0.11-0.009,0.223-0.013,0.339-0.013
			c0.458-0.001,0.966,0.063,1.513,0.089L88.61,85.046l-0.358-0.514L88.61,85.046z"/>
		<path fill-rule="evenodd" clip-rule="evenodd" fill="#F7BD3C" d="M59.328,88.394c-0.698-0.381-1.275-0.695-1.958-1.067
			c2.521-1.172,4.948-2.301,7.376-3.428c-2.205,1.764-4.229,3.668-5.387,6.72c1.211-0.407,2.277-0.767,3.344-1.125
			c0.056,0.057,0.111,0.114,0.167,0.172c-0.169,0.146-0.358,0.27-0.504,0.438c-1.356,1.568-2.534,3.271-3.26,5.308
			c-1.027,2.885-0.679,5.485,1.276,7.79c1.357,1.599,2.738,3.167,4.52,4.19c0.731,0.42,1.552,0.652,2.331,0.97
			c0.043-0.099,0.085-0.198,0.128-0.297c-0.756-0.771-1.511-1.543-2.267-2.314c0.042-0.06,0.084-0.119,0.126-0.179
			c3.163,1.324,6.001,3.162,8.165,6.417c-0.783-0.199-1.378-0.434-1.983-0.482c-0.582-0.047-1.178,0.098-1.83,0.164
			c0.173-0.431,0.336-0.834,0.594-1.479c-3.694,1.248-7.077,0.581-10.478-1.109c1.019-0.36,1.961-0.694,3.104-1.099
			c-1.383-0.719-2.6-1.352-3.815-1.983c0.009-0.058,0.018-0.115,0.026-0.173c0.53-0.054,1.061-0.108,1.615-0.165
			c-0.624-1.596-2.695-3.689-4.549-3.414c-0.044-2.66,0.092-5.25,1.424-7.824c-0.635,0.299-1.115,0.525-1.729,0.815
			C56.362,92.567,57.532,90.371,59.328,88.394z"/>
		<path fill="#F99D39" d="M59.328,88.394l0.3-0.55c-0.698-0.381-1.275-0.695-1.957-1.067l-0.301,0.55l0.264,0.567
			c2.521-1.171,4.948-2.3,7.376-3.427l-0.264-0.568l-0.392-0.489c-1.115,0.893-2.204,1.834-3.17,2.957
			c-0.965,1.124-1.805,2.431-2.41,4.03l-0.47,1.238l1.255-0.423c1.211-0.407,2.277-0.767,3.344-1.126l-0.2-0.593l-0.449,0.437
			c0.055,0.056,0.11,0.113,0.166,0.172l0.45-0.437l-0.408-0.476c-0.064,0.056-0.149,0.12-0.248,0.2
			c-0.098,0.08-0.211,0.177-0.322,0.305h0.001c-1.385,1.601-2.615,3.371-3.377,5.507l0,0c-0.392,1.1-0.6,2.18-0.6,3.232
			c0,0.926,0.162,1.83,0.494,2.696s0.831,1.694,1.495,2.476l0.001,0.002l-0.001-0.002c1.362,1.603,2.785,3.234,4.685,4.33h0.001
			c0.41,0.235,0.829,0.41,1.236,0.565c0.406,0.154,0.802,0.291,1.17,0.441l0.568,0.23l0.243-0.563c0.043-0.101,0.086-0.2,0.128-0.3
			l0.165-0.386l-0.293-0.299c-0.756-0.771-1.511-1.543-2.267-2.313l-0.447,0.438l0.514,0.359c0.04-0.059,0.083-0.118,0.126-0.179
			l-0.514-0.359l-0.242,0.578c1.549,0.647,3.001,1.415,4.323,2.407c1.323,0.993,2.521,2.212,3.563,3.778l0.521-0.347l0.155-0.606
			c-0.372-0.095-0.708-0.201-1.046-0.295c-0.336-0.094-0.676-0.176-1.043-0.205l-0.017-0.002l0.017,0.002
			c-0.098-0.008-0.192-0.012-0.287-0.012c-0.604,0.003-1.139,0.126-1.657,0.177l0.064,0.623l0.582,0.233
			c0.173-0.431,0.335-0.834,0.594-1.479l0.506-1.262l-1.288,0.435c-1.251,0.423-2.452,0.612-3.634,0.613
			c-2.142,0-4.228-0.628-6.365-1.689l-0.278,0.561l0.209,0.591c1.019-0.361,1.961-0.694,3.104-1.1l1.359-0.481l-1.279-0.665
			c-1.383-0.718-2.6-1.351-3.816-1.982l-0.288,0.556l0.618,0.097c0.009-0.056,0.019-0.113,0.027-0.17l-0.619-0.1l0.064,0.623
			c0.53-0.054,1.06-0.108,1.615-0.165l0.819-0.084l-0.301-0.768c-0.171-0.437-0.422-0.879-0.733-1.309
			c-0.468-0.645-1.068-1.258-1.756-1.727c-0.345-0.234-0.71-0.432-1.097-0.574c-0.385-0.142-0.791-0.228-1.208-0.228
			c-0.143,0-0.286,0.011-0.43,0.031l0.092,0.62l0.627-0.011c-0.005-0.254-0.007-0.506-0.007-0.758c0-1.176,0.056-2.321,0.254-3.444
			c0.198-1.122,0.536-2.223,1.106-3.324l0.852-1.645l-1.675,0.791c-0.636,0.299-1.116,0.525-1.729,0.815l0.267,0.566l0.611,0.136
			c0.578-2.57,1.686-4.65,3.416-6.56l0.535-0.589l-0.699-0.382L59.328,88.394l-0.464-0.421c-1.861,2.047-3.093,4.358-3.71,7.128
			l-0.28,1.25l1.158-0.546c0.613-0.29,1.093-0.516,1.729-0.815l-0.268-0.566l-0.556-0.288c-0.635,1.225-1.012,2.457-1.228,3.683
			c-0.217,1.227-0.273,2.446-0.273,3.661c0,0.26,0.003,0.52,0.007,0.779l0.012,0.714l0.707-0.105
			c0.08-0.012,0.162-0.018,0.245-0.018c0.324,0,0.683,0.091,1.05,0.266c0.55,0.261,1.11,0.708,1.571,1.22
			c0.461,0.509,0.824,1.085,1.007,1.555l0.583-0.228l-0.063-0.623c-0.556,0.057-1.086,0.111-1.615,0.165l-0.479,0.049l-0.076,0.476
			c-0.009,0.058-0.019,0.115-0.027,0.174l-0.07,0.445l0.4,0.208c1.216,0.632,2.433,1.265,3.815,1.983l0.289-0.556l-0.209-0.591
			c-1.143,0.404-2.085,0.738-3.104,1.1l-1.393,0.493l1.323,0.658c2.249,1.117,4.532,1.819,6.923,1.819
			c1.316,0,2.66-0.214,4.034-0.678l-0.2-0.594l-0.582-0.233c-0.258,0.645-0.42,1.049-0.593,1.48l-0.386,0.962l1.031-0.105
			c0.609-0.065,1.117-0.174,1.528-0.171c0.064,0,0.127,0.002,0.187,0.007l0,0c0.239,0.02,0.5,0.078,0.808,0.164
			c0.309,0.085,0.66,0.196,1.072,0.302l1.579,0.403l-0.902-1.357c-1.122-1.688-2.427-3.016-3.854-4.087s-2.976-1.886-4.592-2.562
			l-0.466-0.194l-0.289,0.414c-0.041,0.058-0.083,0.118-0.126,0.179l-0.298,0.426l0.363,0.371c0.756,0.772,1.512,1.543,2.267,2.314
			l0.448-0.438l-0.576-0.246c-0.043,0.099-0.084,0.196-0.127,0.294l0.575,0.249l0.236-0.58c-0.411-0.167-0.816-0.306-1.196-0.451
			c-0.382-0.146-0.738-0.297-1.06-0.481l0.001,0.001c-1.661-0.953-3.003-2.459-4.354-4.055l-0.001-0.001l0.002,0.002
			c-0.584-0.688-1.004-1.391-1.281-2.113c-0.276-0.724-0.411-1.468-0.411-2.249c0-0.888,0.176-1.823,0.527-2.813l0,0
			c0.689-1.937,1.815-3.572,3.144-5.107l0.001-0.001H62.84c0.035-0.041,0.091-0.091,0.165-0.151s0.168-0.131,0.272-0.221
			l0.507-0.434l-0.465-0.479c-0.055-0.057-0.11-0.114-0.168-0.173l-0.274-0.282l-0.374,0.125c-1.066,0.359-2.133,0.719-3.343,1.126
			l0.199,0.594l0.586,0.223c0.552-1.453,1.304-2.625,2.189-3.657c0.888-1.032,1.912-1.925,3.002-2.796l4.06-3.249l-4.715,2.191
			c-2.427,1.128-4.854,2.256-7.375,3.428l-1.126,0.523l1.09,0.595c0.683,0.372,1.26,0.687,1.958,1.067L59.328,88.394l-0.464-0.421
			L59.328,88.394z"/>
	</g>
	<path fill-rule="evenodd" clip-rule="evenodd" fill="#FFFFFF" d="M84.596,110.168c0.114,0.679,0.18,1.068,0.254,1.509
		c1.292,0.066,2.672,0.538,3.284-1.64c0.358,1.362,0.343,2.414-0.081,3.428c-0.075,0.178-0.402,0.375-0.57,0.337
		c-2.448-0.561-4.857-0.599-7.264,0.434c0.645-0.515,1.234-1.164,1.946-1.515C83.204,112.21,84.022,111.515,84.596,110.168z"/>
	<g>
		<path fill-rule="evenodd" clip-rule="evenodd" fill="#F7BD3C" d="M88.235,78.343c0.479-1.094,1.23-1.929,2.179-2.557
			c0.405-0.27,0.678-0.117,0.821,0.382c0.357,1.237,0.378,2.448-0.145,3.64C90.148,79.323,89.24,78.857,88.235,78.343z"/>
		<path fill="#F99D39" d="M88.235,78.343l0.458,0.201c0.44-1.003,1.117-1.757,1.997-2.341h0.001l0.084-0.047l0.01-0.003
			l-0.014-0.071v0.072l0.014-0.001l-0.014-0.071v0.072V76l-0.067,0.139l0.067,0.016V76l-0.067,0.139l0.05-0.103l-0.079,0.083
			l0.029,0.02l0.05-0.103l-0.079,0.083l0.004,0.005c0.013,0.017,0.047,0.079,0.076,0.183l0,0c0.155,0.538,0.24,1.061,0.24,1.569
			c-0.001,0.587-0.11,1.156-0.362,1.73l0.458,0.201l0.229-0.444c-0.942-0.485-1.851-0.951-2.856-1.466L88.235,78.343l0.458,0.201
			L88.235,78.343l-0.228,0.445c1.004,0.515,1.912,0.979,2.854,1.464l0.473,0.243l0.214-0.486c0.308-0.702,0.446-1.419,0.446-2.133
			c0-0.62-0.103-1.235-0.279-1.847l0,0c-0.063-0.211-0.146-0.405-0.296-0.577c-0.145-0.172-0.398-0.304-0.648-0.298
			c-0.245,0.002-0.45,0.094-0.635,0.215l0.001,0c-1.017,0.672-1.842,1.588-2.36,2.772l-0.188,0.432l0.419,0.215L88.235,78.343z"/>
		<path fill-rule="evenodd" clip-rule="evenodd" fill="#F7BD3C" d="M82.418,79.887c-0.483-1.021-0.947-2.001-1.412-2.982
			c1.447-0.81,3.107-0.115,3.955,1.646C84.152,78.975,83.344,79.4,82.418,79.887z"/>
		<path fill="#F99D39" d="M82.418,79.887l0.452-0.214c-0.483-1.021-0.947-2.001-1.412-2.982l-0.452,0.214l0.244,0.437
			c0.337-0.188,0.672-0.272,1.002-0.272c0.835-0.001,1.706,0.56,2.259,1.698l0.45-0.217l-0.232-0.442
			c-0.809,0.425-1.617,0.851-2.543,1.337L82.418,79.887l0.452-0.214L82.418,79.887l0.232,0.442c0.926-0.486,1.734-0.912,2.543-1.337
			l0.428-0.225l-0.21-0.435c-0.667-1.395-1.856-2.264-3.159-2.265c-0.504,0-1.015,0.133-1.49,0.399l-0.408,0.229l0.2,0.422
			c0.465,0.981,0.929,1.961,1.412,2.982l0.224,0.472l0.461-0.243L82.418,79.887z"/>
	</g>
	<path fill-rule="evenodd" clip-rule="evenodd" d="M79.708,99.033c-4.288-2.502-8.526-5.095-13.709-4.907
		c0.308,1.207,1.057,1.575,1.974,1.808c2.274,0.577,4.566,1.105,6.793,1.86c1.577,0.535,3.058,1.412,4.581,2.136
		c-0.024,0.065-0.05,0.133-0.075,0.198c-2.286-0.792-4.572-1.585-6.978-2.419c0.482,1.403,0.562,1.47,1.653,1.688
		c2.098,0.422,4.108,1.128,6.004,2.227c-4.737-1.284-9.456-2.684-14.418-1.198c0.554-0.597,1.622-1.018,3.148-1.21
		c1.131-0.143,2.267-0.237,3.396-0.354c-0.336-0.152-0.739-0.444-1.17-0.509c-1.593-0.236-3.195-0.413-4.797-0.581
		c-0.75-0.079-1.506-0.075-2.259-0.132c-0.761-0.058-1.094-0.557-0.918-1.338c0.242-1.074,0.463-2.183,0.892-3.172
		c0.897-2.078,2.27-3.793,3.77-5.396c-0.811,1.939-1.779,3.813-1.684,5.997c1.256-0.01,2.45-0.127,3.624-0.005
		c2.375,0.246,4.538,1.253,6.582,2.56c0.427,0.273,0.676,0.276,1.063-0.112c1.942-1.955,3.224-1.654,4.315,0.983
		c0.276,0.668,0.482,1.37,0.652,2.115c-1.33-1.562-2.53-3.336-5.009-2.412C78.056,97.637,78.882,98.334,79.708,99.033z"/>
	<path fill-rule="evenodd" clip-rule="evenodd" d="M81.757,96.407c-1.04-2.945-2.364-3.758-5.616-0.718
		c0.301-0.762,0.545-1.378,0.835-2.108c-1.309-0.344-2.119-1.266-2.609-2.587c-0.057-0.151-0.435-0.224-0.655-0.207
		c-0.098,0.007-0.277,0.355-0.246,0.503c0.177,0.828,0.407,1.643,0.614,2.446c-0.664,0.06-1.37-0.48-1.791-1.439
		c-0.023-0.052-0.052-0.105-0.057-0.16c-0.117-1.406-0.793-2.133-2.201-1.969c-0.017-0.09-0.033-0.18-0.049-0.27
		c0.792-0.933,1.584-1.864,2.463-2.898c0.933,1.464,2.183,1.734,3.457,1.948c1.854,0.31,3.432,1.198,4.893,2.5
		c0.748,0.667,1.766,0.969,2.573,1.39c-0.398,0.109-0.962,0.263-1.525,0.416c0.046,1.066,0.09,2.106,0.135,3.146
		C81.903,96.402,81.83,96.405,81.757,96.407z"/>
	<path fill-rule="evenodd" clip-rule="evenodd" fill="#FFFFFF" d="M75.301,90.489c-0.09,1.57,1.495,2.712,3.809,1.812
		c-0.332-0.572-0.696-0.896-1.388-0.755c-0.318,0.065-0.909-0.134-1.011-0.389C76.389,90.357,75.844,90.525,75.301,90.489z"/>
	<path fill-rule="evenodd" clip-rule="evenodd" d="M82.47,89.454c0.544-2.658,0.36-3.356-1.243-4.326
		c0.996-0.301,1.894-0.427,2.776-0.042c0.663,0.288,0.685,0.962,0.404,1.519c-0.521,1.037-1.147,2.009-1.729,3.008
		C82.607,89.56,82.538,89.507,82.47,89.454z"/>
	<path fill-rule="evenodd" clip-rule="evenodd" d="M88.61,85.046c-1.776,1.245-1.893,1.717-1.173,4.475
		c-0.567-0.948-1.206-1.856-1.682-2.857c-0.456-0.962-0.073-1.613,0.926-1.692C87.319,84.92,87.968,85.017,88.61,85.046z"/>
	<path fill-rule="evenodd" clip-rule="evenodd" fill="#FFFFFF" d="M80.061,106.806c-0.074,0.051-0.148,0.102-0.223,0.152
		c0.307,0.538,0.623,1.068,0.917,1.613c0.196,0.364,0.365,0.748,0.54,1.128c0.217,0.471,0.427,0.945,0.639,1.418
		c0.082-0.029,0.165-0.059,0.247-0.088c0.192-0.872,0.384-1.745,0.601-2.732C81.346,108.823,80.658,107.906,80.061,106.806z"/>
	<path fill-rule="evenodd" clip-rule="evenodd" fill="#FFFFFF" d="M90.72,107.296c-0.448-0.139-0.843-0.262-1.246-0.387
		c0.004,0.963,0.008,1.829,0.011,2.694c0.041,0.018,0.082,0.036,0.123,0.053C89.959,108.91,90.312,108.162,90.72,107.296z"/>
</g>
<path fill-rule="evenodd" clip-rule="evenodd" fill="#FFFFFF" d="M79.04,119.565c2.16-1.607,2.301-1.632,5.034-1.271
	c1.132,0.15,2.134-0.15,2.827-1.23c0.969-1.508,0.701-2.265-0.928-2.543c-2.129-0.364-4.074,0.357-5.962,1.327
	c-1.313,0.674-1.354,0.704-2.102-0.662c-0.439-0.804-0.754-1.69-1.117-2.545c-0.11-0.26-0.192-0.534-0.368-1.028
	c-0.334,2.428,0.005,4.44,1.102,6.426c0.215-0.48,0.363-0.813,0.57-1.277C78.44,117.785,78.728,118.638,79.04,119.565z"/>
<path fill-rule="evenodd" clip-rule="evenodd" fill="#FFFFFF" d="M92.011,95.308c1.982-1.755,2.434-2.977,1.873-4.962
	c-0.568,0.038-0.879,0.228-0.779,0.994c0.141,1.092-0.289,1.776-1.217,2.21c-0.25,0.116-0.506,0.212-0.818,0.342
	C91.399,94.387,91.685,94.817,92.011,95.308z"/>
<path fill-rule="evenodd" clip-rule="evenodd" fill="#FFFFFF" d="M92.724,90.972c-0.66,0.563-1.25,1.066-1.936,1.651
	C92.343,92.928,92.903,92.439,92.724,90.972z"/>
<path fill-rule="evenodd" clip-rule="evenodd" fill="#FFFFFF" d="M92.489,102.389c-0.029-0.034-0.059-0.068-0.087-0.102
	c-0.841,0.785-1.685,1.564-2.519,2.358c-0.226,0.214-0.418,0.471-0.636,0.72c0.618,0.374,1.136,0.781,1.713,0.995
	c0.281,0.104,0.769-0.041,0.992-0.271c0.296-0.309,0.427-0.81,0.675-1.319c-0.297,0.03-0.474,0.048-0.717,0.073
	c0.513-0.64,1.511-0.915,0.999-2.088c-0.38,0.265-0.737,0.515-1.095,0.765c-0.021-0.03-0.043-0.062-0.064-0.092
	C91.997,103.082,92.243,102.735,92.489,102.389z"/>
<g>
	<path fill-rule="evenodd" clip-rule="evenodd" fill="#FFFFFF" d="M84.454,101.912c0.812,0.266,1.654,0.446,2.428,0.824
		c1.384,0.679,2.971,2.68,0.917,3.862c-0.003,0.001-6.648,3.83-10.221-4.521c-0.323-0.754-1.41-3.019-0.332-3.558
		c0.742-0.372,2.356,0.705,2.962,1.03c1.124,0.604,2.149,1.418,3.291,1.981C83.808,101.685,84.129,101.806,84.454,101.912z"/>
	<path d="M84.454,101.912l-0.155,0.476c0.846,0.274,1.664,0.453,2.363,0.798l0,0c0.385,0.187,0.815,0.517,1.127,0.89
		c0.316,0.373,0.498,0.78,0.493,1.096c-0.001,0.169-0.04,0.318-0.146,0.481c-0.104,0.161-0.286,0.339-0.588,0.513l0.25,0.434
		l-0.157-0.475l-0.065,0.027l-0.02,0.01c-0.002,0.001-0.349,0.2-0.94,0.407c-0.589,0.205-1.408,0.408-2.318,0.407
		c-1-0.001-2.103-0.237-3.188-0.979c-1.085-0.742-2.168-2.004-3.072-4.115v-0.001c-0.115-0.268-0.308-0.687-0.471-1.144
		c-0.164-0.453-0.29-0.946-0.287-1.287c-0.001-0.158,0.025-0.277,0.059-0.346l0.131-0.137l0,0l0.146-0.024
		c0.244-0.008,0.733,0.164,1.183,0.396c0.458,0.23,0.887,0.498,1.173,0.652c1.072,0.572,2.102,1.392,3.306,1.989
		c0.338,0.167,0.682,0.296,1.021,0.407L84.454,101.912l0.155-0.476c-0.311-0.102-0.609-0.215-0.889-0.353
		c-1.079-0.529-2.101-1.339-3.276-1.974c-0.231-0.124-0.691-0.41-1.195-0.664c-0.513-0.252-1.062-0.495-1.633-0.503
		c-0.194,0-0.398,0.032-0.594,0.13l0,0c-0.271,0.133-0.479,0.362-0.591,0.61c-0.115,0.249-0.151,0.51-0.151,0.767
		c0.003,0.552,0.166,1.115,0.346,1.624c0.18,0.505,0.387,0.954,0.492,1.201v-0.001c0.959,2.244,2.157,3.681,3.428,4.549
		c1.269,0.869,2.594,1.154,3.752,1.152c1.063,0,1.99-0.233,2.656-0.466c0.333-0.117,0.602-0.233,0.789-0.322
		c0.094-0.044,0.167-0.082,0.219-0.108l0.061-0.032l0.017-0.01l0.004-0.002l-0.072-0.128l0.072,0.128l0,0l-0.072-0.128l0.072,0.128
		l-0.229-0.409l0.226,0.411l0.004-0.002l-0.229-0.409l0.226,0.411l-0.238-0.435l0.231,0.438l0.007-0.004l-0.238-0.435l0.231,0.438
		l-0.233-0.441l0.223,0.446l0.011-0.005l-0.233-0.441l0.223,0.446l-0.223-0.447l0.157,0.475l0.065-0.027l-0.223-0.447l0.157,0.475
		l0.048-0.016l0.045-0.025c0.406-0.234,0.717-0.513,0.926-0.834c0.211-0.32,0.309-0.681,0.308-1.027
		c-0.005-0.662-0.32-1.25-0.728-1.738c-0.412-0.489-0.931-0.888-1.453-1.146l0,0c-0.848-0.411-1.715-0.594-2.492-0.851
		L84.454,101.912z"/>
</g>
</svg>
