<?xml version="1.0" encoding="utf-8"?>
<!-- Generator: Adobe Illustrator 16.0.0, SVG Export Plug-In . SVG Version: 6.00 Build 0)  -->
<!DOCTYPE svg PUBLIC "-//W3C//DTD SVG 1.1//EN" "http://www.w3.org/Graphics/SVG/1.1/DTD/svg11.dtd">
<svg version="1.1" id="flag-icon-css-am" xmlns="http://www.w3.org/2000/svg" xmlns:xlink="http://www.w3.org/1999/xlink" x="0px"
	 y="0px" width="150px" height="150px" viewBox="0 0 150 150" enable-background="new 0 0 150 150" xml:space="preserve">
<g>
	<linearGradient id="SVGID_1_" gradientUnits="userSpaceOnUse" x1="1" y1="45.7363" x2="109.668" y2="45.7363">
		<stop  offset="0" style="stop-color:#FF4000"/>
		<stop  offset="0.7688" style="stop-color:#FFE300"/>
	</linearGradient>
	<path fill-rule="evenodd" clip-rule="evenodd" fill="url(#SVGID_1_)" d="M24.356,37.391c-1.346-0.159-2.678,0.242-4.025,0.153
		c8.582-3.251,17.376-5.651,26.404-7.212c6.909-1.195,13.859-1.895,20.871-1.801c9.311,0.125,18.455,1.386,27.329,4.308
		c4.899,1.613,9.583,3.687,13.852,6.621c0.325,0.223,0.769,0.358,0.882,0.969c-1.576-0.548-3.079-1.069-4.582-1.59
		c-0.218-0.259-0.541-0.296-0.834-0.382c-1.872-0.553-3.734-1.145-5.622-1.637c-7.839-2.046-15.756-3.024-23.83-1.617
		c-1.481,0.258-2.967,0.508-4.536,1.049c0.746,0.125,1.335,0.225,1.924,0.323c2.563,0.569,5.136,1.084,7.676,1.756
		c4.393,1.16,8.636,2.698,12.621,4.901c0.164,0.091,0.411,0.101,0.485,0.464c-2.701-0.241-5.37-0.17-8.039-0.212
		c-0.261-0.182-0.558-0.101-0.837-0.105c-4.154-0.07-8.303,0.045-12.452,0.262c-3.912,0.205-7.811,0.536-11.695,1.018
		c-5.647,0.701-11.229,1.758-16.738,3.194c-5.671,1.479-11.317,3.043-16.867,4.945c-5.477,1.878-10.903,3.88-16.236,6.138
		c-1.036,0.438-2.018,1.029-3.136,1.27c-0.095,0.103-0.327,0.039-0.324,0.263l0.017-0.011c-0.147-0.015-0.339-0.113-0.321,0.175
		l0.062,0.022c-0.31-0.251-0.531,0.059-0.754,0.158C4.094,61.506,2.549,62.233,1,62.949c0-0.366,0-0.731,0-1.097
		c3.626-2.818,7.371-5.467,11.307-7.841c8.331-5.024,17.007-9.294,26.343-12.135c0.163-0.049,0.379-0.019,0.479-0.218
		c1.864-0.482,3.729-0.966,5.631-1.375c-0.863-0.332-1.72-0.632-2.597-0.85c-5.808-1.44-11.699-2.175-17.688-2.072
		c-0.043,0.015-0.085,0.031-0.128,0.046L24.356,37.391z"/>
	<path fill-rule="evenodd" clip-rule="evenodd" fill="#070404" d="M148.657,72.354c-0.326-0.002-0.265,0.262-0.3,0.449
		c-0.278,1.504-1.061,2.65-2.439,3.338c-0.299,0.149-0.319,0.371-0.382,0.619c-0.515,2.036-1.749,3.656-3.109,5.17
		c-0.574,0.639-1.409,1.036-2.321,0.925c-0.495-0.061-0.415,0.294-0.504,0.507c-0.618,1.486-1.553,2.155-3.026,2.064
		c0.764-0.941,1.159-1.962,0.888-3.145c-0.056-0.245-0.057-0.515-0.297-0.699c-2.201-1.694-4.449-3.308-7.217-3.957
		c-2.303-0.54-4.447,0.335-5.705,2.288c-1.272,1.978-1.188,4.467,0.214,6.31c1.62,2.127,4.271,2.268,6.058,0.268
		c0.438-0.489,0.669-0.388,1.017,0.016c0.576,0.668,0.859,1.444,0.771,2.312c-0.104,1.04-0.299,2.074-0.89,2.97
		c-0.165,0.248-0.133,0.381,0.03,0.602c0.326,0.438,0.639,0.893,0.899,1.372c0.719,1.316,0.839,2.647,0.127,4.037
		c-0.904,1.763-1.733,3.564-2.625,5.333c-0.243,0.481-0.363,0.953-0.352,1.492c0.024,1.245,0.007,2.491,0.007,3.738
		c-0.313,0.063-0.394-0.182-0.525-0.309c-7.673-7.407-15.097-15.048-21.792-23.363c-2.343-2.91-4.569-5.909-6.063-9.373
		c-1.2-2.783-1.59-5.672-0.943-8.651c0.631-2.911,2.604-4.872,4.86-6.6c0.786-0.603,1.628-1.135,2.421-1.729
		c1.079-0.811,1.32-1.588,0.907-2.88c-0.468-1.464-1.32-2.719-2.218-3.94c-2.429-3.308-5.153-6.375-7.782-9.52
		c-0.163-0.195-0.327-0.389-0.592-0.706c1.535,0.065,2.899,0.329,4.264,0.585c4.716,0.884,9.161,2.643,13.654,4.245
		c0.563,0.201,1.133,0.397,1.713,0.538c0.64,0.153,0.824-0.049,0.664-0.691c-0.127-0.511-0.39-0.967-0.684-1.401
		c-2.212-3.267-5.069-5.89-8.28-8.136c-4.173-2.92-8.8-4.967-13.491-6.88c-1.215-0.495-2.445-0.959-3.656-1.496
		c1.559-0.147,3.104-0.033,4.642,0.13c5.943,0.632,11.613,2.201,16.965,4.911c5.12,2.593,9.318,6.304,13.086,10.56
		c2.373,2.681,4.713,5.39,6.271,8.658c0.483,1.012,0.921,2.055,0.752,3.227c-0.067,0.463,0.35,0.468,0.585,0.604
		c4.278,2.491,8.297,5.333,11.952,8.683c0.895,0.82,1.576,1.829,2.446,2.668C148.657,69.116,148.657,70.735,148.657,72.354z
		 M142.824,69.561c1.18,0.224,1.922,0.938,2.342,2.168c0.254,0.745,0.303,1.533,0.472,2.295c0.16,0.72,0.479,0.805,1.011,0.315
		c0.934-0.861,1.227-2.097,0.735-3.275c-0.673-1.614-1.749-2.963-2.917-4.235c-2.966-3.233-6.401-5.905-10.072-8.285
		c-1.465-0.951-2.947-1.878-4.424-2.812c-0.542-0.343-0.772-0.707-0.124-1.172c0.688-0.494,0.741-1.218,0.686-1.967
		c-0.15-2.048-1.061-3.806-2.182-5.459c-2.115-3.118-4.805-5.694-7.724-8.047c-5.547-4.471-11.76-7.56-18.749-9.029
		c-0.8-0.169-1.606-0.387-2.479-0.322c0.181,0.316,0.484,0.355,0.731,0.475c5.933,2.863,11.553,6.175,15.95,11.214
		c1.583,1.813,3.009,3.746,3.885,6.015c0.397,1.029,0.055,1.41-1.055,1.276c-0.839-0.1-1.604-0.445-2.383-0.741
		c-3.135-1.195-6.133-2.742-9.396-3.608c-2.131-0.565-4.272-1.047-6.512-1.224c0.077,0.396,0.329,0.602,0.513,0.842
		c2.651,3.487,5.326,6.958,7.83,10.555c0.701,1.007,1.399,2.017,1.802,3.191c0.537,1.566,0.258,2.636-0.981,3.721
		c-0.293,0.256-0.623,0.474-0.95,0.688c-1.136,0.738-2.308,1.427-3.413,2.211c-1.374,0.975-2.22,2.313-2.524,3.996
		c-0.325,1.799-0.091,3.538,0.516,5.233c1.104,3.083,2.945,5.747,4.885,8.34c3.785,5.063,7.89,9.865,12.102,14.572
		c1.897,2.12,3.801,4.247,6.07,5.992c1.287,0.99,1.668,0.909,2.652-0.426c0.937-1.269,1.569-2.698,2.269-4.1
		c0.858-1.721,0.615-3.208-0.677-4.591c-0.329-0.352-0.961-0.652-0.896-1.089c0.069-0.451,0.545-0.869,0.903-1.242
		c1.109-1.156,1.03-2.489,0.632-3.878c-0.038-0.132-0.036-0.339-0.235-0.364c-0.188-0.023-0.261,0.148-0.338,0.276
		c-1.446,2.426-4.256,2.462-6.473,1.648c-3.064-1.123-4.836-4.468-4.278-7.879c0.632-3.871,3.053-5.621,6.935-5.093
		c2.097,0.284,4.039,1.016,5.953,1.851c2.324,1.014,4.478,2.351,6.694,3.566c0.878,0.48,1.631,0.379,2.397-0.187
		c2.48-1.832,2.912-4.374,2.478-7.198C144.254,72.295,143.559,70.97,142.824,69.561z"/>
	<linearGradient id="SVGID_2_" gradientUnits="userSpaceOnUse" x1="7.0996" y1="66.1201" x2="95.4063" y2="66.1201">
		<stop  offset="0" style="stop-color:#FF4000"/>
		<stop  offset="0.7688" style="stop-color:#FFE300"/>
	</linearGradient>
	<path fill-rule="evenodd" clip-rule="evenodd" fill="url(#SVGID_2_)" d="M72.194,51.917c1.926,0.062,3.853,0.124,5.779,0.184
		c5.319,0.164,10.618,0.503,15.813,1.772c0.547,0.134,1.086,0.302,1.621,0.523c-1.426,0.233-2.834,0.491-4.275,0.427
		c-0.416,0.001-0.835-0.027-1.249,0.008c-5.853,0.497-11.656,1.359-17.409,2.53c-13.267,2.7-26.034,6.917-38.292,12.682
		c-5.055,2.376-9.992,4.973-14.82,7.775c-1.528,0.886-3.12,1.684-4.48,2.838c-0.216-0.108-0.345-0.042-0.393,0.192l0.059,0.003
		c-0.39-0.098-0.615,0.218-0.875,0.389c-2.045,1.346-4.074,2.715-6.112,4.07C7.424,85.4,7.326,85.615,7.1,85.512l0.016,0.011
		c1.438-2.452,3.39-4.478,5.394-6.453c4.545-4.483,9.81-7.987,15.278-11.216c1.021-0.603,2.006-1.268,3.008-1.904
		c0.356,0.011,0.646-0.176,0.947-0.324c0.77-0.378,1.534-0.77,2.311-1.131c1.881-0.876,3.778-1.715,5.75-2.398
		c-0.612-0.3-1.252-0.269-1.869-0.311c-2.832-0.199-5.665-0.187-8.499,0.009c-2.019,0.138-4.033,0.291-6.018,0.71
		c-1.607-0.049-3.136,0.44-4.699,0.691c-0.969,0.154-1.905,0.504-2.907,0.514c1.759-1.067,3.603-1.953,5.476-2.769
		c10.774-4.688,21.875-8.412,33.292-11.185c5.049-1.226,10.178-1.989,15.35-2.49c6.459-0.628,12.923-0.746,19.397-0.275
		c0.562,0.041,1.121,0.115,1.686,0.271c-1.392,0.159-2.787,0.287-4.171,0.484c-1.562,0.224-3.115,0.51-4.67,0.768
		c-4.51,0.333-8.839,1.322-12.838,3.541C70.287,52.008,71.24,51.962,72.194,51.917z"/>
	<linearGradient id="SVGID_3_" gradientUnits="userSpaceOnUse" x1="25.5737" y1="80.1318" x2="89.3652" y2="80.1318">
		<stop  offset="0" style="stop-color:#FF4000"/>
		<stop  offset="0.7688" style="stop-color:#FFE300"/>
	</linearGradient>
	<path fill-rule="evenodd" clip-rule="evenodd" fill="url(#SVGID_3_)" d="M25.574,100.222c1.535-2.622,3.452-4.959,5.414-7.26
		c2.253-2.644,4.649-5.153,7.172-7.544c0.545-0.516,1.027-1.097,1.538-1.648c0.062-0.092,0.123-0.184,0.185-0.274l-0.001,0.011
		c0.345,0.07,0.517-0.194,0.725-0.38c2.176-1.941,4.417-3.801,6.847-5.424c0.141-0.094,0.433-0.109,0.343-0.442
		c-4.237,0.275-8.412,0.882-12.469,2.173c-1.333,0.121-2.55,0.667-3.81,1.051c-0.616,0.188-1.209,0.452-1.847,0.587
		c18.153-11.964,37.899-19.452,59.695-21.163c-2.702,0.621-5.323,1.521-7.975,2.319c-0.964,0.225-1.883,0.585-2.805,0.936
		c-2.354,0.894-4.691,1.836-6.954,2.94c-1.392,0.679-2.79,1.368-4.024,2.329c0.001,0-0.011,0.02-0.011,0.02l0.014-0.028
		c0.972-0.044,1.915-0.257,2.854-0.486c1.357-0.019,2.68-0.326,4.021-0.486c4.715-0.563,9.447-0.761,14.19-0.813
		c0.066-0.001,0.132,0.042,0.245,0.079c-0.772,0.581-1.746,0.499-2.509,0.959c-0.271-0.072-0.51,0.05-0.758,0.128
		c-3.626,1.134-7.171,2.5-10.688,3.924c-3.584,1.452-7.125,3.013-10.611,4.696c-4.109,1.985-8.168,4.063-12.141,6.309
		c-3.676,2.078-7.303,4.236-10.863,6.512c-3.229,2.062-6.429,4.156-9.46,6.502c-0.281-0.081-0.421,0.151-0.6,0.282
		c-1.906,1.392-3.78,2.826-5.602,4.328C25.651,100.312,25.612,100.267,25.574,100.222z"/>
	<linearGradient id="SVGID_4_" gradientUnits="userSpaceOnUse" x1="48.8589" y1="91.6875" x2="93.9355" y2="91.6875">
		<stop  offset="0" style="stop-color:#FF4000"/>
		<stop  offset="0.7688" style="stop-color:#FFE300"/>
	</linearGradient>
	<path fill-rule="evenodd" clip-rule="evenodd" fill="url(#SVGID_4_)" d="M80.784,79.754c0.448-0.004,0.865-0.121,1.288-0.274
		c3.226-1.167,6.566-1.83,9.961-2.266c0.614-0.078,1.223-0.211,1.902-0.17c-2.05,1.133-4.1,2.265-6.147,3.397
		c-0.258,0.118-0.522,0.222-0.77,0.359c-5.654,3.156-11.117,6.614-16.362,10.41c-4.718,3.415-9.19,7.127-13.387,11.173
		c-1.243,1.198-2.5,2.382-3.736,3.589c-0.099,0.061-0.198,0.119-0.167,0.262l0.055,0.002c-0.356-0.045-0.464,0.282-0.644,0.466
		c-1.271,1.299-2.524,2.616-3.784,3.929c-0.045-0.036-0.09-0.071-0.135-0.106c0.891-2.714,2.234-5.212,3.675-7.662
		c2.622-4.458,6.18-8.134,9.817-11.743c0.61-0.604,1.223-1.207,1.835-1.812c0.573-0.491,1.146-0.981,1.891-1.62
		c-3.174,0.322-6.055,0.826-8.803,1.933c-0.358-0.131-0.67,0.06-0.979,0.172c-1.224,0.442-2.439,0.908-3.654,1.375
		c-0.19,0.072-0.365,0.187-0.581,0.101c8.272-7.454,31.983-18.749,39.053-18.519c-0.63,0.469-1.289,0.578-1.847,0.879
		c-1.609,0.486-3.025,1.367-4.445,2.22c-2.364,1.421-4.572,3.063-6.63,4.927C79.158,80.686,79.977,80.234,80.784,79.754z"/>
	<linearGradient id="SVGID_5_" gradientUnits="userSpaceOnUse" x1="76.5928" y1="98.084" x2="97.0879" y2="98.084">
		<stop  offset="0" style="stop-color:#FF4000"/>
		<stop  offset="0.7688" style="stop-color:#FFE300"/>
	</linearGradient>
	<path fill-rule="evenodd" clip-rule="evenodd" fill="url(#SVGID_5_)" d="M89.539,92.115c0.827-0.329,1.526-0.881,2.281-1.334
		c1.59-0.95,3.237-1.753,5.268-2.306c-0.611,0.813-1.09,1.451-1.568,2.089c-0.243,0.088-0.328,0.321-0.46,0.51
		c-3.592,5.09-6.376,10.627-9.005,16.249c-0.241,0.517-0.446,1.05-0.463,1.634c-0.112-0.3-0.17-0.336-0.312,0.008
		c-0.587,1.417-1.205,2.82-1.811,4.229c-0.08,0.185-0.152,0.371-0.316,0.774c0-0.83-0.03-1.431,0.005-2.027
		c0.217-3.717,0.35-7.447,1.388-11.062c0.172-0.599,0.41-1.179,0.576-1.779c0.053-0.187,0.313-0.393,0.049-0.615
		c-0.002,0-0.014,0.032-0.014,0.032c0.207,0.147,0.188-0.075,0.254-0.156c-0.111-0.171,0.186-0.271,0.089-0.403
		c-0.128-0.178-0.278-0.021-0.403,0.043c-0.371,0.189-0.736,0.387-1.103,0.586c-1.252,0.682-2.613,1.156-3.792,1.979
		c-0.134-0.015-0.289-0.053-0.191,0.18l0.024-0.016c-0.833,0.067-1.392,0.676-2.063,1.054c-0.459,0.259-0.883,0.577-1.379,0.807
		c0.275-0.846,0.733-1.561,1.216-2.253c4.285-6.166,9.22-11.728,15.228-16.279c0.747-0.566,1.556-1.051,2.35-1.551
		c0.2-0.127,0.462-0.459,0.668-0.222c0.231,0.266-0.179,0.42-0.331,0.584c-1.42,1.531-2.788,3.108-4.093,4.739
		c-0.308,0.385-0.567,0.808-0.849,1.214c-0.043,0.052-0.086,0.104-0.13,0.156l0.021-0.014c-0.872,1.102-1.531,2.313-2.044,3.834
		C89.047,92.484,89.293,92.301,89.539,92.115z"/>
	<path fill-rule="evenodd" clip-rule="evenodd" fill="#070404" d="M14.881,80.656c1.361-1.154,2.953-1.952,4.48-2.838
		c4.828-2.802,9.765-5.398,14.82-7.775c12.257-5.765,25.025-9.982,38.292-12.682c5.752-1.17,11.556-2.033,17.409-2.53
		c0.414-0.035,0.833-0.007,1.249-0.008c-1.307,0.457-2.69,0.479-4.039,0.684c-17.338,2.64-33.948,7.59-49.665,15.455
		c-8.052,4.029-15.988,8.246-23.359,13.45c-1.02,0.721-2.009,1.482-3.014,2.224c-0.016,0.013-0.05-0.002-0.162-0.01
		c0.973-1.677,2.013-3.262,3.109-4.814c0.209-0.296,0.589-0.515,0.546-0.96c0,0-0.059-0.003-0.059-0.003
		C14.743,81.035,14.755,80.73,14.881,80.656z"/>
	<path fill-rule="evenodd" clip-rule="evenodd" fill="#070404" d="M31.891,95.746c3.031-2.346,6.232-4.44,9.46-6.502
		c3.56-2.275,7.187-4.434,10.863-6.512c3.973-2.246,8.031-4.323,12.141-6.309c3.486-1.683,7.027-3.245,10.611-4.696
		c3.518-1.423,7.063-2.79,10.688-3.924c0.248-0.078,0.486-0.201,0.758-0.128c-1.696,0.847-3.482,1.482-5.225,2.222
		c-8.783,3.737-17.503,7.624-25.697,12.542c-8.801,5.282-17.238,11.107-25.02,17.835c-0.354,0.307-0.693,0.632-1.045,0.941
		c-0.023,0.02-0.093-0.014-0.193-0.032C30.049,99.326,30.909,97.508,31.891,95.746z"/>
	<path fill-rule="evenodd" clip-rule="evenodd" fill="#070404" d="M6.972,60.204c1.118-0.241,2.1-0.831,3.136-1.27
		c5.333-2.257,10.759-4.259,16.236-6.138c5.55-1.901,11.195-3.466,16.867-4.945c5.508-1.436,11.091-2.493,16.738-3.194
		c3.884-0.482,7.783-0.813,11.695-1.018c4.149-0.217,8.297-0.332,12.452-0.262c0.279,0.004,0.576-0.077,0.837,0.105
		c-6.502,0.065-12.991,0.395-19.469,0.99c-10.281,0.944-20.279,3.157-30.068,6.421c-8.238,2.748-16.406,5.658-24.244,9.424
		c-2.893,1.39-5.734,2.876-8.411,4.658c-0.12,0.08-0.225,0.243-0.465,0.1c1.107-1.384,2.37-2.601,3.655-3.8
		c0.184-0.172,0.535-0.252,0.475-0.622c0-0.001-0.062-0.023-0.062-0.023c0.233,0.172,0.311,0.059,0.321-0.175l-0.017,0.011
		C6.893,60.546,6.975,60.427,6.972,60.204z"/>
	<path fill-rule="evenodd" clip-rule="evenodd" fill="#070404" d="M53.534,105.973c1.235-1.207,2.493-2.391,3.736-3.589
		c4.197-4.046,8.668-7.758,13.387-11.173c5.245-3.796,10.708-7.254,16.362-10.41c0.247-0.138,0.512-0.241,0.77-0.359
		c-0.234,0.37-0.631,0.53-0.979,0.75c-7.343,4.648-14.574,9.458-21.148,15.171c-5,4.344-9.484,9.177-13.412,14.517
		c-0.166,0.227-0.337,0.447-0.634,0.838c0.07-0.971,0.381-1.668,0.595-2.389c0.316-1.065,0.955-2.003,1.21-3.092l-0.055-0.002
		C53.585,106.251,53.624,106.153,53.534,105.973z"/>
	<path fill-rule="evenodd" clip-rule="evenodd" fill="#070404" d="M24.476,37.361c5.989-0.103,11.88,0.632,17.688,2.072
		c0.877,0.218,1.733,0.518,2.597,0.85c-1.902,0.409-3.767,0.893-5.631,1.375c-2.158-1.167-4.536-1.498-6.92-1.713
		c-3.243-0.292-6.499-0.382-9.756-0.317c-0.566,0.011-1.131,0.085-1.697,0.123c-0.205,0.013-0.424,0.039-0.583-0.222
		c1.394-0.712,2.789-1.424,4.183-2.137c0,0-0.009,0.017-0.009,0.017C24.386,37.379,24.428,37.363,24.476,37.361z"/>
	<path fill-rule="evenodd" clip-rule="evenodd" fill="#070404" d="M23.417,62.503c1.984-0.419,3.999-0.573,6.018-0.71
		c2.834-0.195,5.667-0.208,8.499-0.009c0.617,0.042,1.257,0.011,1.869,0.311c-1.972,0.683-3.869,1.522-5.75,2.398
		c-0.777,0.361-1.541,0.753-2.311,1.131c-0.302,0.148-0.591,0.335-0.947,0.324c0.865-0.864,1.976-1.371,2.97-2.047
		c0.204-0.138,0.422-0.255,0.606-0.472c-5.815,0.124-11.498,1.127-17.163,2.338c1.821-1.067,3.698-1.984,5.605-2.843
		C23.034,62.826,23.349,62.832,23.417,62.503z"/>
	<path fill-rule="evenodd" clip-rule="evenodd" fill="#070404" d="M35.327,79.433c4.058-1.291,8.232-1.897,12.469-2.173
		c0.089,0.333-0.202,0.349-0.343,0.442c-2.431,1.623-4.671,3.482-6.847,5.424c-0.208,0.186-0.38,0.45-0.725,0.38
		c0.822-1.138,1.756-2.182,2.875-3.3c-2.3,0.068-4.364,0.605-6.435,1.107c-2.09,0.507-4.077,1.329-6.111,2.025
		c1.418-1.287,2.958-2.378,4.53-3.427C34.948,79.773,35.225,79.705,35.327,79.433z"/>
	<path fill-rule="evenodd" clip-rule="evenodd" fill="#070404" d="M72.188,36.575c-0.589-0.098-1.178-0.198-1.924-0.323
		c1.568-0.541,3.054-0.791,4.536-1.049c8.074-1.407,15.991-0.429,23.83,1.617c1.888,0.493,3.75,1.084,5.622,1.637
		c0.293,0.086,0.616,0.124,0.834,0.382c-0.086,0.145-0.189,0.102-0.326,0.063c-7.966-2.285-16.044-3.803-24.378-3.501
		C77.612,35.5,74.861,35.779,72.188,36.575z"/>
	<path fill-rule="evenodd" clip-rule="evenodd" fill="#070404" d="M85.592,108.957c0.017-0.584,0.222-1.117,0.463-1.634
		c2.629-5.622,5.413-11.159,9.005-16.249c0.132-0.188,0.217-0.422,0.46-0.51c-0.004,0.396-0.288,0.66-0.476,0.961
		c-4.119,6.637-7.23,13.715-9.325,21.24c-0.007-0.042,0.021-0.123-0.074-0.066C85.491,111.453,85.575,110.205,85.592,108.957z"/>
	<path fill-rule="evenodd" clip-rule="evenodd" fill="#070404" d="M57.274,89.62c2.749-1.106,5.629-1.61,8.803-1.933
		c-0.745,0.639-1.318,1.129-1.891,1.62c-3.865,0.44-7.208,2.185-10.416,4.267c-0.04-0.05-0.079-0.101-0.118-0.149
		c0.354-0.409,0.697-0.827,1.066-1.222c0.373-0.397,0.786-0.759,1.156-1.159C56.328,90.555,56.961,90.244,57.274,89.62z"/>
	<path fill-rule="evenodd" clip-rule="evenodd" fill="#070404" d="M72.194,51.917c-0.954,0.045-1.907,0.091-2.861,0.136
		c3.999-2.219,8.328-3.208,12.838-3.541c-0.23,0.254-0.562,0.24-0.853,0.314C78.199,49.629,75.142,50.609,72.194,51.917z"/>
	<path fill-rule="evenodd" clip-rule="evenodd" fill="#070404" d="M67.608,68.431c1.234-0.96,2.632-1.649,4.024-2.329
		c2.262-1.104,4.6-2.047,6.954-2.94c0.922-0.351,1.841-0.711,2.805-0.936c-0.509,0.478-1.194,0.586-1.804,0.847
		c-3.181,1.36-6.237,2.948-9.121,4.863c-0.94,0.229-1.883,0.442-2.854,0.486L67.608,68.431z"/>
	<path fill-rule="evenodd" clip-rule="evenodd" fill="#070404" d="M80.784,79.754c-0.808,0.48-1.626,0.932-2.594,1.021
		c2.058-1.864,4.266-3.506,6.63-4.927c1.42-0.853,2.836-1.733,4.445-2.22c-0.061,0.352-0.397,0.393-0.63,0.528
		c-2.731,1.594-5.3,3.42-7.758,5.408C80.828,79.604,80.814,79.689,80.784,79.754z"/>
	<path fill-rule="evenodd" clip-rule="evenodd" fill="#070404" d="M80.202,100.564c1.179-0.822,2.54-1.297,3.792-1.979
		c0.366-0.199,0.731-0.396,1.103-0.586c0.125-0.064,0.275-0.221,0.403-0.043c0.097,0.132-0.2,0.232-0.089,0.403
		c-0.136-0.032-0.244-0.02-0.254,0.156c0,0,0.012-0.032,0.014-0.032c-1.943,0.957-3.637,2.27-5.251,3.692
		c-0.349,0.308-0.346,0.311-0.872,0.476c0.352-0.685,0.668-1.304,0.987-1.924l-0.024,0.016
		C80.141,100.754,80.169,100.656,80.202,100.564z"/>
	<path fill-rule="evenodd" clip-rule="evenodd" fill="#070404" d="M89.539,92.115c-0.246,0.186-0.492,0.369-0.91,0.683
		c0.513-1.521,1.172-2.732,2.044-3.834C90.346,90.032,89.783,91.018,89.539,92.115z"/>
	<path fill-rule="evenodd" clip-rule="evenodd" fill="#E92729" d="M85.645,112.699c0.095-0.057,0.067,0.024,0.074,0.066
		c-0.002,0.104-0.085,0.128-0.138,0.081C85.533,112.805,85.534,112.711,85.645,112.699z"/>
	<path fill-rule="evenodd" clip-rule="evenodd" fill="#070404" d="M39.882,83.495c-0.062,0.091-0.124,0.183-0.185,0.274
		C39.759,83.678,39.82,83.586,39.882,83.495z"/>
	<path fill-rule="evenodd" clip-rule="evenodd" fill="#E92729" d="M7.1,85.512c-0.003,0.037-0.006,0.074-0.009,0.111
		c-0.022-0.004-0.045-0.008-0.067-0.012c0.03-0.03,0.061-0.06,0.092-0.089L7.1,85.512z"/>
	<path fill-rule="evenodd" clip-rule="evenodd" fill="#070404" d="M90.651,88.978c0.044-0.053,0.087-0.104,0.13-0.156
		C90.778,88.905,90.751,88.973,90.651,88.978z"/>
	<path fill-rule="evenodd" clip-rule="evenodd" fill="#E92729" d="M25.689,100.356c-0.069,0.031-0.139,0.157-0.21,0.019
		c-0.014-0.028,0.061-0.102,0.095-0.153C25.612,100.267,25.651,100.312,25.689,100.356z"/>
	<path fill-rule="evenodd" clip-rule="evenodd" fill="#E92729" d="M48.994,110.631c-0.043,0.045-0.113,0.135-0.125,0.128
		c-0.109-0.066-0.055-0.152-0.01-0.234C48.904,110.56,48.949,110.595,48.994,110.631z"/>
	<linearGradient id="SVGID_6_" gradientUnits="userSpaceOnUse" x1="93.332" y1="34.8296" x2="141.3358" y2="92.0383">
		<stop  offset="0" style="stop-color:#FF4000"/>
		<stop  offset="0.7688" style="stop-color:#FFE300"/>
	</linearGradient>
	<path fill-rule="evenodd" clip-rule="evenodd" fill="url(#SVGID_6_)" d="M142.824,69.561c0.734,1.409,1.43,2.734,1.659,4.222
		c0.435,2.824,0.003,5.366-2.478,7.198c-0.767,0.565-1.52,0.667-2.397,0.187c-2.217-1.216-4.37-2.553-6.694-3.566
		c-1.914-0.835-3.856-1.566-5.953-1.851c-3.882-0.528-6.303,1.222-6.935,5.093c-0.558,3.411,1.214,6.756,4.278,7.879
		c2.217,0.813,5.026,0.777,6.473-1.648c0.077-0.128,0.149-0.3,0.338-0.276c0.199,0.025,0.197,0.232,0.235,0.364
		c0.398,1.389,0.478,2.722-0.632,3.878c-0.358,0.373-0.834,0.791-0.903,1.242c-0.065,0.437,0.566,0.737,0.896,1.089
		c1.292,1.383,1.535,2.87,0.677,4.591c-0.699,1.401-1.332,2.831-2.269,4.1c-0.984,1.335-1.365,1.416-2.652,0.426
		c-2.27-1.745-4.173-3.872-6.07-5.992c-4.212-4.707-8.316-9.51-12.102-14.572c-1.939-2.593-3.78-5.257-4.885-8.34
		c-0.606-1.695-0.841-3.434-0.516-5.233c0.305-1.683,1.15-3.021,2.524-3.996c1.105-0.784,2.277-1.473,3.413-2.211
		c0.327-0.213,0.657-0.431,0.95-0.688c1.239-1.084,1.519-2.154,0.981-3.721c-0.402-1.174-1.101-2.184-1.802-3.191
		c-2.504-3.597-5.179-7.068-7.83-10.555c-0.184-0.241-0.436-0.447-0.513-0.842c2.239,0.177,4.381,0.659,6.512,1.224
		c3.264,0.866,6.262,2.413,9.396,3.608c0.778,0.296,1.544,0.642,2.383,0.741c1.109,0.134,1.452-0.247,1.055-1.276
		c-0.876-2.27-2.302-4.203-3.885-6.015c-4.397-5.039-10.018-8.351-15.95-11.214c-0.247-0.12-0.551-0.158-0.731-0.475
		c0.873-0.064,1.68,0.153,2.479,0.322c6.989,1.469,13.202,4.558,18.749,9.029c2.919,2.353,5.608,4.929,7.724,8.047
		c1.121,1.653,2.031,3.411,2.182,5.459c0.056,0.749,0.003,1.473-0.686,1.967c-0.648,0.465-0.418,0.829,0.124,1.172
		c1.477,0.933,2.959,1.861,4.424,2.812c3.671,2.38,7.106,5.051,10.072,8.285c1.168,1.271,2.244,2.621,2.917,4.235
		c0.491,1.178,0.198,2.414-0.735,3.275c-0.531,0.49-0.851,0.404-1.011-0.315c-0.169-0.762-0.218-1.551-0.472-2.295
		C144.746,70.499,144.004,69.785,142.824,69.561z M120.684,56.515c0.759,0.979,1.63,1.399,2.47,1.842
		c0.436,0.229,0.643,0.54,0.746,1.004c0.205,0.924,0.532,1.8,1.274,2.451c0.708,0.622,1.631,0.692,2.373,0.18
		c0.707-0.487,0.927-1.337,0.582-2.229c-0.211-0.547-0.562-0.996-1.001-1.375C125.33,56.833,123.132,56.672,120.684,56.515z
		 M119.425,63.227c0.09,0.034,0.178,0.076,0.27,0.1c4.698,1.267,9.212,2.974,13.394,5.497c0.345,0.207,0.854,0.524,1.112,0.077
		c0.235-0.41-0.332-0.634-0.631-0.823c-1.97-1.246-4.132-2.089-6.281-2.955C124.766,64.108,122.15,63.451,119.425,63.227z
		 M132.514,71.35c0.048-0.125,0.098-0.249,0.146-0.374c-3.803-2.277-7.896-3.844-12.201-4.896c2.008,0.917,4.032,1.79,6.071,2.631
		C128.543,69.544,130.418,70.713,132.514,71.35z M112.706,53.366c0.012-1.445-0.573-2.659-1.431-3.762
		c-0.138-0.178-0.344-0.324-0.548-0.424c-0.4-0.196-0.807-0.217-1.12,0.178c-0.301,0.379-0.052,0.684,0.171,0.971
		C110.638,51.436,111.688,52.365,112.706,53.366z M121.097,68.962c2.81,1.064,5.385,2.58,7.967,4.088
		c0.342,0.201,0.877,0.662,1.082,0.307c0.241-0.418-0.42-0.67-0.766-0.886c-2.04-1.268-4.239-2.208-6.492-3.025
		C122.309,69.237,121.741,68.967,121.097,68.962z"/>
	<polygon fill-rule="evenodd" clip-rule="evenodd" fill="#070404" points="67.611,68.422 67.597,68.451 67.608,68.431 	"/>
	<path fill-rule="evenodd" clip-rule="evenodd" fill="#070404" d="M120.684,56.515c2.448,0.158,4.646,0.319,6.444,1.873
		c0.439,0.38,0.79,0.828,1.001,1.375c0.345,0.892,0.125,1.742-0.582,2.229c-0.742,0.513-1.665,0.442-2.373-0.18
		c-0.742-0.651-1.069-1.527-1.274-2.451c-0.104-0.464-0.311-0.775-0.746-1.004C122.313,57.914,121.442,57.494,120.684,56.515z"/>
	<path fill-rule="evenodd" clip-rule="evenodd" fill="#070404" d="M119.425,63.227c2.726,0.225,5.341,0.882,7.863,1.896
		c2.149,0.865,4.312,1.708,6.281,2.955c0.299,0.188,0.866,0.413,0.631,0.823c-0.258,0.448-0.768,0.13-1.112-0.077
		c-4.182-2.523-8.695-4.23-13.394-5.497C119.603,63.302,119.515,63.26,119.425,63.227z"/>
	<path fill-rule="evenodd" clip-rule="evenodd" fill="#070404" d="M132.514,71.35c-2.096-0.637-3.971-1.806-5.984-2.639
		c-2.039-0.841-4.063-1.714-6.071-2.631c4.306,1.052,8.398,2.619,12.201,4.896C132.611,71.101,132.562,71.225,132.514,71.35z"/>
	<path fill-rule="evenodd" clip-rule="evenodd" fill="#070404" d="M112.706,53.366c-1.018-1.001-2.068-1.93-2.928-3.037
		c-0.223-0.287-0.472-0.592-0.171-0.971c0.313-0.395,0.72-0.375,1.12-0.178c0.204,0.1,0.41,0.246,0.548,0.424
		C112.133,50.707,112.718,51.921,112.706,53.366z"/>
	<path fill-rule="evenodd" clip-rule="evenodd" fill="#070404" d="M121.097,68.962c0.645,0.004,1.212,0.275,1.791,0.484
		c2.253,0.817,4.452,1.758,6.492,3.025c0.346,0.215,1.007,0.467,0.766,0.886c-0.205,0.355-0.74-0.106-1.082-0.307
		C126.481,71.542,123.906,70.027,121.097,68.962z"/>
</g>
</svg>
