<?xml version="1.0" encoding="utf-8"?>
<!-- Generator: Adobe Illustrator 16.0.0, SVG Export Plug-In . SVG Version: 6.00 Build 0)  -->
<!DOCTYPE svg PUBLIC "-//W3C//DTD SVG 1.1//EN" "http://www.w3.org/Graphics/SVG/1.1/DTD/svg11.dtd">
<svg version="1.1" id="flag-icon-css-am" xmlns="http://www.w3.org/2000/svg" xmlns:xlink="http://www.w3.org/1999/xlink" x="0px"
	 y="0px" width="150px" height="150px" viewBox="0 0 150 150" enable-background="new 0 0 150 150" xml:space="preserve">
<path fill-rule="evenodd" clip-rule="evenodd" d="M73.332,52.421c-0.802,7.436-1.589,14.737-2.391,22.177
	c1.199-0.407,2.279-0.774,3.411-1.159c-0.169-7.018-0.337-14.007-0.507-21.062c1.629-0.188,3.194-0.369,4.883-0.563
	c-0.591,6.944-1.175,13.805-1.77,20.793c1.107-0.354,2.133-0.664,3.139-1.027c0.136-0.05,0.253-0.378,0.243-0.57
	c-0.242-4.457-0.506-8.913-0.761-13.369c-0.109-1.925-0.208-3.85-0.317-5.879c1.538-0.159,3.057-0.317,4.691-0.487
	c-0.376,6.501-0.747,12.918-1.125,19.455c1.198-0.405,2.301-0.778,3.445-1.165c-0.585-6.123-1.165-12.191-1.751-18.336
	c1.63-0.162,3.2-0.317,4.866-0.482c-0.318,6.023-0.633,11.982-0.954,18.073c0.988-0.348,1.852-0.635,2.696-0.97
	c0.127-0.05,0.243-0.336,0.229-0.501c-0.335-3.966-0.689-7.931-1.038-11.896c-0.137-1.558-0.27-3.116-0.411-4.751
	c1.67-0.162,3.269-0.317,4.969-0.483c-0.466,5.633-0.927,11.218-1.396,16.902c1.023-0.363,1.959-0.669,2.866-1.041
	c0.151-0.063,0.273-0.42,0.26-0.631c-0.146-2.19-0.32-4.379-0.491-6.567c-0.213-2.718-0.432-5.436-0.646-8.153
	c-0.013-0.164-0.001-0.33-0.001-0.567c1.669-0.173,3.31-0.343,5.032-0.521c-0.499,5.182-0.99,10.283-1.492,15.495
	c1.034-0.393,1.964-0.714,2.858-1.114c0.157-0.071,0.247-0.482,0.229-0.726c-0.192-2.598-0.415-5.194-0.628-7.79
	c-0.159-1.943-0.317-3.886-0.481-5.909c1.863-0.234,3.688-0.462,5.598-0.702c-0.747,4.737-1.48,9.394-2.237,14.195
	c0.948-0.372,1.796-0.675,2.608-1.052c0.145-0.067,0.203-0.443,0.203-0.677c0.005-3.886,0.008-7.771-0.028-11.657
	c-0.007-0.664,0.104-0.972,0.858-1.042c1.244-0.116,2.474-0.391,3.848-0.623c-0.728,4.303-1.446,8.556-2.191,12.967
	c0.887-0.385,1.681-0.697,2.435-1.087c0.151-0.078,0.208-0.451,0.211-0.689c0.032-3.523,0.063-7.047,0.054-10.57
	c-0.001-0.565,0.154-0.783,0.717-0.897c1.344-0.273,2.67-0.633,4.124-0.986c-0.733,3.938-1.456,7.825-2.211,11.88
	c0.857-0.404,1.616-0.726,2.331-1.125c0.153-0.087,0.205-0.454,0.208-0.694c0.043-3.112,0.069-6.226,0.098-9.339
	c0.003-0.287,0.001-0.573,0.001-0.868c1.517-0.479,2.98-0.94,4.588-1.447c-0.672,3.64-1.325,7.178-2.013,10.9
	c0.89-0.472,1.669-0.855,2.408-1.305c0.128-0.078,0.116-0.437,0.115-0.665c-0.002-2.799,0.009-5.599-0.042-8.398
	c-0.011-0.604,0.2-0.834,0.729-1.014c1.179-0.4,2.336-0.865,3.597-1.339c-0.56,3.273-1.104,6.462-1.679,9.814
	c0.834-0.535,1.534-0.95,2.188-1.429c0.161-0.118,0.241-0.448,0.234-0.677c-0.076-2.388-0.162-4.775-0.284-7.161
	c-0.028-0.554,0.098-0.856,0.651-1.076c1.229-0.487,2.423-1.063,3.752-1.656c-0.684,2.967-1.346,5.841-2.058,8.927
	c0.87-0.682,1.593-1.218,2.271-1.806c0.142-0.122,0.16-0.432,0.164-0.657c0.033-2.026,0.067-4.054,0.062-6.081
	c-0.001-0.483,0.166-0.736,0.592-0.941c1.036-0.5,2.049-1.049,3.206-1.647c-0.465,2.377-0.906,4.634-1.351,6.906
	c1.162-0.498,1.776-1.396,1.785-2.586c0.01-1.352,0.034-2.703,0.016-4.055c-0.005-0.418,0.141-0.644,0.5-0.845
	c1.043-0.585,2.062-1.213,3.213-1.896c-0.383,1.797-0.736,3.458-1.124,5.28c0.77-0.709,1.369-1.299,1.353-2.279
	c-0.007-0.405,0.101-0.812,0.144-1.219c0.256-2.382,0.487-2.71,2.769-3.84c-0.165,0.949-0.324,1.862-0.483,2.775
	c0.083,0.037,0.166,0.074,0.249,0.111c0.312-0.614,0.624-1.227,0.935-1.841c0.011-0.021,0.011-0.047,0.012-0.071
	c0.014-1.682,1.067-2.633,2.519-3.453c-0.566,1.876-1.095,3.672-1.665,5.455c-0.067,0.211-0.341,0.385-0.557,0.514
	c-1.046,0.626-2.104,1.232-3.105,1.983c0.954-0.179,1.909-0.358,3.023-0.567c-0.339,0.896-0.614,1.7-0.957,2.475
	c-0.077,0.173-0.377,0.273-0.595,0.354c-1.627,0.601-3.259,1.187-4.889,1.78c-0.283,0.104-0.562,0.22-0.812,0.456
	c1.746-0.107,3.493-0.215,5.418-0.333c-0.456,1.009-0.834,1.928-1.298,2.802c-0.092,0.172-0.512,0.203-0.788,0.238
	c-2.487,0.318-4.976,0.623-7.477,1.047c2.396,0.287,4.793,0.575,7.289,0.874c-0.537,1.017-1.02,1.983-1.562,2.915
	c-0.092,0.157-0.439,0.246-0.662,0.234c-2.818-0.149-5.636-0.323-8.453-0.492c-0.385-0.022-0.768-0.048-1.182,0.057
	c2.964,0.839,5.928,1.678,8.997,2.547c-0.642,1.019-1.236,2.002-1.887,2.946c-0.094,0.135-0.476,0.149-0.699,0.102
	c-3.606-0.767-7.208-1.552-10.812-2.332c-0.139-0.03-0.28-0.046-0.473,0.063c3.42,1.52,6.842,3.038,10.346,4.594
	c-0.545,0.72-1.022,1.416-1.582,2.036c-0.13,0.145-0.568,0.102-0.828,0.023c-4.124-1.257-8.242-2.532-12.363-3.803
	c-0.246-0.076-0.496-0.144-0.793-0.098c3.995,2.05,7.99,4.1,12.105,6.211c-0.547,0.6-1.032,1.184-1.584,1.694
	c-0.116,0.107-0.496-0.011-0.728-0.096c-4.64-1.694-9.273-3.398-13.91-5.1c-0.264-0.097-0.53-0.182-0.868-0.119
	c4.398,2.51,8.797,5.02,13.308,7.593c-0.564,0.51-1.045,1.003-1.595,1.403c-0.155,0.114-0.534,0.015-0.77-0.085
	c-5.189-2.203-10.373-4.42-15.558-6.633c-0.26-0.111-0.522-0.215-0.841-0.213c4.841,2.999,9.682,5.998,14.619,9.058
	c-0.653,0.474-1.227,0.939-1.855,1.313c-0.176,0.104-0.544-0.009-0.773-0.122c-5.181-2.572-10.354-5.159-15.529-7.741
	c-0.253-0.126-0.513-0.238-0.854-0.218c4.893,3.237,9.783,6.476,14.753,9.765c-0.625,0.411-1.146,0.799-1.712,1.103
	c-0.175,0.094-0.503,0.027-0.706-0.074c-5.022-2.509-10.038-5.032-15.055-7.552c-0.984-0.495-1.973-0.984-3.034-1.353
	c5.292,3.563,10.584,7.127,15.989,10.768c-0.626,0.38-1.148,0.751-1.72,1.016c-0.194,0.089-0.544-0.036-0.773-0.157
	c-5.877-3.115-11.749-6.242-17.622-9.365c-0.245-0.131-0.497-0.249-0.817-0.247c5.535,3.74,11.071,7.48,16.675,11.268
	c-0.552,0.315-1.01,0.641-1.517,0.841c-0.233,0.093-0.604,0.017-0.845-0.111c-6.253-3.334-12.496-6.686-18.742-10.031
	c-0.225-0.121-0.459-0.224-0.752-0.226c5.845,3.936,11.69,7.871,17.642,11.879c-0.656,0.356-1.222,0.709-1.827,0.968
	c-0.185,0.079-0.502-0.051-0.718-0.164c-6.731-3.511-13.458-7.031-20.186-10.549c-0.163-0.086-0.335-0.156-0.574-0.111
	c6.168,4.086,12.335,8.171,18.631,12.341c-0.701,0.358-1.294,0.714-1.929,0.956c-0.204,0.078-0.54-0.107-0.785-0.233
	c-6.495-3.335-12.987-6.68-19.479-10.021c-0.998-0.514-1.997-1.025-3.06-1.428c6.563,4.467,13.125,8.935,19.796,13.476
	c-0.719,0.357-1.319,0.706-1.96,0.947c-0.209,0.078-0.545-0.077-0.783-0.201c-7.393-3.858-14.78-7.727-22.17-11.592
	c-0.208-0.109-0.422-0.207-0.713-0.184c6.746,4.506,13.491,9.013,20.355,13.599c-0.869,0.418-1.624,0.823-2.416,1.131
	c-0.199,0.077-0.535-0.128-0.782-0.255c-7.604-3.921-15.204-7.849-22.805-11.775c-0.298-0.153-0.6-0.301-0.966-0.348
	c7.038,4.633,14.075,9.266,21.228,13.975c-0.983,0.467-1.867,0.916-2.78,1.294c-0.183,0.076-0.497-0.082-0.72-0.195
	c-7.644-3.896-15.283-7.799-22.924-11.7c-0.333-0.17-0.67-0.333-1.072-0.372c7.025,4.64,14.051,9.28,21.159,13.975
	c-1.045,0.506-1.962,0.98-2.909,1.385c-0.21,0.091-0.554-0.004-0.788-0.114c-7.802-3.682-15.597-7.375-23.394-11.066
	c-0.541-0.257-1.085-0.508-1.69-0.661c7.135,4.664,14.27,9.328,21.491,14.049c-1.089,0.639-2.083,1.252-3.114,1.796
	c-0.186,0.098-0.546-0.051-0.791-0.162c-8.057-3.702-16.11-7.413-24.164-11.121c-0.17-0.078-0.343-0.15-0.589-0.099
	c7.127,4.672,14.254,9.344,21.462,14.068c-0.961,0.703-1.834,1.37-2.745,1.981c-0.156,0.104-0.498,0.035-0.707-0.06
	c-5.735-2.578-11.465-5.169-17.195-7.76c-2.48-1.122-4.958-2.248-7.439-3.369c-0.187-0.085-0.385-0.144-0.632-0.104
	c7.332,4.762,14.665,9.524,22.068,14.332c-1.02,0.854-1.962,1.673-2.95,2.435c-0.152,0.117-0.538,0.029-0.771-0.07
	c-5.975-2.571-11.944-5.156-17.914-7.739c-2.455-1.063-4.908-2.125-7.364-3.186c-0.214-0.093-0.435-0.169-0.726-0.121
	c7.5,4.916,15,9.831,22.587,14.805c-0.973,0.919-1.895,1.817-2.861,2.666c-0.118,0.104-0.495-0.014-0.714-0.112
	c-5.053-2.275-10.101-4.562-15.15-6.845c-3.512-1.589-7.025-3.176-10.538-4.763c-0.171-0.077-0.346-0.145-0.709-0.294
	c0.278,0.444,0.458,0.732,0.616,0.986c-2.816,2.538-5.771,4.932-8.396,7.645c-2.623,2.712-4.914,5.745-7.35,8.636
	c-0.01-0.126-0.038-0.326-0.038-0.527c-0.004-1.979,0.012-3.959-0.015-5.938c-0.006-0.502,0.153-0.838,0.514-1.187
	c4.104-3.969,8.542-7.525,13.218-10.791c0.403-0.281,0.541-0.582,0.552-1.063c0.227-9.723,0.469-19.445,0.724-29.167
	c0.007-0.248,0.132-0.595,0.319-0.72c2.224-1.489,4.469-2.945,6.711-4.407c0.035-0.022,0.092-0.011,0.218-0.022
	c-1.401,11.106-2.801,22.193-4.223,33.468c1.255-1.008,2.398-1.906,3.509-2.843c0.142-0.12,0.15-0.439,0.16-0.67
	c0.185-4.243,0.362-8.486,0.538-12.729c0.24-5.786,0.476-11.572,0.729-17.358c0.009-0.202,0.13-0.487,0.289-0.583
	c2.066-1.233,4.149-2.439,6.405-3.757c-1.356,10.716-2.688,21.241-4.047,31.987c0.817-0.594,1.439-1.155,2.156-1.544
	c1.245-0.673,1.573-1.627,1.604-3.029c0.198-8.999,0.514-17.995,0.776-26.992c0.013-0.461,0.132-0.734,0.57-0.949
	c1.966-0.967,3.913-1.974,5.996-3.031c-1.295,10.18-2.571,20.209-3.872,30.432c1.277-0.819,2.426-1.538,3.545-2.301
	c0.143-0.098,0.173-0.427,0.178-0.65c0.209-8.807,0.429-17.612,0.585-26.419c0.018-0.972,0.305-1.447,1.205-1.789
	c1.862-0.708,3.679-1.534,5.669-2.378c-1.317,9.726-2.611,19.273-3.929,29.001c0.985-0.561,1.821-1.099,2.71-1.522
	c0.781-0.372,1.075-0.858,1.091-1.76c0.16-8.348,0.387-16.695,0.564-25.043c0.013-0.644,0.228-0.926,0.821-1.112
	c1.808-0.57,3.599-1.194,5.537-1.845c-1.185,9.152-2.351,18.153-3.534,27.292c1.27-0.647,2.434-1.219,3.567-1.845
	c0.154-0.086,0.218-0.445,0.221-0.68c0.098-8.011,0.194-16.023,0.25-24.035c0.004-0.671,0.212-0.921,0.828-1.052
	c1.594-0.34,3.177-0.729,4.9-1.131c-1.056,8.533-2.094,16.922-3.151,25.464c1.198-0.539,2.292-1.007,3.352-1.538
	c0.146-0.072,0.181-0.461,0.183-0.704c0.038-5.455,0.067-10.909,0.091-16.363c0.01-2.29,0.001-4.58,0.001-6.934
	c1.716-0.297,3.363-0.581,5.095-0.881c-0.789,7.884-1.565,15.648-2.356,23.559c1.187-0.421,2.27-0.781,3.327-1.206
	c0.138-0.055,0.208-0.44,0.201-0.67c-0.111-4.028-0.24-8.057-0.364-12.085c-0.096-3.11-0.192-6.223-0.285-9.334
	c-0.002-0.093,0.02-0.187,0.04-0.349C69.386,52.968,71.289,52.704,73.332,52.421z"/>
</svg>
