<?xml version="1.0" encoding="utf-8"?>
<!-- Generator: Adobe Illustrator 16.0.0, SVG Export Plug-In . SVG Version: 6.00 Build 0)  -->
<!DOCTYPE svg PUBLIC "-//W3C//DTD SVG 1.1//EN" "http://www.w3.org/Graphics/SVG/1.1/DTD/svg11.dtd">
<svg version="1.1" id="flag-icon-css-am" xmlns="http://www.w3.org/2000/svg" xmlns:xlink="http://www.w3.org/1999/xlink" x="0px"
	 y="0px" width="150px" height="150px" viewBox="0 0 150 150" enable-background="new 0 0 150 150" xml:space="preserve">
<g>
	<rect x="66.539" y="73.287" fill="#14100D" width="60.334" height="23.703"/>
	<path fill="#14100D" d="M93.55,90.44c-1.775-0.42-2.809,1.12-4.402,1.234c1.475,0.345,2.859,0.848,4.36,0.76
		c1.026-0.063,2.178,0.538,2.963-0.64c0.862,0.862,1.961,0.703,3.024,0.71c2.017,0.014,4.034,0.072,6.05,0.028
		c0.803-0.019,1.631-0.4,1.835-1.221c0.159-0.643-0.788-0.429-1.08-0.816c1.495-0.261,3.065,0.291,4.52-0.421
		c-0.255,1.58-2.256,0.808-2.835,2.122c0.27,0.141,0.527,0.395,0.751,0.367c3.637-0.45,7.294-0.319,10.931-0.197
		c2.103,0.069,3.775-0.564,5.299-1.822c0.625-0.516,1.715-1.08,1.121-2.043c-0.414-0.675-1.416-0.432-2.171-0.082
		c-2.124,0.987-3.536-1.173-5.427-1.262c-0.055-0.003-0.203-0.56-0.109-0.771c0.748-1.72-0.196-2.958-1.243-4.053
		c-0.83-0.867-1.058-1.705-0.963-2.896c0.261-3.248-0.312-6.272-2.979-8.542c-0.497-0.421-0.889-1.007-1.624-0.478
		c-0.657,0.473-0.198,1.008-0.087,1.551c0.591,2.885,1.591,5.821,0.053,8.666c-0.745,1.378-0.785,2.536,0.081,3.781
		c-0.525,0.49-1.118,0.113-1.681,0.128c0.396-1.058-0.682-2.055-0.083-3.152c1.009-1.852,1.426-3.808,1.119-5.949
		c-0.142-0.988-0.249-1.98-0.402-2.973c-0.215-1.39-0.349-2.882,1.26-3.71c0.054,0.038,0.11,0.076,0.162,0.112
		c-0.063-0.03-0.123-0.059-0.185-0.09c1.318-0.87,0.728-2.297,1.005-3.469c0.579-2.455,0.235-5.005-0.13-7.356
		c-0.463-2.953-1.107-5.704-0.427-8.187c1.702,0.433,3.448,0.759,5.001,1.978c-1.05,0.342-2.18-0.131-3.021,0.844
		c4.746,1.42,8.332,4.073,9.739,9.111c0.575-2.616-0.429-4.606-2.046-6.41c-0.357-0.399-1.241-1-0.803-1.319
		c2.04-1.483-0.068-2.166-0.621-2.688c-2.554-2.41-5.798-2.963-9.192-2.886c0.256-0.767,0.347-1.491-0.468-2.016
		c-0.767-0.496-0.457-0.989,0.022-1.475c3.697-1.45,6.817,0.053,9.483,2.306c4.535,3.832,6.185,9.047,6.227,14.854
		c0.011,1.271-0.159,2.365,1.587,3.031c11,4.196,13.209,15.407,9.701,24.737c-0.554,1.466-0.929,2.415,0.719,3.162
		c0.034,0.939-1.386,0.796-1.304,1.834c0.688,0.816,1.784-0.203,2.584,0.494c-0.078,0.654-0.669,0.867-1.124,1.108
		c-4.455,2.363-8.561,5.339-13.149,7.46c-0.19,0.088-0.505,0.175-0.53,0.305c-0.398,2.118-0.758,4.226-1.478,6.286
		c-0.305,0.873,0.651,1.797,1.264,2.594c2.131,2.78,4.254,5.564,6.333,8.381c0.345,0.468,1.211,0.87,0.736,1.612
		c-0.35,0.546-1.077,0.203-1.624,0.203c-12.715,0.021-25.429,0.042-38.143-0.019c-1.466-0.006-2.36,0.46-3.23,1.609
		c-3.569,4.725-7.234,9.376-10.873,14.048c-0.562,0.721-1.024,1.661-2.245,1.022c-1.266-0.663-0.402-1.51-0.177-2.221
		c1.371-4.332,2.74-8.67,4.243-12.957c0.492-1.404,0.284-1.737-1.205-1.713c-4.767,0.078-9.535,0.05-14.302,0.018
		c-0.642-0.005-1.385,0.433-1.685-0.961c-0.234-1.086-1.976-0.834-2.553-0.033c-0.76,1.057-1.628,1.005-2.625,1.006
		c-6.069,0.003-12.136,0.025-18.203-0.025c-0.608-0.004-1.984,0.698-1.603-1.079c0.091-0.426-0.474-0.378-0.824-0.419
		c-0.957-0.111-1.411,0.421-1.814,1.199c-1.828,3.524-3.71,7.02-5.557,10.536c-2.551,4.856-5.084,9.721-7.633,14.577
		c-0.224,0.429-0.252,1.121-0.861,1.136c-0.684,0.018-0.609-0.66-0.72-1.128c-0.08-0.342-0.119-0.762-0.65-0.56
		c-1.591,0.605-1.379-0.654-1.493-1.481c-1.107-8.014-2.065-16.043-2.639-24.115c-0.437-6.17-0.836-12.341-1.251-18.495
		c-0.409-0.07-0.567,0.129-0.678,0.423c-0.169,0.447-0.168,1.163-0.843,1.059c-0.762-0.114-0.633-0.879-0.64-1.415
		c-0.034-2.382-0.075-4.767-0.015-7.146c0.211-8.237,0.707-16.448,2.469-24.527c0.034-0.11,0.068-0.221,0.103-0.333
		c-0.031-0.38-0.062-0.761-0.091-1.141c0.883-0.704,0.34-1.393-0.028-2.075c-0.404-0.745-0.882-1.456-1.23-2.225
		c-1.524-3.381-0.887-7.626,1.415-9.657c-1.12,3.098-2.016,6.193,0.184,9.211c0.171-0.705,0.123-1.403,0.086-2.102
		c-0.2-3.739,1.417-6.712,4.227-7.448c3.059-0.801,6.098-0.549,9.036,0.658c0.438,0.179,0.859,0.784,1.323,0.29
		c0.55-0.588-0.057-1.022-0.419-1.449c-0.274-0.324-0.704-0.668-0.388-1.109c0.269-0.373,0.783-0.298,1.208-0.213
		c1.715,0.343,3.258,1.085,4.697,2.059c0.332,0.224,0.671,0.764,1.071,0.306c0.473-0.543-0.051-0.847-0.47-1.168
		c-1.808-1.389-3.845-2.327-6.078-2.602c-1.025-0.125-2.891-1.661-3.023,1.109c-0.017,0.326-0.598,0.207-0.954,0.137
		c-0.561-0.109-1.133-0.158-1.695-0.267c-3.395-0.657-6.071,1.106-8.826,2.606c0.042-0.209,0.023-0.461,0.135-0.622
		c2.947-4.222,10.458-6.722,15.256-5.097c0.574,0.195,1.249,0.787,1.701-0.052c0.41-0.76-0.533-0.88-0.853-1.275
		c-1.864-2.299-3.26-4.952-3.108-7.837c0.188-3.542,1.94-6.547,4.978-8.653c3.22-2.233,6.679-3.639,10.688-3.353
		c0.824,0.058,1.939,0.293,1.377-1.247c-0.464-2-0.945-3.995-1.386-5.999c-0.166-0.753-0.515-1.51-0.136-2.302
		c0.238,0.006,0.477,0.012,0.715,0.018c0.485,1.895,0.97,3.788,1.455,5.682c0.199,2.457,0.873,4.787,1.485,7.173
		c1.658,6.465,3.875,12.818,4.569,19.512c0.049,0.473,0.378,0.754,0.773,0.968c0.531,0.771,0.996,1.355,1.38-0.126
		c0.248-0.954,0.648-1.873,1.038-2.782c0.348-0.815,0.784-1.044,1.204-0.023c0.997,4.349,2.024,8.693,2.976,13.054
		c0.382,1.75,1.262,2.007,2.692,1.161c1.847-0.028,2.062-0.991,1.665-2.58c-1.701-6.789-3.322-13.597-4.977-20.396
		c-0.622-2.558-1.259-5.112-2.007-8.143c-1.079,2.44-1.936,4.382-2.822,6.387c-0.714-0.5-0.796-1.142-1.031-1.724
		c-2.889-7.157-5.801-14.304-8.708-21.454c0.09-1.115-0.478-1.968-1.176-3.208c-0.07,1.149-0.115,1.892-0.161,2.633
		c-1.182-0.697-0.897-2.015-1.2-3.045c-0.75-2.555-1.344-5.158-1.916-7.759c-0.17-0.774-0.631-1.348-1.255-2.049
		c1.035-0.167,1.727-0.613,2.131,0.603c2.359,7.102,5.485,13.907,8.159,20.888c0.516,1.345,1.063,2.676,1.596,4.012
		c0.13,0.796,0.316,1.559,1.171,1.912c0.551,2.07,0.945,4.207,2.46,6.313c0.688-1.706,1.384-2.991,1.694-4.363
		c0.185-0.82,0.47-1.488,1.183-1.451c0.689,0.037,0.639,0.943,0.842,1.534c1.021,2.96,1.234,6.138,2.45,9.042
		c0.827,5.109,2.383,10.059,3.341,15.133c0.435,2.298,1.629,2.386,3.379,1.846c1.013-0.311,2.277-0.374,2.964-1.032
		c0.909-0.873-0.338-1.954-0.419-2.986c-0.037-0.503-0.225-1.055,0.253-1.401c0.476-0.342,0.965-0.016,1.416,0.191
		c0.683,0.313,1.149,1.082,2.312,0.954c-0.777-2.153-1.418-4.269-2.295-6.284c-1.597-3.67-2.763-7.583-5.598-10.604
		c0.14-0.294,0.281-0.587,0.42-0.88c2.43,0.288,3.825,2.296,5.915,3.644c-0.037-0.7-0.273-1.278,0.126-1.728
		c0.844,1.437,1.461,2.918,1.124,4.745c-0.968-0.924-1.769-1.724-2.613-2.473c-0.27-0.238-0.701-0.3-0.984-0.013
		c-0.332,0.336,0.007,0.575,0.191,0.884c2.806,4.695,3.857,9.973,5.199,15.185c-0.951,0.244-1.291-0.87-2.249-0.489
		c0.774,2.436,1.452,4.901,2.936,7.054c0.595,0.861,1.285,1.745,2.445,1.314c1.225-0.451,1.314,0.055,1.285,1.044
		c-0.181,6.477,3.738,10.851,7.959,14.935c2.444,2.365,3.272,1.945,4.127-1.19c0.278-1.017,0.036-1.452-0.826-1.838
		c-0.728-0.326-1.356-0.814-1.755-1.542c0.147-0.17,0.292-0.34,0.436-0.514c0.894,0.857,1.821,1.842,3.182,1.236
		c0.88-0.393,1.851-0.982,1.424-2.3c2.518-2.083,2.989-5.179,3.982-8.02c0.444-1.272-0.77-0.551-1.064-0.926
		c-0.102-0.224-0.173-0.621-0.31-0.645c-0.507-0.088-0.594,0.401-0.776,0.733c-1.146-1.24,0.042-1.869,0.786-2.314
		c2.317-1.385,3.159-3.338,2.798-5.954c-0.322-2.333-0.577-4.677-0.82-7.021c-0.235-2.283-0.819-4.43-1.654-6.598
		c-0.964-2.503-2.742-4.525-3.631-7.025c0.799-0.024,1.071,0.592,1.424,1.142c2.248,3.507,3.844,7.289,4.662,11.374
		c0.982,4.92,1.145,9.854-0.031,14.777c-0.321,1.465-0.893,2.882-0.886,4.413c-0.028,0.127-0.019,0.249,0.037,0.368
		c0.011,0.279,0.022,0.559,0.032,0.837c-0.076,0.402,0.002,0.735,0.407,0.922l-0.009-0.01c1.082,1.748,3.055,2.487,4.414,3.979
		c2.79,3.061,4.247,7.011,7.02,10.054c-1.188,0.206-2.374,0.415-3.561,0.623c-0.185-0.429-0.368-0.859-0.553-1.288
		c0.036-0.463,0.055-0.92-0.392-1.229l0.006,0.023c-0.321-1.754-1.395-3.136-2.289-4.604c-0.442-0.729-1.389-1.167-1.941-1.063
		c-3.647,0.686-6.034,3.372-8.576,5.771c-0.232,0.22-0.089,0.599,0.242,0.68c1.077,0.27-0.219,0.755,0.113,1.076
		c-0.285,0.124-0.567,0.247-0.854,0.369c-0.299-0.04-0.597-0.08-0.897-0.122l-0.062-0.078c-0.135-0.272-0.333-0.311-0.583-0.158
		c-0.357,0.011-0.717,0.021-1.074,0.028c-0.447-0.279-0.894-0.358-1.336,0.01c-0.321,0.002-0.644,0.009-0.965,0.013
		c-0.841-0.402-1.685-0.377-2.532-0.013c-0.14,0.062-0.28,0.124-0.422,0.188c1.961-1.511,1.398-2.636-0.188-4.236
		c-3.548-3.576-6.033-7.81-6.345-13.03c-0.023-0.414,0.026-1.077-0.562-0.901c-1.838,0.552-2.473-0.848-3.319-1.901
		c-0.314-0.39-0.556-1.03-1.123-0.694c-0.594,0.352-0.016,0.876,0.079,1.331c1.472,6.983,4.508,13.269,8.512,19.126
		c-1.274,0.141-2.55,0.279-3.825,0.418c-1.003-3.421-2.374-6.704-3.741-9.988c0.063-0.409-0.007-0.763-0.407-0.978
		c-0.024-0.082-0.046-0.164-0.062-0.248c-0.729-1.966-0.811-4.219-2.534-5.746c0.069-1.034-0.333-1.906-0.873-2.85
		c-1.366,1.61,0.083,2.106,0.897,2.827c-0.034,1.802-1.433,3.816,0.824,5.261c-0.894,2.229-0.163,4.968-2.484,6.834
		c-0.659,0.529,0.258,2.15,0.6,3.229c0.125,0.393,0.638,0.258,0.949,0.082c1.679-0.944,1.705,0.175,1.836,1.374
		c0.332,3.032,0.74,6.059,1.117,9.089c0.879-1.293,1.918-1.503,3.211-1.249c0.367,0.07,0.802-0.218,1.207-0.34 M67.652,78.786
		l-0.014,0.015c0.897,0.046,1.492-0.366,1.809-1.197c1.185-1.446-0.349-3.301,0.716-4.763c-1.839-1.008-1.279-2.199-0.539-3.708
		c0.703-1.435-1.925-1.134-1.732-2.541c0.139-1.024,1.507-1.964,0.145-3.095c-0.923-0.766-1.753-1.649-2.907-2.092
		c-0.687,0.902,0.449,1.523,0.176,2.291c-0.333,0.931-4.067,2.659-5.562,2.721c-1.899,0.08-1.222-1.566-1.744-2.403
		c-0.325-0.52-0.109-1.478-0.927-1.546c-0.767-0.065-1.292,0.554-1.667,1.207c-0.788,1.376-1.699,2.704-2.312,4.156
		c-0.676,1.607-1.686,2.364-3.441,2.383c-3.463,0.038-6.926,0.264-10.389,0.259c-1.308-0.002-2.091,0.472-2.428,1.626
		c-0.802,2.743-1.541,5.463-1.185,8.429c0.194,1.613,1.062,3.132,0.706,4.813c-0.761-0.357-1.155-0.982-1.214-1.795
		c-0.097-1.32-0.149-2.646-0.221-3.968c0.161-1.145,0.48-2.452-0.546-3.229c-0.893-0.674-1.963,0.073-2.812,0.507
		c-1.821,0.928-2.953,4.152-2.484,6.643c0.468,2.478,2.524,4.987,4.566,5.114c1.196,0.073,2.766,0.904,3.634-0.815
		c0.769-0.098,0.773,0.729,1.222,1.015c0.541,1.507,1.188,3.207,2.615,3.788c1.208,0.491,1.989-1.334,3.157-1.805
		c0.265-0.108,0.522-0.236,0.783-0.355c0.135,0.323,0.179,0.766,0.42,0.945c0.904,0.674,2.396,3.084,2.419,4.422
		c1.609-1.457,2.028-4.374,4.885-3.577c5.2,0.017,10.398,0.047,15.598,0.033c0.557-0.002,1.423,0.337,1.509-0.703
		c0.049-0.582-0.062-1.199-0.59-1.551c-0.642-0.426-1.267-0.07-1.799,0.276c-1.602,1.04-2.283,0.576-2.529-1.268
		c-0.188-1.417-0.701-2.793-1.064-4.188c-0.171-0.661-0.402-1.27-1.235-1.26c-2.612,0.03-5.11-1.657-7.794-0.503
		c1.08-1.841,2.636-1.809,4.376-1.136c3.471,1.343,5.205,0.877,6.686-1.776l0.027-0.045c0.305,0.021,0.44-0.172,0.525-0.426
		l0.088-0.056C67.207,79.692,67.584,79.438,67.652,78.786z M52.416,58.801c0.164-0.042,0.328-0.082,0.489-0.124
		c0.95-0.287,1.864-0.705,2.892-0.69c0.568,0.009,1.1-0.251,0.864-0.883c-0.544-1.455-0.548-3.103-1.5-4.641
		c-0.644,1.616-1.125,3.019-1.757,4.348c-0.49,1.032-1.074,1.117-1.416-0.152c-1.626-7.448-3.549-14.821-5.777-22.27
		c1.096,1.441-3.444,0.344-0.855,2.393c-0.21,0.181-0.487,0.323-0.619,0.549c-0.735,1.248-1.697,2.439-2.093,3.792
		c-0.922,3.151-1.382,6.444-2.415,9.554c-0.416,1.255-0.875,2.527-1.088,3.801c-0.341,2.041,0.458,3.993,0.098,6.258
		c-0.547,3.44,0.198,3.549,3.991,3.283c0.719-0.05,1.446-0.039,2.163,0.022c0.864,0.072,1.583-0.164,2.097-0.855
		c1.342-1.808,3.13-3.107,4.938-4.389L52.416,58.801z M70.126,88.306c0.475,1.363,0.95,2.728,1.604,4.597
		c0.52-2.962-0.165-5.268-0.392-7.6c-0.046-0.457-0.266-1.025-0.764-0.726c-2.023,1.226-1.895-0.493-2.173-1.549
		c-0.667-2.538-0.644-2.548-2.635-0.922c-0.16,0.133-0.269,0.327-0.4,0.49c-0.181,0.118-0.441,0.193-0.527,0.359
		c-0.369,0.712,0.643,5.865,1.215,6.383c0.563,0.509,0.802-0.029,1.227-0.28C68.134,88.56,68.909,87.508,70.126,88.306z
		 M128.879,78.737c-0.233,1.438,0.094,2.695,1.157,3.731c0.547,0.532,1.053,0.635,1.658,0.048c1.013-0.976,1.462-3.645,0.772-4.818
		c-0.605-1.031-1.589-1.471-2.683-1.404c-1.455,0.092-0.216,1.438-0.785,1.991c-0.365-0.107-0.585-0.296-0.692-0.71
		c-0.548-2.127-2.424-3.375-3.676-4.972c-1.32-1.682-6.924,1.158-7.095,3.554c-0.164,2.298-0.815,4.836,1.543,6.602
		c0.166,0.125,0.416,0.339,0.399,0.481c-0.321,2.542,1.854,2.119,3.175,2.656c1.097,0.444,1.539,0.08,1.854-1.189
		C125.132,82.192,125.438,79.259,128.879,78.737z M73.488,101.537c-0.417-0.383-0.119-1.186-1.015-1.49
		c-3.329,6.193-6.682,12.396-9.991,18.617c-0.742,1.392,0.42,1.175,1.159,1.178c4.331,0.01,8.662,0.003,12.992-0.009
		c5.295-0.016,5.197-0.058,7.097-4.942c0.606-1.56,0.027-1.542-1.104-1.533c-2.599,0.018-5.199-0.011-7.803,0.004
		c-1.472,0.009-2.064-0.492-1.3-1.966c2.424-4.68,4.784-9.389,7.281-14.026c0.525-0.979,1.579-2.178,1.247-2.928
		c-0.408-0.919-1.95-0.343-2.989-0.357c-3.592-0.05-3.964,0.217-4.91,2.877c-0.363,1.025-0.055,1.996,0.075,2.986
		C74.078,100.523,74.215,101.232,73.488,101.537z M89.501,117.76c-0.106,0.326-0.214,0.651-0.322,0.977
		c-0.046,0.01-0.137,0.021-0.137,0.028c0.002,0.087,0.02,0.173,0.033,0.261c0.086,0.346,0.172,0.695,0.259,1.042
		c0.076,0.207,0.179,0.236,0.313,0.044c1.352-0.016,2.702-0.03,4.055-0.048c0.37,0.322,0.74,0.357,1.113,0.007
		c7.996-0.013,15.993-0.025,23.991-0.039c0.113,0.194,0.229,0.192,0.342,0c1.037-0.003,2.074-0.007,3.112-0.011
		c0.124,0.197,0.247,0.197,0.371-0.001c0.312,0,0.623,0,0.937-0.001c0.263,0.316,0.527,0.312,0.791,0c0.723,0,1.447,0,2.17-0.001
		c0.164,0.266,0.335,0.255,0.511,0.013c0.646-0.076,1.009-0.335,0.462-0.947c-2.768-3.098-4.896-6.679-7.545-9.884
		c-1.984-2.403-4.401-4.676-5.105-7.961c0.723-0.401,1.514-0.323,2.297-0.359c1.982-0.095,3.979,0.263,5.947-0.212
		c0.748-0.397,1.486-0.823,2.251-1.189c2.666-1.28,4.865-3.398,7.743-4.292c0.457-0.112,0.802-0.406,0.746-0.868
		c-0.051-0.436-0.522-0.41-0.855-0.394c-1.544,0.084-3.104-0.225-4.632,0.199c-0.294-0.004-0.589-0.011-0.882-0.015
		c-0.165,0-0.333,0-0.499,0c-0.268,0-0.534,0-0.802,0c-0.165,0-0.332,0-0.5,0c-0.266,0-0.534,0-0.801,0c-0.167,0-0.332,0-0.498,0
		c-0.268,0-0.536,0-0.803,0c-0.167,0-0.333,0-0.499,0c-0.268,0-0.534,0-0.802-0.001c-0.166,0.001-0.332,0.001-0.499,0.001
		c-0.267,0-0.535,0-0.802-0.001c-0.166,0.001-0.332,0.001-0.498,0.001c-0.268,0-0.535,0-0.802-0.001
		c-0.167,0.001-0.334,0.001-0.5,0.001c-1.517-0.01-3.044,0.096-4.548-0.054c-2.854-0.282-5.274,0.057-6.104,3.373
		c-0.014,0.063-0.104,0.101-0.14,0.162c-1.837,2.988-1.789,3.38,0.322,6.234c1.802,2.438,3.526,4.932,5.301,7.39
		c0.343,0.477,0.784,0.938,0.543,1.552c-0.253,0.645-0.895,0.64-1.482,0.638c-6.717-0.013-13.434-0.04-20.148-0.023
		c-1.553,0.004-1.978-0.579-1.338-1.99c0.743-1.644,1.465-3.297,2.185-4.951c2.425-5.578,2.423-5.633,8.523-5.504
		c1.798,0.037,3.06-0.18,3.896-2.089c0.46-1.048,0.779-2.216,1.448-3.169c0.965-1.381,0.212-1.551-0.974-1.551
		c-7.005,0.003-14.01,0.003-21.016-0.027c-0.793-0.002-1.407,0.118-1.772,0.9c-0.904,1.93-2.384,3.544-3.195,5.936
		c2.616,0,5.109,0.062,7.6-0.02c1.727-0.06,2.26,0.414,1.54,2.146c-1.399,3.366-2.564,6.833-4.006,10.179
		c-2.055,4.779-3.226,9.853-5.128,14.678c-0.414,1.052-1.196,2.02-0.915,3.346c3.479-4.409,6.192-9.299,9.17-14.011
		C89.117,117.423,89.31,117.591,89.501,117.76z M18.617,63.956c-1.124,0.379-1.079,1.466-1.302,2.314
		c-2.634,10.017-3.767,20.225-3.828,30.564c-0.002,0.352-0.256,0.893,0.485,1.029c0.421-1.131,0.838-2.267,1.269-3.397
		c0.2-0.527,0.583-0.874,1.148-0.666c0.465,0.171,0.502,0.659,0.457,1.109c-0.13,1.292-0.326,2.582-0.391,3.877
		c-0.612,12.293,0.488,24.501,1.886,36.691c0.306,2.662,0.653,5.32,0.981,7.977c1.452-1.817,2.399-3.665,3.369-5.5
		c4.438-8.396,8.754-16.857,13.262-25.22c3.111-5.77,6.163-11.571,9.335-17.307c0.928-1.679,0.485-2.122-1.233-1.96
		c-1.963,0.187-4.066,0.896-5.857,0.423c-2.742-0.728-3.244,1.304-3.863,2.677c-2.106,4.68-5.19,8.787-7.456,13.36
		c-0.198,0.4-0.553,0.62-1.073,0.52c-0.625-0.12-0.478-0.545-0.516-0.973c-0.917-10.516-0.614-20.957,2.913-31.008
		c1.274-3.634,2.3-6.862-0.831-9.956c-0.086-0.085-0.036-0.292-0.102-0.413c-1.994-3.646-3.995-7.289-5.994-10.931
		c-1.097,2.34-3.137,4.116-2.679,6.808L18.617,63.956z M47.072,119.851c0-0.009,0-0.02,0-0.029c1.949,0,3.906-0.105,5.844,0.026
		c2.845,0.195,4.464-0.403,6.023-3.467c3.588-7.04,7.416-13.979,11.123-20.972c0.592-1.112,0.748-1.447-0.706-1.431
		c-5.558,0.067-11.115,0.109-16.672,0.067c-1.281-0.01-1.881,0.484-2.474,1.574c-4.138,7.603-8.322,15.183-12.583,22.716
		c-0.866,1.53-0.145,1.525,1.003,1.52C41.445,119.84,44.259,119.851,47.072,119.851z M103.021,106.344
		c-0.399-0.84,0.945-1.831,0.147-2.164c-1.197-0.501-2.99-0.782-3.854,0.198c-0.825,0.938-1.57,2.347-1.419,3.854
		c0.011,0.101,0.194,0.241,0.313,0.265c1.995,0.408,3.762,1.629,5.905,1.543c1.019-0.04,1.795-1.186,2.754-0.747
		c1.029,0.472,1.384,0.098,1.949-0.668c0.678-0.923,0.038-1.479-0.324-2.115c-0.448-0.786-1.084-0.931-2.011-0.655
		C105.354,106.185,104.212,106.817,103.021,106.344z M131.478,86.213c-0.051-0.498-0.36-0.919-0.76-1.21
		c-0.907-0.657-1.888-1.22-2.788-1.888c-0.678-0.504-1.278-0.896-2.075-0.207c-0.774,0.666-0.94,1.502-0.5,2.322
		c0.782,1.444,1.697,2.816,2.566,4.213c0.306,0.489,0.745,0.732,1.271,0.371C130.442,88.956,131.115,87.712,131.478,86.213z
		 M33.719,46.614c0.023-0.228,0.129-0.503,0.063-0.728c-0.512-1.718-0.825-3.376,0.774-4.763c0.221-0.192,0.51-0.708,0.031-0.879
		c-1.448-0.516-0.333-1.052-0.034-1.526c1.345-2.137,3.743-2.657,6.056-3.638c-3.957-1.074-8.238,2.181-9.478,5.453
		c-0.149,0.395-0.374,1.141-0.271,1.197C32.799,42.81,31.86,45.492,33.719,46.614z M127.906,69.585
		c-1.092-0.024-1.844,0.208-1.997,1.324c-0.252,1.884,0.844,3.179,2.099,4.224c0.563,0.47,1.642,0.465,2.395-0.202
		c0.053-0.047,0.1-0.108,0.128-0.17c0.598-1.337-0.038-2.454-0.569-3.634C129.511,70.125,129.028,69.344,127.906,69.585z
		 M124.251,70.805c0.764-0.023,1.608-0.471,1.528-1.758c-0.127-2.059-1.828-2.245-3.291-2.341c-0.891-0.057-2.277-0.238-2.283,1.456
		C120.198,69.825,121.359,70.683,124.251,70.805z M135.308,75.204c0.318,2.442,1.658,4.815,0.86,7.29
		c-0.751,2.327-1.048,4.792-2.334,6.95C137.843,86.115,138.448,80.012,135.308,75.204z M71.281,58.522
		c-0.2,0.047-0.399,0.094-0.599,0.141c0.532,1.544,1.064,3.086,1.598,4.629C72.808,61.441,71.905,60.023,71.281,58.522z
		 M103.974,105.608c1.252-0.26,2.141-0.418,3.083-1.28C105.629,104.008,104.561,103.703,103.974,105.608z M110.241,109.395
		c0.177,0.732-1.044,1.344-0.215,2.089c0.339,0.304,0.83,0.032,1.087-0.338C111.703,110.291,110.977,109.9,110.241,109.395z
		 M134.663,74.153c0.013,0.049,0.009,0.119,0.04,0.142c0.044,0.033,0.114,0.031,0.175,0.045c-0.019-0.083-0.036-0.166-0.054-0.248
		C134.771,74.111,134.718,74.132,134.663,74.153z"/>
	<path fill="#9D2F19" d="M138.584,92.998c-1.646-0.747-1.271-1.693-0.719-3.162c3.508-9.33,1.299-20.542-9.701-24.737
		c-1.746-0.667-1.575-1.762-1.585-3.031c-0.045-5.806-1.692-11.022-6.228-14.854c-2.668-2.252-5.787-3.755-9.483-2.306
		c-0.579-0.008-1.117,0.048-1.669,0.324c-2.414,1.2-2.349,1.172-2.597-1.527c-0.446-4.846-2.177-9.258-5.326-12.941
		c-3.564-4.17-8.31-4.716-13.323-3.393c-1.632,0.43-2.611,0.565-3.737-1.092c-2.141-3.147-5.198-4.022-8.661-2.74
		c-1.771,0.656-2.444,0.462-2.307-1.583c0.162-2.434-1.412-3.936-3.41-4.779c-1.617-0.682-3.198-0.025-4.466,1.208
		c-0.645-0.015-1.215-0.217-1.695-0.653c4.402-3.909,9.035-2.691,10.816,2.932c0.345,1.086,0.652,1.317,1.759,1.075
		c3.669-0.804,6.713,0.335,8.931,3.376c0.668,0.919,1.252,1.065,2.334,0.772c7.769-2.103,14.273,0.97,17.664,8.214
		c1.294,2.762,2.257,5.613,2.636,8.652c0.073,0.59-0.108,1.281,1.047,1.081c9.384-1.631,14.7,1.605,17.695,10.651
		c0.8,2.416,1.236,4.896,1.238,7.425c0.002,1.105,0.333,1.64,1.37,2.09c4.313,1.871,7.768,4.77,9.609,9.182
		c1.814,4.342,2.357,8.724,1.104,13.506C139.359,88.683,138.096,90.728,138.584,92.998z"/>
	<path fill="#9D2F19" d="M14.709,56.187c-2.303,2.032-2.94,6.276-1.415,9.658c0.347,0.77,0.826,1.48,1.23,2.226
		c0.369,0.682,0.912,1.371,0.028,2.075c-1.854-1.662-2.259-4.154-3.54-6.146c0.447-1.433,0.225-2.902,0.243-4.36
		c1.237-2.503,2.272-5.1,4.53-6.982c3.741-3.117,8.028-4.333,12.751-3.923c0.49-0.811-0.218-1.147-0.417-1.615
		c-4.285-10.044,2.824-16.431,9.88-18.591c2.244-0.688,4.556-0.587,6.862-0.455c0.563,1.539-0.554,1.303-1.376,1.246
		c-4.01-0.287-7.47,1.12-10.689,3.353c-3.036,2.105-4.788,5.111-4.978,8.653c-0.153,2.885,1.243,5.541,3.108,7.837
		c0.321,0.396,1.263,0.516,0.854,1.276c-0.453,0.839-1.126,0.247-1.702,0.052c-4.8-1.625-12.31,0.875-15.256,5.097
		c-0.112,0.16-0.093,0.413-0.135,0.622L14.709,56.187z"/>
	<path fill="#14100D" d="M63.679,17.732c0.479,0.438,1.051,0.64,1.694,0.654c4.112,3.711,7.031,8.373,10.098,13.321
		c0.417-1.45-0.777-2.33-0.048-3.313c1.388,2.729,1.873,5.694,2.304,8.741c-3.754-6.343-7.5-12.614-13.233-17.322
		c2.463,3.868,4.079,8.068,5.545,12.331c0.461,1.339,1.183,2.644,0.926,4.151c-1.264-0.452-1.174-1.712-1.594-2.667
		c-1.45-4.188-2.798-8.418-5.25-12.173c-0.402-0.676-0.015-1.76-1.08-2.095c-0.361-0.53-0.722-1.061-1.088-1.598
		C62.554,16.902,63.118,17.678,63.679,17.732z"/>
	<path fill="#9D2F19" d="M63.042,19.36c1.064,0.335,0.677,1.418,1.08,2.095c0.009,0.36-0.044,0.732,0.034,1.077
		c0.731,3.274,0.738,3.271-2.442,2.857c-5.043-0.658-9.021,1.252-10.616,5.098c-0.854-0.354-1.041-1.116-1.171-1.911
		c1.039-0.321,1.405-1.37,2.158-2.01c2.634-2.237,5.682-3.073,9.051-2.733c1.28,0.129,1.92,0.043,1.594-1.502
		C62.525,21.36,62.592,20.314,63.042,19.36z"/>
	<path fill="#14100D" d="M11.255,59.638c-0.016,1.458,0.205,2.927-0.242,4.36c-0.224-1.008-0.816-1.927-0.668-3.027
		C10.429,60.355,10.323,59.657,11.255,59.638z"/>
	<path fill="#9D2F19" d="M14.645,71.285c-0.035,0.112-0.068,0.224-0.103,0.334c-0.012-0.089-0.034-0.178-0.028-0.265
		C14.515,71.328,14.599,71.307,14.645,71.285z"/>
	<path fill="#EFC509" d="M18.597,63.974c-0.458-2.691,1.583-4.467,2.679-6.808c2,3.643,4,7.285,5.994,10.932
		c0.066,0.12,0.016,0.328,0.102,0.412c3.132,3.095,2.105,6.322,0.831,9.956c-3.525,10.05-3.83,20.493-2.913,31.008
		c0.038,0.427-0.11,0.853,0.516,0.973c0.52,0.101,0.875-0.119,1.073-0.52c2.266-4.572,5.349-8.682,7.456-13.359
		c0.62-1.374,1.122-3.405,3.863-2.678c1.79,0.473,3.894-0.237,5.857-0.422c1.717-0.162,2.161,0.281,1.233,1.959
		c-3.172,5.734-6.224,11.535-9.335,17.306c-4.506,8.363-8.824,16.824-13.262,25.222c-0.97,1.835-1.917,3.683-3.369,5.499
		c-0.328-2.658-0.675-5.315-0.981-7.976c-1.399-12.19-2.498-24.399-1.886-36.692c0.065-1.295,0.262-2.584,0.391-3.876
		c0.045-0.45,0.007-0.94-0.457-1.11c-0.565-0.207-0.95,0.139-1.148,0.666c-0.43,1.131-0.847,2.267-1.269,3.398
		c-0.741-0.137-0.487-0.678-0.485-1.029c0.062-10.34,1.194-20.548,3.828-30.565c0.224-0.85,0.178-1.936,1.302-2.313
		c0.051,0.713,0.107,1.4-0.045,2.136c-0.965,4.652-1.944,9.305-2.758,13.985c-0.731,4.207-1.427,8.438-1.074,12.791
		c2.605-1.438,3.357-1.005,3.362,2.035c0.002,2.656-0.32,5.316-0.225,7.967c0.332,9.333-0.156,18.703,1.232,27.992
		c0.389,2.603,0.629,5.229,1.016,8.497c1.653-2.795,3.091-5.004,4.208-7.791c-1.848,0.891-1.872,2.873-3.225,3.74
		c-0.16-0.203-0.303-0.301-0.313-0.411c-0.917-10.925-1.551-21.859-1.397-32.836c0.043-3.019,0.438-6.038,0.053-9.061
		c-0.156-1.227-0.381-2.861-1.708-2.91c-2.296-0.084-1.631-1.477-1.54-2.616c0.584-7.313,1.686-14.551,3.103-21.746
		C19.437,65.045,19.605,64.246,18.597,63.974z"/>
	<path fill="#3F286F" d="M75.423,28.394c-0.729,0.984,0.465,1.864,0.048,3.313c-3.066-4.949-5.985-9.61-10.098-13.321
		c1.268-1.234,2.849-1.891,4.466-1.209c1.998,0.844,3.572,2.346,3.41,4.779c-0.138,2.045,0.536,2.239,2.307,1.583
		c3.463-1.283,6.521-0.407,8.661,2.74c1.126,1.657,2.106,1.522,3.737,1.092c5.015-1.323,9.76-0.777,13.323,3.393
		c3.15,3.684,4.879,8.096,5.327,12.941c0.247,2.698,0.184,2.726,2.597,1.527c0.552-0.275,1.09-0.332,1.667-0.324
		c-0.478,0.485-0.788,0.979-0.022,1.475c0.814,0.525,0.724,1.249,0.471,2.016c-1.04,0.004-2.076,0.025-3.031,0.662
		c1.291,0.658,2.623,0.746,3.974,0.708c-0.682,2.482-0.036,5.233,0.426,8.186c0.365,2.35,0.709,4.902,0.13,7.357
		c-0.277,1.172,0.313,2.6-1.006,3.469l0.023-0.022c-1.609,0.828-1.476,2.32-1.261,3.71c0.153,0.992,0.261,1.984,0.403,2.973
		c0.306,2.142-0.111,4.099-1.12,5.95c-0.599,1.097,0.479,2.093,0.085,3.15h-0.135c-2.772-3.043-4.231-6.992-7.021-10.054
		c-1.359-1.492-3.332-2.232-4.414-3.98c0.961-0.84,1.552-5.425,0.813-6.414c-0.065-0.088-0.259-0.08-0.396-0.115
		c1.177-4.923,1.015-9.857,0.031-14.776c-0.818-4.084-2.413-7.867-4.662-11.375c-0.353-0.549-0.624-1.166-1.423-1.142l0.01,0.011
		c-0.271-1.331-1.262-2.086-2.121-2.913c-0.701,0.4,0.231,1.046-0.567,1.419c-1.74-2.352-3.643-4.613-6.833-5.881
		c1.017,2.766,1.831,5.255,1.859,7.94c-1.179-2.161-2.479-4.192-3.789-6.224c-1.428-2.222-3.329-3.928-5.365-5.521
		c-0.344-0.27-0.775-0.722-1.349-0.332c-0.55,0.375-0.133,0.748-0.012,1.123C74.322,27.222,75.607,27.506,75.423,28.394z"/>
	<path fill="#EFC509" d="M75.423,28.394c0.185-0.888-1.101-1.172-0.855-2.085c0.813-0.202,1.19,0.466,1.57,0.913
		c3.315,3.908,6.849,7.661,9.074,12.372c0.224,0.472,0.299,1.104,0.982,1.247c0.417-2.906-0.306-5.663-1.014-8.406
		c0.783-0.174,0.947,0.448,1.328,0.727c0.208,0.531,0.368,1.088,0.634,1.589c4.521,8.496,8.509,16.985,6.063,27.193
		c-0.56,2.334-0.413,5.209-0.398,7.84c-0.655,0.917-1.134,0.315-1.71-0.143c-0.636-0.509-1.094-1.431-2.611-1.227
		c1.347,1.171,2.395,2.082,3.44,2.992c0.448,0.794,0.31,1.608-0.304,2.143c-0.677,0.591-1.29-0.286-1.957-0.381
		c-0.832-0.118-1.532-1.455-2.235-0.779c-0.79,0.758,0.063,1.868,0.33,2.798c0.088,0.316,0.408,0.563,0.623,0.844
		c0.396,0.729,1.026,1.216,1.755,1.543c0.86,0.386,1.102,0.821,0.824,1.838c-0.854,3.135-1.683,3.556-4.127,1.189
		c-4.221-4.083-8.14-8.458-7.959-14.934c0.028-0.988-0.062-1.495-1.285-1.043c-1.158,0.429-1.85-0.454-2.444-1.315
		c-1.484-2.152-2.162-4.617-2.937-7.054c0.958-0.38,1.299,0.734,2.25,0.489c-1.343-5.21-2.395-10.488-5.2-15.185
		c-0.184-0.31-0.522-0.549-0.191-0.884c0.283-0.288,0.715-0.224,0.985,0.013c0.844,0.749,1.644,1.548,2.612,2.473
		c0.337-1.827-0.28-3.309-1.124-4.745c-0.192-0.707-0.386-1.415-0.577-2.123c0.256-1.507-0.466-2.812-0.926-4.151
		c-1.467-4.263-3.082-8.463-5.545-12.331c5.732,4.708,9.479,10.979,13.232,17.322C77.296,34.088,76.811,31.123,75.423,28.394z
		 M78.439,62.26c0.042,0.025,0.085,0.05,0.128,0.075c-0.048-0.02-0.095-0.04-0.143-0.061c0-1.297,0-2.592,0-3.888
		c-0.194,0.014-0.387,0.028-0.582,0.043C77.695,59.74,76.848,61.121,78.439,62.26z M90.273,55.292
		c0.594,1.381,1.188,2.762,1.952,4.542c0.267-2.193-0.331-3.542-1.7-4.566c-0.212-0.282-0.429-0.56-0.637-0.846
		c-0.253-0.353,0.538-1.11-0.361-1.158c-0.732-0.039-0.499,0.708-0.649,1.132c-0.332,0.946-0.57,1.906-0.473,2.921
		c-0.737-0.124-0.96-0.757-1.32-1.285c-1.201-1.759-2.353-3.569-4.002-4.969c-0.11-0.073-0.219-0.205-0.327-0.204
		c-0.106,0.001-0.292,0.132-0.303,0.219c-0.185,1.949-0.188,3.933-1.294,6.248c-0.22-2.415-0.928-4.085-2.447-5.314
		c-0.321-0.26-0.667-0.625-1.133-0.435c-0.513,0.208-0.441,0.758-0.334,1.113c0.354,1.152,0.15,2.42,0.765,3.507l-0.105,0.12
		l0.087-0.137c0.87,0.74,1.415,1.879,2.665,2.145c-0.044,0.477-0.086,0.956-0.13,1.434l-0.142,0.128l0.105,0.154
		c-0.027,0.473-0.057,0.945-0.084,1.417c-0.126,0.089-0.144,0.196-0.049,0.319c0.032,0.481,0.064,0.961,0.097,1.441l-0.067,0.146
		l0.137,0.099c1.436,2.425,2.405,5.024,2.712,7.862c0.431-1.407,0.639-2.766,1.005-4.083c0.235-0.852,0.002-1.343-0.691-1.804
		c-1.976-1.315-2.594-3.175-2.074-5.455c0.324-0.301,0.43-0.661,0.291-1.087c0.116-0.473,0.233-0.946,0.351-1.418
		c1.005-1.499,0.444-3.476,1.514-4.953c1.269,1.781,2.533,3.565,3.805,5.343c0.81,1.135,1.008,0.557,1.064-0.388
		C89.541,57.116,89.017,55.484,90.273,55.292z M87.513,63.562c0.505,0.929,1.001,1.864,1.521,2.785
		c0.212,0.374,0.455,0.71,1.006,0.479c1.183-0.498,1.588-2.496,0.736-3.72c-1.853-1.859-3.834-3.511-6.991-4.511
		C85.286,60.594,86.399,62.078,87.513,63.562z"/>
	<path fill="#EFC509" d="M93.702,120.064c-1.353,0.017-2.703,0.033-4.053,0.048c-0.091-0.107-0.197-0.122-0.314-0.044
		c-0.087-0.348-0.173-0.695-0.259-1.041c0.124-0.064,0.157-0.161,0.104-0.291c0.107-0.326,0.215-0.651,0.322-0.975
		c0.223-0.37,0.484-0.856,0.062-1.117c-0.31-0.191-0.594,0.215-0.641,0.607c-2.978,4.714-5.689,9.603-9.17,14.011
		c-0.282-1.325,0.501-2.294,0.915-3.345c1.902-4.826,3.073-9.899,5.128-14.678c1.441-3.347,2.606-6.813,4.006-10.178
		c0.721-1.733,0.187-2.206-1.54-2.147c-2.49,0.081-4.983,0.021-7.6,0.021c0.812-2.393,2.291-4.004,3.195-5.934
		c0.365-0.784,0.978-0.905,1.772-0.901c7.006,0.029,14.011,0.029,21.016,0.026c1.188,0,1.94,0.17,0.974,1.551
		c-0.669,0.955-0.988,2.122-1.448,3.171c-0.837,1.907-2.099,2.123-3.896,2.087c-6.101-0.128-6.099-0.073-8.523,5.503
		c-0.72,1.656-1.441,3.308-2.185,4.952c-0.64,1.411-0.215,1.994,1.338,1.99c6.715-0.017,13.432,0.013,20.148,0.024
		c0.588,0.003,1.229,0.006,1.482-0.64c0.241-0.612-0.2-1.075-0.543-1.551c-1.774-2.457-3.499-4.953-5.301-7.39
		c-2.111-2.854-2.159-3.246-0.322-6.235c0.036-0.062,0.126-0.1,0.14-0.161c0.83-3.316,3.25-3.656,6.104-3.374
		c1.504,0.15,3.031,0.044,4.548,0.054c0.166,0.203,0.333,0.203,0.5,0c0.267,0.001,0.534,0.001,0.801,0
		c0.165,0.203,0.333,0.203,0.499,0c0.267,0.001,0.535,0.001,0.802,0c0.165,0.203,0.333,0.203,0.499,0
		c0.268,0.001,0.534,0.001,0.802,0c0.165,0.203,0.332,0.205,0.499,0.001c0.267,0,0.535,0,0.802-0.001
		c0.166,0.203,0.332,0.205,0.499,0.001c0.267,0,0.535,0,0.801-0.001c0.167,0.203,0.333,0.205,0.5,0.001c0.268,0,0.534,0,0.801-0.001
		c0.164,0.211,0.332,0.211,0.5,0.001c0.293,0.004,0.587,0.011,0.879,0.015c1.108,0.463,2.267,0.095,3.4,0.202
		c0.585,0.057,1.406-0.224,1.344,0.861c-2.878,0.895-5.079,3.013-7.744,4.292c-0.766,0.366-1.502,0.792-2.25,1.19
		c-1.61-0.798,0.841-0.953-0.08-1.92c-2.004,0-4.353-0.009-6.7,0.006c-1.376,0.006-2.822-0.029-3.651,1.349
		c-0.862,1.438-0.337,2.782,0.507,4.044c2.444,3.66,4.908,7.302,7.311,10.985c0.357,0.547,1.235,1.09,0.702,1.862
		c-0.393,0.57-1.221,0.296-1.834,0.265c-6.975-0.368-13.945-0.038-20.913,0.135c-1.645,0.04-3.282,0.348-4.923,0.53
		c0.214,0.454,0.396,0.585,0.581,0.585c9.533,0.027,19.065,0.036,28.599,0.068c1.651,0.005,1.416-0.643,0.713-1.665
		c-2.974-4.331-5.912-8.685-8.865-13.03c-0.532-0.783-1.094-1.561-0.899-2.581c0.086-0.455,0.406-0.796,0.891-0.752
		c0.125,0.011,0.214,0.448,0.319,0.69c0.704,3.284,3.121,5.557,5.105,7.96c2.648,3.205,4.777,6.786,7.545,9.884
		c0.547,0.612,0.185,0.871-0.462,0.947c-0.17-0.004-0.34-0.008-0.511-0.013c-0.723,0.001-1.447,0.001-2.169,0.001
		c-0.263,0-0.528,0-0.792,0c-0.313,0.001-0.625,0.001-0.937,0.002c-0.122-0.118-0.247-0.118-0.371,0
		c-1.038,0.005-2.075,0.008-3.11,0.012c-0.114-0.105-0.229-0.105-0.344,0c-7.998,0.013-15.995,0.025-23.989,0.038
		C94.446,119.88,94.075,119.861,93.702,120.064z M86.212,99.102c1.325,0,2.655-0.054,3.979,0.014
		c1.803,0.091,2.427,1.052,1.859,2.725c-0.319,0.943-1.42,2.517-0.664,2.709c1.117,0.284,1.144-1.604,1.72-2.509
		c0.292-0.458,0.398-1.07,0.471-1.632c0.112-0.878-0.313-1.594-1.095-1.922C90.351,97.594,88.263,98.031,86.212,99.102z
		 M91.009,106.48c-0.199-0.078-0.399-0.155-0.599-0.232c-0.254,1.118-1.198,2.018-0.898,3.899
		C90.149,108.585,90.578,107.532,91.009,106.48z"/>
	<path fill="#EFC509" d="M66.578,79.63c0,0-0.088,0.057-0.089,0.057c-0.307-0.021-0.53,0.061-0.524,0.425
		c0,0-0.027,0.046-0.027,0.044c-1.47,0.476-2.943,0.713-4.497,0.362c-0.907-0.204-1.852-0.299-2.783-0.319
		c-2.622-0.058-5.176-0.027-7.493,1.649c-3.92,2.841-8.25,4.991-12.664,6.966c-0.449-0.287-0.453-1.111-1.222-1.015l0.002,0.045
		c0.208-0.908-0.012-1.643-0.86-2.123c0.044-0.093,0.019-0.159-0.075-0.199l0.012-0.179c0.356-1.684-0.513-3.202-0.706-4.814
		c-0.357-2.967,0.382-5.686,1.185-8.43c0.337-1.154,1.122-1.629,2.429-1.626c3.461,0.004,6.924-0.222,10.388-0.259
		c1.754-0.02,2.765-0.776,3.441-2.383c0.612-1.452,1.523-2.78,2.313-4.156c0.375-0.653,0.899-1.272,1.667-1.207
		c0.819,0.069,0.604,1.027,0.927,1.546c0.522,0.837-0.155,2.483,1.744,2.403c1.495-0.063,5.229-1.791,5.562-2.721
		c0.273-0.768-0.863-1.389-0.176-2.291c1.154,0.444,1.984,1.326,2.907,2.092c1.364,1.131-0.005,2.071-0.145,3.095
		c-0.193,1.407,2.436,1.106,1.733,2.541c-0.74,1.508-1.301,2.7,0.538,3.708c-1.065,1.462,0.469,3.317-0.716,4.763
		c-0.938-0.104-1.487,0.375-1.809,1.197c0,0,0.014-0.015,0.013-0.015C67.124,78.853,66.822,79.204,66.578,79.63z"/>
	<path fill="#EFC509" d="M47.072,119.851c-2.813,0-5.627-0.011-8.44,0.005c-1.147,0.006-1.869,0.011-1.003-1.52
		c4.261-7.533,8.444-15.113,12.583-22.716c0.592-1.09,1.191-1.584,2.474-1.574c5.556,0.042,11.113,0.002,16.672-0.067
		c1.455-0.017,1.298,0.318,0.707,1.431c-3.708,6.993-7.536,13.932-11.123,20.972c-1.561,3.063-3.18,3.662-6.024,3.467
		c-1.939-0.132-3.895-0.026-5.844-0.026C47.072,119.831,47.072,119.842,47.072,119.851z M50.844,113.366
		c0.905-0.251,2.276,0.618,3.063-0.918c1.756-3.432,3.569-6.834,5.345-10.254c0.221-0.426,0.556-0.895,0.01-1.34
		c-0.969-0.788-5.141,0.08-5.764,1.236c-1.69,3.138-3.266,6.341-5.056,9.417c-0.944,1.622-0.533,2.01,1.129,1.861
		C49.926,113.339,50.288,113.366,50.844,113.366z M53.849,118.021c-2.951-0.229-5.679-0.45-8.407-0.655
		c-3.049-0.229-3.225-0.695-1.761-3.364c2.439-4.445,4.918-8.883,6.303-13.842c-4.068,5.673-6.517,12.273-10.55,18.036
		C41.818,118.755,53.047,118.683,53.849,118.021z"/>
	<path fill="#3F286F" d="M52.425,58.795c-1.808,1.28-3.594,2.581-4.938,4.389c-0.515,0.693-1.233,0.927-2.096,0.855
		c-0.718-0.061-1.445-0.072-2.164-0.023c-3.792,0.268-4.536,0.157-3.99-3.283c0.36-2.265-0.438-4.218-0.097-6.257
		c0.212-1.274,0.672-2.546,1.088-3.801c1.032-3.108,1.491-6.402,2.414-9.553c0.397-1.353,1.359-2.543,2.093-3.792
		c0.132-0.227,0.408-0.368,0.619-0.549c-2.589-2.05,1.953-0.952,0.855-2.393c2.228,7.45,4.151,14.822,5.777,22.27
		c-1,0.046-1.432,0.7-1.208,1.539C50.974,58.924,52.01,58.175,52.425,58.795z"/>
	<path fill="#EFC509" d="M74.228,99.949c-0.132-0.992-0.44-1.962-0.075-2.986c0.946-2.661,1.317-2.927,4.909-2.877
		c1.04,0.015,2.582-0.563,2.99,0.356c0.331,0.75-0.722,1.948-1.248,2.927c-2.496,4.639-4.858,9.35-7.281,14.027
		c-0.765,1.474-0.173,1.975,1.301,1.967c2.601-0.017,5.202,0.013,7.803-0.004c1.132-0.009,1.711-0.027,1.104,1.532
		c-1.898,4.884-1.802,4.926-7.097,4.942c-4.33,0.012-8.661,0.02-12.992,0.009c-0.74-0.003-1.901,0.214-1.16-1.178
		c3.31-6.222,6.664-12.424,9.992-18.617c0.896,0.305,0.599,1.106,1.015,1.489c0.017,0.85-0.521,1.488-0.883,2.175
		c-2.351,4.458-4.734,8.898-7.106,13.343c-0.332,0.621-1.004,1.42,0.411,1.445c3.178,0.057,6.359,0.02,9.54,0.02
		c0.002-0.222,0.009-0.444,0.011-0.664c-1.915-0.172-3.83-0.361-5.748-0.509c-2.193-0.168-2.53-0.797-1.405-2.716
		c2.405-4.105,4.444-8.395,6.41-12.717c0.465-1.021,1.105-2.068,1.059-3.603C75.086,99.037,74.657,99.494,74.228,99.949z"/>
	<path fill="#3F286F" d="M51.099,30.486c1.593-3.846,5.572-5.756,10.615-5.098c3.179,0.415,3.172,0.417,2.442-2.857
		c-0.078-0.344-0.025-0.717-0.034-1.077c2.453,3.755,3.8,7.987,5.25,12.173c-0.741,0.815-1.14,2.096-2.734,1.677
		c-0.317-0.084-1.504,0.086-1.135,1.196c-0.139,0.293-0.28,0.586-0.42,0.881c-1.994,0.722-2.917,3.118-5.232,3.368
		c-0.069,0.008-0.082,0.53-0.12,0.813c-1.217-2.905-1.429-6.082-2.45-9.043c-0.204-0.592-0.154-1.499-0.843-1.535
		c-0.713-0.037-0.998,0.63-1.183,1.451c-0.31,1.373-1.006,2.657-1.693,4.363C52.043,34.694,51.649,32.557,51.099,30.486z"/>
	<path fill="#0672B2" d="M59.729,41.563c0.039-0.283,0.052-0.805,0.121-0.813c2.314-0.25,3.239-2.646,5.232-3.368
		c2.834,3.021,4.001,6.933,5.598,10.603c0.877,2.014,1.518,4.129,2.296,6.283c-1.163,0.128-1.631-0.642-2.313-0.954
		c-0.452-0.207-0.94-0.534-1.416-0.19c-0.479,0.345-0.292,0.897-0.254,1.4c0.08,1.032,1.328,2.112,0.419,2.985
		c-0.687,0.658-1.951,0.721-2.964,1.032c-1.75,0.54-2.943,0.453-3.379-1.846C62.111,51.623,60.554,46.672,59.729,41.563z"/>
	<path fill="#9D2F19" d="M92.808,69.786c-0.015-2.631-0.159-5.507,0.398-7.84c2.445-10.208-1.542-18.697-6.063-27.193
		c-0.266-0.501-0.426-1.058-0.633-1.588c2.312,1.421,3.767,3.614,5.084,5.769c1.102-0.455-1.102-2.33,1.151-2.235l-0.012-0.011
		c0.89,2.501,2.668,4.523,3.63,7.026c0.836,2.169,1.42,4.314,1.656,6.598c0.241,2.345,0.498,4.688,0.818,7.021
		c0.361,2.617-0.478,4.569-2.797,5.954c-0.743,0.445-1.933,1.074-0.785,2.314c0.415,0.618,0.771,0.521,1.085-0.089
		c0.294,0.376,1.51-0.346,1.065,0.927c-0.993,2.842-1.465,5.937-3.981,8.021c-1.739,1.087-3.2-0.102-4.784-0.789
		c0.071,0.755,0.124,1.304,0.179,1.853c-0.146,0.172-0.291,0.342-0.436,0.513c-0.215-0.28-0.534-0.528-0.623-0.844
		c-0.268-0.93-1.12-2.041-0.33-2.798c0.703-0.676,1.403,0.661,2.235,0.779c0.667,0.095,1.28,0.971,1.957,0.382
		c0.613-0.535,0.752-1.349,0.304-2.144c1.229-0.075,1.814-0.921,2.615-2.033C93.74,69.565,93.273,69.675,92.808,69.786z
		 M97.866,55.734c-1.118,1.952-2.316,3.814-3.221,6.261C97.308,60.403,98.284,58.433,97.866,55.734z"/>
	<path fill="#EFC509" d="M44.058,19.788c-0.102-1.096-0.205-2.192-0.308-3.289c2.907,7.149,5.819,14.297,8.708,21.455
		c0.234,0.582,0.316,1.222,1.031,1.724c0.886-2.004,1.743-3.946,2.821-6.387c0.748,3.031,1.386,5.585,2.008,8.144
		c1.654,6.799,3.275,13.607,4.976,20.396c0.397,1.587,0.184,2.551-1.666,2.579c-0.091-0.639-0.113-1.296-0.279-1.915
		c-1.651-6.182-3.325-12.357-4.995-18.535c-0.137-0.507,0.048-1.352-0.761-1.28c-0.541,0.048-0.83,0.646-0.92,1.296
		c-0.182,1.295-0.359,2.632-1.674,3.704c-0.532-1.78-1.017-3.353-1.474-4.935c-1.498-5.186-2.943-10.386-4.531-15.542
		c-0.192-0.623,0.038-2.063-1.481-1.73C45.027,23.576,44.542,21.683,44.058,19.788z"/>
	<path fill="#0672B2" d="M54.875,83.067c2.684-1.154,5.184,0.533,7.794,0.503c0.833-0.01,1.063,0.599,1.235,1.26
		c0.363,1.396,0.876,2.771,1.064,4.188c0.246,1.844,0.926,2.308,2.529,1.268c0.532-0.347,1.157-0.701,1.799-0.276
		c0.528,0.352,0.639,0.969,0.59,1.551c-0.086,1.041-0.953,0.701-1.509,0.703c-5.199,0.014-10.397-0.017-15.597-0.033
		c-0.349-0.65-0.629-1.304-0.852-2.025c-0.334-1.082-0.157-2.506-1.303-3.297c0.752-1.15,2.624-1.221,2.825-2.908
		C53.935,83.702,54.229,83.114,54.875,83.067z"/>
	<path fill="#9D2F19" d="M45.512,25.47c1.52-0.332,1.29,1.107,1.481,1.73c1.588,5.157,3.034,10.358,4.531,15.542
		c0.457,1.581,0.942,3.155,1.474,4.935c1.315-1.071,1.492-2.408,1.674-3.704c0.091-0.65,0.38-1.248,0.92-1.296
		c0.809-0.072,0.624,0.772,0.761,1.28c1.67,6.177,3.344,12.353,4.995,18.535c0.165,0.62,0.188,1.276,0.279,1.915
		c-1.428,0.848-2.309,0.589-2.691-1.16c-0.951-4.361-1.978-8.705-2.976-13.055c0.522-0.57,0.637-1.305-0.06-1.625
		c-0.745-0.344-1.339,0.308-1.667,0.969c-0.602,1.212-0.863,2.602-1.896,3.588c-0.395-0.214-0.724-0.495-0.773-0.968
		c-0.696-6.694-2.911-13.047-4.569-19.512C46.385,30.257,45.71,27.926,45.512,25.47z"/>
	<path fill="#9D2F19" d="M114.851,101.241c-0.105-0.242-0.194-0.683-0.319-0.692c-0.483-0.042-0.805,0.298-0.891,0.753
		c-0.194,1.02,0.367,1.798,0.899,2.58c2.953,4.346,5.892,8.701,8.866,13.03c0.702,1.022,0.938,1.671-0.714,1.666
		c-9.533-0.032-19.065-0.041-28.599-0.067c-0.185-0.002-0.367-0.133-0.581-0.585c1.641-0.185,3.278-0.492,4.923-0.532
		c6.969-0.171,13.939-0.503,20.913-0.135c0.613,0.032,1.441,0.305,1.834-0.263c0.533-0.772-0.345-1.315-0.702-1.864
		c-2.402-3.683-4.867-7.325-7.31-10.983c-0.844-1.265-1.369-2.608-0.508-4.046c0.829-1.376,2.274-1.341,3.651-1.349
		c2.348-0.014,4.694-0.005,6.7-0.005c0.921,0.966-1.53,1.122,0.08,1.919c-1.969,0.474-3.968,0.118-5.947,0.211
		C116.364,100.917,115.573,100.837,114.851,101.241z"/>
	<path fill="#0672B2" d="M73.153,73.665c0.016,0.085,0.036,0.166,0.061,0.249c-0.084,0.419,0.056,0.741,0.408,0.977
		c1.366,3.285,2.737,6.567,3.743,9.988c-2.1,2.436-2.058,3.518,0.226,5.777c-0.91,0.717,0.029,1.052,0.313,1.521
		c-0.403,0.122-0.838,0.41-1.204,0.339c-1.294-0.252-2.333-0.044-3.212,1.249c-0.377-3.029-0.785-6.056-1.116-9.09
		c-0.132-1.198-0.157-2.318-1.837-1.373c-0.312,0.176-0.824,0.311-0.949-0.081c-0.34-1.081-1.259-2.702-0.601-3.23
		c2.319-1.865,1.592-4.603,2.484-6.834c0.049-0.277,0.012-0.721,0.161-0.795c0.464-0.234,0.457,0.326,0.588,0.541
		C72.452,73.285,72.689,73.594,73.153,73.665z"/>
	<path fill="#EFC509" d="M84.131,84.764c-0.202,0.501-0.337,1.22-1.097,0.63c-0.565-0.44-1.174-0.738-1.848-0.933
		c-4.005-5.856-7.041-12.142-8.512-19.126c-0.095-0.455-0.674-0.98-0.08-1.331c0.567-0.337,0.81,0.303,1.124,0.694
		c0.847,1.052,1.481,2.452,3.319,1.9c0.587-0.177,0.537,0.488,0.561,0.902c0.312,5.22,2.797,9.452,6.345,13.03
		C85.529,82.129,86.09,83.253,84.131,84.764z"/>
	<path fill="#9D2F19" d="M54.875,83.067c-0.647,0.047-0.94,0.635-1.423,0.933c-3.477,1.279-5.894,3.938-8.418,6.456l0.022-0.017
		c-0.261,0.118-0.519,0.248-0.784,0.355c-1.167,0.472-1.95,2.296-3.157,1.805c-1.427-0.581-2.073-2.28-2.615-3.788
		c4.414-1.975,8.743-4.125,12.664-6.966c2.316-1.679,4.871-1.707,7.493-1.65c0.931,0.021,1.875,0.116,2.783,0.32
		c1.553,0.351,3.027,0.113,4.497-0.362c-1.48,2.653-3.215,3.121-6.686,1.778C57.511,81.259,55.955,81.227,54.875,83.067z"/>
	<path fill="#9D2F19" d="M14.69,56.206c2.755-1.5,5.432-3.262,8.826-2.606c0.562,0.109,1.135,0.157,1.695,0.267
		c0.356,0.07,0.938,0.188,0.953-0.137c0.133-2.77,1.999-1.235,3.023-1.11c2.232,0.274,4.27,1.212,6.078,2.602
		c0.418,0.322,0.943,0.625,0.47,1.168c-0.401,0.458-0.74-0.081-1.071-0.306c-1.439-0.974-2.982-1.716-4.698-2.059
		c-0.426-0.085-0.939-0.159-1.208,0.213c-0.317,0.442,0.113,0.785,0.388,1.11c0.361,0.427,0.969,0.859,0.419,1.449
		c-0.463,0.494-0.885-0.111-1.323-0.29c-2.937-1.207-5.976-1.458-9.036-0.658c-2.81,0.735-4.427,3.708-4.226,7.448
		c0.038,0.698,0.085,1.397-0.086,2.102c-2.2-3.019-1.304-6.114-0.184-9.212L14.69,56.206z"/>
	<path fill="#3F286F" d="M103.021,106.344c1.19,0.474,2.334-0.158,3.46-0.492c0.926-0.273,1.563-0.131,2.012,0.656
		c0.359,0.636,1.001,1.191,0.322,2.115c-0.563,0.766-0.918,1.141-1.949,0.668c-0.958-0.438-1.733,0.707-2.753,0.748
		c-2.144,0.084-3.911-1.137-5.904-1.545c-0.12-0.023-0.305-0.162-0.313-0.263c-0.152-1.508,0.594-2.917,1.418-3.855
		c0.863-0.979,2.658-0.697,3.854-0.197C103.966,104.511,102.621,105.502,103.021,106.344z"/>
	<path fill="#9D2F19" d="M112.259,49.769c-1.353,0.038-2.683-0.049-3.974-0.708c0.956-0.636,1.991-0.658,3.031-0.662
		c3.392-0.076,6.637,0.476,9.189,2.886c0.553,0.521,2.662,1.204,0.621,2.688c-0.438,0.317,0.445,0.921,0.804,1.319
		c1.617,1.803,2.621,3.793,2.045,6.41c-1.406-5.038-4.993-7.691-9.738-9.111c0.84-0.975,1.972-0.501,3.021-0.844
		C115.708,50.527,113.961,50.202,112.259,49.769z"/>
	<path fill="#9D2F19" d="M74.228,99.949c0.43-0.455,0.858-0.912,1.549-1.64c0.047,1.534-0.593,2.582-1.059,3.603
		c-1.966,4.322-4.005,8.61-6.41,12.716c-1.125,1.92-0.788,2.549,1.405,2.717c1.918,0.147,3.833,0.337,5.749,0.509
		c-0.003,0.22-0.01,0.442-0.012,0.663c-3.181,0-6.361,0.038-9.54-0.019c-1.415-0.025-0.741-0.825-0.41-1.445
		c2.372-4.444,4.755-8.885,7.106-13.344c0.362-0.686,0.899-1.323,0.883-2.174C74.215,101.232,74.078,100.523,74.228,99.949z"/>
	<path fill="#3F286F" d="M37.278,87.798c-0.868,1.72-2.438,0.889-3.634,0.815c-2.042-0.127-4.098-2.637-4.566-5.114
		c-0.47-2.49,0.664-5.715,2.484-6.643c0.849-0.433,1.919-1.181,2.812-0.507c1.027,0.776,0.707,2.085,0.547,3.229
		c-0.653-2.479-0.949-2.56-2.842-0.771c-1.418,1.342-1.75,4.593-0.63,6.213c1.342,1.944,3.847,2.201,4.895,0.501
		c0.094,0.04,0.119,0.106,0.074,0.198c0.7,0.539-0.026,1.659,0.86,2.124L37.278,87.798z"/>
	<path fill="#0672B2" d="M36.345,85.52c-1.048,1.7-3.552,1.443-4.895-0.501c-1.119-1.619-0.789-4.87,0.63-6.212
		c1.892-1.789,2.189-1.708,2.842,0.771c0.071,1.323,0.124,2.647,0.221,3.969c0.06,0.813,0.454,1.438,1.214,1.795
		C36.356,85.343,36.345,85.52,36.345,85.52z"/>
	<path fill="#9D2F19" d="M33.719,46.614c-1.86-1.123-0.92-3.805-2.86-4.884c-0.102-0.057,0.122-0.802,0.272-1.197
		c1.239-3.272,5.521-6.527,9.478-5.453c-2.313,0.983-4.711,1.502-6.056,3.638c-0.298,0.473-1.414,1.009,0.034,1.526
		c0.479,0.17,0.189,0.687-0.031,0.879c-1.599,1.387-1.285,3.045-0.774,4.763C33.849,46.111,33.743,46.387,33.719,46.614z"/>
	<path fill="#3F286F" d="M50.626,86.91c1.146,0.789,0.969,2.214,1.303,3.296c0.223,0.722,0.503,1.374,0.852,2.025
		c-2.858-0.795-3.277,2.121-4.886,3.578c-0.023-1.338-1.516-3.749-2.419-4.423c-0.241-0.18-0.286-0.621-0.42-0.945l-0.021,0.017
		c1.157,0.025,1.985-0.578,2.79-1.335C48.689,88.306,49.401,87.274,50.626,86.91z"/>
	<path fill="#EFC509" d="M65.367,82.597c0.131-0.163,0.24-0.357,0.4-0.49c1.992-1.626,1.968-1.616,2.635,0.922
		c0.278,1.056,0.15,2.774,2.173,1.549c0.498-0.3,0.718,0.269,0.764,0.726c0.227,2.332,0.912,4.638,0.392,7.6
		c-0.653-1.867-1.129-3.233-1.604-4.599c0.926-0.444,0.694-1.261,0.348-1.812c-0.413-0.655-1.146-0.065-1.51,0.161
		c-1.864,1.164-2.345,0.05-2.618-1.465C66.179,84.259,65.881,83.391,65.367,82.597z"/>
	<path fill="#0672B2" d="M52.425,58.795c-0.416-0.621-1.453,0.129-1.645-0.598c-0.224-0.838,0.208-1.492,1.208-1.539
		c0.342,1.269,0.926,1.184,1.416,0.152c0.632-1.329,1.112-2.731,1.757-4.348c0.951,1.538,0.956,3.187,1.5,4.641
		c0.236,0.632-0.295,0.894-0.864,0.883c-1.026-0.015-1.941,0.403-2.892,0.691c-0.235-0.243-0.41-0.249-0.489,0.123L52.425,58.795z"
		/>
	<path fill="#0672B2" d="M65.501,36.501c-0.37-1.109,0.818-1.28,1.135-1.196c1.594,0.419,1.994-0.861,2.734-1.677
		c0.422,0.955,0.331,2.215,1.594,2.667c0.191,0.708,0.385,1.415,0.577,2.122c-0.399,0.45-0.163,1.027-0.126,1.728
		C69.326,38.797,67.931,36.789,65.501,36.501z"/>
	<path fill="#9D2F19" d="M65.367,82.597c0.514,0.794,0.812,1.662,0.979,2.593c0.273,1.515,0.753,2.63,2.618,1.466
		c0.364-0.229,1.098-0.818,1.51-0.162c0.346,0.55,0.578,1.368-0.348,1.813c-1.217-0.797-1.992,0.254-2.846,0.753
		c-0.424,0.25-0.662,0.788-1.226,0.28c-0.573-0.517-1.584-5.671-1.215-6.383C64.926,82.79,65.186,82.715,65.367,82.597z"/>
	<path fill="#9D2F19" d="M135.308,75.204c3.141,4.808,2.535,10.911-1.474,14.24c1.286-2.158,1.583-4.623,2.334-6.95
		C136.966,80.02,135.626,77.646,135.308,75.204z"/>
	<path fill="#FDFDFD" d="M88.819,75.521c-0.055-0.548-0.107-1.097-0.179-1.852c1.586,0.688,3.045,1.876,4.784,0.789
		c0.424,1.317-0.546,1.906-1.425,2.299C90.64,77.362,89.711,76.379,88.819,75.521z"/>
	<path fill="#3F286F" d="M73.153,73.665c-0.464-0.07-0.699-0.38-0.936-0.761c-0.131-0.215-0.124-0.775-0.588-0.541
		c-0.15,0.074-0.112,0.519-0.161,0.795c-2.257-1.444-0.858-3.459-0.824-5.261L70.62,67.92
		C72.343,69.446,72.424,71.699,73.153,73.665z"/>
	<path fill="#EFC509" d="M52.339,53.123c1.032-0.986,1.294-2.375,1.896-3.588c0.328-0.661,0.921-1.313,1.667-0.969
		c0.696,0.32,0.582,1.055,0.06,1.625c-0.42-1.02-0.855-0.791-1.204,0.024c-0.389,0.909-0.789,1.829-1.038,2.782
		C53.335,54.478,52.871,53.894,52.339,53.123z"/>
	<path fill="#0672B2" d="M98.789,63.979c0.137,0.037,0.332,0.028,0.396,0.115c0.739,0.989,0.147,5.574-0.813,6.414l0.01,0.011
		c0.066-0.396-0.035-0.72-0.408-0.922c-0.011-0.279-0.023-0.558-0.031-0.837c0.321-0.156,0.315-0.279-0.038-0.367
		C97.895,66.861,98.47,65.444,98.789,63.979z"/>
	<path fill="#EFC509" d="M71.281,58.522c0.624,1.501,1.526,2.918,1,4.77c-0.533-1.543-1.065-3.086-1.598-4.629
		C70.882,58.617,71.082,58.57,71.281,58.522z"/>
	<path fill="#3F286F" d="M77.59,90.656c0,0,0.129,0.101,0.129,0.1c1.055,0.81,2.491,0.192,3.971,1.009
		c-1.45,0.695-2.626,0.491-3.784,0.414C77.619,91.708,76.68,91.373,77.59,90.656z"/>
	<path fill="#EFC509" d="M103.974,105.608c0.587-1.905,1.655-1.601,3.083-1.28C106.114,105.19,105.226,105.349,103.974,105.608z"/>
	<path fill="#EFC509" d="M110.241,109.395c0.736,0.508,1.462,0.896,0.872,1.751c-0.257,0.373-0.746,0.645-1.087,0.338
		C109.197,110.738,110.418,110.125,110.241,109.395z"/>
	<path fill="#9D2F19" d="M133.089,95.186c0.063-1.085-0.759-0.805-1.344-0.861c-1.133-0.107-2.292,0.261-3.4-0.202
		c1.53-0.425,3.091-0.114,4.635-0.198c0.333-0.019,0.805-0.044,0.855,0.394C133.889,94.779,133.544,95.073,133.089,95.186z"/>
	<path fill="#3F286F" d="M70.645,67.897c-0.814-0.721-2.264-1.217-0.897-2.827c0.54,0.944,0.943,1.815,0.873,2.85L70.645,67.897z"/>
	<path fill="#9D2F19" d="M67.639,78.801c0.322-0.823,0.872-1.302,1.809-1.197C69.13,78.435,68.536,78.847,67.639,78.801z"/>
	<path fill="#3F286F" d="M96.341,65.511c-0.313,0.61-0.67,0.707-1.085,0.089c0.184-0.333,0.268-0.821,0.775-0.733
		C96.168,64.891,96.239,65.287,96.341,65.511z"/>
	<path fill="#9D2F19" d="M88.922,117.255c0.049-0.396,0.332-0.8,0.641-0.609c0.425,0.26,0.163,0.748-0.062,1.116
		C89.31,117.591,89.117,117.423,88.922,117.255z"/>
	<path fill="#9D2F19" d="M66.578,79.63c0.245-0.426,0.546-0.777,1.073-0.842C67.584,79.438,67.207,79.692,66.578,79.63z"/>
	<path fill="#9D2F19" d="M93.702,120.064c0.373-0.203,0.744-0.185,1.115,0.007C94.441,120.422,94.071,120.387,93.702,120.064z"/>
	<path fill="#3F286F" d="M97.973,69.596c0.373,0.203,0.474,0.526,0.408,0.922C97.975,70.33,97.895,69.997,97.973,69.596z"/>
	<path fill="#9D2F19" d="M134.663,74.153c0.055-0.021,0.108-0.042,0.161-0.063c0.018,0.082,0.035,0.165,0.054,0.248
		c-0.061-0.015-0.131-0.012-0.175-0.045C134.672,74.272,134.676,74.202,134.663,74.153z"/>
	<path fill="#3F286F" d="M73.621,74.891c-0.353-0.235-0.493-0.56-0.408-0.977C73.614,74.127,73.683,74.48,73.621,74.891z"/>
	<path fill="#9D2F19" d="M123.567,120.02c0.265,0,0.53,0,0.793,0C124.096,120.331,123.831,120.336,123.567,120.02z"/>
	<path fill="#9D2F19" d="M119.662,94.107c-0.169,0.202-0.335,0.202-0.501,0C119.327,94.108,119.493,94.108,119.662,94.107z"/>
	<path fill="#9D2F19" d="M122.263,94.107c-0.168,0.202-0.335,0.202-0.5,0C121.929,94.108,122.095,94.108,122.263,94.107z"/>
	<path fill="#3F286F" d="M52.416,58.801c0.08-0.372,0.254-0.366,0.489-0.123C52.742,58.719,52.58,58.76,52.416,58.801z"/>
	<path fill="#3F286F" d="M97.903,68.392c0.354,0.089,0.359,0.212,0.036,0.367C97.887,68.641,97.874,68.519,97.903,68.392z"/>
	<path fill="#3F286F" d="M111.811,68.78c0.063,0.031,0.122,0.061,0.186,0.089c-0.055-0.037-0.109-0.075-0.162-0.112L111.811,68.78z"
		/>
	<path fill="#9D2F19" d="M123.563,94.108c-0.166,0.205-0.334,0.201-0.499-0.001C123.229,94.108,123.395,94.108,123.563,94.108z"/>
	<path fill="#9D2F19" d="M124.863,94.108c-0.166,0.205-0.333,0.201-0.499-0.001C124.531,94.108,124.695,94.108,124.863,94.108z"/>
	<path fill="#9D2F19" d="M126.164,94.108c-0.166,0.203-0.334,0.203-0.5-0.001C125.832,94.108,125.998,94.108,126.164,94.108z"/>
	<path fill="#9D2F19" d="M89.181,118.736c0.055,0.13,0.021,0.227-0.104,0.292c-0.015-0.088-0.03-0.175-0.032-0.262
		C89.044,118.757,89.133,118.746,89.181,118.736z"/>
	<path fill="#9D2F19" d="M89.335,120.068c0.117-0.078,0.224-0.063,0.314,0.044C89.514,120.304,89.41,120.274,89.335,120.068z"/>
	<path fill="#9D2F19" d="M127.465,94.108c-0.167,0.209-0.335,0.209-0.5-0.001C127.132,94.108,127.298,94.108,127.465,94.108z"/>
	<path fill="#9D2F19" d="M118.808,120.032c0.113-0.104,0.229-0.104,0.343,0C119.035,120.224,118.92,120.226,118.808,120.032z"/>
	<path fill="#9D2F19" d="M122.261,120.021c0.124-0.117,0.248-0.117,0.37,0C122.507,120.22,122.385,120.22,122.261,120.021z"/>
	<path fill="#9D2F19" d="M126.53,120.019c0.169,0.005,0.339,0.009,0.512,0.013C126.863,120.274,126.693,120.285,126.53,120.019z"/>
	<path fill="#9D2F19" d="M65.964,80.11c-0.006-0.364,0.217-0.444,0.524-0.426C66.404,79.938,66.27,80.131,65.964,80.11z"/>
	<path fill="#9D2F19" d="M120.96,94.107c-0.166,0.202-0.333,0.202-0.499,0C120.629,94.108,120.794,94.108,120.96,94.107z"/>
	<path fill="#9D2F19" d="M18.597,63.974c1.009,0.271,0.84,1.071,0.706,1.755c-1.416,7.194-2.518,14.433-3.102,21.746
		c-0.091,1.141-0.756,2.533,1.54,2.617c1.326,0.049,1.551,1.684,1.708,2.909c0.384,3.021-0.01,6.043-0.053,9.061
		c-0.154,10.976,0.48,21.911,1.397,32.838c0.008,0.108,0.152,0.205,0.313,0.408c1.353-0.866,1.376-2.849,3.225-3.739
		c-1.116,2.788-2.555,4.997-4.208,7.791c-0.386-3.269-0.627-5.894-1.016-8.496c-1.388-9.291-0.9-18.66-1.233-27.993
		c-0.094-2.65,0.228-5.312,0.225-7.968c-0.003-3.038-0.755-3.473-3.361-2.034c-0.354-4.354,0.342-8.584,1.074-12.791
		c0.814-4.681,1.792-9.333,2.758-13.985c0.153-0.736,0.097-1.423,0.045-2.135C18.617,63.956,18.597,63.974,18.597,63.974z"/>
	<path fill="#14100D" d="M92.745,36.698c-2.255-0.095-0.05,1.779-1.151,2.234c-1.317-2.155-2.772-4.346-5.084-5.769
		c-0.382-0.281-0.546-0.902-1.329-0.729c0.708,2.744,1.431,5.5,1.014,8.406c-0.684-0.143-0.759-0.774-0.982-1.247
		c-2.226-4.711-5.759-8.464-9.074-12.372c-0.38-0.447-0.758-1.114-1.57-0.913c-0.121-0.376-0.538-0.749,0.012-1.123
		c0.573-0.391,1.006,0.063,1.349,0.332c2.037,1.594,3.938,3.3,5.366,5.521c1.309,2.032,2.609,4.063,3.788,6.224
		c-0.027-2.685-0.842-5.174-1.86-7.94c3.192,1.269,5.094,3.531,6.834,5.881c0.798-0.374-0.134-1.019,0.566-1.418
		C91.483,34.613,92.475,35.367,92.745,36.698z"/>
	<path fill="#9D2F19" d="M78.012,56.199c-0.615-1.087-0.413-2.355-0.765-3.507c-0.109-0.355-0.181-0.905,0.333-1.113
		c0.465-0.19,0.812,0.176,1.133,0.435c1.519,1.229,2.227,2.899,2.446,5.314c1.107-2.315,1.109-4.3,1.297-6.248
		c0.009-0.087,0.195-0.218,0.301-0.219c0.107-0.001,0.217,0.13,0.326,0.204c-0.642,0.797,0.541,0.91,0.55,1.463
		c-1.07,1.478-0.512,3.455-1.515,4.953c-0.577,0.125-0.698,1.036-1.46,0.844c-1.25-0.266-1.795-1.405-2.665-2.145L78.012,56.199z"/>
	<path fill="#14100D" d="M80.658,58.325c0.76,0.192,0.881-0.719,1.459-0.844c-0.116,0.473-0.234,0.946-0.35,1.417
		c-0.394,0.283-0.361,0.681-0.29,1.089c-0.521,2.279,0.097,4.139,2.072,5.455c0.692,0.46,0.926,0.953,0.69,1.804
		c-0.365,1.315-0.572,2.674-1.004,4.083c-0.305-2.838-1.277-5.437-2.71-7.86c0,0.001,0.037-0.144,0.037-0.144l-0.109-0.103
		c-0.031-0.479-0.064-0.961-0.097-1.44c0.04-0.021,0.116-0.048,0.114-0.068c-0.01-0.084-0.042-0.168-0.066-0.252
		c0.028-0.473,0.057-0.945,0.084-1.416c0.119-0.082,0.129-0.177,0.034-0.285C80.57,59.281,80.614,58.804,80.658,58.325z"/>
	<path fill="#14100D" d="M87.513,63.562c-1.113-1.483-2.227-2.967-3.729-4.967c3.158,1,5.14,2.651,6.988,4.51
		c-0.072,0.318-0.146,0.637-0.216,0.955c-0.63-0.475-1.26-0.95-1.889-1.426C86.942,61.272,87.921,63.28,87.513,63.562z"/>
	<path fill="#14100D" d="M83.632,52.528c-0.008-0.554-1.19-0.666-0.549-1.463c1.649,1.4,2.801,3.209,4.002,4.969
		c0.36,0.528,0.583,1.161,1.32,1.282c0-0.002-0.028,0.126-0.028,0.126l0.124,0.041c-0.058,0.945-0.254,1.522-1.064,0.388
		C86.164,56.093,84.899,54.309,83.632,52.528z"/>
	<path fill="#9D2F19" d="M87.513,63.562c0.408-0.281-0.57-2.289,1.157-0.928c-0.817,1.339,0.502,2.02,1.076,2.739
		c0.247,0.31,0.685-0.737,0.811-1.314c0.07-0.317,0.144-0.637,0.216-0.955c0.854,1.225,0.448,3.223-0.735,3.72
		c-0.549,0.231-0.791-0.104-1.005-0.478C88.514,65.426,88.018,64.49,87.513,63.562z"/>
	<path fill="#14100D" d="M92.808,69.786c0.466-0.11,0.933-0.221,1.734-0.409c-0.801,1.11-1.387,1.958-2.615,2.033
		c-1.047-0.91-2.094-1.821-3.44-2.992c1.518-0.205,1.976,0.717,2.611,1.226C91.674,70.102,92.152,70.702,92.808,69.786z"/>
	<path fill="#9D2F19" d="M88.501,57.484l-0.124-0.041c0,0,0.028-0.128,0.028-0.126c-0.098-1.013,0.142-1.974,0.473-2.919
		c0.15-0.424-0.083-1.171,0.649-1.132c0.899,0.047,0.108,0.806,0.361,1.157c0.207,0.286,0.425,0.564,0.639,0.848
		c-0.077,0.077-0.161,0.085-0.252,0.022C89.017,55.484,89.541,57.116,88.501,57.484z"/>
	<path fill="#14100D" d="M90.273,55.292c0.09,0.063,0.177,0.054,0.252-0.023c1.369,1.025,1.966,2.374,1.699,4.566
		C91.461,58.055,90.867,56.675,90.273,55.292z"/>
	<path fill="#9D2F19" d="M78.439,62.26c-1.592-1.139-0.741-2.52-0.597-3.831c0.195-0.014,0.388-0.028,0.582-0.043
		c0,1.296,0,2.592,0,3.888L78.439,62.26z"/>
	<path fill="#9D2F19" d="M81.478,59.986c-0.071-0.408-0.105-0.806,0.29-1.089C81.906,59.325,81.8,59.685,81.478,59.986z"/>
	<path fill="#9D2F19" d="M80.407,61.459c0.024,0.084,0.057,0.167,0.066,0.252c0.002,0.02-0.074,0.046-0.114,0.068
		C80.263,61.656,80.281,61.548,80.407,61.459z"/>
	<path fill="#9D2F19" d="M78.425,62.275c0.048,0.021,0.095,0.041,0.143,0.061c-0.043-0.025-0.086-0.05-0.128-0.075L78.425,62.275z"
		/>
	<polygon fill="#9D2F19" points="77.993,56.182 77.906,56.318 78.012,56.199 	"/>
	<polygon fill="#9D2F19" points="80.455,63.219 80.563,63.322 80.526,63.466 80.387,63.366 	"/>
	<path fill="#9D2F19" d="M80.526,59.759c0.095,0.108,0.084,0.203-0.035,0.285c0-0.002-0.104-0.156-0.104-0.156L80.526,59.759z"/>
	<path fill="#9D2F19" d="M86.212,99.102c2.051-1.07,4.139-1.508,6.27-0.615c0.782,0.328,1.207,1.044,1.094,1.922
		c-0.07,0.562-0.177,1.174-0.47,1.632c-0.576,0.905-0.602,2.793-1.722,2.509c-0.755-0.192,0.347-1.766,0.667-2.709
		c0.566-1.675-0.058-2.634-1.86-2.725C88.867,99.048,87.537,99.102,86.212,99.102z"/>
	<path fill="#9D2F19" d="M91.009,106.48c-0.429,1.053-0.859,2.104-1.497,3.667c-0.3-1.882,0.645-2.781,0.898-3.899
		C90.609,106.325,90.81,106.4,91.009,106.48z"/>
	<path fill="#14100D" d="M37.281,87.843c-0.887-0.465-0.161-1.585-0.861-2.124C37.269,86.199,37.49,86.935,37.281,87.843z"/>
	<path fill="#14100D" d="M50.844,113.366c-0.556,0-0.918-0.027-1.274,0.004c-1.662,0.149-2.073-0.238-1.129-1.86
		c1.792-3.077,3.366-6.281,5.056-9.417c0.624-1.157,4.795-2.026,5.765-1.237c0.546,0.445,0.211,0.916-0.01,1.34
		c-1.774,3.42-3.589,6.822-5.345,10.253C53.121,113.984,51.748,113.115,50.844,113.366z"/>
	<path fill="#9D2F19" d="M53.849,118.021c-0.802,0.662-12.031,0.735-14.416,0.175c4.033-5.764,6.482-12.364,10.55-18.036
		c-1.383,4.959-3.864,9.396-6.303,13.842c-1.463,2.671-1.288,3.135,1.761,3.364C48.17,117.57,50.897,117.791,53.849,118.021z"/>
	<path fill="#14100D" d="M97.866,55.734c0.418,2.698-0.559,4.668-3.221,6.261C95.55,59.548,96.748,57.688,97.866,55.734z"/>
	<path fill="#3F286F" d="M111.785,89.145c0.103-1.519,1.003-3.038-0.013-4.555C113.992,85.766,113.997,87.287,111.785,89.145z"/>
	<path fill="#14100D" d="M50.626,86.91c-1.225,0.366-1.937,1.396-2.802,2.212c-0.805,0.756-1.633,1.361-2.79,1.336
		c2.524-2.521,4.941-5.179,8.418-6.456C53.25,85.688,51.38,85.758,50.626,86.91z"/>
	<path fill="#FDFDFD" d="M90.557,64.06c-0.126,0.578-0.562,1.625-0.811,1.314c-0.574-0.719-1.894-1.4-1.076-2.739
		C89.297,63.109,89.927,63.584,90.557,64.06z"/>
	
		<radialGradient id="SVGID_1_" cx="353.2129" cy="-249.1948" r="7.1511" fx="349.2468" fy="-247.8714" gradientTransform="matrix(1 0 0 -1 -231 -170)" gradientUnits="userSpaceOnUse">
		<stop  offset="0" style="stop-color:#FF8080"/>
		<stop  offset="1" style="stop-color:#BF0000"/>
	</radialGradient>
	<circle fill="url(#SVGID_1_)" cx="122.213" cy="79.195" r="7.151"/>
	<path fill="#EFC509" d="M131.478,86.213c-0.362,1.499-1.037,2.743-2.285,3.602c-0.525,0.361-0.966,0.118-1.271-0.371
		c-0.869-1.396-1.784-2.769-2.566-4.213c-0.44-0.821-0.274-1.656,0.5-2.322c0.797-0.688,1.397-0.297,2.075,0.207
		c0.9,0.668,1.881,1.23,2.788,1.888C131.117,85.294,131.427,85.715,131.478,86.213z"/>
	<path fill="#EFC509" d="M128.879,78.737c0.068-0.094,0.148-0.184,0.195-0.288c0.017-0.036-0.048-0.109-0.075-0.164
		c0.569-0.553-0.67-1.899,0.785-1.991c1.095-0.067,2.078,0.373,2.683,1.404c0.691,1.174,0.241,3.842-0.772,4.818
		c-0.606,0.587-1.111,0.484-1.658-0.048C128.973,81.433,128.646,80.175,128.879,78.737z"/>
	<path fill="#EFC509" d="M127.906,69.585c1.122-0.242,1.604,0.54,2.055,1.542c0.531,1.179,1.167,2.296,0.569,3.634
		c-0.028,0.063-0.075,0.123-0.128,0.17c-0.751,0.667-1.831,0.672-2.395,0.202c-1.255-1.046-2.352-2.341-2.099-4.224
		C126.063,69.794,126.814,69.562,127.906,69.585z"/>
	<path fill="#EFC509" d="M124.251,70.805c-2.894-0.122-4.053-0.981-4.046-2.645c0.006-1.693,1.393-1.513,2.283-1.456
		c1.462,0.096,3.164,0.283,3.291,2.341C125.861,70.334,125.015,70.781,124.251,70.805z"/>
	<g>
		<g>
			<path fill="#FFFFFF" d="M115.242,81.562c-0.139-0.031-0.212-0.055-0.215-0.056l0.07-0.237c0,0,0.071,0.021,0.199,0.05
				L115.242,81.562z"/>
		</g>
		<g>
			<path fill="#FFFFFF" d="M117.391,81.755l-0.006-0.247c0.135-0.002,0.271-0.009,0.408-0.016l0.015,0.246
				C117.669,81.749,117.528,81.753,117.391,81.755z M116.521,81.737c-0.14-0.01-0.28-0.021-0.417-0.037l0.027-0.246
				c0.133,0.014,0.27,0.025,0.406,0.033L116.521,81.737z M118.675,81.656l-0.036-0.247c0.135-0.021,0.271-0.04,0.404-0.064
				l0.044,0.244C118.95,81.614,118.812,81.635,118.675,81.656z M119.936,81.404l-0.063-0.24c0.132-0.034,0.265-0.07,0.394-0.109
				l0.07,0.237C120.205,81.332,120.07,81.37,119.936,81.404z M121.161,81.016l-0.09-0.232c0.127-0.049,0.255-0.102,0.38-0.154
				l0.096,0.229C121.419,80.913,121.29,80.966,121.161,81.016z M122.336,80.494l-0.111-0.223c0.119-0.062,0.241-0.124,0.36-0.191
				l0.12,0.219C122.583,80.366,122.458,80.433,122.336,80.494z M123.45,79.856l-0.135-0.21c0.115-0.071,0.229-0.147,0.34-0.226
				l0.142,0.204C123.684,79.703,123.565,79.781,123.45,79.856z M124.496,79.113l-0.152-0.197c0.107-0.082,0.215-0.168,0.32-0.256
				l0.157,0.192C124.715,78.941,124.604,79.029,124.496,79.113z M125.473,78.282l-0.168-0.183c0.1-0.093,0.198-0.188,0.296-0.283
				l0.174,0.178C125.676,78.092,125.574,78.188,125.473,78.282z M126.379,77.374l-0.184-0.168c0.093-0.1,0.185-0.202,0.275-0.304
				l0.187,0.163C126.564,77.17,126.472,77.273,126.379,77.374z M127.214,76.405l-0.193-0.156c0.084-0.106,0.169-0.215,0.254-0.323
				l0.196,0.153C127.387,76.187,127.301,76.298,127.214,76.405z"/>
		</g>
		<g>
			<path fill="#FFFFFF" d="M127.987,75.378l-0.203-0.144c0.04-0.058,0.082-0.114,0.122-0.174l0.204,0.144
				C128.068,75.264,128.028,75.321,127.987,75.378z"/>
		</g>
	</g>
	<g>
		<g>
			<path fill="#FFFFFF" d="M116.474,83.554c-0.139-0.025-0.212-0.046-0.217-0.048l0.066-0.24c0,0,0.068,0.02,0.199,0.044
				L116.474,83.554z"/>
		</g>
		<g>
			<path fill="#FFFFFF" d="M117.758,83.693c-0.142-0.007-0.282-0.013-0.419-0.023l0.02-0.247c0.134,0.011,0.271,0.018,0.407,0.021
				L117.758,83.693z M118.629,83.687l-0.014-0.248c0.135-0.007,0.271-0.016,0.407-0.027l0.022,0.247
				C118.904,83.67,118.766,83.681,118.629,83.687z M119.907,83.546l-0.041-0.245c0.132-0.022,0.267-0.048,0.4-0.075l0.051,0.244
				C120.182,83.499,120.043,83.524,119.907,83.546z M121.161,83.261l-0.068-0.24c0.128-0.037,0.26-0.076,0.388-0.12l0.079,0.237
				C121.428,83.182,121.293,83.222,121.161,83.261z M122.374,82.834l-0.095-0.231c0.124-0.05,0.25-0.105,0.374-0.16l0.104,0.225
				C122.631,82.725,122.5,82.782,122.374,82.834z M123.534,82.279l-0.119-0.217c0.119-0.066,0.238-0.133,0.355-0.202l0.125,0.212
				C123.776,82.145,123.655,82.213,123.534,82.279z M124.628,81.607l-0.14-0.204c0.112-0.075,0.224-0.155,0.335-0.235l0.146,0.2
				C124.856,81.45,124.741,81.53,124.628,81.607z M125.652,80.835l-0.157-0.191c0.103-0.086,0.207-0.177,0.311-0.266l0.164,0.186
				C125.865,80.655,125.758,80.747,125.652,80.835z M126.604,79.974l-0.173-0.177c0.096-0.094,0.192-0.191,0.287-0.291l0.179,0.172
				C126.8,79.779,126.702,79.879,126.604,79.974z M127.481,79.041l-0.188-0.163c0.089-0.103,0.179-0.206,0.266-0.312l0.191,0.158
				C127.662,78.832,127.572,78.938,127.481,79.041z M128.289,78.046l-0.199-0.149c0.082-0.109,0.164-0.219,0.246-0.33l0.201,0.146
				C128.455,77.825,128.371,77.938,128.289,78.046z"/>
		</g>
		<g>
			<path fill="#FFFFFF" d="M129.031,76.999l-0.205-0.138c0.038-0.06,0.075-0.118,0.113-0.177l0.209,0.134
				C129.11,76.879,129.071,76.94,129.031,76.999z"/>
		</g>
	</g>
	<path fill="#EFC509" d="M111.619,84.414c-0.867-1.244-0.827-2.402-0.08-3.783c1.536-2.844,0.537-5.777-0.054-8.664
		c-0.112-0.543-0.569-1.079,0.088-1.551c0.736-0.529,1.128,0.057,1.622,0.478c2.67,2.27,3.243,5.295,2.981,8.542
		c-0.097,1.191,0.131,2.031,0.962,2.896c1.048,1.096,1.993,2.333,1.244,4.054c-0.093,0.211,0.055,0.769,0.109,0.771
		c1.89,0.09,3.303,2.25,5.426,1.263c0.754-0.349,1.758-0.593,2.173,0.082c0.592,0.964-0.499,1.528-1.124,2.044
		c-1.521,1.256-3.196,1.892-5.297,1.821c-3.636-0.121-7.295-0.254-10.932,0.198c-0.223,0.026-0.479-0.229-0.751-0.368
		c0.579-1.315,2.582-0.542,2.834-2.122c0.505-0.121,1.023-0.229,0.966-0.932c2.212-1.857,2.207-3.379-0.013-4.556l-0.137-0.039
		L111.619,84.414z"/>
	<text transform="matrix(1.0621 0 0 1 78.0127 91.1963)" fill="#FFFFFF" font-family="'LucidaSans-DemiItalic'" font-size="8.7218">OTAGO</text>
</g>
</svg>
