<?xml version="1.0" encoding="utf-8"?>
<!-- Generator: Adobe Illustrator 16.0.0, SVG Export Plug-In . SVG Version: 6.00 Build 0)  -->
<!DOCTYPE svg PUBLIC "-//W3C//DTD SVG 1.1//EN" "http://www.w3.org/Graphics/SVG/1.1/DTD/svg11.dtd">
<svg version="1.1" id="flag-icon-css-am" xmlns="http://www.w3.org/2000/svg" xmlns:xlink="http://www.w3.org/1999/xlink" x="0px"
	 y="0px" width="150px" height="150px" viewBox="0 0 150 150" enable-background="new 0 0 150 150" xml:space="preserve">
<g>
	<path fill-rule="evenodd" clip-rule="evenodd" fill="#25211A" d="M125.47,83.818c-1.088-0.791-1.563-2.024-2.237-3.112
		c-0.498-0.803-0.891-1.692-2.028-1.8c-0.527-0.049-0.334-0.496-0.322-0.818c0.318-0.449,0.294-1.002,0.439-1.503
		c1.291-0.401,2.678-0.431,3.902-1.116c1.507-0.844,1.949-2.848,0.501-3.761c-0.026-0.708-0.56-0.797-1.08-0.836
		c-0.555-0.042-1.123,0.046-1.672-0.026c-1.018-0.135-1.416,0.308-1.643,1.275c-0.743,3.157-1.593,6.291-2.369,9.442
		c-0.258,1.05-0.721,1.644-1.938,1.495c-0.974-0.118-1.973-0.03-2.96-0.033c1.1-4.474,2.205-8.947,3.288-13.426
		c0.117-0.481,0.358-0.595,0.811-0.59c3.15,0.031,6.306-0.048,9.45,0.094c1.613,0.073,3.306,0.339,4.134,2.112
		c0.108,2.066-0.688,3.606-2.644,4.425c-0.708,0.296-1.468,0.471-2.187,0.747c-0.726,0.277-0.818,0.619-0.015,0.947
		c0.858,0.752,1.247,1.843,1.953,2.703c0.741,0.903,1.389,0.968,1.935,0.05c0.455-0.767,0.821-0.641,1.374-0.23
		c0.238,0.176,0.516,0.309,0.79,0.429c2.182,0.96,4.396,1.183,6.594,0.114c1.17-0.568,1.266-1.3,0.414-2.147
		c-0.03-0.473-0.383-0.697-0.757-0.775c-1.831-0.385-3.672-0.729-5.509-1.088l0.076-0.063l-0.068,0.07
		c0.012-0.264-0.163-0.33-0.377-0.357c-0.773-0.709-0.896-1.622-0.814-2.599c0.271-0.2,0.211-0.499,0.231-0.773
		c0.444-1.74,1.78-2.561,3.317-3.089c3.328-1.143,6.736-1.057,10.158-0.525c-0.077,0.756-0.58,1.308-1.009,1.853
		c-0.429,0.544-0.413,1.571-1.471,1.507c-0.121-0.513-0.455-0.855-0.891-1.116c-0.878-1.644-5.1-0.754-5.607,0.756
		c-0.141,0.419-0.321,0.95,0.377,1.135c0.145,0.71,0.731,0.896,1.305,1.062c1.269,0.365,2.563,0.646,3.813,1.065
		c1.307,0.437,2.538,1.034,2.96,2.538c-0.732,2.578-2.58,3.884-5.048,4.602c-2.987,0.866-5.923,0.761-8.869-0.136
		c-0.413-0.127-0.844-0.469-1.309,0.003C129.083,83.728,127.336,83.986,125.47,83.818z"/>
	<path fill-rule="evenodd" clip-rule="evenodd" fill="#25211A" d="M99.484,82.997c1.214-4.394,2.436-8.784,3.632-13.183
		c0.139-0.513,0.27-0.821,0.903-0.813c3.877,0.046,7.752,0.05,11.629,0.069c-0.051,1.752-0.081,1.783-1.838,1.784
		c-1.627,0.001-3.253-0.001-4.879,0.001c-1.703,0-2.819,1.977-2.048,3.625c0.324,0.52,0.846,0.32,1.291,0.329
		c1.887,0.033,3.772,0.038,5.66,0.054c-0.026,1.689-0.026,1.689-1.75,1.691c-0.903,0.002-1.81,0.039-2.712-0.009
		c-1.072-0.058-2.05,0.212-2.954,0.749c-1.372,0.813-1.802,2.947-0.809,3.908c2.393,0.001,4.788,0.001,7.182,0.002
		c-0.315,0.737,0.017,1.874-1.437,1.847C107.399,82.979,103.441,83.008,99.484,82.997z"/>
	<path fill-rule="evenodd" clip-rule="evenodd" fill="#3B352A" d="M43.052,55.827c0.118-1.417,0.854-1.877,2.271-1.75
		c1.575,0.143,3.173,0.015,4.76,0.039c0.879,0.013,1.733,0.018,2.619,0.33c0.715,0.251,1.478,0.437,2.441-0.2
		c0.834-0.551,2.32-0.246,3.513-0.043c0.548,1.419,1.599,2.195,3.085,2.415c-0.546,1.8-0.789,3.687-1.54,5.429
		c-0.646,0.09-1.096-0.207-1.568-0.629c-0.522-0.469-0.787-1.211-1.526-1.442c0.255-1.211,0.511-2.422,0.767-3.634
		c-0.274-1.286-1.298-0.7-2.004-0.736c-0.817-0.043-0.592,0.694-0.591,1.157c0.003,0.747-0.343,1.283-0.799,1.834
		c-0.801,0.971-1.962,1.18-3.037,1.59c-0.181,0.068-0.504,0.069-0.396,0.363c0.054,0.146,0.333,0.209,0.509,0.311
		c0.449,0.721,0.902,1.441,1.345,2.166c0.539,0.881,1.27,0.924,2.088,0.462c0.368-0.208,0.694-0.49,1.039-0.739
		c0.117,0.78,0.775,1.683-0.489,2.149c-0.379-0.06-0.704,0.094-1.024,0.262c-1.035-0.001-1.718-0.69-2.442-1.275
		c-1.586-1.283-3.359-2.169-5.351-2.614c0.023-0.316,0.047-0.634,0.071-0.951c1.042-0.204,2.112-0.312,3.058-0.854
		c1.134-0.65,1.386-1.546,0.787-2.761c-0.03-0.65-0.409-0.896-1.017-0.892c-0.602,0.005-1.204,0.02-1.805-0.005
		c-0.669-0.028-0.948,0.252-1.137,0.922c-0.405,1.429-0.567,2.931-1.223,4.289c-1.201,0.202-2.403,0.475-3.604-0.008
		C42.253,59.283,42.652,57.556,43.052,55.827z"/>
	<path fill-rule="evenodd" clip-rule="evenodd" fill="#27231C" d="M10.091,73.187c0.199,0.889,1.005,0.961,1.664,1.187
		c0.763,0.261,1.554,0.439,2.332,0.653c-0.163,2.332,0.237,4.643,0.262,6.967c-3.516,1.486-7.069,1.363-10.646,0.254
		c-0.077-0.862-0.146-1.726,0.041-2.584c0.086-0.002,0.173-0.003,0.26-0.006c1.976,1.06,4.04,1.696,6.314,1.304
		c0.772-0.134,1.532-0.333,2.131-0.854c0.62-0.542,0.953-1.157,0.083-1.797c-0.058-0.777-0.747-0.783-1.234-0.902
		c-1.857-0.449-3.754-0.731-5.572-1.344c-1.457-1.808-1.002-4.219,1.088-5.649c1.646-1.125,3.559-1.422,5.476-1.624
		c0.935-0.099,1.889-0.014,2.835-0.012c-0.026,0.643-0.625,1.122-0.513,1.803c-1.366-0.36-2.674-0.087-3.928,0.442
		C9.641,71.465,9.444,72.309,10.091,73.187z"/>
	<path fill-rule="evenodd" clip-rule="evenodd" fill="#363025" d="M62.536,69.065c1.672-0.095,3.34-0.142,4.957,0.421
		c0.859,0.3,1.674,0.663,2.049,1.589c0.194,2.502-0.94,4.085-3.32,4.813c-0.448,0.137-0.898,0.271-1.331,0.448
		c-0.391,0.159-0.761,0.376-0.192,0.792c1.071,1,1.486,2.474,2.525,3.495c-0.453,0.965-0.657,1.932-0.034,2.908
		c-1.312,0.484-2.64,0.264-3.967,0.094c0,0,0.042,0.027,0.042,0.026c-0.029-0.188-0.148-0.288-0.326-0.331
		c-0.817-0.735-1.189-1.765-1.76-2.662c-0.364-0.572-0.632-1.233-1.327-1.52c-1.125-0.618-1.064-1.562-0.706-2.586
		c1.296-0.263,2.634-0.347,3.835-0.999c1.597-0.869,1.977-2.08,1.081-3.576c-0.113-0.915-0.911-0.904-1.533-1.134
		C62.52,70.252,62.212,69.659,62.536,69.065z"/>
	<path fill-rule="evenodd" clip-rule="evenodd" fill="#25211A" d="M83.766,79.876c0.862-3.441,1.738-6.879,2.571-10.326
		c0.131-0.535,0.445-0.541,0.843-0.535c1.198,0.019,2.397,0.035,3.596,0.052c0.046,1.424-0.675,2.68-0.888,4.048
		c-0.073,0.482-0.391,0.968,0.159,1.37c0.687,0.664,1.538,0.223,2.307,0.332c0.503,0.07,1.018,0.063,1.526,0.09
		c-0.043,0.725,0.274,1.652-0.998,1.654c-2.719,0.004-4.227,1.496-4.874,4.02c-0.127,0.494-0.257,0.992-0.345,1.495
		c-0.125,0.72-0.516,1.001-1.249,0.971c-1.156-0.05-2.316-0.026-3.476-0.033c0.143-0.612,0.282-1.225,0.425-1.837
		C83.497,80.742,83.632,80.31,83.766,79.876z"/>
	<path fill-rule="evenodd" clip-rule="evenodd" fill="#27231C" d="M71.607,72.154c3.045-2.957,6.809-3.36,10.774-3.021
		c0.471,0.04,0.934,0.156,1.4,0.237c-0.486,1.647-1.206,3.137-2.74,4.081c-0.127-0.421-0.255-0.843-0.383-1.263
		c-0.067-0.857-0.722-0.979-1.374-1.068c-1.732-0.238-2.87,0.795-3.812,1.99c-1.132,1.439-2.142,2.991-1.553,5
		c0.045,0.063,0.056,0.131,0.034,0.203c0.015,0.375-0.146,0.785,0.224,1.088c1.057,1.68,2.601,2.129,4.369,1.227
		c0.566-0.289,1.184-0.592,1.591-1.054c0.968-1.103,1.771-0.775,2.602,0.107c0.062,0.53-0.188,0.899-0.608,1.183
		c-3.114,2.096-6.397,2.96-10.017,1.377c-0.063-0.749-0.193-1.459-0.051-2.258c0.327-1.85,0.433-3.742,0.303-5.628
		C72.312,73.572,72.356,72.715,71.607,72.154z"/>
	<path fill-rule="evenodd" clip-rule="evenodd" fill="#E8B61D" d="M47.619,67.454c3.568,1.79,5.575,5.885,4.984,10.171
		c-0.169,0.016-0.403-0.038-0.499,0.055c-1.095,1.051-2.353,1.835-3.715,2.495c-0.57,0.277-0.479,0.834-0.109,1.306
		c0.004,0.997,0.008,1.995,0.012,2.993c-0.082,0.149-0.196,0.218-0.366,0.147c-0.585-0.021-0.597-0.435-0.702-0.881
		c-0.203-0.853-0.19-1.777-0.771-2.524c-0.131-0.168-0.208-0.401-0.449-0.399c-0.289,0.002-0.261,0.271-0.327,0.467
		c-0.183,0.54-0.234,1.052-0.007,1.614c0.196,0.488,0.468,0.99,0.345,1.851c-0.866-1.019-0.677-2.3-1.482-3.054
		c-0.148,0.213-0.29,0.416-0.432,0.619c-0.278-0.204-0.496-0.445-0.496-0.818c-0.532-1.311-0.743-2.71-1.925-3.78
		c-1.31-1.188-1.626-3.648-0.943-4.762c0.357,0.682,0.714,1.363,1.071,2.047c0.431,0.69,0.524,1.592,1.298,2.068l0.003,0.007
		c-0.038,0.302-0.007,0.593,0.169,0.849c0.058,0.082,0.155,0.139,0.234,0.207c0.035-0.156,0.07-0.312,0.104-0.467
		c0.011-0.322,0.022-0.646,0.033-0.967c0.606,0.469,0.888,1.614,2.081,0.932c0.115-0.066,1.023,0.166,1.248,0.756
		c0.086,0.207,0.182,0.219,0.286,0.013c0.017-0.081,0.03-0.161,0.039-0.244c1.354,0.173,2.146-0.716,2.922-1.587
		c1.581-1.771,1.156-4.471-0.993-6.467c-1.374-1.277-4.15-1.066-5.659,0.188c-0.784,0.65-1.071,1.747-2.095,2.118
		c-0.431-0.211-0.465-0.698-0.718-1.033c-0.008-0.085-0.01-0.17-0.008-0.255c0.325-0.058,0.679-0.102,0.256-0.524
		c0.003-0.173,0.006-0.346,0.01-0.519c0.764,0.153,1.077-0.577,1.633-0.832c0.257,0.185,0.187,0.689,0.635,0.652
		c0.032-0.002,0.031-0.384,0.046-0.591c0.331-1.048,1.127-1.414,2.138-1.645C46.195,67.492,46.907,67.54,47.619,67.454z"/>
	<path fill-rule="evenodd" clip-rule="evenodd" fill="#911E25" d="M34.008,70.597c0.948-0.908,1.696-2.033,2.896-2.668
		c-0.022,0.127-0.012,0.273-0.072,0.379c-2.179,3.843-2.011,7.698,0.239,11.382c1.715,2.806,4.183,4.743,7.62,5.105
		c0.259,0.283,0.518,0.566,0.778,0.85c-1.735,0.995-3.615,0.743-5.351,0.275c-5.945-1.601-8.914-7.365-6.972-13.234
		c0.087-0.264,0.336-0.523,0.107-0.835l-0.018,0.037c0.424-0.008,0.395-0.247,0.27-0.533l-0.01,0.018
		c0.375-0.034,0.493-0.197,0.266-0.532l-0.003,0.005c0.346,0.17,0.266-0.099,0.278-0.271L34.008,70.597z"/>
	<path fill-rule="evenodd" clip-rule="evenodd" fill="#25211A" d="M95.145,74.783c0.43-1.622,0.902-3.234,1.275-4.869
		c0.151-0.667,0.386-0.956,1.101-0.913c1.117,0.068,2.239,0.046,3.358,0.062c-1.046,4.458-2.093,8.915-3.142,13.371
		c-0.146,0.617-0.648,0.599-1.13,0.599c-1.162,0.002-2.325,0.002-3.487,0.004c0.427-1.826,0.854-3.652,1.283-5.479
		C94.8,76.674,94.994,75.734,95.145,74.783z"/>
	<path fill-rule="evenodd" clip-rule="evenodd" fill="#363025" d="M18.497,77.355c0.053-3.53,2.153-5.604,5.072-7.064
		c0.602-0.301,1.276-0.457,1.917-0.68c0.03,1.304-1.156,2.258-1.031,3.589c-0.705,1.171-1.346,2.362-1.489,3.76
		c-0.083,0.814-0.18,1.615,0.607,2.18c0.636,1.561,1.266,1.948,3.18,1.956c-0.078,0.561-0.155,1.122-0.233,1.685
		c-0.906,0.408-1.836,0.23-2.774,0.157c-1.024-0.082-1.902-0.786-2.967-0.654l0.02,0.016c0.016-0.414-0.182-0.571-0.583-0.486
		l0.03,0.023c-0.015-0.181-0.112-0.282-0.293-0.302c0,0,0.046,0.041,0.046,0.04c-0.097-0.11-0.194-0.221-0.292-0.332
		c-0.502-0.437-0.806-0.986-0.945-1.633C18.607,78.866,18.39,78.13,18.497,77.355z"/>
	<path fill-rule="evenodd" clip-rule="evenodd" fill="#2D281F" d="M15.67,65.677c0.928-3.58,1.866-7.157,2.773-10.744
		c0.132-0.525,0.285-0.839,0.91-0.828c2.327,0.042,4.657-0.008,6.982,0.076c1.209,0.043,2.384,0.365,3.271,1.308
		c-0.401,0.238-0.806,0.47-1.204,0.713c-0.778,0.477-1.294,1.377-2.329,1.438c-0.094-0.545-0.485-0.879-0.866-1.222
		c-0.401-1.379-1.547-0.702-2.382-0.84c-0.837-0.138-0.97,0.558-1.128,1.133c-0.474,1.738-0.945,3.478-1.377,5.228
		C19.404,65.64,19.414,65.642,15.67,65.677z"/>
	<path fill-rule="evenodd" clip-rule="evenodd" fill="#C15A21" d="M44.69,84.795c-3.437-0.362-5.904-2.3-7.62-5.105
		c-2.25-3.684-2.418-7.539-0.239-11.382c0.06-0.105,0.05-0.251,0.072-0.379c0.314-0.388,0.736-0.599,1.203-0.738
		c0.125,0.437,0.25,0.875,0.375,1.313c0.224,0.533,0.741,0.925,0.751,1.561c-1.608,2.396-1.346,4.882-0.227,7.331
		c0.917,2.008,2.286,3.612,4.601,4.101c0,0.373,0.217,0.614,0.496,0.818C44.04,83.201,44.657,83.929,44.69,84.795z"/>
	<path fill-rule="evenodd" clip-rule="evenodd" fill="#41392C" d="M52.017,82.975c1.125-4.477,2.25-8.953,3.375-13.429
		c1.715-0.177,1.894,1.143,2.208,2.297c0.193,0.706,0.225,1.513,1.298,1.348c-0.773,3.079-1.564,6.153-2.306,9.241
		c-0.145,0.602-0.513,0.596-0.954,0.591C54.431,83.007,53.224,82.991,52.017,82.975z"/>
	<path fill-rule="evenodd" clip-rule="evenodd" fill="#27231C" d="M61.742,56.619c-1.486-0.22-2.537-0.996-3.085-2.415
		c3.884-0.134,7.768-0.141,11.652-0.009c-0.29,1.204-0.54,2.42-0.89,3.606c-0.188,0.635-0.091,1,0.567,1.154
		c0.886,0.007,1.77,0.015,2.653,0.021c-0.03,0.675,0.057,1.537-0.926,1.485c-1.417-0.073-2.428,0.487-3.219,1.587
		c-0.865,0.407-1.292-0.026-1.702-0.76c-0.352-0.63-0.538-1.491-1.486-1.596c0.049-1.158,0.736-2.2,0.624-3.388
		c-0.06-0.364-0.225-0.689-0.618-0.701C64.021,55.566,62.698,55.462,61.742,56.619z"/>
	<path fill-rule="evenodd" clip-rule="evenodd" fill="#27231C" d="M73.66,59.676c0.388-1.54,0.805-3.073,1.151-4.622
		c0.157-0.702,0.444-1.029,1.213-0.951c0.851,0.088,1.713,0.062,2.57,0.086c-0.599,2.578-1.186,5.159-1.801,7.734
		c-0.286,1.204-0.281,2.743-1.038,3.495c-0.797,0.79-2.377,0.155-3.609,0.264c0.227-1.578,0.933-3.054,1.01-4.664
		C73.185,60.518,73.859,60.261,73.66,59.676z"/>
	<path fill-rule="evenodd" clip-rule="evenodd" fill="#41392C" d="M35.033,58.677c0.05,0.067,0.068,0.141,0.057,0.224
		c-0.943,1.289-2.543,1.651-3.718,2.629c-0.56,0.465-0.91,1.31-1.834,1.266c0.226-0.903,0.451-1.806,0.676-2.706
		c0.326-0.336,0.097-0.763,0.182-1.14l0.016-0.029c0.247-0.462,0.555-0.909,0.385-1.479c0.549-0.755,0.574-1.69,0.843-2.538
		c0.164-0.514,0.319-0.821,0.931-0.811c3.17,0.053,6.34,0.075,9.51,0.107c0.115,1.067-0.365,1.437-1.423,1.385
		c-1.495-0.074-2.996-0.01-4.494-0.024c-0.576-0.005-1.099,0.124-1.11,0.774C35.041,57.116,33.907,57.897,35.033,58.677z"/>
	<path fill-rule="evenodd" clip-rule="evenodd" fill="#2D281F" d="M71.607,72.154c0.749,0.561,0.705,1.418,0.76,2.201
		c0.129,1.886,0.023,3.778-0.303,5.628c-0.142,0.799-0.011,1.509,0.051,2.258c-0.278-0.111-0.547-0.289-0.868-0.142l0.053-0.045
		L71.26,82.11c0.019-0.303-0.195-0.347-0.421-0.376c-0.296-0.173-0.493-0.51-0.88-0.531c-0.994,0.692-1.526,1.934-2.769,2.329
		c-0.623-0.977-0.418-1.943,0.034-2.908c0.465,0.128,0.951,0.21,1.39-0.02c0.403-0.21,1.102-0.22,0.821-1.022
		c-0.538-1.535-0.26-3.06,0.095-4.58c0.241-0.421,0.28-0.885,0.29-1.356C70.808,73.619,70.814,72.415,71.607,72.154z"/>
	<path fill-rule="evenodd" clip-rule="evenodd" fill="#3B352A" d="M29.538,62.796c0.924,0.043,1.274-0.801,1.834-1.266
		c1.174-0.978,2.775-1.34,3.718-2.629c1.81,0.028,3.621,0.057,5.432,0.086c0.165,1.198-0.366,1.627-1.544,1.515
		c-0.849-0.082-1.714,0.014-2.569-0.025c-0.755-0.034-1.446,0.107-2.078,0.521c-0.958,0.627-1.275,2.144-0.598,2.861
		c0.055,0.064,0.077,0.137,0.065,0.22c-0.211,0.509-0.602,0.958-0.533,1.563c-1.508-0.004-3.017-0.009-4.525-0.015
		C29.006,64.683,29.272,63.739,29.538,62.796z"/>
	<path fill-rule="evenodd" clip-rule="evenodd" fill="#363025" d="M26.073,57.641c1.035-0.061,1.551-0.961,2.329-1.438
		c0.398-0.243,0.802-0.476,1.204-0.713c0.292,0.171,0.514,0.395,0.571,0.746c-0.145,3.078-1.47,4.768-4.445,5.497
		c-1.452,0.356-2.944,0.547-4.449,0.56c0.074-0.402,0.147-0.804,0.222-1.207c0.629-0.104,1.265-0.181,1.888-0.317
		C25.36,60.336,26.005,59.572,26.073,57.641z"/>
	<path fill-rule="evenodd" clip-rule="evenodd" fill="#1A1A1A" d="M125.47,83.818c1.866,0.168,3.613-0.091,5-1.496
		c0.465-0.472,0.896-0.13,1.309-0.003c2.946,0.896,5.882,1.002,8.869,0.136c2.468-0.718,4.315-2.023,5.048-4.602
		c0.406,1.58,0.013,2.734-1.479,3.772c-2.622,1.826-5.582,2.402-8.727,2.107c-0.641-0.06-1.301-0.16-1.896-0.385
		c-1.461-0.55-2.685-0.452-4.013,0.563C128.078,85.057,126.851,84.88,125.47,83.818z"/>
	<path fill-rule="evenodd" clip-rule="evenodd" fill="#212121" d="M61.742,56.619c0.956-1.157,2.279-1.053,3.57-1.014
		c0.393,0.012,0.558,0.337,0.618,0.701c-3.882,0.227-3.357-0.022-4.351,3.674c-0.468,1.743-0.965,3.482-1.332,5.247
		c-0.199,0.96-0.651,1.306-1.569,1.149c-1.133-0.194-2.361,0.437-3.433-0.468c-0.249-0.209-0.573,0.276-0.851,0.456
		c-1.647,1.064-3.176,1.03-4.465-0.117c1.695,0.339,3.289,0.252,4.586-1.088c0.321-0.168,0.645-0.322,1.024-0.262
		c0.018,0.344-0.01,0.741,0.485,0.75c0.985,0.015,1.971,0.01,2.958-0.008c0.362-0.006,0.536-0.309,0.592-0.593
		c0.197-1.002,0.641-1.954,0.627-2.999C60.953,60.306,61.196,58.419,61.742,56.619z"/>
	<path fill-rule="evenodd" clip-rule="evenodd" fill="#2D281F" d="M14.349,81.994c-0.025-2.324-0.425-4.635-0.262-6.967
		c1.531,0.328,3.08,0.625,3.919,2.189C18.205,79.713,17.108,80.951,14.349,81.994z"/>
	<path fill-rule="evenodd" clip-rule="evenodd" fill="#2D281F" d="M65.306,59.694c0.948,0.104,1.134,0.966,1.486,1.596
		c0.41,0.734,0.837,1.167,1.702,0.76c-1.059,3.707-1.059,3.707-4.741,3.599C64.188,63.642,64.668,61.647,65.306,59.694z"/>
	<path fill-rule="evenodd" clip-rule="evenodd" fill="#41392C" d="M54.515,65.161c-1.297,1.34-2.891,1.427-4.586,1.088
		c-0.769-0.655-1.142-1.582-1.668-2.405c-0.336-0.526-0.553-1.2-1.315-1.309c-0.008-0.433-0.837-0.721-0.223-1.264
		c1.992,0.445,3.765,1.332,5.351,2.614C52.797,64.47,53.48,65.16,54.515,65.161z"/>
	<path fill-rule="evenodd" clip-rule="evenodd" fill="#212121" d="M52.017,82.975c1.207,0.017,2.414,0.032,3.621,0.048
		c0.441,0.005,0.81,0.011,0.954-0.591c0.742-3.088,1.532-6.162,2.306-9.241c0.839-2.324,0.839-2.324,3.379-2.34
		c0.084,0,0.168-0.003,0.253-0.006c0.622,0.23,1.42,0.219,1.533,1.134c-1.158-0.665-2.421-0.282-3.637-0.354
		c-0.394-0.024-0.437,0.329-0.507,0.62c-0.331,1.365-0.665,2.73-0.997,4.097c-0.363,0.806-0.55,1.657-0.669,2.526
		c-0.361,1.359-0.759,2.71-1.067,4.082c-0.14,0.626-0.411,0.829-1.037,0.802c-1.149-0.05-2.303-0.016-3.454-0.029
		C52.219,83.716,51.656,83.755,52.017,82.975z"/>
	<path fill-rule="evenodd" clip-rule="evenodd" fill="#1A1A1A" d="M14.349,81.994c2.759-1.043,3.856-2.281,3.657-4.777
		c0.163,0.046,0.327,0.092,0.491,0.139c-0.106,0.774,0.11,1.511,0.266,2.255c-0.924,0.713-1.368,1.87-2.465,2.462
		c-2.024,1.092-4.179,1.606-6.44,1.745c-1.875,0.113-3.691-0.293-5.495-0.745c-0.404-0.101-0.92-0.166-0.66-0.824
		C7.28,83.357,10.833,83.48,14.349,81.994z"/>
	<path fill-rule="evenodd" clip-rule="evenodd" fill="#212121" d="M114.063,83.024c0.987,0.003,1.986-0.085,2.96,0.033
		c1.217,0.148,1.68-0.445,1.938-1.495c0.776-3.151,1.626-6.285,2.369-9.442c0.227-0.967,0.625-1.411,1.643-1.275
		c0.549,0.073,1.117-0.015,1.672,0.026c0.521,0.039,1.054,0.129,1.08,0.836c-0.979-0.033-1.96-0.045-2.938-0.108
		c-0.547-0.035-0.749,0.227-0.86,0.71c-0.322,1.412-0.675,2.815-1.016,4.224c-0.183,0.515-0.365,1.029-0.548,1.544
		c-0.392,1.659-0.792,3.318-1.167,4.981c-0.112,0.497-0.349,0.704-0.878,0.69c-1.236-0.033-2.476,0.005-3.715-0.022
		C114.198,83.719,113.628,83.729,114.063,83.024z"/>
	<path fill-rule="evenodd" clip-rule="evenodd" fill="#212121" d="M93.12,83.037c1.162-0.002,2.325-0.002,3.487-0.004
		c0.481,0,0.983,0.019,1.13-0.599c1.049-4.456,2.096-8.914,3.142-13.371c0.743-0.2,0.691,0.28,0.584,0.727
		c-1.088,4.464-2.188,8.924-3.277,13.387c-0.097,0.395-0.298,0.571-0.715,0.566c-1.289-0.017-2.577,0.007-3.866-0.019
		C93.206,83.718,92.757,83.634,93.12,83.037z"/>
	<path fill-rule="evenodd" clip-rule="evenodd" fill="#3B352A" d="M62.531,70.845c-0.084,0.003-0.169,0.006-0.253,0.006
		c-2.541,0.016-2.541,0.016-3.379,2.34c-1.074,0.166-1.106-0.642-1.299-1.348c-0.314-1.155-0.493-2.474-2.208-2.297
		c0.014-0.594,0.448-0.518,0.83-0.516c2.105,0.01,4.209,0.023,6.315,0.036C62.212,69.659,62.52,70.252,62.531,70.845z"/>
	<path fill-rule="evenodd" clip-rule="evenodd" fill="#212121" d="M72.146,65.682c1.232-0.109,2.813,0.526,3.609-0.264
		c0.757-0.751,0.752-2.291,1.038-3.495c0.615-2.575,1.202-5.156,1.801-7.734c0.781-0.243,0.672,0.306,0.574,0.71
		c-0.876,3.647-1.571,7.359-2.768,10.899c-0.468,1.386-2.381,0.306-3.61,0.555C72.41,66.432,71.808,66.433,72.146,65.682z"/>
	<path fill-rule="evenodd" clip-rule="evenodd" fill="#212121" d="M82.938,83.013c1.159,0.007,2.319-0.017,3.476,0.033
		c0.733,0.03,1.124-0.251,1.249-0.971c0.088-0.503,0.218-1.001,0.345-1.495c0.647-2.523,2.155-4.016,4.874-4.02
		c1.272-0.002,0.955-0.93,0.998-1.654c0.298-0.127,0.586-0.186,0.815,0.126c-0.311,0.784-0.105,1.798-1.028,2.31
		c-0.547-0.035-1.088-0.01-1.606,0.188c-0.188-0.109-0.341-0.072-0.464,0.105c-1.026,0.01-1.638,0.627-2.116,1.443
		c-0.704,1.2-1.121,2.507-1.379,3.86c-0.12,0.629-0.389,0.843-1.027,0.815c-1.156-0.051-2.316,0.005-3.474-0.027
		C83.203,83.716,82.5,83.855,82.938,83.013z"/>
	<path fill-rule="evenodd" clip-rule="evenodd" fill="#1A1A1A" d="M105.61,81.203c-0.993-0.961-0.563-3.096,0.809-3.908
		c0.904-0.537,1.882-0.807,2.954-0.749c0.902,0.048,1.809,0.011,2.712,0.009c1.724-0.002,1.724-0.002,1.75-1.691
		c0.242-0.045,0.533-0.205,0.699,0.076c0.429,0.73-0.543,2.455-1.378,2.461c-1.51,0.01-3.021-0.037-4.529,0.016
		C106.617,77.486,105.341,79.126,105.61,81.203z"/>
	<path fill-rule="evenodd" clip-rule="evenodd" fill="#212121" d="M63.754,65.648c3.682,0.107,3.682,0.107,4.741-3.599
		c0.792-1.1,1.803-1.66,3.219-1.587c0.982,0.052,0.896-0.81,0.926-1.485c0.343-0.113,0.566-0.049,0.545,0.371
		c-0.019,0.368,0.208,0.376,0.476,0.328c0.199,0.585-0.476,0.842-0.504,1.342c-3.358,0.194-4.077,0.763-4.864,4.181
		c-0.217,0.94-0.58,1.293-1.535,1.194c-0.812-0.085-1.64-0.002-2.459-0.027C63.865,66.353,63.322,66.349,63.754,65.648z"/>
	<path fill-rule="evenodd" clip-rule="evenodd" fill="#1A1A1A" d="M71.248,82.099c0.321-0.147,0.589,0.03,0.868,0.142
		c3.619,1.583,6.902,0.719,10.017-1.377c0.421-0.283,0.67-0.652,0.608-1.183c0.349,0.028,0.617,0.482,1.025,0.195
		c-0.134,0.434-0.269,0.866-0.402,1.3c-0.593-0.17-0.801,0.396-1.147,0.644C78.817,84.249,74.104,84.384,71.248,82.099z"/>
	<path fill-rule="evenodd" clip-rule="evenodd" fill="#1A1A1A" d="M20.779,82.284c1.065-0.132,1.943,0.572,2.967,0.654
		c0.938,0.073,1.868,0.251,2.774-0.158c2.313-0.176,4.22-1.149,5.722-2.916c0.496,0.278,0.854,0.501,0.266,1.125
		C29.684,83.988,24.067,84.631,20.779,82.284z"/>
	<path fill-rule="evenodd" clip-rule="evenodd" fill="#3B352A" d="M24.455,73.201c-0.125-1.332,1.061-2.285,1.031-3.589
		c1.71-0.422,3.417-0.922,5.183-0.269c-0.169,0.897-1.016,1.203-1.555,1.776C27.066,70.708,25.786,72.011,24.455,73.201z"/>
	<path fill-rule="evenodd" clip-rule="evenodd" fill="#41392C" d="M32.242,79.864c-1.502,1.767-3.409,2.74-5.722,2.916
		c0.078-0.562,0.155-1.123,0.233-1.684c0.891-0.381,1.76-0.791,2.54-1.384C30.762,78.597,30.771,78.607,32.242,79.864z"/>
	<path fill-rule="evenodd" clip-rule="evenodd" fill="#1A1A1A" d="M15.67,65.677c3.743-0.035,3.733-0.037,4.649-3.736
		c0.433-1.75,0.903-3.49,1.377-5.228c0.158-0.576,0.291-1.271,1.128-1.133c0.835,0.138,1.981-0.54,2.382,0.84
		c-0.636-0.069-1.271-0.143-1.907-0.205c-0.473-0.047-0.802,0.063-0.928,0.62c-0.32,1.415-0.695,2.819-1.047,4.227
		c-0.322,0.486-0.48,1.019-0.447,1.604c-0.393,1.245-0.787,2.49-1.178,3.734c-1.221-0.096-2.444-0.162-3.667,0.007
		C15.657,66.292,15.454,66.088,15.67,65.677z"/>
	<path fill-rule="evenodd" clip-rule="evenodd" fill="#1A1A1A" d="M40.706,65.881c-0.017-0.05-0.041-0.099-0.047-0.151
		c-0.002-0.022,0.034-0.048,0.052-0.072c0.937,0,1.874-0.018,2.81,0.011c0.534,0.016,0.935-0.127,1.062-0.681
		c0.303-1.32,0.585-2.646,0.875-3.969c0.656-1.357,0.817-2.859,1.223-4.289c0.189-0.669,0.467-0.95,1.137-0.922
		c0.601,0.025,1.203,0.011,1.805,0.005c0.608-0.004,0.987,0.242,1.017,0.892c-2.307-0.901-3.13-0.501-3.728,1.831
		c-0.146,0.573-0.257,1.154-0.384,1.731c-0.31,0.634-0.493,1.3-0.512,2.007c-0.368,1.336-0.736,2.672-1.105,4.008
		c-0.854-0.084-1.708-0.214-2.57-0.088c-0.311-0.186-0.641-0.117-0.969-0.073C41.15,66.042,40.928,65.961,40.706,65.881z"/>
	<path fill-rule="evenodd" clip-rule="evenodd" fill="#1A1A1A" d="M106.884,74.48c-0.771-1.648,0.345-3.625,2.048-3.625
		c1.626-0.002,3.252,0,4.879-0.001c1.757-0.001,1.787-0.031,1.838-1.784c0.282-0.04,0.62-0.204,0.734,0.235
		c0.267,1.039-0.619,2.195-1.676,2.196c-1.886,0.003-3.773,0.048-5.656-0.02c-0.873-0.03-1.346,0.172-1.505,1.098
		C107.436,73.232,107.113,73.848,106.884,74.48z"/>
	<path fill-rule="evenodd" clip-rule="evenodd" fill="#2D281F" d="M14.612,70.582c-0.112-0.682,0.487-1.161,0.513-1.803
		c1.223-0.052,2.443-0.062,3.631,0.31c-0.544,1.354-1.146,2.67-2.361,3.582c-0.227-0.439-0.289-0.976-0.759-1.27
		C15.59,70.758,15.077,70.7,14.612,70.582z"/>
	<path fill-rule="evenodd" clip-rule="evenodd" fill="#1A1A1A" d="M24.455,73.201c1.331-1.189,2.612-2.493,4.658-2.083
		c0.032,0.343,0.874,0.202,0.48,0.801c-0.908-0.432-1.775-0.269-2.552,0.279c-2.394,1.687-3.866,3.853-3.467,6.942
		c-0.787-0.564-0.691-1.365-0.607-2.18C23.108,75.563,23.75,74.372,24.455,73.201z"/>
	<path fill-rule="evenodd" clip-rule="evenodd" fill="#D98C20" d="M44.69,84.795c-0.033-0.866-0.65-1.594-0.587-2.481
		c0.142-0.203,0.284-0.406,0.432-0.619c0.805,0.754,0.616,2.035,1.482,3.054c0.123-0.86-0.148-1.362-0.345-1.851
		c-0.228-0.563-0.176-1.074,0.007-1.614c0.066-0.196,0.038-0.465,0.327-0.467c0.241-0.002,0.317,0.231,0.449,0.399
		c0.58,0.747,0.568,1.672,0.771,2.524c0.105,0.446,0.117,0.86,0.702,0.881c-0.674,0.69-1.468,1.093-2.458,1.025
		C45.208,85.361,44.949,85.078,44.69,84.795z"/>
	<path fill-rule="evenodd" clip-rule="evenodd" fill="#41392C" d="M29.593,71.919c0.394-0.599-0.448-0.458-0.48-0.801
		c0.539-0.573,1.386-0.878,1.555-1.776c0.87-0.067,1.743-0.229,2.605,0.058c-0.411,1.19-1.323,2.08-1.904,3.168
		c-0.217,0.405-0.368,0.901-0.975,0.879C30.237,72.881,30.055,72.327,29.593,71.919z"/>
	<path fill-rule="evenodd" clip-rule="evenodd" fill="#1A1A1A" d="M73.921,78.109c-0.589-2.009,0.421-3.561,1.553-5
		c0.941-1.195,2.079-2.228,3.812-1.99c0.652,0.089,1.307,0.21,1.374,1.068c-1.063-0.775-2.088-0.565-3.094,0.12
		C75.506,73.71,74.479,75.762,73.921,78.109z"/>
	<path fill-rule="evenodd" clip-rule="evenodd" fill="#212121" d="M35.033,58.677c-1.126-0.78,0.008-1.562,0.021-2.34
		c0.011-0.65,0.534-0.779,1.11-0.774c1.498,0.015,3-0.05,4.494,0.024c1.058,0.052,1.538-0.317,1.423-1.385
		c0.544-0.232,0.803-0.072,0.716,0.534c-0.053,0.366-0.128,0.729-0.193,1.093c-0.231,0.548-0.696,0.529-1.185,0.525
		c-1.465-0.016-2.936,0.065-4.395-0.031c-1.005-0.066-1.52,0.24-1.644,1.248C35.333,57.948,35.153,58.31,35.033,58.677z"/>
	<path fill-rule="evenodd" clip-rule="evenodd" fill="#D98C20" d="M48.28,81.48c-0.37-0.472-0.461-1.028,0.109-1.306
		c1.362-0.66,2.62-1.444,3.715-2.495c0.096-0.093,0.33-0.039,0.499-0.055c-0.144,1.218-0.428,2.387-1.168,3.397
		c-0.415-0.582-0.846-0.173-1.214,0.028C49.605,81.388,48.977,81.562,48.28,81.48z"/>
	<path fill-rule="evenodd" clip-rule="evenodd" fill="#1A1A1A" d="M99.484,82.997c3.957,0.011,7.915-0.018,11.871,0.055
		c1.453,0.027,1.121-1.109,1.437-1.847c0.226-0.031,0.564-0.213,0.464,0.267c-0.126,0.606-0.441,1.154-0.404,1.816
		c0.027,0.497-0.441,0.435-0.775,0.435c-3.971,0.004-7.942,0.008-11.913-0.01C99.764,83.711,99.09,83.819,99.484,82.997z"/>
	<path fill-rule="evenodd" clip-rule="evenodd" fill="#1A1A1A" d="M21.283,62.291c1.505-0.012,2.997-0.203,4.449-0.56
		c2.975-0.729,4.3-2.419,4.445-5.497c0.403,0.302,0.286,0.845,0.562,1.204c-0.479,0.413-0.242,0.983-0.327,1.482l-0.016,0.029
		c-0.204,0.377-0.408,0.753-0.613,1.13c-0.675,1.085-1.678,1.72-2.872,2.087c-0.13-0.068-0.219-0.038-0.251,0.115
		c-0.676,0.154-1.354,0.307-2.029,0.46c-0.112-0.128-0.212-0.134-0.294,0.033c-1.071,0.133-2.142,0.263-3.208-0.007
		C21.181,62.611,21.232,62.451,21.283,62.291z"/>
	<path fill-rule="evenodd" clip-rule="evenodd" fill="#1A1A1A" d="M132.743,72.667c-0.021,0.274,0.04,0.573-0.231,0.773
		c-0.198-0.013-0.464-0.122-0.518,0.176c-0.279,1.557-1.465,2.231-2.735,2.799c-0.769,0.344-1.57,0.614-2.357,0.918
		c-0.804-0.328-0.711-0.67,0.015-0.947c0.719-0.276,1.479-0.451,2.187-0.747c1.955-0.819,2.752-2.359,2.644-4.425
		c0.381,0.378,0.393,0.88,0.455,1.365C132.282,73.225,132.543,72.759,132.743,72.667z"/>
	<path fill-rule="evenodd" clip-rule="evenodd" fill="#D98C20" d="M42.34,66.195c0.862-0.126,1.715,0.004,2.57,0.088
		c0.919,0.353,1.922,0.513,2.708,1.17c-0.711,0.085-1.423,0.038-2.145,0.204c-1.011,0.231-1.807,0.597-2.138,1.645
		c-0.165-0.346-0.329-0.691-0.493-1.037C43.373,67.406,42.531,66.88,42.34,66.195z"/>
	<path fill-rule="evenodd" clip-rule="evenodd" fill="#1A1A1A" d="M28.739,65.625c1.509,0.006,3.017,0.011,4.525,0.017
		c1.49,0.008,2.987-0.07,4.467,0.05c1.235,0.101,1.92-0.27,2.01-1.542c0.492-0.127,0.626,0.131,0.527,0.542
		c-0.129,0.528-0.308,1.045-0.465,1.567c-0.423,0.004-0.857-0.117-1.266,0.097c-2.998,0.004-5.994,0.021-8.992-0.002
		C29.151,66.351,28.325,66.614,28.739,65.625z"/>
	<path fill-rule="evenodd" clip-rule="evenodd" fill="#1A1A1A" d="M81.042,73.451c1.534-0.944,2.254-2.434,2.74-4.081
		c0.919-0.081,1.234,0.149,0.636,1.045c-0.93,1.392-1.792,2.829-2.699,4.235c-0.146,0.229-0.229,0.589-0.73,0.506
		C80.837,74.6,81.018,74.023,81.042,73.451z"/>
	<path fill-rule="evenodd" clip-rule="evenodd" fill="#1A1A1A" d="M30.394,73.448c0.607,0.021,0.758-0.475,0.975-0.879
		c0.582-1.088,1.493-1.978,1.904-3.168c0.423-0.021,0.945-0.133,0.586,0.601c-0.124,0.251-0.192,0.47,0.148,0.596l0.026-0.024
		c-0.314-0.137-0.412-0.05-0.278,0.271l0.003-0.005c-0.178-0.11-0.307-0.067-0.399,0.121c-0.09,0.183-0.048,0.318,0.133,0.411
		l0.01-0.018c-0.144-0.069-0.279-0.111-0.385,0.065c-0.118,0.198-0.094,0.354,0.115,0.468l0.018-0.037
		c-0.41-0.411-0.505,0.08-0.628,0.262c-0.526,0.776-0.998,1.59-1.524,2.365c-0.163,0.241-0.216,0.748-0.689,0.551
		c-0.523-0.217-0.246-0.607-0.127-0.958C30.349,73.874,30.359,73.657,30.394,73.448z"/>
	<path fill-rule="evenodd" clip-rule="evenodd" fill="#C15A21" d="M38.538,66.356c0.409-0.213,0.843-0.093,1.266-0.097
		c0.224-0.005,0.449-0.011,0.674-0.015c0.234,0.745,1.022,1.062,1.347,1.737c-1.263,0.315-1.229,1.128-0.803,2.093
		c-0.003,0.173-0.006,0.345-0.009,0.519c-0.169-0.002-0.339-0.005-0.509-0.007c-0.33-0.688-0.662-1.374-0.992-2.061
		c-0.013-0.08-0.024-0.159-0.033-0.238c-0.075-0.105-0.15-0.209-0.225-0.314c-0.13-0.5-0.296-0.981-0.732-1.311
		C38.527,66.56,38.533,66.458,38.538,66.356z"/>
	<path fill-rule="evenodd" clip-rule="evenodd" fill="#1A1A1A" d="M67.19,83.532c1.243-0.396,1.775-1.637,2.769-2.329
		c-1.092,3.167-4.313,4.453-6.587,2.626c-0.063-0.051-0.1-0.135-0.148-0.203C64.55,83.796,65.878,84.017,67.19,83.532z"/>
	<path fill-rule="evenodd" clip-rule="evenodd" fill="#1A1A1A" d="M69.82,73.646c-0.009,0.471-0.049,0.935-0.29,1.356
		c-0.4-0.02-0.583,0.32-0.852,0.518c-1.19,0.871-2.504,1.441-3.979,1.609c-0.569-0.416-0.198-0.633,0.192-0.792
		c0.432-0.177,0.883-0.312,1.331-0.448c2.38-0.728,3.515-2.311,3.32-4.813C70.204,71.871,70.135,72.745,69.82,73.646z"/>
	<path fill-rule="evenodd" clip-rule="evenodd" fill="#C15A21" d="M48.28,81.48c0.697,0.081,1.325-0.093,1.94-0.43
		c0.368-0.201,0.799-0.61,1.214-0.028c-0.734,1.437-1.72,2.642-3.142,3.451C48.289,83.476,48.284,82.478,48.28,81.48z"/>
	<path fill-rule="evenodd" clip-rule="evenodd" fill="#1A1A1A" d="M14.612,70.582c0.465,0.118,0.978,0.176,1.023,0.818
		c-1.236-0.342-2.471-0.326-3.706,0.008c-0.939,0.255-1.638,0.759-1.838,1.778c-0.647-0.878-0.451-1.722,0.592-2.163
		C11.938,70.495,13.246,70.222,14.612,70.582z"/>
	<path fill-rule="evenodd" clip-rule="evenodd" fill="#1A1A1A" d="M143.739,72.413c1.058,0.064,1.042-0.962,1.471-1.507
		c0.429-0.545,0.932-1.097,1.009-1.853c0.556-0.053,0.893,0.188,0.589,0.718c-0.844,1.468-1.761,2.892-2.701,4.419
		C143.56,73.52,143.864,72.933,143.739,72.413z"/>
	<path fill-rule="evenodd" clip-rule="evenodd" fill="#1A1A1A" d="M137.618,73.188c-0.698-0.185-0.518-0.715-0.377-1.135
		c0.508-1.51,4.729-2.4,5.607-0.756c-1.15-0.2-2.291-0.205-3.424,0.118C138.498,71.68,137.814,72.183,137.618,73.188z"/>
	<path fill-rule="evenodd" clip-rule="evenodd" fill="#1A1A1A" d="M16.394,72.67c1.215-0.911,1.817-2.228,2.361-3.582
		c0.751,0.151,0.98,0.42,0.443,1.149c-0.657,0.892-1.154,1.898-1.781,2.813c-0.238,0.347-0.325,1.102-0.875,0.894
		C16.064,73.763,16.417,73.112,16.394,72.67z"/>
	<path fill-rule="evenodd" clip-rule="evenodd" fill="#1A1A1A" d="M5.726,76.064c1.818,0.612,3.715,0.895,5.572,1.344
		c0.487,0.119,1.176,0.125,1.234,0.902c-1.426-0.303-2.861-0.572-4.276-0.921C7.318,77.158,6.307,77.005,5.726,76.064z"/>
	<path fill-rule="evenodd" clip-rule="evenodd" fill="#212121" d="M90.047,74.484c-0.55-0.401-0.232-0.887-0.159-1.37
		c0.213-1.368,0.934-2.624,0.888-4.048c0.762-0.196,0.793,0.194,0.631,0.769C90.969,71.39,90.68,72.987,90.047,74.484z"/>
	<path fill-rule="evenodd" clip-rule="evenodd" fill="#1A1A1A" d="M69.986,58.956c-0.658-0.155-0.755-0.52-0.567-1.154
		c0.35-1.186,0.6-2.402,0.89-3.606c1.104-0.18,0.542,0.595,0.489,0.949C70.605,56.429,69.935,57.614,69.986,58.956z"/>
	<path fill-rule="evenodd" clip-rule="evenodd" fill="#41392C" d="M38.521,66.661c0.437,0.33,0.602,0.811,0.732,1.312
		c0.075,0.105,0.15,0.209,0.225,0.314c0.009,0.08,0.02,0.159,0.032,0.238c-0.343-0.008-0.687-0.015-1.029-0.022
		c-0.125-0.437-0.25-0.875-0.375-1.313C38.245,67.015,38.383,66.838,38.521,66.661z"/>
	<path fill-rule="evenodd" clip-rule="evenodd" fill="#1A1A1A" d="M74.179,79.4c-0.369-0.303-0.209-0.713-0.224-1.088
		C74.403,78.598,74.29,79,74.179,79.4z"/>
	<path fill-rule="evenodd" clip-rule="evenodd" fill="#1A1A1A" d="M20.216,81.813c0.4-0.085,0.599,0.072,0.583,0.486
		C20.604,82.138,20.41,81.976,20.216,81.813z"/>
	<path fill-rule="evenodd" clip-rule="evenodd" fill="#1A1A1A" d="M70.839,81.734c0.226,0.029,0.439,0.073,0.421,0.376
		C71.12,81.985,70.98,81.859,70.839,81.734z"/>
	<path fill-rule="evenodd" clip-rule="evenodd" fill="#1A1A1A" d="M4.004,79.658c-0.087,0.003-0.174,0.004-0.26,0.006
		c0.032-0.063,0.064-0.126,0.096-0.189C3.895,79.536,3.949,79.598,4.004,79.658z"/>
	<path fill-rule="evenodd" clip-rule="evenodd" fill="#1A1A1A" d="M19.708,81.243c0.098,0.111,0.195,0.222,0.292,0.332
		C19.902,81.465,19.805,81.354,19.708,81.243z"/>
	<path fill-rule="evenodd" clip-rule="evenodd" fill="#1A1A1A" d="M19.954,81.535c0.181,0.02,0.278,0.121,0.293,0.302
		C20.149,81.736,20.051,81.636,19.954,81.535z"/>
	<path fill-rule="evenodd" clip-rule="evenodd" fill="#1A1A1A" d="M62.939,83.321c0.177,0.043,0.297,0.143,0.326,0.331
		C63.157,83.542,63.048,83.432,62.939,83.321z"/>
	<path fill-rule="evenodd" clip-rule="evenodd" fill="#1A1A1A" d="M139.961,78.252c-1.456-0.304-2.92-0.572-4.364-0.93
		c-0.683-0.168-1.417-0.32-1.901-0.934c1.837,0.359,3.678,0.703,5.509,1.088C139.578,77.555,139.931,77.779,139.961,78.252z"/>
	<path fill-rule="evenodd" clip-rule="evenodd" fill="#1A1A1A" d="M133.703,76.396c-0.127-0.119-0.251-0.238-0.377-0.357
		C133.54,76.066,133.715,76.133,133.703,76.396z"/>
	<path fill-rule="evenodd" clip-rule="evenodd" fill="#363025" d="M56.028,62.75c0.701-0.792,0.647-1.877,1.079-2.773
		c0.739,0.23,1.004,0.973,1.526,1.442c0.472,0.423,0.923,0.719,1.568,0.629c0.013,1.045-0.43,1.997-0.627,2.999
		c-0.056,0.285-0.23,0.587-0.592,0.593c-0.986,0.018-1.972,0.023-2.958,0.008c-0.495-0.008-0.467-0.405-0.485-0.75
		C56.803,64.432,56.145,63.529,56.028,62.75z"/>
	<path fill-rule="evenodd" clip-rule="evenodd" fill="#41392C" d="M45.458,61.019c-0.29,1.324-0.572,2.649-0.875,3.969
		c-0.127,0.554-0.528,0.697-1.062,0.681c-0.936-0.029-1.873-0.011-2.81-0.011c0.38-1.549,0.762-3.098,1.143-4.646
		C43.054,61.494,44.256,61.221,45.458,61.019z"/>
	<path fill-rule="evenodd" clip-rule="evenodd" fill="#F9EAB1" d="M46.981,78.385c-0.225-0.59-1.133-0.822-1.248-0.756
		c-1.193,0.683-1.475-0.463-2.082-0.93c-0.075-0.873-0.593-1.588-0.865-2.391c-0.404-1.191-0.05-2.227,1.051-2.94
		c0.381,0.599,0.521,1.342,1.098,1.822l-0.011-0.017c0.012,0.288-0.075,0.607,0.254,0.792c0.342,0.171,0.51,0.454,0.517,0.83
		c0.01,0.514-0.087,1.111,0.63,1.222c0.64,0.098,1.26,0.111,1.8-0.43c0.809-0.811,1.004-2.321,0.327-3.156
		c-0.857-1.058-2.262-1.161-3.547-0.261c-0.153-0.294-0.305-0.589-0.458-0.884c-0.126-0.762,0.424-0.981,0.972-1.135
		c1.833-0.518,4.229,0.533,4.818,2.088c0.802,2.12-0.189,4.449-2.094,5.162c-0.333,0.125-0.963,0.059-0.836,0.751
		c-0.009,0.083-0.022,0.163-0.039,0.244C47.171,78.394,47.076,78.39,46.981,78.385z"/>
	<path fill-rule="evenodd" clip-rule="evenodd" fill="#D98C20" d="M43.607,81.495c-2.315-0.488-3.684-2.093-4.601-4.101
		c-1.119-2.449-1.381-4.935,0.227-7.331c0.339,0.543,0.677,1.086,1.017,1.63c0.164,0.419,0.327,0.839,0.49,1.26
		c-0.683,1.113-0.367,3.574,0.943,4.762C42.864,78.785,43.075,80.185,43.607,81.495z"/>
	<path fill-rule="evenodd" clip-rule="evenodd" fill="#F4D65C" d="M47.306,78.153c-0.127-0.692,0.503-0.626,0.836-0.751
		c1.905-0.713,2.896-3.042,2.094-5.162c-0.589-1.556-2.985-2.606-4.818-2.088c-0.547,0.154-1.098,0.374-0.972,1.136
		c-0.203,0.026-0.406,0.053-0.609,0.08c-1.101,0.714-1.455,1.75-1.05,2.94c0.272,0.803,0.79,1.518,0.865,2.391
		c-0.01,0.319-0.022,0.643-0.033,0.964c-0.169-0.196-0.338-0.392-0.507-0.588l-0.003-0.007c-0.046-0.772-0.267-1.48-0.773-2.08
		c-0.285-0.86-0.569-1.722-0.854-2.583c1.023-0.371,1.311-1.468,2.095-2.118c1.509-1.254,4.285-1.465,5.659-0.188
		c2.149,1.996,2.574,4.696,0.993,6.467C49.452,77.438,48.66,78.326,47.306,78.153z"/>
	<path fill-rule="evenodd" clip-rule="evenodd" fill="#911E25" d="M41.825,67.981c-0.325-0.675-1.113-0.992-1.347-1.737l0.053-0.043
		c0.074-0.101,0.146-0.203,0.219-0.303l-0.044-0.017c0.222,0.081,0.444,0.161,0.665,0.24c0.49,0.714,0.982,1.429,1.473,2.145
		c0.164,0.346,0.328,0.691,0.493,1.037c-0.015,0.207-0.015,0.589-0.046,0.591c-0.448,0.038-0.378-0.467-0.635-0.652
		C42.543,68.713,42.07,68.422,41.825,67.981z"/>
	<path fill-rule="evenodd" clip-rule="evenodd" fill="#C15A21" d="M41.481,72.405c0.285,0.861,0.569,1.723,0.854,2.583
		c-0.175,0.004-0.35,0.008-0.524,0.012c-0.357-0.684-0.714-1.365-1.071-2.047c-0.164-0.42-0.327-0.84-0.49-1.261
		c0.086-0.245,0.289-0.3,0.514-0.32C41.016,71.707,41.05,72.194,41.481,72.405z"/>
	<path fill-rule="evenodd" clip-rule="evenodd" fill="#D98C20" d="M41.825,67.981c0.245,0.441,0.719,0.732,0.83,1.261
		c-0.556,0.255-0.869,0.985-1.633,0.832C40.595,69.109,40.562,68.296,41.825,67.981z"/>
	<path fill-rule="evenodd" clip-rule="evenodd" fill="#911E25" d="M40.763,71.372c-0.226,0.021-0.428,0.076-0.514,0.32
		c-0.339-0.543-0.678-1.085-1.017-1.629c-0.01-0.636-0.527-1.028-0.751-1.561c0.343,0.007,0.687,0.014,1.029,0.022
		c0.331,0.687,0.663,1.373,0.993,2.061c0.018,0.209,0.05,0.41,0.252,0.531C40.753,71.202,40.755,71.287,40.763,71.372z"/>
	<path fill-rule="evenodd" clip-rule="evenodd" fill="#D98C20" d="M41.811,75c0.175-0.004,0.35-0.008,0.524-0.012
		c0.507,0.6,0.727,1.308,0.773,2.08C42.335,76.592,42.242,75.69,41.811,75z"/>
	<path fill-rule="evenodd" clip-rule="evenodd" fill="#D98C20" d="M40.755,71.117c-0.202-0.121-0.234-0.322-0.252-0.531
		c0.17,0.002,0.339,0.004,0.509,0.007C41.435,71.015,41.08,71.059,40.755,71.117z"/>
	<path fill-rule="evenodd" clip-rule="evenodd" fill="#D98C20" d="M43.112,77.075c0.169,0.196,0.338,0.392,0.507,0.588
		c-0.034,0.156-0.069,0.312-0.104,0.468c-0.079-0.068-0.176-0.125-0.234-0.207C43.105,77.668,43.074,77.377,43.112,77.075z"/>
	<path fill-rule="evenodd" clip-rule="evenodd" fill="#F4D65C" d="M46.981,78.385c0.095,0.005,0.19,0.009,0.286,0.013
		C47.163,78.604,47.067,78.592,46.981,78.385z"/>
	<path fill-rule="evenodd" clip-rule="evenodd" fill="#41392C" d="M39.742,64.15c-0.09,1.272-0.775,1.642-2.01,1.542
		c-1.48-0.12-2.977-0.042-4.467-0.05c-0.069-0.606,0.322-1.055,0.533-1.564C35.779,64.102,37.76,64.126,39.742,64.15z"/>
	<path fill-rule="evenodd" clip-rule="evenodd" fill="#212121" d="M33.733,63.858c-0.678-0.717-0.361-2.234,0.598-2.861
		c0.632-0.414,1.323-0.555,2.078-0.521c0.855,0.039,1.72-0.056,2.569,0.025c1.178,0.113,1.709-0.317,1.544-1.515
		c0.369-0.059,0.943-0.219,0.742,0.415c-0.202,0.635,0.15,1.715-1.026,1.772c-0.985,0.048-1.976,0.01-2.963,0.011
		C34.873,61.188,34.384,61.558,33.733,63.858z"/>
	<path fill-rule="evenodd" clip-rule="evenodd" fill="#1A1A1A" d="M40.75,65.898c-0.073,0.101-0.146,0.202-0.219,0.303
		C40.558,66.066,40.487,65.861,40.75,65.898z"/>
	<path fill-rule="evenodd" clip-rule="evenodd" fill="#C15A21" d="M42.843,68.266c-0.491-0.715-0.982-1.431-1.473-2.145
		c0.329-0.042,0.658-0.112,0.969,0.074C42.531,66.88,43.373,67.406,42.843,68.266z"/>
	<path fill-rule="evenodd" clip-rule="evenodd" fill="#911E25" d="M39.479,68.287c-0.075-0.105-0.15-0.208-0.225-0.314
		C39.329,68.077,39.404,68.182,39.479,68.287z"/>
	<path fill-rule="evenodd" clip-rule="evenodd" fill="#FDFDFD" d="M44.904,72.171c1.286-0.9,2.69-0.797,3.547,0.261
		c0.677,0.834,0.482,2.345-0.327,3.156c-0.54,0.541-1.16,0.527-1.8,0.43c-0.717-0.11-0.62-0.708-0.63-1.222
		c-0.007-0.376-0.175-0.659-0.517-0.83c-0.01-0.288,0.202-0.647-0.254-0.792l0.011,0.017C44.925,72.851,44.914,72.512,44.904,72.171
		z"/>
	<path fill-rule="evenodd" clip-rule="evenodd" fill="#D98C20" d="M44.904,72.171c0.01,0.341,0.021,0.679,0.031,1.019
		c-0.577-0.479-0.716-1.223-1.098-1.822c0.202-0.026,0.405-0.053,0.608-0.08C44.599,71.583,44.751,71.877,44.904,72.171z"/>
	<path fill-rule="evenodd" clip-rule="evenodd" fill="#D98C20" d="M44.924,73.173c0.457,0.145,0.245,0.505,0.254,0.792
		C44.849,73.78,44.936,73.461,44.924,73.173z"/>
</g>
</svg>
