<?xml version="1.0" encoding="utf-8"?>
<!-- Generator: Adobe Illustrator 16.0.0, SVG Export Plug-In . SVG Version: 6.00 Build 0)  -->
<!DOCTYPE svg PUBLIC "-//W3C//DTD SVG 1.1//EN" "http://www.w3.org/Graphics/SVG/1.1/DTD/svg11.dtd">
<svg version="1.1" id="flag-icon-css-am" xmlns="http://www.w3.org/2000/svg" xmlns:xlink="http://www.w3.org/1999/xlink" x="0px"
	 y="0px" width="150px" height="150px" viewBox="0 0 150 150" enable-background="new 0 0 150 150" xml:space="preserve">
<g>
	
		<linearGradient id="SVGID_1_" gradientUnits="userSpaceOnUse" x1="575.9863" y1="677.2568" x2="497.751" y2="677.2568" gradientTransform="matrix(1 0 0 1 -462 -641)">
		<stop  offset="0" style="stop-color:#EB9C4F"/>
		<stop  offset="1" style="stop-color:#9C4282"/>
	</linearGradient>
	<path fill="url(#SVGID_1_)" d="M76.643,2.004c0.098,0.021,0.194,0.052,0.293,0.061c1.099,0.105,2.204,0.166,3.296,0.317
		c6.402,0.885,12.206,3.256,17.438,7.046c1.092,0.793,2.224,1.542,3.27,2.392c3.67,2.985,6.7,6.516,8.912,10.714
		c1.085,2.053,1.873,4.224,2.542,6.441c0.708,2.356,1.197,4.759,1.436,7.209c0.196,2.044,0.21,4.092,0.041,6.146
		c-0.324,3.938-1.313,7.697-2.984,11.274c-1.005,2.15-2.226,4.169-3.633,6.078c-0.375,0.506-0.848,0.851-1.473,1.017
		c-1.882,0.502-3.419,1.564-4.657,3.042c-0.749,0.894-1.415,1.859-2.111,2.798c-0.587,0.795-1.182,1.583-1.907,2.261
		c-2.012,1.87-4.693,2.233-7.146,0.951c-1.029-0.539-1.953-1.245-2.828-2c-1.078-0.935-2.129-1.905-3.169-2.886
		c-1.353-1.274-2.795-2.417-4.502-3.172c-3.618-1.597-7.152-1.36-10.578,0.583c-1.436,0.816-2.654,1.912-3.792,3.097
		c-1.072,1.116-2.126,2.249-3.382,3.167c-1.059,0.778-2.203,1.376-3.516,1.585c-1.468,0.235-2.875,0.043-4.199-0.648
		c-0.952-0.497-1.777-1.167-2.551-1.908c-1.466-1.405-2.762-2.964-4.104-4.481c-0.268-0.302-0.535-0.604-0.806-0.902
		c-0.186-0.206-0.396-0.381-0.677-0.436c-1.861-0.361-3.229-1.445-4.267-2.97c-2.158-3.171-3.83-6.57-4.804-10.295
		c-0.797-3.052-1.119-6.153-1.014-9.301c0.187-5.639,1.509-10.995,4.006-16.054c1.363-2.761,3.181-5.205,5.244-7.476
		c3.205-3.529,6.863-6.498,11.035-8.818c3.72-2.068,7.677-3.474,11.87-4.223c1.601-0.286,3.211-0.486,4.836-0.551
		c0.095-0.002,0.194-0.038,0.293-0.058C74.25,2.004,75.448,2.004,76.643,2.004z M83.069,54.687c-0.169-0.16-0.331-0.291-0.47-0.444
		c-0.23-0.261-0.496-0.509-0.657-0.812c-0.307-0.582-0.549-1.204-0.831-1.802c-0.531-1.12-0.448-2.216,0.087-3.303
		c0.028-0.057,0.055-0.118,0.088-0.172c0.463-0.783,0.913-1.572,1.397-2.343c0.871-1.399,1.337-2.923,1.428-4.561
		c0.094-1.671-0.186-3.29-0.776-4.851c-0.855-2.262-2.214-4.136-4.291-5.437c-0.525-0.331-1.056-0.665-1.606-0.954
		c-2.033-1.063-4.199-1.592-6.494-1.458c-2.678,0.155-5.124,1.052-7.402,2.429c-0.581,0.353-1.098,0.786-1.559,1.288
		c-1.076,1.167-1.546,2.569-1.547,4.132c0,1.197-0.052,2.39-0.193,3.577c-0.272,2.271-0.565,4.538-0.862,6.804
		c-0.266,2.035-0.549,4.067-0.822,6.102c-0.045,0.341-0.081,0.689-0.126,1.072c0.515-0.049,0.954-0.186,1.364-0.412
		c0.454-0.254,0.747-0.644,0.854-1.154c0.056-0.266,0.079-0.539,0.09-0.81c0.015-0.404-0.009-0.807,0.007-1.209
		c0.026-0.689,0.058-1.376,0.276-2.039c0.124-0.371,0.318-0.682,0.661-0.883c0.625-0.368,1.232-0.784,1.887-1.088
		c1.269-0.594,2.568-1.125,3.854-1.682c0.175-0.076,0.351-0.153,0.559-0.242c0,0.105,0.007,0.169-0.001,0.232
		c-0.127,0.958-0.332,1.891-0.763,2.766c-0.624,1.263-1.625,2.029-2.997,2.318c-0.229,0.049-0.461,0.087-0.687,0.148
		c-0.528,0.144-0.883,0.482-1.049,1.005c-0.056,0.174-0.096,0.353-0.124,0.532c-0.366,2.28-0.724,4.565-1.091,6.846
		c-0.27,1.672-0.644,3.314-1.419,4.838c-0.115,0.226-0.2,0.47-0.32,0.759c0.172-0.024,0.286-0.031,0.395-0.054
		c0.292-0.065,0.582-0.132,0.872-0.206c1.858-0.467,3.585-1.209,5.109-2.399c0.849-0.665,1.73-1.289,2.619-1.899
		c1.594-1.097,3.2-2.18,4.814-3.25c0.773-0.513,1.003-1.251,0.993-2.114c-0.006-0.532-0.036-1.065-0.029-1.597
		c0.007-0.616,0.129-1.214,0.4-1.772c0.124-0.251,0.245-0.513,0.492-0.709c0.098,0.124,0.185,0.236,0.275,0.345
		c0.856,1.029,1.697,2.071,2.577,3.08c0.563,0.647,1.18,1.246,1.924,1.694C81.054,55.646,82.053,55.557,83.069,54.687z
		 M51.071,23.053c0.405,0.143,0.793,0.261,1.222,0.25c0.923-0.024,1.844,0.022,2.76,0.15c1.419,0.196,2.755,0.631,3.961,1.42
		c0.174,0.114,0.341,0.239,0.521,0.346c0.513,0.308,1.048,0.362,1.602,0.117c0.166-0.073,0.329-0.152,0.488-0.242
		c1.426-0.804,2.881-1.548,4.406-2.151c1.896-0.75,3.852-1.254,5.895-1.351c1.518-0.071,3.04-0.015,4.547,0.225
		c1.998,0.319,3.871,0.972,5.583,2.07c1.226,0.786,2.265,1.78,3.249,2.839c1.506,1.619,2.776,3.401,3.718,5.407
		c1.677,3.565,2.023,7.299,1.394,11.15c-0.143,0.881,0.101,1.601,0.764,2.16c0.473,0.404,0.979,0.773,1.494,1.122
		c0.97,0.657,1.795,1.458,2.477,2.404c0.471,0.654,0.937,1.312,1.407,1.966c0.247,0.339,0.267,0.343,0.722,0.227
		c0.01-0.045,0.025-0.094,0.03-0.145c0.25-1.445,0.51-2.89,0.749-4.336c0.402-2.396,0.828-4.788,0.938-7.219
		c0.018-0.4,0.01-0.806-0.04-1.203c-0.057-0.451-0.263-0.639-0.697-0.706c-0.205-0.03-0.414-0.042-0.624-0.023
		c-0.466,0.039-0.929,0.104-1.392,0.156c-0.304,0.035-0.432-0.082-0.422-0.388c0.023-0.702,0.386-1.083,1.081-1.123
		c0.261-0.013,0.522,0.012,0.779,0.004c0.318-0.007,0.647,0.038,0.933-0.138c0.112-0.801,0.097-1.564-0.136-2.33
		c-0.515-1.688-0.991-3.389-1.492-5.08c-0.078-0.261-0.183-0.52-0.314-0.752c-0.47-0.816-1.161-1.245-2.126-1.148
		c-0.491,0.048-0.943,0.234-1.302,0.563c-0.565,0.517-1.241,0.852-1.903,1.204c-0.085,0.048-0.184,0.077-0.331,0.138
		c0-0.288-0.014-0.531,0.003-0.772c0.068-1.126,0.61-1.907,1.684-2.29c0.296-0.103,0.6-0.178,0.903-0.251
		c0.336-0.081,0.678-0.142,1.071-0.222c-0.559-0.84-0.939-1.727-1.573-2.459c-0.06-0.071-0.12-0.138-0.188-0.199
		c-1.376-1.254-2.808-2.433-4.38-3.435c-0.418-0.265-0.851-0.37-1.334-0.33c-0.992,0.087-1.947,0.303-2.819,0.812
		c-0.263,0.153-0.54,0.29-0.816,0.437c-0.241-0.783-0.006-1.355,0.677-1.677c0.27-0.127,0.557-0.215,0.835-0.327
		c0.25-0.103,0.499-0.212,0.672-0.44c-0.176-0.365-0.428-0.585-0.836-0.694c-1.439-0.387-2.873-0.811-4.308-1.22
		c-0.949-0.271-1.896-0.549-2.882-0.659c-1.112-0.125-2.079,0.143-2.869,0.982c-0.499,0.536-0.889,1.147-1.261,1.772
		c-0.076,0.131-0.153,0.261-0.241,0.405c-0.481-0.441-0.646-0.944-0.502-1.542c0.13-0.541,0.271-1.08,0.413-1.621
		c0.065-0.26,0.133-0.522,0.213-0.83c-0.199,0.014-0.352,0.021-0.504,0.04c-0.296,0.035-0.588,0.083-0.887,0.12
		c-2.458,0.32-4.918,0.634-7.377,0.958c-0.428,0.055-0.838,0.18-1.208,0.414c-0.685,0.435-1.055,1.044-1.065,1.873
		c-0.008,0.623,0.182,1.175,0.498,1.694c0.234,0.386,0.433,0.786,0.591,1.232c-0.51,0.045-0.968-0.041-1.419-0.171
		c-0.776-0.224-1.265-0.736-1.45-1.53c-0.127-0.547-0.16-1.104-0.134-1.664c0.007-0.113,0.002-0.226,0.002-0.379
		c-0.485,0.13-0.933,0.253-1.382,0.369c-0.521,0.138-1,0.351-1.439,0.665c-1.914,1.366-3.825,2.737-5.751,4.084
		C51.496,22.1,51.18,22.471,51.071,23.053z M83.044,31.378c0.353-0.633,0.701-1.195,0.915-1.822
		c0.177-0.522,0.026-0.998-0.398-1.361c-0.158-0.133-0.314-0.27-0.472-0.403c-1.019-0.85-2.043-1.687-3.177-2.381
		c-0.247-0.153-0.503-0.197-0.779-0.137c-0.45,0.097-0.865,0.278-1.233,0.558c-0.651,0.497-0.942,1.38,0.099,2.02
		c0.717,0.441,1.396,0.944,2.086,1.431c0.539,0.379,1.05,0.813,1.613,1.151C82.155,30.703,82.639,30.926,83.044,31.378z
		 M88.688,36.351c-0.205-0.423-0.381-0.81-0.576-1.189c-0.612-1.2-1.24-2.393-1.846-3.595c-0.162-0.321-0.409-0.432-0.729-0.38
		c-0.423,0.065-0.84,0.162-1.255,0.251c-0.242,0.053-0.367,0.225-0.427,0.455c-0.108,0.408-0.155,0.814,0.006,1.223
		c0.095,0.241,0.174,0.488,0.263,0.731c0.346,0.925,0.745,1.825,1.242,2.677c0.376,0.648,1.368,0.988,2.002,0.659
		C87.82,36.947,88.237,36.636,88.688,36.351z M88.23,45.234c0.012-0.113,0.02-0.18,0.025-0.244c0.103-1.268,0.206-2.535,0.307-3.801
		c0.029-0.363,0.084-0.726,0.073-1.086c-0.021-0.663-0.391-1.021-1.056-1.055c-0.22-0.012-0.442-0.012-0.662,0.005
		c-0.709,0.057-1.081,0.445-1.104,1.155c-0.012,0.246,0.03,0.494,0.016,0.739c-0.05,0.801-0.122,1.602-0.174,2.404
		c-0.027,0.415-0.052,0.83-0.027,1.243c0.027,0.44,0.257,0.701,0.655,0.759C86.929,45.448,87.57,45.362,88.23,45.234z
		 M61.912,29.825c1.732-0.932,3.403-1.826,5.065-2.732c0.621-0.34,0.667-0.485,0.5-1.184c-0.012-0.05-0.024-0.101-0.04-0.151
		c-0.203-0.692-0.929-1.037-1.575-0.709c-1.262,0.641-2.514,1.297-3.762,1.966c-0.667,0.359-0.894,0.947-0.662,1.673
		C61.557,29.057,61.734,29.403,61.912,29.825z M72.9,26.331c0.699,0,1.402,0.001,2.105-0.001c0.099,0,0.228,0.011,0.3-0.042
		c0.525-0.401,0.849-0.831,0.523-1.491c-0.063-0.116-0.128-0.229-0.2-0.334c-0.129-0.192-0.303-0.292-0.544-0.324
		c-1.367-0.169-2.739-0.225-4.118-0.224c-0.656,0.001-1.083,0.313-1.409,0.819c-0.341,0.535-0.116,1.224,0.482,1.444
		c0.25,0.093,0.53,0.137,0.8,0.145C71.521,26.342,72.209,26.331,72.9,26.331z"/>
	
		<linearGradient id="SVGID_2_" gradientUnits="userSpaceOnUse" x1="537.2285" y1="747.4453" x2="537.2285" y2="710.0898" gradientTransform="matrix(1 0 0 1 -462 -641)">
		<stop  offset="0" style="stop-color:#EB9C4F"/>
		<stop  offset="1" style="stop-color:#9C4282"/>
	</linearGradient>
	<path fill="url(#SVGID_2_)" d="M72.665,106.445c-0.268-0.027-0.534-0.07-0.802-0.084c-9.812-0.397-19.15-2.697-28.013-6.926
		c-5.358-2.559-10.34-5.716-14.997-9.396c-2.418-1.909-4.744-3.931-6.931-6.1c-1.347-1.337-2.646-2.724-3.969-4.077
		c-0.114-0.117-0.262-0.195-0.391-0.305c-0.068-0.057-0.14-0.116-0.196-0.184c-1.934-2.414-3.867-4.828-5.8-7.245
		c-0.063-0.079-0.119-0.167-0.19-0.271c0.036-0.016,0.061-0.032,0.089-0.038c0.034-0.008,0.073-0.005,0.13-0.008
		c0-0.24,0-0.471,0-0.718c0.106-0.043,0.194-0.088,0.291-0.119c1.217-0.372,2.434-0.746,3.652-1.106
		c1.498-0.443,2.927-0.32,4.256,0.552c0.536,0.354,0.987,0.8,1.427,1.266c1.196,1.266,2.394,2.53,3.707,3.678
		c0.616,0.541,1.31,0.938,2.114,1.117c1.025,0.228,2.035,0.126,2.96-0.354c0.885-0.458,1.733-0.994,2.567-1.546
		c1.397-0.926,2.76-1.903,4.155-2.832c1.507-1.005,3.164-1.678,4.922-2.093c1.474-0.347,2.863-0.067,4.173,0.652
		c1.347,0.736,2.42,1.788,3.358,2.983c1.012,1.289,2.075,2.534,3.242,3.682c0.398,0.395,0.821,0.761,1.225,1.146
		c0.713,0.687,1.591,0.973,2.55,1.015c1.95,0.077,3.704-0.484,5.18-1.775c1.339-1.169,2.621-2.406,3.939-3.601
		c0.72-0.656,1.423-1.341,2.204-1.918c2.02-1.494,4.316-2.242,6.824-2.327c3.137-0.106,5.911,0.831,8.268,2.927
		c0.367,0.328,0.705,0.69,1.045,1.049c1.361,1.44,2.842,2.741,4.45,3.899c0.977,0.708,2.031,1.256,3.221,1.512
		c2.038,0.446,3.831-0.065,5.411-1.396c0.591-0.499,1.083-1.08,1.534-1.706c0.764-1.05,1.52-2.109,2.298-3.146
		c0.735-0.977,1.615-1.802,2.698-2.383c1.538-0.828,3.175-1.004,4.881-0.688c1.572,0.292,3,0.94,4.284,1.872
		c1.392,1.003,2.739,2.063,4.11,3.096c0.354,0.268,0.708,0.53,1.061,0.798c1.739,1.345,3.577,1.361,5.483,0.4
		c0.916-0.462,1.694-1.105,2.38-1.868c1.076-1.197,2.178-2.373,3.353-3.479c0.982-0.924,2.147-1.343,3.477-1.312
		c0.698,0.017,1.399,0.086,2.096,0.169c0.53,0.063,1.021,0.293,1.497,0.528c0.42,0.205,0.831,0.43,1.252,0.632
		c0.549,0.261,1.107,0.505,1.723,0.787c0.084,0.175-0.085,0.405-0.079,0.672c0.098-0.028,0.19-0.055,0.279-0.083
		c0.007,0.027,0.025,0.056,0.018,0.067c-0.161,0.221-0.331,0.435-0.479,0.661c-0.084,0.124-0.129,0.274-0.195,0.41
		c-0.037,0.079-0.075,0.168-0.138,0.226c-0.808,0.743-1.441,1.635-2.134,2.478c-2.106,2.547-4.327,4.987-6.686,7.299
		c-5.984,5.87-12.629,10.845-20.051,14.762c-5.501,2.906-11.269,5.122-17.312,6.607c-2.727,0.67-5.483,1.177-8.27,1.523
		c-2.31,0.292-4.626,0.462-6.95,0.556c-0.073,0.003-0.146,0.035-0.219,0.058C75.316,106.445,73.991,106.445,72.665,106.445z"/>
	<path fill="#2C2C2C" d="M99.816,111.392c2.068,0,4.131,0.01,6.197-0.005c1.912-0.011,3.667,0.551,5.074,1.796
		c1.11,0.981,1.851,2.309,1.8,3.886c-0.041,1.311-0.004,2.663-0.323,3.915c-0.282,1.093-0.793,2.189-1.693,3.019
		c-0.445,0.409-0.848,0.897-1.148,1.417c-0.122,0.213,0.02,0.631,0.135,0.911c0.193,0.471,0.468,0.911,0.696,1.37
		c0.209,0.42,0.416,0.847,0.597,1.281c0.32,0.77,0.693,1.529,0.897,2.326c0.133,0.517-0.396,0.734-0.827,0.794
		c-0.445,0.062-0.902,0.005-1.355,0.01c-1.087,0.008-2.181,0.036-3.267,0.021c-1.148-0.015-1.44-0.281-1.782-1.371
		c-0.119-0.38-0.35-0.73-0.532-1.091c-0.164-0.317-0.441-0.623-0.483-0.957c-0.128-1.06-0.796-1.812-1.381-2.603
		c-0.186-0.254-0.577-0.481-0.886-0.5c-0.993-0.05-1.997-0.04-2.991,0.027c-1.165,0.081-1.519,0.485-1.595,1.663
		c-0.064,0.972-0.105,1.949-0.175,2.923c-0.109,1.458-0.577,1.875-2.023,1.864c-1.152-0.009-2.313,0.005-3.469-0.02
		c-0.791-0.02-1.099-0.296-1.042-1.092c0.116-1.648,0.314-3.291,0.475-4.938c0.25-2.551,0.472-5.104,0.746-7.649
		c0.207-1.958,0.456-3.915,0.708-5.872c0.109-0.844,0.469-1.12,1.32-1.122c2.111,0,4.222,0,6.331,0
		C99.816,111.395,99.816,111.392,99.816,111.392z M102.043,120.033c0-0.002,0-0.006,0-0.008c0.181,0,0.36,0.012,0.543-0.002
		c1.212-0.091,2.428-0.173,3.64-0.29c0.585-0.059,0.846-0.46,0.902-1.023c0.135-1.318-0.786-2.268-2.162-2.255
		c-1.631,0.017-3.268,0.022-4.899-0.002c-1.552-0.021-1.924,0.301-2.038,1.846c-0.011,0.138-0.029,0.271-0.033,0.41
		c-0.029,0.854,0.41,1.321,1.257,1.327C100.181,120.039,101.111,120.033,102.043,120.033z"/>
	<path fill="#2C2C2C" d="M53.477,132.07c-2.155,0-4.313,0.051-6.466-0.013c-2.128-0.065-3.563-1.172-4.605-3.043
		c-1.14-2.045-0.927-4.203-0.87-6.36c0.032-1.175,0.078-2.392,0.409-3.5c0.498-1.674,0.871-3.419,2-4.854
		c1.435-1.82,3.226-2.889,5.601-2.875c3.767,0.019,7.533,0.007,11.3,0.005c0.453-0.001,0.906-0.036,1.359-0.052
		c1.162-0.032,1.71,0.628,1.488,1.735c-0.135,0.665-0.237,1.341-0.312,2.015c-0.105,0.928-0.482,1.292-1.395,1.292
		c-3.767,0-7.533,0.015-11.3-0.011c-0.923-0.008-1.479,0.604-2.091,1.102c-0.167,0.137-0.135,0.632-0.06,0.927
		c0.111,0.442,0.51,0.5,0.927,0.5c3.108-0.012,6.218-0.01,9.327-0.009c1.021,0,2.042-0.021,3.061,0.027
		c0.792,0.039,1.205,0.483,1.174,1.281c-0.035,0.839-0.12,1.676-0.272,2.498c-0.181,0.966-0.673,1.338-1.66,1.337
		c-3.11-0.005-6.217-0.02-9.325-0.03c-0.816-0.005-1.631-0.012-2.449-0.017c-0.897-0.004-1.459,0.335-1.475,0.88
		c-0.021,0.821,0.611,1.603,1.425,1.631c1.291,0.044,2.585,0.021,3.878,0.018c2.564-0.003,5.126-0.01,7.689-0.015
		c0.833-0.001,1.242,0.286,1.234,1.097c-0.01,1.176-0.131,2.352-0.253,3.521c-0.051,0.501-0.413,0.81-0.926,0.851
		c-0.586,0.041-1.175,0.059-1.766,0.06C57.244,132.076,55.361,132.071,53.477,132.07C53.477,132.073,53.477,132.071,53.477,132.07z"
		/>
	<path fill="#2C2C2C" d="M76.731,125.726c-1.066,0-2.133-0.035-3.196,0.01c-1.046,0.046-1.426,0.463-1.486,1.527
		c-0.059,0.999-0.089,1.995-0.127,2.993c-0.045,1.199-0.391,1.781-1.997,1.82c-0.884,0.021-1.768,0.012-2.652,0.003
		c-1.086-0.009-1.536-0.518-1.431-1.572c0.288-2.908,0.524-5.824,0.866-8.729c0.232-1.979,0.432-3.994,0.969-5.897
		c0.383-1.359,1.425-2.432,2.644-3.309c1.547-1.11,3.29-1.187,5.049-1.243c1.746-0.057,3.5-0.046,5.241,0.002
		c1.131,0.03,2.257,0.176,3.384,0.295c0.646,0.067,1.117,0.477,1.66,0.798c0.938,0.554,1.241,1.462,1.74,2.267
		c0.239,0.381,0.353,0.889,0.377,1.348c0.131,2.438-0.204,4.835-0.567,7.245c-0.303,2.013-0.365,4.063-0.534,6.097
		c-0.035,0.43-0.085,0.858-0.105,1.289c-0.041,0.999-0.707,1.369-1.729,1.414c-0.926,0.042-1.857,0-2.788-0.01
		c-0.787-0.008-1.169-0.391-1.12-1.182c0.073-1.175,0.159-2.35,0.273-3.522c0.106-1.077-0.4-1.641-1.479-1.623
		c-0.995,0.016-1.993,0.003-2.991,0.003C76.731,125.74,76.731,125.734,76.731,125.726z M77.23,120.602c0-0.003,0-0.008,0-0.01
		c0.839,0,1.679-0.013,2.517,0c2.138,0.031,2.473-0.288,2.452-2.395c-0.016-1.188-0.692-1.94-1.888-1.96
		c-1.768-0.026-3.539-0.011-5.306,0.033c-1.021,0.026-1.697,0.615-1.854,1.573c-0.096,0.579-0.13,1.173-0.116,1.758
		c0.015,0.759,0.296,0.995,1.063,0.997C75.141,120.606,76.187,120.602,77.23,120.602z"/>
	<path fill="#2C2C2C" d="M25.705,111.39c1.86,0,3.722-0.037,5.58,0.015c1.13,0.028,2.273,0.102,3.379,0.318
		c1.077,0.21,1.879,0.936,2.632,1.745c1.241,1.332,1.097,2.947,1.069,4.538c-0.015,0.855-0.141,1.721-0.283,2.566
		c-0.061,0.359-0.269,0.703-0.465,1.021c-0.374,0.607-0.741,1.227-1.188,1.777c-1.5,1.849-3.619,2.184-5.807,2.233
		c-2.018,0.043-4.037-0.021-6.055-0.015c-1.644,0.01-2.065,0.448-2.149,2.098c-0.056,1.09-0.162,2.175-0.22,3.26
		c-0.028,0.528-0.261,0.854-0.775,0.969c-0.286,0.063-0.572,0.175-0.861,0.177c-1.155,0.018-2.312,0.024-3.468-0.015
		c-1.107-0.036-1.403-0.303-1.341-1.395c0.064-1.128,0.311-2.24,0.422-3.367c0.226-2.3,0.391-4.607,0.63-6.908
		c0.27-2.59,0.579-5.177,0.899-7.762c0.13-1.045,0.397-1.252,1.47-1.257c2.178-0.01,4.354-0.004,6.532-0.004L25.705,111.39
		L25.705,111.39z M28.026,120.035c0.836-0.053,2.123-0.139,3.411-0.218c0.577-0.035,0.997-0.277,1.155-0.867
		c0.175-0.657,0.293-1.352-0.374-1.783c-0.496-0.32-1.08-0.653-1.641-0.68c-1.718-0.088-3.445-0.035-5.167-0.029
		c-1.339,0.003-1.882,0.533-1.938,1.875c-0.008,0.183-0.027,0.363-0.019,0.544c0.039,0.785,0.414,1.15,1.196,1.156
		C25.624,120.042,26.599,120.035,28.026,120.035z"/>
	<path fill="#2C2C2C" d="M128.407,132.099c-2.359,0-4.719-0.006-7.079,0.003c-1.439,0.005-2.663-0.696-3.56-1.623
		c-0.949-0.973-1.763-2.236-1.646-3.755c0.21-2.731,0.467-5.461,0.7-8.193c0.165-1.872,0.351-3.745,0.479-5.621
		c0.074-1.083,0.184-1.379,1.279-1.453c1.462-0.099,2.938-0.072,4.402,0.028c0.875,0.063,1.061,0.499,0.96,1.379
		c-0.409,3.583-0.822,7.162-1.178,10.745c-0.186,1.885,0.588,2.657,2.464,2.649c3.425-0.011,6.847-0.031,10.271-0.021
		c0.395,0,0.799,0.133,1.178,0.266c0.502,0.18,0.626,0.535,0.523,1.083c-0.205,1.112-0.336,2.237-0.474,3.362
		c-0.115,0.935-0.366,1.185-1.311,1.185c-2.336,0.007-4.671,0.002-7.012,0.002C128.407,132.128,128.407,132.112,128.407,132.099z"/>
	<path fill="#2C2C2C" d="M116.813,137.749c0.771,0,1.55,0.074,2.311-0.016c1.351-0.161,2.473,0.36,3.412,1.185
		c0.807,0.713,1.074,1.776,0.937,2.853c-0.086,0.665-0.32,1.316-0.539,1.958c-0.087,0.261-0.265,0.533-0.478,0.71
		c-0.699,0.579-0.766,1.613-0.138,2.297c0.192,0.206,0.38,0.461,0.45,0.727c0.289,1.118,0.083,1.371-1.073,1.409
		c-0.271,0.01-0.549-0.028-0.813,0.021c-1.282,0.218-2.041-0.932-2.31-1.851c-0.364-1.243-1.732-1.971-2.963-1.495
		c-0.216,0.084-0.368,0.369-0.512,0.588c-0.065,0.098-0.045,0.261-0.05,0.396c-0.072,2.119-0.466,2.47-2.577,2.35
		c-0.577-0.03-0.91-0.303-0.904-0.869c0.008-0.703,0.071-1.401,0.133-2.102c0.189-2.141,0.378-4.281,0.585-6.424
		c0.029-0.31,0.168-0.61,0.244-0.916c0.154-0.605,0.563-0.832,1.158-0.826c1.041,0.008,2.085,0.001,3.128,0.001
		C116.813,137.745,116.813,137.746,116.813,137.749z M117.816,142.497c0.76-0.162,1.486-0.297,2.194-0.49
		c0.172-0.047,0.372-0.283,0.403-0.458c0.021-0.13-0.188-0.338-0.335-0.454c-0.728-0.566-3.436-0.69-4.374,0.038
		c-0.445,0.348-0.457,0.717,0.078,0.896C116.435,142.244,117.12,142.344,117.816,142.497z"/>
	<path fill="#2C2C2C" d="M103.516,148.918c-0.838,0-1.681,0.016-2.516-0.004c-1.479-0.027-2.654-0.975-2.816-2.444
		c-0.249-2.221-0.235-4.43,0.799-6.518c0.855-1.728,2.242-2.413,4.103-2.349c1.358,0.047,2.721,0.06,4.08,0.086
		c1.199,0.022,1.893,0.688,2.479,1.696c1.075,1.834,0.508,3.645,0.146,5.478c-0.066,0.333-0.227,0.66-0.231,0.991
		c-0.024,1.256-0.83,2.031-1.71,2.698c-0.37,0.282-0.972,0.326-1.475,0.356c-0.952,0.052-1.904,0.016-2.855,0.016
		C103.516,148.925,103.516,148.92,103.516,148.918z M103.882,145.967c0.014,0.03,0.025,0.06,0.039,0.088
		c0.592-0.155,1.27-0.185,1.767-0.494c1.109-0.701,1.653-2.784,1.156-3.991c-0.054-0.138-0.175-0.273-0.299-0.354
		c-1.734-1.115-3.032-0.967-4.608,0.001c-0.189,0.113-0.359,0.384-0.385,0.599c-0.104,0.967-0.18,1.933-0.213,2.9
		c-0.023,0.606,0.36,0.974,0.93,1.078C102.8,145.899,103.345,145.915,103.882,145.967z"/>
	<path fill="#2C2C2C" d="M44.96,145.529c-0.453,0-0.907-0.003-1.361,0c-0.579,0.001-0.867,0.317-0.931,0.872
		c-0.011,0.088,0,0.181-0.001,0.271c-0.007,1.816-0.584,2.318-2.428,2.174c-0.547-0.04-0.883-0.286-0.879-0.824
		c0.012-1.22,0.005-2.448,0.139-3.659c0.139-1.254,0.416-2.496,0.663-3.733c0.27-1.349,1.806-2.79,3.167-2.845
		c1.72-0.067,3.446-0.036,5.167,0.018c0.954,0.029,2.107,1.093,2.245,2.04c0.103,0.708,0.107,1.439,0.076,2.158
		c-0.072,1.628-0.233,3.256-0.286,4.885c-0.058,1.811-0.843,2.188-2.694,1.899c-0.22-0.031-0.501-0.412-0.546-0.667
		c-0.086-0.479-0.047-0.988-0.009-1.48c0.053-0.657-0.302-1.099-0.96-1.112c-0.452-0.011-0.907-0.003-1.36-0.003
		C44.96,145.521,44.96,145.525,44.96,145.529z M45.449,142.632c0.024,0.039,0.044,0.08,0.069,0.119
		c0.734-0.233,1.479-0.431,2.191-0.717c0.16-0.067,0.333-0.573,0.277-0.62c-0.447-0.4-0.925-0.989-1.44-1.035
		c-1.021-0.096-2.149-0.23-3.015,0.618c-0.214,0.204-0.414,0.427-0.619,0.642c0.266,0.253,0.493,0.631,0.807,0.732
		C44.267,142.546,44.869,142.553,45.449,142.632z"/>
	<path fill="#2C2C2C" d="M56.795,148.899c-1.045,0-2.087,0.01-3.129-0.002c-1.153-0.014-1.539-0.553-1.41-1.704
		c0.268-2.384,0.465-4.773,0.69-7.161c0.009-0.091,0-0.181,0.003-0.271c0.056-1.514,0.573-2.015,2.096-2.012
		c1.837,0,3.675,0.037,5.511,0.003c0.827-0.017,1.53,0.232,2.101,0.78c0.791,0.755,1.506,1.575,1.472,2.783
		c-0.019,0.566-0.028,1.135,0.005,1.7c0.098,1.578-0.669,2.938-1.357,4.211c-0.42,0.78-1.29,1.604-2.448,1.612
		c-1.179,0.006-2.357,0.002-3.535,0.002C56.795,148.858,56.795,148.879,56.795,148.899z M58.218,140.72c0-0.007,0-0.018,0-0.025
		c-0.203,0-0.406,0.003-0.611,0c-1.225-0.02-1.587,0.313-1.764,1.521c-0.106,0.736-0.246,1.469-0.423,2.193
		c-0.188,0.771-0.023,1.234,0.738,1.36c1.314,0.221,2.654,0.336,3.94-0.163c0.26-0.103,0.603-0.386,0.635-0.622
		c0.135-1.021,0.223-2.053,0.224-3.082c0-0.701-0.5-1.104-1.184-1.177C59.263,140.677,58.737,140.72,58.218,140.72z"/>
	<path fill="#2C2C2C" d="M77.677,137.729c0.496,0,1.003,0.052,1.494-0.013c1.089-0.145,2.017,0.268,2.669,1.021
		c0.43,0.495,0.71,1.308,0.695,1.967c-0.045,2.264-0.223,4.525-0.408,6.783c-0.099,1.213-1.872,1.913-2.871,1.161
		c-0.157-0.121-0.288-0.365-0.307-0.569c-0.046-0.468-0.059-0.95-0.015-1.419c0.069-0.736-0.232-1.135-0.957-1.135
		c-0.882-0.001-1.767,0.038-2.652,0.023c-0.67-0.011-0.933,0.346-0.987,0.947c-0.032,0.36-0.03,0.728-0.111,1.077
		c-0.251,1.132-1.789,1.776-2.773,1.141c-0.205-0.135-0.38-0.488-0.375-0.735c0.027-1.242,0.057-2.493,0.207-3.724
		c0.164-1.324,0.46-2.632,0.708-3.946c0.23-1.2,1.905-2.537,3.232-2.575c0.813-0.024,1.63-0.004,2.448-0.004H77.677L77.677,137.729z
		 M77.334,142.711c0.644-0.19,1.376-0.365,2.071-0.641c0.174-0.066,0.354-0.629,0.299-0.672c-0.5-0.397-1.025-0.969-1.591-1.027
		c-1.022-0.106-2.145-0.166-2.999,0.688c-0.185,0.181-0.519,0.405-0.489,0.557c0.044,0.236,0.302,0.546,0.53,0.617
		C75.815,142.436,76.503,142.536,77.334,142.711z"/>
	<path fill="#2C2C2C" d="M129.342,148.887c-1.042,0-2.086-0.006-3.128,0.002c-0.813,0.005-1.098-0.251-1.149-1.077
		c-0.015-0.249-0.026-0.504,0.012-0.746c0.123-0.818,0.553-1.164,1.37-1.141c1.586,0.04,3.174,0.101,4.758,0.102
		c0.581,0.003,1.251,0.098,1.585-0.627c0.197-0.422,0.052-0.677-0.358-0.75c-0.398-0.072-0.812-0.062-1.219-0.072
		c-1.181-0.028-2.361,0.013-3.533-0.082c-1.432-0.112-2.285-1.022-2.354-2.474c-0.074-1.523,0.485-2.685,1.848-3.564
		c0.912-0.594,1.826-0.703,2.823-0.706c1.543-0.003,3.086-0.012,4.628,0.001c1.04,0.009,1.412,0.263,1.602,1.019
		c0.25,1.026-0.646,2.103-1.712,2.087c-1.517-0.023-3.035-0.012-4.556-0.014c-0.11,0-0.252-0.03-0.333,0.024
		c-0.298,0.204-0.571,0.439-0.854,0.665c0.294,0.147,0.579,0.414,0.88,0.432c1.197,0.064,2.399,0.05,3.603,0.072
		c1.011,0.021,1.773,0.399,2.199,1.391c0.383,0.888,0.496,1.75,0.201,2.691c-0.575,1.838-1.643,2.692-3.585,2.75
		c-0.906,0.028-1.813,0.002-2.723,0.002C129.342,148.876,129.342,148.881,129.342,148.887z"/>
	<path fill="#2C2C2C" d="M19.342,148.874c-0.998,0-1.995-0.003-2.994,0c-1.567,0.002-2.982-1.181-3.076-2.741
		c-0.083-1.374-0.089-2.776,0.082-4.138c0.222-1.772,1.246-3.119,2.82-3.969c0.43-0.234,1.007-0.255,1.519-0.263
		c1.905-0.028,3.811,0.022,5.715-0.025c1.396-0.035,1.555,0.566,1.349,1.844c-0.121,0.745-0.646,1.078-1.41,1.073
		c-1.563-0.013-3.128-0.038-4.69-0.059c-1.159-0.014-1.88,0.607-1.999,1.734c-0.077,0.743-0.169,1.487-0.178,2.231
		c-0.009,0.744,0.422,1.199,1.163,1.241c0.882,0.047,1.769,0.047,2.653,0.025c0.613-0.019,0.992-0.551,0.992-1.299
		c-0.001-1.179,0.166-1.396,1.201-1.855c0.613-0.272,1.194-0.125,1.569,0.271c0.312,0.331,0.481,0.909,0.493,1.384
		c0.021,0.785-0.09,1.585-0.23,2.361c-0.103,0.571-0.232,1.191-0.556,1.646c-0.225,0.313-0.795,0.497-1.226,0.526
		c-1.061,0.075-2.13,0.026-3.195,0.026C19.342,148.876,19.342,148.876,19.342,148.874z"/>
	<path fill="#2C2C2C" d="M92.436,148.874c-0.59,0-1.181-0.011-1.771,0.002c-2.06,0.047-3.015-1.243-3.554-2.852
		c-0.126-0.378,0.01-0.845,0.048-1.27c0.014-0.151,0.12-0.295,0.146-0.447c0.274-1.456-0.062-1.927-1.56-1.971
		c-0.9-0.025-1.244-0.311-1.244-1.189c0.003-1.674,0.526-2.196,2.234-2.079c0.554,0.035,0.953-0.098,1.19-0.563
		c0.385-0.744,1.058-0.832,1.776-0.905c0.817-0.077,1.519-0.001,1.92,0.885c0.104,0.23,0.481,0.362,0.76,0.47
		c0.249,0.092,0.533,0.092,0.803,0.121c1.318,0.139,2.074,1.628,1.229,2.671c-0.34,0.415-1.163,0.598-1.765,0.597
		c-0.82-0.002-1.29,0.244-1.665,0.973c-0.581,1.132-0.079,2.215,1.196,2.3c0.792,0.053,1.586,0.006,2.382-0.002
		c1.132-0.008,1.337,0.179,1.413,1.319c0.005,0.067,0.016,0.135,0.017,0.2c0.005,1.481-0.252,1.74-1.729,1.742
		c-0.611,0-1.224,0-1.836,0C92.436,148.876,92.436,148.876,92.436,148.874z"/>
	<path fill="#2C2C2C" d="M32.616,148.879c-1.043,0-2.089-0.01-3.131,0.002c-2.232,0.03-3.546-2.162-3.261-4.111
		c0.25-1.698,0.453-3.408,0.602-5.123c0.152-1.758,0.262-1.905,2.04-1.919c0.227,0,0.456-0.011,0.681,0.011
		c0.496,0.046,0.818,0.293,0.788,0.827c-0.087,1.517-0.193,3.031-0.291,4.546c-0.027,0.428-0.088,0.857-0.076,1.285
		c0.025,0.845,0.409,1.234,1.269,1.244c1.519,0.023,3.041,0.016,4.561,0.001c1.207-0.012,1.518,0.269,1.496,1.455
		c-0.007,0.292-0.079,0.583-0.105,0.877c-0.063,0.672-0.455,0.937-1.102,0.931c-1.158-0.007-2.315-0.001-3.473-0.001
		C32.616,148.896,32.616,148.887,32.616,148.879z"/>
	<path fill="#2C2C2C" d="M67.203,148.896c-1.69,0-1.944-0.252-1.774-1.954c0.087-0.877,0.313-1.74,0.421-2.619
		c0.179-1.438,0.315-2.882,0.465-4.326c0.037-0.359,0.033-0.728,0.091-1.081c0.138-0.841,0.404-1.071,1.252-1.141
		c2.018-0.179,2.356,0.17,2.108,2.219c-0.303,2.498-0.605,4.994-0.932,7.489C68.66,148.833,68.556,148.897,67.203,148.896z"/>
</g>
</svg>
