<?xml version="1.0" encoding="utf-8"?>
<!-- Generator: Adobe Illustrator 16.0.0, SVG Export Plug-In . SVG Version: 6.00 Build 0)  -->
<!DOCTYPE svg PUBLIC "-//W3C//DTD SVG 1.1//EN" "http://www.w3.org/Graphics/SVG/1.1/DTD/svg11.dtd">
<svg version="1.1" id="flag-icon-css-am" xmlns="http://www.w3.org/2000/svg" xmlns:xlink="http://www.w3.org/1999/xlink" x="0px"
	 y="0px" width="150px" height="150px" viewBox="0 0 150 150" enable-background="new 0 0 150 150" xml:space="preserve">
<g>
	<g>
		<path fill="#F9CE19" d="M121.445,109.105c-8.451,15.234-46.997,38.566-46.997,38.566s-38.318-23.373-46.73-38.566
			c-10.631-19.2-14.964-76.531-14.964-76.531L50.556,5.649l47.082-1.65l38.772,28.576C136.41,32.574,132.093,89.913,121.445,109.105
			z"/>
		<path fill="#010101" d="M121.445,109.105l-0.979-0.542c-0.997,1.8-2.478,3.776-4.303,5.83c-3.197,3.596-7.448,7.435-12.02,11.147
			c-6.857,5.573-14.435,10.873-20.289,14.774c-2.93,1.95-5.429,3.553-7.193,4.664c-0.882,0.558-1.582,0.992-2.06,1.286
			c-0.239,0.148-0.422,0.261-0.546,0.336c-0.061,0.037-0.108,0.066-0.14,0.086c-0.03,0.019-0.045,0.027-0.046,0.027l0.58,0.957
			l0.583-0.955c0,0-0.036-0.021-0.108-0.065c-1.111-0.684-10.709-6.616-21.022-14.198c-5.156-3.79-10.49-7.992-15.022-12.143
			c-2.266-2.076-4.331-4.137-6.069-6.12c-1.739-1.981-3.15-3.888-4.112-5.627c-1.28-2.312-2.492-5.251-3.612-8.612
			c-1.963-5.886-3.655-13.059-5.078-20.495c-2.136-11.157-3.671-22.906-4.672-31.861c-0.5-4.478-0.867-8.256-1.108-10.914
			c-0.121-1.33-0.21-2.379-0.269-3.095c-0.03-0.358-0.052-0.633-0.066-0.818c-0.015-0.185-0.022-0.279-0.022-0.279l-1.116,0.084
			l0.649,0.912l37.528-26.73l46.354-1.625l38.46,28.345l0.664-0.901l-1.116-0.084c0,0.001-0.005,0.054-0.013,0.163
			c-0.13,1.675-1.289,16.1-3.698,32.402c-1.205,8.15-2.724,16.771-4.575,24.488c-0.927,3.859-1.937,7.492-3.03,10.724
			c-1.092,3.23-2.268,6.058-3.512,8.297L121.445,109.105l0.979,0.543c1.381-2.488,2.631-5.539,3.784-8.987
			c2.014-6.033,3.719-13.284,5.154-20.781c2.151-11.245,3.692-23.042,4.694-32.035c1.004-8.991,1.469-15.177,1.471-15.187
			l0.046-0.618L97.988,2.866H50.181L11.59,32.029l0.048,0.629c0.001,0.016,1.086,14.366,3.504,31.141
			c1.209,8.388,2.751,17.381,4.665,25.505c0.956,4.061,2.005,7.906,3.155,11.354c1.15,3.449,2.4,6.5,3.777,8.989
			c1.109,2.002,2.676,4.083,4.564,6.218c3.306,3.734,7.609,7.63,12.212,11.394c6.904,5.641,14.483,10.978,20.343,14.908
			c5.859,3.93,9.997,6.453,10.007,6.46l0.581,0.354l0.582-0.353c0.016-0.01,9.671-5.854,20.406-13.62
			c5.367-3.886,11.004-8.25,15.852-12.62c2.424-2.184,4.65-4.372,6.55-6.509c1.9-2.139,3.473-4.224,4.588-6.232L121.445,109.105z"/>
	</g>
	<g>
		<path fill="#F9CE19" d="M118.275,106.248c-7.88,14.204-43.817,35.958-43.817,35.958s-35.727-21.793-43.569-35.958
			c-9.912-17.902-13.953-71.355-13.953-71.355L52.182,9.789L96.078,8.25l36.149,26.644
			C132.228,34.893,128.203,88.354,118.275,106.248z"/>
		<path fill="#9292A1" d="M118.275,106.248l-3.426-1.899c-0.78,1.411-2.04,3.113-3.648,4.92c-1.407,1.584-3.079,3.256-4.921,4.952
			c-3.224,2.971-6.969,6.016-10.76,8.896c-5.688,4.32-11.482,8.27-15.84,11.127c-2.179,1.431-4,2.588-5.271,3.385
			c-0.636,0.398-1.135,0.708-1.473,0.916c-0.17,0.104-0.298,0.184-0.383,0.234c-0.043,0.026-0.075,0.047-0.096,0.06l-0.022,0.013
			l-0.005,0.004h-0.001l0,0l2.029,3.352l2.041-3.345h-0.002c-0.042-0.025-2.279-1.394-5.725-3.643
			c-2.584-1.687-5.847-3.87-9.372-6.354c-5.284-3.724-11.16-8.132-16.177-12.514c-2.508-2.189-4.801-4.372-6.684-6.43
			c-0.942-1.027-1.78-2.022-2.492-2.962c-0.712-0.938-1.295-1.821-1.731-2.609c-1.069-1.927-2.149-4.525-3.156-7.548
			c-0.883-2.646-1.717-5.62-2.491-8.785c-1.356-5.542-2.531-11.673-3.523-17.734c-1.489-9.094-2.568-18.036-3.271-24.69
			c-0.352-3.328-0.611-6.084-0.781-8.005c-0.085-0.96-0.148-1.712-0.19-2.221c-0.02-0.255-0.036-0.449-0.047-0.579
			c-0.004-0.064-0.008-0.113-0.011-0.146l-0.002-0.035l-0.001-0.008v-0.003l-1.667,0.127l1.667-0.126v-0.001l-1.667,0.127
			l1.667-0.126l-3.907,0.295l2.273,3.191l34.287-24.421l41.357-1.451l35.051,25.834l2.324-3.154l-3.907-0.294l1.964,0.147
			l-1.964-0.149v0.001l1.964,0.147l-1.964-0.149c-0.002,0.052-1.01,13.359-3.236,28.794c-1.113,7.715-2.532,15.962-4.265,23.304
			c-0.865,3.668-1.809,7.11-2.815,10.126c-1.005,3.015-2.086,5.604-3.154,7.527l0,0L118.275,106.248l3.427,1.9
			c1.411-2.548,2.627-5.535,3.74-8.863c0.972-2.91,1.856-6.076,2.671-9.402c1.424-5.819,2.63-12.127,3.646-18.331
			c1.521-9.305,2.611-18.376,3.326-25.135c0.714-6.757,1.049-11.201,1.05-11.23l0.164-2.162L97.305,4.286H50.867L12.862,32.984
			l0.167,2.204c0.004,0.054,1.019,13.482,3.289,29.229c1.136,7.876,2.584,16.331,4.396,24.028c0.907,3.851,1.904,7.513,3.013,10.838
			c1.112,3.328,2.326,6.316,3.734,8.863c1.184,2.134,2.764,4.214,4.618,6.313c1.623,1.833,3.461,3.672,5.439,5.504
			c3.461,3.204,7.357,6.384,11.265,9.372c5.86,4.478,11.749,8.518,16.186,11.448c4.436,2.931,7.418,4.751,7.45,4.769l2.032,1.24
			l2.037-1.232c0.027-0.017,2.304-1.396,5.838-3.684c2.651-1.717,6.009-3.945,9.655-6.495c5.471-3.827,11.59-8.373,16.979-13.047
			c2.696-2.339,5.212-4.71,7.387-7.071c1.089-1.181,2.093-2.361,2.991-3.543c0.899-1.182,1.696-2.364,2.365-3.569v-0.001
			L118.275,106.248z"/>
	</g>
	<g>
		<path fill="#F9CE19" d="M115.087,103.262c-7.266,13.094-40.396,33.148-40.396,33.148s-32.936-20.09-40.167-33.148
			c-9.138-16.504-12.863-65.783-12.863-65.783l32.493-23.144l40.469-1.418l33.326,24.562
			C127.949,37.479,124.238,86.765,115.087,103.262z"/>
		<path fill="#010101" d="M115.087,103.262l-0.98-0.544c-0.849,1.534-2.114,3.225-3.679,4.984
			c-2.737,3.082-6.387,6.376-10.313,9.563c-5.888,4.785-12.396,9.34-17.429,12.689c-2.516,1.676-4.662,3.053-6.179,4.008
			c-0.757,0.479-1.358,0.852-1.769,1.105c-0.205,0.127-0.363,0.223-0.469,0.288c-0.053,0.032-0.093,0.057-0.12,0.073
			c-0.027,0.016-0.04,0.023-0.04,0.023l0.58,0.957l0.583-0.954c0,0-0.03-0.02-0.092-0.057c-0.953-0.586-9.2-5.684-18.059-12.197
			c-4.428-3.254-9.01-6.865-12.899-10.425c-1.944-1.782-3.714-3.549-5.204-5.249c-1.49-1.696-2.697-3.328-3.516-4.81
			c-1.094-1.974-2.133-4.493-3.094-7.376c-1.684-5.048-3.137-11.208-4.359-17.597c-1.834-9.583-3.154-19.679-4.014-27.374
			c-0.43-3.847-0.745-7.094-0.952-9.378c-0.104-1.142-0.181-2.043-0.231-2.659c-0.025-0.308-0.044-0.543-0.057-0.702
			s-0.019-0.239-0.019-0.239l-1.116,0.084l0.649,0.912L54.53,14.122h39.744l33.012,24.258l0.664-0.901l-1.117-0.084
			c0,0-0.003,0.046-0.011,0.139c-0.112,1.437-1.106,13.833-3.177,27.84c-1.034,7.002-2.339,14.409-3.931,21.036
			c-0.795,3.313-1.661,6.432-2.6,9.204c-0.938,2.77-1.946,5.193-3.008,7.104L115.087,103.262l0.978,0.543
			c1.193-2.151,2.271-4.781,3.264-7.751c1.735-5.196,3.202-11.435,4.438-17.884c1.85-9.672,3.174-19.815,4.036-27.548
			c0.862-7.73,1.263-13.049,1.263-13.06l0.047-0.617L94.974,11.908H53.779L20.498,36.934l0.047,0.63
			c0.002,0.015,0.934,12.353,3.014,26.778c1.04,7.213,2.366,14.947,4.012,21.936c0.823,3.495,1.725,6.803,2.716,9.773
			c0.992,2.97,2.068,5.602,3.258,7.753c0.962,1.735,2.314,3.532,3.944,5.373c2.85,3.22,6.554,6.572,10.514,9.81
			c5.94,4.854,12.458,9.443,17.498,12.822c5.039,3.382,8.598,5.553,8.607,5.558l0.58,0.354l0.583-0.352
			c0.016-0.011,8.317-5.035,17.55-11.716c4.617-3.341,9.466-7.095,13.64-10.856c2.085-1.882,4.004-3.766,5.642-5.607
			c1.638-1.845,2.997-3.645,3.963-5.385L115.087,103.262z"/>
	</g>
	<g>
		<g>
			<polygon fill="#9292A1" points="135.116,100.17 122.16,105.464 118.246,118.147 19.183,118.147 22.018,105.406 12.031,100.23 
				16.214,77.173 139.704,77.173 			"/>
			<polygon fill="#010101" points="135.116,100.17 134.693,99.134 121.245,104.627 117.419,117.027 20.579,117.027 23.297,104.809 
				13.279,99.618 17.148,78.292 138.34,78.292 134.018,99.951 135.116,100.17 134.693,99.134 135.116,100.17 136.214,100.39 
				141.069,76.053 15.279,76.053 10.781,100.845 20.738,106.003 17.787,119.266 119.071,119.266 123.073,106.3 136.096,100.979 
				136.214,100.39 			"/>
		</g>
		<polygon fill="#010101" points="132.215,99.5 15.606,99.5 18.846,80.5 135.857,80.5 		"/>
		<g>
			<path fill="#FFFFFF" d="M34.046,91.049h-2v-0.011v0.011c-0.007,0.02-0.049,0.2-0.126,0.54c-0.09,0.388-0.2,0.849-0.329,1.387
				c-0.128,0.538-0.245,1.027-0.348,1.468c-0.104,0.441-0.168,0.711-0.193,0.808h-3.227l2.637-10.867
				c0.508-1.43,1.426-2.146,2.753-2.146h6.318c0.895,0,1.62,0.339,2.173,1.015c0.554,0.67,0.737,1.446,0.55,2.327
				c-0.186,0.76-0.341,1.395-0.463,1.904c-0.123,0.509-0.235,0.981-0.339,1.419c-0.161,0.626-0.496,1.141-1.004,1.547
				c-0.51,0.398-1.099,0.599-1.768,0.599h-1.178l2.511,4.222h-3.448L34.046,91.049z M39.233,85.668
				c0.019-0.116-0.01-0.219-0.087-0.31c-0.078-0.097-0.174-0.145-0.29-0.145h-4.985c-0.071,0-0.145,0.028-0.223,0.087
				c-0.077,0.064-0.129,0.142-0.154,0.232l-0.561,2.492h5.352c0.199,0,0.332-0.091,0.396-0.271L39.233,85.668z"/>
			<path fill="#FFFFFF" d="M43.773,84.393c0.508-1.436,1.403-2.154,2.685-2.154h9.477l-3.158,13.032h-3.082l0.878-3.594l1.565-6.454
				h-5.236c-0.071,0-0.141,0.03-0.212,0.088c-0.078,0.059-0.129,0.135-0.154,0.231l-0.764,3.148H50.4l-0.734,2.995h-4.617
				l-0.87,3.585h-3.063L43.773,84.393z"/>
			<path fill="#FFFFFF" d="M58.631,90.498l-0.435,1.786h3.903l2.512-10.046c0.824,0.136,1.469,0.522,1.932,1.159
				c0.458,0.631,0.596,1.353,0.415,2.164l-1.845,7.555c-0.522,1.436-1.456,2.154-2.802,2.154h-8.085
				c0.328-1.359,0.622-2.566,0.879-3.623c0.103-0.406,0.196-0.79,0.28-1.149H58.631z"/>
			<path fill="#FFFFFF" d="M72.039,85.223c-0.09,0-0.167,0.026-0.231,0.078c-0.064,0.058-0.11,0.122-0.136,0.193
				c-0.058,0.232-0.104,0.424-0.14,0.579c-0.036,0.154-0.069,0.298-0.102,0.43c-0.032,0.133-0.055,0.225-0.067,0.276
				c-0.02,0.122,0.006,0.228,0.077,0.318c0.071,0.09,0.165,0.135,0.28,0.135c0.045,0,0.282,0,0.71,0c0.429,0,0.936,0,1.522,0
				s1.121,0,1.604,0c0.482,0,0.779,0,0.889,0c0.869,0,1.564,0.343,2.086,1.024c0.521,0.676,0.683,1.455,0.483,2.338
				c0,0.006-0.004,0.016-0.01,0.028c0,0.013-0.027,0.132-0.081,0.354c-0.056,0.222-0.12,0.484-0.195,0.787
				c-0.073,0.303-0.142,0.583-0.206,0.841c-0.064,0.257-0.104,0.424-0.116,0.502c-0.174,0.639-0.512,1.159-1.016,1.564
				c-0.501,0.399-1.087,0.6-1.757,0.6c-0.008,0-0.017,0-0.029,0c-0.091,0-0.568,0-1.435,0s-1.885,0-3.057,0
				c-1.173,0-2.236,0-3.193,0c-0.956,0-1.524,0-1.705,0c0.129-0.555,0.239-1.017,0.329-1.387s0.172-0.712,0.247-1.024
				c0.074-0.312,0.121-0.517,0.14-0.612c0.077,0,0.497,0,1.26,0c0.763,0,1.661,0,2.695,0c1.033,0,1.972,0,2.815,0
				c0.844,0,1.346,0,1.507,0c0.181,0,0.305-0.094,0.376-0.28c0.059-0.233,0.104-0.426,0.141-0.58
				c0.035-0.155,0.068-0.298,0.102-0.43c0.032-0.133,0.055-0.225,0.067-0.276c0.045-0.114,0.032-0.222-0.038-0.318
				c-0.071-0.097-0.164-0.145-0.28-0.145h0.009c-0.006,0-0.016,0-0.028,0c-0.045,0-0.285,0-0.72,0s-0.946,0-1.531,0
				c-0.586,0-1.121,0-1.604,0s-0.776,0-0.878,0c-0.876,0-1.575-0.331-2.097-0.996c-0.527-0.661-0.689-1.444-0.482-2.346
				c0-0.007,0-0.016,0-0.03l0.02-0.086c0.038-0.148,0.101-0.396,0.188-0.743c0.086-0.349,0.17-0.689,0.251-1.021
				s0.133-0.548,0.159-0.651c0.547-1.403,1.465-2.106,2.753-2.106c0.006,0,0.017,0,0.029,0c0.09,0,0.57,0,1.439,0
				c0.87,0,1.889,0,3.058,0c1.169,0,2.233,0,3.193,0s1.528,0,1.709,0c-0.128,0.548-0.237,1.004-0.329,1.367
				c-0.089,0.364-0.172,0.7-0.245,1.009c-0.074,0.31-0.121,0.512-0.141,0.608c-0.077,0-0.499,0-1.266,0c-0.766,0-1.666,0-2.699,0
				c-1.034,0-1.973,0-2.816,0S72.2,85.223,72.039,85.223z"/>
			<path fill="#FFFFFF" d="M81.795,84.393c0.547-1.436,1.461-2.154,2.733-2.154h0.832l-0.918,3.98l-0.241,1.014h4.937
				c0.161,0,0.306-0.049,0.435-0.144c0.136-0.104,0.222-0.236,0.261-0.396l0.116-0.493h0.011l0.917-3.961h3.159L91.34,93.116
				c-0.509,1.436-1.423,2.154-2.744,2.154h-0.83l0.918-3.835l0.289-1.159h-4.927c-0.372,0-0.621,0.18-0.742,0.54l-0.088,0.367
				l-0.985,4.087H79.14L81.795,84.393z"/>
			<path fill="#FFFFFF" d="M94.856,84.393c0.508-1.436,1.403-2.154,2.686-2.154h9.476l-3.157,13.032h-3.082l0.879-3.594l1.564-6.454
				h-5.236c-0.07,0-0.141,0.03-0.213,0.088c-0.076,0.059-0.127,0.135-0.153,0.231l-0.764,3.148h4.627l-0.733,2.995h-4.618
				l-0.868,3.585H92.2L94.856,84.393z"/>
			<path fill="#FFFFFF" d="M107.965,84.393c0.548-1.436,1.459-2.154,2.734-2.154h0.83l-0.917,3.98l-0.241,1.014h4.937
				c0.16,0,0.306-0.049,0.435-0.144c0.134-0.104,0.222-0.236,0.261-0.396l0.116-0.493h0.009l0.918-3.961h3.158l-2.694,10.878
				c-0.509,1.436-1.425,2.154-2.744,2.154h-0.829l0.917-3.835l0.289-1.159h-4.927c-0.373,0-0.62,0.18-0.743,0.54l-0.088,0.367
				l-0.985,4.087h-3.091L107.965,84.393z"/>
			<path fill="#FFFFFF" d="M121.025,84.393c0.548-1.436,1.462-2.154,2.744-2.154h0.82l-3.129,13.032h-3.091L121.025,84.393z"/>
		</g>
		<g>
			
				<linearGradient id="SVGID_1_" gradientUnits="userSpaceOnUse" x1="1.9043" y1="149.4004" x2="2.1285" y2="149.4004" gradientTransform="matrix(4.0686 -136.9716 -136.9716 -4.0686 20486.6934 998.8075)">
				<stop  offset="0" style="stop-color:#F89934"/>
				<stop  offset="0.3333" style="stop-color:#F89934"/>
				<stop  offset="0.7634" style="stop-color:#FED401"/>
				<stop  offset="1" style="stop-color:#FED401"/>
			</linearGradient>
			<path fill="url(#SVGID_1_)" d="M30.226,109.912h-2.411v-0.013v0.013c-0.008,0.023-0.058,0.239-0.151,0.651
				c-0.109,0.466-0.241,1.022-0.397,1.672c-0.155,0.647-0.294,1.238-0.419,1.77c-0.124,0.531-0.202,0.856-0.233,0.973h-3.89
				l3.18-13.103c0.295-0.83-2.694-2.639-2.694-2.639l6.013,0.053h7.617c1.079,0,1.953,0.409,2.621,1.224
				c0.667,0.808,0.889,1.743,0.664,2.806c-0.226,0.918-0.412,1.682-0.559,2.295c-0.148,0.613-0.284,1.185-0.408,1.712
				c-0.195,0.754-0.599,1.375-1.211,1.864c-0.614,0.481-1.324,0.723-2.131,0.723h-1.421l3.028,5.089h-4.158L30.226,109.912z
				 M36.48,103.425c0.023-0.14-0.012-0.265-0.104-0.373c-0.094-0.116-0.209-0.176-0.35-0.176h-6.009
				c-0.086,0-0.175,0.035-0.268,0.106c-0.093,0.076-0.156,0.17-0.187,0.278l-0.676,3.006h6.452c0.241,0,0.4-0.109,0.478-0.328
				L36.48,103.425z"/>
			<path fill="#010101" d="M30.226,109.912v-0.337h-2.411v0.337h0.336v-0.013h-0.672v0.013h0.336l-0.318-0.108
				c-0.007,0.023-0.008,0.028-0.012,0.042c-0.01,0.038-0.025,0.106-0.05,0.215c-0.025,0.105-0.057,0.249-0.099,0.43l0.001-0.003
				c-0.109,0.466-0.241,1.021-0.396,1.669l0,0c-0.156,0.649-0.295,1.238-0.42,1.772c-0.124,0.53-0.202,0.856-0.23,0.961l0.325,0.088
				v-0.335h-3.462l3.079-12.688l-0.327-0.079l0.316,0.112c0.028-0.077,0.041-0.158,0.04-0.235c-0.001-0.198-0.07-0.367-0.162-0.526
				c-0.163-0.277-0.408-0.54-0.689-0.798c-0.422-0.383-0.925-0.749-1.325-1.024c-0.4-0.273-0.697-0.452-0.701-0.455l-0.174,0.288
				l-0.003,0.336l6.015,0.054h7.618c0.498,0,0.934,0.093,1.322,0.273c0.388,0.182,0.732,0.452,1.038,0.825l0.001,0.001l0,0
				c0.455,0.554,0.67,1.142,0.672,1.814c0,0.227-0.025,0.463-0.077,0.709l0.328,0.069l-0.326-0.079
				c-0.226,0.917-0.412,1.682-0.56,2.296l0,0c-0.147,0.614-0.284,1.186-0.408,1.713l0.327,0.077l-0.326-0.084
				c-0.179,0.687-0.535,1.236-1.095,1.686l0.002-0.002c-0.558,0.437-1.183,0.649-1.924,0.65h-2.011l3.028,5.09h-3.377l-3.04-5.09
				h-0.19V109.912l-0.289,0.171l3.138,5.253h4.939l-3.029-5.089h0.831c0.874,0.001,1.67-0.267,2.338-0.795h0.001l0-0.001
				c0.667-0.528,1.118-1.223,1.328-2.042l0-0.004l0.001-0.004c0.124-0.526,0.26-1.097,0.407-1.71l0,0
				c0.147-0.611,0.333-1.375,0.559-2.291l0.001-0.006l0.001-0.006c0.061-0.289,0.092-0.571,0.092-0.849
				c0.002-0.823-0.282-1.587-0.826-2.241l0.001,0.002c-0.361-0.443-0.789-0.783-1.273-1.009c-0.485-0.228-1.025-0.339-1.606-0.339
				h-7.617h0.003l-7.239-0.064l1.049,0.635l0.028,0.019c0.143,0.088,0.807,0.503,1.422,0.988c0.308,0.241,0.603,0.501,0.809,0.735
				c0.104,0.114,0.184,0.226,0.232,0.314c0.05,0.088,0.063,0.152,0.061,0.172l-0.001,0.011l-0.006,0.016l-3.284,13.534h4.575
				l0.066-0.248c0.034-0.128,0.111-0.449,0.235-0.983c0.124-0.531,0.264-1.12,0.419-1.768l0,0c0.155-0.649,0.288-1.207,0.396-1.673
				v-0.001v-0.002c0.046-0.206,0.083-0.362,0.108-0.471c0.012-0.053,0.022-0.095,0.029-0.122l0.007-0.032l0.002-0.006l-0.207-0.057
				l0.203,0.068l0.004-0.012l-0.207-0.057l0.203,0.068l0.018-0.053v-0.066h-0.672v0.013v0.335h2.747V109.912l-0.289,0.171
				L30.226,109.912z M36.48,103.425l0.332,0.056c0.007-0.046,0.012-0.092,0.012-0.139c0.002-0.186-0.073-0.371-0.193-0.508
				l-0.255,0.218l0.262-0.21c-0.071-0.089-0.162-0.168-0.268-0.221c-0.106-0.055-0.227-0.081-0.343-0.081h-6.009
				c-0.181,0.001-0.339,0.074-0.47,0.174l-0.006,0.004l-0.006,0.007c-0.139,0.111-0.246,0.27-0.295,0.444l-0.002,0.009l-0.77,3.424
				h6.872c0.17,0,0.343-0.04,0.489-0.139c0.146-0.101,0.249-0.251,0.305-0.41l0.004-0.015l0.672-2.544l0.002-0.014L36.48,103.425
				l-0.324-0.087l-0.665,2.517l0.325,0.084l-0.317-0.112c-0.022,0.059-0.037,0.071-0.05,0.082c-0.014,0.007-0.039,0.021-0.11,0.021
				h-6.032l0.583-2.596l-0.327-0.073l0.323,0.092c0.013-0.041,0.03-0.071,0.078-0.112l-0.215-0.258l0.202,0.267
				c0.026-0.02,0.047-0.029,0.058-0.033l0.01-0.003h0l-0.002-0.02v0.02h0.002l-0.002-0.02v0.02h6.009
				c0.023,0,0.031,0.003,0.042,0.008c0.01,0.005,0.024,0.015,0.045,0.041l0.004,0.004l0.003,0.004
				c0.03,0.039,0.029,0.046,0.031,0.072l-0.002,0.027L36.48,103.425l-0.324-0.087L36.48,103.425z"/>
			
				<linearGradient id="SVGID_2_" gradientUnits="userSpaceOnUse" x1="1.9043" y1="149.8281" x2="2.1281" y2="149.8281" gradientTransform="matrix(4.0686 -136.9719 -136.9719 -4.0686 20562.1094 1001.0589)">
				<stop  offset="0" style="stop-color:#F89934"/>
				<stop  offset="0.3333" style="stop-color:#F89934"/>
				<stop  offset="0.7634" style="stop-color:#FED401"/>
				<stop  offset="1" style="stop-color:#FED401"/>
			</linearGradient>
			<path fill="url(#SVGID_2_)" d="M41.884,101.887c0.683-1.73,1.879-2.598,3.587-2.598h0.035c0.078,0,0.488,0,1.229,0
				c0.742,0,1.613,0,2.615,0c1.002,0,1.915,0,2.738,0c0.822,0,1.319,0,1.49,0c1.149,0,2.084,0.409,2.807,1.224
				c0.722,0.808,0.97,1.743,0.745,2.806l-0.256,1.061c-0.194,0.8-0.435,1.784-0.722,2.953c-0.288,1.167-0.549,2.246-0.786,3.231
				c-0.237,0.986-0.386,1.6-0.449,1.841c-0.613,1.73-1.805,2.597-3.575,2.597c-0.078,0-0.485,0-1.223,0s-1.605,0-2.603,0
				c-0.997,0-1.908,0-2.731,0c-0.823,0-1.32,0-1.491,0c-1.18,0-2.131-0.408-2.854-1.223c-0.714-0.808-0.966-1.744-0.756-2.808
				c0.411-1.708,0.755-3.127,1.031-4.257s0.525-2.158,0.751-3.086C41.69,102.699,41.83,102.119,41.884,101.887z M50.654,111.401
				c0.24,0,0.403-0.127,0.489-0.384c0.341-1.428,0.629-2.612,0.862-3.553c0.233-0.938,0.442-1.797,0.629-2.573
				c0.186-0.777,0.303-1.262,0.35-1.455c0.023-0.148-0.008-0.276-0.093-0.385c-0.085-0.109-0.218-0.164-0.396-0.164h-0.035
				c-0.063,0-0.381,0-0.955,0c-0.575,0-1.252,0-2.033,0c-0.78,0-1.49,0-2.131,0c-0.641,0-1.035,0-1.182,0
				c-0.249,0-0.412,0.129-0.489,0.385c-0.008,0.039-0.097,0.406-0.268,1.101c-0.171,0.696-0.371,1.513-0.6,2.452
				c-0.229,0.938-0.437,1.798-0.623,2.574c-0.187,0.775-0.307,1.262-0.361,1.455c-0.023,0.147,0.016,0.276,0.117,0.385
				c0.108,0.108,0.237,0.162,0.384,0.162c0.054,0,0.37,0,0.949,0s1.26,0,2.044,0c0.785,0,1.501,0,2.149,0
				C50.108,111.401,50.506,111.401,50.654,111.401z"/>
			<path fill="#010101" d="M41.884,101.887l0.312,0.124c0.325-0.823,0.759-1.412,1.294-1.8c0.536-0.387,1.182-0.585,1.981-0.585
				h0.035c0.078,0,0.488,0,1.229,0c0.742,0,1.613,0,2.615,0c1.002,0,1.915,0,2.738,0c0.822,0,1.319,0,1.49,0
				c0.536,0,1.007,0.094,1.429,0.277c0.421,0.185,0.794,0.458,1.126,0.832l0,0.001l0,0c0.503,0.566,0.738,1.163,0.74,1.846
				c0,0.214-0.023,0.437-0.073,0.667l0.329,0.069l-0.327-0.078l-0.256,1.061l0,0c-0.194,0.798-0.435,1.782-0.722,2.95
				c-0.288,1.17-0.55,2.248-0.787,3.233l0,0c-0.237,0.985-0.386,1.601-0.447,1.836l0.325,0.084l-0.316-0.112
				c-0.291,0.819-0.705,1.402-1.235,1.788c-0.531,0.384-1.193,0.584-2.024,0.585c-0.078,0-0.485,0-1.223,0s-1.605,0-2.603,0
				c-0.997,0-1.908,0-2.731,0c-0.823,0-1.32,0-1.491,0c-0.552,0-1.037-0.095-1.466-0.278c-0.429-0.185-0.805-0.458-1.135-0.832
				c-0.506-0.574-0.742-1.182-0.745-1.878c0-0.205,0.021-0.42,0.065-0.642l-0.33-0.064l0.327,0.079
				c0.411-1.708,0.755-3.127,1.03-4.256c0.276-1.13,0.526-2.158,0.751-3.087l0,0c0.226-0.928,0.365-1.508,0.42-1.744L41.884,101.887
				l0.312,0.124L41.884,101.887l-0.327-0.076c-0.054,0.229-0.194,0.811-0.419,1.738l0,0c-0.225,0.929-0.476,1.956-0.751,3.087
				c-0.275,1.13-0.619,2.549-1.031,4.257l-0.001,0.008l-0.001,0.006c-0.052,0.261-0.078,0.518-0.078,0.771
				c-0.002,0.856,0.313,1.649,0.913,2.323c0.391,0.442,0.852,0.78,1.374,1.003c0.522,0.225,1.102,0.335,1.731,0.333
				c0.17,0,0.667,0,1.491,0c0.823,0,1.734,0,2.731,0c0.998,0,1.865,0,2.603,0s1.146,0,1.223,0c0.938,0.002,1.758-0.232,2.418-0.713
				c0.662-0.48,1.151-1.194,1.473-2.106l0.005-0.015l0.003-0.016c0.064-0.245,0.213-0.857,0.45-1.845l0,0
				c0.237-0.985,0.499-2.061,0.786-3.229s0.528-2.153,0.722-2.954l0,0l0.258-1.064l0.001-0.005c0.058-0.273,0.087-0.542,0.087-0.807
				c0.002-0.846-0.313-1.629-0.912-2.293l0.001,0.001c-0.39-0.441-0.846-0.778-1.36-1.002c-0.514-0.225-1.083-0.335-1.698-0.335
				c-0.171,0-0.668,0-1.49,0c-0.823,0-1.736,0-2.738,0c-1.001,0-1.873,0-2.615,0c-0.741,0-1.151,0-1.229,0h-0.035
				c-0.91-0.001-1.715,0.235-2.375,0.714c-0.661,0.479-1.167,1.188-1.525,2.096l-0.009,0.023l-0.005,0.024L41.884,101.887z
				 M50.654,111.401v0.337c0.178,0.001,0.365-0.053,0.51-0.168s0.24-0.274,0.297-0.446l0.004-0.014l0.003-0.015
				c0.341-1.428,0.629-2.61,0.861-3.55l0,0c0.233-0.938,0.443-1.798,0.629-2.576c0.187-0.776,0.303-1.262,0.35-1.456l0.003-0.012
				l0.002-0.014c0.007-0.047,0.011-0.096,0.011-0.144c0.002-0.18-0.061-0.361-0.171-0.499l-0.001-0.002h0.001
				c-0.078-0.099-0.184-0.178-0.299-0.226c-0.116-0.048-0.238-0.065-0.361-0.065h-0.035c-0.063,0-0.381,0-0.955,0
				c-0.575,0-1.252,0-2.033,0c-0.78,0-1.49,0-2.131,0c-0.641,0-1.035,0-1.182,0c-0.18-0.001-0.369,0.05-0.516,0.168
				c-0.148,0.115-0.242,0.281-0.294,0.455l-0.004,0.016l-0.003,0.016l0.027,0.005l-0.027-0.007v0.002l0.027,0.005l-0.027-0.007
				c-0.004,0.019-0.03,0.129-0.074,0.31c-0.044,0.184-0.108,0.442-0.19,0.778l0,0c-0.171,0.696-0.372,1.513-0.601,2.452
				c-0.229,0.94-0.437,1.798-0.624,2.576l0,0.004l0-0.004c-0.186,0.773-0.307,1.262-0.357,1.443l-0.005,0.02l-0.003,0.018
				c-0.007,0.044-0.01,0.089-0.01,0.135c-0.001,0.097,0.018,0.195,0.055,0.287c0.038,0.091,0.092,0.173,0.158,0.244l0.004,0.004
				l0.004,0.004c0.081,0.082,0.177,0.15,0.284,0.194c0.106,0.047,0.223,0.068,0.338,0.068c0.054,0,0.37,0,0.949,0s1.26,0,2.044,0
				c0.785,0,1.501,0,2.149,0c0.648,0,1.045,0,1.194,0V111.401v-0.335c-0.148,0-0.546,0-1.194,0c-0.648,0-1.365,0-2.149,0
				c-0.784,0-1.465,0-2.044,0s-0.895,0-0.949,0c-0.033,0-0.055-0.005-0.075-0.015c-0.021-0.009-0.044-0.022-0.071-0.05l-0.238,0.237
				l0.247-0.229l-0.028-0.039l-0.006-0.034l0.002-0.03l-0.332-0.052l0.324,0.089c0.058-0.205,0.177-0.688,0.364-1.466l0,0
				c0.187-0.777,0.394-1.634,0.623-2.574c0.229-0.938,0.429-1.755,0.599-2.449l0,0c0.086-0.347,0.151-0.614,0.195-0.797
				c0.023-0.092,0.04-0.164,0.052-0.216c0.007-0.024,0.011-0.047,0.015-0.063l0.008-0.038l-0.329-0.067l0.322,0.098
				c0.025-0.082,0.052-0.11,0.066-0.121c0.015-0.012,0.033-0.023,0.101-0.025c0.147,0,0.542,0,1.182,0c0.641,0,1.351,0,2.131,0
				c0.781,0,1.458,0,2.033,0c0.574,0,0.893,0,0.955,0h0.035c0.055,0,0.088,0.009,0.104,0.017l0.027,0.02v-0.002
				c0.023,0.034,0.027,0.046,0.029,0.087l-0.004,0.039l0.333,0.053l-0.327-0.079c-0.046,0.195-0.163,0.679-0.349,1.456
				c-0.186,0.775-0.396,1.634-0.629,2.571l0,0c-0.233,0.94-0.521,2.126-0.862,3.556l0.327,0.077l-0.319-0.106
				c-0.028,0.084-0.058,0.118-0.075,0.131s-0.034,0.023-0.095,0.024V111.401z"/>
			
				<linearGradient id="SVGID_3_" gradientUnits="userSpaceOnUse" x1="1.9048" y1="150.2656" x2="2.1282" y2="150.2656" gradientTransform="matrix(4.0686 -136.9738 -136.9738 -4.0686 20639.8965 1003.3185)">
				<stop  offset="0" style="stop-color:#F89934"/>
				<stop  offset="0.3333" style="stop-color:#F89934"/>
				<stop  offset="0.7634" style="stop-color:#FED401"/>
				<stop  offset="1" style="stop-color:#FED401"/>
			</linearGradient>
			<polygon fill="url(#SVGID_3_)" points="73.889,99.289 66.307,108.083 64.688,115.001 60.728,115.001 62.44,107.781 
				58.131,99.289 62.498,99.289 64.92,104.101 69.171,99.289 			"/>
			<polygon fill="#010101" points="73.889,99.289 73.634,99.069 65.999,107.927 64.421,114.665 61.152,114.665 62.795,107.738 
				58.678,99.626 62.291,99.626 64.844,104.694 69.323,99.626 73.889,99.626 73.889,99.289 73.634,99.069 73.889,99.289 
				73.889,98.953 69.02,98.953 64.998,103.506 62.705,98.953 57.584,98.953 62.084,107.822 60.304,115.336 64.954,115.336 
				66.615,108.24 74.621,98.953 73.889,98.953 			"/>
			
				<linearGradient id="SVGID_4_" gradientUnits="userSpaceOnUse" x1="1.9048" y1="150.6211" x2="2.1282" y2="150.6211" gradientTransform="matrix(4.0686 -136.9735 -136.9735 -4.0686 20702.6074 1005.1922)">
				<stop  offset="0" style="stop-color:#F89934"/>
				<stop  offset="0.3333" style="stop-color:#F89934"/>
				<stop  offset="0.7634" style="stop-color:#FED401"/>
				<stop  offset="1" style="stop-color:#FED401"/>
			</linearGradient>
			<path fill="url(#SVGID_4_)" d="M74.11,101.887c0.613-1.73,1.692-2.598,3.238-2.598h11.425l-3.808,15.712h-3.717l1.061-4.332
				l1.888-7.781h-6.313c-0.085,0-0.17,0.035-0.256,0.106c-0.093,0.069-0.155,0.162-0.187,0.278l-0.92,3.796H82.1l-0.885,3.611
				h-5.567l-1.049,4.321h-3.692L74.11,101.887z"/>
			<path fill="#010101" d="M74.11,101.887l0.316,0.112c0.292-0.825,0.686-1.415,1.163-1.798c0.479-0.382,1.048-0.574,1.759-0.575
				h10.998L84.7,114.665h-3.023l0.958-3.916l1.987-8.196h-6.739c-0.181,0-0.343,0.077-0.467,0.181l0.211,0.261l-0.201-0.27
				c-0.151,0.111-0.263,0.28-0.311,0.461v0.004l-1.021,4.216h5.578l-0.722,2.938h-5.567l-1.048,4.321h-3l3.101-12.698L74.11,101.887
				l0.316,0.112L74.11,101.887l-0.327-0.078l-3.304,13.527h4.384l1.049-4.32h5.564l1.05-4.282h-5.579l0.819-3.381l-0.326-0.08
				l0.325,0.088c0.014-0.052,0.028-0.071,0.063-0.099l0.005-0.004l0.005-0.005c0.022-0.018,0.037-0.024,0.044-0.027l0.004-0.002
				l-0.004-0.017v0.017h0.004l-0.004-0.017v0.017h5.886l-1.786,7.365l0,0l-1.161,4.747h4.406L89.2,98.953H77.348
				c-0.835-0.001-1.578,0.24-2.179,0.724c-0.602,0.483-1.055,1.191-1.376,2.098l-0.006,0.017l-0.004,0.018L74.11,101.887z"/>
			
				<linearGradient id="SVGID_5_" gradientUnits="userSpaceOnUse" x1="1.9053" y1="150.9932" x2="2.1292" y2="150.9932" gradientTransform="matrix(4.0686 -136.9723 -136.9723 -4.0686 20768.0469 1007.186)">
				<stop  offset="0" style="stop-color:#F89934"/>
				<stop  offset="0.3333" style="stop-color:#F89934"/>
				<stop  offset="0.7634" style="stop-color:#FED401"/>
				<stop  offset="1" style="stop-color:#FED401"/>
			</linearGradient>
			<path fill="url(#SVGID_5_)" d="M89.856,101.887c0.193-0.784,0.604-1.412,1.233-1.886c0.629-0.475,1.348-0.712,2.155-0.712h1.105
				l-2.772,11.565c-0.022,0.147,0.014,0.276,0.106,0.385s0.214,0.162,0.36,0.162l9.212,0.012c-0.03,0.117-0.069,0.269-0.116,0.454
				c-0.085,0.35-0.181,0.747-0.285,1.188c-0.105,0.442-0.202,0.848-0.291,1.211c-0.089,0.365-0.149,0.61-0.181,0.734h-9.341
				c-1.117,0-2.019-0.408-2.701-1.223c-0.691-0.808-0.916-1.744-0.676-2.808L89.856,101.887z"/>
			<path fill="#010101" d="M89.856,101.887l0.325,0.081c0.179-0.717,0.542-1.268,1.11-1.698c0.574-0.433,1.211-0.643,1.953-0.644
				h0.68l-2.676,11.163l-0.001,0.013c-0.008,0.045-0.012,0.093-0.012,0.14c-0.002,0.187,0.071,0.377,0.192,0.516l0,0l0,0
				c0.075,0.088,0.17,0.163,0.277,0.211c0.107,0.049,0.225,0.07,0.339,0.07l9.212,0.011v-0.336l-0.323-0.086
				c-0.032,0.118-0.071,0.272-0.119,0.459v0.001l0,0c-0.085,0.352-0.181,0.748-0.286,1.191c-0.104,0.442-0.201,0.845-0.29,1.208l0,0
				c-0.089,0.365-0.15,0.61-0.18,0.731l0.325,0.083v-0.336h-9.341c-0.519,0-0.973-0.094-1.375-0.275
				c-0.402-0.184-0.756-0.454-1.069-0.827v-0.003l-0.003-0.001c-0.467-0.548-0.685-1.127-0.688-1.789
				c0-0.231,0.028-0.473,0.085-0.724l-0.327-0.075l0.326,0.079l2.189-9.084v0.002L89.856,101.887l-0.328-0.078l-2.188,9.086
				l-0.002,0.003c-0.066,0.297-0.101,0.587-0.101,0.872c-0.002,0.819,0.291,1.577,0.85,2.227l0.255-0.218l-0.258,0.215
				c0.37,0.442,0.809,0.782,1.307,1.008c0.499,0.226,1.054,0.337,1.652,0.335h9.604l0.063-0.254c0.031-0.125,0.092-0.37,0.181-0.735
				l0,0c0.089-0.365,0.188-0.771,0.292-1.214c0.104-0.441,0.198-0.837,0.285-1.186l-0.002,0.003c0.047-0.186,0.085-0.337,0.116-0.45
				l0.112-0.422l-9.649-0.012l0,0c-0.033,0-0.05-0.005-0.063-0.012s-0.024-0.013-0.044-0.035l0.001,0.002
				c-0.027-0.035-0.028-0.043-0.031-0.08l0.003-0.035l-0.333-0.052l0.328,0.079l2.87-11.98h-1.531
				c-0.873-0.001-1.675,0.263-2.356,0.778c-0.688,0.518-1.151,1.225-1.358,2.074v0.001l-0.002,0.002L89.856,101.887z"/>
			
				<linearGradient id="SVGID_6_" gradientUnits="userSpaceOnUse" x1="1.9038" y1="151.4453" x2="2.1277" y2="151.4453" gradientTransform="matrix(4.0686 -136.9724 -136.9724 -4.0686 20847.5566 1009.4363)">
				<stop  offset="0" style="stop-color:#F89934"/>
				<stop  offset="0.3333" style="stop-color:#F89934"/>
				<stop  offset="0.7634" style="stop-color:#FED401"/>
				<stop  offset="1" style="stop-color:#FED401"/>
			</linearGradient>
			<path fill="url(#SVGID_6_)" d="M109.037,102.888c-0.108,0-0.201,0.031-0.28,0.095c-0.077,0.069-0.132,0.146-0.162,0.233
				c-0.07,0.278-0.127,0.512-0.169,0.697c-0.043,0.188-0.084,0.359-0.123,0.519s-0.065,0.27-0.081,0.332
				c-0.023,0.146,0.008,0.274,0.093,0.385c0.087,0.107,0.198,0.162,0.339,0.162c0.054,0,0.339,0,0.855,0s1.128,0,1.835,0
				c0.706,0,1.351,0,1.934,0c0.581,0,0.938,0,1.07,0c1.049,0,1.888,0.413,2.516,1.234c0.629,0.816,0.823,1.755,0.583,2.818
				l-0.012,0.036c0,0.015-0.033,0.156-0.1,0.425c-0.065,0.267-0.145,0.584-0.233,0.948c-0.089,0.366-0.173,0.703-0.25,1.014
				s-0.124,0.512-0.14,0.606c-0.209,0.768-0.617,1.396-1.223,1.886c-0.604,0.481-1.312,0.723-2.119,0.723h-0.035
				c-0.108,0-0.687,0-1.729,0c-1.045,0-2.273,0-3.688,0c-1.412,0-2.695,0-3.848,0c-1.153,0-1.838,0-2.056,0
				c0.155-0.668,0.287-1.225,0.396-1.672c0.109-0.446,0.208-0.858,0.297-1.233c0.09-0.377,0.146-0.624,0.169-0.74
				c0.093,0,0.602,0,1.52,0c0.92,0,2.003,0,3.251,0c1.244,0,2.376,0,3.394,0s1.623,0,1.817,0c0.217,0,0.369-0.112,0.454-0.338
				c0.07-0.279,0.125-0.513,0.169-0.698c0.043-0.186,0.083-0.359,0.123-0.519c0.038-0.16,0.065-0.271,0.08-0.331
				c0.056-0.141,0.04-0.27-0.047-0.386c-0.084-0.116-0.197-0.175-0.337-0.175h0.012h-0.034c-0.055,0-0.345,0-0.868,0
				c-0.524,0-1.141,0-1.847,0s-1.351,0-1.932,0c-0.583,0-0.937,0-1.061,0c-1.057,0-1.899-0.399-2.527-1.198
				c-0.637-0.801-0.832-1.744-0.583-2.831v-0.035l0.023-0.104c0.046-0.179,0.122-0.478,0.227-0.896
				c0.106-0.419,0.205-0.829,0.304-1.229c0.097-0.399,0.16-0.661,0.192-0.785c0.66-1.692,1.766-2.54,3.318-2.54h0.035
				c0.108,0,0.688,0,1.736,0c1.048,0,2.276,0,3.686,0c1.408,0,2.692,0,3.849,0c1.157,0,4.865,0,4.865,0l-3.496,2.866
				c0,0-0.146,0.616-0.169,0.732c-0.094,0-0.603,0-1.526,0c-0.923,0-2.008,0-3.256,0c-1.246,0-2.377,0-3.394,0
				C109.837,102.888,109.23,102.888,109.037,102.888z"/>
			<path fill="#010101" d="M109.037,102.888v-0.335c-0.172-0.001-0.353,0.054-0.49,0.168l-0.007,0.006l-0.008,0.005
				c-0.11,0.1-0.202,0.227-0.254,0.369l-0.005,0.016l-0.006,0.017c-0.069,0.281-0.126,0.517-0.169,0.706l0,0
				c-0.042,0.185-0.083,0.355-0.122,0.514l0,0c-0.039,0.158-0.065,0.27-0.081,0.33l-0.003,0.014l-0.003,0.016
				c-0.007,0.048-0.011,0.096-0.011,0.144c-0.003,0.178,0.061,0.359,0.171,0.5h0.002l0,0c0.069,0.089,0.161,0.167,0.266,0.217
				c0.105,0.052,0.222,0.075,0.336,0.075c0.054,0,0.339,0,0.855,0s1.128,0,1.835,0c0.706,0,1.351,0,1.934,0c0.581,0,0.938,0,1.07,0
				c0.481,0,0.897,0.093,1.267,0.273c0.37,0.182,0.694,0.452,0.981,0.829h0.002l0,0c0.412,0.539,0.609,1.11,0.612,1.76
				c0,0.248-0.029,0.507-0.092,0.779l0.328,0.074l-0.318-0.106l-0.012,0.034l-0.019,0.054v0.055h0.302l-0.299-0.04
				c0,0.006-0.003,0.012-0.003,0.04h0.302l-0.299-0.04l0.166,0.022l-0.165-0.028l-0.001,0.006l0.166,0.022l-0.165-0.028
				c0,0.001-0.01,0.048-0.025,0.113c-0.016,0.067-0.038,0.16-0.067,0.277l-0.001,0.008l0.001-0.008
				c-0.065,0.267-0.145,0.584-0.233,0.949v-0.001c-0.089,0.365-0.172,0.703-0.249,1.014v-0.001
				c-0.039,0.156-0.071,0.286-0.096,0.391c-0.022,0.104-0.04,0.18-0.05,0.241l0.331,0.056l-0.323-0.089
				c-0.195,0.707-0.559,1.266-1.111,1.714l0.003-0.002c-0.55,0.435-1.17,0.647-1.91,0.649h-0.035c-0.108,0-0.687,0-1.729,0
				c-1.045,0-2.273,0-3.688,0c-1.412,0-2.695,0-3.848,0c-1.153,0-1.838,0-2.056,0v0.336l0.326,0.076
				c0.156-0.667,0.287-1.224,0.396-1.668v0.001c0.11-0.449,0.208-0.86,0.298-1.238v0.001c0.09-0.379,0.146-0.624,0.172-0.752
				l-0.33-0.065v0.337c0.093,0,0.602,0,1.52,0c0.92,0,2.003,0,3.251,0c1.244,0,2.376,0,3.394,0s1.623,0,1.817,0
				c0.165,0,0.338-0.048,0.477-0.151s0.233-0.248,0.291-0.403l0.008-0.02l0.004-0.02c0.07-0.281,0.128-0.516,0.171-0.704l0,0
				c0.042-0.185,0.082-0.357,0.121-0.514l0.001-0.001c0.037-0.159,0.065-0.27,0.08-0.328l-0.326-0.082l0.313,0.12
				c0.033-0.087,0.056-0.181,0.056-0.279c0-0.153-0.056-0.307-0.145-0.426l0,0c-0.067-0.093-0.158-0.175-0.265-0.229
				c-0.107-0.056-0.228-0.082-0.344-0.081v0.671h0.012v-0.671h-0.034c-0.055,0-0.345,0-0.868,0c-0.524,0-1.141,0-1.847,0
				s-1.351,0-1.932,0c-0.583,0-0.937,0-1.061,0c-0.486,0-0.908-0.092-1.281-0.269c-0.371-0.177-0.696-0.438-0.982-0.802
				l-0.002-0.002v-0.001c-0.414-0.522-0.611-1.086-0.613-1.739c0-0.254,0.032-0.523,0.097-0.808l0.008-0.036v-0.036l0.017-0.068
				l-0.329-0.073l0.325,0.085c0.048-0.182,0.122-0.48,0.229-0.9l0,0c0.104-0.419,0.205-0.83,0.302-1.23l0,0
				c0.098-0.399,0.161-0.661,0.193-0.784l-0.326-0.081l0.313,0.121c0.313-0.805,0.724-1.383,1.215-1.76
				c0.492-0.374,1.074-0.563,1.79-0.564h0.035c0.108,0,0.688,0,1.736,0c1.048,0,2.276,0,3.686,0c1.408,0,2.692,0,3.849,0
				c1.157,0,4.865,0,4.865,0v-0.337l-0.215-0.26l-3.583,2.938l-0.026,0.111c0,0-0.035,0.154-0.075,0.323
				c-0.02,0.085-0.04,0.173-0.058,0.249s-0.03,0.135-0.038,0.172l0.33,0.065v-0.335c-0.094,0-0.603,0-1.526,0
				c-0.923,0-2.008,0-3.256,0c-1.246,0-2.377,0-3.394,0c-1.018,0-1.624,0-1.817,0V102.888v0.336c0.193,0,0.8,0,1.817,0
				c1.017,0,2.147,0,3.394,0c1.248,0,2.333,0,3.256,0c0.924,0,1.433,0,1.526,0h0.274l0.055-0.27
				c0.004-0.021,0.018-0.082,0.034-0.155c0.05-0.221,0.131-0.566,0.131-0.567l-0.325-0.076l0.212,0.259l4.223-3.461h-0.938
				c0,0-3.708,0-4.865,0c-1.156,0-2.44,0-3.849,0c-1.409,0-2.638,0-3.686,0c-1.049,0-1.628,0-1.736,0h-0.035
				c-0.837-0.001-1.585,0.232-2.198,0.705c-0.615,0.469-1.088,1.162-1.434,2.048l-0.008,0.021l-0.006,0.021
				c-0.03,0.126-0.095,0.388-0.191,0.788l0,0c-0.098,0.398-0.198,0.808-0.304,1.226l0,0c-0.104,0.419-0.179,0.717-0.226,0.895
				l-0.001,0.006l-0.024,0.11l-0.008,0.036v0.071h0.335l-0.327-0.075c-0.075,0.328-0.112,0.647-0.112,0.957
				c-0.003,0.795,0.258,1.53,0.76,2.158l-0.002-0.002c0.342,0.436,0.752,0.772,1.224,0.995c0.471,0.224,0.998,0.332,1.568,0.332
				c0.124,0,0.478,0,1.061,0c0.581,0,1.226,0,1.932,0s1.322,0,1.847,0c0.523,0,0.813,0,0.868,0h0.034v-0.671H113.3v0.671
				c0.022,0.001,0.028,0.004,0.035,0.006c0.005,0.003,0.015,0.008,0.031,0.031v0.001c0.017,0.023,0.013,0.021,0.014,0.027
				c0,0.005-0.001,0.016-0.009,0.037l-0.008,0.019l-0.005,0.02c-0.016,0.065-0.043,0.177-0.081,0.335l0,0
				c-0.04,0.161-0.082,0.337-0.124,0.522l0,0c-0.043,0.185-0.099,0.416-0.168,0.693l0.326,0.081l-0.314-0.119
				c-0.027,0.07-0.052,0.095-0.063,0.104c-0.014,0.008-0.024,0.017-0.076,0.018c-0.194,0-0.8,0-1.817,0s-2.149,0-3.394,0
				c-1.248,0-2.331,0-3.251,0c-0.918,0-1.427,0-1.52,0H102.6l-0.053,0.27c-0.021,0.106-0.077,0.354-0.166,0.728l0,0
				c-0.089,0.377-0.188,0.787-0.297,1.233l0,0c-0.108,0.448-0.241,1.007-0.397,1.675l-0.096,0.411h0.424c0.218,0,0.902,0,2.056,0
				c1.152,0,2.436,0,3.848,0c1.414,0,2.643,0,3.688,0c1.043,0,1.621,0,1.729,0h0.035c0.873,0.002,1.666-0.266,2.328-0.794
				l0.001-0.002h0.002c0.657-0.531,1.11-1.229,1.335-2.06l0.004-0.017l0.004-0.018c0.005-0.032,0.02-0.103,0.042-0.199
				c0.022-0.099,0.053-0.225,0.092-0.38v-0.001v0.001c0.077-0.311,0.161-0.648,0.25-1.015l0,0c0.09-0.364,0.167-0.68,0.233-0.947
				v-0.001c0.032-0.135,0.059-0.239,0.075-0.312c0.009-0.037,0.016-0.066,0.021-0.09l0.007-0.033l0.002-0.022
				c0.003-0.01,0.004-0.02,0.004-0.048h-0.335l0.317,0.106l0.012-0.035l0.006-0.017l0.004-0.017
				c0.071-0.315,0.107-0.626,0.107-0.928c0.003-0.791-0.256-1.528-0.752-2.17l0.001,0.001c-0.342-0.446-0.751-0.793-1.219-1.022
				c-0.47-0.231-0.996-0.343-1.563-0.343c-0.132,0-0.489,0-1.07,0c-0.583,0-1.228,0-1.934,0c-0.707,0-1.318,0-1.835,0
				s-0.802,0-0.855,0c-0.026,0-0.037-0.004-0.045-0.008l-0.029-0.027v0.001c-0.023-0.033-0.027-0.045-0.03-0.086l0.004-0.04
				l-0.331-0.052l0.326,0.081c0.016-0.063,0.043-0.174,0.083-0.334l0,0c0.038-0.161,0.08-0.334,0.122-0.522l0.001-0.008
				l-0.001,0.008c0.041-0.184,0.099-0.414,0.167-0.691l-0.325-0.081l0.315,0.112c0.011-0.026,0.027-0.056,0.072-0.097l-0.226-0.249
				l0.212,0.261c0.018-0.012,0.021-0.018,0.068-0.02V102.888z"/>
		</g>
	</g>
	<path fill-rule="evenodd" clip-rule="evenodd" d="M137.155,46.222c-0.194-2.092-0.673-4.193-1.312-6.2
		c-1.069-3.363-3.588-5.803-7.568-5.708c-1.467,0.037-2.713,0.944-4.004,1.523c-1.438,0.646-3.016,0.147-4.369,0.744
		c-2.655,1.169-16.078-6.141-16.134-6.03c-0.189,0.375-5.514-1.426-5.997-1.644c-3.184-1.429-6.477-0.58-9.719-0.735
		c-0.262-0.012-0.522-0.04-1.179-0.091c0.776-0.804,1.306-1.437,1.922-1.968c0.814-0.703,1.31-2.622,0.96-3.94
		c-0.305-1.148-0.569-2.307-0.852-3.461c0.128-0.084-3.65-5.037-4.61-5.638c-2.993-1.871-6.343-1.983-9.679-1.485
		c-3.408,0.51-5.981,3.841-7.373,6.761c-0.181,0.381-0.145,0.873-0.351,1.231c-0.492,0.857-0.918,1.847-1.646,2.454
		c-1.397,1.165-1.581,1.488-0.747,3.077c0.072,0.138,0.128,0.291,0.161,0.443c0.332,1.539,0.657,3.08,1.02,4.792
		c-0.761,0.207-1.706,0.517-2.673,0.716c-2.305,0.474-4.6,0.934-6.622,2.259c-0.363,0.238-0.908,0.279-1.368,0.276
		c-1.381-0.013-2.351,0.552-3.092,1.739c-2.118,3.391-5.361,5.225-9,6.647c-1.932,0.755-3.656,2.058-5.445,3.16
		c-0.898,0.553-1.714,1.238-2.609,1.796c-0.253,0.159-0.696,0.195-0.981,0.093c-1.923-0.691-3.783,0.446-4.007,2.503
		c-0.042,0.39-0.049,0.787-0.037,1.179c0.064,2.002,0.86,2.523,2.726,1.877c0.324-0.112,0.953-0.076,1.092,0.129
		c1.389,2.051,3.496,2.61,5.745,2.816c1.683,0.154,3.38,0.214,5.07,0.204c0.608-0.003,1.206-0.377,1.825-0.496
		c0.3-0.057,0.907,0.045,0.921,0.143c0.419,2.856,2.71,4.212,4.675,5.766c4.183,3.308,8.545,6.365,13.354,8.719
		c2.971,1.455,6.08,2.5,9.381,2.879c0.44,0.05,0.95-0.038,1.354-0.225c2.269-1.045,4.516-2.137,6.769-3.22
		c0.703-0.338,1.294-0.738,1.147-1.696c-0.034-0.229,0.198-0.56,0.396-0.756c3.394-3.368,6.795-6.728,10.218-10.065
		c0.221-0.215,0.625-0.319,0.95-0.333c2.632-0.116,26.882-0.604,28.674-0.604c5.053-0.33,7.084,0.268,8.906-0.637
		C136.72,53.395,137.501,49.938,137.155,46.222z M87.488,30.073c1.171-0.259,2.148-0.556,3.147-0.673
		c1.01-0.12,2.043-0.023,3.061-0.093c1.194-0.083,2.235,0.137,3.083,1.069c0.212,0.233,0.604,0.372,0.932,0.419
		c3.851,0.546,7.332,2.026,10.576,4.121c1.435,0.927,2.861,1.864,4.545,2.962c-2.818,0.349-5.258,0.613-7.686,0.964
		c-1.442,0.209-2.448-0.237-3.081-1.57c-1.14-2.404-3.16-3.908-5.393-5.185c-0.2-0.114-0.446-0.209-0.572-0.384
		c-0.86-1.204-1.593-1.395-2.957-0.964c-2.464,0.779-4.883,1.626-6.919,3.298c-0.146,0.121-0.415,0.092-0.628,0.134
		c-0.063-0.098-0.126-0.194-0.188-0.291c1.094-0.885,2.188-1.769,3.416-2.761C88.427,30.808,88.084,30.54,87.488,30.073z
		 M89.507,38.824c1.893-1.432,4.142-1.945,6.368-2.43c1.447-0.316,3.457,0.937,3.588,2.728c0.046,0.646-0.2,1.013-0.921,1.077
		c-2.555,0.229-5.117,0.416-7.653,0.784c-2.431,0.354-4.827,0.931-7.247,1.365c-0.452,0.081-0.942-0.052-1.415-0.085
		c0.174-0.478,0.226-1.067,0.541-1.414c1.977-2.167,3.898-4.393,6.495-5.892c1.704-0.982,3.476-1.38,5.743-0.98
		c-2.69,1.178-5.078,2.292-6.8,4.925C88.856,38.873,89.289,38.989,89.507,38.824z M66.15,23.252c1.298-0.528,1.63-1.505,1.981-2.841
		c1.401-5.333,5.803-8.644,11.517-7.239c2.031,0.499,4.076,0.974,5.593,2.516c0.771,0.784,1.339,1.774,1.959,2.697
		c0.109,0.163,0.055,0.465,0.016,0.692c-0.168,0.958-0.389,1.909-0.527,2.87c-0.111,0.759-0.489,1.103-1.253,1.089
		c-1.314-0.022-2.6,0.014-3.261-1.524c-0.146-0.341-0.83-0.589-1.29-0.632c-1.486-0.141-2.982-0.219-4.474-0.207
		c-0.489,0.005-1.185,0.228-1.418,0.588c-0.484,0.751-1.076,0.916-1.874,0.905c-0.863-0.013-1.731,0.036-2.591,0.122
		c-0.426,0.043-0.837,0.232-1.256,0.354c0.005,0.118,0.01,0.234,0.016,0.351c0.382,0.073,0.764,0.207,1.147,0.212
		c3.301,0.042,6.61-0.066,9.901,0.134c1.884,0.115,3.761,0.634,5.596,1.136c1.383,0.378,1.93,0.05,1.819-1.43
		c-0.063-0.82-0.144-1.64-0.216-2.459c0.146-0.006,0.293-0.012,0.44-0.019c0,1.379,0.03,2.76-0.036,4.136
		c-0.01,0.187-0.51,0.5-0.781,0.496c-0.736-0.008-1.474-0.133-2.205-0.25c-1.329-0.214-2.651-0.466-3.979-0.684
		c-0.476-0.079-0.961-0.105-1.441-0.157c-0.347-0.037-0.692-0.077-1.039-0.115c0.113,0.325,0.227,0.65,0.369,1.056
		c-0.172,0.04-0.529,0.022-0.723,0.191c-0.301,0.264-0.595,0.63-0.687,1.003c-0.05,0.2,0.32,0.513,0.518,0.762
		c0.158,0.2,0.354,0.371,0.511,0.571c0.333,0.418,0.651,0.849,1.161,1.515c-1.176,0.798-2.494,1.693-4.043,2.745
		c-0.559-0.888-0.996-1.61-1.463-2.311c-0.144-0.216-0.386-0.364-0.56-0.564c-0.557-0.639-1.659-0.693-1.811-1.837
		c-0.035-0.263-0.885-0.42-1.502-0.686c0.378-0.054,0.667-0.159,0.934-0.121c1.315,0.187,2.033-0.567,2.623-1.574
		c0.375-0.638,0.133-1.009-0.521-1.065c-1.837-0.159-3.677-0.303-5.519-0.352c-0.402-0.012-0.8,0.432-1.229,0.59
		c-0.207,0.076-0.478-0.025-0.72-0.046C65.937,23.658,65.987,23.318,66.15,23.252z M82.027,25.642
		c-0.297,0.601-0.555,1.124-0.861,1.749c-0.381-0.351-0.671-0.618-0.956-0.882C80.796,26.229,81.341,25.97,82.027,25.642z
		 M71.34,44.005c-1.114,0.161-2.099,0.302-3.147,0.453c-0.293-0.912,0.165-1.505,0.896-1.757
		C70.131,42.34,70.887,42.805,71.34,44.005z M67.511,30.245c-0.205-0.708-0.315-1.089-0.457-1.578h3.192
		C69.241,29.262,67.816,28.289,67.511,30.245z M38.162,53.841c-1.107-0.545-1.395-1.768-1.916-2.765
		c-0.176-0.335-0.028-0.839-0.028-1.267l0.453,0.053c0.618,1.25,1.237,2.502,1.855,3.754C38.405,53.691,38.283,53.767,38.162,53.841
		z M41.323,54.042c-0.388-0.211-0.899-0.332-1.141-0.654c-0.556-0.742-1.048-1.553-1.423-2.398
		c-0.134-0.302,0.146-0.787,0.238-1.188c0.258,0.256,0.578,0.473,0.765,0.773c0.631,1.013,1.215,2.055,1.817,3.084
		C41.494,53.787,41.408,53.914,41.323,54.042z M44.759,54.177c-0.487-0.227-1.158-0.326-1.423-0.706
		c-0.635-0.909-1.107-1.941-1.578-2.954c-0.086-0.183,0.143-0.513,0.226-0.774c0.363,0.136,0.908,0.167,1.059,0.426
		c0.677,1.163,1.243,2.391,1.849,3.596C44.847,53.902,44.803,54.04,44.759,54.177z M56.921,48.193
		c-1.103,1.886-0.768,3.94-0.798,5.956c-0.002,0.076,0.016,0.162,0.05,0.229c0.243,0.468,0.822,1.126,0.682,1.363
		c-0.602,1.019-1.361,1.961-2.167,2.836c-0.691,0.751-1.452,0.465-2.345,0.098c-2.16-0.888-3.217-2.588-3.962-4.63
		c-0.308-0.843-0.603-1.713-1.065-2.473c-0.655-1.077-0.674-2.017,0.102-3.029c0.44-0.573,0.755-1.244,1.127-1.871
		c0.155,0.073,0.31,0.146,0.464,0.218c-0.295,0.589-0.648,1.159-0.868,1.775c-0.14,0.394-0.084,0.856-0.117,1.289
		c0.376-0.165,0.889-0.227,1.104-0.512c0.582-0.772,1.006-1.661,1.556-2.46c0.291-0.421,0.711-0.753,1.073-1.125
		c0.14,0.103,0.28,0.207,0.42,0.31c-0.523,1.042-1.047,2.083-1.591,3.166c0.646,0.47,1.198,0.511,1.628-0.284
		c0.463-0.86,0.891-1.744,1.416-2.563c0.233-0.363,0.668-0.595,1.011-0.887c0.133,0.108,0.266,0.217,0.398,0.326
		c-0.194,0.476-0.384,0.953-0.585,1.425c-0.153,0.36-0.378,0.701-0.458,1.073c-0.056,0.265,0.077,0.57,0.125,0.856
		c0.308-0.109,0.746-0.126,0.9-0.345c0.628-0.892,1.183-1.837,1.739-2.778c0.524-0.884,0.613-0.952,1.605-0.865
		C57.879,46.278,57.46,47.271,56.921,48.193z M57.942,38.313c-0.693,2.177-1.184,2.075-3.594,2.059
		c-1.451-0.009-2.24,0.709-3.099,1.492c-1.27,1.156-2.224,2.675-4.146,2.996c-0.464,0.077-0.859,0.747-1.228,1.193
		c-0.97,1.175-2.063,1.906-3.721,1.77c-1.769-0.144-3.56-0.032-5.342-0.032c-0.042-0.117-0.085-0.234-0.128-0.351
		c1.627-0.747,3.239-1.53,4.888-2.226c0.842-0.356,1.75-0.55,2.624-0.834c0.139-0.046,0.35-0.168,0.359-0.27
		c0.148-1.7,1.666-1.948,2.777-2.534c2.567-1.353,4.488-3.369,6.249-5.605c0.286-0.364,0.867-0.681,1.321-0.695
		c1.447-0.046,2.901,0.096,4.351,0.096c0.822-0.001,0.941,0.362,0.702,1.13C58.43,36.092,58.208,37.481,57.942,38.313z
		 M59.967,44.628c1.168-1.379,1.846-1.545,3.876-0.889C62.229,46.426,61.474,46.586,59.967,44.628z M63.981,36.642
		c-0.579,0.878-1.015,1.853-1.512,2.787c-0.122-0.063-0.243-0.126-0.364-0.19c-0.526-1.946,0.54-4.189-0.924-6.004
		c2.173-0.947,4.967-0.651,7.311-2.374c0.076,0.316,0.32,0.729,0.204,0.944c-0.76,1.401-1.306,2.973-3.23,3.368
		C64.888,35.292,64.365,36.061,63.981,36.642z M80.165,67.198c-1.229,0.643-2.508,1.192-3.78,1.747
		c-0.15,0.066-0.363-0.013-0.681-0.032c0.206-0.324,0.432-0.528,0.466-0.76c0.054-0.394-0.012-0.806-0.027-1.209
		c-0.383,0.042-0.833-0.031-1.138,0.146c-1.868,1.085-4.978,0.37-6.176-1.484c-0.336-0.52-0.514-1.196-0.955-1.584
		c-0.667-0.586-1.501-0.982-2.397-1.542c0.354-1.103,0.696-2.428,1.229-3.669c0.167-0.39,0.82-0.708,1.301-0.802
		c2.418-0.479,4.849-0.905,7.289-1.255c0.332-0.047,0.93,0.355,1.083,0.694c0.693,1.529,1.259,3.117,1.896,4.674
		c0.568,1.391,0.801,2.938,1.963,4.065C80.404,66.345,80.334,67.11,80.165,67.198z M82.969,63.427
		c-0.262,0.137-0.961-0.052-1.115-0.303c-0.823-1.345-1.536-2.758-2.437-4.423c2.014,1.081,3.753,2.013,5.772,3.095
		C84.261,62.501,83.666,63.061,82.969,63.427z M129.777,52.366c-1.881,0.327-3.824,0.368-5.741,0.396
		c-12.153,0.173-24.308,0.3-36.462,0.455c-4.442,0.057-8.887,0.119-13.328,0.235c-2.665,0.07-5.327,0.229-7.988,0.393
		c-0.805,0.05-1.289-0.069-1.258-1.027c0.024-0.778-0.091-1.442,1.07-1.515c8.083-0.506,16.162-1.063,24.241-1.625
		c3.567-0.248,7.13-0.548,10.694-0.825c0.001,0.021,0.004,0.041,0.005,0.062c8.979-0.621,17.956-1.24,26.935-1.867
		c1.332-0.093,2.661-0.285,3.994-0.296c0.352-0.003,0.975,0.455,1.02,0.767C133.376,50.358,132.695,51.857,129.777,52.366z"/>
	<g>
		<path fill-rule="evenodd" clip-rule="evenodd" fill="#F99D39" d="M101.083,48.666c8.979-0.621,17.958-1.24,26.936-1.867
			c1.333-0.093,2.661-0.285,3.994-0.297c0.351-0.003,0.974,0.455,1.021,0.767c0.418,2.838-0.266,4.339-3.184,4.846
			c-1.881,0.327-3.824,0.369-5.739,0.396c-12.154,0.172-24.309,0.299-36.463,0.455c-4.442,0.057-8.886,0.119-13.328,0.235
			c-2.664,0.07-5.326,0.228-7.987,0.394c-0.805,0.049-1.29-0.069-1.258-1.028c0.024-0.779-0.091-1.441,1.069-1.514
			c8.083-0.507,16.162-1.063,24.241-1.625c3.567-0.248,7.13-0.547,10.694-0.825C101.08,48.625,101.082,48.645,101.083,48.666z"/>
		<path fill="#F8BD36" d="M101.083,48.666l0.04,0.559c8.979-0.621,17.956-1.24,26.935-1.867c1.359-0.096,2.678-0.285,3.96-0.295l0,0
			l0,0l-0.003-0.216v0.216h0.003l-0.003-0.216v0.216V46.99l-0.009,0.071l0.009,0V46.99l-0.009,0.071
			c0.004-0.001,0.06,0.014,0.123,0.046c0.097,0.047,0.214,0.131,0.289,0.205c0.036,0.036,0.063,0.069,0.072,0.085l0.004,0.006
			l0.019-0.01l-0.019,0.01v0l0.019-0.01l-0.019,0.01l0.18-0.082l-0.194,0.029c0.005,0.032,0.012,0.047,0.015,0.053l0.18-0.082
			l-0.194,0.029c0.069,0.473,0.105,0.9,0.105,1.279c0,0.45-0.052,0.832-0.15,1.149c-0.074,0.239-0.176,0.442-0.306,0.623
			c-0.196,0.271-0.462,0.499-0.848,0.695c-0.385,0.196-0.889,0.355-1.527,0.466c-1.824,0.318-3.738,0.361-5.651,0.388
			c-12.153,0.173-24.307,0.299-36.462,0.455c-4.443,0.057-8.89,0.119-13.335,0.236c-2.677,0.07-5.346,0.229-8.007,0.394l0,0
			c-0.087,0.006-0.168,0.008-0.239,0.008c-0.127,0-0.225-0.01-0.285-0.024c-0.046-0.011-0.067-0.023-0.075-0.028
			c-0.011-0.01-0.006,0.002-0.025-0.037c-0.017-0.039-0.042-0.138-0.042-0.306c0-0.021,0.001-0.042,0.001-0.065v0
			c0.006-0.21,0.004-0.395,0.013-0.537c0.007-0.106,0.02-0.188,0.035-0.237c0.011-0.038,0.021-0.056,0.029-0.067
			c0.012-0.015,0.018-0.027,0.082-0.057c0.063-0.028,0.188-0.062,0.387-0.074l0,0c8.085-0.507,16.166-1.063,24.245-1.625
			c3.572-0.249,7.136-0.547,10.698-0.824l-0.043-0.559l-0.558,0.054c0,0.013,0.003,0.031,0.004,0.055l0.048,0.55l0.55-0.038
			L101.083,48.666l0.559-0.048c-0.001-0.017-0.003-0.04-0.007-0.067l-0.052-0.547l-0.548,0.042
			c-3.566,0.276-7.128,0.576-10.688,0.824c-8.079,0.562-16.158,1.118-24.238,1.625l0,0c-0.342,0.022-0.633,0.087-0.889,0.227
			c-0.19,0.104-0.352,0.256-0.458,0.427c-0.162,0.258-0.206,0.522-0.227,0.752c-0.019,0.232-0.014,0.448-0.021,0.649v-0.001
			c-0.001,0.034-0.002,0.068-0.002,0.101c0,0.238,0.027,0.456,0.1,0.661c0.053,0.154,0.136,0.301,0.246,0.423
			c0.166,0.186,0.382,0.3,0.588,0.357c0.207,0.059,0.409,0.073,0.613,0.074c0.102,0,0.204-0.004,0.308-0.01h0
			c2.659-0.165,5.315-0.323,7.967-0.393c4.438-0.116,8.879-0.178,13.32-0.235c12.154-0.155,24.309-0.282,36.464-0.455
			c1.919-0.028,3.892-0.068,5.828-0.404c0.637-0.111,1.189-0.269,1.668-0.486c0.358-0.164,0.674-0.363,0.945-0.599
			c0.407-0.355,0.704-0.8,0.886-1.3c0.185-0.5,0.26-1.051,0.26-1.651c0-0.45-0.043-0.929-0.117-1.442
			c-0.019-0.12-0.057-0.216-0.101-0.299c-0.078-0.146-0.172-0.259-0.275-0.364c-0.156-0.155-0.335-0.285-0.527-0.39
			c-0.098-0.052-0.198-0.098-0.307-0.132c-0.108-0.034-0.225-0.06-0.363-0.061h-0.009h0.002c-1.384,0.013-2.724,0.208-4.027,0.298
			c-8.979,0.626-17.957,1.245-26.935,1.866L101.083,48.666l0.559-0.048L101.083,48.666z"/>
		<path fill-rule="evenodd" clip-rule="evenodd" fill="#FBB927" d="M75.673,31.585c-0.558-0.889-0.995-1.61-1.463-2.312
			c-0.145-0.216-0.386-0.364-0.561-0.563c-0.557-0.639-1.658-0.693-1.81-1.837c-0.035-0.264-0.886-0.42-1.502-0.686
			c0.378-0.054,0.667-0.159,0.934-0.121c1.315,0.187,2.033-0.568,2.623-1.575c0.375-0.638,0.133-1.009-0.521-1.064
			c-1.836-0.159-3.676-0.303-5.519-0.353c-0.402-0.012-0.8,0.432-1.229,0.59c-0.206,0.076-0.478-0.025-0.72-0.046
			c0.103-0.211,0.155-0.552,0.317-0.617c1.298-0.528,1.63-1.505,1.981-2.842c1.401-5.333,5.803-8.643,11.516-7.238
			c2.032,0.499,4.078,0.974,5.594,2.516c0.771,0.784,1.339,1.773,1.959,2.697c0.108,0.163,0.056,0.465,0.016,0.692
			c-0.168,0.958-0.388,1.909-0.528,2.87c-0.111,0.759-0.488,1.103-1.252,1.089c-1.314-0.022-2.601,0.014-3.261-1.525
			c-0.147-0.341-0.831-0.589-1.29-0.632c-1.486-0.14-2.982-0.219-4.475-0.206c-0.488,0.005-1.185,0.228-1.417,0.588
			c-0.484,0.751-1.075,0.915-1.874,0.904c-0.863-0.012-1.731,0.036-2.591,0.122c-0.426,0.043-0.837,0.232-1.256,0.354
			c0.005,0.117,0.01,0.234,0.015,0.351c0.383,0.073,0.764,0.207,1.147,0.211c3.3,0.042,6.611-0.067,9.901,0.135
			c1.884,0.115,3.761,0.634,5.597,1.136c1.383,0.377,1.93,0.05,1.817-1.43c-0.063-0.821-0.143-1.64-0.216-2.459
			c0.147-0.006,0.294-0.012,0.441-0.019c0,1.379,0.029,2.76-0.037,4.135c-0.01,0.188-0.509,0.5-0.779,0.497
			c-0.736-0.008-1.475-0.133-2.207-0.251c-1.328-0.214-2.65-0.465-3.978-0.684c-0.476-0.079-0.96-0.105-1.44-0.157
			c-0.348-0.037-0.694-0.076-1.04-0.114c0.112,0.325,0.228,0.649,0.368,1.056c-0.172,0.04-0.528,0.022-0.721,0.191
			c-0.302,0.264-0.596,0.63-0.688,1.003c-0.048,0.2,0.321,0.513,0.519,0.762c0.157,0.2,0.353,0.371,0.511,0.57
			c0.332,0.419,0.651,0.85,1.16,1.515C78.541,29.638,77.223,30.533,75.673,31.585z"/>
		<path fill="#F8BD36" d="M75.673,31.585l0.475-0.298c-0.556-0.884-0.995-1.609-1.472-2.325h0c-0.121-0.179-0.255-0.298-0.363-0.396
			c-0.109-0.095-0.194-0.169-0.241-0.224l0,0c-0.198-0.226-0.422-0.379-0.625-0.504c-0.309-0.187-0.58-0.325-0.749-0.474
			c-0.085-0.073-0.147-0.146-0.196-0.229c-0.048-0.085-0.086-0.185-0.106-0.335c-0.012-0.088-0.041-0.169-0.076-0.236
			c-0.068-0.126-0.149-0.204-0.224-0.262c-0.132-0.102-0.253-0.158-0.381-0.213c-0.19-0.079-0.394-0.145-0.595-0.211
			c-0.201-0.066-0.399-0.134-0.559-0.203l-0.222,0.514l0.078,0.555c0.188-0.027,0.345-0.063,0.47-0.087
			c0.125-0.025,0.215-0.037,0.265-0.037l0.041,0.002l0.001,0.001c0.16,0.022,0.315,0.033,0.467,0.033
			c0.329,0,0.639-0.054,0.919-0.157c0.423-0.153,0.774-0.412,1.062-0.713c0.291-0.302,0.525-0.649,0.737-1.009
			c0.15-0.259,0.251-0.521,0.253-0.813c0-0.154-0.033-0.315-0.105-0.459c-0.108-0.22-0.295-0.38-0.488-0.474
			c-0.195-0.095-0.4-0.14-0.617-0.159l0,0c-1.839-0.158-3.69-0.304-5.551-0.354h0l-0.03-0.001c-0.203,0.001-0.376,0.055-0.521,0.118
			c-0.217,0.095-0.384,0.213-0.534,0.309c-0.147,0.097-0.272,0.171-0.353,0.198l-0.001,0.001l0.044,0.119l-0.019-0.126l-0.025,0.007
			l0.044,0.119l-0.019-0.126l0,0.005l0-0.005l0,0l0,0.005l0-0.005h-0.008c-0.022,0.001-0.085-0.006-0.17-0.022
			c-0.085-0.015-0.192-0.038-0.324-0.049l-0.048,0.557l0.503,0.244c0.043-0.089,0.07-0.167,0.095-0.236
			c0.035-0.103,0.064-0.187,0.079-0.216l0.004-0.008l0.001-0.002l-0.17-0.1l0.139,0.137c0.023-0.023,0.029-0.036,0.031-0.038
			l-0.17-0.1l0.139,0.137l-0.263-0.259l0.139,0.341c0.061-0.025,0.103-0.06,0.124-0.082l-0.263-0.259l0.139,0.341l0.032-0.014
			l-0.033,0.014c0.373-0.151,0.693-0.343,0.961-0.571c0.404-0.343,0.681-0.765,0.882-1.212c0.202-0.45,0.336-0.928,0.47-1.435
			c0.567-2.158,1.64-3.945,3.076-5.188c1.438-1.243,3.237-1.954,5.33-1.956c0.772,0,1.587,0.099,2.437,0.307l0.039,0.01l-0.039-0.01
			c1.018,0.25,2.014,0.49,2.92,0.845s1.718,0.82,2.406,1.52c0.705,0.713,1.262,1.67,1.895,2.617l0,0l0.167-0.112l-0.198,0.043
			c0,0.004,0.005,0.03,0.031,0.069l0.167-0.112l-0.198,0.043l0.004-0.001l-0.004,0.001l0,0l0.004-0.001l-0.004,0.001l0.001,0.034
			c0,0.065-0.018,0.192-0.041,0.318c-0.163,0.938-0.386,1.893-0.53,2.886c-0.021,0.148-0.055,0.259-0.089,0.337
			c-0.026,0.059-0.053,0.098-0.077,0.127c-0.04,0.043-0.076,0.07-0.148,0.098c-0.072,0.027-0.184,0.048-0.341,0.048h-0.035h0.002
			c-0.333-0.006-0.65-0.008-0.938-0.03c-0.436-0.032-0.798-0.11-1.082-0.271c-0.144-0.081-0.272-0.182-0.394-0.322
			c-0.122-0.14-0.237-0.321-0.343-0.563c-0.091-0.208-0.229-0.347-0.368-0.458c-0.21-0.163-0.442-0.27-0.68-0.354
			c-0.237-0.082-0.476-0.136-0.703-0.158l0,0c-1.389-0.131-2.793-0.209-4.193-0.209c-0.113,0-0.228,0-0.339,0.001l-0.018,0l0.018,0
			c-0.325,0.004-0.67,0.073-1,0.198c-0.165,0.063-0.325,0.142-0.476,0.243c-0.149,0.103-0.293,0.229-0.406,0.403h0
			c-0.194,0.296-0.363,0.431-0.554,0.52c-0.192,0.088-0.439,0.129-0.78,0.129c-0.02,0-0.042,0-0.063-0.001H73.2
			c-0.089-0.001-0.178-0.001-0.267-0.001c-0.8,0-1.598,0.047-2.387,0.126h0c-0.277,0.028-0.524,0.1-0.748,0.172
			c-0.224,0.074-0.427,0.149-0.61,0.203l-0.42,0.123l0.02,0.438c0.004,0.116,0.009,0.234,0.015,0.352l0.02,0.441l0.434,0.083
			c0.164,0.032,0.35,0.082,0.556,0.128c0.207,0.046,0.436,0.09,0.69,0.094l0,0c0.664,0.007,1.327,0.01,1.989,0.01
			c0.834,0,1.666-0.003,2.496-0.003c1.808,0,3.605,0.018,5.39,0.126c1.802,0.109,3.646,0.614,5.482,1.116
			c0.371,0.102,0.706,0.164,1.025,0.165c0.214,0,0.427-0.029,0.63-0.11c0.153-0.059,0.299-0.15,0.419-0.268
			c0.182-0.177,0.301-0.403,0.37-0.638c0.068-0.238,0.095-0.49,0.095-0.769c0-0.125-0.006-0.254-0.016-0.39
			c-0.063-0.83-0.144-1.651-0.216-2.467l-0.559,0.05l0.024,0.559c0.147-0.006,0.293-0.012,0.44-0.018l-0.023-0.56h-0.56
			c0,0.664,0.006,1.325,0.006,1.98c0,0.715-0.008,1.424-0.042,2.127l0.388,0.019l-0.34-0.193c-0.015,0.025-0.042,0.077-0.048,0.174
			l0.388,0.019l-0.34-0.193l0.187,0.106l-0.173-0.128L87.5,24.251l0.187,0.106l-0.173-0.128l0.052,0.04l-0.048-0.044l-0.004,0.005
			l0.052,0.04l-0.048-0.044c-0.001,0.002-0.023,0.023-0.056,0.046c-0.046,0.034-0.114,0.073-0.169,0.095
			c-0.027,0.012-0.052,0.019-0.064,0.022l-0.01,0.002l0.018,0.118V24.39l-0.018,0.001l0.018,0.118V24.39v0.12v-0.12l0,0v0.12v-0.12
			h-0.005v0.56l0.006-0.56c-0.677-0.007-1.391-0.125-2.124-0.243h0.001c-1.318-0.214-2.641-0.464-3.976-0.685
			c-0.516-0.084-1.012-0.11-1.472-0.161h-0.001c-0.345-0.036-0.69-0.076-1.039-0.114l-0.882-0.097l0.293,0.838
			c0.113,0.325,0.227,0.649,0.368,1.055l0.528-0.184l-0.127-0.545l0.003,0.014l-0.002-0.014h-0.001l0.003,0.014l-0.002-0.014
			c-0.006,0.001-0.05,0.007-0.109,0.013c-0.09,0.01-0.215,0.022-0.361,0.057c-0.146,0.037-0.322,0.097-0.494,0.245l0,0
			c-0.178,0.157-0.354,0.342-0.507,0.555c-0.152,0.213-0.283,0.455-0.354,0.735v-0.001c-0.015,0.06-0.021,0.119-0.021,0.173
			c0.001,0.104,0.021,0.191,0.045,0.263c0.045,0.126,0.102,0.214,0.159,0.293c0.082,0.118,0.171,0.214,0.25,0.301
			c0.078,0.086,0.149,0.163,0.188,0.214l0.012,0.014l-0.012-0.014c0.203,0.25,0.398,0.422,0.512,0.57
			c0.324,0.41,0.644,0.838,1.153,1.507l0.445-0.34l-0.315-0.462c-1.174,0.798-2.492,1.693-4.041,2.745L75.673,31.585l0.475-0.298
			L75.673,31.585l0.315,0.463c1.549-1.052,2.867-1.947,4.041-2.745l0.489-0.333l-0.359-0.47c-0.505-0.663-0.826-1.094-1.166-1.523
			c-0.202-0.251-0.396-0.422-0.511-0.57l0,0c-0.063-0.079-0.126-0.148-0.185-0.213c-0.089-0.097-0.169-0.186-0.211-0.242
			l-0.023-0.033L78.06,25.91l-0.13,0.067l0.139-0.042L78.06,25.91l-0.13,0.067l0.139-0.042l-0.317,0.095h0.33
			c0-0.045-0.007-0.077-0.013-0.095l-0.317,0.095h0.33h-0.4l0.39,0.096c0.009-0.035,0.011-0.067,0.011-0.096h-0.4l0.39,0.096l0,0
			c0.021-0.093,0.082-0.221,0.177-0.35c0.091-0.129,0.214-0.259,0.336-0.366l0,0l-0.073-0.084l0.054,0.098l0.02-0.014l-0.073-0.084
			l0.054,0.098v-0.001c0.008-0.004,0.074-0.023,0.16-0.033c0.044-0.006,0.093-0.01,0.148-0.017c0.055-0.006,0.113-0.013,0.189-0.03
			l0.606-0.141l-0.205-0.589c-0.142-0.407-0.254-0.731-0.369-1.056l-0.527,0.185l-0.061,0.556c0.345,0.039,0.691,0.078,1.041,0.115
			h-0.001c0.5,0.054,0.975,0.08,1.411,0.153c1.318,0.217,2.641,0.468,3.979,0.684l0,0c0.729,0.118,1.493,0.249,2.289,0.258h0.004
			h0.003v-0.123v0.123l0,0v-0.123v0.123h0.005c0.173-0.002,0.305-0.042,0.431-0.088c0.188-0.072,0.36-0.169,0.515-0.292
			c0.078-0.063,0.151-0.129,0.223-0.222c0.034-0.046,0.069-0.1,0.102-0.167c0.029-0.068,0.06-0.153,0.064-0.261
			c0.035-0.731,0.044-1.458,0.044-2.182c0-0.664-0.007-1.325-0.007-1.98v-0.583l-0.584,0.023c-0.146,0.006-0.293,0.013-0.44,0.018
			l-0.585,0.025l0.052,0.584c0.073,0.825,0.153,1.64,0.215,2.453c0.008,0.112,0.012,0.214,0.012,0.306
			c0.001,0.183-0.017,0.324-0.04,0.42c-0.018,0.072-0.039,0.119-0.056,0.146c-0.026,0.04-0.033,0.045-0.066,0.063
			c-0.032,0.016-0.104,0.037-0.231,0.037c-0.166,0.001-0.417-0.038-0.73-0.125c-1.835-0.5-3.745-1.033-5.71-1.154
			c-1.821-0.111-3.642-0.129-5.457-0.129c-0.833,0-1.665,0.004-2.496,0.004c-0.66,0-1.318-0.002-1.976-0.011h-0.008h0.008
			c-0.129-0.001-0.282-0.025-0.457-0.065c-0.175-0.04-0.372-0.094-0.59-0.136l-0.106,0.55l0.56-0.025
			c-0.005-0.116-0.011-0.233-0.015-0.35l-0.56,0.024l0.158,0.537c0.236-0.069,0.448-0.149,0.641-0.212s0.365-0.108,0.514-0.123
			l0.004,0l-0.004,0c0.758-0.077,1.52-0.121,2.275-0.121c0.084,0,0.167,0,0.252,0.001l0,0c0.026,0,0.052,0.001,0.078,0.001
			c0.423-0.001,0.842-0.048,1.244-0.229c0.402-0.182,0.754-0.499,1.03-0.932v0c0.003-0.006,0.034-0.043,0.096-0.084
			c0.092-0.063,0.244-0.131,0.403-0.176c0.16-0.046,0.332-0.071,0.453-0.071h0.017h-0.017c0.109-0.001,0.218-0.001,0.329-0.001
			c1.359,0,2.727,0.076,4.088,0.205l0,0c0.158,0.014,0.405,0.075,0.587,0.159c0.093,0.041,0.169,0.086,0.213,0.121
			c0.021,0.017,0.035,0.03,0.039,0.036l0.001-0.002L81.744,21.5v0.001l0.001-0.002L81.744,21.5l0.104-0.066l-0.115,0.048
			l0.011,0.018l0.104-0.066l-0.115,0.048c0.19,0.446,0.442,0.805,0.74,1.077c0.225,0.205,0.473,0.358,0.728,0.468
			c0.384,0.167,0.779,0.239,1.165,0.275c0.387,0.037,0.768,0.038,1.133,0.044H85.5l0.052,0c0.226,0,0.443-0.026,0.651-0.091
			c0.156-0.049,0.305-0.122,0.438-0.218c0.201-0.143,0.358-0.34,0.466-0.555c0.108-0.217,0.171-0.453,0.207-0.705
			c0.136-0.931,0.356-1.875,0.526-2.854c0.022-0.128,0.057-0.303,0.059-0.511c0-0.082-0.007-0.172-0.027-0.271
			c-0.021-0.098-0.06-0.208-0.133-0.319v0.001c-0.606-0.901-1.187-1.921-2.025-2.778c-0.827-0.841-1.796-1.385-2.798-1.777
			c-1.004-0.393-2.047-0.639-3.06-0.889c-0.932-0.229-1.836-0.34-2.704-0.34c-2.351-0.002-4.434,0.817-6.063,2.229
			c-1.63,1.412-2.81,3.406-3.425,5.75c-0.171,0.66-0.336,1.189-0.572,1.576c-0.119,0.195-0.253,0.358-0.422,0.503
			c-0.17,0.145-0.379,0.273-0.656,0.387l-0.034,0.014l0.034-0.014c-0.094,0.038-0.17,0.092-0.227,0.146
			c-0.102,0.095-0.154,0.188-0.196,0.267c-0.06,0.119-0.093,0.221-0.123,0.305c-0.028,0.084-0.053,0.151-0.064,0.173l-0.355,0.733
			l0.81,0.069c0.045,0.004,0.125,0.018,0.223,0.036c0.099,0.018,0.219,0.04,0.368,0.04c0.108,0,0.235-0.013,0.371-0.063h0
			c0.158-0.059,0.292-0.133,0.411-0.205c0.177-0.109,0.325-0.214,0.438-0.277c0.055-0.032,0.102-0.053,0.132-0.063l0.031-0.009
			l0.008-0.001V23.6l-0.001,0.036h0.001V23.6l-0.001,0.036h0c1.822,0.049,3.652,0.192,5.485,0.35l0,0
			c0.078,0.007,0.137,0.019,0.175,0.031c0.028,0.01,0.044,0.018,0.05,0.021l0.002,0.001l0.065-0.084L73.522,24
			c0.01,0.021,0.026,0.038,0.029,0.039l0.065-0.084L73.522,24l0.112-0.054l-0.121,0.026L73.522,24l0.112-0.054l-0.121,0.026
			l0.072-0.015l-0.074,0.008l0.002,0.007l0.072-0.015l-0.074,0.008l0.015-0.002h-0.015v0.002l0.015-0.002h-0.015
			c0.002,0.003-0.01,0.097-0.1,0.247c-0.247,0.423-0.506,0.767-0.781,0.987c-0.138,0.111-0.279,0.192-0.435,0.25
			c-0.156,0.057-0.328,0.089-0.536,0.089c-0.095,0-0.198-0.007-0.31-0.022h0.001c-0.069-0.01-0.136-0.014-0.2-0.014
			c-0.184,0.001-0.34,0.031-0.482,0.058c-0.143,0.029-0.275,0.057-0.409,0.076l-1.975,0.278l1.831,0.791
			c0.179,0.077,0.36,0.14,0.533,0.198c0.258,0.086,0.498,0.163,0.642,0.225c0.035,0.015,0.065,0.028,0.084,0.04l0.027,0.016l0,0l0,0
			l0,0l0,0l0,0l0.145-0.188l-0.191,0.137c0.026,0.036,0.043,0.048,0.046,0.051l0.145-0.188l-0.191,0.137l0.327-0.235l-0.398,0.053
			c0.011,0.083,0.045,0.148,0.071,0.183l0.327-0.235l-0.398,0.053c0.047,0.373,0.188,0.696,0.377,0.944
			c0.142,0.187,0.306,0.332,0.466,0.449c0.241,0.177,0.478,0.298,0.67,0.414c0.193,0.114,0.339,0.219,0.43,0.324l0,0
			c0.127,0.145,0.25,0.244,0.342,0.326c0.093,0.082,0.151,0.144,0.175,0.18h0c0.458,0.687,0.894,1.405,1.456,2.299l0.308,0.491
			l0.48-0.326L75.673,31.585z"/>
		<path fill-rule="evenodd" clip-rule="evenodd" fill="#F99D39" d="M75.777,68.663c0.207-0.323,0.433-0.528,0.465-0.76
			c0.056-0.395-0.012-0.806-0.026-1.21c-0.383,0.042-0.834-0.03-1.138,0.146c-1.868,1.084-4.977,0.369-6.176-1.484
			c-0.336-0.52-0.514-1.196-0.955-1.584c-0.667-0.586-1.5-0.982-2.396-1.542c0.354-1.103,0.696-2.428,1.229-3.669
			c0.167-0.39,0.819-0.708,1.301-0.802c2.418-0.479,4.848-0.905,7.288-1.255c0.333-0.048,0.93,0.354,1.083,0.694
			c0.694,1.529,1.259,3.117,1.896,4.674c0.568,1.39,0.801,2.938,1.963,4.065c0.167,0.161,0.095,0.925-0.073,1.013
			c-1.229,0.643-2.507,1.192-3.781,1.747C76.308,68.761,76.095,68.683,75.777,68.663z"/>
		<path fill="#F8BD36" d="M75.777,68.663l0.473,0.301c0.081-0.129,0.178-0.248,0.279-0.39c0.052-0.072,0.104-0.15,0.154-0.247
			c0.049-0.095,0.094-0.211,0.113-0.347V67.98c0.021-0.145,0.027-0.284,0.027-0.418c-0.002-0.335-0.04-0.634-0.05-0.891
			l-0.022-0.601l-0.598,0.066c-0.134,0.016-0.333,0.01-0.563,0.02c-0.116,0.005-0.241,0.016-0.374,0.042
			c-0.133,0.028-0.279,0.073-0.421,0.156l0,0c-0.492,0.287-1.122,0.436-1.791,0.434c-0.709,0.001-1.457-0.166-2.104-0.471
			c-0.649-0.305-1.192-0.745-1.529-1.268l0,0c-0.134-0.205-0.257-0.486-0.408-0.789c-0.152-0.3-0.333-0.633-0.647-0.912l0,0
			c-0.374-0.329-0.778-0.591-1.194-0.841c-0.416-0.25-0.844-0.485-1.275-0.756l-0.297,0.476l0.533,0.171
			c0.36-1.126,0.699-2.43,1.21-3.62l0,0c0-0.001,0.021-0.04,0.074-0.088c0.077-0.074,0.216-0.165,0.37-0.235
			c0.153-0.072,0.322-0.126,0.451-0.151h0c2.411-0.477,4.831-0.902,7.26-1.25l0.024-0.004l-0.024,0.004l-0.023-0.158v0.16
			l0.023-0.001l-0.023-0.158v0.16v-0.065l-0.004,0.065h0.004v-0.065l-0.004,0.065l0.005,0c0.018,0.002,0.067,0.017,0.124,0.045
			c0.085,0.041,0.189,0.11,0.266,0.18c0.04,0.035,0.072,0.069,0.094,0.096c0.022,0.027,0.032,0.047,0.032,0.047l0,0
			c0.682,1.501,1.245,3.083,1.889,4.655c0.268,0.653,0.467,1.384,0.755,2.124c0.289,0.737,0.675,1.491,1.336,2.132l0,0l0.248-0.254
			l-0.326,0.146c0.009,0.019,0.027,0.057,0.078,0.108l0.248-0.254l-0.326,0.146l0.112-0.05l-0.119,0.032l0.007,0.019l0.112-0.05
			l-0.119,0.032c0.002,0.003,0.011,0.059,0.009,0.121c0.002,0.085-0.013,0.191-0.028,0.249l-0.009,0.031l-0.001,0.004l0.069,0.029
			l-0.067-0.036l-0.002,0.006l0.069,0.029l-0.067-0.036l0.259,0.135l-0.223-0.187c-0.021,0.028-0.03,0.044-0.036,0.052l0.259,0.135
			l-0.223-0.187l0.336,0.283l-0.202-0.388c-0.071,0.038-0.11,0.079-0.134,0.105l0.336,0.283l-0.202-0.388v0
			c-1.204,0.63-2.471,1.174-3.745,1.73h0.001l0.106,0.243l-0.046-0.263c-0.014,0.002-0.036,0.008-0.061,0.02l0.106,0.243
			l-0.046-0.263l0.027,0.157l-0.012-0.159l-0.016,0.002l0.027,0.157l-0.012-0.159l0.004,0.066l-0.003-0.066h-0.001l0.004,0.066
			l-0.003-0.066l0,0c-0.007,0.001-0.065-0.004-0.153-0.018c-0.088-0.012-0.206-0.03-0.347-0.039L75.777,68.663l0.473,0.301
			L75.777,68.663l-0.036,0.559c0.088,0.005,0.169,0.017,0.26,0.03c0.088,0.013,0.185,0.029,0.312,0.029
			c0.101,0,0.231-0.012,0.369-0.072l0,0c1.271-0.554,2.563-1.107,3.816-1.764l0,0c0.097-0.051,0.159-0.113,0.206-0.167
			c0.078-0.097,0.114-0.178,0.146-0.256c0.044-0.116,0.07-0.227,0.088-0.342c0.019-0.114,0.027-0.23,0.027-0.348
			c-0.001-0.118-0.009-0.235-0.036-0.36c-0.013-0.063-0.032-0.129-0.064-0.201c-0.033-0.072-0.079-0.154-0.164-0.237v0
			c-0.5-0.486-0.812-1.07-1.071-1.736c-0.261-0.664-0.462-1.402-0.763-2.14c-0.632-1.541-1.198-3.135-1.905-4.694v0
			c-0.073-0.161-0.17-0.286-0.278-0.399c-0.162-0.168-0.349-0.31-0.554-0.423c-0.104-0.055-0.21-0.104-0.325-0.141
			c-0.115-0.037-0.237-0.063-0.379-0.063c-0.044,0-0.088,0.002-0.136,0.01l0,0c-2.452,0.351-4.891,0.78-7.318,1.259h0.001
			c-0.309,0.062-0.635,0.181-0.938,0.355c-0.152,0.086-0.297,0.188-0.43,0.312c-0.132,0.124-0.255,0.271-0.339,0.465l0,0.001
			l0-0.001c-0.555,1.294-0.9,2.639-1.248,3.718l-0.133,0.415l0.37,0.231c0.463,0.29,0.9,0.531,1.292,0.766
			c0.393,0.235,0.738,0.464,1.031,0.722l0,0c0.127,0.109,0.255,0.309,0.386,0.573c0.132,0.263,0.266,0.579,0.468,0.895l0.002,0.003
			l-0.001-0.002c0.478,0.737,1.191,1.294,1.993,1.671c0.803,0.377,1.7,0.578,2.581,0.578c0.83,0,1.65-0.178,2.354-0.585v-0.001
			c0.009-0.005,0.035-0.017,0.083-0.026c0.072-0.016,0.191-0.023,0.334-0.026c0.145-0.003,0.313,0,0.499-0.021l-0.061-0.557
			l-0.56,0.022c0.015,0.322,0.049,0.607,0.048,0.847c0,0.095-0.005,0.183-0.017,0.263l0,0l0.09,0.013l-0.086-0.029l-0.004,0.017
			l0.09,0.013l-0.086-0.029l-0.004,0.009c-0.011,0.023-0.055,0.09-0.124,0.183c-0.07,0.093-0.163,0.212-0.258,0.361l-0.511,0.8
			l0.947,0.06L75.777,68.663z"/>
		<path fill-rule="evenodd" clip-rule="evenodd" fill="#F99D39" d="M49.083,46.642c-0.296,0.589-0.647,1.158-0.867,1.774
			c-0.141,0.393-0.085,0.856-0.117,1.288c0.376-0.164,0.889-0.226,1.104-0.512c0.582-0.771,1.006-1.66,1.555-2.46
			c0.29-0.422,0.711-0.753,1.074-1.126c0.14,0.104,0.279,0.207,0.419,0.311c-0.524,1.042-1.047,2.083-1.591,3.166
			c0.646,0.47,1.198,0.511,1.628-0.285c0.464-0.859,0.891-1.743,1.417-2.563c0.232-0.363,0.667-0.595,1.01-0.887
			c0.133,0.108,0.266,0.217,0.398,0.326c-0.195,0.476-0.385,0.952-0.585,1.425c-0.152,0.359-0.378,0.7-0.458,1.073
			c-0.058,0.265,0.076,0.569,0.124,0.856c0.308-0.109,0.746-0.126,0.899-0.345c0.628-0.892,1.184-1.837,1.74-2.778
			c0.523-0.884,0.612-0.952,1.605-0.865c-0.487,0.989-0.906,1.981-1.446,2.903c-1.102,1.887-0.767,3.941-0.798,5.957
			c-0.001,0.076,0.016,0.161,0.051,0.229c0.242,0.467,0.821,1.126,0.681,1.362c-0.602,1.018-1.361,1.96-2.167,2.837
			c-0.691,0.751-1.452,0.464-2.345,0.098c-2.16-0.888-3.216-2.589-3.962-4.63c-0.309-0.843-0.603-1.713-1.065-2.472
			c-0.655-1.078-0.674-2.017,0.101-3.029c0.44-0.574,0.756-1.244,1.127-1.871C48.774,46.496,48.929,46.568,49.083,46.642z"/>
		<path fill="#F8BD36" d="M49.083,46.642l-0.5-0.251c-0.279,0.56-0.646,1.146-0.895,1.838c-0.101,0.285-0.122,0.557-0.131,0.798
			c-0.008,0.242-0.002,0.459-0.017,0.637l-0.068,0.925l0.851-0.371c0.127-0.058,0.34-0.114,0.576-0.196
			c0.118-0.042,0.244-0.092,0.374-0.167c0.129-0.074,0.265-0.175,0.378-0.325l0,0c0.625-0.834,1.051-1.731,1.57-2.48l0.002-0.004
			l-0.002,0.004c0.111-0.164,0.263-0.327,0.439-0.498c0.175-0.172,0.375-0.351,0.575-0.556l-0.402-0.39l-0.333,0.45
			c0.14,0.104,0.28,0.208,0.42,0.312l0.333-0.451l-0.5-0.251c-0.523,1.042-1.046,2.083-1.59,3.165l-0.214,0.424l0.384,0.28
			c0.17,0.125,0.345,0.23,0.534,0.311c0.187,0.079,0.391,0.133,0.61,0.133c0.267,0.002,0.546-0.09,0.767-0.257
			c0.223-0.167,0.395-0.391,0.54-0.659c0.472-0.874,0.894-1.745,1.396-2.527l0,0c0.058-0.093,0.173-0.205,0.334-0.329
			c0.161-0.125,0.363-0.26,0.567-0.433l-0.363-0.426l-0.354,0.433c0.131,0.108,0.264,0.217,0.398,0.327l0.354-0.434l-0.518-0.212
			c-0.196,0.479-0.386,0.954-0.583,1.419h0c-0.062,0.147-0.151,0.314-0.245,0.506c-0.091,0.192-0.189,0.41-0.244,0.669l0,0
			c-0.02,0.089-0.027,0.175-0.027,0.255c0.001,0.195,0.038,0.354,0.07,0.488c0.033,0.134,0.063,0.245,0.076,0.322l0.11,0.658
			l0.629-0.224c0.042-0.015,0.109-0.033,0.189-0.051c0.122-0.029,0.271-0.058,0.438-0.116c0.083-0.03,0.173-0.067,0.268-0.125
			c0.093-0.059,0.193-0.14,0.275-0.257l0,0c0.646-0.918,1.208-1.875,1.764-2.815l0,0c0.103-0.175,0.186-0.311,0.252-0.406
			c0.05-0.072,0.089-0.119,0.116-0.146c0.042-0.041,0.043-0.038,0.063-0.047c0.02-0.007,0.078-0.02,0.2-0.02
			c0.105,0,0.254,0.01,0.444,0.026l0.049-0.558l-0.502-0.247c-0.496,1.007-0.911,1.988-1.426,2.867v0.001
			c-0.391,0.668-0.618,1.357-0.744,2.042c-0.127,0.684-0.156,1.362-0.156,2.026c0,0.643,0.028,1.273,0.027,1.884
			c0,0.093,0,0.186-0.002,0.279l0,0v0.015c0.002,0.161,0.03,0.313,0.113,0.479v0c0.07,0.133,0.15,0.259,0.23,0.382
			c0.12,0.184,0.241,0.361,0.323,0.5c0.041,0.068,0.07,0.127,0.083,0.16l0.008,0.019l0.001,0.005l0.181-0.05h-0.185
			c0,0.037,0.005,0.05,0.004,0.05l0.181-0.05h-0.185h0.389l-0.333-0.197c-0.047,0.079-0.057,0.157-0.056,0.197h0.389l-0.333-0.197
			l0,0c-0.574,0.971-1.308,1.885-2.096,2.743l0,0c-0.117,0.126-0.215,0.193-0.305,0.232c-0.089,0.04-0.175,0.058-0.286,0.058
			c-0.128,0-0.29-0.028-0.481-0.088c-0.191-0.058-0.409-0.145-0.648-0.244l0,0c-0.993-0.41-1.709-0.988-2.286-1.712
			c-0.575-0.724-1.003-1.604-1.364-2.592c-0.307-0.834-0.608-1.739-1.112-2.571c-0.284-0.468-0.405-0.857-0.405-1.206
			c0-0.187,0.033-0.368,0.108-0.563c0.074-0.195,0.191-0.404,0.364-0.629l0.003-0.003l-0.003,0.004
			c0.489-0.64,0.81-1.331,1.166-1.925l-0.482-0.286l-0.238,0.507c0.155,0.073,0.31,0.145,0.464,0.218L49.083,46.642l-0.5-0.251
			L49.083,46.642l0.239-0.506c-0.155-0.074-0.31-0.146-0.465-0.219L48.396,45.7l-0.259,0.438c-0.387,0.659-0.697,1.306-1.089,1.814
			l0,0c-0.226,0.295-0.402,0.597-0.522,0.911c-0.12,0.313-0.181,0.638-0.181,0.962c0,0.616,0.215,1.208,0.568,1.787
			c0.419,0.688,0.708,1.522,1.018,2.374c0.385,1.053,0.858,2.045,1.538,2.903c0.679,0.858,1.57,1.574,2.737,2.052l0,0
			c0.244,0.101,0.49,0.2,0.745,0.279c0.256,0.079,0.524,0.137,0.81,0.137c0.243,0,0.5-0.045,0.744-0.155
			c0.245-0.109,0.47-0.278,0.671-0.497l0.021-0.023l-0.021,0.023c0.822-0.894,1.606-1.865,2.236-2.931l0,0
			c0.077-0.129,0.1-0.266,0.1-0.373c-0.001-0.116-0.022-0.207-0.047-0.287c-0.045-0.141-0.104-0.255-0.168-0.368
			c-0.096-0.168-0.206-0.33-0.307-0.484c-0.101-0.151-0.192-0.294-0.243-0.393l0,0l-0.069,0.035h0.081
			c-0.002-0.011,0.004,0-0.012-0.035l-0.069,0.035h0.081h-0.088l0.088,0.001v-0.001h-0.088l0.088,0.001v0
			c0.001-0.099,0.002-0.197,0.002-0.295c0-0.644-0.027-1.274-0.027-1.884c0-0.631,0.028-1.24,0.137-1.822
			c0.108-0.583,0.292-1.139,0.609-1.681l0.005-0.009l-0.005,0.009c0.563-0.964,0.986-1.969,1.464-2.938l0.362-0.734l-0.815-0.071
			c-0.201-0.018-0.375-0.031-0.542-0.031c-0.168,0-0.334,0.013-0.504,0.063c-0.126,0.036-0.252,0.096-0.362,0.173
			c-0.166,0.116-0.288,0.259-0.397,0.41c-0.11,0.153-0.21,0.321-0.331,0.523l0,0c-0.557,0.942-1.105,1.875-1.716,2.741l0,0
			l0.17,0.119l-0.129-0.163c-0.009,0.007-0.025,0.021-0.041,0.044l0.17,0.119l-0.129-0.163l0.056,0.07l-0.049-0.076l-0.007,0.005
			l0.056,0.07l-0.049-0.076l0.005,0.008l-0.004-0.008h-0.001l0.005,0.008l-0.004-0.008c-0.003,0.004-0.093,0.039-0.218,0.067
			c-0.125,0.03-0.282,0.06-0.459,0.122l0.187,0.527l0.552-0.093c-0.027-0.161-0.066-0.294-0.092-0.402
			c-0.027-0.107-0.039-0.188-0.038-0.223l0.001-0.021v0c0.024-0.114,0.08-0.253,0.159-0.415c0.078-0.162,0.177-0.344,0.267-0.557
			l0,0c0.204-0.48,0.395-0.96,0.588-1.432l0.157-0.383l-0.322-0.263c-0.132-0.108-0.264-0.217-0.398-0.326l-0.361-0.295
			l-0.355,0.302c-0.138,0.119-0.326,0.247-0.526,0.401c-0.2,0.155-0.418,0.341-0.593,0.611v0c-0.549,0.858-0.981,1.755-1.438,2.599
			c-0.091,0.169-0.174,0.256-0.223,0.292c-0.05,0.034-0.06,0.034-0.099,0.037c-0.031,0-0.088-0.008-0.173-0.044
			c-0.083-0.035-0.191-0.098-0.312-0.185l-0.33,0.453l0.5,0.251c0.544-1.082,1.067-2.124,1.591-3.165l0.211-0.422l-0.379-0.28
			c-0.14-0.103-0.278-0.206-0.418-0.31l-0.394-0.292l-0.342,0.352c-0.163,0.168-0.354,0.342-0.553,0.534
			c-0.197,0.193-0.402,0.406-0.581,0.665v0c-0.581,0.849-1.003,1.73-1.541,2.44v0l0.011,0.008l-0.01-0.01l-0.001,0.001l0.011,0.008
			l-0.01-0.01c-0.002,0.002-0.023,0.021-0.069,0.044c-0.069,0.036-0.188,0.08-0.33,0.124c-0.143,0.046-0.308,0.093-0.483,0.169
			l0.224,0.513l0.558,0.042c0.018-0.253,0.012-0.484,0.02-0.68c0.006-0.197,0.027-0.354,0.066-0.462
			c0.191-0.542,0.528-1.093,0.84-1.711l0.258-0.513l-0.519-0.244L49.083,46.642z"/>
		<path fill-rule="evenodd" clip-rule="evenodd" fill="#F99D39" d="M112.905,37.628c-2.818,0.348-5.259,0.613-7.686,0.963
			c-1.442,0.209-2.448-0.236-3.08-1.569c-1.142-2.404-3.161-3.907-5.394-5.184c-0.2-0.115-0.446-0.21-0.571-0.385
			c-0.86-1.203-1.594-1.395-2.958-0.963c-2.465,0.779-4.883,1.626-6.918,3.298c-0.147,0.121-0.417,0.092-0.63,0.134
			c-0.062-0.098-0.125-0.194-0.188-0.292c1.096-0.884,2.189-1.769,3.417-2.762c-0.396-0.31-0.74-0.579-1.336-1.045
			c1.17-0.258,2.147-0.555,3.147-0.673c1.009-0.119,2.042-0.022,3.06-0.093c1.196-0.083,2.237,0.136,3.083,1.069
			c0.213,0.233,0.604,0.372,0.932,0.418c3.851,0.548,7.333,2.026,10.576,4.122C109.794,35.592,111.222,36.53,112.905,37.628z"/>
		<path fill="#F8BD36" d="M112.905,37.628l-0.068-0.556c-2.814,0.348-5.257,0.613-7.697,0.966h-0.001
			c-0.201,0.029-0.389,0.043-0.56,0.043c-0.472-0.001-0.827-0.101-1.129-0.296c-0.302-0.197-0.57-0.508-0.805-1.003
			c-0.605-1.278-1.448-2.316-2.418-3.191c-0.972-0.875-2.069-1.59-3.204-2.24c-0.128-0.072-0.236-0.124-0.309-0.167
			c-0.036-0.021-0.062-0.04-0.076-0.05l-0.013-0.011l0,0l-0.044,0.037l0.048-0.033l-0.004-0.003l-0.044,0.037l0.048-0.033l0,0
			c-0.32-0.444-0.641-0.794-1.021-1.04c-0.379-0.249-0.819-0.37-1.266-0.368c-0.414,0-0.835,0.091-1.295,0.236
			c-2.473,0.784-4.969,1.647-7.105,3.4l0,0l0.153,0.187l-0.108-0.217l-0.045,0.03l0.153,0.187l-0.108-0.217l0.055,0.108
			l-0.037-0.115l-0.018,0.007l0.055,0.108l-0.037-0.115l-0.007,0.002c-0.019,0.004-0.073,0.011-0.148,0.017
			c-0.075,0.006-0.169,0.013-0.285,0.034l0.104,0.55l0.471-0.305c-0.063-0.098-0.126-0.193-0.188-0.291L85.48,33.63l0.353,0.435
			c1.094-0.883,2.188-1.769,3.417-2.761l0.547-0.443l-0.555-0.434c-0.396-0.31-0.74-0.579-1.335-1.045l-0.346,0.44l0.121,0.547
			c1.196-0.266,2.161-0.556,3.092-0.665c0.45-0.054,0.923-0.061,1.413-0.061c0.161,0,0.325,0,0.49,0c0.369,0,0.745-0.003,1.13-0.03
			l0,0c0.14-0.01,0.276-0.015,0.407-0.015c0.456,0,0.858,0.061,1.22,0.199c0.36,0.14,0.688,0.354,1.003,0.702
			c0.186,0.202,0.402,0.327,0.619,0.418s0.438,0.148,0.649,0.178c3.756,0.535,7.159,1.976,10.351,4.038
			c1.432,0.925,2.858,1.862,4.543,2.96L112.905,37.628l-0.068-0.556L112.905,37.628l0.306-0.469
			c-1.682-1.097-3.109-2.035-4.547-2.963c-3.296-2.129-6.857-3.646-10.802-4.205c-0.118-0.017-0.256-0.053-0.369-0.102
			c-0.115-0.047-0.2-0.108-0.226-0.14c-0.424-0.468-0.911-0.795-1.433-0.994c-0.52-0.2-1.066-0.274-1.62-0.274
			c-0.16,0-0.322,0.006-0.484,0.017l0,0c-0.341,0.024-0.691,0.028-1.053,0.028c-0.161,0-0.325,0-0.49,0
			c-0.501,0-1.018,0.006-1.544,0.068c-1.067,0.127-2.058,0.431-3.202,0.683l-1.159,0.256l0.935,0.731
			c0.595,0.466,0.939,0.735,1.337,1.045l0.344-0.442l-0.352-0.435c-1.229,0.993-2.322,1.877-3.416,2.761l-0.394,0.317l0.274,0.422
			c0.063,0.097,0.127,0.194,0.188,0.292l0.205,0.315l0.37-0.07c0.042-0.01,0.152-0.015,0.3-0.03
			c0.073-0.009,0.158-0.021,0.257-0.051c0.097-0.03,0.213-0.079,0.322-0.169l0,0c1.937-1.593,4.275-2.423,6.732-3.198
			c0.398-0.126,0.713-0.184,0.957-0.184c0.266,0.002,0.447,0.056,0.658,0.188c0.21,0.134,0.447,0.372,0.718,0.751v0
			c0.139,0.19,0.3,0.293,0.432,0.372c0.133,0.077,0.246,0.13,0.318,0.172c1.097,0.628,2.126,1.303,3.008,2.1
			c0.884,0.797,1.622,1.712,2.157,2.839c0.298,0.631,0.696,1.129,1.205,1.46c0.508,0.333,1.105,0.48,1.74,0.479
			c0.233,0,0.473-0.02,0.721-0.056h-0.001c2.414-0.349,4.852-0.613,7.675-0.962l1.52-0.188l-1.282-0.837L112.905,37.628z"/>
		<path fill-rule="evenodd" clip-rule="evenodd" fill="#F99D39" d="M36.759,47.189c1.626-0.747,3.239-1.53,4.887-2.226
			c0.841-0.355,1.751-0.55,2.624-0.834c0.14-0.045,0.351-0.168,0.359-0.27c0.148-1.7,1.666-1.948,2.777-2.534
			c2.566-1.353,4.488-3.369,6.249-5.605c0.287-0.364,0.867-0.681,1.322-0.695c1.447-0.046,2.9,0.096,4.351,0.096
			c0.821-0.001,0.941,0.362,0.702,1.129c-1.527-0.409-1.75,0.979-2.015,1.812c-0.692,2.178-1.184,2.075-3.594,2.06
			c-1.451-0.009-2.24,0.709-3.1,1.492c-1.27,1.157-2.223,2.675-4.145,2.996c-0.464,0.077-0.859,0.746-1.228,1.192
			c-0.97,1.176-2.063,1.907-3.721,1.771c-1.77-0.144-3.56-0.032-5.341-0.032C36.844,47.424,36.802,47.307,36.759,47.189z"/>
		<path fill="#F8BD36" d="M36.759,47.189l0.233,0.509c1.635-0.751,3.242-1.531,4.872-2.22h0c0.776-0.329,1.669-0.522,2.58-0.817
			l-0.001,0.001c0.13-0.044,0.248-0.101,0.374-0.185c0.062-0.043,0.126-0.092,0.194-0.17c0.034-0.039,0.069-0.085,0.103-0.149
			c0.033-0.063,0.064-0.146,0.074-0.251v0.001c0.031-0.345,0.122-0.577,0.248-0.77c0.096-0.144,0.217-0.268,0.367-0.382
			c0.224-0.173,0.515-0.321,0.839-0.466c0.324-0.145,0.678-0.286,1.026-0.47c2.67-1.407,4.646-3.492,6.428-5.754
			c0.078-0.101,0.242-0.237,0.42-0.331c0.178-0.096,0.373-0.149,0.479-0.151h0c0.195-0.006,0.392-0.008,0.589-0.008
			c1.211-0.001,2.455,0.104,3.729,0.104h0.012h0.005h0.004l-0.006-0.453v0.453h0.006l-0.006-0.453v0.453
			c0.116,0,0.201,0.01,0.25,0.021c0.038,0.008,0.053,0.016,0.053,0.016l0.043-0.079l-0.063,0.063l0.02,0.015l0.043-0.079
			l-0.063,0.063l0.097-0.098l-0.131,0.045l0.034,0.052l0.097-0.098l-0.131,0.045l0.042-0.015l-0.043,0.011l0.001,0.004l0.042-0.015
			l-0.043,0.011c0,0,0.002,0.01,0.002,0.034c0.002,0.063-0.021,0.209-0.083,0.404l0.535,0.167l0.145-0.542
			c-0.229-0.061-0.446-0.092-0.654-0.092c-0.369-0.002-0.711,0.107-0.974,0.292c-0.199,0.138-0.352,0.309-0.472,0.485
			c-0.181,0.266-0.292,0.547-0.381,0.808c-0.088,0.261-0.153,0.506-0.211,0.691l0,0c-0.146,0.459-0.279,0.797-0.406,1.027
			c-0.095,0.174-0.182,0.284-0.264,0.36c-0.063,0.058-0.125,0.099-0.202,0.135c-0.115,0.053-0.272,0.095-0.499,0.12
			c-0.225,0.026-0.513,0.033-0.868,0.033c-0.241,0-0.513-0.004-0.818-0.005l0,0h-0.032c-0.809-0.002-1.48,0.21-2.031,0.527
			c-0.553,0.318-0.991,0.722-1.418,1.11h0c-0.672,0.615-1.227,1.282-1.822,1.806c-0.297,0.263-0.602,0.492-0.934,0.671
			c-0.331,0.179-0.688,0.311-1.104,0.38l0,0c-0.234,0.04-0.423,0.145-0.579,0.259c-0.233,0.175-0.408,0.384-0.568,0.585
			c-0.159,0.202-0.3,0.399-0.42,0.544l0,0c-0.42,0.509-0.846,0.904-1.308,1.17c-0.463,0.265-0.963,0.412-1.595,0.414
			c-0.11,0-0.223-0.005-0.341-0.014h0c-0.715-0.059-1.427-0.076-2.134-0.076c-1.097,0-2.184,0.042-3.253,0.042v0.56l0.526-0.191
			c-0.043-0.118-0.085-0.235-0.128-0.352L36.759,47.189l0.233,0.509L36.759,47.189l-0.526,0.192
			c0.042,0.117,0.085,0.234,0.128,0.351l0.133,0.369h0.393c1.098,0,2.184-0.042,3.253-0.042c0.689,0,1.371,0.018,2.043,0.072l0,0
			c0.146,0.012,0.29,0.018,0.432,0.018c0.813,0.002,1.534-0.204,2.153-0.562c0.621-0.358,1.14-0.855,1.613-1.429v0.001
			c0.206-0.253,0.394-0.526,0.568-0.724c0.085-0.098,0.166-0.176,0.226-0.221c0.03-0.022,0.055-0.036,0.071-0.044l0.022-0.008h0
			c0.544-0.091,1.027-0.269,1.455-0.501c0.643-0.348,1.16-0.811,1.63-1.279c0.471-0.47,0.897-0.947,1.345-1.354l0,0
			c0.427-0.39,0.809-0.731,1.221-0.965c0.413-0.233,0.851-0.378,1.475-0.38h0.025l0,0c0.3,0.002,0.574,0.005,0.825,0.005
			c0.438,0,0.81-0.008,1.156-0.061c0.259-0.04,0.507-0.106,0.74-0.224c0.173-0.087,0.336-0.203,0.477-0.342
			c0.214-0.209,0.38-0.466,0.526-0.765c0.146-0.3,0.273-0.646,0.406-1.062l0,0c0.064-0.201,0.119-0.406,0.182-0.601
			c0.092-0.292,0.208-0.547,0.332-0.69c0.062-0.072,0.12-0.118,0.187-0.15s0.146-0.055,0.273-0.055c0.094,0,0.214,0.014,0.364,0.054
			l0.519,0.14l0.16-0.514c0.078-0.253,0.133-0.487,0.134-0.736c0-0.15-0.023-0.312-0.092-0.47c-0.052-0.119-0.13-0.233-0.229-0.324
			c-0.147-0.138-0.324-0.218-0.498-0.264c-0.176-0.045-0.355-0.062-0.552-0.062H59.32l0.008,0.56l0.002-0.56h-0.016
			c-1.212,0-2.456-0.104-3.729-0.104c-0.208,0-0.416,0.002-0.625,0.01h0c-0.349,0.014-0.671,0.125-0.969,0.281
			c-0.296,0.159-0.566,0.364-0.775,0.626c-1.741,2.212-3.606,4.159-6.07,5.457c-0.246,0.13-0.537,0.252-0.846,0.387
			c-0.461,0.204-0.966,0.436-1.401,0.838c-0.216,0.201-0.411,0.448-0.555,0.742c-0.145,0.295-0.239,0.635-0.271,1.014v0.001v0
			l0.454,0.039l-0.404-0.211c-0.02,0.037-0.042,0.093-0.05,0.173l0.454,0.039l-0.404-0.211l0.268,0.141l-0.205-0.227
			c-0.006,0.006-0.028,0.022-0.063,0.086l0.268,0.141l-0.205-0.227l0.052,0.058l-0.05-0.06l-0.002,0.002l0.052,0.058l-0.05-0.06
			l-0.002,0.001l-0.088,0.045l0,0c-0.835,0.273-1.761,0.469-2.668,0.851l0,0c-1.667,0.705-3.283,1.49-4.903,2.233l-0.47,0.216
			l0.178,0.484L36.759,47.189z"/>
		<path fill-rule="evenodd" clip-rule="evenodd" fill="#F99D39" d="M95.079,33.727c-2.69,1.178-5.078,2.292-6.799,4.924
			c0.651-0.028,1.082,0.088,1.3-0.078c1.893-1.432,4.143-1.944,6.369-2.429c1.447-0.316,3.455,0.938,3.587,2.728
			c0.047,0.646-0.2,1.013-0.921,1.077c-2.554,0.228-5.117,0.415-7.653,0.784c-2.431,0.354-4.827,0.931-7.247,1.365
			c-0.451,0.081-0.943-0.052-1.415-0.086c0.174-0.477,0.226-1.066,0.542-1.413c1.975-2.167,3.898-4.393,6.496-5.891
			C91.04,33.725,92.812,33.328,95.079,33.727z"/>
		<path fill="#F8BD36" d="M95.079,33.727l-0.225-0.514c-1.349,0.592-2.647,1.175-3.847,1.962c-1.198,0.786-2.292,1.783-3.196,3.17
			l-0.597,0.913l1.09-0.048c0.068-0.002,0.134-0.004,0.198-0.004c0.239,0,0.446,0.018,0.663,0.018c0.107,0,0.221-0.004,0.348-0.029
			c0.125-0.024,0.271-0.074,0.404-0.177v0c0.887-0.67,1.863-1.131,2.902-1.486c1.037-0.355,2.135-0.601,3.247-0.843h0.001
			c0.108-0.023,0.225-0.035,0.349-0.035c0.53-0.004,1.177,0.24,1.673,0.657c0.251,0.208,0.464,0.455,0.617,0.726
			c0.152,0.271,0.247,0.563,0.271,0.875l0,0c0.003,0.038,0.004,0.074,0.004,0.105c0,0.096-0.012,0.162-0.024,0.2
			c-0.009,0.03-0.018,0.044-0.025,0.055c-0.014,0.016-0.026,0.031-0.079,0.055c-0.052,0.024-0.146,0.051-0.288,0.063
			c-2.549,0.229-5.121,0.416-7.683,0.788c-2.465,0.358-4.867,0.938-7.267,1.368l0,0c-0.063,0.011-0.134,0.017-0.214,0.017
			c-0.136,0-0.297-0.017-0.475-0.041c-0.18-0.023-0.374-0.054-0.587-0.068l-0.04,0.558l0.526,0.191
			c0.104-0.291,0.161-0.567,0.229-0.788c0.032-0.11,0.065-0.206,0.101-0.28c0.034-0.074,0.068-0.126,0.101-0.159
			c1.981-2.177,3.869-4.349,6.36-5.784c1.198-0.688,2.382-1.057,3.789-1.059c0.495,0,1.017,0.047,1.576,0.145L95.079,33.727
			l-0.225-0.514L95.079,33.727l0.097-0.552c-0.617-0.109-1.206-0.162-1.771-0.162c-1.611-0.002-3.022,0.442-4.348,1.208
			c-2.703,1.563-4.66,3.843-6.63,5.999c-0.127,0.14-0.219,0.292-0.288,0.44c-0.104,0.224-0.162,0.442-0.217,0.641
			c-0.052,0.199-0.098,0.378-0.149,0.518l-0.254,0.697l0.74,0.053c0.153,0.01,0.329,0.037,0.519,0.062
			c0.19,0.025,0.398,0.05,0.623,0.051c0.132,0,0.27-0.01,0.413-0.035h-0.002c2.442-0.438,4.834-1.014,7.229-1.362
			c2.509-0.365,5.062-0.551,7.622-0.78c0.208-0.018,0.4-0.058,0.582-0.129c0.136-0.054,0.265-0.127,0.379-0.221
			c0.172-0.141,0.301-0.331,0.374-0.529c0.075-0.2,0.103-0.405,0.103-0.61c0-0.061-0.003-0.124-0.007-0.186l0,0
			c-0.036-0.49-0.188-0.946-0.415-1.346c-0.341-0.601-0.847-1.08-1.418-1.417c-0.57-0.335-1.209-0.532-1.845-0.533
			c-0.197,0-0.395,0.02-0.587,0.062l0,0c-1.116,0.243-2.255,0.496-3.372,0.877c-1.115,0.38-2.21,0.892-3.216,1.653l-0.003,0.001
			l0.003-0.001l0.124,0.164l-0.079-0.19l-0.045,0.027l0.124,0.164l-0.079-0.19l0.043,0.103l-0.033-0.106l-0.01,0.003l0.043,0.103
			l-0.033-0.106l0.009,0.03l-0.008-0.03l-0.001,0l0.009,0.03l-0.008-0.03c-0.001,0.001-0.051,0.009-0.132,0.008
			c-0.143,0.001-0.375-0.017-0.663-0.018c-0.077,0-0.16,0.001-0.247,0.006l0.024,0.559l0.468,0.307
			c0.815-1.247,1.776-2.124,2.876-2.847c1.098-0.722,2.337-1.285,3.68-1.872L97,33.497l-1.824-0.321L95.079,33.727z"/>
		<path fill-rule="evenodd" clip-rule="evenodd" fill="#F99D39" d="M62.179,38.989c-0.525-1.946,0.54-4.189-0.924-6.005
			c2.174-0.947,4.967-0.65,7.311-2.373c0.076,0.316,0.32,0.728,0.203,0.943c-0.76,1.402-1.306,2.974-3.23,3.368
			c-0.577,0.118-1.101,0.888-1.483,1.469c-0.58,0.878-1.015,1.853-1.512,2.788C62.422,39.116,62.301,39.053,62.179,38.989z"/>
		<path fill="#F8BD36" d="M62.179,38.989l0.541-0.146c-0.107-0.395-0.141-0.828-0.141-1.292c0-0.569,0.051-1.181,0.053-1.816
			c0-0.506-0.034-1.029-0.169-1.557c-0.134-0.527-0.375-1.056-0.771-1.545l-0.436,0.352l0.224,0.514
			c0.493-0.215,1.04-0.366,1.626-0.495c0.878-0.193,1.844-0.333,2.833-0.592c0.989-0.261,2.006-0.647,2.958-1.349l-0.331-0.451
			l-0.544,0.13c0.047,0.19,0.112,0.345,0.158,0.473c0.023,0.063,0.042,0.118,0.051,0.156l0.009,0.041l0,0.007l0.053-0.004H68.24
			v0.004l0.053-0.004H68.24h0.27l-0.233-0.126c-0.035,0.064-0.037,0.114-0.037,0.126h0.27l-0.233-0.126l0,0
			c-0.393,0.729-0.713,1.445-1.131,1.988c-0.208,0.272-0.437,0.502-0.71,0.687c-0.273,0.184-0.595,0.326-1.009,0.411l0,0
			c-0.246,0.051-0.455,0.162-0.636,0.292c-0.271,0.196-0.491,0.441-0.689,0.69c-0.196,0.25-0.367,0.507-0.513,0.727l0,0
			c-0.613,0.931-1.053,1.922-1.539,2.833l0.495,0.263l0.26-0.496c-0.122-0.064-0.245-0.127-0.366-0.191L62.179,38.989l0.541-0.146
			L62.179,38.989l-0.258,0.496c0.121,0.063,0.242,0.126,0.362,0.189l0.493,0.259l0.261-0.491c0.508-0.958,0.938-1.916,1.485-2.742
			l0.016-0.023L64.522,36.7c0.189-0.287,0.404-0.604,0.619-0.842c0.107-0.119,0.212-0.217,0.303-0.282
			c0.091-0.066,0.164-0.096,0.207-0.104l0.019-0.004l-0.019,0.004c0.548-0.112,1.017-0.314,1.41-0.579
			c0.592-0.399,1.005-0.928,1.336-1.466c0.332-0.541,0.589-1.1,0.864-1.604l0,0c0.078-0.145,0.099-0.29,0.099-0.407
			c0-0.128-0.022-0.232-0.046-0.327c-0.037-0.14-0.083-0.26-0.122-0.365c-0.04-0.104-0.07-0.194-0.082-0.243l-0.196-0.82
			l-0.679,0.499c-0.537,0.394-1.1,0.675-1.687,0.89c-0.879,0.323-1.811,0.494-2.747,0.671c-0.936,0.179-1.878,0.363-2.77,0.75
			l-0.673,0.293l0.461,0.571c0.288,0.359,0.455,0.725,0.558,1.121c0.102,0.396,0.134,0.823,0.134,1.278
			c0,0.572-0.052,1.184-0.052,1.816c0,0.515,0.036,1.048,0.179,1.584l0.064,0.237l0.218,0.113L62.179,38.989z"/>
		<path fill-rule="evenodd" clip-rule="evenodd" fill="#F99D39" d="M79.49,58.451c2.014,1.08,3.754,2.013,5.772,3.095
			c-0.929,0.705-1.523,1.265-2.22,1.631c-0.262,0.137-0.963-0.052-1.117-0.304C81.104,61.528,80.39,60.117,79.49,58.451z"/>
		<path fill="#F8BD36" d="M79.49,58.451l-0.265,0.493c2.014,1.081,3.754,2.014,5.772,3.096l0.265-0.494l-0.338-0.446
			c-0.476,0.361-0.861,0.681-1.202,0.947c-0.344,0.266-0.639,0.476-0.94,0.634l0,0l0.084,0.16l-0.034-0.179
			c-0.001,0-0.015,0.002-0.05,0.02l0.084,0.16l-0.034-0.179l-0.03,0.001c-0.067,0.002-0.209-0.024-0.312-0.064
			c-0.05-0.02-0.093-0.042-0.112-0.055l-0.009-0.007v0l-0.132,0.146l0.167-0.102c-0.02-0.03-0.032-0.042-0.035-0.044l-0.132,0.146
			l0.167-0.102v0c-0.808-1.318-1.518-2.723-2.423-4.397L79.49,58.451l-0.265,0.493L79.49,58.451l-0.493,0.266
			c0.896,1.657,1.612,3.076,2.452,4.449l0,0c0.095,0.151,0.204,0.238,0.31,0.31c0.16,0.106,0.328,0.174,0.502,0.225
			c0.176,0.05,0.354,0.082,0.541,0.082c0.076,0,0.153-0.005,0.235-0.021c0.083-0.016,0.171-0.041,0.267-0.09l0,0
			c0.393-0.208,0.744-0.461,1.105-0.742c0.362-0.282,0.738-0.594,1.192-0.938l0.694-0.527l-0.769-0.412
			c-2.019-1.083-3.759-2.016-5.772-3.096l-1.646-0.881l0.888,1.641L79.49,58.451z"/>
		<path fill-rule="evenodd" clip-rule="evenodd" fill="#F99D39" d="M63.917,43.489c-1.614,2.687-2.37,2.848-3.876,0.89
			C61.208,42.999,61.887,42.833,63.917,43.489z"/>
		<path fill="#F8BD36" d="M63.917,43.489l-0.48-0.288c-0.438,0.732-0.809,1.258-1.107,1.566c-0.148,0.155-0.276,0.253-0.373,0.306
			c-0.099,0.054-0.16,0.065-0.216,0.066c-0.045,0-0.096-0.009-0.169-0.04c-0.108-0.045-0.264-0.147-0.449-0.326
			c-0.185-0.177-0.4-0.424-0.639-0.735l-0.444,0.341l0.427,0.361c0.353-0.417,0.64-0.689,0.889-0.844
			c0.125-0.078,0.242-0.129,0.365-0.165c0.123-0.034,0.255-0.053,0.415-0.053c0.368-0.002,0.885,0.108,1.608,0.344L63.917,43.489
			l-0.48-0.288L63.917,43.489l0.172-0.532c-0.768-0.247-1.376-0.397-1.953-0.399c-0.248,0-0.488,0.03-0.719,0.096
			c-0.347,0.097-0.662,0.272-0.952,0.503c-0.291,0.232-0.562,0.517-0.852,0.86l-0.292,0.345l0.275,0.357
			c0.349,0.452,0.667,0.812,1.003,1.082c0.169,0.134,0.344,0.246,0.534,0.328c0.19,0.081,0.397,0.129,0.607,0.128
			c0.266,0.001,0.526-0.076,0.755-0.204c0.346-0.192,0.641-0.481,0.943-0.857c0.302-0.376,0.612-0.845,0.958-1.418l0.363-0.604
			l-0.67-0.216L63.917,43.489z"/>
		<path fill-rule="evenodd" clip-rule="evenodd" fill="#F99D39" d="M44.833,53.928c-0.487-0.227-1.158-0.326-1.423-0.706
			c-0.636-0.91-1.108-1.941-1.579-2.954c-0.086-0.183,0.143-0.513,0.227-0.774c0.364,0.136,0.908,0.167,1.06,0.426
			c0.677,1.163,1.242,2.39,1.848,3.595C44.92,53.652,44.876,53.79,44.833,53.928z"/>
		<path fill="#F8BD36" d="M44.833,53.928l0.237-0.507c-0.304-0.14-0.603-0.221-0.831-0.311c-0.113-0.044-0.208-0.087-0.27-0.126
			c-0.064-0.039-0.092-0.069-0.101-0.083c-0.597-0.853-1.059-1.854-1.53-2.869h-0.001l-0.306,0.142h0.34
			c0-0.027-0.004-0.081-0.034-0.142l-0.306,0.142h0.34h-0.16l0.158,0.031l0.002-0.031h-0.16l0.158,0.031l0.003-0.013
			c0.009-0.031,0.041-0.107,0.083-0.197c0.041-0.091,0.092-0.197,0.135-0.331l-0.533-0.17l-0.196,0.523
			c0.127,0.048,0.247,0.079,0.358,0.107c0.166,0.04,0.313,0.075,0.398,0.107c0.042,0.015,0.066,0.029,0.066,0.03l0.056-0.083
			l-0.071,0.07l0.015,0.013l0.056-0.083l-0.071,0.07l0.162-0.163l-0.198,0.115c0.013,0.022,0.027,0.038,0.036,0.047l0.162-0.163
			l-0.198,0.115l0,0c0.659,1.131,1.221,2.349,1.831,3.565l0.5-0.251l-0.533-0.17c-0.043,0.137-0.088,0.275-0.132,0.415
			L44.833,53.928l0.237-0.507L44.833,53.928l0.534,0.168c0.042-0.136,0.086-0.273,0.131-0.411l0.069-0.218l-0.103-0.204
			c-0.6-1.193-1.169-2.432-1.864-3.626l-0.001-0.001c-0.054-0.093-0.123-0.169-0.191-0.229c-0.122-0.104-0.243-0.162-0.355-0.208
			c-0.169-0.067-0.326-0.104-0.467-0.139c-0.139-0.034-0.261-0.065-0.332-0.092l-0.551-0.206l-0.18,0.56
			c-0.014,0.049-0.067,0.163-0.127,0.297c-0.03,0.068-0.062,0.143-0.09,0.231c-0.027,0.088-0.053,0.189-0.054,0.323
			c0,0.096,0.016,0.213,0.071,0.331l0,0c0.471,1.011,0.953,2.071,1.627,3.038c0.125,0.178,0.28,0.302,0.432,0.396
			c0.23,0.14,0.46,0.221,0.672,0.296c0.211,0.073,0.404,0.138,0.542,0.202l0.578,0.27l0.192-0.609L44.833,53.928z"/>
		<path fill-rule="evenodd" clip-rule="evenodd" fill="#F99D39" d="M41.396,53.792c-0.388-0.211-0.899-0.331-1.14-0.653
			c-0.556-0.742-1.047-1.553-1.422-2.398c-0.133-0.302,0.146-0.787,0.237-1.189c0.259,0.256,0.578,0.474,0.765,0.774
			c0.631,1.012,1.214,2.054,1.816,3.084C41.567,53.538,41.482,53.665,41.396,53.792z"/>
		<path fill="#F8BD36" d="M41.396,53.792l0.268-0.491c-0.245-0.132-0.479-0.217-0.655-0.3c-0.088-0.042-0.161-0.082-0.212-0.116
			c-0.052-0.035-0.08-0.064-0.092-0.081c-0.534-0.712-1.004-1.489-1.359-2.29v0l-0.146,0.064l0.158-0.028l-0.011-0.036l-0.146,0.064
			l0.158-0.028l-0.065,0.012l0.066-0.005l-0.001-0.006l-0.065,0.012l0.066-0.005v-0.002c0-0.01,0.003-0.049,0.017-0.104
			c0.02-0.083,0.06-0.199,0.106-0.33c0.046-0.132,0.099-0.279,0.137-0.445l-0.546-0.124l-0.394,0.398
			c0.155,0.153,0.305,0.275,0.425,0.386c0.122,0.11,0.209,0.207,0.258,0.286c0.622,0.998,1.204,2.035,1.809,3.07l0.483-0.282
			l-0.466-0.311c-0.084,0.127-0.17,0.254-0.255,0.38L41.396,53.792l0.268-0.491L41.396,53.792l0.464,0.313
			c0.086-0.128,0.172-0.256,0.257-0.384l0.195-0.291l-0.177-0.302c-0.599-1.024-1.185-2.07-1.825-3.097
			c-0.137-0.22-0.303-0.382-0.453-0.521c-0.151-0.137-0.29-0.252-0.393-0.355l-0.717-0.71l-0.223,0.984
			c-0.022,0.104-0.083,0.27-0.147,0.456c-0.032,0.093-0.064,0.194-0.091,0.304c-0.026,0.109-0.048,0.229-0.048,0.366
			c0,0.125,0.02,0.268,0.083,0.413l0,0c0.395,0.892,0.909,1.736,1.487,2.507c0.108,0.143,0.233,0.25,0.358,0.335
			c0.187,0.126,0.373,0.208,0.54,0.281c0.167,0.072,0.315,0.134,0.422,0.193l0.447,0.243l0.285-0.422L41.396,53.792z"/>
		<path fill-rule="evenodd" clip-rule="evenodd" fill="#F99D39" d="M71.414,43.755c-1.115,0.16-2.1,0.301-3.147,0.453
			c-0.293-0.912,0.164-1.505,0.896-1.758C70.204,42.09,70.96,42.555,71.414,43.755z"/>
		<path fill="#F8BD36" d="M71.414,43.755l-0.08-0.554c-1.115,0.161-2.1,0.302-3.147,0.453l0.079,0.554l0.533-0.172
			c-0.045-0.143-0.063-0.262-0.063-0.358c0.003-0.184,0.05-0.294,0.143-0.407c0.093-0.11,0.25-0.218,0.465-0.292l0.008-0.002
			l-0.008,0.002c0.182-0.063,0.336-0.088,0.466-0.088c0.115,0.001,0.209,0.019,0.299,0.054c0.133,0.052,0.262,0.143,0.397,0.305
			c0.134,0.162,0.267,0.396,0.383,0.704L71.414,43.755l-0.08-0.554L71.414,43.755l0.523-0.198c-0.199-0.524-0.458-0.959-0.817-1.282
			c-0.179-0.16-0.383-0.288-0.605-0.375c-0.223-0.086-0.462-0.129-0.704-0.128c-0.275,0-0.553,0.053-0.832,0.149l0,0
			c-0.362,0.125-0.698,0.325-0.953,0.625c-0.256,0.297-0.412,0.7-0.409,1.132c0,0.228,0.04,0.463,0.117,0.702l0.145,0.45
			l0.468-0.067c1.047-0.151,2.032-0.293,3.147-0.453l0.691-0.099l-0.247-0.653L71.414,43.755z"/>
		<path fill-rule="evenodd" clip-rule="evenodd" fill="#F99D39" d="M82.101,25.393c-0.295,0.601-0.553,1.124-0.862,1.749
			c-0.38-0.351-0.668-0.619-0.955-0.882C80.869,25.98,81.413,25.721,82.101,25.393z"/>
		<path fill="#F8BD36" d="M82.101,25.393L81.6,25.145c-0.297,0.601-0.555,1.125-0.863,1.75l0.502,0.248l0.38-0.411
			c-0.38-0.352-0.67-0.619-0.955-0.883l-0.38,0.412l0.241,0.505c0.585-0.279,1.13-0.539,1.817-0.867L82.101,25.393L81.6,25.145
			L82.101,25.393l-0.241-0.505c-0.686,0.328-1.231,0.587-1.817,0.866l-0.744,0.356l0.606,0.56c0.285,0.264,0.574,0.532,0.954,0.883
			l0.551,0.509l0.332-0.672c0.307-0.625,0.566-1.149,0.861-1.749l0.716-1.449l-1.459,0.696L82.101,25.393z"/>
		<path fill-rule="evenodd" clip-rule="evenodd" fill="#F99D39" d="M70.319,28.418c-1.005,0.593-2.43-0.379-2.735,1.578
			c-0.205-0.708-0.316-1.09-0.458-1.578C68.202,28.418,69.125,28.418,70.319,28.418z"/>
		<path fill="#F8BD36" d="M70.319,28.418l-0.285-0.482c-0.141,0.084-0.324,0.127-0.569,0.146c-0.183,0.016-0.392,0.017-0.621,0.034
			c-0.172,0.014-0.356,0.036-0.549,0.092c-0.145,0.042-0.294,0.104-0.438,0.197c-0.215,0.137-0.407,0.343-0.543,0.597
			c-0.138,0.254-0.229,0.553-0.284,0.908l0.553,0.085l0.538-0.155c-0.205-0.709-0.316-1.09-0.458-1.579l-0.538,0.157v0.56
			c1.075,0,1.998,0,3.192,0V28.418l-0.285-0.482L70.319,28.418v-0.56c-1.194,0-2.118,0-3.192,0h-0.746l0.208,0.715
			c0.142,0.488,0.252,0.87,0.457,1.578l0.703,2.422l0.388-2.492c0.033-0.208,0.079-0.362,0.125-0.469
			c0.041-0.094,0.082-0.153,0.118-0.194c0.065-0.069,0.122-0.104,0.237-0.138c0.167-0.052,0.455-0.057,0.801-0.074
			c0.174-0.011,0.363-0.027,0.565-0.07c0.2-0.043,0.414-0.115,0.62-0.238l1.764-1.041h-2.048V28.418z"/>
	</g>
</g>
</svg>
