<?xml version="1.0" encoding="utf-8"?>
<!-- Generator: Adobe Illustrator 16.0.0, SVG Export Plug-In . SVG Version: 6.00 Build 0)  -->
<!DOCTYPE svg PUBLIC "-//W3C//DTD SVG 1.1//EN" "http://www.w3.org/Graphics/SVG/1.1/DTD/svg11.dtd">
<svg version="1.1" id="flag-icon-css-am" xmlns="http://www.w3.org/2000/svg" xmlns:xlink="http://www.w3.org/1999/xlink" x="0px"
	 y="0px" width="150px" height="150px" viewBox="0 0 150 150" enable-background="new 0 0 150 150" xml:space="preserve">
<g>
	<linearGradient id="SVGID_1_" gradientUnits="userSpaceOnUse" x1="27.4863" y1="53.7974" x2="126.9688" y2="53.7974">
		<stop  offset="0.0108" style="stop-color:#C1D000"/>
		<stop  offset="0.1237" style="stop-color:#9EB900"/>
		<stop  offset="1" style="stop-color:#249508"/>
	</linearGradient>
	<path fill-rule="evenodd" clip-rule="evenodd" fill="url(#SVGID_1_)" d="M29.381,52.624c-2.032,0.362-1.152-1.107-0.995-1.796
		c1.157-5.055,4.264-8.317,9.226-9.875c1.823-0.572,3.825-0.798,5.726-2.697c-3.537-0.575-6.917-0.822-9.057-3.711
		c-2.085-2.815-3.336-5.944-2.602-9.424c0.698-3.312,2.315-5.958,6.959-5.483c-2.573,1.667-4.916,3.026-3.028,6.162
		c1.522,2.529,4.877,3.205,7.744,1.321c1.617-1.063,3.095-2.423,4.395-3.865c4.808-5.337,10.551-8.245,18.333-7.094
		c-1.323-2.253-3.754-1.264-5.378-2.612c4.625-4.195,10.314-3.294,15.527-4.194c0.301-1.194-1.902-0.806-1.33-1.961
		c0.178-0.359,1.172-0.409,1.801-0.438c6.623-0.311,12.049,2.788,17.189,6.376c1.836,1.281,2.711,1.227,3.899-0.612
		c1.154-1.785,2.949-3.022,4.853-3.922c1.593-0.753,4.33-3.183,3.313,1.664c-0.216,1.028,0.048,2.119,1.586,1.31
		c3.562-1.874,2.356,0.936,1.995,2.228c-1.373,4.912-0.389,9.04,2.732,13.17c4.365,5.774,6.163,12.813,7.98,19.694
		c0.724,2.737,1.875,5.082,3.412,7.356c1.33,1.97,2.586,3.97,3.041,6.388c0.96,5.103-0.688,8.321-5.021,9.596
		c-5.315,1.563-8.786,0.043-10.464-5.027c-0.589-1.783-1.839-1.911-3.068-2.351c-4.743-1.694-8.732-4.379-11.638-8.557
		c-1.982-2.852-4.107-2.92-6.015-0.001c-3.523,5.396-4.202,11.079-1.841,17.221c2.715,7.062,6.8,13.437,9.81,20.334
		c1.14,2.615,3.745,5.867,2.134,7.986c-1.287,1.69-5.248,0.407-8.021,0.003c-9.478-1.386-18.429-4.445-27.137-8.339
		c-6.873-3.074-13.943-5.618-21.879-7.73c14.444-6.739,29.004-12.556,37.313-26.808c-5.409,3.994-10.66,8.13-16.736,11.18
		c-6.071,3.048-12.125,6.019-19.479,7.943c13.15-17.82,21.882-38.366,42.462-48.932c-1.474-1.388-2.445-0.663-3.42-0.306
		c-7.836,2.862-14.327,7.663-20.173,13.546c-8.352,8.406-15.113,18.137-22.919,26.99c-1.178,1.335-2.289,3.634-4.02,3.319
		c-2.068-0.377-0.455-3.198-1.535-4.614c-1.95-0.081-2.039,2.087-3.438,2.729c-2.55-2.94-1.671-6.283-1.083-9.49
		c-1.32-0.758-1.73,0.812-2.831,0.802c-0.874-2.8,1.088-4.624,2.346-6.68c0.117-0.29,0.233-0.582,0.35-0.872
		C30.06,52.575,29.721,52.6,29.381,52.624z"/>
	<path fill-rule="evenodd" clip-rule="evenodd" fill="#3B3B3B" d="M62.111,143.634c1.026-0.072,2.052-0.146,3.079-0.222
		c-0.353,0.879-0.705,1.759-1.058,2.638C63.459,145.246,62.785,144.44,62.111,143.634z"/>
	<g>
		<path fill="#3B3B3B" d="M37.687,107.806c0.542,0.29,0.838,0.419,1.134,0.419c0.444,0,0.608-0.447,0.756-1.299h0.772
			c-0.115,1.17-0.181,2.583-0.181,6.742h-0.772c-0.23-3.075-2.12-6.295-5.718-6.295c-2.152,0-3.697,1.141-3.697,3.017
			c0,2.383,2.054,3.35,5.816,5.573c3.188,1.862,5.685,3.465,5.685,6.669c0,3.898-3.828,5.761-8.346,5.761
			c-2.794,0-4.272-0.563-5.406-1.098c-0.543-0.303-0.888-0.418-1.151-0.418c-0.443,0-0.607,0.447-0.739,1.299h-0.772
			c0.099-1.386,0.131-3.276,0.131-7.983h0.772c0.279,3.941,1.823,7.421,6.128,7.421c2.35,0,4.174-1.097,4.174-3.307
			c0-2.426-2.086-3.825-5.044-5.5c-3.204-1.79-5.998-3.45-5.998-6.742c0-3.724,3.599-5.398,7.542-5.398
			C35.404,106.666,36.635,107.258,37.687,107.806z"/>
		<path fill="#3B3B3B" d="M75.379,107.041v0.592c-0.97,0.332-2.168,1.271-2.941,3.509l-5.932,16.89
			c-0.36-0.014-0.771-0.028-1.182-0.028c-0.411,0-0.789,0.015-1.151,0.028l-4.962-13.151l-4.995,13.151
			c-0.362-0.014-0.772-0.028-1.183-0.028s-0.789,0.015-1.15,0.028l-7.542-18.507c-0.591-1.429-1.479-1.863-2.119-1.892v-0.592
			c1.331,0.058,3.302,0.087,5.011,0.087c1.791,0,3.253-0.029,4.141-0.087v0.592c-0.871,0.101-1.184,0.534-1.184,1.155
			c0,0.39,0.115,0.836,0.313,1.328l4.879,12.502l3.434-8.792l-1.741-4.604c-0.46-1.228-1.117-1.546-1.824-1.589v-0.592
			c1.232,0.058,3.073,0.087,4.798,0.087c1.972,0,3.779-0.029,4.847-0.087v0.592c-1.512,0.058-2.3,0.201-2.3,1.098
			c0,0.346,0.116,0.794,0.345,1.386l4.618,12.372l3.203-8.95c0.51-1.444,0.757-2.57,0.757-3.437c0-1.775-1.036-2.426-2.892-2.469
			v-0.592c1.511,0.058,2.793,0.087,4.189,0.087C73.802,107.128,74.706,107.099,75.379,107.041z"/>
		<path fill="#3B3B3B" d="M86.716,107.633c-2.152,0.087-2.529,0.39-2.529,2.54v14.669c0,2.15,0.394,2.453,2.529,2.541v0.591
			c-1.216-0.058-3.22-0.086-5.094-0.086c-2.151,0-4.173,0.028-5.307,0.086v-0.591c2.137-0.088,2.514-0.391,2.514-2.541v-14.669
			c0-2.15-0.394-2.453-2.514-2.54v-0.592c1.134,0.058,3.155,0.087,5.307,0.087c1.874,0,3.878-0.029,5.094-0.087V107.633z"/>
		<path fill="#3B3B3B" d="M106.729,111.531c0,0.881,0.033,1.703,0.099,2.252h-0.771c-0.888-4.591-2.646-6.063-5.784-6.063h-1.117
			c-1.955,0-2.316,0.26-2.316,2.108v7.448h1.183c2.694,0,3.648-2.31,3.993-3.912h0.788c-0.099,1.299-0.131,2.18-0.131,2.873
			c0,0.505,0.017,0.924,0.017,1.328c0,0.982,0.032,1.949,0.213,4.201h-0.771c-0.362-2.064-1.414-3.897-4.108-3.897h-1.183v6.799
			c0,2.31,0.607,2.627,3.599,2.656v0.649c-1.381-0.043-3.73-0.086-6.13-0.086c-1.938,0-3.877,0.043-5.34,0.086v-0.591
			c2.136-0.088,2.515-0.391,2.515-2.541v-14.669c0-2.15-0.395-2.453-2.515-2.54v-0.592c3.664,0.087,8.708,0.087,10.96,0.087
			c2.054,0,4.962,0,7.032-0.087C106.794,108.831,106.729,110.65,106.729,111.531z"/>
		<path fill="#3B3B3B" d="M129.141,112.064c0,0.881,0.032,1.703,0.098,2.253h-0.771c-1.134-4.98-2.908-6.598-6.047-6.598h-0.738
			v16.876c0,2.411,0.607,2.758,3.598,2.787v0.591c-1.43-0.043-3.928-0.086-6.408-0.086c-2.481,0-4.814,0.043-6.146,0.086v-0.591
			c2.991-0.029,3.6-0.376,3.6-2.787V107.72h-0.74c-3.171,0-4.912,1.602-6.063,6.598h-0.772c0.065-0.55,0.099-1.372,0.099-2.253
			c0-0.98-0.066-3.017-0.23-5.023c3.039,0.087,7.394,0.087,10.4,0.087s7.328,0,10.368-0.087
			C129.206,109.048,129.141,111.084,129.141,112.064z"/>
	</g>
	<g>
		<path fill="#3B3B3B" d="M34.646,133.796c0.122,0.105,0.235,0.161,0.332,0.161c0.226,0,0.348-0.315,0.412-1.002h0.381
			c-0.049,0.849-0.065,1.989-0.065,4.011h-0.38c-0.154-1.326-0.388-2.306-1.246-3c-0.542-0.519-1.383-0.816-2.167-0.816
			c-2.418,0-3.429,2.782-3.429,5.693c0,3.979,1.132,5.741,3.179,5.741c0.525,0,0.921-0.153,1.172-0.324
			c0.308-0.217,0.405-0.46,0.405-0.864v-1.625c0-1.505-0.283-1.739-1.674-1.796v-0.331c0.68,0.04,1.941,0.056,2.831,0.056
			c0.93,0,1.723-0.016,2.224-0.056v0.331c-0.63,0.057-0.751,0.202-0.751,1.424v3.283h-0.331c-0.017-0.38-0.162-0.946-0.486-0.946
			c-0.162,0-0.356,0.048-0.89,0.339c-0.809,0.47-1.723,0.842-2.717,0.842c-3.866,0-5.912-2.216-5.912-5.961
			c0-3.768,2.491-6.234,5.993-6.234C33.029,132.721,33.887,133.213,34.646,133.796z"/>
		<path fill="#3B3B3B" d="M47.825,143.29c0.307,0.794,0.728,1.043,1.043,1.06v0.332c-0.655-0.032-1.61-0.049-2.515-0.049
			c-1.027,0-1.973,0.017-2.523,0.049v-0.332c0.792-0.031,1.165-0.153,1.165-0.606c0-0.194-0.065-0.453-0.195-0.785l-0.995-2.716
			h-3.599l-0.445,1.147c-0.315,0.81-0.453,1.4-0.453,1.837c0,0.873,0.566,1.099,1.472,1.123v0.332
			c-0.752-0.032-1.375-0.049-2.063-0.049c-0.485,0-0.938,0.017-1.27,0.049v-0.332c0.485-0.09,0.971-0.518,1.439-1.738l3.769-9.689
			c0.178,0.017,0.373,0.024,0.575,0.024c0.193,0,0.396-0.008,0.574-0.024L47.825,143.29z M42.042,135.454l-1.714,4.456h3.356
			L42.042,135.454z"/>
		<path fill="#3B3B3B" d="M55.025,133.286c-1.124,0.049-1.342,0.219-1.342,1.424v8.411c0,1.034,0.17,1.181,1.043,1.181h0.809
			c1.528,0,2.693-1.488,3.017-3.695h0.38c-0.033,0.379-0.048,0.889-0.048,1.455c0,0.517,0.015,1.585,0.112,2.62
			c-1.124-0.049-2.677-0.049-3.793-0.049c-1.108,0-3.591,0-5.394,0.049v-0.332c1.051-0.048,1.237-0.218,1.237-1.423v-8.217
			c0-1.205-0.194-1.375-1.237-1.424v-0.331c0.558,0.031,1.552,0.049,2.612,0.049c0.962,0,1.989-0.018,2.604-0.049V133.286z"/>
		<path fill="#3B3B3B" d="M65.971,133.286c-1.125,0.049-1.342,0.219-1.342,1.424v8.411c0,1.034,0.169,1.181,1.043,1.181h0.809
			c1.528,0,2.693-1.488,3.016-3.695h0.381c-0.033,0.379-0.049,0.889-0.049,1.455c0,0.517,0.016,1.585,0.113,2.62
			c-1.124-0.049-2.677-0.049-3.793-0.049c-1.107,0-3.59,0-5.395,0.049v-0.332c1.052-0.048,1.238-0.218,1.238-1.423v-8.217
			c0-1.205-0.194-1.375-1.238-1.424v-0.331c0.559,0.031,1.553,0.049,2.613,0.049c0.961,0,1.989-0.018,2.604-0.049V133.286z"/>
		<path fill="#3B3B3B" d="M83.563,138.722c0,3.704-2.426,6.194-5.862,6.194c-3.511,0-5.848-2.208-5.848-6.001
			c0-3.704,2.418-6.194,5.864-6.194C81.219,132.721,83.563,134.929,83.563,138.722z M74.604,138.851
			c0,3.526,1.414,5.766,3.161,5.766c1.853,0,3.05-2.402,3.05-5.83c0-3.527-1.416-5.767-3.171-5.767
			C75.792,133.02,74.604,135.422,74.604,138.851z"/>
		<path fill="#3B3B3B" d="M89.398,142.83c0,1.293,0.299,1.472,1.771,1.488v0.363c-0.679-0.024-1.835-0.049-3.016-0.049
			c-0.955,0-1.909,0.024-2.629,0.049v-0.332c1.052-0.048,1.237-0.218,1.237-1.423v-8.217c0-1.205-0.194-1.375-1.237-1.424v-0.331
			c0.558,0.031,1.584,0.049,2.515,0.049c1.084,0,2.183-0.032,2.604-0.032c3.081,0,4.585,1.342,4.585,3.267
			c0,1.602-1.042,3.704-4.949,3.704h-0.881V142.83z M89.398,134.71v4.9h0.712c1.956,0,2.369-1.504,2.369-3.194
			c0-2.087-0.551-3.13-2.054-3.13C89.575,133.286,89.398,133.569,89.398,134.71z"/>
		<path fill="#3B3B3B" d="M106.069,144.682c-1.124-0.049-2.677-0.049-3.793-0.049c-1.108,0-3.591,0-5.395,0.049v-0.332
			c1.052-0.048,1.237-0.218,1.237-1.423v-8.217c0-1.205-0.193-1.375-1.237-1.424v-0.331c1.804,0.049,4.286,0.049,5.395,0.049
			c1.011,0,2.442,0,3.461-0.049c-0.08,0.979-0.112,1.974-0.112,2.45c0,0.437,0.016,0.857,0.048,1.124h-0.38
			c-0.331-2.426-1.197-3.194-2.718-3.194h-0.679c-0.962,0-1.141,0.146-1.141,1.18v4.102h0.534c1.326,0,1.795-1.286,1.974-2.184
			h0.379c-0.048,0.703-0.057,1.181-0.057,1.561c0,0.308,0.009,0.55,0.009,0.793c0,0.541,0.017,1.092,0.097,2.353h-0.38
			c-0.17-1.164-0.695-2.191-2.021-2.191h-0.534v4.174c0,1.034,0.179,1.181,1.141,1.181h0.816c1.48,0,2.499-0.857,2.912-3.527h0.38
			c-0.033,0.356-0.049,0.851-0.049,1.392C105.956,142.659,105.972,143.687,106.069,144.682z"/>
		<path fill="#3B3B3B" d="M119.433,143.954c-0.591,0.679-1.229,0.962-2.199,0.962c-1.189,0-1.99-0.412-2.24-1.795l-0.292-1.65
			c-0.242-1.383-0.509-2.354-1.544-2.354h-1.076v3.81c0,1.205,0.194,1.375,1.246,1.423v0.332c-0.599-0.032-1.586-0.049-2.508-0.049
			c-1.059,0-2.054,0.017-2.612,0.049v-0.332c1.053-0.048,1.237-0.218,1.237-1.423v-8.217c0-1.205-0.193-1.375-1.237-1.424v-0.331
			c0.559,0.031,1.585,0.049,2.516,0.049c1.084,0,2.184-0.032,2.604-0.032c3.08,0,4.585,1.059,4.585,2.878
			c0,1.344-0.816,2.872-3.72,3.203h0.008c2.006,0.17,2.888,0.81,3.178,2.184l0.373,1.706c0.186,0.882,0.371,1.189,0.784,1.189
			c0.282,0,0.461-0.129,0.671-0.381L119.433,143.954z M112.081,134.71v4.076h0.712c1.957,0,2.37-1.229,2.37-2.75
			c0-1.739-0.551-2.75-2.054-2.75C112.26,133.286,112.081,133.569,112.081,134.71z"/>
		<path fill="#3B3B3B" d="M127.055,133.384c0.267,0.161,0.412,0.234,0.558,0.234c0.219,0,0.3-0.251,0.372-0.728h0.38
			c-0.057,0.654-0.089,1.447-0.089,3.776h-0.381c-0.111-1.723-1.043-3.526-2.813-3.526c-1.061,0-1.821,0.639-1.821,1.69
			c0,1.335,1.012,1.876,2.863,3.121c1.569,1.044,2.798,1.941,2.798,3.737c0,2.184-1.884,3.227-4.108,3.227
			c-1.375,0-2.103-0.314-2.66-0.614c-0.267-0.17-0.437-0.235-0.566-0.235c-0.218,0-0.299,0.252-0.364,0.729h-0.38
			c0.048-0.776,0.065-1.837,0.065-4.473h0.38c0.138,2.208,0.897,4.157,3.016,4.157c1.157,0,2.055-0.614,2.055-1.853
			c0-1.358-1.027-2.143-2.482-3.081c-1.577-1.003-2.952-1.933-2.952-3.777c0-2.086,1.771-3.023,3.713-3.023
			C125.93,132.745,126.537,133.075,127.055,133.384z"/>
	</g>
</g>
</svg>
