<?xml version="1.0" encoding="utf-8"?>
<!-- Generator: Adobe Illustrator 16.0.0, SVG Export Plug-In . SVG Version: 6.00 Build 0)  -->
<!DOCTYPE svg PUBLIC "-//W3C//DTD SVG 1.1//EN" "http://www.w3.org/Graphics/SVG/1.1/DTD/svg11.dtd">
<svg version="1.1" id="flag-icon-css-in" xmlns="http://www.w3.org/2000/svg" xmlns:xlink="http://www.w3.org/1999/xlink" x="0px"
	 y="0px" width="150px" height="150px" viewBox="0 0 150 150" enable-background="new 0 0 150 150" xml:space="preserve">
<g>
	<defs>
		<rect id="SVGID_1_" y="18.75" width="150" height="112.5"/>
	</defs>
	<clipPath id="SVGID_2_">
		<use xlink:href="#SVGID_1_"  overflow="visible"/>
	</clipPath>
	<g clip-path="url(#SVGID_2_)">
		<rect x="-20.503" y="18.564" fill="#FFBE29" width="225.371" height="112.686"/>
		<rect x="-11.112" y="27.954" fill="#EB7400" width="61.978" height="93.905"/>
		<rect x="-11.112" y="27.954" fill="#00534E" width="30.988" height="93.905"/>
		<rect x="60.255" y="27.954" fill="#8D153A" width="136.162" height="93.905"/>
		<g id="leaf">
			<path fill="#FFBE29" d="M183.477,106.095c0,0,1.277,2.6,2.688,3.658c2.091,1.569,6.375,1.456,8.194,3.287
				c2.18,2.158-0.169,5.011-0.149,5.259l0.119,1.506c0,0-1.469,0.018-2.088,0.114c-0.931,0.145-1.294,0.902-3.025,0.79
				c-4.355-0.283-4.18-4.207-4.426-7.56c-0.22-1.277-0.726-2.941-1.013-4.218C183.529,107.837,183.477,106.095,183.477,106.095
				L183.477,106.095z"/>
			<path d="M189.552,120.971c-0.111,0-0.229-0.004-0.354-0.013c-4.193-0.272-4.409-3.794-4.601-6.901
				c-0.019-0.299-0.036-0.596-0.058-0.889c-0.13-0.747-0.37-1.667-0.602-2.556c-0.148-0.57-0.294-1.128-0.406-1.626
				c-0.249-1.105-0.304-2.812-0.306-2.884l0.475-0.118c0.013,0.025,1.268,2.559,2.613,3.568c0.933,0.701,2.385,1.067,3.788,1.422
				c1.678,0.424,3.412,0.861,4.434,1.89c1.925,1.906,0.575,4.296,0.066,5.195c-0.074,0.133-0.132,0.228-0.149,0.28l0.146,1.712
				l-0.268,0.003c-0.015,0-1.458,0.019-2.053,0.111c-0.3,0.047-0.537,0.167-0.812,0.308
				C191.01,120.706,190.491,120.971,189.552,120.971z M183.792,107.191c0.044,0.544,0.116,1.188,0.229,1.686
				c0.11,0.493,0.255,1.044,0.401,1.608c0.234,0.899,0.478,1.83,0.613,2.622c0.024,0.318,0.043,0.618,0.062,0.919
				c0.196,3.183,0.381,6.189,4.135,6.434c1.025,0.062,1.528-0.188,2.008-0.432c0.287-0.146,0.583-0.298,0.963-0.356
				c0.473-0.074,1.398-0.103,1.855-0.112l-0.098-1.241c-0.01-0.12,0.05-0.225,0.207-0.504c0.5-0.886,1.671-2.957,0.016-4.597
				c-0.925-0.931-2.591-1.352-4.203-1.759c-1.451-0.366-2.952-0.745-3.966-1.506C185.126,109.286,184.305,108.061,183.792,107.191z"
				/>
		</g>
		<g transform="matrix(-1,0,0,1,1585,0)">
			<g id="leaf_1_">
				<path fill="#FFBE29" d="M73.195,106.095c0,0-1.277,2.6-2.688,3.658c-2.09,1.569-6.375,1.456-8.193,3.287
					c-2.18,2.158,0.168,5.011,0.148,5.259l-0.119,1.506c0,0,1.47,0.018,2.088,0.114c0.932,0.145,1.294,0.902,3.026,0.79
					c4.354-0.283,4.179-4.207,4.426-7.56c0.219-1.277,0.725-2.941,1.012-4.218C73.143,107.837,73.195,106.095,73.195,106.095
					L73.195,106.095z"/>
				<path d="M67.12,120.971c-0.939,0-1.457-0.265-1.914-0.497c-0.274-0.14-0.512-0.261-0.813-0.308
					c-0.594-0.093-2.038-0.111-2.053-0.111l-0.268-0.003l0.141-1.772c-0.021-0.002-0.068-0.085-0.145-0.22
					c-0.508-0.899-1.857-3.289,0.069-5.197c1.019-1.026,2.754-1.464,4.432-1.888c1.403-0.354,2.854-0.721,3.787-1.422
					c1.347-1.011,2.601-3.543,2.613-3.568l0.475,0.118c-0.002,0.072-0.057,1.778-0.306,2.884c-0.112,0.497-0.257,1.052-0.404,1.62
					c-0.232,0.892-0.473,1.813-0.605,2.585c-0.019,0.27-0.037,0.568-0.056,0.867c-0.191,3.106-0.408,6.627-4.6,6.899
					C67.35,120.967,67.232,120.971,67.12,120.971z M62.614,119.56c0.457,0.01,1.384,0.038,1.856,0.112
					c0.379,0.059,0.676,0.21,0.963,0.356c0.479,0.243,0.99,0.491,2.008,0.432c3.753-0.244,3.938-3.25,4.134-6.432
					c0.019-0.302,0.037-0.602,0.06-0.897c0.139-0.817,0.382-1.749,0.616-2.65c0.146-0.563,0.29-1.112,0.4-1.604
					c0.112-0.498,0.185-1.142,0.229-1.686c-0.513,0.869-1.334,2.095-2.222,2.762c-1.014,0.761-2.515,1.14-3.966,1.506
					c-1.611,0.407-3.277,0.828-4.2,1.757c-1.657,1.642-0.487,3.714,0.013,4.599c0.157,0.279,0.217,0.384,0.207,0.504L62.614,119.56z
					"/>
			</g>
		</g>
		<g transform="matrix(1,0,0,-1,0,600)">
			<g id="leaf_2_">
				<path fill="#FFBE29" d="M183.477,43.72c0,0,1.277-2.6,2.688-3.659c2.091-1.569,6.375-1.456,8.194-3.286
					c2.18-2.159-0.169-5.012-0.149-5.259l0.119-1.507c0,0-1.469-0.018-2.088-0.113c-0.931-0.146-1.294-0.903-3.025-0.79
					c-4.355,0.282-4.18,4.206-4.426,7.56c-0.22,1.276-0.726,2.941-1.013,4.217C183.529,41.978,183.477,43.72,183.477,43.72
					L183.477,43.72z"/>
				<path d="M183.701,43.83l-0.475-0.118c0.002-0.072,0.057-1.778,0.306-2.885c0.112-0.498,0.257-1.054,0.405-1.623
					c0.232-0.891,0.473-1.811,0.605-2.581c0.019-0.27,0.036-0.566,0.055-0.865c0.191-3.108,0.407-6.63,4.601-6.901
					c1.177-0.084,1.758,0.225,2.27,0.484c0.274,0.14,0.511,0.261,0.812,0.308c0.594,0.092,2.037,0.11,2.052,0.11l0.268,0.003
					l-0.141,1.773c0.017-0.001,0.069,0.084,0.145,0.218c0.508,0.9,1.859,3.29-0.068,5.199c-1.02,1.025-2.754,1.463-4.431,1.887
					c-1.404,0.354-2.855,0.721-3.789,1.422C184.969,41.271,183.714,43.805,183.701,43.83z M189.555,29.344
					c-0.102,0-0.21,0.004-0.323,0.011c-3.754,0.244-3.938,3.25-4.135,6.434c-0.019,0.301-0.037,0.601-0.059,0.896
					c-0.139,0.815-0.382,1.746-0.616,2.646c-0.147,0.563-0.291,1.114-0.401,1.606c-0.112,0.499-0.185,1.143-0.229,1.687
					c0.513-0.869,1.334-2.096,2.222-2.763c1.015-0.761,2.516-1.14,3.967-1.506c1.611-0.407,3.277-0.828,4.2-1.756
					c1.658-1.643,0.486-3.715-0.014-4.6c-0.158-0.278-0.217-0.383-0.207-0.503l0.098-1.242c-0.457-0.01-1.383-0.038-1.855-0.111
					c-0.38-0.06-0.676-0.21-0.962-0.356C190.813,29.569,190.373,29.344,189.555,29.344z"/>
			</g>
		</g>
		<g transform="matrix(-1,0,0,-1,1585,600)">
			<g id="leaf_3_">
				<path fill="#FFBE29" d="M73.195,43.72c0,0-1.277-2.6-2.688-3.659c-2.09-1.569-6.375-1.456-8.193-3.286
					c-2.18-2.159,0.168-5.012,0.148-5.259l-0.119-1.507c0,0,1.47-0.018,2.088-0.113c0.932-0.146,1.294-0.903,3.026-0.79
					c4.354,0.282,4.179,4.206,4.426,7.56c0.219,1.276,0.725,2.941,1.012,4.217C73.143,41.978,73.195,43.72,73.195,43.72
					L73.195,43.72z"/>
				<path d="M72.971,43.83c-0.013-0.025-1.268-2.559-2.613-3.569c-0.933-0.701-2.385-1.067-3.788-1.422
					c-1.678-0.424-3.412-0.861-4.433-1.889c-1.926-1.907-0.575-4.297-0.067-5.197c0.075-0.131,0.132-0.226,0.149-0.279l-0.146-1.712
					l0.268-0.003c0.015,0,1.459-0.019,2.053-0.11c0.3-0.047,0.537-0.168,0.812-0.308c0.512-0.262,1.091-0.568,2.27-0.484
					c4.191,0.271,4.408,3.792,4.6,6.898c0.019,0.3,0.037,0.598,0.059,0.892c0.13,0.748,0.37,1.671,0.603,2.563
					c0.148,0.567,0.292,1.122,0.404,1.618c0.249,1.106,0.304,2.813,0.306,2.885L72.971,43.83z M62.614,30.254l0.098,1.242
					c0.01,0.12-0.049,0.225-0.207,0.503c-0.5,0.885-1.671,2.957-0.015,4.598c0.924,0.93,2.59,1.351,4.201,1.758
					c1.452,0.366,2.953,0.745,3.967,1.506c0.888,0.667,1.709,1.894,2.222,2.763c-0.044-0.544-0.116-1.188-0.229-1.687
					c-0.11-0.49-0.253-1.039-0.399-1.602c-0.235-0.901-0.479-1.834-0.614-2.628c-0.025-0.319-0.044-0.619-0.063-0.921
					c-0.196-3.183-0.381-6.188-4.134-6.432c-1.026-0.063-1.53,0.187-2.009,0.432c-0.287,0.146-0.583,0.297-0.962,0.356
					C63.998,30.216,63.071,30.244,62.614,30.254z"/>
			</g>
		</g>
		<g>
			<g id="lion">
				<path fill="#FFBE29" stroke="#000000" d="M107.497,108.63l0.818-0.473l0.35,0.474c0.467,0.631,1.759,0.624,2.615-0.015
					l0.655-0.488l0.549,0.488c0.721,0.642,2.067,0.643,2.928,0.002c0.602-0.448,0.686-0.457,1.084-0.115
					c0.237,0.203,0.934,0.435,1.547,0.514c1.104,0.144,1.122,0.136,1.768-0.834c0.542-0.812,0.627-1.141,0.497-1.929
					c-0.085-0.521-0.178-1.362-0.205-1.868c-0.049-0.914-0.043-0.92,1.289-1.384c0.735-0.256,1.587-0.6,1.893-0.764
					c0.532-0.285,1.999-2.009,1.999-2.349c0-0.09-0.573-0.228-1.274-0.307c-2.785-0.313-3.257-1.809-1.446-4.587
					c2.953-4.531,4.736-8.944,4.748-11.755c0.005-1.257,0.076-1.679,0.237-1.405c0.66,1.116-0.521,5.799-2.313,9.161l-0.722,1.354
					l0.688-0.158c0.379-0.088,2.604-1.026,4.944-2.086c6.407-2.901,8.607-3.471,12.755-3.296c3.474,0.146,4.953,0.825,7.405,3.397
					c1.3,1.363,2.552,2.338,4.842,3.771c4.878,3.055,5.081,3.318,5.313,6.91c0.234,3.638,0.118,3.836-2.635,4.443
					c-2.352,0.52-3.826,1.616-4.222,3.14c-0.212,0.813,0.233,0.837,1.419,0.075l0.869-0.559l0.387,0.559
					c0.508,0.734,1.588,0.737,2.484,0.007l0.678-0.552l0.692,0.552c1.076,0.856,2.506,0.649,2.91-0.424
					c0.078-0.206,0.285-0.14,0.705,0.225c0.785,0.684,2.801,0.976,3.018,0.439c0.084-0.205-0.074-0.711-0.351-1.125
					c-1.172-1.758-1.539-2.596-1.554-3.553c-0.021-1.331,0.376-1.974,1.889-3.056c1.84-1.314,2.407-3.011,1.01-3.011
					c-0.864,0-1.734-0.763-2.29-2.007c-1.127-2.528-0.906-5.362,0.787-10.077c1.72-4.789,1.911-5.673,1.917-8.876
					c0.006-2.59-0.059-3.037-0.648-4.457c-0.359-0.868-1.091-2.161-1.624-2.873l-0.97-1.294l1.245-1.03
					c3.8-3.148,3.022-8.302-1.553-10.286c-1.399-0.607-1.748-0.661-4.201-0.645c-1.472,0.01-3.715,0.203-4.985,0.431
					c-1.296,0.23-3.488,0.416-4.993,0.422c-2.39,0.01-2.796-0.049-3.717-0.539c-0.96-0.511-1.124-0.754-1.313-1.936
					c-0.039-0.243-0.209-0.484-0.377-0.538c-0.327-0.103-1.836,1.206-2.059,1.786c-0.11,0.286-0.199,0.267-0.521-0.115
					c-0.215-0.253-0.514-0.836-0.665-1.294c-0.381-1.152,0.087-2.016,1.441-2.663l1.051-0.502l-0.62-0.385
					c-1.278-0.794-3.453-0.25-4.239,1.058c-0.223,0.371-0.465,0.675-0.54,0.676c-0.073,0-0.496-0.353-0.938-0.785
					c-1.651-1.613-1.083-4,1.125-4.729c1.177-0.389,2.22-0.093,2.437,0.692c0.33,1.199,1.359-0.377,1.175-1.8
					c-0.122-0.946-0.104-0.979,0.551-0.979c0.91,0,2.848,1.194,3.447,2.126c0.696,1.081,0.646,2.784-0.121,4.053l-0.601,0.997
					l0.786-0.158c1.153-0.231,2.275-0.947,2.842-1.816c0.6-0.919,0.664-2.708,0.133-3.673c-0.515-0.936-0.456-1.084,0.306-0.768
					c1.295,0.537,1.987,1.131,2.507,2.146c0.468,0.915,0.494,1.143,0.24,2.096c-0.156,0.587-0.503,1.36-0.772,1.718
					c-0.418,0.557-0.433,0.649-0.099,0.649c0.62,0,1.917-0.587,2.377-1.077c0.232-0.247,0.571-0.857,0.754-1.354l0.33-0.904
					l0.38,0.689c0.537,0.975,1.582,1.852,2.855,2.397c1.37,0.588,1.94,0.62,1.225,0.071c-0.483-0.37-1.373-2.981-1.104-3.237
					c0.158-0.15,2.019,1.28,4.142,3.187c2.009,1.804,3.271,2.395,5.115,2.395c2.357,0,3.729-2.052,2.67-3.991
					c-0.617-1.132-1.993-1.288-2.798-0.32c-0.37,0.446-0.472,0.8-0.363,1.268c0.133,0.572,0.081,0.648-0.44,0.648
					c-0.685,0-2.035-0.877-4.434-2.877c-3.656-3.053-8.1-5.639-11.309-6.584c-2.059-0.606-6.458-0.842-8.551-0.459
					c-2.266,0.414-4.944,1.71-6.404,3.098c-2.587,2.46-2.628,5.731-0.108,8.712l0.721,0.854l-0.488,0.759
					c-0.711,1.104-0.65,2.589,0.151,3.683c0.353,0.482,0.707,0.876,0.79,0.876c0.082,0,0.172-0.31,0.199-0.688
					c0.071-0.957,0.482-1.599,1.188-1.853c0.635-0.229,1.046-0.12,3.953,1.04c3.06,1.222,8.091,1.305,13.44,0.225
					c2.622-0.53,5.715-0.499,7.075,0.071c2.494,1.045,3.072,3.763,1.238,5.826c-0.793,0.894-1.559,1.257-4.128,1.963
					c-1.956,0.536-2.419,0.572-6.863,0.527c-3.797-0.038-5.162,0.034-6.712,0.358c-1.683,0.352-2.718,0.387-7.66,0.262l-5.716-0.144
					l0.634,0.525c0.349,0.288,0.841,0.643,1.095,0.789c0.431,0.247,0.416,0.28-0.225,0.518c-0.376,0.14-1.212,0.254-1.856,0.254
					h-1.173l-0.157,0.997c-0.088,0.548-0.081,1.188,0.014,1.422c0.14,0.345,0.088,0.395-0.275,0.262
					c-0.247-0.09-0.934-0.266-1.526-0.392c-0.594-0.126-1.391-0.382-1.773-0.569c-0.644-0.315-0.715-0.307-0.952,0.113
					c-0.211,0.374-2.197,1.853-2.488,1.853c-0.048,0-0.108-0.285-0.136-0.634c-0.026-0.348-0.313-1.255-0.637-2.016
					c-0.322-0.76-0.66-1.589-0.749-1.843c-0.135-0.382-0.196-0.401-0.358-0.114c-0.107,0.189-0.265,0.708-0.349,1.151
					c-0.085,0.443-0.384,1.164-0.666,1.601l-0.511,0.795l-0.326-0.68c-0.351-0.729-0.932-1.485-1.143-1.485
					c-0.071,0-0.192,0.233-0.27,0.518c-0.16,0.596-1.539,2.246-1.876,2.246c-0.124,0-0.226-0.466-0.226-1.036
					s-0.109-1.037-0.243-1.037s-0.243,0.147-0.243,0.328c0,0.438-1.178,1.745-1.572,1.745c-0.172,0-0.45,0.155-0.616,0.346
					c-0.434,0.495-0.789,0.426-0.606-0.119c0.085-0.256,0.029-0.852-0.124-1.324c-0.154-0.473-0.317-0.977-0.362-1.118
					c-0.06-0.181-0.481-0.132-1.374,0.154c-1.443,0.463-1.927,0.381-1.185-0.2c0.271-0.214,0.685-0.949,0.917-1.637
					c0.233-0.688,0.577-1.297,0.765-1.354c0.262-0.082,0.248,0.019-0.061,0.437c-0.221,0.299-0.402,0.701-0.403,0.895
					c0,0.193-0.167,0.652-0.369,1.02s-0.329,0.704-0.282,0.748c0.047,0.045,0.596-0.164,1.22-0.463l1.135-0.545l0.006,0.487
					c0.003,0.268,0.139,0.975,0.304,1.569l0.299,1.083l0.773-0.354c0.789-0.363,1.537-1.657,1.537-2.66
					c0-0.496,0.284-0.42,0.4,0.107c0.034,0.154,0.212,0.734,0.396,1.29l0.334,1.009l0.529-0.638c0.291-0.35,0.656-1.037,0.811-1.527
					c0.269-0.85,0.691-1.215,0.691-0.598c0,0.445,1.213,2.04,1.447,1.903c0.113-0.066,0.339-0.665,0.501-1.33
					c0.338-1.385,0.882-2.326,1.228-2.123c0.13,0.076,0.181,0.224,0.112,0.328c-0.067,0.104,0.212,1.004,0.621,2
					c0.41,0.995,0.821,1.997,0.915,2.227c0.149,0.368,0.285,0.315,1.163-0.461c0.547-0.483,1.043-1.023,1.104-1.201
					c0.09-0.269,0.212-0.259,0.723,0.059c0.715,0.443,3.118,1.158,3.305,0.982c0.069-0.065,0.141-0.696,0.158-1.402l0.032-1.284
					l0.69,0.145c0.381,0.079,1.181,0.073,1.776-0.012l1.085-0.154l-0.967-0.663c-0.531-0.364-1.069-0.837-1.195-1.05
					c-0.134-0.226-0.606-0.417-1.143-0.463c-1.449-0.123-4.017-1.563-4.017-2.253c0-0.129,0.355,0.09,0.79,0.489
					c0.964,0.884,2.305,1.438,3.475,1.438h0.875l-0.542-0.721c-0.311-0.413-0.59-1.198-0.655-1.845
					c-0.104-1.029-0.213-1.193-1.288-1.939c-0.646-0.449-1.445-1.122-1.776-1.495l-0.604-0.68l-0.308,0.807
					c-0.17,0.443-0.377,0.806-0.46,0.806s-0.409-0.259-0.724-0.575c-0.313-0.316-0.634-0.575-0.711-0.573
					c-0.076,0.001-0.354,0.428-0.618,0.948l-0.479,0.945l-0.369-0.546c-0.204-0.299-0.685-0.83-1.068-1.178
					c-0.383-0.349-0.585-0.634-0.448-0.634c0.138,0,0.61,0.363,1.053,0.807l0.803,0.807l0.327-0.591
					c0.194-0.351,0.267-0.89,0.179-1.324c-0.128-0.635-0.11-0.672,0.133-0.274c0.155,0.254,0.625,0.74,1.045,1.08l0.763,0.618
					l0.526-0.964c0.524-0.959,0.528-0.961,0.766-0.389c0.319,0.767,2.626,2.658,4.59,3.763c0.303,0.17,0.175-0.415-0.384-1.762
					c-0.148-0.356-0.27-1-0.27-1.429c0-0.637-0.184-0.92-0.998-1.54c-1.176-0.895-1.556-1.53-1.776-2.974
					c-0.091-0.585-0.296-1.235-0.458-1.445c-0.24-0.312-0.279-0.137-0.216,0.948c0.044,0.731-0.051,1.641-0.211,2.021l-0.29,0.691
					l-0.224-0.576c-0.123-0.316-0.669-0.868-1.212-1.224c-0.544-0.356-0.925-0.708-0.848-0.781s0.636,0.252,1.242,0.722
					c0.923,0.716,1.126,0.794,1.254,0.479c0.15-0.371,0-1.984-0.29-3.111c-0.146-0.563-0.133-0.56,0.563,0.135
					c0.512,0.512,0.795,1.122,1.014,2.188c0.278,1.354,0.42,1.579,1.671,2.678c0.752,0.659,1.406,1.162,1.453,1.117
					c0.048-0.045,0.144-1.752,0.211-3.794c0.131-3.914-0.017-4.846-0.96-6.055l-0.484-0.621l0.763-0.821
					c0.992-1.071,1.448-1.931,1.646-3.102l0.161-0.953l-0.859,0.814c-0.703,0.665-1.04,0.813-1.854,0.813
					c-0.807,0-1.122-0.136-1.666-0.715c-0.652-0.695-1.809-1.364-2.921-1.689c-0.41-0.121-0.547-0.068-0.547,0.209
					c0,0.204-0.227,0.791-0.504,1.307l-0.504,0.936l-1.057-1.044c-0.647-0.64-1.416-1.139-1.988-1.289
					c-1.462-0.385-1.54-0.347-1.54,0.742c0,1.651-0.705,1.959-1.975,0.862c-0.968-0.838-1.77-1.02-3.604-0.817l-1.416,0.156
					l0.254,0.639c0.213,0.534,0.165,0.76-0.291,1.366c-0.739,0.984-1.702,1.41-3.183,1.41c-0.683,0-1.536,0.142-1.897,0.314
					c-0.36,0.172-1.258,0.371-1.993,0.441c-0.736,0.069-1.521,0.195-1.743,0.278c-0.349,0.131-0.387,0.023-0.274-0.769
					c0.172-1.213-0.676-2.108-1.996-2.108c-1.713,0-2.503,1.532-1.832,3.554c0.129,0.39,0.298,1.003,0.375,1.364
					c0.081,0.374,0.853,1.367,1.797,2.313c0.911,0.912,1.772,1.86,1.914,2.108c0.141,0.248,0.608,0.646,1.038,0.883l0.782,0.434
					l-0.104-0.836c-0.113-0.919,0.087-1.063,0.576-0.415c0.175,0.231,0.618,0.606,0.985,0.833c0.58,0.355,0.67,0.363,0.67,0.054
					c0-0.196,0.117-0.648,0.262-1.005l0.263-0.648l0.456,0.882c0.25,0.485,1.064,1.588,1.811,2.45
					c1.445,1.674,2.326,3.545,1.872,3.976c-0.186,0.174-0.684,0.16-1.717-0.047c-0.801-0.161-1.792-0.246-2.201-0.189
					c-0.837,0.116-0.903,0.009-0.389-0.636c0.544-0.681,0.457-0.793-0.61-0.793c-1.235,0-4.301-0.592-5.479-1.058
					c-1.144-0.453-1.407-0.34-1.745,0.745c-0.151,0.488-0.429,1.374-0.616,1.967l-0.342,1.079l1.239-0.119
					c0.681-0.065,1.556-0.215,1.945-0.331c0.39-0.117,0.744-0.179,0.787-0.138s-0.13,0.462-0.386,0.937l-0.465,0.862l0.772-0.157
					c0.425-0.086,1.063-0.299,1.42-0.471c0.619-0.3,0.669-0.278,1.158,0.507c0.601,0.965,1.081,0.925,1.188-0.098
					c0.11-1.059,0.459-0.902,1.113,0.5c0.629,1.348,1.284,1.824,1.41,1.025c0.041-0.266,0.381-0.698,0.753-0.961
					c0.754-0.53,1.322-0.371,1.647,0.463c0.338,0.863-0.415,1.752-2.602,3.078c-4.381,2.655-6.928,6.287-7.654,10.917
					c-0.656,4.176,1.392,8.49,5.501,11.59c1.966,1.482,5.089,3.048,4.891,2.45c-0.843-2.536-0.815-7.376,0.047-8.192
					c0.13-0.122,0.085,0.383-0.099,1.122c-0.685,2.756-0.388,4.951,1.367,10.098c1.588,4.654,1.368,6.644-0.878,7.958
					c-0.722,0.423-1.187,0.492-3.126,0.469c-2.105-0.025-2.334,0.017-3.01,0.555c-0.655,0.522-1.505,2.236-1.505,3.036
					C106.069,109.234,106.551,109.177,107.497,108.63L107.497,108.63z"/>
				<path fill="#FFBE29" stroke="#000000" d="M141.661,108.536l0.883-0.567l0.6,0.567c0.785,0.744,1.704,0.727,2.459-0.045
					c0.329-0.336,0.625-0.569,0.657-0.518c0.032,0.051,0.179,0.301,0.326,0.554c0.187,0.321,0.57,0.482,1.263,0.531
					c0.834,0.059,1.059-0.022,1.39-0.501l0.396-0.571l0.868,0.559c2.38,1.529,3.647-0.075,2.584-3.27
					c-0.54-1.625-0.243-2.538,1.5-4.605c0.734-0.872,1.337-1.803,1.337-2.068c0-0.423-0.136-0.479-1.113-0.461
					c-0.937,0.02-1.21-0.081-1.703-0.623c-0.801-0.883-0.753-1.893,0.143-3.014l0.715-0.896l-1.27-0.861
					c-0.698-0.474-1.957-1.596-2.798-2.491c-1.888-2.014-3.745-2.968-6.193-3.185l-1.641-0.146l0.002,1.242
					c0.004,1.601,0.754,3.139,2.803,5.745c2.33,2.964,2.493,3.423,2.587,7.296l0.08,3.276l-0.674,0.639
					c-0.609,0.578-0.885,0.652-2.851,0.766c-1.871,0.107-2.264,0.204-2.813,0.69c-0.729,0.646-0.947,0.998-1.173,1.891
					c-0.131,0.52-0.078,0.633,0.298,0.633C140.572,109.104,141.176,108.848,141.661,108.536L141.661,108.536z"/>
				<path fill="#FFBE29" stroke="#000000" d="M91.586,100.069c0.208-0.281,0.378-0.736,0.378-1.01c0-0.414,0.186-0.525,1.096-0.654
					l1.095-0.155l-0.73-0.582c-0.867-0.691-0.947-1.231-0.183-1.232c0.762,0,2.052-0.791,2.248-1.377
					c0.091-0.272,0.033-0.636-0.13-0.822c-0.427-0.486-1.23-0.414-1.379,0.126c-0.16,0.581-0.43,0.583-1.038,0.006
					c-0.914-0.866-0.935-2.661-0.042-3.705c0.422-0.493,0.418-0.525-0.119-1.033c-0.577-0.547-0.99-1.63-0.719-1.886
					c0.087-0.082,0.543-0.017,1.014,0.144c0.67,0.229,0.935,0.233,1.21,0.017c0.836-0.657-0.069-1.501-1.41-1.315
					c-0.539,0.075-0.762,0-0.839-0.279c-0.059-0.212-0.53-0.489-1.062-0.624c-0.95-0.239-0.957-0.237-0.957,0.418
					c0,0.717-0.409,0.852-1.188,0.392c-0.632-0.374-1.245-0.084-1.245,0.59c0,0.628,0.632,0.938,1.764,0.864
					c0.868-0.056,0.9,0.59,0.076,1.518l-0.593,0.667l0.469,0.675c0.696,1,0.638,2.659-0.122,3.483l-0.596,0.646l-0.392-0.519
					c-0.543-0.72-1.285-0.672-1.489,0.097c-0.133,0.504-0.023,0.734,0.607,1.268c0.424,0.358,1.042,0.651,1.374,0.651
					c0.822,0,0.79,0.646-0.064,1.3l-0.669,0.511l1.034,0.16c0.568,0.089,1.033,0.255,1.033,0.369c0,0.439,0.716,1.806,0.946,1.806
					C91.098,100.581,91.377,100.352,91.586,100.069L91.586,100.069z"/>
				<path fill="#FFBE29" stroke="#000000" d="M105.044,94.236c0.939-0.37,2.972-2.091,2.972-2.517c0-0.134-0.561-0.751-1.246-1.371
					c-1.443-1.305-3.013-3.504-3.42-4.789c-0.212-0.67-1.236-1.817-4.122-4.616l-3.841-3.725l-1.106,0.28
					c-0.609,0.154-1.352,0.284-1.65,0.288c-0.516,0.009-0.507,0.038,0.179,0.568l0.723,0.56l1.014-0.563
					c0.982-0.545,1.018-0.548,1.138-0.109c0.071,0.257-0.081,0.702-0.353,1.029c-0.264,0.317-0.414,0.676-0.334,0.799
					s-0.173,0.378-0.562,0.569c-0.721,0.353-1.222,1.516-0.652,1.516c0.512,0,1.641-1.393,1.511-1.864
					c-0.067-0.241-0.034-0.489,0.071-0.551c0.439-0.258,0.412,0.836-0.034,1.374c-0.264,0.316-0.414,0.677-0.334,0.799
					s-0.173,0.379-0.562,0.569c-0.717,0.351-1.222,1.516-0.658,1.516c0.553,0,1.663-1.331,1.525-1.829
					c-0.071-0.261-0.043-0.524,0.063-0.587c0.296-0.173,0.456,0.689,0.206,1.113c-0.134,0.227-0.133,0.536,0.003,0.781
					c0.246,0.444-0.004,1.298-0.456,1.563c-0.195,0.114-0.063,0.337,0.407,0.692c0.683,0.515,0.696,0.569,0.696,2.842
					c0,1.899,0.076,2.389,0.426,2.72c0.392,0.371,0.425,0.373,0.425,0.017c0-0.389,0.683-0.863,1.24-0.863
					c0.164,0,1.192,0.871,2.285,1.937c1.099,1.072,2.248,1.983,2.574,2.041c0.323,0.058,0.674,0.12,0.779,0.137
					C104.054,94.579,104.547,94.433,105.044,94.236L105.044,94.236z"/>
				<path fill="#FFBE29" stroke="#000000" d="M93.302,85.049c0-0.612-1.263-1.266-2.772-1.436c-1.22-0.137-1.239-0.129-1.239,0.48
					c0,0.505,0.19,0.703,1.032,1.068C91.675,85.752,93.302,85.689,93.302,85.049L93.302,85.049z"/>
				<path fill="#FFBE29" stroke="#000000" d="M94.687,84.992c0.616-0.559,0.907-1.224,0.537-1.224c-0.427,0-1.558,1.016-1.558,1.397
					C93.666,85.763,93.876,85.728,94.687,84.992L94.687,84.992z"/>
				<path fill="#FFBE29" stroke="#000000" d="M93.373,83.183c0.053-0.347-0.161-0.576-0.802-0.866
					c-1.381-0.624-3.033-0.912-3.431-0.601c-0.732,0.576-0.244,1.35,0.939,1.489c0.478,0.056,1.123,0.2,1.437,0.322
					C92.427,83.881,93.292,83.72,93.373,83.183z"/>
				<path fill="#FFBE29" stroke="#000000" d="M93.373,81.332c0.075-0.493-0.24-0.669-2.813-1.575
					c-1.92-0.675-2.771-0.356-2.157,0.81c0.214,0.405,0.573,0.592,1.377,0.712c0.599,0.089,1.418,0.265,1.818,0.39
					C92.671,82,93.29,81.884,93.373,81.332L93.373,81.332z"/>
				<path fill="#FFBE29" stroke="#000000" d="M94.662,79.599c0.388-0.394,0.705-0.857,0.705-1.032c0-0.563-1.532,0.435-1.728,1.126
					C93.405,80.522,93.784,80.487,94.662,79.599L94.662,79.599z"/>
				<path fill="#FFBE29" stroke="#000000" d="M93.373,79.481c0.085-0.561-0.849-1.067-2.684-1.457
					c-1.347-0.286-1.941-0.124-1.841,0.502c0.056,0.342,0.504,0.592,1.776,0.988C92.661,80.15,93.273,80.143,93.373,79.481
					L93.373,79.481z"/>
				<path fill="#FFBE29" stroke="#000000" d="M95.169,76.869c2.353-1.047,2.556-3.688,0.338-4.381
					c-0.921-0.287-1.51-0.132-1.862,0.491c-0.27,0.478-0.089,1.347,0.28,1.347c0.125,0,0.227,0.16,0.227,0.357
					c0,0.916-3.591,1.332-5.064,0.585c-0.517-0.262-0.742-0.942-0.312-0.942c0.322,0,0.545-0.694,0.38-1.185
					c-0.225-0.668-0.897-0.899-1.875-0.645c-2.205,0.577-2.143,3.167,0.102,4.267C89.223,77.666,93.259,77.721,95.169,76.869
					L95.169,76.869z"/>
				<path fill="#FFBE29" stroke="#000000" d="M93.706,74.84c0.136-0.129,0.077-0.328-0.151-0.507
					c-0.5-0.393-0.474-0.978,0.075-1.647c0.412-0.502,0.463-1.255,0.604-8.841c0.245-13.073,1.217-22.907,2.498-25.266
					c0.51-0.939,0.439-0.943-0.879-0.046c-1.698,1.155-2.992,2.659-4.138,4.813c-2.162,4.066-2.914,9.536-2.914,21.215
					c0,6.63,0.046,7.498,0.423,8.121c0.359,0.592,0.378,0.812,0.126,1.443c-0.163,0.41-0.237,0.802-0.164,0.871
					C89.669,75.453,93.187,75.333,93.706,74.84L93.706,74.84z"/>
				<path fill="#FFBE29" stroke="#000000" d="M113.469,62.373c0.074-0.113-0.089-0.684-0.361-1.268
					c-0.425-0.91-0.597-1.061-1.202-1.061c-1.897,0-4.947-0.849-8.091-2.25c-1.816-0.809-2.443-0.995-2.661-0.789
					c-0.556,0.526,0.368,1.775,1.798,2.432c1.269,0.582,4.814,1.298,6.433,1.298c0.938,0,0.96,0.042,0.426,0.814l-0.393,0.567
					l1.062,0.027c0.584,0.015,1.39,0.106,1.791,0.203C113.313,62.599,113.322,62.599,113.469,62.373L113.469,62.373z"/>
				<path stroke="#000000" d="M124.552,68.265c0-0.338-0.992-1.254-1.998-1.845c-0.79-0.463-0.92-0.478-0.922-0.099
					c-0.002,0.573-0.513,2.015-0.713,2.015c-0.113,0-0.281-0.282-0.372-0.626s-0.474-1.022-0.85-1.508l-0.686-0.882l-0.533,0.817
					c-0.497,0.762-1.357,1.508-1.74,1.508c-0.091,0-0.109-0.401-0.039-0.892c0.075-0.533,0.017-0.955-0.146-1.05
					c-0.148-0.088-0.271-0.058-0.271,0.067c0,0.287-1.196,1.644-1.449,1.644c-0.104,0-0.25-0.389-0.324-0.864
					c-0.074-0.475-0.2-1.227-0.28-1.669c-0.08-0.444,0.091-0.143,0.379,0.667l0.523,1.475l0.574-0.898
					c0.315-0.494,0.575-1.034,0.575-1.2c0-0.165,0.107-0.239,0.237-0.162c0.13,0.075,0.312,0.669,0.402,1.319l0.166,1.182
					l0.631-0.692c0.349-0.381,0.755-0.892,0.905-1.134c0.269-0.433,0.283-0.432,0.816,0.02c0.299,0.254,0.759,0.859,1.021,1.347
					c0.263,0.487,0.513,0.851,0.556,0.807s0.14-0.547,0.214-1.116c0.075-0.57,0.142-1.059,0.148-1.084
					c0.037-0.141,1.903,1.072,2.594,1.687c0.444,0.395,0.865,0.662,0.937,0.595s0.13-0.649,0.13-1.294
					c0-0.999-0.105-1.267-0.717-1.813c-0.701-0.628-0.722-0.631-0.981-0.172c-0.337,0.596-0.733,0.604-0.733,0.016
					c0-0.43-1.327-2.081-1.672-2.081c-0.09,0-0.369,0.363-0.622,0.807c-0.252,0.443-0.522,0.806-0.603,0.805
					c-0.34-0.002-2.211-2.087-2.21-2.464c0-0.3,0.126-0.224,0.454,0.277c0.249,0.38,0.747,0.947,1.106,1.26
					c0.728,0.635,0.991,0.48,1.272-0.742c0.08-0.349,0.219-0.633,0.31-0.633c0.31,0,1.938,1.729,2.168,2.303l0.229,0.576
					l0.174-0.634c0.213-0.774,0.448-0.803,0.789-0.097c0.142,0.296,0.844,0.909,1.559,1.364l1.301,0.827l0.261-0.832
					c0.144-0.457,0.334-0.721,0.423-0.584c0.133,0.203-0.205,1.582-0.46,1.878c-0.039,0.045-0.461-0.201-0.938-0.545l-0.867-0.627
					l-0.003,1.122c-0.003,0.616-0.069,1.354-0.149,1.639C124.971,68.605,124.552,68.762,124.552,68.265L124.552,68.265z"/>
				<path stroke="#000000" d="M118.066,59.324c-1.546-1.29-1.78-1.586-1.746-2.197l0.036-0.651l0.102,0.629
					c0.059,0.367,0.471,0.918,0.989,1.322l0.889,0.694l0.546-0.632c0.3-0.348,0.55-0.761,0.555-0.919
					c0.013-0.414,0.087-0.379,1.134,0.529c0.93,0.807,0.944,0.811,1.082,0.288c0.077-0.292,0.051-0.84-0.061-1.22
					c-0.304-1.042-0.244-1.2,0.217-0.571c0.229,0.313,0.598,0.757,0.819,0.984c0.385,0.396,0.409,0.392,0.552-0.115
					c0.083-0.291,0.152-0.824,0.154-1.185l0.003-0.655l0.839,0.95c0.782,0.889,0.854,0.921,1.094,0.497
					c0.141-0.248,0.258-0.848,0.26-1.331c0.003-0.624,0.068-0.782,0.228-0.544c0.265,0.396,0.081,1.478-0.409,2.398l-0.351,0.661
					l-0.462-0.718c-0.59-0.919-0.786-0.905-1.165,0.087c-0.358,0.938-0.591,1.009-0.939,0.288c-0.226-0.467-0.269-0.409-0.429,0.57
					l-0.178,1.089l-1.066-0.827l-1.067-0.828l-0.479,0.545c-0.264,0.3-0.483,0.675-0.488,0.833
					C118.715,59.641,118.458,59.651,118.066,59.324L118.066,59.324z"/>
				<path stroke="#000000" d="M131.817,54.517c-0.562-0.507-0.949-0.99-0.86-1.075c0.089-0.084,0.188-0.108,0.222-0.054
					c0.034,0.055,0.494,0.539,1.022,1.075C133.419,55.698,133.169,55.732,131.817,54.517z"/>
				<path stroke="#000000" d="M113.501,52.623c-0.512-0.691-0.477-1.15,0.146-1.9c0.45-0.542,0.656-0.616,1.442-0.516
					c0.504,0.063,1.589,0.51,2.412,0.99c0.949,0.555,1.932,0.927,2.692,1.019c0.658,0.081,1.196,0.11,1.196,0.067
					s-0.273-0.489-0.607-0.99c-0.794-1.191-0.768-1.319,0.129-0.605c0.919,0.732,2.019,0.946,4.477,0.872l1.2-0.036l-0.696-0.688
					c-0.975-0.964-0.675-1.05,0.401-0.116c1.009,0.876,0.946,0.938-1.178,1.149c-0.902,0.09-1.873,0.025-2.679-0.18
					c-1.207-0.308-1.254-0.303-1.025,0.102c0.132,0.233,0.345,0.424,0.474,0.424c0.13,0,0.235,0.118,0.235,0.263
					c0,0.444-2.606,0.054-3.853-0.577c-2.846-1.44-3.204-1.565-3.881-1.353c-0.377,0.119-0.754,0.467-0.885,0.815
					c-0.434,1.162,1.215,2.065,1.895,1.038c0.197-0.298,0.151-0.501-0.195-0.864c-0.475-0.496-0.43-0.566,0.211-0.334
					c0.454,0.165,0.516,1.257,0.093,1.656C115.022,53.317,113.918,53.188,113.501,52.623L113.501,52.623z"/>
				<path stroke="#000000" d="M124.71,49.754c-0.356-0.337-0.077-0.42,1.518-0.449c1.974-0.037,3.173-0.366,4.586-1.259
					c1.134-0.716,1.44-0.574,0.365,0.167c-0.98,0.677-2.511,1.197-3.988,1.356c-0.716,0.076-1.53,0.184-1.813,0.237
					C125.097,49.859,124.796,49.836,124.71,49.754L124.71,49.754z"/>
			</g>
		</g>
		<g id="lion_1_">
			<g>
				<path fill="#FFBE29" d="M107.497,108.63l0.818-0.473l0.35,0.474c0.467,0.631,1.759,0.624,2.615-0.015l0.655-0.488l0.549,0.488
					c0.721,0.642,2.067,0.643,2.928,0.002c0.602-0.448,0.686-0.457,1.084-0.115c0.237,0.203,0.934,0.435,1.547,0.514
					c1.104,0.144,1.122,0.136,1.768-0.834c0.542-0.812,0.627-1.141,0.497-1.929c-0.085-0.521-0.178-1.362-0.205-1.868
					c-0.049-0.914-0.043-0.92,1.289-1.384c0.735-0.256,1.587-0.6,1.893-0.764c0.532-0.285,1.999-2.009,1.999-2.349
					c0-0.09-0.573-0.228-1.274-0.307c-2.785-0.313-3.257-1.809-1.446-4.587c2.953-4.531,4.736-8.944,4.748-11.755
					c0.005-1.257,0.076-1.679,0.237-1.405c0.66,1.116-0.521,5.799-2.313,9.161l-0.722,1.354l0.688-0.158
					c0.379-0.088,2.604-1.026,4.944-2.086c6.407-2.901,8.607-3.471,12.755-3.296c3.474,0.146,4.953,0.825,7.405,3.397
					c1.3,1.363,2.552,2.338,4.842,3.771c4.878,3.055,5.081,3.318,5.313,6.91c0.234,3.638,0.118,3.836-2.635,4.443
					c-2.352,0.52-3.826,1.616-4.222,3.14c-0.212,0.813,0.233,0.837,1.419,0.075l0.869-0.559l0.387,0.559
					c0.508,0.734,1.588,0.737,2.484,0.007l0.678-0.552l0.692,0.552c1.076,0.856,2.506,0.649,2.91-0.424
					c0.078-0.206,0.285-0.14,0.705,0.225c0.785,0.684,2.801,0.976,3.018,0.439c0.084-0.205-0.074-0.711-0.351-1.125
					c-1.172-1.758-1.539-2.596-1.554-3.553c-0.021-1.331,0.376-1.974,1.889-3.056c1.84-1.314,2.407-3.011,1.01-3.011
					c-0.864,0-1.734-0.763-2.29-2.007c-1.127-2.528-0.906-5.362,0.787-10.077c1.72-4.789,1.911-5.673,1.917-8.876
					c0.006-2.59-0.059-3.037-0.648-4.457c-0.359-0.868-1.091-2.161-1.624-2.873l-0.97-1.294l1.245-1.03
					c3.8-3.148,3.022-8.302-1.553-10.286c-1.399-0.607-1.748-0.661-4.201-0.645c-1.472,0.01-3.715,0.203-4.985,0.431
					c-1.296,0.23-3.488,0.416-4.993,0.422c-2.39,0.01-2.796-0.049-3.717-0.539c-0.96-0.511-1.124-0.754-1.313-1.936
					c-0.039-0.243-0.209-0.484-0.377-0.538c-0.327-0.103-1.836,1.206-2.059,1.786c-0.11,0.286-0.199,0.267-0.521-0.115
					c-0.215-0.253-0.514-0.836-0.665-1.294c-0.381-1.152,0.087-2.016,1.441-2.663l1.051-0.502l-0.62-0.385
					c-1.278-0.794-3.453-0.25-4.239,1.058c-0.223,0.371-0.465,0.675-0.54,0.676c-0.073,0-0.496-0.353-0.938-0.785
					c-1.651-1.613-1.083-4,1.125-4.729c1.177-0.389,2.22-0.093,2.437,0.692c0.33,1.199,1.359-0.377,1.175-1.8
					c-0.122-0.946-0.104-0.979,0.551-0.979c0.91,0,2.848,1.194,3.447,2.126c0.696,1.081,0.646,2.784-0.121,4.053l-0.601,0.997
					l0.786-0.158c1.153-0.231,2.275-0.947,2.842-1.816c0.6-0.919,0.664-2.708,0.133-3.673c-0.515-0.936-0.456-1.084,0.306-0.768
					c1.295,0.537,1.987,1.131,2.507,2.146c0.468,0.915,0.494,1.143,0.24,2.096c-0.156,0.587-0.503,1.36-0.772,1.718
					c-0.418,0.557-0.433,0.649-0.099,0.649c0.62,0,1.917-0.587,2.377-1.077c0.232-0.247,0.571-0.857,0.754-1.354l0.33-0.904
					l0.38,0.689c0.537,0.975,1.582,1.852,2.855,2.397c1.37,0.588,1.94,0.62,1.225,0.071c-0.483-0.37-1.373-2.981-1.104-3.237
					c0.158-0.15,2.019,1.28,4.142,3.187c2.009,1.804,3.271,2.395,5.115,2.395c2.357,0,3.729-2.052,2.67-3.991
					c-0.617-1.132-1.993-1.288-2.798-0.32c-0.37,0.446-0.472,0.8-0.363,1.268c0.133,0.572,0.081,0.648-0.44,0.648
					c-0.685,0-2.035-0.877-4.434-2.877c-3.656-3.053-8.1-5.639-11.309-6.584c-2.059-0.606-6.458-0.842-8.551-0.459
					c-2.266,0.414-4.944,1.71-6.404,3.098c-2.587,2.46-2.628,5.731-0.108,8.712l0.721,0.854l-0.488,0.759
					c-0.711,1.104-0.65,2.589,0.151,3.683c0.353,0.482,0.707,0.876,0.79,0.876c0.082,0,0.172-0.31,0.199-0.688
					c0.071-0.957,0.482-1.599,1.188-1.853c0.635-0.229,1.046-0.12,3.953,1.04c3.06,1.222,8.091,1.305,13.44,0.225
					c2.622-0.53,5.715-0.499,7.075,0.071c2.494,1.045,3.072,3.763,1.238,5.826c-0.793,0.894-1.559,1.257-4.128,1.963
					c-1.956,0.536-2.419,0.572-6.863,0.527c-3.797-0.038-5.162,0.034-6.712,0.358c-1.683,0.352-2.718,0.387-7.66,0.262l-5.716-0.144
					l0.634,0.525c0.349,0.288,0.841,0.643,1.095,0.789c0.431,0.247,0.416,0.28-0.225,0.518c-0.376,0.14-1.212,0.254-1.856,0.254
					h-1.173l-0.157,0.997c-0.088,0.548-0.081,1.188,0.014,1.422c0.14,0.345,0.088,0.395-0.275,0.262
					c-0.247-0.09-0.934-0.266-1.526-0.392c-0.594-0.126-1.391-0.382-1.773-0.569c-0.644-0.315-0.715-0.307-0.952,0.113
					c-0.211,0.374-2.197,1.853-2.488,1.853c-0.048,0-0.108-0.285-0.136-0.634c-0.026-0.348-0.313-1.255-0.637-2.016
					c-0.322-0.76-0.66-1.589-0.749-1.843c-0.135-0.382-0.196-0.401-0.358-0.114c-0.107,0.189-0.265,0.708-0.349,1.151
					c-0.085,0.443-0.384,1.164-0.666,1.601l-0.511,0.795l-0.326-0.68c-0.351-0.729-0.932-1.485-1.143-1.485
					c-0.071,0-0.192,0.233-0.27,0.518c-0.16,0.596-1.539,2.246-1.876,2.246c-0.124,0-0.226-0.466-0.226-1.036
					s-0.109-1.037-0.243-1.037s-0.243,0.147-0.243,0.328c0,0.438-1.178,1.745-1.572,1.745c-0.172,0-0.45,0.155-0.616,0.346
					c-0.434,0.495-0.789,0.426-0.606-0.119c0.085-0.256,0.029-0.852-0.124-1.324c-0.154-0.473-0.317-0.977-0.362-1.118
					c-0.06-0.181-0.481-0.132-1.374,0.154c-1.443,0.463-1.927,0.381-1.185-0.2c0.271-0.214,0.685-0.949,0.917-1.637
					c0.233-0.688,0.577-1.297,0.765-1.354c0.262-0.082,0.248,0.019-0.061,0.437c-0.221,0.299-0.402,0.701-0.403,0.895
					c0,0.193-0.167,0.652-0.369,1.02s-0.329,0.704-0.282,0.748c0.047,0.045,0.596-0.164,1.22-0.463l1.135-0.545l0.006,0.487
					c0.003,0.268,0.139,0.975,0.304,1.569l0.299,1.083l0.773-0.354c0.789-0.363,1.537-1.657,1.537-2.66
					c0-0.496,0.284-0.42,0.4,0.107c0.034,0.154,0.212,0.734,0.396,1.29l0.334,1.009l0.529-0.638c0.291-0.35,0.656-1.037,0.811-1.527
					c0.269-0.85,0.691-1.215,0.691-0.598c0,0.445,1.213,2.04,1.447,1.903c0.113-0.066,0.339-0.665,0.501-1.33
					c0.338-1.385,0.882-2.326,1.228-2.123c0.13,0.076,0.181,0.224,0.112,0.328c-0.067,0.104,0.212,1.004,0.621,2
					c0.41,0.995,0.821,1.997,0.915,2.227c0.149,0.368,0.285,0.315,1.163-0.461c0.547-0.483,1.043-1.023,1.104-1.201
					c0.09-0.269,0.212-0.259,0.723,0.059c0.715,0.443,3.118,1.158,3.305,0.982c0.069-0.065,0.141-0.696,0.158-1.402l0.032-1.284
					l0.69,0.145c0.381,0.079,1.181,0.073,1.776-0.012l1.085-0.154l-0.967-0.663c-0.531-0.364-1.069-0.837-1.195-1.05
					c-0.134-0.226-0.606-0.417-1.143-0.463c-1.449-0.123-4.017-1.563-4.017-2.253c0-0.129,0.355,0.09,0.79,0.489
					c0.964,0.884,2.305,1.438,3.475,1.438h0.875l-0.542-0.721c-0.311-0.413-0.59-1.198-0.655-1.845
					c-0.104-1.029-0.213-1.193-1.288-1.939c-0.646-0.449-1.445-1.122-1.776-1.495l-0.604-0.68l-0.308,0.807
					c-0.17,0.443-0.377,0.806-0.46,0.806s-0.409-0.259-0.724-0.575c-0.313-0.316-0.634-0.575-0.711-0.573
					c-0.076,0.001-0.354,0.428-0.618,0.948l-0.479,0.945l-0.369-0.546c-0.204-0.299-0.685-0.83-1.068-1.178
					c-0.383-0.349-0.585-0.634-0.448-0.634c0.138,0,0.61,0.363,1.053,0.807l0.803,0.807l0.327-0.591
					c0.194-0.351,0.267-0.89,0.179-1.324c-0.128-0.635-0.11-0.672,0.133-0.274c0.155,0.254,0.625,0.74,1.045,1.08l0.763,0.618
					l0.526-0.964c0.524-0.959,0.528-0.961,0.766-0.389c0.319,0.767,2.626,2.658,4.59,3.763c0.303,0.17,0.175-0.415-0.384-1.762
					c-0.148-0.356-0.27-1-0.27-1.429c0-0.637-0.184-0.92-0.998-1.54c-1.176-0.895-1.556-1.53-1.776-2.974
					c-0.091-0.585-0.296-1.235-0.458-1.445c-0.24-0.312-0.279-0.137-0.216,0.948c0.044,0.731-0.051,1.641-0.211,2.021l-0.29,0.691
					l-0.224-0.576c-0.123-0.316-0.669-0.868-1.212-1.224c-0.544-0.356-0.925-0.708-0.848-0.781s0.636,0.252,1.242,0.722
					c0.923,0.716,1.126,0.794,1.254,0.479c0.15-0.371,0-1.984-0.29-3.111c-0.146-0.563-0.133-0.56,0.563,0.135
					c0.512,0.512,0.795,1.122,1.014,2.188c0.278,1.354,0.42,1.579,1.671,2.678c0.752,0.659,1.406,1.162,1.453,1.117
					c0.048-0.045,0.144-1.752,0.211-3.794c0.131-3.914-0.017-4.846-0.96-6.055l-0.484-0.621l0.763-0.821
					c0.992-1.071,1.448-1.931,1.646-3.102l0.161-0.953l-0.859,0.814c-0.703,0.665-1.04,0.813-1.854,0.813
					c-0.807,0-1.122-0.136-1.666-0.715c-0.652-0.695-1.809-1.364-2.921-1.689c-0.41-0.121-0.547-0.068-0.547,0.209
					c0,0.204-0.227,0.791-0.504,1.307l-0.504,0.936l-1.057-1.044c-0.647-0.64-1.416-1.139-1.988-1.289
					c-1.462-0.385-1.54-0.347-1.54,0.742c0,1.651-0.705,1.959-1.975,0.862c-0.968-0.838-1.77-1.02-3.604-0.817l-1.416,0.156
					l0.254,0.639c0.213,0.534,0.165,0.76-0.291,1.366c-0.739,0.984-1.702,1.41-3.183,1.41c-0.683,0-1.536,0.142-1.897,0.314
					c-0.36,0.172-1.258,0.371-1.993,0.441c-0.736,0.069-1.521,0.195-1.743,0.278c-0.349,0.131-0.387,0.023-0.274-0.769
					c0.172-1.213-0.676-2.108-1.996-2.108c-1.713,0-2.503,1.532-1.832,3.554c0.129,0.39,0.298,1.003,0.375,1.364
					c0.081,0.374,0.853,1.367,1.797,2.313c0.911,0.912,1.772,1.86,1.914,2.108c0.141,0.248,0.608,0.646,1.038,0.883l0.782,0.434
					l-0.104-0.836c-0.113-0.919,0.087-1.063,0.576-0.415c0.175,0.231,0.618,0.606,0.985,0.833c0.58,0.355,0.67,0.363,0.67,0.054
					c0-0.196,0.117-0.648,0.262-1.005l0.263-0.648l0.456,0.882c0.25,0.485,1.064,1.588,1.811,2.45
					c1.445,1.674,2.326,3.545,1.872,3.976c-0.186,0.174-0.684,0.16-1.717-0.047c-0.801-0.161-1.792-0.246-2.201-0.189
					c-0.837,0.116-0.903,0.009-0.389-0.636c0.544-0.681,0.457-0.793-0.61-0.793c-1.235,0-4.301-0.592-5.479-1.058
					c-1.144-0.453-1.407-0.34-1.745,0.745c-0.151,0.488-0.429,1.374-0.616,1.967l-0.342,1.079l1.239-0.119
					c0.681-0.065,1.556-0.215,1.945-0.331c0.39-0.117,0.744-0.179,0.787-0.138s-0.13,0.462-0.386,0.937l-0.465,0.862l0.772-0.157
					c0.425-0.086,1.063-0.299,1.42-0.471c0.619-0.3,0.669-0.278,1.158,0.507c0.601,0.965,1.081,0.925,1.188-0.098
					c0.11-1.059,0.459-0.902,1.113,0.5c0.629,1.348,1.284,1.824,1.41,1.025c0.041-0.266,0.381-0.698,0.753-0.961
					c0.754-0.53,1.322-0.371,1.647,0.463c0.338,0.863-0.415,1.752-2.602,3.078c-4.381,2.655-6.928,6.287-7.654,10.917
					c-0.656,4.176,1.392,8.49,5.501,11.59c1.966,1.482,5.089,3.048,4.891,2.45c-0.843-2.536-0.815-7.376,0.047-8.192
					c0.13-0.122,0.085,0.383-0.099,1.122c-0.685,2.756-0.388,4.951,1.367,10.098c1.588,4.654,1.368,6.644-0.878,7.958
					c-0.722,0.423-1.187,0.492-3.126,0.469c-2.105-0.025-2.334,0.017-3.01,0.555c-0.655,0.522-1.505,2.236-1.505,3.036
					C106.069,109.234,106.551,109.177,107.497,108.63L107.497,108.63z"/>
				<path d="M153.813,109.351c-0.215,0-0.336-0.098-0.399-0.181c-0.167-0.216-0.108-0.538-0.051-0.762
					c0.423-1.628,1.948-2.776,4.41-3.32c2.57-0.567,2.671-0.589,2.439-4.184c-0.228-3.505-0.373-3.693-5.197-6.714
					c-2.301-1.439-3.58-2.437-4.89-3.81c-2.407-2.525-3.827-3.177-7.235-3.32c-4.021-0.173-6.071,0.299-12.641,3.273
					c-2.104,0.952-4.545,1.998-4.991,2.102l-0.983,0.227c-0.46,0.813-0.962,1.64-1.504,2.471c-0.924,1.418-1.231,2.48-0.912,3.157
					c0.265,0.561,0.997,0.912,2.178,1.045c1.496,0.168,1.496,0.401,1.496,0.555c0,0.5-1.613,2.292-2.131,2.569
					c-0.316,0.17-1.182,0.52-1.929,0.779c-1.16,0.404-1.16,0.404-1.121,1.134c0.026,0.496,0.117,1.321,0.202,1.842
					c0.14,0.851,0.04,1.245-0.536,2.107c-0.477,0.716-0.674,1.013-1.278,1.013c-0.196,0-0.443-0.032-0.729-0.069
					c-0.584-0.075-1.371-0.31-1.677-0.572c-0.109-0.094-0.218-0.18-0.27-0.18c-0.092,0-0.339,0.184-0.503,0.306
					c-0.926,0.688-2.461,0.682-3.243-0.016l-0.396-0.353l-0.492,0.366c-0.454,0.339-1.043,0.533-1.615,0.533
					c-0.59,0-1.082-0.208-1.351-0.57l-0.217-0.294l-0.626,0.362c-0.58,0.335-0.983,0.49-1.271,0.49l0,0
					c-0.327,0-0.53-0.206-0.53-0.537c0-0.878,0.882-2.659,1.599-3.231c0.767-0.61,1.073-0.63,3.169-0.609
					c1.931,0.026,2.346-0.053,2.997-0.435c2.134-1.249,2.32-3.11,0.768-7.661c-0.362-1.062-0.662-1.997-0.905-2.839
					c-0.053,0.056-0.143,0.111-0.293,0.111c-0.684,0-3.259-1.377-4.922-2.632c-4.174-3.148-6.267-7.57-5.598-11.828
					c0.734-4.68,3.35-8.411,7.771-11.092c2.03-1.231,2.777-2.061,2.499-2.773c-0.238-0.61-0.531-0.61-0.628-0.61
					c-0.181,0-0.396,0.088-0.644,0.261c-0.366,0.259-0.625,0.638-0.649,0.795c-0.086,0.542-0.396,0.601-0.525,0.601
					c-0.549,0-1.087-0.977-1.358-1.559c-0.297-0.636-0.474-0.888-0.563-0.987c-0.023,0.07-0.053,0.195-0.074,0.408
					c-0.089,0.842-0.419,1.019-0.681,1.019c-0.311,0-0.628-0.267-0.969-0.815c-0.166-0.266-0.354-0.567-0.44-0.567
					c-0.08,0-0.263,0.089-0.396,0.153c-0.378,0.183-1.041,0.402-1.479,0.491l-1.296,0.264l0.719-1.332
					c0.116-0.218,0.204-0.4,0.264-0.538c-0.107,0.022-0.236,0.056-0.373,0.097c-0.406,0.121-1.301,0.274-1.994,0.341l-1.615,0.155
					l0.456-1.439c0.188-0.593,0.465-1.478,0.615-1.966c0.192-0.617,0.418-1.171,1.057-1.171c0.244,0,0.54,0.077,1.02,0.268
					c1.155,0.457,4.176,1.04,5.387,1.04c0.605,0,1.013,0.021,1.149,0.307c0.128,0.267-0.08,0.562-0.344,0.893
					c-0.097,0.121-0.16,0.208-0.2,0.27c0.096-0.004,0.215-0.018,0.359-0.038c0.437-0.058,1.479,0.03,2.285,0.192
					c0.544,0.109,0.934,0.162,1.19,0.162c0.242,0,0.3-0.047,0.306-0.053c0.234-0.222-0.318-1.81-1.891-3.63
					c-0.758-0.876-1.585-1.997-1.844-2.499l-0.206-0.398l-0.059,0.145c-0.139,0.344-0.243,0.765-0.243,0.911
					c0,0.411-0.223,0.473-0.354,0.473c-0.159,0-0.335-0.092-0.696-0.313c-0.396-0.245-0.859-0.638-1.054-0.896
					c-0.064-0.084-0.116-0.146-0.157-0.19c-0.002,0.092,0.004,0.227,0.028,0.425l0.164,1.323l-1.212-0.672
					c-0.415-0.229-0.953-0.658-1.135-0.979c-0.112-0.197-0.91-1.091-1.873-2.055c-0.822-0.823-1.756-1.937-1.864-2.437
					c-0.075-0.352-0.24-0.952-0.368-1.339c-0.393-1.183-0.317-2.278,0.207-3.004c0.408-0.566,1.069-0.878,1.862-0.878
					c0.744,0,1.381,0.263,1.795,0.738c0.379,0.437,0.538,1.024,0.448,1.655c-0.014,0.097-0.048,0.343-0.054,0.497
					c0.284-0.103,1.135-0.229,1.801-0.291c0.699-0.066,1.574-0.258,1.909-0.418c0.396-0.19,1.277-0.339,2.005-0.339
					c1.401,0,2.293-0.392,2.982-1.311c0.425-0.564,0.429-0.697,0.259-1.123l-0.375-0.944l1.742-0.191
					c0.47-0.052,0.861-0.077,1.197-0.077c1.091,0,1.795,0.258,2.599,0.953c0.56,0.484,0.888,0.586,1.064,0.585
					c0.432,0,0.496-0.788,0.496-1.258c0-0.624,0-1.214,0.689-1.214c0.247,0,0.572,0.074,1.164,0.229
					c0.614,0.162,1.419,0.681,2.101,1.354l0.819,0.81l0.346-0.642c0.289-0.538,0.474-1.063,0.474-1.188
					c0-0.482,0.362-0.521,0.474-0.521c0.104,0,0.229,0.023,0.394,0.071c1.158,0.339,2.349,1.029,3.033,1.759
					c0.496,0.528,0.746,0.636,1.483,0.636c0.744,0,1.027-0.125,1.683-0.745l1.402-1.329l-0.286,1.691
					c-0.206,1.219-0.686,2.124-1.709,3.229l-0.618,0.665l0.354,0.454c0.984,1.261,1.146,2.249,1.013,6.217
					c-0.126,3.813-0.213,3.896-0.29,3.968l-0.072,0.067L133,60.429c-0.046,0-0.139,0-0.549-0.306
					c0.094,0.208,0.134,0.438,0.134,0.726c0,0.396,0.114,1.007,0.25,1.333c0.649,1.565,0.61,1.831,0.499,1.997l-0.074,0.111
					l-0.186,0.027c-0.067,0-0.136-0.02-0.208-0.061c-0.386-0.217-0.802-0.476-1.222-0.757c0.153,0.272,0.21,0.593,0.262,1.096
					c0.061,0.602,0.321,1.341,0.606,1.72l0.843,1.121h-0.827c0.238,0.093,0.445,0.225,0.554,0.399l6.069,0.152
					c1.847,0.047,2.954,0.065,3.82,0.065c1.917,0,2.716-0.099,3.783-0.322c1.624-0.34,3.012-0.401,6.766-0.363
					c4.365,0.047,4.82,0.022,6.794-0.519c2.508-0.688,3.257-1.042,4.008-1.888c0.833-0.938,1.175-2.074,0.937-3.118
					c-0.232-1.025-0.974-1.846-2.085-2.312c-0.651-0.273-1.798-0.43-3.146-0.43c-1.25,0-2.593,0.133-3.782,0.373
					c-2.462,0.497-4.938,0.76-7.162,0.76c-2.567,0-4.787-0.345-6.421-0.997c-2.105-0.84-2.885-1.12-3.353-1.12
					c-0.14,0-0.258,0.023-0.423,0.083c-0.766,0.275-0.979,1.042-1.023,1.636c-0.066,0.92-0.354,0.92-0.448,0.92
					c-0.083,0-0.276,0-0.992-0.979c-0.863-1.179-0.928-2.772-0.159-3.966l0.388-0.603l-0.602-0.713
					c-2.621-3.101-2.573-6.485,0.128-9.055c1.485-1.412,4.232-2.742,6.531-3.162c0.68-0.124,1.619-0.189,2.719-0.189
					c2.228,0,4.617,0.263,5.947,0.654c3.243,0.956,7.718,3.559,11.398,6.632c1.451,1.211,3.473,2.819,4.273,2.819
					c0.205,0,0.265-0.015,0.283-0.023c-0.048,0.021-0.03-0.076-0.086-0.318c-0.127-0.547-0.007-0.977,0.414-1.483
					c0.391-0.47,0.917-0.729,1.484-0.729c0.709,0,1.354,0.407,1.726,1.088c0.52,0.953,0.525,1.994,0.014,2.856
					c-0.56,0.942-1.645,1.505-2.903,1.505c-1.902,0-3.235-0.62-5.282-2.459c-1.902-1.708-3.305-2.78-3.803-3.063
					c0.062,0.571,0.72,2.45,1.084,2.729c0.232,0.178,0.474,0.389,0.393,0.629c-0.021,0.063-0.099,0.211-0.346,0.211
					c-0.328,0-1.009-0.263-1.522-0.483c-1.327-0.568-2.411-1.482-2.976-2.506l-0.115-0.208l-0.142,0.388
					c-0.196,0.536-0.551,1.168-0.807,1.439c-0.506,0.54-1.869,1.156-2.559,1.156c-0.114,0-0.351,0-0.45-0.198
					c-0.11-0.222,0.052-0.456,0.349-0.852c0.249-0.329,0.583-1.076,0.731-1.632c0.237-0.894,0.219-1.055-0.222-1.917
					c-0.493-0.965-1.139-1.515-2.38-2.03c-0.105-0.043-0.186-0.073-0.246-0.093c0.042,0.102,0.118,0.261,0.255,0.51
					c0.58,1.053,0.513,2.927-0.143,3.93c-0.602,0.924-1.78,1.68-3.002,1.925l-1.342,0.271l0.894-1.483
					c0.72-1.19,0.771-2.784,0.125-3.788c-0.557-0.865-2.402-2.012-3.237-2.012c-0.111,0-0.319,0-0.366,0.024
					c-0.016,0.057,0.03,0.412,0.063,0.672c0.116,0.897-0.206,1.818-0.567,2.23c-0.201,0.229-0.388,0.276-0.509,0.276
					c-0.191,0-0.449-0.105-0.588-0.608c-0.17-0.618-1.104-0.854-2.117-0.521c-0.974,0.321-1.647,1.002-1.848,1.866
					c-0.197,0.854,0.101,1.744,0.819,2.446c0.317,0.31,0.592,0.547,0.74,0.66c0.081-0.095,0.208-0.266,0.349-0.501
					c0.558-0.927,1.776-1.549,3.034-1.549c0.586,0,1.122,0.141,1.552,0.408l1.009,0.625l-1.464,0.699
					c-1.249,0.597-1.653,1.324-1.312,2.359c0.142,0.428,0.425,0.982,0.618,1.21c0.05,0.059,0.089,0.103,0.12,0.136
					c0.29-0.626,1.699-1.9,2.228-1.9l0.117,0.018c0.259,0.083,0.494,0.399,0.549,0.736c0.176,1.104,0.297,1.284,1.183,1.755
					c0.803,0.427,1.138,0.511,3.182,0.511l0.417-0.001c1.49-0.006,3.665-0.189,4.95-0.418c1.282-0.229,3.538-0.425,5.027-0.435
					l0.616-0.002c1.977,0,2.4,0.109,3.687,0.667c2.281,0.989,3.765,2.792,4.071,4.946c0.302,2.117-0.595,4.218-2.459,5.762
					l-1.062,0.879l0.827,1.103c0.546,0.729,1.289,2.043,1.655,2.928c0.604,1.456,0.673,1.924,0.667,4.554
					c-0.006,3.229-0.204,4.149-1.932,8.96c-1.671,4.651-1.894,7.424-0.794,9.891c0.512,1.146,1.302,1.858,2.062,1.858
					c0.695,0,0.917,0.366,0.987,0.584c0.238,0.746-0.522,1.931-1.852,2.88c-1.454,1.04-1.805,1.6-1.784,2.849
					c0.014,0.902,0.367,1.701,1.512,3.418c0.286,0.429,0.507,1.033,0.374,1.358c-0.08,0.197-0.32,0.433-1.015,0.433
					c-0.729,0-1.818-0.272-2.398-0.778c-0.173-0.149-0.277-0.22-0.337-0.251c-0.279,0.646-0.913,1.043-1.677,1.043
					c-0.553,0-1.119-0.208-1.593-0.586l-0.535-0.426l-0.521,0.425c-0.98,0.799-2.275,0.77-2.849-0.059l-0.249-0.36l-0.666,0.428
					C154.521,109.168,154.105,109.351,153.813,109.351z M141.646,86.532c0.405,0,0.825,0.01,1.267,0.028
					c3.528,0.149,5.086,0.863,7.575,3.475c1.277,1.34,2.532,2.316,4.794,3.731c4.938,3.093,5.192,3.425,5.43,7.105
					c0.242,3.76,0.058,4.067-2.83,4.704c-2.267,0.501-3.661,1.523-4.033,2.958c-0.068,0.261-0.035,0.334-0.035,0.335l0.001-0.019
					c0.103,0,0.38-0.066,1.076-0.514l1.072-0.689l0.523,0.757c0.411,0.593,1.37,0.567,2.121-0.044l0.834-0.68l0.851,0.678
					c0.386,0.307,0.841,0.477,1.281,0.477c0.589,0,1.052-0.297,1.238-0.793c0.067-0.177,0.205-0.277,0.379-0.277
					c0.186,0,0.396,0.116,0.725,0.401c0.465,0.404,1.437,0.655,2.07,0.655c0.384,0,0.538-0.089,0.552-0.121
					c0.03-0.091-0.058-0.489-0.327-0.893c-1.207-1.811-1.58-2.673-1.596-3.688c-0.023-1.426,0.405-2.127,1.993-3.263
					c1.211-0.865,1.808-1.878,1.666-2.32c-0.051-0.157-0.223-0.237-0.511-0.237c-0.975,0-1.916-0.806-2.519-2.155
					c-1.158-2.598-0.939-5.476,0.78-10.264c1.719-4.786,1.896-5.607,1.902-8.791c0.006-2.566-0.053-2.974-0.629-4.361
					c-0.354-0.853-1.068-2.117-1.594-2.819l-1.112-1.484l1.429-1.182c1.727-1.431,2.559-3.365,2.282-5.307
					c-0.281-1.978-1.657-3.639-3.775-4.558c-1.225-0.532-1.594-0.626-3.487-0.626l-0.612,0.002c-1.466,0.01-3.684,0.201-4.943,0.427
					c-1.31,0.232-3.521,0.42-5.036,0.426l-0.419,0.001c-2.018,0-2.497-0.08-3.416-0.569c-1.026-0.546-1.242-0.862-1.442-2.117
					c-0.028-0.176-0.151-0.321-0.206-0.339c-0.246,0.032-1.551,1.122-1.749,1.638c-0.038,0.098-0.138,0.355-0.393,0.355
					c-0.201,0-0.356-0.165-0.554-0.399c-0.234-0.276-0.548-0.882-0.711-1.377c-0.42-1.27,0.108-2.268,1.571-2.967l0.638-0.305
					l-0.231-0.144c-0.351-0.218-0.796-0.333-1.288-0.333c-1.071,0-2.143,0.537-2.605,1.307c-0.476,0.793-0.668,0.796-0.751,0.797
					c0,0,0,0-0.001,0c-0.074,0-0.243-0.004-1.115-0.856c-0.846-0.826-1.194-1.89-0.957-2.916c0.24-1.039,1.034-1.852,2.179-2.229
					c0.367-0.121,0.728-0.183,1.071-0.183c0.86,0,1.506,0.4,1.685,1.046c0.057,0.205,0.116,0.243,0.117,0.244
					c0.002-0.005,0.067-0.036,0.157-0.152c0.268-0.346,0.502-1.091,0.411-1.793c-0.072-0.562-0.112-0.87,0.068-1.076
					c0.163-0.185,0.426-0.185,0.73-0.185c0.994,0,3.011,1.235,3.657,2.24c0.745,1.157,0.695,2.973-0.117,4.317l-0.308,0.511
					l0.229-0.046c1.097-0.22,2.149-0.891,2.683-1.708c0.548-0.841,0.609-2.532,0.123-3.416c-0.318-0.578-0.447-0.893-0.315-1.115
					c0.064-0.107,0.228-0.298,0.936-0.003c1.348,0.559,2.087,1.193,2.634,2.263c0.494,0.967,0.528,1.265,0.259,2.274
					c-0.167,0.627-0.524,1.42-0.814,1.804c-0.071,0.096-0.13,0.176-0.175,0.241c0.595-0.068,1.688-0.582,2.071-0.99
					c0.21-0.223,0.53-0.804,0.702-1.27l0.519-1.421l0.645,1.171c0.512,0.929,1.509,1.763,2.735,2.289
					c0.325,0.14,0.59,0.24,0.797,0.311c-0.479-0.637-1.036-2.298-1.072-2.972c-0.007-0.138-0.002-0.335,0.126-0.457l0.072-0.068
					L158.757,49c0.623,0,3.901,2.928,4.273,3.262c1.965,1.764,3.167,2.33,4.948,2.33c1.08,0,2.005-0.471,2.474-1.261
					c0.419-0.706,0.41-1.566-0.023-2.36c-0.282-0.519-0.764-0.828-1.286-0.828c-0.416,0-0.807,0.194-1.1,0.548
					c-0.32,0.386-0.402,0.661-0.313,1.051c0.074,0.317,0.118,0.574-0.029,0.761c-0.143,0.18-0.381,0.194-0.654,0.194
					c-0.763,0-2.094-0.851-4.594-2.935c-3.633-3.033-8.036-5.599-11.219-6.536c-1.289-0.38-3.622-0.635-5.807-0.635
					c-1.069,0-1.979,0.063-2.629,0.182c-2.214,0.404-4.854,1.68-6.277,3.033c-2.486,2.364-2.521,5.493-0.09,8.369l0.841,0.994
					l-0.589,0.915c-0.657,1.02-0.6,2.386,0.143,3.399c0.203,0.277,0.377,0.485,0.5,0.62c0.016-0.081,0.03-0.183,0.039-0.303
					c0.079-1.064,0.547-1.78,1.352-2.07c0.219-0.078,0.396-0.112,0.593-0.112c0.559,0,1.295,0.261,3.538,1.155
					c1.575,0.629,3.731,0.962,6.235,0.962c2.191,0,4.634-0.26,7.063-0.75c1.222-0.247,2.6-0.383,3.882-0.383
					c1.433,0,2.619,0.166,3.34,0.469c1.246,0.521,2.113,1.492,2.38,2.661c0.273,1.204-0.109,2.502-1.052,3.562
					c-0.83,0.936-1.624,1.317-4.248,2.038c-2.003,0.549-2.494,0.583-6.933,0.536c-3.698-0.035-5.076,0.021-6.658,0.354
					c-1.102,0.229-1.924,0.332-3.885,0.332c-0.871,0-1.981-0.019-3.832-0.065l-4.995-0.126l0.078,0.065
					c0.334,0.275,0.819,0.626,1.061,0.765c0.225,0.129,0.438,0.251,0.418,0.481c-0.004,0.052-0.019,0.098-0.042,0.138l0.048,0.033
					l-0.081,0.012c-0.103,0.118-0.308,0.194-0.605,0.305c-0.407,0.151-1.261,0.27-1.943,0.27h-0.959l-0.124,0.786
					c-0.092,0.573-0.063,1.138-0.002,1.289c0.078,0.192,0.14,0.378,0.034,0.534c-0.053,0.08-0.167,0.225-0.627,0.056
					c-0.231-0.084-0.915-0.259-1.492-0.382c-0.611-0.129-1.433-0.394-1.832-0.589c-0.148-0.073-0.398-0.195-0.485-0.195
					c-0.021,0.012-0.068,0.083-0.139,0.207c-0.204,0.362-2.262,1.979-2.706,1.979c-0.237,0-0.334-0.218-0.385-0.864
					c-0.021-0.285-0.275-1.131-0.618-1.938c-0.307-0.723-0.609-1.467-0.727-1.781c-0.083,0.216-0.188,0.578-0.253,0.925
					c-0.091,0.474-0.406,1.231-0.702,1.689l-0.752,1.171l-0.521-1.083c-0.283-0.59-0.655-1.079-0.854-1.27
					c-0.028,0.063-0.062,0.15-0.091,0.259c-0.148,0.553-1.561,2.431-2.117,2.431c-0.315,0-0.476-0.433-0.476-1.286
					c0-0.192-0.013-0.356-0.031-0.488c-0.232,0.654-1.308,1.774-1.777,1.774c-0.071,0-0.287,0.099-0.428,0.26
					c-0.168,0.191-0.423,0.42-0.688,0.42c-0.131,0-0.248-0.059-0.321-0.161c-0.104-0.145-0.112-0.354-0.022-0.621
					c0.061-0.183,0.021-0.721-0.125-1.168c-0.135-0.414-0.277-0.853-0.34-1.051c-0.156,0.006-0.54,0.074-1.082,0.248
					c-0.643,0.206-1.109,0.311-1.389,0.311c-0.302,0-0.411-0.133-0.449-0.244c-0.089-0.257,0.151-0.489,0.423-0.702
					c0.206-0.162,0.601-0.826,0.834-1.52c0.048-0.141,0.479-1.375,0.929-1.514c0.082-0.025,0.145-0.037,0.201-0.037h0.153
					l0.122,0.16c0.097,0.191-0.035,0.393-0.263,0.701c-0.216,0.292-0.354,0.638-0.354,0.747c0,0.268-0.206,0.787-0.4,1.139
					c-0.055,0.101-0.101,0.19-0.137,0.269c0.186-0.073,0.439-0.182,0.747-0.329l1.488-0.715l0.011,0.88
					c0.002,0.219,0.124,0.891,0.295,1.506l0.221,0.8l0.506-0.232c0.702-0.323,1.392-1.528,1.392-2.433
					c0-0.541,0.294-0.583,0.384-0.583c0.235,0,0.422,0.232,0.511,0.637c0.029,0.131,0.196,0.683,0.39,1.265l0.192,0.581l0.241-0.29
					c0.271-0.325,0.62-0.986,0.765-1.443c0.103-0.325,0.387-1.081,0.803-1.081c0.113,0,0.377,0.055,0.377,0.559
					c0.002,0.254,0.759,1.327,1.108,1.607c0.068-0.161,0.214-0.547,0.347-1.094c0.096-0.391,0.61-2.341,1.371-2.341
					c0.08,0,0.156,0.021,0.227,0.062c0.129,0.076,0.222,0.198,0.253,0.335c0.023,0.099,0.014,0.199-0.026,0.288
					c0.016,0.188,0.226,0.887,0.611,1.826c0.41,0.995,0.821,1.997,0.915,2.227c0.008,0.02,0.015,0.036,0.021,0.048
					c0.159-0.082,0.548-0.427,0.745-0.602c0.61-0.539,0.991-0.993,1.033-1.097c0.148-0.441,0.446-0.472,1.091-0.07
					c0.593,0.367,2.413,0.93,2.985,0.97c0.037-0.196,0.082-0.636,0.096-1.184l0.04-1.585l0.983,0.206
					c0.332,0.068,1.146,0.063,1.69-0.014l0.449-0.064l-0.438-0.3c-0.49-0.336-1.102-0.846-1.269-1.129
					c-0.068-0.114-0.436-0.297-0.949-0.341c-1.367-0.116-4.245-1.561-4.245-2.502v-0.25l0.288-0.037
					c0.184,0,0.493,0.199,0.921,0.593c0.924,0.846,2.19,1.372,3.306,1.372h0.374l-0.241-0.32c-0.338-0.45-0.634-1.278-0.704-1.97
					c-0.094-0.925-0.132-1.031-1.182-1.76c-0.662-0.46-1.479-1.148-1.82-1.534l-0.33-0.371l-0.161,0.421
					c-0.37,0.967-0.597,0.967-0.693,0.967c-0.212,0-0.606-0.353-0.901-0.649c-0.208-0.21-0.382-0.358-0.49-0.439
					c-0.095,0.133-0.254,0.389-0.438,0.752l-0.67,1.324l-0.607-0.898c-0.194-0.284-0.666-0.803-1.029-1.132
					c-0.663-0.604-0.592-0.789-0.554-0.889l0.062-0.16l0.212-0.021c0.326,0,1.023,0.674,1.229,0.88l0.568,0.571l0.166-0.3
					c0.166-0.3,0.229-0.774,0.152-1.153c-0.096-0.473-0.118-0.615-0.019-0.736l0.075-0.092l0.128-0.005
					c0.175,0,0.263,0.143,0.406,0.378c0.127,0.207,0.554,0.664,0.989,1.017l0.53,0.43l0.382-0.701
					c0.382-0.697,0.497-0.908,0.746-0.908c0.245,0,0.339,0.229,0.47,0.544c0.258,0.617,2.252,2.333,4.22,3.489
					c-0.061-0.223-0.192-0.615-0.475-1.297c-0.162-0.389-0.289-1.059-0.289-1.524c0-0.524-0.105-0.737-0.899-1.341
					c-1.223-0.931-1.643-1.634-1.872-3.135c-0.046-0.293-0.116-0.583-0.191-0.821c0.004,0.083,0.009,0.174,0.015,0.271
					c0.046,0.778-0.055,1.715-0.23,2.132l-0.529,1.263l-0.448-1.153c-0.092-0.238-0.573-0.75-1.115-1.105
					c-0.624-0.409-0.95-0.725-0.97-0.938l-0.011-0.121l0.17-0.182l0.134-0.011c0.323,0,1.124,0.601,1.361,0.785
					c0.191,0.147,0.671,0.521,0.858,0.591c0.109-0.375,0.009-1.803-0.29-2.964c-0.085-0.328-0.124-0.479-0.021-0.612l0.075-0.097
					l0.143-0.009c0.17,0,0.288,0.117,0.784,0.613c0.55,0.55,0.853,1.198,1.082,2.315c0.266,1.29,0.384,1.48,1.591,2.54
					c0.478,0.418,0.853,0.721,1.088,0.896c0.043-0.551,0.106-1.741,0.161-3.393c0.129-3.857-0.007-4.739-0.907-5.894l-0.615-0.788
					l0.907-0.978c0.964-1.04,1.393-1.846,1.584-2.974l0.036-0.215l-0.316,0.3c-0.749,0.709-1.147,0.882-2.026,0.882
					c-0.876,0-1.256-0.163-1.849-0.794c-0.618-0.659-1.747-1.31-2.809-1.62c-0.114-0.034-0.185-0.047-0.227-0.05
					c0,0.005,0,0.012,0,0.019c0,0.284-0.269,0.932-0.534,1.425l-0.662,1.229l-1.294-1.278c-0.613-0.605-1.35-1.087-1.876-1.225
					c-0.46-0.121-0.828-0.214-1.037-0.214c-0.142,0-0.189,0-0.189,0.714c0,1.453-0.542,1.758-0.996,1.758
					c-0.386,0.001-0.842-0.23-1.392-0.706c-0.71-0.614-1.305-0.832-2.271-0.832c-0.317,0-0.69,0.023-1.143,0.073l-1.09,0.121
					l0.133,0.333c0.263,0.659,0.149,0.98-0.323,1.609c-0.784,1.044-1.828,1.51-3.383,1.51c-0.642,0-1.461,0.133-1.79,0.29
					c-0.391,0.187-1.304,0.391-2.077,0.465c-0.767,0.072-1.5,0.196-1.68,0.264c-0.33,0.124-0.483,0.026-0.559-0.061
					c-0.146-0.168-0.127-0.439-0.05-0.978c0.069-0.492-0.045-0.927-0.332-1.257c-0.317-0.365-0.82-0.566-1.417-0.566
					c-0.637,0-1.141,0.231-1.457,0.67c-0.429,0.595-0.479,1.525-0.138,2.555c0.133,0.401,0.304,1.025,0.382,1.392
					c0.062,0.28,0.739,1.196,1.729,2.188c0.815,0.816,1.777,1.851,1.954,2.161c0.105,0.185,0.518,0.554,0.942,0.788l0.353,0.195
					l-0.043-0.349c-0.065-0.526-0.034-0.817,0.104-0.974c0.069-0.078,0.163-0.121,0.266-0.121c0.195,0,0.391,0.149,0.654,0.499
					c0.157,0.208,0.577,0.561,0.917,0.771c0.057,0.035,0.187,0.114,0.294,0.172c0.026-0.277,0.154-0.706,0.275-1.004l0.467-1.152
					l0.705,1.364c0.24,0.466,1.054,1.565,1.778,2.401c1.198,1.389,2.565,3.646,1.854,4.321c-0.271,0.254-0.744,0.255-1.938,0.017
					c-0.745-0.149-1.717-0.241-2.118-0.187c-0.202,0.027-0.362,0.043-0.483,0.043c-0.103,0-0.374,0-0.481-0.224
					c-0.118-0.245,0.078-0.522,0.347-0.859c0.147-0.185,0.216-0.29,0.247-0.349c-0.091-0.021-0.28-0.038-0.662-0.038
					c-1.279,0-4.351-0.593-5.57-1.075c-0.412-0.163-0.662-0.232-0.836-0.232c-0.195,0-0.341,0.057-0.579,0.819
					c-0.151,0.488-0.429,1.375-0.616,1.968l-0.228,0.719l0.863-0.083c0.654-0.063,1.523-0.21,1.897-0.321
					c0.258-0.078,0.603-0.161,0.793-0.161c0.065,0,0.161,0.009,0.238,0.082c0.106,0.102,0.217,0.206-0.339,1.235l-0.211,0.393
					l0.249-0.051c0.398-0.08,1.021-0.287,1.361-0.451c0.253-0.122,0.433-0.203,0.614-0.203c0.364,0,0.553,0.303,0.864,0.804
					c0.356,0.572,0.544,0.579,0.545,0.579c0.027-0.008,0.137-0.133,0.183-0.571c0.029-0.272,0.096-0.913,0.532-0.913
					c0.269,0,0.538,0.224,1.057,1.334c0.458,0.981,0.804,1.239,0.895,1.268c-0.001-0.014,0.024-0.063,0.042-0.176
					c0.059-0.38,0.484-0.864,0.855-1.126c0.333-0.234,0.646-0.353,0.932-0.353c0.333,0,0.794,0.161,1.094,0.929
					c0.391,1-0.393,1.98-2.705,3.383c-4.291,2.601-6.827,6.215-7.537,10.742c-0.64,4.072,1.38,8.315,5.404,11.352
					c1.563,1.178,3.684,2.292,4.431,2.496c-0.745-2.522-0.793-7.295,0.185-8.221l0.072-0.068l0.255-0.019l0.095,0.106
					c0.056,0.072,0.173,0.222-0.106,1.345c-0.673,2.709-0.38,4.849,1.361,9.956c1.633,4.784,1.383,6.867-0.988,8.255
					c-0.789,0.463-1.306,0.529-3.255,0.503c-2.103-0.022-2.258,0.029-2.852,0.5c-0.593,0.474-1.41,2.119-1.41,2.841
					c0.137,0.033,0.405-0.017,1.027-0.372l1.037-0.6l0.482,0.653c0.361,0.487,1.554,0.463,2.265-0.066l0.818-0.61l0.701,0.624
					c0.602,0.535,1.883,0.531,2.612-0.012c0.339-0.252,0.562-0.405,0.802-0.405c0.226,0,0.396,0.13,0.595,0.301
					c0.177,0.151,0.803,0.376,1.416,0.455c0.269,0.035,0.501,0.065,0.665,0.065c0.312,0,0.376-0.06,0.862-0.79
					c0.51-0.763,0.578-1.024,0.458-1.749c-0.087-0.535-0.18-1.386-0.208-1.896c-0.057-1.075,0.069-1.15,1.457-1.634
					c0.714-0.248,1.563-0.591,1.856-0.748c0.427-0.229,1.539-1.52,1.811-2.009c-0.174-0.051-0.504-0.122-0.996-0.178
					c-1.383-0.155-2.225-0.589-2.573-1.328c-0.403-0.855-0.094-2.048,0.946-3.644c2.936-4.505,4.695-8.849,4.707-11.619
					c0.006-1.426,0.077-1.734,0.404-1.734c0.118,0,0.219,0.068,0.299,0.203c0.766,1.295-0.629,6.254-2.308,9.405l-0.464,0.87
					l0.154-0.035c0.32-0.075,2.365-0.925,4.896-2.07C135.915,87.22,138.3,86.532,141.646,86.532z M117.75,72.378
					c0.001,0.329,0.037,0.578,0.072,0.719c0.037-0.029,0.08-0.066,0.129-0.111L117.75,72.378z M113.49,70.833
					c0.188,0,0.305,0.055,0.377,0.12c-0.01-0.087-0.016-0.162-0.017-0.22l-0.001-0.095l-0.408,0.195
					C113.458,70.834,113.475,70.833,113.49,70.833z M125.452,60.517c0.005,0.157-0.006,0.318-0.03,0.474
					c0.111-0.151,0.19-0.217,0.251-0.246C125.595,60.668,125.521,60.591,125.452,60.517z M128.205,57.56
					c0.085,0.114,0.151,0.224,0.189,0.322l0.051-0.12c0.02-0.048,0.039-0.107,0.058-0.179
					C128.402,57.608,128.315,57.599,128.205,57.56z"/>
			</g>
			<g>
				<path fill="#FFBE29" d="M141.661,108.536l0.883-0.567l0.6,0.567c0.785,0.744,1.704,0.727,2.459-0.045
					c0.329-0.336,0.625-0.569,0.657-0.518c0.032,0.051,0.179,0.301,0.326,0.554c0.187,0.321,0.57,0.482,1.263,0.531
					c0.834,0.059,1.059-0.022,1.39-0.501l0.396-0.571l0.868,0.559c2.38,1.529,3.647-0.075,2.584-3.27
					c-0.54-1.625-0.243-2.538,1.5-4.605c0.734-0.872,1.337-1.803,1.337-2.068c0-0.423-0.136-0.479-1.113-0.461
					c-0.937,0.02-1.21-0.081-1.703-0.623c-0.801-0.883-0.753-1.893,0.143-3.014l0.715-0.896l-1.27-0.861
					c-0.698-0.474-1.957-1.596-2.798-2.491c-1.888-2.014-3.745-2.968-6.193-3.185l-1.641-0.146l0.002,1.242
					c0.004,1.601,0.754,3.139,2.803,5.745c2.33,2.964,2.493,3.423,2.587,7.296l0.08,3.276l-0.674,0.639
					c-0.609,0.578-0.885,0.652-2.851,0.766c-1.871,0.107-2.264,0.204-2.813,0.69c-0.729,0.646-0.947,0.998-1.173,1.891
					c-0.131,0.52-0.078,0.633,0.298,0.633C140.572,109.104,141.176,108.848,141.661,108.536L141.661,108.536z"/>
				<path d="M152.115,109.379c-0.516,0-1.104-0.21-1.748-0.624l-0.665-0.428l-0.259,0.373c-0.398,0.576-0.691,0.675-1.612,0.607
					c-0.779-0.055-1.23-0.257-1.461-0.654c-0.072-0.124-0.145-0.247-0.202-0.346c-0.093,0.075-0.225,0.193-0.387,0.358
					c-0.837,0.854-1.944,0.873-2.81,0.052l-0.457-0.433l-0.719,0.461c-0.458,0.295-1.131,0.607-1.475,0.607
					c-0.184,0-0.389-0.022-0.517-0.186c-0.149-0.192-0.097-0.469-0.023-0.759c0.238-0.941,0.483-1.337,1.249-2.017
					c0.6-0.529,1.043-0.643,2.965-0.753c1.969-0.113,2.153-0.185,2.693-0.697l0.593-0.563l-0.077-3.165
					c-0.093-3.822-0.234-4.223-2.533-7.147c-2.078-2.644-2.853-4.242-2.856-5.898l-0.002-1.517l1.913,0.17
					c2.519,0.223,4.419,1.199,6.354,3.263c0.835,0.89,2.071,1.991,2.756,2.455l1.493,1.013l-0.884,1.107
					c-0.816,1.022-0.867,1.902-0.152,2.689c0.395,0.434,0.591,0.543,1.32,0.543l0.473-0.005c0.657,0,1.088,0.05,1.088,0.714
					c0,0.452-0.913,1.656-1.396,2.229c-1.694,2.009-1.966,2.825-1.454,4.365c0.526,1.582,0.526,2.854,0,3.585
					C153.041,109.173,152.623,109.379,152.115,109.379z M149.565,107.646l1.072,0.689c1.019,0.655,1.87,0.721,2.279,0.154
					c0.424-0.588,0.399-1.73-0.068-3.135c-0.57-1.717-0.252-2.713,1.546-4.846c0.824-0.979,1.264-1.752,1.278-1.911
					c0-0.118-0.015-0.147-0.017-0.152c-0.023-0.021-0.13-0.058-0.571-0.058l-0.473,0.005c-0.832,0-1.18-0.146-1.69-0.707
					c-0.615-0.678-1.091-1.807,0.132-3.338l0.546-0.684l-1.046-0.71c-0.709-0.481-1.983-1.615-2.84-2.527
					c-1.843-1.966-3.647-2.896-6.033-3.106l-1.368-0.121l0.002,0.969c0.004,1.53,0.749,3.046,2.749,5.591
					c2.372,3.018,2.545,3.504,2.641,7.444l0.083,3.388l-0.755,0.715c-0.69,0.655-1.055,0.721-3.008,0.834
					c-1.908,0.109-2.189,0.209-2.662,0.628c-0.689,0.61-0.884,0.924-1.097,1.765c-0.048,0.189-0.058,0.279-0.058,0.32
					c0.016,0,0.053,0.001,0.113,0.001c0.16,0,0.695-0.201,1.205-0.527l1.047-0.674l0.742,0.702c0.674,0.639,1.462,0.625,2.108-0.038
					c0.588-0.6,0.751-0.6,0.82-0.6h0.139l0.089,0.125c0.032,0.05,0.181,0.303,0.33,0.56c0.094,0.162,0.3,0.354,1.064,0.408
					c0.721,0.051,0.888,0.01,1.166-0.395L149.565,107.646z"/>
			</g>
			<g>
				<path fill="#FFBE29" d="M91.586,100.069c0.208-0.281,0.378-0.736,0.378-1.01c0-0.414,0.186-0.525,1.096-0.654l1.095-0.155
					l-0.73-0.582c-0.867-0.691-0.947-1.231-0.183-1.232c0.762,0,2.052-0.791,2.248-1.377c0.091-0.272,0.033-0.636-0.13-0.822
					c-0.427-0.486-1.23-0.414-1.379,0.126c-0.16,0.581-0.43,0.583-1.038,0.006c-0.914-0.866-0.935-2.661-0.042-3.705
					c0.422-0.493,0.418-0.525-0.119-1.033c-0.577-0.547-0.99-1.63-0.719-1.886c0.087-0.082,0.543-0.017,1.014,0.144
					c0.67,0.229,0.935,0.233,1.21,0.017c0.836-0.657-0.069-1.501-1.41-1.315c-0.539,0.075-0.762,0-0.839-0.279
					c-0.059-0.212-0.53-0.489-1.062-0.624c-0.95-0.239-0.957-0.237-0.957,0.418c0,0.717-0.409,0.852-1.188,0.392
					c-0.632-0.374-1.245-0.084-1.245,0.59c0,0.628,0.632,0.938,1.764,0.864c0.868-0.056,0.9,0.59,0.076,1.518l-0.593,0.667
					l0.469,0.675c0.696,1,0.638,2.659-0.122,3.483l-0.596,0.646l-0.392-0.519c-0.543-0.72-1.285-0.672-1.489,0.097
					c-0.133,0.504-0.023,0.734,0.607,1.268c0.424,0.358,1.042,0.651,1.374,0.651c0.822,0,0.79,0.646-0.064,1.3l-0.669,0.511
					l1.034,0.16c0.568,0.089,1.033,0.255,1.033,0.369c0,0.439,0.716,1.806,0.946,1.806
					C91.098,100.581,91.377,100.352,91.586,100.069L91.586,100.069z"/>
				<path d="M90.965,100.831c-0.447,0-1.097-1.424-1.187-1.952c-0.108-0.058-0.4-0.158-0.832-0.226l-1.613-0.25l1.136-0.866
					c0.487-0.373,0.587-0.666,0.559-0.75c-0.017-0.049-0.131-0.102-0.343-0.102c-0.436,0-1.122-0.361-1.535-0.711
					c-0.628-0.53-0.862-0.859-0.688-1.521c0.133-0.498,0.469-0.794,0.9-0.794c0.362,0,0.738,0.223,1.03,0.61l0.212,0.279
					l0.393-0.426c0.676-0.734,0.725-2.275,0.101-3.172l-0.581-0.836l0.724-0.814c0.512-0.576,0.564-0.91,0.521-1.007
					c-0.027-0.062-0.144-0.098-0.311-0.098l-0.085,0.002c-0.114,0.008-0.224,0.012-0.329,0.012c-1.534,0-1.7-0.787-1.7-1.125
					c0-0.592,0.389-1.005,0.946-1.005c0.222,0,0.455,0.069,0.676,0.2c0.326,0.192,0.512,0.232,0.61,0.232c0.065,0,0.2,0,0.2-0.409
					c0-0.4,0-0.813,0.486-0.813c0.173,0,0.402,0.058,0.782,0.153c0.528,0.134,1.142,0.441,1.241,0.8
					c0.019,0.068,0.034,0.123,0.262,0.123c0.086,0,0.186-0.009,0.302-0.025c0.971-0.131,1.78,0.214,1.975,0.776
					c0.119,0.344-0.018,0.702-0.376,0.983c-0.358,0.282-0.626,0.304-1.445,0.023c-0.336-0.114-0.629-0.165-0.77-0.165
					c-0.074,0.115,0.188,0.978,0.728,1.489c0.599,0.566,0.677,0.747,0.138,1.377c-0.811,0.948-0.799,2.582,0.023,3.361
					c0.354,0.336,0.482,0.363,0.514,0.363c0.001-0.002,0.053-0.042,0.111-0.254c0.106-0.386,0.462-0.635,0.906-0.635
					c0.344,0,0.673,0.149,0.901,0.41c0.221,0.253,0.298,0.711,0.18,1.066c-0.232,0.694-1.604,1.548-2.485,1.548
					c-0.188,0-0.265,0.04-0.276,0.054c-0.009,0.04,0.064,0.295,0.615,0.733l1.184,0.943l-1.669,0.236
					c-0.881,0.125-0.881,0.208-0.881,0.407c0,0.326-0.188,0.835-0.427,1.158C91.74,100.281,91.322,100.831,90.965,100.831z
					 M88.569,98.089l0.454,0.07c1.245,0.194,1.245,0.512,1.245,0.616c0,0.311,0.493,1.289,0.726,1.532
					c0.089-0.056,0.247-0.192,0.391-0.387c0.194-0.263,0.329-0.664,0.329-0.861c0-0.682,0.498-0.787,1.311-0.901l0.521-0.074
					l-0.277-0.221c-0.626-0.499-0.894-0.946-0.772-1.293c0.061-0.175,0.24-0.384,0.746-0.385c0.693,0,1.861-0.759,2.011-1.206
					c0.069-0.207,0.013-0.472-0.081-0.578c-0.132-0.15-0.328-0.24-0.525-0.24c-0.17,0-0.37,0.07-0.424,0.268
					c-0.043,0.153-0.171,0.621-0.594,0.621c-0.231,0-0.488-0.149-0.857-0.5c-1.019-0.965-1.047-2.895-0.061-4.049
					c0.088-0.103,0.233-0.272,0.242-0.326c-0.015-0.054-0.212-0.24-0.343-0.363c-0.479-0.454-0.883-1.278-0.882-1.801
					c0-0.195,0.055-0.347,0.163-0.448c0.099-0.093,0.238-0.104,0.335-0.104c0.229,0,0.577,0.071,0.931,0.192
					c0.583,0.2,0.752,0.233,0.976,0.057c0.129-0.102,0.271-0.258,0.212-0.427c-0.092-0.269-0.665-0.555-1.434-0.444
					c-0.143,0.02-0.265,0.029-0.37,0.029c-0.15,0-0.608,0-0.744-0.49c-0.038-0.085-0.377-0.32-0.882-0.448
					c-0.286-0.072-0.517-0.13-0.637-0.137c-0.009,0.072-0.009,0.203-0.009,0.313c0,0.82-0.489,0.909-0.7,0.909
					c-0.237,0-0.521-0.099-0.864-0.303c-0.447-0.263-0.867-0.086-0.868,0.375c0,0.517,0.652,0.625,1.2,0.625
					c0.095,0,0.193-0.004,0.297-0.01c0.581-0.039,0.797,0.196,0.884,0.389c0.169,0.376-0.04,0.909-0.604,1.544l-0.462,0.52
					l0.356,0.514c0.77,1.104,0.702,2.878-0.144,3.796l-0.799,0.866l-0.571-0.758c-0.194-0.258-0.431-0.411-0.632-0.411
					c-0.265,0-0.375,0.264-0.417,0.422c-0.093,0.352-0.092,0.488,0.527,1.012c0.413,0.35,0.971,0.593,1.213,0.593
					c0.58,0,0.761,0.276,0.816,0.441c0.128,0.379-0.138,0.854-0.729,1.307L88.569,98.089z"/>
			</g>
			<g>
				<path fill="#FFBE29" d="M105.044,94.236c0.939-0.37,2.972-2.091,2.972-2.517c0-0.134-0.561-0.751-1.246-1.371
					c-1.443-1.305-3.013-3.504-3.42-4.789c-0.212-0.67-1.236-1.817-4.122-4.616l-3.841-3.725l-1.106,0.28
					c-0.609,0.154-1.352,0.284-1.65,0.288c-0.516,0.009-0.507,0.038,0.179,0.568l0.723,0.56l1.014-0.563
					c0.982-0.545,1.018-0.548,1.138-0.109c0.071,0.257-0.081,0.702-0.353,1.029c-0.264,0.317-0.414,0.676-0.334,0.799
					s-0.173,0.378-0.562,0.569c-0.721,0.353-1.222,1.516-0.652,1.516c0.512,0,1.641-1.393,1.511-1.864
					c-0.067-0.241-0.034-0.489,0.071-0.551c0.439-0.258,0.412,0.836-0.034,1.374c-0.264,0.316-0.414,0.677-0.334,0.799
					s-0.173,0.379-0.562,0.569c-0.717,0.351-1.222,1.516-0.658,1.516c0.553,0,1.663-1.331,1.525-1.829
					c-0.071-0.261-0.043-0.524,0.063-0.587c0.296-0.173,0.456,0.689,0.206,1.113c-0.134,0.227-0.133,0.536,0.003,0.781
					c0.246,0.444-0.004,1.298-0.456,1.563c-0.195,0.114-0.063,0.337,0.407,0.692c0.683,0.515,0.696,0.569,0.696,2.842
					c0,1.899,0.076,2.389,0.426,2.72c0.392,0.371,0.425,0.373,0.425,0.017c0-0.389,0.683-0.863,1.24-0.863
					c0.164,0,1.192,0.871,2.285,1.937c1.099,1.072,2.248,1.983,2.574,2.041c0.323,0.058,0.674,0.12,0.779,0.137
					C104.054,94.579,104.547,94.433,105.044,94.236L105.044,94.236z"/>
				<path d="M103.971,94.813L103.971,94.813l-0.063-0.005c-0.103-0.016-0.451-0.078-0.774-0.136
					c-0.495-0.087-1.892-1.309-2.712-2.109c-1.136-1.107-1.999-1.811-2.161-1.873c-0.405,0.008-0.939,0.413-0.939,0.621
					c0,0.167,0,0.515-0.313,0.515c-0.157,0-0.277-0.107-0.533-0.35c-0.438-0.415-0.504-1.023-0.504-2.901
					c0-2.192,0-2.192-0.597-2.643c-0.435-0.328-0.606-0.555-0.594-0.783c0.005-0.078,0.038-0.224,0.211-0.324
					c0.338-0.198,0.545-0.898,0.363-1.227c-0.081-0.147-0.126-0.312-0.133-0.475c-0.043,0.063-0.084,0.12-0.122,0.17
					c-0.336,0.44-0.883,0.955-1.323,0.955c-0.241,0-0.424-0.14-0.476-0.365c-0.114-0.491,0.412-1.326,1.024-1.625
					c0.234-0.115,0.369-0.233,0.42-0.296c-0.013-0.04-0.02-0.082-0.021-0.126c-0.259,0.268-0.621,0.569-0.942,0.569
					c-0.244,0-0.428-0.142-0.48-0.368c-0.113-0.49,0.412-1.323,1.023-1.622c0.234-0.115,0.369-0.233,0.42-0.296
					c-0.12-0.374,0.336-0.939,0.393-1.008c0.232-0.28,0.347-0.647,0.304-0.803c-0.007-0.025-0.021-0.077-0.035-0.119
					c-0.142,0.049-0.457,0.224-0.74,0.381l-1.157,0.644l-0.854-0.661c-0.513-0.396-0.704-0.545-0.625-0.784
					c0.074-0.223,0.315-0.227,0.596-0.231c0.277-0.004,1.007-0.132,1.593-0.28l1.242-0.314l3.94,3.821
					c2.941,2.853,3.959,4,4.187,4.721c0.397,1.254,1.932,3.397,3.35,4.679c0.496,0.449,1.328,1.248,1.328,1.557
					c0,0.656-2.292,2.419-3.13,2.749C104.813,94.597,104.202,94.813,103.971,94.813z M98.312,90.197c0.361,0,1.841,1.404,2.46,2.008
					c1.189,1.161,2.225,1.932,2.443,1.974c0.314,0.056,0.645,0.115,0.762,0.134c0.101-0.008,0.494-0.118,0.976-0.309
					c0.894-0.352,2.622-1.858,2.803-2.266c-0.104-0.165-0.532-0.643-1.153-1.204c-1.472-1.331-3.07-3.574-3.49-4.899
					c-0.194-0.614-1.256-1.795-4.058-4.512l-3.166-3.07c0.014,0.043,0.025,0.085,0.036,0.123c0.095,0.341-0.07,0.856-0.401,1.255
					c-0.006,0.008-0.012,0.015-0.018,0.021c0.152,0.007,0.279,0.099,0.352,0.253c0.18,0.383,0.018,1.145-0.334,1.568
					c-0.011,0.014-0.021,0.026-0.031,0.039c0.09,0.013,0.218,0.064,0.317,0.238c0.169,0.296,0.201,0.892-0.023,1.271
					c-0.089,0.151-0.086,0.365,0.007,0.533c0.301,0.544,0.051,1.479-0.478,1.854c0.045,0.057,0.145,0.159,0.36,0.323
					c0.796,0.6,0.796,0.784,0.796,3.041c0,1.89,0.087,2.291,0.348,2.538c0.008,0.008,0.017,0.017,0.027,0.026
					C96.989,90.634,97.727,90.197,98.312,90.197z M95.046,82.37c-0.176,0.168-0.408,0.291-0.501,0.337
					c-0.495,0.242-0.816,0.911-0.757,1.066c0.156-0.025,0.568-0.33,0.913-0.783C94.911,82.715,95.009,82.502,95.046,82.37z
					 M95.008,80.563c-0.17,0.149-0.377,0.259-0.463,0.302c-0.497,0.243-0.816,0.91-0.755,1.064c0.115-0.023,0.482-0.28,0.854-0.762
					C94.842,80.91,94.952,80.704,95.008,80.563z M92.795,78.028c0.06,0.046,0.118,0.092,0.167,0.13l0.592,0.458l0.87-0.483
					c0.627-0.347,0.871-0.464,1.078-0.454l-0.189-0.184l-0.971,0.246C93.794,77.88,93.165,77.995,92.795,78.028z"/>
			</g>
			<g>
				<path fill="#FFBE29" d="M93.302,85.049c0-0.612-1.263-1.266-2.772-1.436c-1.22-0.137-1.239-0.129-1.239,0.48
					c0,0.505,0.19,0.703,1.032,1.068C91.675,85.752,93.302,85.689,93.302,85.049L93.302,85.049z"/>
				<path d="M92.193,85.819c-0.629,0-1.348-0.156-1.971-0.428c-0.834-0.362-1.183-0.622-1.183-1.298c0-0.395,0-0.803,0.656-0.803
					c0.191,0,0.453,0.028,0.861,0.074c1.472,0.165,2.994,0.841,2.994,1.684c0,0.154-0.061,0.439-0.462,0.617
					C92.863,85.767,92.554,85.819,92.193,85.819z M89.696,83.791c-0.12,0-0.152,0.015-0.155,0.017
					c-0.001,0.021-0.001,0.187-0.001,0.286c0,0.339,0.043,0.475,0.882,0.839c0.563,0.246,1.209,0.387,1.771,0.387
					c0.287,0,0.533-0.039,0.693-0.11c0.109-0.048,0.165-0.103,0.165-0.16c0-0.367-0.993-1.012-2.551-1.188
					C90.111,83.818,89.862,83.791,89.696,83.791z"/>
			</g>
			<g>
				<path fill="#FFBE29" d="M94.687,84.992c0.616-0.559,0.907-1.224,0.537-1.224c-0.427,0-1.558,1.016-1.558,1.397
					C93.666,85.763,93.876,85.728,94.687,84.992L94.687,84.992z"/>
				<path d="M93.838,85.832L93.838,85.832c-0.28,0-0.422-0.225-0.422-0.666c0-0.566,1.282-1.647,1.808-1.647
					c0.181,0,0.325,0.093,0.385,0.247c0.164,0.426-0.396,1.088-0.754,1.412C94.315,85.667,94.059,85.832,93.838,85.832z
					 M95.105,84.049c-0.376,0.157-1.16,0.872-1.189,1.121c0,0.051,0.002,0.091,0.005,0.121c0.096-0.057,0.272-0.189,0.598-0.484
					C94.857,84.5,95.038,84.212,95.105,84.049z"/>
			</g>
			<g>
				<path fill="#FFBE29" d="M93.373,83.183c0.053-0.347-0.161-0.576-0.802-0.866c-1.381-0.624-3.033-0.912-3.431-0.601
					c-0.732,0.576-0.244,1.35,0.939,1.489c0.478,0.056,1.123,0.2,1.437,0.322C92.427,83.881,93.292,83.72,93.373,83.183z"/>
				<path d="M92.45,83.966L92.45,83.966c-0.324,0-0.679-0.071-1.024-0.205c-0.291-0.114-0.921-0.255-1.375-0.308
					c-0.774-0.091-1.34-0.447-1.476-0.929c-0.1-0.354,0.05-0.722,0.411-1.005c0.154-0.121,0.396-0.18,0.74-0.18
					c0.771,0,1.956,0.301,2.947,0.749c0.507,0.229,1.039,0.524,0.946,1.132C93.551,83.68,93.103,83.966,92.45,83.966z M89.727,81.84
					c-0.329,0-0.422,0.065-0.432,0.072c-0.139,0.109-0.293,0.281-0.238,0.477c0.064,0.229,0.415,0.493,1.053,0.568
					c0.505,0.059,1.163,0.207,1.498,0.337c0.288,0.112,0.579,0.172,0.843,0.172l0,0c0.289,0,0.64-0.084,0.676-0.32
					c0.019-0.12,0.043-0.284-0.658-0.602C91.55,82.129,90.422,81.84,89.727,81.84z"/>
			</g>
			<g>
				<path fill="#FFBE29" d="M93.373,81.332c0.075-0.493-0.24-0.669-2.813-1.575c-1.92-0.675-2.771-0.356-2.157,0.81
					c0.214,0.405,0.573,0.592,1.377,0.712c0.599,0.089,1.418,0.265,1.818,0.39C92.671,82,93.29,81.884,93.373,81.332L93.373,81.332z
					"/>
				<path d="M92.604,82.104L92.604,82.104c-0.295,0-0.658-0.066-1.079-0.196c-0.387-0.121-1.202-0.296-1.781-0.382
					c-0.748-0.111-1.271-0.292-1.561-0.843c-0.251-0.477-0.293-0.86-0.124-1.14c0.305-0.505,1.19-0.512,2.585-0.022
					c2.552,0.899,3.089,1.115,2.977,1.85C93.579,81.644,93.392,82.104,92.604,82.104z M88.959,79.657
					c-0.245,0-0.417,0.053-0.473,0.145c-0.068,0.114-0.019,0.351,0.139,0.648c0.149,0.283,0.384,0.46,1.192,0.581
					c0.609,0.091,1.442,0.269,1.855,0.398c0.372,0.115,0.686,0.174,0.931,0.174c0.476,0,0.509-0.217,0.522-0.309
					c0.042-0.279-0.212-0.444-2.648-1.303C89.853,79.773,89.328,79.657,88.959,79.657z"/>
			</g>
			<g>
				<path fill="#FFBE29" d="M94.662,79.599c0.388-0.394,0.705-0.857,0.705-1.032c0-0.563-1.532,0.435-1.728,1.126
					C93.405,80.522,93.784,80.487,94.662,79.599L94.662,79.599z"/>
				<path d="M93.715,80.541L93.715,80.541c-0.124,0-0.23-0.052-0.303-0.146c-0.116-0.153-0.12-0.392-0.013-0.771
					c0.184-0.65,1.273-1.474,1.798-1.474c0.251,0,0.42,0.167,0.42,0.416c0,0.331-0.488,0.915-0.777,1.208
					C94.169,80.454,93.886,80.541,93.715,80.541z M95.065,78.681c-0.372,0.134-1.076,0.693-1.186,1.08
					c-0.027,0.099-0.043,0.172-0.051,0.226c0.113-0.068,0.317-0.222,0.655-0.563C94.776,79.126,94.977,78.845,95.065,78.681z"/>
			</g>
			<g>
				<path fill="#FFBE29" d="M93.373,79.481c0.085-0.561-0.849-1.067-2.684-1.457c-1.347-0.286-1.941-0.124-1.841,0.502
					c0.056,0.342,0.504,0.592,1.776,0.988C92.661,80.15,93.273,80.143,93.373,79.481L93.373,79.481z"/>
				<path d="M92.705,80.234L92.705,80.234c-0.43,0-1.074-0.144-2.154-0.481c-1.253-0.39-1.864-0.667-1.949-1.187
					c-0.041-0.257,0.008-0.468,0.146-0.629c0.29-0.341,0.9-0.39,1.994-0.157c2.049,0.435,2.99,1.004,2.879,1.738
					C93.549,79.994,93.241,80.234,92.705,80.234z M89.633,78.138c-0.254,0-0.438,0.045-0.506,0.124
					c-0.038,0.045-0.048,0.12-0.031,0.225c0.044,0.27,0.835,0.55,1.604,0.79c1.016,0.316,1.635,0.458,2.006,0.458
					c0.351,0,0.395-0.115,0.421-0.29c0.044-0.289-0.582-0.771-2.488-1.176C90.229,78.182,89.891,78.138,89.633,78.138z"/>
			</g>
			<g>
				<path fill="#FFBE29" d="M95.169,76.869c2.353-1.047,2.556-3.688,0.338-4.381c-0.921-0.287-1.51-0.132-1.862,0.491
					c-0.27,0.478-0.089,1.347,0.28,1.347c0.125,0,0.227,0.16,0.227,0.357c0,0.916-3.591,1.332-5.064,0.585
					c-0.517-0.262-0.742-0.942-0.312-0.942c0.322,0,0.545-0.694,0.38-1.185c-0.225-0.668-0.897-0.899-1.875-0.645
					c-2.205,0.577-2.143,3.167,0.102,4.267C89.223,77.666,93.259,77.721,95.169,76.869L95.169,76.869z"/>
				<path d="M91.453,77.726L91.453,77.726c-1.676,0-3.239-0.275-4.182-0.737c-1.233-0.604-1.96-1.711-1.849-2.818
					c0.093-0.93,0.764-1.645,1.794-1.915c1.107-0.287,1.91,0.019,2.176,0.807c0.134,0.398,0.064,0.937-0.162,1.252
					c-0.122,0.169-0.283,0.263-0.455,0.263c0.009,0.028,0.127,0.318,0.425,0.47c0.449,0.228,1.186,0.358,2.019,0.358
					c1.557,0,2.683-0.431,2.683-0.721c0-0.069-0.022-0.115-0.032-0.125c-0.146,0.011-0.312-0.096-0.431-0.301
					c-0.196-0.336-0.257-0.967-0.012-1.401c0.411-0.726,1.104-0.936,2.154-0.606c1.024,0.32,1.669,1.072,1.723,2.014
					c0.066,1.143-0.731,2.255-2.033,2.834C94.377,77.497,92.985,77.726,91.453,77.726z M87.992,72.646
					c-0.193,0-0.412,0.032-0.648,0.094c-0.832,0.218-1.351,0.757-1.424,1.48c-0.09,0.897,0.527,1.808,1.572,2.319
					c0.877,0.43,2.357,0.687,3.961,0.687c1.464,0,2.781-0.213,3.614-0.584c1.109-0.494,1.792-1.417,1.737-2.35
					c-0.043-0.735-0.543-1.306-1.372-1.565c-0.802-0.248-1.273-0.149-1.57,0.376c-0.112,0.199-0.129,0.542-0.039,0.798
					c0.045,0.129,0.096,0.172,0.107,0.177h0.001c0.261,0,0.47,0.267,0.47,0.606c0,0.896-1.903,1.221-3.183,1.221
					c-0.923,0-1.72-0.146-2.245-0.413c-0.443-0.225-0.746-0.716-0.661-1.072c0.051-0.211,0.228-0.343,0.463-0.343
					c0.1-0.037,0.267-0.487,0.143-0.854C88.79,72.84,88.479,72.646,87.992,72.646z"/>
			</g>
			<g>
				<path fill="#FFBE29" d="M93.706,74.84c0.136-0.129,0.077-0.328-0.151-0.507c-0.5-0.393-0.474-0.978,0.075-1.647
					c0.412-0.502,0.463-1.255,0.604-8.841c0.245-13.073,1.217-22.907,2.498-25.266c0.51-0.939,0.439-0.943-0.879-0.046
					c-1.698,1.155-2.992,2.659-4.138,4.813c-2.162,4.066-2.914,9.536-2.914,21.215c0,6.63,0.046,7.498,0.423,8.121
					c0.359,0.592,0.378,0.812,0.126,1.443c-0.163,0.41-0.237,0.802-0.164,0.871C89.669,75.453,93.187,75.333,93.706,74.84
					L93.706,74.84z"/>
				<path d="M91.003,75.532C91.002,75.532,91.002,75.532,91.003,75.532c-0.737,0-1.68-0.062-1.988-0.354
					c-0.211-0.2-0.061-0.733,0.104-1.146c0.224-0.56,0.211-0.696-0.107-1.221c-0.412-0.681-0.459-1.529-0.459-8.251
					c0-11.663,0.771-17.245,2.943-21.332c1.155-2.174,2.496-3.731,4.218-4.903c0.857-0.583,1.081-0.709,1.261-0.709h0.142
					l0.118,0.143c0.109,0.185,0.016,0.393-0.281,0.938c-1.256,2.313-2.225,12.185-2.468,25.151
					c-0.145,7.753-0.194,8.426-0.661,8.994c-0.27,0.329-0.398,0.632-0.372,0.874c0.018,0.159,0.103,0.296,0.258,0.419
					c0.199,0.155,0.31,0.335,0.318,0.52c0.007,0.138-0.046,0.267-0.149,0.365C93.454,75.425,91.871,75.532,91.003,75.532z
					 M89.409,74.848c0.171,0.081,0.687,0.185,1.593,0.185c1.279,0,2.342-0.193,2.532-0.373c0,0.001-0.001,0.001-0.001,0.001
					c-0.01,0-0.039-0.057-0.133-0.13c-0.26-0.204-0.414-0.467-0.446-0.758c-0.042-0.385,0.12-0.804,0.482-1.245
					c0.354-0.432,0.41-1.324,0.548-8.688c0.248-13.241,1.217-22.967,2.528-25.38c0.014-0.025,0.034-0.063,0.058-0.106
					c-0.196,0.128-0.421,0.28-0.576,0.387c-1.675,1.139-2.926,2.596-4.058,4.724c-2.13,4.006-2.885,9.526-2.885,21.098
					c0,6.459,0.047,7.43,0.387,7.991c0.401,0.661,0.427,0.957,0.145,1.666C89.467,74.511,89.418,74.74,89.409,74.848z"/>
			</g>
			<g>
				<path fill="#FFBE29" d="M113.469,62.373c0.074-0.113-0.089-0.684-0.361-1.268c-0.425-0.91-0.597-1.061-1.202-1.061
					c-1.897,0-4.947-0.849-8.091-2.25c-1.816-0.809-2.443-0.995-2.661-0.789c-0.556,0.526,0.368,1.775,1.798,2.432
					c1.269,0.582,4.814,1.298,6.433,1.298c0.938,0,0.96,0.042,0.426,0.814l-0.393,0.567l1.062,0.027
					c0.584,0.015,1.39,0.106,1.791,0.203C113.313,62.599,113.322,62.599,113.469,62.373L113.469,62.373z"/>
				<path d="M113.217,62.789L113.217,62.789c-0.174,0-0.419-0.058-1.006-0.198c-0.384-0.093-1.18-0.183-1.738-0.196l-1.524-0.039
					l0.655-0.948c0.071-0.103,0.199-0.286,0.266-0.408c-0.138-0.014-0.361-0.014-0.485-0.014c-1.642,0-5.246-0.729-6.537-1.32
					c-1.112-0.511-1.973-1.374-2.093-2.099c-0.05-0.298,0.029-0.555,0.228-0.742c0.327-0.311,0.794-0.21,2.935,0.742
					c3.13,1.396,6.117,2.229,7.989,2.229c0.753,0,0.993,0.271,1.429,1.205c0.167,0.357,0.534,1.22,0.344,1.51
					C113.602,62.627,113.496,62.789,113.217,62.789z M109.886,61.879l0.6,0.016c0.598,0.015,1.424,0.109,1.843,0.21
					c0.462,0.111,0.767,0.185,0.889,0.185c0.017,0,0.012-0.007,0.042-0.052c-0.013-0.033-0.11-0.452-0.378-1.026
					c-0.413-0.885-0.523-0.916-0.976-0.916c-1.939,0-5.002-0.85-8.192-2.271c-0.985-0.438-1.948-0.845-2.314-0.845
					c-0.057,0-0.075,0.01-0.075,0.01c-0.045,0.044-0.104,0.123-0.076,0.297c0.079,0.476,0.776,1.251,1.809,1.725
					c1.246,0.572,4.736,1.275,6.328,1.275c0.515,0,0.854,0,0.986,0.251c0.132,0.252-0.062,0.532-0.354,0.956L109.886,61.879z"/>
			</g>
			<g>
				<path d="M124.552,68.265c0-0.338-0.992-1.254-1.998-1.845c-0.79-0.463-0.92-0.478-0.922-0.099
					c-0.002,0.573-0.513,2.015-0.713,2.015c-0.113,0-0.281-0.282-0.372-0.626s-0.474-1.022-0.85-1.508l-0.686-0.882l-0.533,0.817
					c-0.497,0.762-1.357,1.508-1.74,1.508c-0.091,0-0.109-0.401-0.039-0.892c0.075-0.533,0.017-0.955-0.146-1.05
					c-0.148-0.088-0.271-0.058-0.271,0.067c0,0.287-1.196,1.644-1.449,1.644c-0.104,0-0.25-0.389-0.324-0.864
					c-0.074-0.475-0.2-1.227-0.28-1.669c-0.08-0.444,0.091-0.143,0.379,0.667l0.523,1.475l0.574-0.898
					c0.315-0.494,0.575-1.034,0.575-1.2c0-0.165,0.107-0.239,0.237-0.162c0.13,0.075,0.312,0.669,0.402,1.319l0.166,1.182
					l0.631-0.692c0.349-0.381,0.755-0.892,0.905-1.134c0.269-0.433,0.283-0.432,0.816,0.02c0.299,0.254,0.759,0.859,1.021,1.347
					c0.263,0.487,0.513,0.851,0.556,0.807s0.14-0.547,0.214-1.116c0.075-0.57,0.142-1.059,0.148-1.084
					c0.037-0.141,1.903,1.072,2.594,1.687c0.444,0.395,0.865,0.662,0.937,0.595s0.13-0.649,0.13-1.294
					c0-0.999-0.105-1.267-0.717-1.813c-0.701-0.628-0.722-0.631-0.981-0.172c-0.337,0.596-0.733,0.604-0.733,0.016
					c0-0.43-1.327-2.081-1.672-2.081c-0.09,0-0.369,0.363-0.622,0.807c-0.252,0.443-0.522,0.806-0.603,0.805
					c-0.34-0.002-2.211-2.087-2.21-2.464c0-0.3,0.126-0.224,0.454,0.277c0.249,0.38,0.747,0.947,1.106,1.26
					c0.728,0.635,0.991,0.48,1.272-0.742c0.08-0.349,0.219-0.633,0.31-0.633c0.31,0,1.938,1.729,2.168,2.303l0.229,0.576
					l0.174-0.634c0.213-0.774,0.448-0.803,0.789-0.097c0.142,0.296,0.844,0.909,1.559,1.364l1.301,0.827l0.261-0.832
					c0.144-0.457,0.334-0.721,0.423-0.584c0.133,0.203-0.205,1.582-0.46,1.878c-0.039,0.045-0.461-0.201-0.938-0.545l-0.867-0.627
					l-0.003,1.122c-0.003,0.616-0.069,1.354-0.149,1.639C124.971,68.605,124.552,68.762,124.552,68.265L124.552,68.265z"/>
				<path d="M124.719,68.813c-0.192,0-0.417-0.144-0.417-0.549c-0.034-0.201-0.83-1.016-1.875-1.629
					c-0.105-0.063-0.379-0.223-0.545-0.295c-0.014,0.46-0.455,2.245-0.963,2.245c-0.37,0-0.563-0.622-0.614-0.813
					c-0.082-0.312-0.451-0.961-0.805-1.418l-0.471-0.604l-0.342,0.523c-0.5,0.767-1.424,1.621-1.949,1.621h-0.114l-0.103-0.101
					c-0.159-0.184-0.126-0.687-0.069-1.076c0.048-0.344,0.029-0.579,0-0.707c-0.235,0.459-0.931,1.277-1.372,1.557l-0.013,0.021
					l-0.004-0.01c-0.09,0.055-0.168,0.086-0.229,0.086c-0.268,0-0.46-0.362-0.571-1.076c-0.074-0.473-0.199-1.222-0.279-1.662
					c-0.03-0.167-0.046-0.302,0.042-0.407l0.075-0.09l0.123-0.003c0.179,0,0.265,0.04,0.62,1.038l0.353,0.993l0.299-0.468
					c0.341-0.534,0.527-0.974,0.536-1.07c0-0.399,0.358-0.526,0.615-0.372c0.323,0.188,0.491,1.282,0.522,1.5l0.092,0.654
					l0.272-0.299c0.331-0.362,0.732-0.864,0.878-1.098c0.146-0.236,0.272-0.439,0.518-0.439c0.199,0,0.367,0.142,0.672,0.4
					c0.327,0.277,0.802,0.9,1.08,1.419c0.078,0.146,0.149,0.27,0.212,0.371c0.027-0.159,0.059-0.359,0.089-0.595
					c0.14-1.061,0.15-1.099,0.155-1.117l0.05-0.185l0.213-0.012c0.373,0,2.229,1.309,2.738,1.762
					c0.258,0.229,0.464,0.377,0.598,0.46c0.028-0.208,0.053-0.558,0.053-0.973c0-0.932-0.077-1.129-0.634-1.626
					c-0.184-0.164-0.388-0.348-0.491-0.412c-0.033,0.049-0.078,0.128-0.105,0.177c-0.118,0.208-0.249,0.364-0.385,0.461
					l-0.089,0.324l-0.092-0.23c-0.211,0.069-0.425-0.016-0.537-0.21c-0.065-0.115-0.099-0.267-0.099-0.452
					c-0.017-0.293-1.007-1.565-1.383-1.802c-0.09,0.1-0.257,0.323-0.444,0.651c-0.528,0.931-0.725,0.931-0.819,0.931
					c-0.485-0.003-2.461-2.185-2.46-2.715c0-0.395,0.238-0.426,0.312-0.426c0.179,0,0.313,0.128,0.602,0.567
					c0.235,0.359,0.722,0.912,1.062,1.208c0.305,0.266,0.436,0.305,0.487,0.305c0.039,0,0.183-0.065,0.378-0.914
					c0.086-0.378,0.253-0.827,0.553-0.827c0.482,0,2.005,1.73,2.351,2.357c0.106-0.365,0.263-0.717,0.584-0.717
					c0.298,0,0.496,0.328,0.651,0.649c0.106,0.223,0.735,0.796,1.467,1.262l1.026,0.652l0.163-0.521
					c0.25-0.795,0.517-0.795,0.604-0.795c0.107,0,0.204,0.055,0.267,0.149c0.235,0.361-0.228,1.885-0.48,2.178l-0.075,0.087
					l-0.131,0.005c-0.158,0-0.518-0.2-1.067-0.597l-0.472-0.342l-0.002,0.635c-0.003,0.571-0.063,1.365-0.159,1.705
					C125.251,68.533,124.989,68.813,124.719,68.813z M120.707,61.956c-0.037,0.075-0.083,0.195-0.122,0.355
					c0.152-0.167,0.248-0.204,0.308-0.212C120.822,62.04,120.759,61.99,120.707,61.956z"/>
			</g>
			<g>
				<path d="M118.066,59.324c-1.546-1.29-1.78-1.586-1.746-2.197l0.036-0.651l0.102,0.629c0.059,0.367,0.471,0.918,0.989,1.322
					l0.889,0.694l0.546-0.632c0.3-0.348,0.55-0.761,0.555-0.919c0.013-0.414,0.087-0.379,1.134,0.529
					c0.93,0.807,0.944,0.811,1.082,0.288c0.077-0.292,0.051-0.84-0.061-1.22c-0.304-1.042-0.244-1.2,0.217-0.571
					c0.229,0.313,0.598,0.757,0.819,0.984c0.385,0.396,0.409,0.392,0.552-0.115c0.083-0.291,0.152-0.824,0.154-1.185l0.003-0.655
					l0.839,0.95c0.782,0.889,0.854,0.921,1.094,0.497c0.141-0.248,0.258-0.848,0.26-1.331c0.003-0.624,0.068-0.782,0.228-0.544
					c0.265,0.396,0.081,1.478-0.409,2.398l-0.351,0.661l-0.462-0.718c-0.59-0.919-0.786-0.905-1.165,0.087
					c-0.358,0.938-0.591,1.009-0.939,0.288c-0.226-0.467-0.269-0.409-0.429,0.57l-0.178,1.089l-1.066-0.827l-1.067-0.828
					l-0.479,0.545c-0.264,0.3-0.483,0.675-0.488,0.833C118.715,59.641,118.458,59.651,118.066,59.324L118.066,59.324z"/>
				<path d="M122.003,60.029l-2.28-1.769l-0.323,0.368c-0.263,0.299-0.417,0.601-0.426,0.679c-0.01,0.371-0.246,0.505-0.445,0.505
					c-0.18,0-0.384-0.097-0.622-0.297c-1.525-1.272-1.878-1.646-1.836-2.402l0.164-2.959l0.471,2.91
					c0.041,0.259,0.369,0.754,0.896,1.165l0.702,0.548l0.39-0.451c0.302-0.351,0.482-0.688,0.495-0.77
					c0.003-0.117,0.015-0.49,0.346-0.49c0.208,0,0.399,0.148,1.201,0.845c0.257,0.223,0.502,0.436,0.643,0.534
					c0.013-0.041,0.024-0.087,0.033-0.121c0.066-0.248,0.038-0.756-0.059-1.086c-0.238-0.819-0.233-1.01-0.13-1.148l0.075-0.1
					l0.153-0.015c0.161,0,0.298,0.115,0.56,0.474c0.228,0.311,0.585,0.739,0.797,0.957c0.026,0.026,0.063,0.065,0.101,0.103
					c0.013-0.042,0.023-0.082,0.032-0.11c0.076-0.27,0.143-0.781,0.145-1.118l0.006-1.312l1.273,1.442
					c0.198,0.225,0.484,0.55,0.621,0.651c0.016-0.024,0.038-0.06,0.067-0.112c0.106-0.188,0.226-0.729,0.228-1.209
					c0.002-0.421,0.004-0.898,0.361-0.898c0.18,0,0.284,0.157,0.324,0.217c0.367,0.551,0.07,1.778-0.396,2.654l-0.551,1.038
					l-0.692-1.076c-0.303-0.473-0.416-0.55-0.451-0.561c0.009,0.013-0.082,0.107-0.271,0.601c-0.221,0.577-0.424,0.935-0.755,0.935
					c-0.24,0-0.408-0.194-0.547-0.44c-0.021,0.12-0.04,0.238-0.053,0.315L122.003,60.029z M121.805,57.004
					c0.009,0.03,0.018,0.062,0.027,0.094c0.046,0.159,0.079,0.342,0.098,0.525c0.048-0.122,0.109-0.195,0.197-0.226
					C122.021,57.271,121.908,57.135,121.805,57.004z"/>
			</g>
			<g>
				<path d="M131.817,54.517c-0.562-0.507-0.949-0.99-0.86-1.075c0.089-0.084,0.188-0.108,0.222-0.054
					c0.034,0.055,0.494,0.539,1.022,1.075C133.419,55.698,133.169,55.732,131.817,54.517z"/>
				<path d="M132.968,55.659c-0.095,0-0.254,0-1.317-0.957c-0.355-0.32-0.951-0.905-0.956-1.221l-0.002-0.109l0.092-0.111
					c0.211-0.197,0.496-0.188,0.608-0.003c0.036,0.046,0.417,0.451,0.986,1.029c0.943,0.957,0.898,1.063,0.838,1.209l-0.064,0.154
					L132.968,55.659z"/>
			</g>
			<g>
				<path d="M113.501,52.623c-0.512-0.691-0.477-1.15,0.146-1.9c0.45-0.542,0.656-0.616,1.442-0.516
					c0.504,0.063,1.589,0.51,2.412,0.99c0.949,0.555,1.932,0.927,2.692,1.019c0.658,0.081,1.196,0.11,1.196,0.067
					s-0.273-0.489-0.607-0.99c-0.794-1.191-0.768-1.319,0.129-0.605c0.919,0.732,2.019,0.946,4.477,0.872l1.2-0.036l-0.696-0.688
					c-0.975-0.964-0.675-1.05,0.401-0.116c1.009,0.876,0.946,0.938-1.178,1.149c-0.902,0.09-1.873,0.025-2.679-0.18
					c-1.207-0.308-1.254-0.303-1.025,0.102c0.132,0.233,0.345,0.424,0.474,0.424c0.13,0,0.235,0.118,0.235,0.263
					c0,0.444-2.606,0.054-3.853-0.577c-2.846-1.44-3.204-1.565-3.881-1.353c-0.377,0.119-0.754,0.467-0.885,0.815
					c-0.434,1.162,1.215,2.065,1.895,1.038c0.197-0.298,0.151-0.501-0.195-0.864c-0.475-0.496-0.43-0.566,0.211-0.334
					c0.454,0.165,0.516,1.257,0.093,1.656C115.022,53.317,113.918,53.188,113.501,52.623L113.501,52.623z"/>
				<path d="M114.684,53.387c-0.564,0-1.107-0.241-1.384-0.615c-0.584-0.789-0.544-1.367,0.155-2.209
					c0.459-0.552,0.717-0.723,1.666-0.604c0.54,0.068,1.642,0.518,2.507,1.022c0.923,0.539,1.869,0.898,2.597,0.986
					c0.272,0.033,0.537,0.06,0.744,0.073c-0.099-0.159-0.232-0.368-0.394-0.609c-0.614-0.922-0.676-1.103-0.578-1.284l0.07-0.133
					l0.182-0.016c0.139,0,0.289,0.071,0.818,0.493c0.882,0.702,1.958,0.887,4.313,0.817l0.617-0.019l-0.281-0.278
					c-0.7-0.692-0.705-0.874-0.644-1.026l0.064-0.154l0.203-0.019c0.079,0,0.291,0,1.117,0.717c0.514,0.446,0.8,0.714,0.701,1.024
					c-0.015,0.045-0.034,0.084-0.062,0.12l0.082,0.081l-0.169,0.005c-0.245,0.184-0.788,0.248-1.87,0.356
					c-0.938,0.095-1.94,0.023-2.765-0.187c-0.245-0.063-0.495-0.126-0.684-0.167c0.09,0.123,0.184,0.192,0.215,0.202
					c0.001,0,0.003,0,0.004,0c0.244,0,0.46,0.229,0.46,0.511c0,0.44-0.631,0.44-0.838,0.44c-0.855,0-2.452-0.326-3.378-0.795
					c-2.153-1.09-2.849-1.406-3.307-1.406c-0.116,0-0.229,0.02-0.386,0.069c-0.303,0.096-0.622,0.388-0.726,0.665
					c-0.124,0.33-0.021,0.585,0.087,0.74c0.173,0.248,0.472,0.408,0.762,0.408c0.174,0,0.419-0.058,0.603-0.336
					c0.099-0.148,0.148-0.224-0.167-0.554c-0.286-0.3-0.454-0.497-0.364-0.707c0.018-0.041,0.092-0.178,0.294-0.178
					c0.111,0,0.265,0.04,0.547,0.143c0.252,0.092,0.432,0.343,0.507,0.707c0.088,0.426,0.023,1.035-0.327,1.366
					C115.442,53.264,115.089,53.387,114.684,53.387z M120.87,50.971c0.037,0.057,0.077,0.117,0.121,0.184
					c0.046,0.068,0.088,0.133,0.128,0.193c0.033-0.043,0.085-0.086,0.165-0.109C121.141,51.159,121.003,51.069,120.87,50.971z"/>
			</g>
			<g>
				<path d="M124.71,49.754c-0.356-0.337-0.077-0.42,1.518-0.449c1.974-0.037,3.173-0.366,4.586-1.259
					c1.134-0.716,1.44-0.574,0.365,0.167c-0.98,0.677-2.511,1.197-3.988,1.356c-0.716,0.076-1.53,0.184-1.813,0.237
					C125.097,49.859,124.796,49.836,124.71,49.754L124.71,49.754z"/>
				<path d="M125.076,50.085c-0.253,0-0.434-0.051-0.539-0.149c-0.078-0.074-0.285-0.271-0.192-0.51
					c0.108-0.278,0.441-0.345,1.878-0.371c1.922-0.036,3.088-0.355,4.457-1.22c0.367-0.232,0.857-0.508,1.109-0.508h0.184l0.108,0.2
					c0.049,0.159,0.028,0.348-0.761,0.892c-1.013,0.699-2.586,1.235-4.104,1.399c-0.689,0.073-1.511,0.181-1.792,0.233
					C125.307,50.074,125.187,50.085,125.076,50.085z"/>
			</g>
		</g>
	</g>
</g>
</svg>
