<?xml version="1.0" encoding="utf-8"?>
<!-- Generator: Adobe Illustrator 16.0.0, SVG Export Plug-In . SVG Version: 6.00 Build 0)  -->
<!DOCTYPE svg PUBLIC "-//W3C//DTD SVG 1.1//EN" "http://www.w3.org/Graphics/SVG/1.1/DTD/svg11.dtd">
<svg version="1.1" id="flag-icon-css-am" xmlns="http://www.w3.org/2000/svg" xmlns:xlink="http://www.w3.org/1999/xlink" x="0px"
	 y="0px" width="150px" height="150px" viewBox="0 0 150 150" enable-background="new 0 0 150 150" xml:space="preserve">
<g>
	<path fill-rule="evenodd" clip-rule="evenodd" fill="#070707" d="M85.253,35.214c8.826-3.635,17.836-4.55,27.153-3.738
		c3.19,0.278,4.626,2.452,6.498,4.311c0.474,0.473,0.16,1.043,0.029,1.581c-0.277,1.146-0.528,2.298-0.858,3.749
		c3.608-0.863,6.945-1.83,10.396-2.181c5.032-0.513,10.033-0.598,14.984,0.734c3.593,0.965,5.775,4.098,5.09,7.662
		c-3.784,19.668-7.577,39.334-11.408,58.991c-1.198,6.148-1.287,5.983-7.559,7.21c-13.625,2.667-27.214,5.509-40.82,8.275
		c-12.897,2.621-25.792,5.271-38.699,7.851c-25.355,5.067-42.67-11.612-46.698-28.744C0.318,87.966,2.56,75.465,8.252,63.649
		c10.991-22.808,29.891-35.18,54.143-40.24c6.276-1.309,12.651-1.751,19.041-1.989c2.771-0.102,5.767,3.44,5.207,6.101
		c-0.494,2.341-1.041,4.672-1.552,7.009C85.063,34.667,85.158,34.828,85.253,35.214z M57.136,46.813
		c-0.063-0.724-0.171-1.601-0.941-1.705c-0.343-0.047-0.877,0.793-1.21,1.304c-1.339,2.043-2.633,4.114-3.943,6.175
		c-1.273-0.108-2.205,0.844-3.376,1.083c-0.893,0.184-1.319,1.726-2.404,1.135c-0.859-0.467-0.714-0.14-0.928,0.479
		c-0.649,1.874-1.817,2.46-3.53,1.097c4.425-8.09,10.102-15.199,17.183-21.634c-0.749,0.101-1.147,0.104-1.515,0.213
		c-13.156,3.873-23.972,11.146-32.063,22.281c-5.893,8.11-10.115,17.02-11.474,27.007c-1.084,7.969,0.321,15.657,6.078,21.593
		c6.502,6.703,18.208,9.38,29.23,1.006c6.948-5.277,11.092-12.375,13.761-20.492c1.093,1.556,1.655-0.302,2.479-0.441
		c0.813-0.139,1.525-0.903,2.408-0.172c0.914,0.757,0.107,1.424-0.089,2.122c-0.855,3.042-1.326,6.224-3.23,8.886
		c-1.056,1.77-1.955,3.658-3.192,5.29c-7.135,9.409-15.871,15.552-28.461,13.531c-1.921-0.53-3.844-1.059-5.767-1.587
		c-0.907-0.672-2.025-0.851-3.015-1.453c-9.648-5.863-12.994-15.026-12.484-25.518c0.659-13.579,6.914-25.116,15.65-35.179
		c7.452-8.583,16.836-14.75,27.706-18.126c7.51-2.333,15.169-6.163,23.237-1.3c0.567-2.526,1.108-4.925,1.644-7.308
		c-0.22-0.104-0.355-0.216-0.497-0.224c-0.397-0.023-0.8-0.021-1.196,0.002c-13.721,0.817-26.841,3.847-38.819,10.839
		C25.21,43.402,15.418,54.082,9.868,68.432c-0.421,0.208-0.497,0.56-0.402,0.98c-0.202,0.629-0.404,1.258-0.606,1.887
		c-3.75,9.375-4.504,19.066-2.333,28.848c2.203,9.927,8.084,17.002,17.742,20.657c6.747,2.555,13.692,2.928,20.725,1.544
		c12.438-2.447,24.864-4.959,37.289-7.469c15.088-3.05,30.168-6.13,45.254-9.178c1.304-0.264,2.296-0.703,2.081-2.292
		c2.728-13.929,5.477-27.852,8.171-41.786c1.075-5.552,2.028-11.129,3.038-16.695c1.156-1.992,0.169-2.633-1.718-2.868
		c-3.974-0.493-7.953-0.591-11.905,0.01c-5.664,0.862-11.267,1.99-16.147,5.282c-0.901,0.437-1.805,0.874-2.923,1.414
		c0.815-3.803,1.588-7.412,2.36-11.021c0.86-3.175,0.86-3.185-2.498-3.31c-8.195-0.302-16.036,1.229-23.474,4.688
		c-1.19,0.553-1.845,0.857-2.374-0.793c-0.448-1.402-1.307-2.73-2.635-3.601c-0.141-0.121-0.369-0.366-0.406-0.339
		c-0.32,0.228-0.126,0.46,0.05,0.677c0.45,1.097,0.898,2.192,1.347,3.288c0.093,0.71,0.238,1.418,0.269,2.133
		c0.264,6.039-3.917,11.763-9.962,13.67c-5.375,1.695-9.568-0.043-13.01-5.397C57.579,48.111,57.357,47.463,57.136,46.813z
		 M78.022,40.534c-0.028-5.14-3.46-8.597-8.547-8.609c-5.701-0.017-10.712,5.167-10.664,11.045c0.036,4.309,2.959,8.98,9.131,8.689
		C73.258,51.408,78.054,46.275,78.022,40.534z"/>
	<path fill-rule="evenodd" clip-rule="evenodd" fill="#FAF9FA" d="M110.494,37.745c-0.772,3.61-1.545,7.219-2.36,11.021
		c1.118-0.54,2.021-0.978,2.923-1.414c0.386,0.542,0.821,0.208,1.268,0.097c2.991-0.743,5.966-1.588,8.991-2.175
		c6.472-1.253,12.981-1.743,19.512-0.346c-1.01,5.566-1.963,11.143-3.038,16.695c-2.694,13.934-5.443,27.857-8.171,41.786
		c-3.728,0.802-7.447,1.641-11.182,2.4c-19.459,3.961-38.898,8.028-58.395,11.794c-8.605,1.661-17.08,4.429-26.113,3.179
		c-10.097-1.4-18.221-5.725-23.091-14.916C5.8,96.361,6.196,86.244,8.137,76.03c0.297-1.561,1.363-3.024,0.723-4.732
		c0.202-0.628,0.404-1.258,0.606-1.887c0.668-0.108,1.032-0.34,0.402-0.98c5.55-14.35,15.342-25.03,28.509-32.715
		c11.978-6.992,25.098-10.021,38.819-10.839c0.396-0.023,0.799-0.025,1.196-0.002c0.142,0.008,0.277,0.12,0.497,0.224
		c-0.535,2.383-1.076,4.782-1.644,7.308c-8.068-4.863-15.727-1.033-23.237,1.3c-10.87,3.377-20.254,9.543-27.706,18.126
		c-8.736,10.063-14.991,21.6-15.65,35.179c-0.51,10.491,2.836,19.654,12.484,25.518c0.99,0.603,2.108,0.781,3.015,1.453
		c1.17,2.095,3.284,2.13,5.281,2.419l-0.024-0.019c3.647,1.849,7.583,1.87,11.394,1.158c5.834-1.093,10.802-3.992,15.135-8.132
		c2.722-2.602,4.615-5.844,7.241-8.487c1.373,2.826,3.586,4.443,6.768,4.337c2.059-0.069,4.082-0.539,5.984-1.411
		c3.567-1.638,6.293-4.239,8.491-7.664c0.453,1.791-0.333,3.048-0.828,4.366c-1.518,0.08-2.291,1.33-3.363,2.12
		c-3.26,2.396-6.939,3.511-11.037,3.426c1.405,0.706,2.655,1.098,4.306,0.886c3.898-0.499,6.987-2.526,10.15-4.516
		c5.57-1.18,8.686-4.37,9.783-10.187c0.739-3.925,1.06-8.017,2.687-11.778c0.852-1.97,2.282-3.396,3.987-4.525
		c0.548-0.361,2.011-1.474,1.927,0.702c-2.368,0.004-3.208,1.823-4.001,3.537c-1.443,3.117-2.15,6.47-2.921,9.803
		c-1.184,5.108-1.892,10.561-8.071,12.456c-0.449,0.139-0.979,0.467-0.765,1.022c0.277,0.718,0.94,0.411,1.442,0.259
		c3.753-1.135,6.436-3.296,7.41-7.323c1.12-4.632,2.026-9.328,3.699-13.812c0.482-1.299,0.779-2.813,2.506-3.15
		c-0.052,0.313-0.095,0.628-0.158,0.938c-0.121,0.602-0.671,1.323-0.16,1.782c0.648,0.582,1.318-0.156,1.925-0.437
		c3.436-1.585,5.301-4.372,6.176-7.986c0.494-2.041-0.713-3.644-1.59-5.02c-0.944-1.478-2.19,0.806-3.489,0.736
		c-0.275-0.014-0.562,0.493-0.867,0.73c-1.677,1.299-3.362,2.588-5.286,4.066c0-0.773,0.009-1.154-0.003-1.534
		c-0.011-0.379-0.011-0.763-0.073-1.134c-0.217-1.286-0.35-1.328-1.772-0.921c-4.31,1.238-6.191,4.41-6.868,8.556
		C90.758,79,90.35,78.751,89.94,78.504c-0.022-0.058-0.036-0.122-0.072-0.167c-0.023-0.028-0.081-0.024-0.124-0.035
		c0.069,0.064,0.137,0.128,0.206,0.193c0.157,1.6-0.391,3.201,0.003,4.802c-0.046,0.308-0.091,0.616-0.138,0.924
		c-0.267,0.145-0.648,0.221-0.786,0.444c-2.981,4.905-7.255,7.913-12.928,8.906c-1.562,0.273-2.086,1.341-1.961,2.782
		c0.081,0.942,0.295,1.874,0.451,2.811c-2.287-1.796-1.574-4-0.843-6.206c1.322-0.046,2.665-0.015,3.75-0.973
		c5.211-1.32,8.916-4.331,10.685-9.516c0.617-1.545,0.583-3.106,0.116-4.68c-0.138-0.92-0.602-1.704-1.391-2.117
		c-2.725-1.42-10.111-0.003-12.574,1.881c-2.19,1.675-4.208,3.457-5.971,6.014C67.808,67.175,63.144,60.63,51.297,59.16
		c1.123-3.702,3.464-6.741,5.454-9.969c0.16-0.26,0.691-0.292,1.049-0.43c3.442,5.354,7.635,7.092,13.01,5.397
		c6.045-1.907,10.226-7.631,9.962-13.67c-0.03-0.714-0.176-1.423-0.269-2.133c0.761,0.546,1.126,1.307,1.256,2.217
		c0.627,4.426-2.357,10.27-6.116,12.748c-2.263,1.492-4.904,1.813-7.739,2.925c7.441,1.222,14.602-4.694,15.234-13.131
		c0.118-1.583,0.732-2.291,2.036-2.767c2.841-1.038,5.726-1.935,8.715-2.432C99.413,36.997,104.949,36.777,110.494,37.745z
		 M128.32,82.333c-0.061-0.211-0.121-0.42-0.183-0.631c-0.06,0.04-0.121,0.083-0.181,0.125c0.119,0.171,0.238,0.341,0.358,0.511
		c0.002,1.51,0.063,3.021-0.002,4.528c-0.28,6.55-9.062,12.487-15.324,10.386c1.187-0.144,2.401-0.167,3.555-0.448
		c4.839-1.182,8.654-3.702,10.283-8.651c1.669-5.072,0.255-8.209-5.213-12.144c0.022-1.917-0.429-4.067,2.28-4.675
		c0.896,1.367,1.981,2.309,3.733,1.508c1.475-0.672,2.146-1.822,1.807-3.445c-0.335-1.603-1.253-2.683-2.923-3.011
		c-2.352-1.217-4.729-0.976-7.117-0.127c-2.72,0.576-4.663,2.197-6.078,4.527c-1.109,0.135-1.945,0.381-0.614,1.508
		c-0.048,1.107-0.096,2.212-0.144,3.317c-0.155,0.025-0.408-0.002-0.453,0.083c-1.512,2.83-3.249,5.438-6.257,6.926
		c-0.442,0.218-0.675,0.779-0.362,1.232c0.371,0.536,0.896,0.115,1.287-0.05c3.103-1.312,5.194-3.592,6.34-6.749
		c0.77,0.801,1.493,1.65,2.316,2.392c1.367,1.23,2.665,2.513,3.53,4.155c1.465,2.783,1.078,6.072-0.938,8.219
		c-2.044,2.174-5.235,2.994-7.635,1.96c2.221-2.166,2.749-4.129,1.57-5.832c-0.611-0.884-4.125-1.344-5.354-0.702
		c-1.617,0.844-2.112,3.691-1.137,6.063c0.953,2.325,2.958,3.176,5.12,3.855c0.014,1.072,0.886,1.168,1.619,1.438
		c2.108,0.773,4.213,0.333,6.334,0.041c5.208-0.715,9.754-4.561,10.93-9.661C129.991,86.721,130.366,84.257,128.32,82.333z
		 M91.944,60.721c0.271,0,0.541-0.001,0.812-0.001c-0.216,1.335-0.501,2.664-0.622,4.008c-0.092,1.044,0.33,2.12,1.521,1.986
		c2.4-0.271,4.771-0.807,7.152-1.253c0.482-0.09,0.521-0.46,0.533-0.903c0.087-3.372,1.36-6.527,1.82-9.831
		c0.093-0.665,0.799-1.887-0.578-1.746c-1.008,0.102-2.965-0.676-2.951,1.278c0.012,1.685-0.921,1.808-2.024,1.979
		c-1.2,0.186-2.331,0.497-3.313,1.241c-0.324-0.015-0.647-0.029-0.974-0.043c-4.061-1.22-3.861,2.766-5.793,5.128
		c0.147-3.998-1.937-4.26-4.564-3.661c-0.067,0.015-0.149-0.046-0.226-0.072c0.09-0.677,0.178-1.355,0.294-2.239
		c-1.957,0.4-3.769,0.638-5.495,1.156c-2.451,0.736-2.591,2.984-2.889,5.026c-0.166,1.134,0.548,1.698,1.546,2.098
		c0.84,0.338,2.44-0.138,2.229,1.492c-0.186,1.439-1.677,1.212-2.685,1.511c-0.44,0.131-0.958,0.118-1.418,0.041
		c-1.591-0.271-1.052,1.02-1.204,1.693c-0.22,0.979,0.408,1.299,1.272,1.122c1.709-0.352,3.489-0.55,5.092-1.186
		c2.333-0.926,2.633-3.179,2.868-5.362c0.217-2.029-1.451-1.948-2.65-2.379c-0.516-0.187-1.173-0.205-1.169-0.955
		c0.005-0.662,0.554-0.906,1.063-1.147c1.012-0.479,2.239-0.192,3.183-0.908c0.606,1.798,1.125,3.632,1.845,5.386
		c0.718,1.752,0.813,3.317-0.375,4.929c-0.374,0.507-1.343,1.659-0.293,1.897c0.99,0.228,2.83,0.435,3.33-0.974
		C88.454,66.718,90.423,63.838,91.944,60.721z M123.489,51.588c-0.671,0.561-1.362,0.004-2.04,0.01
		c-3.916,0.032-6.144,1.546-6.997,5.125c-0.406,1.71-1.681,3.735-0.159,5.201c1.636,1.576,3.783,0.204,5.683-0.073
		c1.712-0.25,2.349-1.386,2.045-3.137c-1.071,0.219-2.046,0.461-3.036,0.603c-0.513,0.072-1.194,0.191-1.303-0.617
		c-0.108-0.796,0.378-1.142,1.104-1.245c0.552-0.078,1.104-0.146,1.646-0.265c2.799-0.617,3.376-1.438,3.075-4.312
		c-0.046-0.443-0.467-0.878-0.048-1.336c1.939,3.672,3.994,7.333,0.596,11.496c1.756,0.184,3.545,0.295,3.991-0.9
		c1.348-3.6,3.581-6.709,5.122-10.177c0.351-0.788,1.525-1.646,0.619-2.483c-0.726-0.667-1.798,0.206-2.726,0.311
		c-0.568,0.065-0.594,0.48-0.719,1c-0.3,1.249-0.782,2.472-1.83,3.458C127.284,50.023,126.909,49.835,123.489,51.588z
		 M109.904,63.672c0.527-0.37,2.255,0.333,2.221-0.923c-0.063-2.462,0.914-4.646,1.26-6.981c0.27-1.818-0.295-2.802-2.105-2.18
		c-1.953,0.669-3.95,0.827-5.941,1.162c-0.51,0.087-1.034,0.173-1.004,1.018c0.091,2.5-0.933,4.821-1.313,7.248
		c-0.105,0.67-0.636,1.999,0.558,1.826c0.992-0.144,2.797,0.639,3.056-1.502c0.217-1.809,0.675-3.591,1.066-5.375
		c0.135-0.616,0.357-1.38,1.183-1.175c0.754,0.188,0.406,0.928,0.328,1.419c-0.232,1.412-0.477,2.827-0.827,4.214
		C108.093,63.583,108.548,63.881,109.904,63.672z M126.763,74.004c2,0.938,3.455,1.131,4.631-0.39
		c1.076-1.392,0.727-2.694-0.684-4.314C131.116,72.405,129.516,73.514,126.763,74.004z M66.447,55.654
		c-0.108,0.078-0.281,0.141-0.296,0.229c-0.019,0.109,0.096,0.239,0.153,0.36c0.141-0.108,0.283-0.216,0.423-0.324
		C66.637,55.832,66.545,55.745,66.447,55.654z"/>
	<path fill-rule="evenodd" clip-rule="evenodd" fill="#282526" d="M73.748,92.958c-0.73,2.206-1.444,4.41,0.843,6.206
		c0.193,0.454,0.563,0.479,0.976,0.404c1.293,0.342,2.511,0.083,3.719-0.419c4.505-1.878,6.868-5.696,8.919-9.802
		c1.302-1.47,1.271-3.357,1.611-5.127c0.047-0.308,0.092-0.616,0.138-0.924c0.862-1.213,0.903-2.671,1.213-4.049
		c0.677-4.146,2.559-7.318,6.868-8.556c1.423-0.407,1.556-0.365,1.772,0.921c0.063,0.372,0.063,0.755,0.073,1.134
		c0.012,0.379,0.003,0.76,0.003,1.534c1.924-1.478,3.609-2.767,5.286-4.066c0.306-0.237,0.592-0.744,0.867-0.73
		c1.299,0.07,2.545-2.214,3.489-0.736c0.877,1.375,2.084,2.979,1.59,5.02c-0.875,3.614-2.74,6.401-6.176,7.986
		c-0.606,0.28-1.276,1.019-1.925,0.437c-0.511-0.459,0.039-1.181,0.16-1.782c0.063-0.311,0.106-0.626,0.158-0.938
		c0.446-0.877,0.691-1.805,0.7-2.792c0.084-2.176-1.379-1.063-1.927-0.702c-1.705,1.13-3.136,2.556-3.987,4.525
		c-1.627,3.762-1.947,7.854-2.687,11.778c-1.098,5.816-4.213,9.007-9.783,10.187c-0.019-0.639-0.037-1.277-0.056-1.916
		c0.495-1.318,1.281-2.575,0.828-4.366c-2.198,3.425-4.924,6.026-8.491,7.664c-1.902,0.872-3.925,1.342-5.984,1.411
		c-3.182,0.106-5.395-1.511-6.768-4.337c-0.195-0.602-0.391-1.203-0.586-1.806c-0.363-0.779,0.747-2.194-1.02-2.368
		c1.904-2.662,2.375-5.844,3.23-8.886c0.196-0.698,1.003-1.365,0.089-2.122c-0.883-0.731-1.596,0.033-2.408,0.172
		c-0.824,0.14-1.387,1.997-2.479,0.441c0.123-0.784,0.201-1.577,0.375-2.35c0.985-4.354,0.958-8.691-0.004-13.058
		c-1.203-5.456-5.264-7.893-10.069-9.091c-4.814-1.2-9.219-0.087-12.341,4.198c-0.792,1.085-1.499,2.232-2.245,3.351
		c-0.914-0.947-0.616-2.097-0.334-3.112c0.311-1.122-0.193-1.231-1.032-1.205c1.139-3.079,2.576-6.003,4.45-8.707
		c1.713,1.363,2.88,0.777,3.53-1.097c0.214-0.619,0.069-0.946,0.928-0.479c1.085,0.59,1.512-0.951,2.404-1.135
		c1.171-0.239,2.103-1.191,3.376-1.083c-0.839,1.681-1.651,3.376-2.525,5.038c-0.834,1.584-0.261,1.827,1.188,1.332
		c0.498,0.324,1.041,0.296,1.592,0.203c11.847,1.47,16.51,8.016,17.066,24.408c1.764-2.557,3.781-4.339,5.971-6.014
		c2.462-1.884,9.849-3.301,12.574-1.881c0.789,0.413,1.253,1.197,1.391,2.117c-0.118,0.09-0.23,0.187-0.333,0.293
		c-1.553,1.203-0.487,2.615-0.314,3.957c0.178,0.143,0.354,0.286,0.531,0.43c-1.769,5.185-5.474,8.195-10.685,9.516
		c-0.014-0.427-0.125-0.802-0.529-1.028c0.176-0.276,0.353-0.554,0.529-0.832c2.665-3.047,3.512-6.787,4.059-10.64
		c0.328-0.975,0.356-1.855-0.737-2.391c-3.642-0.07-3.675-0.021-4.177,3.558c-0.133,0.94-0.465,1.852-0.654,2.786
		c-0.556,2.706-1.921,5.208-2.012,8.029C72.923,91.814,73.036,92.339,73.748,92.958z M99.606,75.031
		c0.414-0.013,0.426-0.382,0.544-0.647c0.006-0.017-0.286-0.216-0.314-0.19c-0.225,0.197-0.42,0.431-0.623,0.654
		C99.343,74.908,99.473,74.971,99.606,75.031z"/>
	<path fill-rule="evenodd" clip-rule="evenodd" fill="#FAF9FA" d="M40.803,56.38c-1.874,2.704-3.311,5.628-4.45,8.707
		c-2.183,3.889-3.369,8.164-4.599,12.391c-1.786,6.137-3.167,12.382-2.437,18.848c0.527,4.669,2.941,5.63,6.792,2.8
		c0.701-0.514,1.388-1.089,1.941-1.753c2.623-3.139,4.702-6.599,5.969-10.514c1.773-4.313,2.608-8.803,2.262-13.454
		c-0.192-2.586-1.232-3.064-3.446-1.735c-1.972,1.182-3.747,2.627-5.232,4.403c-1.266,0.838-1.847,0.658-1.643-1.006
		c0.247-2.002,1.152-3.783,1.758-5.664c0.746-1.118,1.453-2.266,2.245-3.351c3.122-4.285,7.527-5.398,12.341-4.198
		c4.805,1.198,8.867,3.636,10.069,9.091c0.961,4.367,0.989,8.704,0.004,13.058c-0.174,0.772-0.252,1.565-0.375,2.35
		c-2.669,8.117-6.813,15.215-13.761,20.492c-11.023,8.374-22.729,5.697-29.23-1.006c-5.757-5.936-7.163-13.624-6.078-21.593
		c1.359-9.987,5.581-18.897,11.474-27.007c8.091-11.135,18.907-18.408,32.063-22.281c0.368-0.109,0.767-0.112,1.515-0.213
		C50.905,41.181,45.228,48.29,40.803,56.38z M53.912,64.687c-5.358-3.021-12.003-1.045-14.475,5.027
		c-0.069,0.155-0.139,0.309-0.209,0.465c0.276,0.117,0.33-0.083,0.39-0.271c0.356-0.17,0.729-0.311,1.065-0.514
		c4.224-2.549,6.171-1.727,6.748,3.149c0.932,7.866-1.506,14.975-5.408,21.659c-1.91,3.273-4.272,6.197-7.611,8.126
		c-2.69,1.554-6.162,0.43-6.642-2.178c-0.401-2.181-0.886-4.359-0.851-6.625c0.175-11.367,3.502-21.911,8.272-32.082
		c3.957-8.437,8.975-16.124,16.057-22.321c0.239-0.208,0.389-0.495,0.104-0.865c-0.188,0-0.433-0.058-0.635,0.01
		c-0.68,0.227-1.364,0.458-2.013,0.761C35.832,45.053,26.1,54.435,19.664,67.038c-4.309,8.44-6.977,17.396-5.027,27.038
		c2.439,12.057,12.659,19.252,25.11,13.684c10.792-4.825,16.941-13.509,19.292-24.878c0.376-1.823,1.473-3.929,0.21-5.937
		c0.525-0.691,0.878-1.566,0.083-2.106c-0.766-0.52-1.262,0.261-1.624,0.92c-0.148,0.27-0.302,0.504-0.717,0.408
		c-2.935-0.675-5.346-3.789-4.879-6.587c0.202-1.215,0.489-2.643,1.689-3.293C54.974,65.652,55.055,65.801,53.912,64.687z"/>
	<path fill-rule="evenodd" clip-rule="evenodd" fill="#CACCCD" d="M8.86,71.298c0.64,1.708-0.426,3.171-0.723,4.732
		c-1.941,10.214-2.337,20.331,2.7,29.836c4.871,9.191,12.995,13.516,23.091,14.916c9.033,1.25,17.508-1.518,26.113-3.179
		c19.497-3.766,38.936-7.833,58.395-11.794c3.734-0.76,7.454-1.599,11.182-2.4c0.215,1.589-0.777,2.028-2.081,2.292
		c-15.086,3.048-30.166,6.128-45.254,9.178c-12.425,2.51-24.851,5.021-37.289,7.469c-7.033,1.384-13.979,1.011-20.725-1.544
		c-9.658-3.655-15.54-10.73-17.742-20.657C4.356,90.364,5.11,80.674,8.86,71.298z"/>
	<path fill-rule="evenodd" clip-rule="evenodd" fill="#CACCCD" d="M78.022,40.534c0.031,5.741-4.765,10.874-10.081,11.125
		c-6.172,0.291-9.095-4.381-9.131-8.689c-0.048-5.877,4.963-11.062,10.664-11.045C74.563,31.938,77.994,35.394,78.022,40.534z
		 M70.783,38.106c-0.029-2.268-1.503-3.776-3.672-3.759c-2.611,0.023-4.535,2.054-4.539,4.792c-0.003,2.412,1.497,3.949,3.787,3.881
		C68.86,42.949,70.817,40.774,70.783,38.106z"/>
	<path fill-rule="evenodd" clip-rule="evenodd" fill="#CACCCD" d="M110.494,37.745c-5.545-0.967-11.081-0.748-16.604,0.171
		c-2.989,0.497-5.874,1.394-8.715,2.432c-1.304,0.476-1.918,1.185-2.036,2.767c-0.632,8.437-7.792,14.353-15.234,13.131
		c2.834-1.113,5.476-1.433,7.739-2.925c3.759-2.479,6.743-8.322,6.116-12.748c-0.13-0.911-0.495-1.671-1.256-2.217
		c-0.448-1.096-0.896-2.191-1.347-3.288c0.118-0.113,0.237-0.226,0.356-0.339c1.328,0.871,2.187,2.2,2.635,3.602
		c0.529,1.65,1.184,1.347,2.374,0.793c7.438-3.459,15.278-4.99,23.474-4.688C111.354,34.56,111.354,34.57,110.494,37.745z"/>
	<path fill-rule="evenodd" clip-rule="evenodd" fill="#CACCCD" d="M140.827,44.928c-6.53-1.397-13.04-0.907-19.512,0.346
		c-3.025,0.587-6,1.433-8.991,2.175c-0.446,0.111-0.882,0.445-1.268-0.097c4.881-3.292,10.483-4.42,16.147-5.282
		c3.952-0.601,7.932-0.502,11.905-0.01C140.996,42.295,141.983,42.936,140.827,44.928z"/>
	<path fill-rule="evenodd" clip-rule="evenodd" fill="#FAF9FA" d="M63.572,96.749c1.767,0.174,0.657,1.589,1.02,2.368
		c-0.824-0.1-1.108,0.562-1.406,1.091c-1.375,2.442-3.096,4.642-4.987,6.671c-4.252,4.566-9.24,8.001-15.41,9.51
		c-3.803,0.93-7.588,0.369-11.38-0.005l0.024,0.019c0.162-0.277,0.324-0.556,0.485-0.832c12.59,2.021,21.326-4.122,28.461-13.531
		C61.618,100.407,62.517,98.519,63.572,96.749z"/>
	<path fill-rule="evenodd" clip-rule="evenodd" fill="#FAF9FA" d="M49.705,58.957c-1.449,0.495-2.022,0.252-1.188-1.332
		c0.874-1.662,1.686-3.357,2.525-5.038c1.311-2.061,2.604-4.132,3.943-6.175c0.333-0.51,0.868-1.351,1.21-1.304
		c0.77,0.104,0.877,0.981,0.941,1.705C53.314,50.038,51.603,54.554,49.705,58.957z"/>
	<path fill-rule="evenodd" clip-rule="evenodd" fill="#CACCCD" d="M49.705,58.957c1.897-4.403,3.609-8.919,7.431-12.144
		c0.221,0.65,0.443,1.298,0.664,1.948c-0.358,0.138-0.889,0.17-1.049,0.43c-1.99,3.228-4.331,6.267-5.454,9.969
		C50.746,59.252,50.203,59.28,49.705,58.957z"/>
	<path fill-rule="evenodd" clip-rule="evenodd" fill="#CACCCD" d="M31.918,115.57c-0.162,0.276-0.324,0.555-0.485,0.832
		c-1.998-0.289-4.111-0.324-5.281-2.419C28.075,114.512,29.997,115.04,31.918,115.57z"/>
	<path fill-rule="evenodd" clip-rule="evenodd" fill="#CACCCD" d="M9.868,68.432c0.629,0.64,0.266,0.872-0.402,0.98
		C9.372,68.991,9.447,68.64,9.868,68.432z"/>
	<path fill-rule="evenodd" clip-rule="evenodd" fill="#CACCCD" d="M79.157,35.067c-0.176-0.217-0.37-0.45-0.05-0.677
		c0.037-0.026,0.266,0.218,0.406,0.338C79.395,34.841,79.275,34.954,79.157,35.067z"/>
	<path fill-rule="evenodd" clip-rule="evenodd" fill="#282526" d="M126.512,66.386c1.67,0.329,2.588,1.409,2.923,3.012
		c0.34,1.623-0.332,2.772-1.807,3.445c-1.752,0.801-2.837-0.141-3.733-1.508c0.005-0.658,0.01-1.317,0.016-1.975
		c0.065-0.317,0.962-0.813-0.116-0.895c-2.659-0.204-5.204,2.489-4.993,5.216c1.455,2.039,1.455,2.039,2.813,2.329
		c5.468,3.935,6.882,7.071,5.213,12.144c-1.629,4.949-5.444,7.47-10.283,8.651c-1.153,0.281-2.368,0.305-3.555,0.448
		c-0.801-0.029-1.603-0.059-2.403-0.087c-2.162-0.68-4.167-1.53-5.12-3.855c-0.976-2.372-0.48-5.22,1.137-6.063
		c1.229-0.642,4.743-0.182,5.354,0.702c1.179,1.703,0.65,3.666-1.57,5.832c2.399,1.034,5.591,0.214,7.635-1.96
		c2.017-2.146,2.403-5.436,0.938-8.219c-0.865-1.643-2.163-2.925-3.53-4.155c-0.823-0.741-1.547-1.591-2.316-2.392
		c-0.131-0.501-0.03-1.092-0.555-1.442c0.048-1.105,0.096-2.21,0.144-3.317c0.204-0.502,0.41-1.005,0.614-1.508
		c1.415-2.331,3.358-3.951,6.078-4.527c0.089,0.073,0.176,0.147,0.26,0.226c2.205,0.879,4.657-0.161,6.842,0.875
		c-0.033-0.284-0.065-0.568-0.099-0.852L126.512,66.386z"/>
	<path fill-rule="evenodd" clip-rule="evenodd" fill="#D51C84" d="M94.294,57.481c0.981-0.745,2.112-1.057,3.313-1.242
		c1.104-0.171,2.036-0.294,2.024-1.979c-0.014-1.954,1.943-1.176,2.951-1.278c1.377-0.142,0.671,1.081,0.578,1.746
		c-0.46,3.303-1.733,6.459-1.82,9.831c-0.012,0.442-0.051,0.813-0.533,0.903c-2.381,0.446-4.752,0.982-7.152,1.253
		c-1.19,0.134-1.612-0.942-1.521-1.986c0.121-1.344,0.406-2.673,0.622-4.008c0.39-0.573,0.634-1.19,0.56-1.9l-0.022,0.028
		C93.917,58.604,94.089,58.03,94.294,57.481z M98.607,59.886c-0.082-0.675,0.301-1.261-0.39-1.445
		c-0.513-0.136-0.951,0.166-1.224,0.568c-0.732,1.08-0.896,2.364-1.172,3.6c-0.126,0.566-0.12,1.218,0.607,1.327
		c0.573,0.084,1.123-0.24,1.308-0.835C98.086,61.966,98.361,60.808,98.607,59.886z"/>
	<path fill-rule="evenodd" clip-rule="evenodd" fill="#D51C84" d="M109.904,63.672c-1.356,0.208-1.812-0.089-1.52-1.25
		c0.351-1.387,0.595-2.802,0.827-4.214c0.078-0.491,0.426-1.231-0.328-1.419c-0.825-0.205-1.048,0.56-1.183,1.175
		c-0.392,1.784-0.85,3.566-1.066,5.375c-0.259,2.141-2.063,1.358-3.056,1.502c-1.193,0.173-0.663-1.155-0.558-1.826
		c0.38-2.427,1.403-4.748,1.313-7.248c-0.03-0.845,0.494-0.931,1.004-1.018c1.991-0.334,3.988-0.493,5.941-1.162
		c1.811-0.623,2.375,0.362,2.105,2.18c-0.346,2.335-1.323,4.52-1.26,6.981C112.159,64.005,110.432,63.302,109.904,63.672z"/>
	<path fill-rule="evenodd" clip-rule="evenodd" fill="#D51C84" d="M82.775,58.793c-0.943,0.716-2.171,0.43-3.183,0.908
		c-0.51,0.241-1.059,0.486-1.063,1.147c-0.004,0.75,0.653,0.768,1.169,0.955c1.199,0.431,2.867,0.35,2.65,2.379
		c-0.235,2.184-0.535,4.437-2.868,5.362c-1.604,0.636-3.383,0.834-5.092,1.186c-0.864,0.177-1.492-0.143-1.272-1.122
		c0.152-0.674-0.388-1.964,1.204-1.693c0.461,0.078,0.978,0.09,1.418-0.041c1.008-0.298,2.499-0.071,2.685-1.511
		c0.211-1.63-1.39-1.154-2.229-1.492c-0.999-0.4-1.712-0.964-1.546-2.098c0.298-2.042,0.438-4.29,2.889-5.026
		c1.727-0.518,3.538-0.756,5.495-1.156c-0.116,0.884-0.204,1.563-0.294,2.239L82.775,58.793z"/>
	<path fill-rule="evenodd" clip-rule="evenodd" fill="#D51C84" d="M123.457,51.539c-0.416,0.462,0.005,0.896,0.051,1.34
		c0.301,2.874-0.276,3.695-3.075,4.312c-0.542,0.119-1.095,0.188-1.646,0.265c-0.727,0.103-1.213,0.449-1.104,1.245
		c0.108,0.808,0.79,0.689,1.303,0.617c0.99-0.142,1.965-0.384,3.036-0.603c0.304,1.751-0.333,2.886-2.045,3.137
		c-1.899,0.277-4.047,1.649-5.683,0.073c-1.521-1.466-0.247-3.49,0.159-5.201c0.854-3.58,3.081-5.093,6.997-5.125
		c0.678-0.006,1.369,0.551,2.04-0.01L123.457,51.539z"/>
	<path fill-rule="evenodd" clip-rule="evenodd" fill="#D51C84" d="M91.944,60.721c-1.521,3.117-3.49,5.997-4.662,9.311
		c-0.5,1.409-2.34,1.202-3.33,0.974c-1.05-0.239-0.081-1.391,0.293-1.897c1.188-1.612,1.093-3.176,0.375-4.929
		c-0.72-1.753-1.238-3.588-1.845-5.386l-0.038,0.038c0.076,0.026,0.158,0.087,0.226,0.072c2.628-0.599,4.712-0.337,4.564,3.661
		c1.932-2.362,1.732-6.348,5.793-5.128c-0.009,0.47-0.019,0.94-0.027,1.411l0.022-0.028C92.28,59.037,92.35,60.05,91.944,60.721z"/>
	<path fill-rule="evenodd" clip-rule="evenodd" fill="#D51C84" d="M123.489,51.588c3.42-1.753,3.795-1.564,5.024,2.658
		c1.048-0.986,1.53-2.209,1.83-3.458c0.125-0.519,0.15-0.935,0.719-1c0.928-0.104,2-0.978,2.726-0.311
		c0.906,0.836-0.269,1.695-0.619,2.483c-1.541,3.468-3.774,6.578-5.122,10.177c-0.446,1.195-2.235,1.084-3.991,0.9
		c3.398-4.164,1.344-7.824-0.597-11.498C123.457,51.539,123.489,51.588,123.489,51.588z"/>
	<path fill-rule="evenodd" clip-rule="evenodd" fill="#CACCCD" d="M104.033,76.679c-0.009,0.987-0.254,1.915-0.7,2.792
		c-1.727,0.338-2.023,1.852-2.506,3.15c-1.673,4.483-2.579,9.18-3.699,13.812c-0.975,4.027-3.657,6.188-7.41,7.323
		c-0.502,0.152-1.165,0.459-1.442-0.259c-0.215-0.556,0.315-0.884,0.765-1.022c6.18-1.896,6.888-7.348,8.071-12.456
		c0.771-3.333,1.478-6.686,2.921-9.803C100.825,78.502,101.665,76.683,104.033,76.679z"/>
	<path fill-rule="evenodd" clip-rule="evenodd" fill="#CACCCD" d="M31.409,116.384c3.792,0.374,7.578,0.935,11.38,0.005
		c6.169-1.509,11.157-4.943,15.41-9.51c1.891-2.029,3.612-4.229,4.987-6.671c0.298-0.529,0.582-1.19,1.406-1.091
		c0.196,0.603,0.392,1.204,0.586,1.806c-2.625,2.644-4.519,5.886-7.241,8.487c-4.333,4.14-9.301,7.039-15.135,8.132
		C38.992,118.254,35.056,118.232,31.409,116.384z"/>
	<path fill-rule="evenodd" clip-rule="evenodd" fill="#CACCCD" d="M110.586,97.165c0.801,0.028,1.603,0.058,2.403,0.087
		c6.263,2.102,15.044-3.836,15.324-10.386c0.064-1.507,0.004-3.019,0.002-4.528l0.005-0.005c2.046,1.924,1.671,4.388,1.148,6.649
		c-1.176,5.101-5.722,8.946-10.93,9.661c-2.121,0.292-4.226,0.732-6.334-0.041C111.472,98.333,110.6,98.237,110.586,97.165z"/>
	<path fill-rule="evenodd" clip-rule="evenodd" fill="#CACCCD" d="M75.566,99.568c-0.413,0.074-0.782,0.05-0.976-0.404
		c-0.156-0.937-0.37-1.868-0.451-2.811c-0.125-1.441,0.399-2.509,1.961-2.782c5.673-0.993,9.946-4.001,12.928-8.906
		c0.138-0.224,0.52-0.3,0.786-0.444c-0.341,1.77-0.31,3.657-1.61,5.128c-0.541,0.309-1.152,0.535-1.61,0.938
		c-2.432,2.125-5.176,3.669-8.376,4.143c-2.168,0.322-3.046,1.333-2.699,3.482C75.607,98.45,75.555,99.016,75.566,99.568z"/>
	<path fill-rule="evenodd" clip-rule="evenodd" fill="#CACCCD" d="M85.594,100.551c0.019,0.639,0.037,1.277,0.056,1.916
		c-3.163,1.989-6.252,4.017-10.15,4.516c-1.651,0.212-2.901-0.18-4.306-0.886c4.098,0.085,7.777-1.029,11.037-3.426
		C83.303,101.881,84.076,100.631,85.594,100.551z"/>
	<path fill-rule="evenodd" clip-rule="evenodd" fill="#CACCCD" d="M112.559,75.612c0.524,0.351,0.424,0.941,0.555,1.442
		c-1.146,3.157-3.237,5.438-6.34,6.749c-0.391,0.165-0.916,0.586-1.287,0.05c-0.313-0.453-0.08-1.015,0.362-1.232
		c3.008-1.488,4.745-4.096,6.257-6.926C112.15,75.61,112.403,75.638,112.559,75.612z"/>
	<path fill-rule="evenodd" clip-rule="evenodd" fill="#CACCCD" d="M121.614,76.009c-1.358-0.29-1.358-0.29-2.813-2.329
		c0.976,0.112,1.253-0.474,1.592-1.291c0.642-1.545,1.597-2.893,3.518-3.03c-0.006,0.658-0.011,1.317-0.016,1.975
		C121.186,71.941,121.637,74.092,121.614,76.009z"/>
	<path fill-rule="evenodd" clip-rule="evenodd" fill="#CACCCD" d="M126.763,74.004c2.753-0.491,4.354-1.6,3.947-4.704
		c1.41,1.62,1.76,2.922,0.684,4.314C130.218,75.135,128.763,74.942,126.763,74.004z"/>
	<path fill-rule="evenodd" clip-rule="evenodd" fill="#070707" d="M73.748,92.958c-0.712-0.619-0.825-1.144,0.229-1.49
		c0.528,0.688,1.058,0.712,1.589,0.005c0.468-0.171,0.937-0.344,1.403-0.516c0.404,0.227,0.516,0.602,0.529,1.028
		C76.412,92.943,75.069,92.912,73.748,92.958z"/>
	<path fill-rule="evenodd" clip-rule="evenodd" fill="#282526" d="M119.395,66.259c2.389-0.848,4.766-1.089,7.117,0.126
		l-0.114,0.124c-2.247-0.308-4.495-0.191-6.743-0.024C119.57,66.406,119.483,66.332,119.395,66.259z"/>
	<path fill-rule="evenodd" clip-rule="evenodd" fill="#CACCCD" d="M91.166,79.248c-0.31,1.378-0.351,2.836-1.213,4.049
		c-0.394-1.601,0.154-3.202-0.003-4.802l-0.01,0.009C90.35,78.751,90.758,79,91.166,79.248z"/>
	<path fill-rule="evenodd" clip-rule="evenodd" fill="#282526" d="M88.299,77.79c0.467,1.573,0.501,3.135-0.116,4.68
		c-0.178-0.144-0.354-0.287-0.527-0.429c0.105-1.318,0.207-2.638,0.311-3.958C88.068,77.977,88.181,77.88,88.299,77.79z"/>
	<path fill-rule="evenodd" clip-rule="evenodd" fill="#CACCCD" d="M113.316,70.787c-0.204,0.503-0.41,1.006-0.614,1.508
		C111.371,71.168,112.207,70.921,113.316,70.787z"/>
	<path fill-rule="evenodd" clip-rule="evenodd" fill="#CACCCD" d="M91.944,60.721c0.405-0.67,0.336-1.684,1.371-1.901
		c0.074,0.709-0.17,1.327-0.56,1.9C92.485,60.72,92.215,60.721,91.944,60.721z"/>
	<path fill-rule="evenodd" clip-rule="evenodd" fill="#CACCCD" d="M93.293,58.848c0.009-0.471,0.019-0.941,0.027-1.411
		c0.326,0.014,0.649,0.028,0.974,0.043C94.089,58.03,93.917,58.604,93.293,58.848z"/>
	<path fill-rule="evenodd" clip-rule="evenodd" fill="#CACCCD" d="M66.447,55.654c0.098,0.091,0.189,0.178,0.281,0.265
		c-0.14,0.107-0.282,0.216-0.423,0.324c-0.057-0.121-0.172-0.251-0.153-0.36C66.166,55.794,66.339,55.732,66.447,55.654z"/>
	<path fill-rule="evenodd" clip-rule="evenodd" fill="#CACCCD" d="M128.315,82.338c-0.12-0.17-0.239-0.34-0.358-0.511
		c0.06-0.042,0.121-0.085,0.181-0.125c0.062,0.211,0.122,0.42,0.183,0.631L128.315,82.338z"/>
	<path fill-rule="evenodd" clip-rule="evenodd" fill="#CACCCD" d="M89.95,78.495c-0.069-0.065-0.137-0.129-0.206-0.193
		c0.043,0.011,0.101,0.007,0.124,0.035c0.036,0.045,0.05,0.109,0.072,0.167L89.95,78.495z"/>
	<path fill-rule="evenodd" clip-rule="evenodd" fill="#070707" d="M37.72,69.404c-0.606,1.881-1.511,3.661-1.758,5.664
		c-0.205,1.664,0.376,1.844,1.643,1.006c0.227,0.068,0.545,0.064,0.665,0.218c1.747,2.224,1.442,5.71,4.44,7.199
		c0.212,0.105,0.27,0.749,0.215,1.116c-0.153,1.03,0.594,1.572,1.096,2.253c-1.267,3.915-3.346,7.375-5.969,10.514
		c-0.554,0.664-1.241,1.239-1.941,1.753c-3.851,2.83-6.265,1.869-6.792-2.8c-0.73-6.466,0.651-12.711,2.437-18.848
		c1.229-4.227,2.416-8.502,4.599-12.391c0.839-0.026,1.343,0.083,1.032,1.205C37.104,67.307,36.807,68.457,37.72,69.404z"/>
	<path fill-rule="evenodd" clip-rule="evenodd" fill="#FAF9FA" d="M75.566,99.568c-0.012-0.553,0.041-1.118-0.047-1.657
		c-0.347-2.149,0.531-3.16,2.699-3.482c3.2-0.474,5.944-2.018,8.376-4.143c0.458-0.402,1.069-0.629,1.61-0.938
		c-2.052,4.104-4.415,7.923-8.92,9.801C78.077,99.651,76.859,99.91,75.566,99.568z"/>
	<path fill-rule="evenodd" clip-rule="evenodd" fill="#CACCCD" d="M76.969,90.957c-0.467,0.172-0.936,0.345-1.403,0.516
		c1.004-5.065,1.177-10.435,5.254-14.378c1.094,0.535,1.065,1.416,0.737,2.391c-1.048,0.206-1.773,0.936-2.056,1.836
		c-0.899,2.876-2.04,5.711-2.003,8.804C77.321,90.403,77.145,90.681,76.969,90.957z"/>
	<path fill-rule="evenodd" clip-rule="evenodd" fill="#FAF9FA" d="M80.819,77.095c-4.077,3.943-4.25,9.313-5.254,14.378
		c-0.531,0.707-1.061,0.683-1.589-0.005c0.09-2.821,1.456-5.323,2.012-8.029c0.189-0.935,0.521-1.846,0.654-2.786
		C77.145,77.073,77.178,77.024,80.819,77.095z"/>
	<path fill-rule="evenodd" clip-rule="evenodd" fill="#FAF9FA" d="M77.498,90.125c-0.037-3.093,1.104-5.928,2.003-8.804
		c0.282-0.9,1.008-1.63,2.056-1.836C81.01,83.338,80.163,87.078,77.498,90.125z"/>
	<path fill-rule="evenodd" clip-rule="evenodd" fill="#D51C84" d="M87.966,78.083c-0.104,1.32-0.205,2.64-0.311,3.958
		C87.479,80.698,86.413,79.286,87.966,78.083z"/>
	<path fill-rule="evenodd" clip-rule="evenodd" fill="#FAF9FA" d="M99.604,75.032c-0.131-0.061-0.261-0.124-0.391-0.184
		c0.203-0.223,0.398-0.457,0.623-0.654c0.028-0.026,0.32,0.173,0.314,0.19C100.032,74.649,100.021,75.018,99.604,75.032z"/>
	<path fill-rule="evenodd" clip-rule="evenodd" fill="#D51C84" d="M59.249,76.945c1.263,2.008,0.166,4.113-0.21,5.937
		c-2.35,11.369-8.5,20.053-19.292,24.878c-12.451,5.568-22.671-1.627-25.11-13.684c-1.95-9.642,0.718-18.598,5.027-27.038
		C26.1,54.435,35.832,45.053,48.706,39.03c0.648-0.303,1.333-0.535,2.013-0.761c0.202-0.068,0.446-0.01,0.635-0.01
		c0.284,0.37,0.134,0.657-0.104,0.865c-7.082,6.197-12.1,13.884-16.057,22.321c-4.77,10.171-8.097,20.714-8.272,32.082
		c-0.035,2.266,0.45,4.444,0.851,6.625c0.48,2.607,3.951,3.731,6.642,2.178c3.339-1.929,5.701-4.853,7.611-8.126
		c3.902-6.685,6.34-13.793,5.408-21.659c-0.577-4.876-2.524-5.698-6.748-3.149c-0.336,0.203-0.709,0.343-1.065,0.514
		c-0.062-0.066-0.123-0.131-0.184-0.197c2.475-6.069,9.12-8.044,14.478-5.025c-2.178,0.06-2.683,1.876-3.424,3.363
		c-1.061,2.126-0.444,5.761,1.491,7.213c1.545,1.16,3.404,1.961,5.227,2.65C57.694,78.099,58.557,77.295,59.249,76.945z
		 M26.185,69.778c-0.984,1.673-1.302,3.534-1.522,5.421c-0.456,1.146-1.266,2.763,0.221,3.216c1.216,0.371,1.149-1.565,1.599-2.507
		c0.094-0.194,0.017-0.469,0.019-0.706c0.416-1.458,0.832-2.916,1.247-4.374c0.107-0.203,0.282-0.396,0.309-0.609
		c0.16-1.21,1.426-3.057-0.22-3.437C26.324,66.435,26.508,68.597,26.185,69.778z"/>
	<path fill-rule="evenodd" clip-rule="evenodd" fill="#282526" d="M44.021,86.859c-0.502-0.681-1.249-1.223-1.096-2.253
		c0.055-0.367-0.003-1.011-0.215-1.116c-2.998-1.489-2.693-4.976-4.44-7.199c-0.12-0.153-0.438-0.149-0.665-0.218
		c1.485-1.776,3.26-3.221,5.232-4.403c2.214-1.33,3.253-0.852,3.446,1.735C46.628,78.057,45.793,82.547,44.021,86.859z"/>
	<path fill-rule="evenodd" clip-rule="evenodd" fill="#CACCCD" d="M59.249,76.945c-0.692,0.35-1.555,1.153-2.043,0.967
		c-1.822-0.689-3.681-1.49-5.227-2.65c-1.935-1.452-2.552-5.086-1.491-7.213c0.741-1.487,1.246-3.303,3.424-3.363
		c1.143,1.115,1.062,0.966-0.111,1.602c-1.2,0.65-1.488,2.078-1.689,3.293c-0.467,2.799,1.944,5.913,4.879,6.587
		c0.416,0.096,0.569-0.139,0.717-0.408c0.361-0.659,0.857-1.44,1.624-0.92C60.127,75.379,59.774,76.254,59.249,76.945z"/>
	<path fill-rule="evenodd" clip-rule="evenodd" fill="#D51C84" d="M39.618,69.908c-0.06,0.188-0.114,0.388-0.39,0.271
		c0.07-0.156,0.14-0.31,0.208-0.467C39.495,69.777,39.556,69.842,39.618,69.908z"/>
	<path fill-rule="evenodd" clip-rule="evenodd" fill="#FAF9FA" d="M70.783,38.106c0.034,2.668-1.923,4.843-4.424,4.915
		c-2.29,0.067-3.79-1.47-3.787-3.881c0.003-2.739,1.927-4.77,4.539-4.792C69.28,34.33,70.754,35.838,70.783,38.106z"/>
	<path fill-rule="evenodd" clip-rule="evenodd" fill="#FAF9FA" d="M123.91,69.359c-1.921,0.137-2.876,1.485-3.518,3.03
		c-0.339,0.816-0.616,1.402-1.592,1.291c-0.211-2.727,2.334-5.419,4.993-5.216C124.872,68.546,123.976,69.042,123.91,69.359z"/>
	<path fill-rule="evenodd" clip-rule="evenodd" fill="#CACCCD" d="M119.654,66.485c2.248-0.167,4.496-0.284,6.743,0.024
		c0.033,0.283,0.065,0.567,0.099,0.852C124.312,66.324,121.859,67.364,119.654,66.485z"/>
	<path fill-rule="evenodd" clip-rule="evenodd" fill="#FAF9FA" d="M98.607,59.886c-0.246,0.921-0.521,2.08-0.87,3.214
		c-0.185,0.595-0.734,0.919-1.308,0.835c-0.728-0.108-0.733-0.76-0.607-1.327c0.276-1.235,0.439-2.52,1.172-3.6
		c0.272-0.402,0.711-0.705,1.224-0.568C98.908,58.625,98.525,59.211,98.607,59.886z"/>
	<path fill-rule="evenodd" clip-rule="evenodd" fill="#FAF9FA" d="M24.662,75.199c0.221-1.887,0.539-3.748,1.522-5.419
		c0.674,0.122,1.156,0.53,1.563,1.049c-0.416,1.458-0.832,2.916-1.247,4.372C25.888,75.199,25.275,75.199,24.662,75.199z"/>
	<path fill-rule="evenodd" clip-rule="evenodd" fill="#CACCCD" d="M27.748,70.829c-0.408-0.519-0.89-0.927-1.563-1.049
		c0.324-1.183,0.14-3.345,1.652-2.996c1.646,0.38,0.38,2.226,0.22,3.437C28.029,70.433,27.855,70.626,27.748,70.829z"/>
	<path fill-rule="evenodd" clip-rule="evenodd" fill="#CACCCD" d="M24.662,75.199c0.613,0,1.226,0,1.839,0.002
		c-0.002,0.238,0.075,0.513-0.019,0.707c-0.45,0.941-0.383,2.878-1.599,2.507C23.396,77.962,24.206,76.346,24.662,75.199z"/>
</g>
</svg>
