<?xml version="1.0" encoding="utf-8"?>
<!-- Generator: Adobe Illustrator 16.0.0, SVG Export Plug-In . SVG Version: 6.00 Build 0)  -->
<!DOCTYPE svg PUBLIC "-//W3C//DTD SVG 1.1//EN" "http://www.w3.org/Graphics/SVG/1.1/DTD/svg11.dtd">
<svg version="1.1" id="flag-icon-css-am" xmlns="http://www.w3.org/2000/svg" xmlns:xlink="http://www.w3.org/1999/xlink" x="0px"
	 y="0px" width="150px" height="150px" viewBox="0 0 150 150" enable-background="new 0 0 150 150" xml:space="preserve">
<path fill-rule="evenodd" clip-rule="evenodd" fill="#2A2726" d="M13.193,53.853c-4.203,0-8.176,0-12.148,0
	C1.03,53.797,1.015,53.743,1,53.687c3.897-1.069,7.77-2.236,11.701-3.164c1.976-0.466,3.365-1.385,4.643-2.987
	c4.651-5.834,10.649-9.442,18.188-10.144c4.222-0.394,8.215,0.542,11.911,2.573c1.02,0.56,1.869,0.599,2.934,0.305
	c8.79-2.424,17.591-4.803,26.389-7.196c0.212-0.058,0.42-0.146,0.635-0.179c0.471-0.073,1.07-0.285,1.339,0.195
	c0.237,0.424-0.295,0.77-0.538,1.114c-3.788,5.333-7.584,10.661-11.374,15.993c-0.275,0.388-0.678,0.711-0.703,1.389
	c7.963,0,15.906,0,24.125,0c-0.88,2.721-1.681,5.243-2.513,7.755c-1.072,3.235-1.082,3.231,2.27,3.231c18.757,0,37.514,0,56.271,0
	c2.075,0,2.043-0.01,1.42,1.866c-2.317,6.983-4.656,13.96-6.874,20.975c-0.414,1.309-0.977,1.638-2.29,1.636
	c-27.942-0.04-55.885-0.023-83.827-0.053c-1.24-0.001-2.079,0.338-2.978,1.265c-5.728,5.904-12.57,9.14-20.981,8.263
	c-0.901-0.095-1.265,0.352-1.704,0.952c-4.638,6.348-9.29,12.686-13.949,19.018c-0.476,0.649-1.002,1.265-1.544,1.859
	c-0.128,0.141-0.117,0.541-0.495,0.384c-0.618-0.258-0.037-0.544,0.034-0.728c2.961-7.682,5.945-15.355,8.939-23.025
	c0.267-0.681,0.547-1.16-0.347-1.759c-7.892-5.281-11.358-12.992-11.937-22.212C9.37,65.083,10.588,59.435,13.193,53.853z
	 M18.347,55.312l-0.01-0.011c-0.007-0.206-0.096-0.331-0.321-0.321l-0.005-0.016c0.095-0.709,0.039-1.409-0.901-1.278
	c-1.115,0.155-2.736-0.807-3.092,1.251c-0.773,1.73-1.646,3.424-1.928,5.331c-0.047,0.196-0.094,0.393-0.14,0.589
	c-0.368,0.609-0.364,1.305-0.463,1.977c-0.11,0.584-0.22,1.167-0.33,1.751c-0.084,0.753-0.169,1.506-0.253,2.26
	c-0.015,0.34-0.029,0.681-0.044,1.021c-0.009,0.436-0.018,0.871-0.026,1.306c-0.038,5.037,0.981,9.817,3.447,14.248
	c0.126,0.224,0.253,0.447,0.379,0.672c0.852,1.672,1.885,3.208,3.321,4.443c0.218,0.697,0.878,0.988,1.342,1.462
	c0.776,0.963,1.897,1.499,2.818,2.284c0.484,0.412,0.633-0.01,0.833-0.318c0.626-1.419,1.252-2.84,1.879-4.26
	c0.512-1.121,0.797-2.42,0.241-3.438c-0.747-1.368,0.078-1.543,0.946-1.667c0.457-0.066,0.848,0.076,0.878-0.553
	c0.443-1.049,0.011-1.653-0.998-1.966c-0.099-0.051-0.202-0.064-0.311-0.037l0.02,0.018c-0.245-1.208,1.203-1.061,1.513-1.852
	c-0.725-0.463-1.296,0.637-1.79,0.281c-1.533-1.104-3.151-0.241-4.715-0.384c-0.268-0.056-0.536-0.163-0.802-0.159
	c-1.197,0.015-1.641-0.301-0.87-1.496c0.372-0.576,0.479-1.323,0.706-1.993c0.734-0.563,0.58-1.446,0.791-2.197
	c0.38-0.132,0.638-0.323,0.368-0.767c-0.001-0.217-0.002-0.434-0.002-0.65c1.21-0.959,1.221-2.295,1.149-3.657l-0.014,0.015
	c0.269,0.032,0.829,0.175,0.762,0.115c-0.807-0.737,0.424-1.783-0.422-2.443c-0.112-0.767,0.413-2.168-1.317-1.32l-0.001-0.001
	c-0.053-0.372,0-0.808-0.182-1.101c-0.317-0.515-0.848-0.941-0.08-1.482c0.592-0.416,1.192-0.752,1.831,0.233
	c0.051-1.021-0.311-1.497-0.978-1.763c-0.328-0.131-0.509,0.037-0.576,0.354c-0.067,0.313-0.067,0.708-0.501,0.718
	c-0.533,0.013-0.524-0.491-0.622-0.822c-0.178-0.601-0.614-1.157-0.417-1.845c0.544-0.168,0.688,0.535,1.154,0.471
	c0.058,0.137,0.115,0.274,0.173,0.41c0.039-0.032,0.116-0.084,0.111-0.092c-0.068-0.127-0.146-0.249-0.223-0.371
	c-0.264-1.12-0.94-1.951-1.841-2.625C18.671,55.529,18.509,55.421,18.347,55.312z M39.128,89.315
	c0.05,0.023,0.099,0.048,0.148,0.072c-0.046-0.028-0.093-0.055-0.139-0.082c-0.006-0.271-0.066-0.517-0.328-0.661
	c-0.248-0.893-0.632-0.769-1.267-0.075c0.535,0.038,0.893,0.063,1.251,0.089C38.805,88.928,38.864,89.174,39.128,89.315z
	 M19.024,108.467l-0.017,0.013c0.582-0.099,0.777-0.455,0.673-1.011l-0.012,0.019c0.979-0.308,1.051-1.22,1.329-1.994l-0.009,0.022
	c0.175-0.121,0.388-0.21,0.521-0.368c2.813-3.351,5.182-7.029,7.75-10.561c3.052-4.199,6.188-8.346,9.033-12.681
	c1.522-2.32,3.479-4.317,4.792-6.773c2.34-3.24,4.68-6.481,7.162-9.917c-4.293,0-8.32,0-12.273,0
	c0.082-2.697,2.116-4.525,2.745-6.932c0.631-1.308,1.24-2.626,1.899-3.92c0.492-0.964,0.241-1.412-0.841-1.39
	c-0.792-0.625-2.011-0.311-2.927-1.314c3.193-0.07,6.142-0.157,9.087-0.314c4.872-0.262,9.757-0.304,14.637-0.439
	c0.379-0.01,0.777,0.039,1.081-0.274c0.692,0.206,0.823-0.43,1.078-0.781c2.343-3.244,4.68-6.495,6.973-9.774
	c0.954-1.362,2.087-2.616,2.976-4.515c-4.591,1.25-8.848,2.408-13.104,3.567c-1.491,0.094-2.876,0.643-4.301,1.016
	c-7.148,1.868-14.292,3.757-21.438,5.639c-0.771,0.206-1.544,0.413-2.314,0.62c-2.584,0.445-5.081,1.219-7.579,1.992
	c-3.967,1.002-7.935,2.005-11.903,3.008c-1.282,0.332-2.564,0.663-3.846,0.994c0.019,0.076,0.037,0.151,0.056,0.226
	c0.379,0,0.758,0,1.136,0c6.089-0.051,12.171-0.278,18.252-0.572c1.725-0.083,1.765,0.044,1.109,1.574
	c-2.935,6.858-5.845,13.728-8.803,20.577c-0.538,1.246-0.279,1.634,1.093,1.615c3.954-0.054,7.908-0.003,11.862,0.007
	c-0.887,0.767-2.076,0.928-3.05,1.52c-1.37,0.073-1.547,1.238-1.922,2.168c-2.135,5.287-4.246,10.584-6.356,15.882
	c-1.739,4.368-3.465,8.742-5.196,13.113c-0.004,0.254-0.033,0.556,0.341,0.523C19.04,109.003,19.074,108.741,19.024,108.467z
	 M55.015,57.202l0.05,0.036c-0.266-0.542,0.131-0.942,0.3-1.391c0.25-0.583,1.029-1.19,0.374-1.772
	c-0.321-0.284-1.259-0.459-1.585,0.433c-0.225,0.335-0.526,0.64-0.433,1.1c-0.625,1.001-0.989,1.967,0.201,2.864
	c0.154,0.116,0.109,0.497,0.157,0.755c-0.171,0.34-0.391,0.665-0.5,1.023c-0.137,0.451-0.753,1.038,0.115,1.341
	c0.593,0.207,1.211,0.116,1.456-0.643c0.148-0.462,0.3-0.923,0.451-1.385c0.291-0.53,0.602-0.992,1.264-1.17
	c0.649-0.174,1.235-0.512,1.112-1.367c0.951-0.755,1.053-1.881,1.408-2.904c-1.54-0.524-2.108,0.238-2.343,1.485
	c-0.598,0.542-0.348,1.973-1.752,1.667C55.204,57.227,55.112,57.203,55.015,57.202z M71.192,54.592
	c-0.171,0.357-0.341,0.715-0.512,1.072l-0.107-0.052l-0.057,0.104c-0.288-0.094-0.429-0.308-0.461-0.593
	c-0.083-0.715-0.318-1.139-1.196-1.147c-1.008-0.01-1.333,0.476-1.409,1.335c-0.675,1.247-1.262,2.529-1.501,3.942
	c-0.536,0.705-0.724,1.534-0.953,2.388c1.97,0.527,2.368-0.619,2.486-2.083c-0.038-0.553,0.413-0.88,0.678-1.247
	c0.467-0.648,0.432,0.203,0.662,0.314c-0.078,0.749,0.221,1.511-0.145,2.257c-0.297,0.603,0.09,0.754,0.614,0.772
	c1.716,0.059,1.439-1.434,1.863-2.381c0.325-0.521,0.586-1.067,0.632-1.693c0.237-0.583,0.473-1.165,0.71-1.747
	c0.268-0.549,0.97-1.185,0.418-1.677C72.558,53.842,71.544,53.569,71.192,54.592z M82.119,55.545
	c0.245-0.482,0.896-1.055,0.25-1.472c-0.374-0.242-1.316-0.49-1.583,0.495c-0.134,0.35-0.268,0.701-0.401,1.051
	c-0.821,1.125-0.944,2.152,0.414,2.973c0.023,1.077-1.726,2.432-0.464,3.002c1.698,0.767,1.567-1.309,2.037-2.322
	c0.236-0.476,0.639-0.7,1.134-0.863c0.848-0.278,1.329-0.889,1.393-1.799c0.38-0.818,1.114-1.485,1.07-2.56
	c-0.962-0.031-2.134-0.495-1.905,1.261c-0.961,0.495-0.548,2.191-1.984,2.269C81.808,56.896,81.867,56.219,82.119,55.545z
	 M45.727,79.398c-1.848,0.354-3.527,1.074-4.974,2.296c-0.038,0.057-0.075,0.112-0.113,0.169c0.057-0.037,0.113-0.074,0.17-0.112
	c1.875-0.291,3.547-1.015,4.935-2.336c0.023-0.051,0.046-0.102,0.069-0.153C45.784,79.308,45.755,79.353,45.727,79.398z
	 M102.16,79.547l-0.028-0.016c-0.135-0.033-0.256-0.281-0.408-0.062c-0.825,1.187-1.149,2.575-1.552,3.928
	c-0.209,0.705,0.347,0.652,0.772,0.651c2.349-0.004,4.702,0.071,7.045-0.056c2.488-0.135,4.139-1.666,4.814-4.177
	c0.972-1.933,1.563-4.011,2.303-6.031c0.569-1.043,0.941-2.157,1.224-3.305c1.175-3.021-0.208-5.208-3.377-5.284
	c-1.646-0.04-3.295-0.009-4.941,0.008c-0.515,0.006-1.162-0.174-1.239,0.668c-0.462,1.187-0.925,2.374-1.387,3.56
	c-0.773,1.354-1.24,2.817-1.575,4.33c-0.645,1.651-1.3,3.3-1.925,4.958c-0.096,0.254-0.315,0.626,0.187,0.776L102.16,79.547z
	 M60.872,54.557c-0.101,0.255-0.202,0.51-0.303,0.765c-0.526,0.806-0.738,1.73-0.994,2.639c-0.175,0.329-0.38,0.646-0.521,0.989
	c-1.13,2.74-1.126,2.711,1.825,2.72c1.643,0.005,2.919-0.375,3.132-2.278c0.511-0.944,0.986-1.903,1.237-2.956
	c0.451-0.808,0.526-1.565-0.345-2.149C64.076,53.733,61.587,53.913,60.872,54.557z M98.593,79.637
	c1.104,0.251,0.736-0.733,0.998-1.189c0.781-2.062,1.562-4.123,2.343-6.185c0.312-0.273,0.342-0.655,0.395-1.028
	c0.198-0.563,0.396-1.125,0.594-1.688c0.451-1.109,0.909-2.216,1.352-3.33c0.114-0.29,0.335-0.616,0.071-0.91
	c-0.381-0.424-3.722,0.044-4.194,0.562c-0.553,1.052-0.996,2.146-1.278,3.302c-0.313,0.699-0.809,1.339-0.685,2.176
	c-0.489-0.993-0.526-2.084-0.691-3.148c-0.499-3.224-0.647-3.31-3.975-2.998c-0.711,0.067-0.979,0.328-0.936,0.996
	c-2.052,4.137-3.368,8.557-4.943,12.876c-0.689,1.132-0.952,2.435-1.476,3.631c-0.487,1.114-0.133,1.378,1.005,1.374
	c2.877-0.007,2.882,0.042,3.844-2.682c0.144-0.408,0.223-0.838,0.332-1.258c1.101-1.919,1.401-4.181,2.591-6.063
	c0.245,1.774,0.491,3.55,0.736,5.323c-0.061,0.426-0.12,0.851-0.182,1.276c-0.34,0.601-0.563,1.242-0.639,1.932
	c-0.245,0.461-0.929,1.252-0.137,1.359c1.253,0.17,2.639,0.494,3.886-0.236c0.336-0.395,0.44-0.877,0.528-1.367
	c0.261-0.634,0.553-1.259,0.769-1.907c0.102-0.305,0.541-0.832-0.295-0.856C98.605,79.6,98.595,79.64,98.593,79.637z M59.649,68.932
	c0.75-0.047,1.499-0.116,2.248-0.132c0.453-0.01,0.74-0.102,0.612-0.635c0.779-0.809,1.085-1.813,1.302-2.99
	c-3.108,0-6.109-0.001-9.11,0.001c-0.494,0.001-1.035-0.046-1.015,0.704c-0.569,0.8-1.092,1.845-0.865,2.638
	c0.197,0.689,1.445,0.078,2.183,0.34c0.128,0.046,0.214,0.21,0.319,0.319c-1.611,3.414-2.594,7.063-3.987,10.56
	c-0.257,0.594-0.548,1.176-0.766,1.783c-0.907,2.537-0.899,2.563,1.812,2.52c0.684-0.011,1.569,0.399,1.931-0.68
	c0.551-1.644,1.14-3.274,1.712-4.91c0.529-1.424,1.059-2.847,1.588-4.27l0.03,0.01c0.639-1.043,0.952-2.208,1.261-3.373
	c0.012-0.107,0.024-0.215,0.037-0.323c0.063-0.063,0.072-0.134,0.025-0.211C59.547,70.01,59.086,69.212,59.649,68.932z
	 M75.741,74.121c-0.686,1.744-1.371,3.488-2.057,5.231c-0.595,2.117-0.281,3.128,1.268,4.063c2.644,1.598,7.339,0.612,9.166-1.922
	l-0.021-0.024c0.429-0.334,0.63-0.774,0.615-1.315c0.719-1.912,1.438-3.825,2.155-5.737c0.798-1.931,1.678-3.831,2.166-5.876
	c0.357-0.843,0.721-1.684,1.071-2.53c0.14-0.337,0.402-0.848-0.257-0.803c-1.205,0.082-2.468-0.44-3.613,0.306
	c-0.522,1.424-1.046,2.847-1.567,4.271c-0.527,0.821-0.879,1.713-1.093,2.664c-0.221,0.185-0.265,0.422-0.2,0.691
	c-0.198,0.305-0.392,0.609-0.29,1.001c-0.295,0.261-0.365,0.608-0.376,0.978c-0.889,1.561-1.481,3.239-1.965,4.962
	c-0.663,0.958-1.521,0.694-2.274,0.239c-0.755-0.457-0.538-1.251-0.289-1.909c0.528-1.394,1.1-2.769,1.303-4.26
	c0.105-0.084,0.212-0.167,0.317-0.251c0.269-0.246,0.375-0.543,0.284-0.902c0.864-1.48,1.404-3.078,1.729-4.754
	c0.687-0.868,0.934-1.9,1.21-3.071c-1.125,0-2.152,0.038-3.175-0.011c-0.795-0.039-1.077,0.334-1.067,1.057
	c-0.492,1.181-0.984,2.363-1.477,3.544C76.726,71.193,76.026,72.583,75.741,74.121z M75.768,56.341
	c0.442-1.303,1.547-0.934,2.472-0.946c0.635-0.008,0.854-0.366,0.982-0.884c0.091-0.369-0.114-0.517-0.424-0.499
	c-1.423,0.081-3.002-0.485-4.107,0.958c-0.799,0.958-1.001,2.164-1.367,3.301c-0.466,0.897-1.228,1.799-0.422,2.827
	c0.743,0.948,1.88,0.665,2.896,0.678c0.607,0.008,0.886-0.387,0.929-0.927c0.045-0.578-0.43-0.547-0.795-0.533
	c-1.709,0.067-1.193-0.904-0.856-1.799c0.321-0.012,0.645-0.055,0.962-0.031c0.71,0.054,1.18-0.262,1.243-0.948
	c0.079-0.856-0.656-0.452-1.03-0.523C75.812,56.932,75.773,56.675,75.768,56.341z M51.299,57.562
	c-0.337-0.783-1.024-0.262-1.533-0.408c-0.43-0.122-1.059,0.238-1.25-0.403c-0.071-0.238,0.128-0.651,0.332-0.858
	c0.378-0.384,0.854-0.771,1.416-0.294c0.54,0.458,1.081,0.353,1.649,0.118c0.829-1.071,0.32-1.593-0.787-1.697
	c-1.051-0.099-2.13-0.113-3.06,0.561c-0.488,0.354-0.984,0.701-1.176,1.319c-0.16,0.219-0.388,0.415-0.468,0.659
	c-0.604,1.831-0.588,1.835,1.355,1.963c0.459,0.03,1.016-0.182,1.3,0.418c-0.524,1.188-1.268,1.629-2.57,0.999
	c-0.43-0.208-1.269-0.31-1.402,0.606c-0.084,0.576,0.228,0.895,0.782,1.06c1.987,0.591,3.996-0.394,4.751-2.354
	C50.858,58.688,51.079,58.125,51.299,57.562z M25.586,41.765c-0.688,0.399-1.514,0.593-1.983,1.321
	c-0.73,0.589-1.574,1.067-1.963,1.993c-1.528,0.342-1.897,1.873-2.815,2.831c-0.398,0.416-0.021,0.774,0.619,0.593
	c2.455-0.696,5.036-0.954,7.202-2.563c1.337-0.993,2.898-1.66,4.465-2.281c3.136-1.244,6.399-1.365,9.697-1.214
	c1.408,0.064,2.677-0.513,4.014-0.767c0.442-0.083,1.071-0.24,1.076-0.844c0.004-0.521-0.585-0.615-0.966-0.752
	c-2.213-0.798-4.475-1.405-6.835-1.572c-0.77,0.016-1.54,0.032-2.31,0.047c-0.866,0.131-1.732,0.261-2.599,0.39
	C30.464,39.375,27.898,40.228,25.586,41.765z M72.692,65.537c-0.615,1.028-0.892,2.176-1.19,3.318
	c-0.67,2.207-1.905,3.848-4.315,4.314c-0.634-0.215-0.226-0.651-0.213-1.003c0.233-0.14,0.256-0.362,0.241-0.601
	c0.497-1.063,0.977-2.133,1.081-3.324c0.637-0.657,0.74-1.561,1.083-2.354c0.136-0.313,0.19-0.737-0.313-0.685
	c-1.206,0.125-2.477-0.464-3.619,0.325c-0.5,1.329-1,2.659-1.501,3.987c-0.644,1.128-1.067,2.341-1.39,3.594
	c-0.777,2.094-1.554,4.188-2.331,6.282c-0.422,0.997-0.82,2.004-1.272,2.986c-0.599,1.305-0.291,1.644,1.203,1.748
	c1.928,0.134,2.917-0.519,3.315-2.337c0.15-0.686,0.43-1.343,0.651-2.015c0.029-0.124,0.058-0.249,0.086-0.374
	c0.607-1.658,1.241-3.292,3.339-3.546c0.335-0.077,0.671-0.155,1.005-0.233c0.118,1.393-0.821,2.475-1.099,3.752
	c-0.337,0.848-0.707,1.684-1.007,2.544c-0.901,2.581-0.788,2.013,1.505,2.169c1.418,0.097,2.267-0.249,2.565-1.742
	c0.179-0.896,0.588-1.746,0.894-2.617c0.679-1.854,1.357-3.709,2.036-5.564c0.666-1.299,1.167-2.661,1.557-4.066
	c0.486-0.541,0.56-1.192,0.5-1.878c0.778-0.618,0.771-1.632,1.21-2.422c0.13-0.235,0.109-0.623-0.262-0.593
	C75.197,65.301,73.885,64.786,72.692,65.537z M131.021,80.174c0.237-0.198,0.296-0.453,0.229-0.745
	c0.357-0.949,0.716-1.897,1.073-2.847c0.666-0.351,0.912-0.099,0.821,0.589c-0.085,0.643-0.276,1.276-0.11,1.933
	c-0.129,1.302-0.271,2.603-0.381,3.907c-0.034,0.406-0.152,0.832,0.471,1.035c2.713,0.882,4.133-0.149,4.048-2.987
	c0.434-1.948,0.059-3.987,0.657-5.918c0.937,0.02,1.191-0.952,1.878-1.294c0.423-0.053,0.603-0.36,0.741-0.709
	c0.601-0.682,1.014-1.467,1.296-2.326c0.128-0.326,0.255-0.652,0.384-0.979c0.046-0.118,0.092-0.235,0.139-0.353
	c1.239-2.929,0.369-4.282-2.77-4.298c-1.423-0.007-2.852-0.064-4.271,0.021c-0.938,0.056-1.954-0.412-2.816,0.324
	c-0.489,1.329-0.979,2.658-1.469,3.987c-0.673,1.194-1.163,2.458-1.457,3.796c-0.849,2.254-1.697,4.507-2.546,6.76
	c-0.41,1.009-0.833,2.012-1.224,3.029c-0.253,0.657-0.072,0.948,0.712,1.02c2.956,0.268,3.063,0.234,4.126-2.549
	C130.727,81.11,130.866,80.64,131.021,80.174z M119.338,79.077c0.559-2.415,0.934-2.874,3.216-2.673
	c1.855,0.164,2.465-0.756,2.768-2.266c0.58-0.835,0.621-1.389-0.654-1.314c-0.538,0.031-1.086-0.044-1.62,0.016
	c-1.206,0.134-1.232-0.386-0.822-1.292c0.4-0.884,0.72-1.805,1.073-2.71c1.523-0.018,3.047-0.016,4.568-0.065
	c0.483-0.016,1.146,0.263,1.318-0.551c0.053-0.218,0.104-0.436,0.155-0.654c0.31-0.729,0.619-1.459,1.004-2.367
	c-2.314,0-4.416-0.042-6.513,0.02c-0.919,0.027-1.812,0.314-2.496,1.012c-0.849,0.325-1.208,1.018-1.39,1.845
	c-0.808,0.756-1.327,1.675-1.568,2.754c-0.479,0.94-0.787,1.938-1.008,2.967c-0.936,1.914-1.615,3.926-2.258,5.951
	c-0.428,2.487,0.538,4.037,2.813,4.252c1.523,0.145,3.069,0.05,4.604,0.081c0.511,0.011,0.76-0.22,0.986-0.672
	c1.284-2.558,1.204-2.715-1.581-2.717c-0.219,0-0.44-0.021-0.657,0.004C120.058,80.838,119.394,80.325,119.338,79.077z
	 M38.095,86.336c0.858-0.432,1.708-0.854,2.548-1.294c0.028-0.015-0.001-0.266-0.047-0.281c-0.848-0.292-1.437,0.45-2.19,0.567
	c-0.205,0.031-0.41,0.134-0.587,0.246c-0.198,0.125-0.289,0.348-0.155,0.551C37.737,86.233,37.932,86.261,38.095,86.336z
	 M24.439,63.836c0.444-1.449-0.681-1.598-1.292-2.095c-0.065-0.052-0.334,0.028-0.399,0.122c-0.127,0.185-0.124,0.45,0.086,0.576
	C23.388,62.772,23.909,63.137,24.439,63.836z M42.339,91.114c-0.05-0.145-0.101-0.289-0.151-0.434
	c-0.528,0.181-1.083,0.312-1.571,0.568c-0.174,0.092,0.043,0.451,0.236,0.499C41.532,91.919,41.729,91.123,42.339,91.114z
	 M45.008,90.096c-0.029-0.256-0.199-0.389-0.43-0.39c-0.23-0.001-0.422,0.132-0.426,0.387c-0.006,0.323,0.172,0.497,0.505,0.459
	C44.922,90.523,44.992,90.326,45.008,90.096z M42.314,61.159c0.028-0.579,0.542-0.945,0.17-1.461
	C41.892,60.053,41.824,60.444,42.314,61.159z M23.372,64.525c0.229-0.033,0.415-0.057,0.312-0.294
	c-0.037-0.087-0.167-0.204-0.235-0.193c-0.123,0.02-0.231,0.127-0.347,0.197C23.2,64.34,23.297,64.445,23.372,64.525z
	 M36.869,89.027c0.123-0.272-0.046-0.336-0.188-0.323c-0.127,0.011-0.299,0.091-0.358,0.193c-0.093,0.163,0.035,0.302,0.206,0.289
	C36.659,89.177,36.782,89.071,36.869,89.027z M43.837,58.827c0.04-0.093,0.128-0.206,0.102-0.272
	c-0.026-0.066-0.169-0.086-0.262-0.126c-0.039,0.092-0.129,0.206-0.103,0.271C43.603,58.767,43.745,58.787,43.837,58.827z
	 M42.201,93.105c-0.095-0.051-0.179-0.133-0.263-0.132c-0.083,0-0.167,0.083-0.25,0.13c0.083,0.047,0.166,0.13,0.249,0.131
	C42.021,93.235,42.105,93.156,42.201,93.105z"/>
<path fill-rule="evenodd" clip-rule="evenodd" fill="#96C94F" d="M63.652,50.631c-0.304,0.313-0.701,0.264-1.081,0.274
	c-4.879,0.136-9.765,0.177-14.637,0.439c-2.945,0.158-5.894,0.245-9.087,0.314c0.917,1.003,2.135,0.689,2.927,1.314
	c-0.692,1.647-1.383,3.294-2.076,4.942c-0.144,0.073-0.371,0.109-0.419,0.223c-1.195,2.777-1.941,5.793-4.303,7.948
	c-0.154,0.14-0.09,0.519-0.127,0.786c-1.379-0.082-1.184,0.784-0.993,1.647c-0.918,0.1-1.157,1.087-1.893,1.452
	c-0.375,0.187-0.743,0.762-1.122,0.458c-1.609-1.292-3.588-0.328-5.284-0.971c0.056-0.955,0.499-1.781,0.862-2.636
	c1.907-4.485,3.828-8.963,5.695-13.464c0.777-1.874,0.621-2.07-1.357-2.036c-4.818,0.082-9.635,0.187-14.452,0.283
	c0.195-0.086,0.383-0.198,0.586-0.255c3.035-0.861,6.179-1.322,9.126-2.505c1.901-0.392,3.804-0.783,5.706-1.174
	c1.194,0.971,2.654,1.552,3.849,2.462c1.104,0.841,2.206,0.973,3.376,0.763c1.261-0.227,2.511-0.19,3.769-0.228
	c4.548-0.135,9.097-0.271,13.646-0.407c0.392-0.002,0.784-0.004,1.176-0.005c1.953,0.326,3.862-0.337,5.803-0.257
	C63.447,50.21,63.549,50.421,63.652,50.631z"/>
<path fill-rule="evenodd" clip-rule="evenodd" fill="#96C94F" d="M31.848,77.344c0.974-0.592,2.163-0.753,3.05-1.52
	c0.72-0.145,1.441-0.289,2.163-0.433c0,2.238,0,4.477,0,6.764c0.86-0.776,0.668-1.706,0.626-2.712
	c-0.091-2.185-0.417-4.474,1.718-6.097c1.18-0.897,2.199-1.872,2.611-3.5c0.958-3.791,1.087-3.786,4.88-3.609
	c0.361,0.016,0.82-0.16,1.034,0.285c0.208,0.432-0.186,0.685-0.394,0.995c-1.433,2.134-3.125,4.089-4.388,6.344
	c-0.246,0.44-0.628,0.815-0.064,1.271c-1.313,2.455-3.269,4.452-4.792,6.772c-2.846,4.335-5.981,8.481-9.033,12.681
	c-2.568,3.531-4.937,7.21-7.75,10.561c-0.132,0.158-0.346,0.247-0.521,0.368c0.042-0.321,0.02-0.668,0.137-0.96
	c2.585-6.409,5.252-12.787,7.751-19.229C29.902,82.682,31.34,80.182,31.848,77.344z"/>
<path fill-rule="evenodd" clip-rule="evenodd" fill="#A1A5A6" d="M12.09,60.27c0.282-1.907,1.155-3.601,1.928-5.331
	c1.06,0.593,0.846,1.9,1.518,2.71c-0.426-0.161-0.853-0.322-1.39-0.526c0.069,0.845,0.563,1.469,0.586,2.256
	c0.101,3.393,1.314,6.486,2.754,9.505c0.26,0.545,0.387,1.176,1.266,0.793c0.453-0.197,0.602,0.209,0.484,0.551
	c-0.285,0.835,0.155,1.686-0.178,2.553c-0.214,0.557-0.195,1.341,0.613,1.678c-0.227,0.67-0.334,1.417-0.706,1.993
	c-0.771,1.195-0.327,1.511,0.87,1.496c0.267-0.004,0.535,0.104,0.802,0.158c-0.066,0.881,0.502,1.536,0.812,2.283
	c0.237,0.574,0.446,1.414-0.11,1.644c-1.358,0.562-1.093,1.483-0.787,2.438c0.365,1.136,0.667,2.279,0.941,3.443
	c0.327,1.386,0.27,2.969,1.479,4.05c-0.199,0.309-0.348,0.73-0.833,0.318c-0.921-0.785-2.042-1.321-2.818-2.284
	c-0.001-0.126-0.004-0.251-0.005-0.377c0.484-0.007,0.724-0.242,0.593-0.726c-0.508-1.875-1.038-3.744-1.545-5.619
	c-0.1-0.372-0.319-0.547-0.686-0.575c-0.209-0.004-0.418-0.008-0.628-0.012c0.282-0.426,1.263-0.751,0.863-1.181
	c-0.88-0.949-0.301-2.167-0.882-3.121c-0.32-0.526-0.548-1.074-1.298-0.998c-0.01-0.209-0.02-0.418-0.031-0.627
	c0.481-0.54,0.075-1.094,0.025-1.642c0.67-1.496,0.137-2.659-1.011-3.653c0.006-0.213,0.012-0.426,0.019-0.639
	c0.398-1.981-0.274-3.697-1.326-5.317c-0.001-0.428-0.002-0.856-0.003-1.285C13.924,62.517,13.408,60.968,12.09,60.27z"/>
<path fill-rule="evenodd" clip-rule="evenodd" fill="#363334" d="M38.096,38.509c2.36,0.167,4.623,0.774,6.835,1.572
	c0.38,0.138,0.97,0.231,0.966,0.752c-0.005,0.604-0.634,0.761-1.076,0.844c-1.337,0.254-2.606,0.832-4.014,0.767
	c-3.298-0.151-6.561-0.029-9.697,1.214c-1.567,0.621-3.128,1.289-4.465,2.281c-2.166,1.608-4.747,1.866-7.202,2.563
	c-0.639,0.181-1.017-0.177-0.619-0.593c0.918-0.958,1.288-2.489,2.815-2.831c0.218-0.021,0.452,0.004,0.649-0.068
	c4.607-1.68,9.231-3.315,13.789-5.12C36.754,39.623,37.919,39.665,38.096,38.509z"/>
<path fill-rule="evenodd" clip-rule="evenodd" fill="#3EB049" d="M37.061,75.392c-0.721,0.144-1.443,0.288-2.163,0.433
	c-3.954-0.01-7.908-0.061-11.862-0.007c-1.372,0.019-1.63-0.369-1.093-1.615c2.958-6.849,5.868-13.718,8.803-20.577
	c0.655-1.53,0.616-1.657-1.109-1.574c-6.082,0.294-12.164,0.521-18.252,0.572c0.902-0.222,1.804-0.445,2.706-0.668
	c0.739-0.116,1.478-0.232,2.216-0.348c4.817-0.096,9.634-0.201,14.452-0.283c1.978-0.034,2.135,0.162,1.357,2.036
	c-1.868,4.501-3.789,8.979-5.695,13.464c-0.364,0.855-0.806,1.681-0.862,2.636c-0.377,0.242-0.62,0.564-0.614,1.033
	c-0.42,0.951-0.827,1.91-1.266,2.853c-0.517,1.11-0.264,1.516,1.032,1.497c4.117-0.058,8.236-0.008,12.354,0.001
	C37.063,75.026,37.062,75.208,37.061,75.392z"/>
<path fill-rule="evenodd" clip-rule="evenodd" fill="#E7E637" d="M37.061,75.392c0.001-0.184,0.003-0.365,0.005-0.549
	c1.874-2.193,4.166-4.111,4.656-7.204c0.067-0.421,0.674-1.085-0.216-1.078c-2.222,0.019-4.476-0.399-6.669,0.299l0.013,0.013
	c0.038-0.268-0.026-0.646,0.127-0.786c2.361-2.155,3.107-5.17,4.303-7.948c0.049-0.114,0.275-0.15,0.42-0.223
	c0.243,0.391,0.628,0.386,1.018,0.368c-0.629,2.407-2.663,4.235-2.745,6.932c3.953,0,7.979,0,12.273,0
	c-2.481,3.436-4.822,6.676-7.162,9.917c-0.564-0.456-0.182-0.831,0.064-1.271c1.263-2.255,2.955-4.21,4.388-6.344
	c0.208-0.31,0.602-0.563,0.394-0.995c-0.214-0.445-0.673-0.269-1.034-0.285c-3.792-0.177-3.921-0.182-4.88,3.609
	c-0.412,1.628-1.431,2.603-2.611,3.5c-2.135,1.623-1.809,3.912-1.718,6.097c0.042,1.006,0.234,1.936-0.626,2.712
	C37.061,79.868,37.061,77.63,37.061,75.392z"/>
<path fill-rule="evenodd" clip-rule="evenodd" fill="#5B5C5E" d="M15.536,57.649c-0.672-0.811-0.458-2.117-1.518-2.71
	c0.356-2.059,1.978-1.097,3.092-1.252c0.94-0.131,0.996,0.569,0.901,1.278c-0.733,0.16-0.968,0.703-0.904,1.35
	c0.241,2.406,1.541,4.427,2.48,6.575c0.238,0.544,0.794,0.727,1.396,0.664l0.001,0.001c0.306,0.573,0.79,0.968,1.317,1.319
	c0.847,0.66-0.384,1.707,0.422,2.443c0.067,0.061-0.493-0.083-0.762-0.115c-0.046-0.023-0.092-0.046-0.138-0.068
	c0.051,0.017,0.102,0.035,0.152,0.053c0.072,1.362,0.061,2.698-1.15,3.657c-0.45-0.089-0.765-0.706-0.685-0.787
	c0.958-0.954-0.052-1.403-0.521-1.81c-0.883-0.764-0.387-2.089-1.236-2.769c-0.531-0.425-0.525-0.891-0.667-1.484
	C17.199,61.821,17.898,59.188,15.536,57.649z"/>
<path fill-rule="evenodd" clip-rule="evenodd" fill="#3EB049" d="M31.848,77.344c-0.508,2.838-1.946,5.338-2.971,7.982
	c-2.499,6.442-5.166,12.82-7.751,19.229c-0.118,0.292-0.095,0.639-0.137,0.96l0.009-0.022c-1.065,0.249-1.061,1.213-1.329,1.994
	l0.012-0.019c-0.457,0.182-0.638,0.548-0.673,1.011l0.017-0.013c-0.217,0.014-0.434,0.027-0.651,0.04
	c1.731-4.371,3.458-8.745,5.196-13.113c2.11-5.298,4.221-10.595,6.356-15.882C30.3,78.582,30.478,77.417,31.848,77.344z"/>
<path fill-rule="evenodd" clip-rule="evenodd" fill="#F0F0F0" d="M63.652,50.631c-0.103-0.21-0.205-0.421-0.307-0.631
	c0.75-1.106,1.796-1.999,2.338-3.254c2.405-2.975,4.543-6.127,6.715-9.59c-2.876,0.596-5.388,1.138-7.839,1.925
	c-0.862,0.278-1.585,0.685-1.141,1.758c0.677,1.638,0.606,3.151-0.561,4.545c-1.793,0.585-3.084,1.904-4.485,3.063
	c-0.139-0.115-0.278-0.23-0.417-0.346c0.363-1.461,1.988-1.792,2.662-2.975c1.289,0.23,2.188-0.729,2.359-1.567
	c0.272-1.338-0.512-2.693-0.914-4.023c-0.011-0.035-0.307,0.016-0.471,0.028c-0.005-0.146-0.011-0.292-0.017-0.437
	c4.257-1.159,8.514-2.317,13.104-3.567c-0.889,1.899-2.022,3.153-2.976,4.515c-2.293,3.279-4.63,6.53-6.973,9.774
	C64.475,50.202,64.344,50.837,63.652,50.631z"/>
<path fill-rule="evenodd" clip-rule="evenodd" fill="#F0F0F0" d="M14.281,83.422c-2.466-4.431-3.485-9.211-3.447-14.248
	c0.524-0.001,1.049-0.002,1.575-0.003c0.318,0.119,0.637,0.239,0.956,0.357c0.105,0.31,0.21,0.62,0.316,0.929
	c-1.027-0.027-0.986,0.666-0.927,1.372c-0.137,0.162-0.418,0.377-0.382,0.476c0.112,0.309,0.447,0.134,0.689,0.176l-0.01-0.01
	c0.698,0.615,0.978,1.41,0.992,2.317c0.045,0.863,0.147,1.682,1.308,1.673c0,0.102,0.003,0.203,0.012,0.305
	c-0.828,0.902-0.571,1.78,0.057,2.65c0.003,0.256,0.04,0.497,0.283,0.647c-0.285,0.996,0.403,1.754,0.646,2.62
	C15.658,82.93,14.969,83.176,14.281,83.422z"/>
<path fill-rule="evenodd" clip-rule="evenodd" fill="#7D7E80" d="M22.973,91.965c-1.209-1.081-1.152-2.664-1.479-4.05
	c-0.274-1.164-0.576-2.308-0.941-3.443c-0.307-0.955-0.571-1.877,0.787-2.438c0.556-0.229,0.348-1.069,0.11-1.644
	c-0.31-0.747-0.878-1.402-0.812-2.283c1.563,0.144,3.182-0.72,4.715,0.385c0.493,0.355,1.064-0.744,1.79-0.281
	c-0.311,0.791-1.758,0.644-1.513,1.852c-0.442-0.248-1.23-1.08-1.223,0.012c0.008,1.131-0.708,0.718-1.111,0.976
	c-0.286-0.368-0.604-0.442-0.895-0.033c-0.127,0.18-0.09,0.457,0.139,0.533c0.403,0.138,0.452-0.376,0.742-0.477
	c-0.188,0.754-0.404,1.503-0.558,2.264c-0.228,1.125,1.163,3.935,2.13,4.37C24.226,89.125,23.6,90.546,22.973,91.965z"/>
<path fill-rule="evenodd" clip-rule="evenodd" fill="#7D7E80" d="M15.536,57.649c2.363,1.539,1.664,4.172,2.182,6.346
	c0.142,0.593,0.136,1.059,0.667,1.484c0.85,0.68,0.353,2.005,1.236,2.769c0.47,0.407,1.479,0.855,0.521,1.81
	c-0.081,0.081,0.234,0.698,0.685,0.787c0.001,0.217,0.002,0.434,0.002,0.649c-0.44,0.105-0.506,0.389-0.366,0.768
	c-0.211,0.751-0.057,1.634-0.791,2.197c-0.809-0.337-0.827-1.121-0.613-1.678c0.333-0.867-0.107-1.718,0.178-2.553
	c0.117-0.342-0.032-0.749-0.484-0.551c-0.879,0.383-1.006-0.248-1.266-0.793c-1.439-3.019-2.653-6.112-2.754-9.505
	c-0.023-0.787-0.517-1.411-0.586-2.256C14.683,57.327,15.11,57.488,15.536,57.649z"/>
<path fill-rule="evenodd" clip-rule="evenodd" fill="#CDCDCD" d="M87.643,79.073c1.575-4.319,2.892-8.739,4.943-12.876
	c0.825,0.654-0.009,1.325,0.021,1.987c-0.725,1.042,0.023,1.256,0.802,1.303c1.147,0.069,2.302,0.029,3.453,0.036
	c0.038,1.103,0.527,2.155,0.367,3.28c-1.145,0.681-2.016,0.325-2.618-0.765c-0.407-0.733-0.547-0.461-0.68,0.117
	c-0.32,0.547-0.472,1.379-1.297,1.285c-2.566-0.291-2.992,1.607-3.632,3.367c-0.391,1.075-0.276,1.682,1.048,1.63
	c0.492-0.02,1.178-0.216,1.197,0.674c-1.079-0.01-2.159-0.02-3.238-0.028C87.887,79.08,87.765,79.077,87.643,79.073z"/>
<path fill-rule="evenodd" clip-rule="evenodd" fill="#F4F4F4" d="M137.829,75.141c-0.599,1.931-0.224,3.97-0.657,5.918
	c-0.144,0.004-0.286,0.007-0.428,0.01c0.056-0.252,0.045-0.486-0.174-0.667c-0.01-0.45-0.021-0.9-0.03-1.351
	c-0.055-0.285-0.191-0.604-0.484-0.575c-1.589,0.155-2.525-0.28-2.185-2.123c0.067-0.367-0.295-0.538-0.662-0.563
	c-0.568-0.037-1.002,0.067-0.886,0.792c-0.357,0.949-0.716,1.897-1.073,2.847c-0.14-0.105-0.278-0.213-0.418-0.318
	c0.014-0.294-0.065-0.518-0.371-0.644c-0.667-0.275-1.753,0.462-2.002-0.482c-0.165-0.625,0.356-1.439,0.598-2.159
	c0.155-0.462,0.361-0.907,0.544-1.359c2.276-0.003,4.553-0.017,6.829,0C136.979,74.47,137.694,74.233,137.829,75.141z"/>
<path fill-rule="evenodd" clip-rule="evenodd" fill="#D9D9D9" d="M112.804,79.816c-0.676,2.511-2.326,4.042-4.814,4.177
	c-2.343,0.127-4.696,0.052-7.045,0.056c-0.426,0.001-0.981,0.054-0.772-0.651c0.402-1.353,0.727-2.741,1.552-3.928
	c0.152-0.22,0.273,0.028,0.409,0.062c-0.284,0.593-0.605,1.397,0.078,1.692c0.84,0.363,1.888,0.468,2.585-0.512
	c1.38,0.746,2.858,0.184,4.284,0.33c1.044,0.47,2.073,0.872,2.713-0.571c0.373-0.177,0.475-0.709,0.963-0.733L112.804,79.816z"/>
<path fill-rule="evenodd" clip-rule="evenodd" fill="#E8E8E8" d="M117.369,73.798c0.221-1.028,0.528-2.026,1.008-2.967
	c0.962,0.136,0.433,0.695,0.254,1.059c-0.482,0.981-0.101,1.181,0.86,1.275c2.254,0.222,2.047-1.646,2.601-2.885
	c0.353-0.79,0.066-1.156-0.761-1.097c-0.824,0.059-1.412-0.125-1.386-1.105c0.182-0.827,0.541-1.52,1.39-1.845
	c0.42,0.879,1.183,0.935,2.047,0.984c1.985,0.112,4.014-0.42,5.958,0.352c-0.052,0.218-0.103,0.436-0.155,0.654
	c-1.556-0.011-3.111-0.037-4.666-0.026c-0.494,0.003-1.145-0.196-1.221,0.642c-0.354,0.905-0.673,1.826-1.073,2.71
	c-0.41,0.906-0.384,1.426,0.822,1.292c0.534-0.06,1.082,0.016,1.62-0.016c1.275-0.074,1.234,0.479,0.654,1.314
	c-2.529-0.001-5.06-0.002-7.589-0.003C117.611,74.023,117.491,73.91,117.369,73.798z"/>
<path fill-rule="evenodd" clip-rule="evenodd" fill="#D9D9D9" d="M84.118,81.493c-1.827,2.534-6.522,3.52-9.166,1.922
	c-1.548-0.935-1.863-1.945-1.268-4.063c0.24,0.025,0.48,0.052,0.719,0.076c0.019,0.32,0.037,0.641,0.055,0.96
	c0.817,1.763,2.128,0.964,3.347,0.644c1.08-0.06,2.2,0.282,3.228-0.319c0.083,0.634,0.537,0.673,1.043,0.681
	C82.757,81.405,83.438,81.458,84.118,81.493z"/>
<path fill-rule="evenodd" clip-rule="evenodd" fill="#E8E8E8" d="M119.338,79.077c0.056,1.248,0.72,1.761,1.939,1.62
	c0.217-0.025,0.438-0.004,0.657-0.004c2.785,0.002,2.865,0.159,1.581,2.717c-0.227,0.452-0.476,0.683-0.986,0.672
	c-1.535-0.031-3.081,0.063-4.604-0.081c-2.275-0.215-3.241-1.765-2.813-4.252c0.193,0,0.386,0,0.578,0
	c0.035,0.462,0.07,0.923,0.628,1.082c0.044,0.462,0.153,0.88,0.737,0.882c1.955,0.005,3.91,0.002,5.864,0.002
	c-1.307-0.626-2.876,0.208-4-1.051c-0.235-0.387-0.259-0.804-0.183-1.235c0.1-0.119,0.2-0.238,0.3-0.358
	C119.138,79.072,119.237,79.073,119.338,79.077z"/>
<path fill-rule="evenodd" clip-rule="evenodd" fill="#F4F4F4" d="M53.687,65.879c-0.02-0.75,0.521-0.703,1.015-0.704
	c3.001-0.003,6.001-0.001,9.11-0.001c-0.217,1.178-0.523,2.182-1.302,2.99c-0.745-0.023-1.489-0.045-2.233-0.068
	c-1.017-0.824-3.643-0.824-4.658,0c-0.318,0-0.635-0.001-0.953-0.001c-0.011-0.47-0.507-0.571-0.69-0.91
	C53.937,66.737,54.158,66.232,53.687,65.879z"/>
<path fill-rule="evenodd" clip-rule="evenodd" fill="#F0F0F0" d="M119.338,79.077c-0.101-0.004-0.2-0.005-0.302-0.006
	c-0.127-0.786-0.744-0.655-1.26-0.64c-1.245,0.034-1.5-0.424-0.997-1.575c0.381-0.873,0.887-1.728,0.953-2.721
	c2.529,0.001,5.06,0.002,7.589,0.003c-0.303,1.51-0.912,2.43-2.768,2.266C120.271,76.203,119.896,76.662,119.338,79.077z"/>
<path fill-rule="evenodd" clip-rule="evenodd" fill="#F0F0F0" d="M101.934,72.263c-0.781,2.062-1.562,4.123-2.343,6.185
	c-1.299-0.643-2.684-0.264-4.031-0.328c-0.459-1.292-0.438-2.663-0.652-3.995c1.521,0,3.042-0.01,4.562,0.003
	c0.716,0.005,1.317-0.109,1.395-0.987C101.377,73.038,101.087,71.957,101.934,72.263z"/>
<path fill-rule="evenodd" clip-rule="evenodd" fill="#CDCDCD" d="M51.337,79.736c1.393-3.497,2.376-7.146,3.987-10.56
	c0.211-0.002,0.422-0.003,0.633-0.006c0.909,0.681,1.966,0.166,2.935,0.361c0.025,0.251,0.05,0.501,0.076,0.751
	c0.046,0.077,0.038,0.147-0.025,0.211c-0.237,0.082-0.289,0.185-0.037,0.323c-0.31,1.165-0.622,2.33-1.261,3.373
	c-0.865-0.7-2.686-0.562-3.643,0.275c-0.326,1.247-1.144,2.314-1.313,3.619c-0.394,0.209-0.335,0.588-0.354,0.939
	c-0.186,0.242-0.372,0.484-0.558,0.728C51.63,79.746,51.483,79.741,51.337,79.736z M56.332,72.169
	c0.516-0.108,1.339,0.182,1.402-0.629c0.044-0.581-0.66-0.363-1.038-0.369c-0.559-0.007-1.405-0.223-1.503,0.515
	C55.098,72.408,55.911,72.014,56.332,72.169z"/>
<path fill-rule="evenodd" clip-rule="evenodd" fill="#D9D9D9" d="M51.337,79.736c0.146,0.005,0.293,0.01,0.438,0.015
	c0.45,1.035,2.147,1.42,2.84,0.632c0.217-0.246,0.391-0.545,0.311-0.896c-0.096-0.418-0.458-0.414-0.784-0.425
	c-0.603-0.021-1.206-0.025-1.808-0.038c0.018-0.352-0.041-0.73,0.354-0.939c1.115,0.1,2.278-0.239,3.338,0.365
	c-0.572,1.636-1.161,3.267-1.712,4.91c-0.362,1.079-1.248,0.669-1.931,0.68c-2.71,0.044-2.719,0.018-1.812-2.52
	C50.789,80.912,51.08,80.33,51.337,79.736z"/>
<path fill-rule="evenodd" clip-rule="evenodd" fill="#F4F4F4" d="M132.409,65.526c0.862-0.736,1.879-0.268,2.816-0.324
	c1.42-0.085,2.849-0.028,4.271-0.021c3.139,0.016,4.009,1.37,2.77,4.298c-0.054-0.208-0.106-0.416-0.158-0.624
	c0.201-1.269-0.261-1.744-1.611-1.692c-2.636,0.103-5.279,0.026-7.919,0.023C132.445,66.641,133.313,65.994,132.409,65.526z"/>
<path fill-rule="evenodd" clip-rule="evenodd" fill="#F0F0F0" d="M73.446,74.162c-0.679,1.855-1.357,3.71-2.036,5.564
	c-0.058-0.018-0.116-0.017-0.172,0.003c-0.137-0.535,0.067-1.365-0.87-1.281c-1.889,0.171-1.584-0.833-1.178-2.005
	c0.27-0.776,0.219-0.795-0.638-0.822c-0.334,0.078-0.67,0.156-1.005,0.233c-0.261-1.184-1.228-0.558-1.882-0.744
	c-0.912-0.259-2.104,0.67-2.763-0.647l-0.005-0.01C66.411,74.308,69.944,74.785,73.446,74.162z"/>
<path fill-rule="evenodd" clip-rule="evenodd" fill="#F0F0F0" d="M106.772,65.873c0.077-0.842,0.725-0.663,1.239-0.668
	c1.646-0.017,3.295-0.048,4.941-0.008c3.169,0.077,4.552,2.263,3.377,5.284c-0.786-0.572,0.384-1.95-0.946-2.298
	c0.08-0.993-0.577-0.995-1.287-0.992c-2.361,0.009-4.722-0.005-7.083-0.01C107.023,66.727,107.302,66.225,106.772,65.873z"/>
<path fill-rule="evenodd" clip-rule="evenodd" fill="#F0F0F0" d="M91.247,79.111c-0.02-0.89-0.705-0.693-1.197-0.674
	c-1.324,0.052-1.438-0.555-1.048-1.63c0.64-1.76,1.065-3.658,3.632-3.367c0.825,0.094,0.977-0.738,1.297-1.285
	c0.563,0.443,0.24,1.046,0.282,1.583c-0.091,0.113-0.183,0.226-0.274,0.338c-1.189,1.882-1.49,4.144-2.591,6.063L91.3,80.069
	C91.282,79.751,91.265,79.432,91.247,79.111z"/>
<path fill-rule="evenodd" clip-rule="evenodd" fill="#E8E8E8" d="M61.574,39.128c0.006,0.145,0.012,0.291,0.017,0.435
	c-1.887,0.944-4.048,0.995-5.968,1.831c-2.727,0.7-5.453,1.401-8.18,2.101c-0.381-0.108-0.716,0.001-1.029,0.215
	c-3.53,0.883-7.061,1.765-10.59,2.648c0.004-0.192,0.008-0.384,0.012-0.576c7.146-1.882,14.29-3.771,21.438-5.639
	C58.698,39.771,60.083,39.222,61.574,39.128z"/>
<path fill-rule="evenodd" clip-rule="evenodd" fill="#D9D9D9" d="M129.483,73.31c0.294-1.339,0.784-2.603,1.457-3.796
	c0.822-0.062,0.717-1.003,1.259-1.33c0.993-0.002,1.986-0.004,2.979-0.006c0.03,0.174,0.062,0.347,0.093,0.521
	c-0.459,1.327-0.918,2.653-1.429,4.131c0.793-0.057,1.385-0.099,1.976-0.14c1.462,0.977,3.097,0.188,4.63,0.448
	c-0.139,0.349-0.318,0.656-0.741,0.709c-3.358-0.008-6.718-0.016-10.076-0.024C129.581,73.651,129.532,73.48,129.483,73.31z
	 M132.745,69.867c-1.928-0.477-1.745,1.31-2.017,2.236c-0.309,1.049,1.02,0.849,1.516,0.898c1.186,0.12,1.05-1.136,1.46-1.836
	C134.379,70.018,133.921,69.707,132.745,69.867z"/>
<path fill-rule="evenodd" clip-rule="evenodd" fill="#D9D9D9" d="M67.186,73.169c2.41-0.466,3.645-2.107,4.315-4.314
	c0.84-0.082,0.741-0.998,1.234-1.389c0.677,1.156,1.932,0.179,2.767,0.751c0.06,0.686-0.014,1.337-0.5,1.878
	c-0.293,0.245-0.584,0.49-0.875,0.734c-0.587-0.977-1.482-0.823-2.251-0.432c-0.567,0.289-1.018,1.134-0.861,1.629
	c0.298,0.943,1.298,0.261,1.967,0.446c0.15,0.041,0.321,0.006,0.483,0.007c-0.102,1.02-0.666,1.388-1.675,1.33
	c-1.149-0.066-2.306-0.014-3.46-0.017C67.839,73.792,67.297,73.871,67.186,73.169z"/>
<path fill-rule="evenodd" clip-rule="evenodd" fill="#363334" d="M20.984,63.554c-0.602,0.063-1.158-0.12-1.396-0.664
	c-0.939-2.148-2.24-4.169-2.48-6.575c-0.064-0.647,0.171-1.19,0.904-1.35l0.005,0.016c0.107,0.107,0.214,0.214,0.321,0.321
	l0.01,0.011c0.064,0.254,0.249,0.331,0.486,0.326c0.901,0.673,1.577,1.504,1.841,2.625l-0.063,0.054
	c-0.465,0.063-0.609-0.64-1.153-0.472c-0.196,0.688,0.239,1.244,0.417,1.845c0.098,0.332,0.089,0.835,0.622,0.822
	c0.435-0.011,0.435-0.405,0.501-0.718c0.067-0.317,0.248-0.486,0.576-0.354c0.667,0.267,1.029,0.743,0.978,1.763
	c-0.638-0.985-1.239-0.649-1.831-0.233c-0.769,0.542-0.238,0.968,0.08,1.482C20.984,62.746,20.931,63.182,20.984,63.554z"/>
<path fill-rule="evenodd" clip-rule="evenodd" fill="#F0F0F0" d="M81.032,80.713c-1.026,0.602-2.146,0.26-3.228,0.32
	c-0.155-0.224-0.311-0.447-0.467-0.67c-0.002-0.414-0.004-0.829-0.006-1.242c0.025-0.292-0.038-0.52-0.348-0.649
	c-0.664-0.278-1.749,0.461-1.997-0.485c-0.163-0.625,0.362-1.436,0.592-2.158c0.181-0.569,0.381-1.132,0.573-1.698
	c1.11,0.007,2.22,0.013,3.33,0.02c-0.203,1.491-0.774,2.866-1.303,4.26c-0.249,0.658-0.466,1.452,0.289,1.909
	c0.753,0.455,1.611,0.719,2.274-0.239C81.015,80.21,81.052,80.448,81.032,80.713z"/>
<path fill-rule="evenodd" clip-rule="evenodd" fill="#CDCDCD" d="M140.448,73.138c-1.533-0.26-3.168,0.528-4.63-0.448
	c0.419-0.335,0.961-0.592,1.233-1.02c0.575-0.904,1.565-2.065,1.109-2.889c-0.374-0.673-1.883-0.318-2.89-0.083
	c-0.031-0.174-0.063-0.347-0.093-0.521c1.298-0.629,2.882-0.68,3.917-0.095c1.034,0.587,1.946,0.756,3.013,0.773
	c0.052,0.208,0.104,0.416,0.158,0.624c-0.047,0.118-0.093,0.236-0.139,0.354c-0.701,0.102-0.909,0.396-0.384,0.979
	C141.462,71.671,141.049,72.456,140.448,73.138z M139.146,72.156c0.576-0.08,1.405,0.193,1.475-0.638
	c0.063-0.74-0.683-0.667-1.216-0.688c-0.663-0.027-1.343,0.209-1.381,0.859C137.979,72.456,138.768,71.998,139.146,72.156z"/>
<path fill-rule="evenodd" clip-rule="evenodd" fill="#D9D9D9" d="M94.213,73.737c-0.042-0.536,0.281-1.139-0.282-1.582
	c0.133-0.578,0.272-0.851,0.68-0.117c0.603,1.09,1.474,1.445,2.618,0.765c0.903-0.102,0.685-0.94,0.959-1.455
	c-0.124-0.837,0.372-1.477,0.685-2.176c0.514,0.063,0.622-0.468,0.964-0.659c1.13,0.042,2.406-0.352,3.086,1.034
	c-0.198,0.562-0.396,1.125-0.594,1.688c-0.62-0.794-1.483-0.806-2.368-0.735c-1.353,0.109-1.503,1.292-1.534,2.166
	c-0.03,0.835,0.94,0.342,1.458,0.456c0.312,0.069,0.651,0.017,0.979,0.019c-0.077,0.878-0.679,0.992-1.395,0.987
	c-1.52-0.013-3.041-0.003-4.562-0.002C94.677,73.995,94.444,73.866,94.213,73.737z"/>
<path fill-rule="evenodd" clip-rule="evenodd" fill="#F0F0F0" d="M98.188,71.348c-0.274,0.515-0.056,1.354-0.959,1.455
	c0.16-1.125-0.329-2.177-0.367-3.28c-0.034-1.058-0.612-1.414-1.619-1.35c-0.875,0.056-1.757,0.012-2.636,0.011
	c-0.029-0.662,0.805-1.333-0.021-1.987c-0.044-0.668,0.225-0.929,0.936-0.996c3.327-0.312,3.476-0.226,3.975,2.998
	C97.661,69.264,97.698,70.354,98.188,71.348z"/>
<path fill-rule="evenodd" clip-rule="evenodd" fill="#5B5C5E" d="M38.096,38.509c-0.177,1.156-1.341,1.114-2.018,1.381
	c-4.557,1.805-9.182,3.44-13.789,5.12c-0.198,0.072-0.432,0.047-0.649,0.068c0.389-0.926,1.232-1.404,1.963-1.993
	c0.53,0.585,1.046,0.048,1.481-0.107c2.508-0.896,5.015-1.812,7.466-2.85c1.097-0.464,2.465-0.424,3.235-1.572
	C36.556,38.541,37.326,38.525,38.096,38.509z"/>
<path fill-rule="evenodd" clip-rule="evenodd" fill="#F0F0F0" d="M115.106,73.785c-0.739,2.021-1.331,4.099-2.303,6.031
	l-0.048-0.079c-0.113-1.466-1.254-0.809-2.001-0.968c-0.508-0.632-0.656-1.218-0.201-2.028c0.441-0.786,0.602-1.729,0.886-2.603
	C112.669,74.097,113.916,74.236,115.106,73.785z"/>
<path fill-rule="evenodd" clip-rule="evenodd" fill="#E7E637" d="M71.786,57.582c-0.045,0.626-0.307,1.171-0.632,1.693
	c-0.599-0.857-1.491-0.662-2.332-0.648c-0.23-0.111-0.195-0.963-0.662-0.314c-0.265,0.367-0.716,0.694-0.678,1.248
	c-0.473-0.294-0.989-0.374-1.533-0.306c0.239-1.414,0.826-2.695,1.501-3.943c1.235-0.2,2.035,0.323,2.363,1.549
	c0.498-0.313,0.615-0.72,0.702-1.143l0.057-0.104l0.107,0.052c0.792-0.08,1.341,0.054,0.94,1.049
	C71.491,57.032,71.468,57.342,71.786,57.582z"/>
<path fill-rule="evenodd" clip-rule="evenodd" fill="#F4F4F4" d="M129.34,67.568c-1.944-0.772-3.973-0.239-5.958-0.352
	c-0.864-0.049-1.627-0.104-2.047-0.984c0.685-0.698,1.577-0.985,2.496-1.012c2.097-0.062,4.198-0.02,6.513-0.02
	C129.959,66.109,129.649,66.838,129.34,67.568z"/>
<path fill-rule="evenodd" clip-rule="evenodd" fill="#D9D9D9" d="M115.106,73.785c-1.19,0.451-2.438,0.312-3.667,0.354
	c-0.114-0.114-0.228-0.228-0.342-0.341c0.421-1.428,0.841-2.855,1.261-4.283c1.112-0.161,0.604-0.78,0.374-1.321
	c0.884-0.004,1.767-0.007,2.651-0.012c1.33,0.348,0.16,1.726,0.946,2.298C116.048,71.628,115.676,72.742,115.106,73.785z
	 M113.493,72.374c1.714,0.363,1.913-0.607,2.02-1.566c0.112-0.991-0.705-0.547-1.144-0.629c-1.27-0.238-1.698,0.707-1.834,1.613
	C112.381,72.816,113.349,72.323,113.493,72.374z"/>
<path fill-rule="evenodd" clip-rule="evenodd" fill="#5B5C5E" d="M23.294,81.049c0.403-0.258,1.119,0.155,1.111-0.976
	c-0.007-1.092,0.781-0.26,1.223-0.012l-0.02-0.018c0.003,0.219,0.005,0.438,0.008,0.658l-0.037,0.046
	c-0.317,0.034-0.624,0.098-0.593,0.512c0.024,0.322,0.274,0.383,0.545,0.387l0.102,0.095c0.354,0.425,0.86,0.225,1.296,0.313
	l-0.012-0.007c-0.03,0.628-0.421,0.485-0.878,0.552c-0.868,0.124-1.693,0.299-0.946,1.667c0.556,1.019,0.271,2.317-0.241,3.439
	c-0.968-0.436-2.358-3.245-2.13-4.37c0.154-0.761,0.37-1.51,0.558-2.264L23.294,81.049z"/>
<path fill-rule="evenodd" clip-rule="evenodd" fill="#CDCDCD" d="M84.667,69.784c0.521-1.424,1.045-2.847,1.567-4.271
	c0.911,0.629-0.123,1.349,0.095,2.011c-0.548,0.875-1.097,1.73,0.687,1.674c0.562-0.018,0.918,0.288,0.911,0.92
	c-0.018,1.729-1.322,3.021-3.068,3.021c-0.495,0.001-0.99-0.001-1.484-0.001c-0.064-0.27-0.021-0.507,0.2-0.691
	C84.94,71.97,84.995,70.955,84.667,69.784z"/>
<path fill-rule="evenodd" clip-rule="evenodd" fill="#F0F0F0" d="M86.867,74.416c-0.718,1.912-1.437,3.825-2.155,5.737
	c0.001-0.113,0.002-0.227,0.003-0.34c-0.033-0.232-0.067-0.467-0.101-0.7c-0.102-1.125-0.981-0.633-1.522-0.66
	c-0.833-0.045-1.095-0.242-0.716-1.079c0.318-0.7,0.732-1.432,0.332-2.257c0.011-0.369,0.081-0.717,0.376-0.978
	C84.308,74.743,85.604,74.366,86.867,74.416z"/>
<path fill-rule="evenodd" clip-rule="evenodd" fill="#D9D9D9" d="M136.743,81.068c0.143-0.003,0.285-0.006,0.429-0.01
	c0.085,2.838-1.335,3.869-4.048,2.987c-0.623-0.203-0.505-0.629-0.471-1.035c0.109-1.305,0.252-2.605,0.381-3.907
	c0.273-0.009,0.546-0.018,0.82-0.026c-0.003,0.449-0.006,0.899-0.009,1.349C134.46,82.225,135.687,81.26,136.743,81.068z"/>
<path fill-rule="evenodd" clip-rule="evenodd" fill="#F4F4F4" d="M62.9,74.463c0.66,1.317,1.852,0.389,2.763,0.647
	c0.655,0.187,1.622-0.439,1.882,0.744c-2.098,0.254-2.731,1.888-3.339,3.546c-0.409-0.281-0.339-1.075-1.117-0.979
	c-1.864,0.233-1.599-0.802-1.156-1.962c0.249-0.65,0.435-1.325,0.649-1.988C62.689,74.467,62.794,74.465,62.9,74.463z"/>
<path fill-rule="evenodd" clip-rule="evenodd" fill="#D9D9D9" d="M87.643,79.073c0.122,0.004,0.244,0.007,0.366,0.01
	c-0.046,0.455-0.089,0.91-0.134,1.364c-0.33,0.489-0.221,0.92,0.366,0.899c0.872-0.032,2.058,0.571,2.399-0.91
	c0.144-0.262,0.327-0.448,0.659-0.367l0.048,0.069c-0.109,0.42-0.188,0.85-0.332,1.258c-0.962,2.724-0.967,2.675-3.844,2.682
	c-1.138,0.004-1.492-0.26-1.005-1.374C86.69,81.508,86.953,80.205,87.643,79.073z"/>
<path fill-rule="evenodd" clip-rule="evenodd" fill="#D9D9D9" d="M62.9,74.463c-0.106,0.002-0.211,0.004-0.317,0.008
	c-0.01-0.454-0.02-0.907-0.029-1.361c0.323-1.253,0.746-2.466,1.39-3.594c1.23-0.11,0.806-1.527,1.579-2
	c0.683,1.162,1.855,0.457,2.772,0.726c-0.104,1.191-0.583,2.261-1.081,3.324c-0.011-0.148-0.021-0.298-0.032-0.447
	c-0.109-0.1-0.218-0.198-0.328-0.298c-0.514-1.197-1.518-0.745-2.191-0.426c-0.664,0.314-1.113,1.227-0.974,1.939
	c0.168,0.864,1.103,0.326,1.688,0.462c0.155,0.036,0.326,0.007,0.49,0.007c0.09,0.959-0.528,0.968-1.237,1.016
	c-0.612,0.041-1.479-0.432-1.733,0.636L62.9,74.463z"/>
<path fill-rule="evenodd" clip-rule="evenodd" fill="#D9D9D9" d="M71.237,79.729c0.057-0.02,0.115-0.021,0.172-0.003
	c-0.306,0.871-0.714,1.722-0.894,2.617c-0.299,1.493-1.147,1.839-2.565,1.742c-2.293-0.156-2.407,0.412-1.505-2.169
	c0.301-0.86,0.67-1.696,1.007-2.544c0.142,0.013,0.283,0.024,0.424,0.036c-0.006,0.327-0.012,0.653-0.018,0.98
	c-0.129,0.385-0.521,0.958,0.257,0.95c0.863-0.011,2.09,0.607,2.363-0.954c0.129-0.209,0.259-0.417,0.389-0.626
	C70.99,79.749,71.113,79.739,71.237,79.729z"/>
<path fill-rule="evenodd" clip-rule="evenodd" fill="#CDCDCD" d="M13.68,70.458c-0.105-0.31-0.211-0.619-0.315-0.929
	c0.03-2.155-1.187-4.093-1.093-6.269c0.017-0.367-0.475-0.361-0.785-0.425c0.099-0.672,0.095-1.368,0.463-1.977
	c0.856,0.963,0.585,2.415,1.458,3.37c0.001,0.428,0.002,0.856,0.003,1.285c-0.148,1.385,0.724,2.606,0.638,3.981
	c-0.037,0.579,0.076,1.088,0.688,1.335c-0.006,0.213-0.012,0.426-0.019,0.64c0.14,1.272-0.182,2.672,1.011,3.652
	c0.05,0.548,0.457,1.102-0.025,1.642c-0.114,0.001-0.229,0.002-0.343,0.003c-0.008-0.102-0.012-0.203-0.012-0.305
	c-0.377-0.604-0.188-1.649-1.308-1.673c-0.014-0.907-0.293-1.702-0.992-2.317c0.027-0.044,0.054-0.089,0.081-0.133
	c-0.024,0.048-0.047,0.095-0.071,0.143c-0.242-0.042-0.577,0.133-0.689-0.176c-0.036-0.099,0.246-0.313,0.382-0.476
	C13.831,71.892,13.748,71.17,13.68,70.458z"/>
<path fill-rule="evenodd" clip-rule="evenodd" fill="#D9D9D9" d="M64.121,79.774c-0.221,0.672-0.5,1.329-0.651,2.015
	c-0.398,1.818-1.387,2.471-3.315,2.337c-1.494-0.104-1.802-0.443-1.203-1.748c0.452-0.982,0.85-1.989,1.272-2.986
	c0.13,0.004,0.261,0.009,0.391,0.013c-0.015,0.333-0.03,0.665-0.045,0.999c-0.286,0.247-0.376,0.583-0.091,0.823
	c0.659,0.555,2.268,0.053,2.757-0.82c0.111-0.22,0.223-0.439,0.334-0.659C63.753,79.756,63.938,79.766,64.121,79.774z"/>
<path fill-rule="evenodd" clip-rule="evenodd" fill="#E8E8E8" d="M102.922,69.547c-0.68-1.386-1.956-0.992-3.086-1.034
	c0.027-0.89,0.994-1.668,0.314-2.644c0.473-0.518,3.813-0.986,4.194-0.562c0.264,0.294,0.043,0.62-0.071,0.91
	C103.831,67.331,103.373,68.438,102.922,69.547z"/>
<path fill-rule="evenodd" clip-rule="evenodd" fill="#F4F4F4" d="M56.026,78.449c-1.061-0.604-2.224-0.266-3.338-0.365
	c0.17-1.305,0.987-2.372,1.313-3.619c1.21-0.027,2.43,0.085,3.613-0.285C57.085,75.603,56.556,77.025,56.026,78.449z"/>
<path fill-rule="evenodd" clip-rule="evenodd" fill="#CDCDCD" d="M119.945,68.077c-0.026,0.981,0.562,1.164,1.386,1.105
	c0.827-0.059,1.113,0.307,0.761,1.097c-0.554,1.239-0.347,3.107-2.601,2.885c-0.961-0.095-1.343-0.294-0.86-1.275
	c0.179-0.363,0.708-0.923-0.254-1.059C118.618,69.752,119.138,68.833,119.945,68.077z"/>
<path fill-rule="evenodd" clip-rule="evenodd" fill="#D9D9D9" d="M131.021,80.174c-0.155,0.466-0.295,0.937-0.47,1.396
	c-1.063,2.783-1.17,2.816-4.126,2.549c-0.784-0.071-0.965-0.362-0.712-1.02c0.391-1.018,0.813-2.021,1.224-3.029
	c0.432,0.564,0.421,1.581,1.607,1.346c0.725-0.144,1.571,0.09,1.703-1.002C130.527,80.405,130.535,79.517,131.021,80.174z"/>
<path fill-rule="evenodd" clip-rule="evenodd" fill="#96C94F" d="M64.011,59.393c-0.213,1.903-1.49,2.284-3.132,2.278
	c-2.951-0.009-2.955,0.02-1.825-2.72c0.141-0.343,0.346-0.661,0.521-0.989c0.653-0.128,0.965,0.408,1.395,0.715
	c0.142,0.528-0.839,1.157-0.024,1.538c0.874,0.408,1.2-0.345,1.428-1.051c0.03-0.09,0.142-0.153,0.215-0.228
	C63.136,58.861,63.588,59.08,64.011,59.393z"/>
<path fill-rule="evenodd" clip-rule="evenodd" fill="#E8E8E8" d="M86.867,74.416c-1.264-0.05-2.56,0.327-3.783-0.276
	c-0.102-0.392,0.092-0.696,0.29-1.001c0.494,0,0.989,0.002,1.484,0.001c1.746-0.001,3.051-1.293,3.068-3.021
	c0.007-0.632-0.35-0.938-0.911-0.92c-1.783,0.056-1.234-0.8-0.687-1.674c1.068-0.104,2.061-0.007,2.704,1.017
	C88.545,70.585,87.665,72.485,86.867,74.416z"/>
<path fill-rule="evenodd" clip-rule="evenodd" fill="#BFC1C3" d="M80.084,72.996c0.091,0.359-0.016,0.656-0.284,0.902
	c-0.215-0.602-0.681-0.762-1.273-0.785c-1.228-0.049-1.624-0.603-1.113-1.795c0.207-0.483,0.679-1.096-0.108-1.558
	c0.492-1.181,0.984-2.363,1.477-3.544c0.516,0.348,0.238,0.852,0.256,1.298c-0.426,0.799-1.489,1.875,0.147,2.241
	c1.334,0.298,1.294,0.803,1.021,1.786C80.079,72.002,80.119,72.51,80.084,72.996z"/>
<path fill-rule="evenodd" clip-rule="evenodd" fill="#E7E637" d="M55.289,57.273c1.404,0.306,1.154-1.125,1.752-1.666
	c1.067-0.025,0.889,0.771,0.935,1.418c0.123,0.855-0.462,1.193-1.112,1.367c-0.662,0.178-0.973,0.64-1.264,1.17
	c-0.466-0.298-0.983-0.364-1.522-0.336c-0.048-0.258-0.002-0.639-0.157-0.755c-1.19-0.896-0.827-1.863-0.201-2.863
	c0.65,0.017,1.061,0.221,0.797,0.985c-0.174,0.507,0.031,0.712,0.547,0.644l-0.05-0.036c0.031,0.084,0.062,0.168,0.093,0.251
	C55.168,57.394,55.229,57.333,55.289,57.273z"/>
<path fill-rule="evenodd" clip-rule="evenodd" fill="#E8E8E8" d="M62.896,74.453c0.254-1.067,1.122-0.595,1.733-0.636
	c0.709-0.048,1.327-0.057,1.237-1.016c0.357-0.232,0.512-0.818,1.107-0.636c-0.013,0.352-0.421,0.788,0.213,1.003
	c0.111,0.702,0.653,0.623,1.143,0.625c1.154,0.003,2.311-0.05,3.46,0.017c1.01,0.058,1.574-0.311,1.675-1.33
	c0.222-0.55,0.442-1.101,0.663-1.65c0.292-0.244,0.583-0.489,0.875-0.734c-0.39,1.405-0.892,2.767-1.557,4.066
	C69.944,74.785,66.411,74.308,62.896,74.453z"/>
<path fill-rule="evenodd" clip-rule="evenodd" fill="#E7E637" d="M80.799,58.591c-1.358-0.82-1.235-1.848-0.414-2.972
	c0.484,0.049,1.061-0.029,0.801,0.805c-0.237,0.762,0.103,1.151,0.894,1.155c1.437-0.078,1.023-1.773,1.984-2.269
	c0.278,0.433,0.557,0.865,0.835,1.298c-0.063,0.91-0.545,1.521-1.393,1.799c-0.495,0.163-0.897,0.388-1.134,0.863
	C81.958,58.792,81.472,58.475,80.799,58.591z"/>
<path fill-rule="evenodd" clip-rule="evenodd" fill="#96C94F" d="M75.075,58.518c-0.337,0.895-0.853,1.866,0.856,1.799
	c0.365-0.015,0.84-0.045,0.795,0.533c-0.043,0.541-0.321,0.935-0.929,0.927c-1.016-0.013-2.153,0.271-2.896-0.678
	c-0.806-1.028-0.044-1.93,0.422-2.827C73.903,58.384,74.538,58.101,75.075,58.518z"/>
<path fill-rule="evenodd" clip-rule="evenodd" fill="#F0F0F0" d="M68.295,68.241c-0.917-0.269-2.089,0.436-2.772-0.726
	c-0.216-0.655,0.579-1.35-0.078-1.988c1.142-0.789,2.413-0.2,3.619-0.325c0.503-0.052,0.449,0.371,0.313,0.685
	C69.035,66.68,68.932,67.584,68.295,68.241z"/>
<path fill-rule="evenodd" clip-rule="evenodd" fill="#F0F0F0" d="M79.037,67.515c-0.018-0.446,0.26-0.951-0.256-1.298
	c-0.01-0.722,0.272-1.095,1.067-1.057c1.022,0.049,2.05,0.011,3.175,0.011c-0.276,1.171-0.523,2.203-1.21,3.071
	C81.013,67.526,79.838,68.231,79.037,67.515z"/>
<path fill-rule="evenodd" clip-rule="evenodd" fill="#F0F0F0" d="M75.503,68.218c-0.835-0.572-2.09,0.404-2.766-0.751
	c-0.14-0.64,0.742-1.305-0.045-1.93c1.193-0.751,2.505-0.236,3.759-0.335c0.371-0.029,0.392,0.358,0.262,0.593
	C76.273,66.585,76.281,67.6,75.503,68.218z"/>
<path fill-rule="evenodd" clip-rule="evenodd" fill="#FCF383" d="M16.307,51.606c-0.739,0.116-1.478,0.232-2.216,0.348
	c-0.018-0.184-0.035-0.368-0.052-0.552c3.968-1.003,7.936-2.006,11.902-3.008c0.026,0.15,0.053,0.301,0.079,0.451
	c-2.947,1.183-6.092,1.645-9.126,2.505C16.69,51.409,16.502,51.52,16.307,51.606z"/>
<path fill-rule="evenodd" clip-rule="evenodd" fill="#BFC1C3" d="M130.248,80.413c-0.132,1.092-0.979,0.858-1.703,1.002
	c-1.187,0.235-1.176-0.781-1.607-1.346c0.849-2.253,1.697-4.506,2.546-6.76c0.049,0.171,0.098,0.342,0.146,0.513
	c-0.01,0.215-0.02,0.429-0.029,0.644c-0.183,0.452-0.389,0.897-0.544,1.359c-0.241,0.72-0.763,1.534-0.598,2.159
	c0.249,0.944,1.335,0.207,2.002,0.482c0.306,0.126,0.385,0.35,0.371,0.643c-0.807,0.001-1.615-0.022-2.421,0.014
	c-0.409,0.019-0.717,0.271-0.729,0.717c-0.016,0.543,0.406,0.552,0.788,0.56C129.063,80.414,129.654,80.41,130.248,80.413z"/>
<path fill-rule="evenodd" clip-rule="evenodd" fill="#D9D9D9" d="M103.811,73.763c0.335-1.513,0.802-2.977,1.575-4.33
	c0.533,0.129,0.688-0.369,1.001-0.606c0.475,0.006,0.952,0.045,1.424,0.01c1.37-0.102,1.262,0.488,0.65,1.336
	c-0.887-0.625-1.785-0.481-2.485,0.205c-0.471,0.461-1.015,1.17-0.698,1.869c0.431,0.949,1.434,0.437,2.188,0.565
	c-0.115,0.817-0.754,0.633-1.272,0.653c-0.646,0.026-1.353-0.123-1.697,0.666c-0.214,0.114-0.427,0.23-0.64,0.346
	C103.841,74.238,103.825,74,103.811,73.763z"/>
<path fill-rule="evenodd" clip-rule="evenodd" fill="#F0F0F0" d="M89.033,68.54c-0.644-1.024-1.636-1.121-2.704-1.017
	c-0.218-0.662,0.816-1.382-0.095-2.011c1.146-0.746,2.408-0.224,3.613-0.306c0.659-0.044,0.396,0.466,0.257,0.803
	C89.754,66.856,89.391,67.697,89.033,68.54z"/>
<path fill-rule="evenodd" clip-rule="evenodd" fill="#7D7E80" d="M35.786,38.557c-0.77,1.148-2.138,1.108-3.235,1.572
	c-2.452,1.038-4.958,1.954-7.466,2.85c-0.435,0.155-0.951,0.692-1.481,0.107c0.469-0.728,1.295-0.922,1.983-1.321
	c2.806-0.205,5.194-1.536,7.601-2.818C34.053,38.817,34.919,38.688,35.786,38.557z"/>
<path fill-rule="evenodd" clip-rule="evenodd" fill="#96C94F" d="M50.638,59.251c-0.756,1.96-2.765,2.945-4.751,2.354
	c-0.554-0.165-0.866-0.484-0.782-1.06c0.134-0.916,0.972-0.815,1.402-0.606c1.302,0.631,2.046,0.189,2.57-0.999
	C49.598,59.044,50.118,59.148,50.638,59.251z"/>
<path fill-rule="evenodd" clip-rule="evenodd" fill="#FCF383" d="M46.89,55.9c0.192-0.618,0.688-0.965,1.176-1.318
	c0.593,0.017,1.188,0.074,1.778,0.04c0.928-0.053,1.736,0.055,2.069,1.095c-0.568,0.235-1.109,0.34-1.649-0.118
	c-0.561-0.477-1.038-0.089-1.416,0.294c-0.204,0.208-0.402,0.62-0.332,0.858c0.191,0.641,0.82,0.281,1.25,0.403
	c0.508,0.146,1.196-0.375,1.532,0.408c-1.471-0.117-3.384,0.884-3.948-1.56C47.336,55.936,47.05,55.933,46.89,55.9z"/>
<path fill-rule="evenodd" clip-rule="evenodd" fill="#E7E637" d="M75.075,58.518c-0.537-0.417-1.172-0.134-1.751-0.246
	c0.365-1.138,0.567-2.343,1.368-3.302c0.359,0.457,0.718,0.915,1.076,1.372c0.006,0.334,0.044,0.591,0.482,0.674
	c0.374,0.072,1.109-0.333,1.03,0.523c-0.063,0.686-0.533,1.001-1.243,0.948C75.72,58.462,75.396,58.505,75.075,58.518z"/>
<path fill-rule="evenodd" clip-rule="evenodd" fill="#BFC1C3" d="M82.708,75.117c0.4,0.825-0.014,1.557-0.332,2.257
	c-0.379,0.837-0.117,1.034,0.716,1.079c0.541,0.027,1.421-0.465,1.523,0.66c-0.805,0-1.61-0.025-2.413,0.01
	c-0.409,0.019-0.715,0.269-0.73,0.712c-0.021,0.541,0.396,0.559,0.78,0.564c0.59,0.01,1.181,0,1.771-0.001
	c0.025,0.356,0.049,0.713,0.074,1.07l0.021,0.024c-0.681-0.035-1.361-0.088-2.042-0.1c-0.506-0.008-0.96-0.047-1.043-0.681
	c0.019-0.265-0.019-0.503-0.29-0.634C81.227,78.356,81.819,76.678,82.708,75.117z"/>
<path fill-rule="evenodd" clip-rule="evenodd" fill="#D9D9D9" d="M79.037,67.515c0.801,0.716,1.976,0.011,2.776,0.728
	c-0.325,1.676-0.865,3.273-1.729,4.754c0.035-0.486-0.005-0.994,0.122-1.455c0.272-0.982,0.313-1.487-1.021-1.786
	C77.548,69.389,78.611,68.313,79.037,67.515z"/>
<path fill-rule="evenodd" clip-rule="evenodd" fill="#CDCDCD" d="M100.863,73.14c-0.328-0.002-0.668,0.051-0.979-0.019
	c-0.518-0.114-1.488,0.379-1.458-0.456c0.031-0.873,0.182-2.057,1.534-2.166c0.885-0.071,1.748-0.059,2.368,0.735
	c-0.053,0.373-0.083,0.755-0.395,1.028C101.087,71.957,101.377,73.038,100.863,73.14z"/>
<path fill-rule="evenodd" clip-rule="evenodd" fill="#CDCDCD" d="M14.281,83.422c0.688-0.246,1.377-0.492,2.066-0.737
	c0,0.001,0.022,0.046,0.022,0.046c0.122,0.187,0.226,0.151,0.319-0.025l-0.004,0.004c0.123-0.007,0.245-0.013,0.368-0.019
	c0.209,0.004,0.419,0.008,0.628,0.013c0.148,2.4,1.307,4.562,1.638,6.919c0.001,0.126,0.003,0.251,0.005,0.377
	c-0.463-0.474-1.124-0.765-1.342-1.463c0.057-1.234-0.445-2.363-0.721-3.527c-0.373-1.572-1.086-1.771-2.6-0.915
	C14.534,83.869,14.407,83.646,14.281,83.422z"/>
<path fill-rule="evenodd" clip-rule="evenodd" fill="#BFC1C3" d="M66.973,72.166c-0.595-0.183-0.75,0.403-1.107,0.636
	c-0.164,0-0.334,0.029-0.49-0.007c-0.584-0.136-1.519,0.402-1.688-0.462c-0.139-0.712,0.31-1.625,0.974-1.939
	c0.674-0.319,1.677-0.771,2.191,0.426c0.11,0.1,0.219,0.198,0.328,0.298c0.011,0.149,0.021,0.299,0.032,0.447
	C67.229,71.804,67.207,72.026,66.973,72.166z"/>
<path fill-rule="evenodd" clip-rule="evenodd" fill="#E7E637" d="M46.89,55.9c0.16,0.033,0.446,0.036,0.46,0.102
	c0.564,2.444,2.477,1.443,3.948,1.56c-0.22,0.563-0.44,1.126-0.661,1.689c-0.521-0.103-1.041-0.207-1.561-0.311
	c-0.284-0.6-0.841-0.388-1.3-0.418c-1.943-0.128-1.959-0.132-1.355-1.963C46.502,56.315,46.73,56.119,46.89,55.9z"/>
<path fill-rule="evenodd" clip-rule="evenodd" fill="#F0F0F0" d="M14.66,84.094c1.514-0.856,2.227-0.657,2.6,0.915
	c0.276,1.164,0.777,2.293,0.721,3.527C16.545,87.302,15.512,85.766,14.66,84.094z"/>
<path fill-rule="evenodd" clip-rule="evenodd" fill="#FCF383" d="M40.717,58.284c-0.39,0.018-0.775,0.022-1.018-0.368
	c0.692-1.647,1.383-3.294,2.075-4.942c1.083-0.021,1.333,0.426,0.841,1.39C41.958,55.658,41.348,56.976,40.717,58.284z"/>
<path fill-rule="evenodd" clip-rule="evenodd" fill="#D9D9D9" d="M94.493,80.676c0.062-0.426,0.121-0.851,0.182-1.276
	c0.212-0.103,0.424-0.207,0.635-0.311c0.139,0.586-0.465,1.545,0.688,1.625c1.018,0.07,2.227,0.388,2.607-1.114
	c0.836,0.024,0.396,0.552,0.295,0.856c-0.216,0.648-0.508,1.273-0.771,1.907C96.661,82.352,94.957,82.85,94.493,80.676z"/>
<path fill-rule="evenodd" clip-rule="evenodd" fill="#D9D9D9" d="M11.487,62.835c0.311,0.064,0.802,0.058,0.785,0.425
	c-0.094,2.176,1.123,4.113,1.093,6.269c-0.319-0.119-0.638-0.238-0.957-0.357c-0.264-0.733-0.353-1.675-1.548-1.303
	c0.015-0.34,0.029-0.681,0.044-1.021c0.401-0.039,1.004,0.184,1.079-0.39c0.096-0.728,0.011-1.497-0.826-1.87
	C11.267,64.003,11.377,63.419,11.487,62.835z"/>
<path fill-rule="evenodd" clip-rule="evenodd" fill="#E8E8E8" d="M129.601,74.466c0.01-0.215,0.02-0.429,0.029-0.644
	c3.359,0.009,6.719,0.017,10.077,0.024c-0.687,0.342-0.941,1.313-1.878,1.294c-0.135-0.907-0.85-0.671-1.399-0.675
	C134.153,74.449,131.877,74.463,129.601,74.466z"/>
<path fill-rule="evenodd" clip-rule="evenodd" fill="#D9D9D9" d="M77.305,69.76c0.787,0.462,0.315,1.075,0.108,1.558
	c-0.511,1.192-0.114,1.746,1.113,1.795c0.593,0.023,1.059,0.184,1.273,0.785c-0.105,0.084-0.212,0.167-0.317,0.251
	c-1.11-0.007-2.22-0.013-3.33-0.02c-0.138-0.003-0.274-0.006-0.411-0.009C76.026,72.583,76.726,71.193,77.305,69.76z"/>
<path fill-rule="evenodd" clip-rule="evenodd" fill="#CDCDCD" d="M117.732,74.136c-0.066,0.993-0.572,1.848-0.953,2.721
	c-0.503,1.151-0.248,1.609,0.997,1.575c0.516-0.016,1.133-0.146,1.26,0.64c-0.1,0.119-0.2,0.238-0.3,0.357
	c-1.08-0.497-2.138-0.793-3.047,0.32c-0.192,0-0.385,0-0.578,0c0.643-2.025,1.322-4.037,2.258-5.951
	C117.491,73.91,117.611,74.023,117.732,74.136z"/>
<path fill-rule="evenodd" clip-rule="evenodd" fill="#BFC1C3" d="M60.615,79.404c-0.13-0.004-0.261-0.009-0.391-0.013
	c0.777-2.094,1.554-4.188,2.331-6.282c0.009,0.454,0.019,0.907,0.029,1.361c-0.214,0.663-0.4,1.338-0.649,1.988
	c-0.443,1.16-0.708,2.195,1.156,1.962c0.778-0.096,0.708,0.698,1.117,0.979c-0.028,0.125-0.057,0.25-0.086,0.374
	c-0.184-0.009-0.368-0.019-0.551-0.027C62.718,78.482,61.645,79.135,60.615,79.404z"/>
<path fill-rule="evenodd" clip-rule="evenodd" fill="#FCF383" d="M75.768,56.341c-0.358-0.457-0.717-0.915-1.076-1.372
	c1.104-1.442,2.684-0.877,4.106-0.958c0.31-0.018,0.515,0.13,0.424,0.499c-0.129,0.518-0.348,0.876-0.982,0.884
	C77.314,55.408,76.21,55.039,75.768,56.341z"/>
<path fill-rule="evenodd" clip-rule="evenodd" fill="#BFC1C3" d="M71.237,79.729c-0.124,0.01-0.247,0.02-0.371,0.03
	c-0.924-0.737-1.992-0.24-2.99-0.351c-0.141-0.012-0.282-0.023-0.424-0.036c0.278-1.277,1.216-2.359,1.099-3.752
	c0.857,0.027,0.908,0.046,0.638,0.822c-0.406,1.172-0.71,2.176,1.178,2.005C71.305,78.364,71.1,79.194,71.237,79.729z"/>
<path fill-rule="evenodd" clip-rule="evenodd" fill="#96C94F" d="M68.822,58.626c0.841-0.013,1.733-0.209,2.332,0.648
	c-0.424,0.948-0.147,2.44-1.863,2.381c-0.524-0.018-0.911-0.17-0.614-0.772C69.043,60.137,68.744,59.375,68.822,58.626z"/>
<path fill-rule="evenodd" clip-rule="evenodd" fill="#E7E637" d="M64.011,59.393c-0.423-0.313-0.875-0.531-1.423-0.457
	c0.092-1.151,1-2.073,0.917-3.273c0.452,0.013,0.902,0.025,1.354,0.037c0.105,0.258-0.128,0.695,0.388,0.736
	C64.997,57.489,64.522,58.448,64.011,59.393z"/>
<path fill-rule="evenodd" clip-rule="evenodd" fill="#E8E8E8" d="M58.968,70.283c-0.025-0.25-0.05-0.5-0.075-0.751
	c-0.555-1.414-1.756-0.374-2.601-0.686c0.011-0.461-0.277-0.654-0.674-0.749c1.016-0.824,3.642-0.824,4.657,0.001
	c-0.447,0.099-0.711,0.334-0.626,0.834C59.086,69.212,59.547,70.01,58.968,70.283z"/>
<path fill-rule="evenodd" clip-rule="evenodd" fill="#96C94F" d="M80.799,58.591c0.673-0.116,1.159,0.201,1.573,0.68
	c-0.47,1.013-0.339,3.089-2.037,2.322C79.073,61.023,80.822,59.668,80.799,58.591z"/>
<path fill-rule="evenodd" clip-rule="evenodd" fill="#F0F0F0" d="M94.493,80.676c0.464,2.174,2.168,1.676,3.637,1.688
	c-0.086,0.49-0.19,0.973-0.526,1.367c-0.675-0.407-1.424-0.376-2.166-0.343c-0.682,0.031-1.274-0.074-1.583-0.78
	C93.93,81.918,94.153,81.276,94.493,80.676z"/>
<path fill-rule="evenodd" clip-rule="evenodd" fill="#BFC1C3" d="M75.741,74.121c0.137,0.003,0.273,0.006,0.411,0.009
	c-0.192,0.566-0.393,1.129-0.573,1.698c-0.229,0.723-0.755,1.533-0.592,2.158c0.248,0.946,1.333,0.207,1.997,0.485
	c0.31,0.13,0.373,0.357,0.349,0.649c-0.98,0.06-2.011-0.352-2.929,0.308c-0.239-0.024-0.479-0.051-0.719-0.076
	C74.37,77.609,75.056,75.865,75.741,74.121z"/>
<path fill-rule="evenodd" clip-rule="evenodd" fill="#CDCDCD" d="M26.02,48.846c-0.026-0.15-0.053-0.301-0.079-0.451
	c2.499-0.773,4.995-1.547,7.58-1.992c0.005,0.159,0.01,0.317,0.016,0.476c-0.604,0.265-1.207,0.529-1.811,0.793
	C29.824,48.063,27.921,48.454,26.02,48.846z"/>
<path fill-rule="evenodd" clip-rule="evenodd" fill="#96C94F" d="M65.949,59.253c0.544-0.068,1.06,0.011,1.533,0.306
	c-0.118,1.464-0.516,2.61-2.486,2.083C65.226,60.787,65.413,59.958,65.949,59.253z"/>
<path fill-rule="evenodd" clip-rule="evenodd" fill="#A1A5A6" d="M98.605,79.6c-0.381,1.502-1.59,1.185-2.607,1.114
	c-1.153-0.08-0.55-1.039-0.688-1.625c0.093,0.006,0.186-0.004,0.274-0.033c0.991,0.263,2.199-0.6,3.011,0.584L98.605,79.6z"/>
<path fill-rule="evenodd" clip-rule="evenodd" fill="#BFC1C3" d="M103.811,73.763c0.015,0.237,0.03,0.476,0.044,0.713
	c-0.213,0.836-0.307,1.727-0.666,2.493c-0.593,1.269-0.109,1.519,1.061,1.489c0.325-0.011,1.231-0.479,0.934,0.615
	c-1.031,0.186-2.164-0.385-3.11,0.424c-0.502-0.15-0.282-0.522-0.187-0.776C102.511,77.063,103.166,75.414,103.811,73.763z"/>
<path fill-rule="evenodd" clip-rule="evenodd" fill="#BFC1C3" d="M133.854,79.077c-0.274,0.009-0.547,0.018-0.82,0.026
	c-0.166-0.656,0.025-1.29,0.11-1.933c0.091-0.688-0.155-0.939-0.821-0.589c-0.116-0.725,0.317-0.829,0.886-0.792
	c0.367,0.024,0.729,0.195,0.662,0.563c-0.341,1.843,0.596,2.278,2.185,2.123c0.293-0.028,0.43,0.29,0.484,0.575
	C135.645,79.061,134.749,79.068,133.854,79.077z"/>
<path fill-rule="evenodd" clip-rule="evenodd" fill="#A1A5A6" d="M33.187,38.947c-2.406,1.282-4.794,2.613-7.601,2.818
	C27.898,40.228,30.464,39.375,33.187,38.947z"/>
<path fill-rule="evenodd" clip-rule="evenodd" fill="#E7E637" d="M60.97,58.677c-0.429-0.308-0.741-0.844-1.395-0.716
	c0.255-0.909,0.467-1.833,0.994-2.639c0.876-0.223,0.894,0.669,1.328,1.021C61.724,57.175,61.416,57.954,60.97,58.677z"/>
<path fill-rule="evenodd" clip-rule="evenodd" fill="#CDCDCD" d="M95.584,79.056c-0.089,0.029-0.182,0.039-0.274,0.033
	c-0.211,0.104-0.423,0.208-0.635,0.311c-0.245-1.773-0.491-3.549-0.736-5.323c0.092-0.112,0.184-0.225,0.274-0.338
	c0.231,0.128,0.464,0.257,0.694,0.387c0.215,1.331,0.193,2.702,0.653,3.994C95.569,78.432,95.576,78.743,95.584,79.056z"/>
<path fill-rule="evenodd" clip-rule="evenodd" fill="#FCF383" d="M70.516,55.716c-0.087,0.423-0.204,0.83-0.702,1.143
	c-0.329-1.226-1.128-1.749-2.363-1.549c0.076-0.859,0.4-1.345,1.409-1.335c0.878,0.008,1.113,0.433,1.196,1.147
	C70.087,55.409,70.228,55.623,70.516,55.716z"/>
<path fill-rule="evenodd" clip-rule="evenodd" fill="#BFC1C3" d="M55.618,68.097c0.396,0.095,0.685,0.287,0.674,0.749
	c-0.111,0.108-0.223,0.217-0.334,0.325c-0.211,0.002-0.422,0.004-0.633,0.006c-0.105-0.109-0.191-0.273-0.319-0.319
	c-0.738-0.262-1.986,0.349-2.183-0.34c-0.227-0.793,0.296-1.838,0.865-2.638c0.471,0.353,0.25,0.858,0.288,1.306
	c-0.66,0.978-0.054,0.996,0.69,0.91C54.983,68.096,55.3,68.096,55.618,68.097z"/>
<path fill-rule="evenodd" clip-rule="evenodd" fill="#FCF383" d="M57.976,57.025c-0.046-0.648,0.132-1.443-0.935-1.418
	c0.234-1.248,0.803-2.01,2.343-1.485C59.029,55.145,58.926,56.271,57.976,57.025z"/>
<path fill-rule="evenodd" clip-rule="evenodd" fill="#D9D9D9" d="M65.248,56.437c-0.516-0.042-0.283-0.479-0.388-0.737
	c-0.07-0.997-0.835-1.01-1.541-1.058c-0.814-0.055-1.632-0.059-2.448-0.084c0.715-0.644,3.204-0.824,4.031-0.27
	C65.774,54.871,65.699,55.629,65.248,56.437z"/>
<path fill-rule="evenodd" clip-rule="evenodd" fill="#A1A5A6" d="M130.248,80.413c-0.594-0.003-1.186,0.001-1.778-0.014
	c-0.382-0.008-0.804-0.017-0.788-0.56c0.013-0.445,0.32-0.698,0.729-0.717c0.806-0.036,1.614-0.013,2.421-0.014
	c0.14,0.106,0.278,0.214,0.418,0.319c0.067,0.292,0.009,0.547-0.229,0.745C130.535,79.517,130.527,80.405,130.248,80.413z"/>
<path fill-rule="evenodd" clip-rule="evenodd" fill="#96C94F" d="M54.078,59.227c0.539-0.028,1.056,0.038,1.522,0.336
	c-0.15,0.462-0.302,0.923-0.451,1.385c-0.245,0.759-0.863,0.85-1.456,0.643c-0.868-0.303-0.251-0.89-0.115-1.341
	C53.687,59.892,53.907,59.566,54.078,59.227z"/>
<path fill-rule="evenodd" clip-rule="evenodd" fill="#D9D9D9" d="M95.584,79.056c-0.008-0.313-0.015-0.624-0.023-0.937
	c1.347,0.064,2.731-0.314,4.03,0.328c-0.262,0.456,0.106,1.44-0.997,1.191C97.783,78.456,96.575,79.318,95.584,79.056z"/>
<path fill-rule="evenodd" clip-rule="evenodd" fill="#A1A5A6" d="M123.298,68.838c0.076-0.838,0.727-0.639,1.221-0.642
	c1.555-0.011,3.11,0.015,4.666,0.026c-0.172,0.813-0.835,0.535-1.318,0.551C126.345,68.822,124.821,68.82,123.298,68.838z"/>
<path fill-rule="evenodd" clip-rule="evenodd" fill="#A1A5A6" d="M102.072,79.497c0.946-0.809,2.079-0.238,3.109-0.424
	c0.005,0.111,0.021,0.219,0.05,0.326c-0.148,0.326-0.297,0.652-0.444,0.979c-0.887-0.242-2.17,0.769-2.627-0.831L102.072,79.497z"/>
<path fill-rule="evenodd" clip-rule="evenodd" fill="#FCF383" d="M60.872,54.557c0.816,0.026,1.633,0.03,2.448,0.084
	c0.705,0.048,1.471,0.062,1.541,1.058c-0.452-0.012-0.902-0.024-1.354-0.037c-0.925-0.692-1.275-0.024-1.609,0.68
	c-0.434-0.352-0.452-1.244-1.328-1.021C60.669,55.067,60.771,54.813,60.872,54.557z"/>
<path fill-rule="evenodd" clip-rule="evenodd" fill="#363334" d="M40.752,81.694c1.448-1.222,3.126-1.942,4.975-2.296l0.018,0.017
	c-1.388,1.321-3.06,2.045-4.935,2.336L40.752,81.694z"/>
<path fill-rule="evenodd" clip-rule="evenodd" fill="#FCF383" d="M84.898,56.609c-0.278-0.433-0.557-0.866-0.835-1.298
	c-0.229-1.756,0.943-1.292,1.905-1.261C86.013,55.124,85.278,55.791,84.898,56.609z"/>
<path fill-rule="evenodd" clip-rule="evenodd" fill="#D9D9D9" d="M51.913,55.716c-0.333-1.04-1.141-1.148-2.069-1.095
	c-0.59,0.034-1.185-0.022-1.778-0.04c0.93-0.675,2.009-0.661,3.06-0.562C52.233,54.124,52.742,54.646,51.913,55.716z"/>
<path fill-rule="evenodd" clip-rule="evenodd" fill="#BFC1C3" d="M13.408,64.229c-0.873-0.956-0.602-2.407-1.458-3.37
	c0.046-0.196,0.093-0.393,0.14-0.589C13.408,60.968,13.924,62.517,13.408,64.229z"/>
<path fill-rule="evenodd" clip-rule="evenodd" fill="#CDCDCD" d="M93.854,82.607c0.309,0.706,0.901,0.812,1.583,0.78
	c0.742-0.033,1.491-0.064,2.166,0.343c-1.247,0.73-2.633,0.406-3.886,0.236C92.926,83.859,93.609,83.068,93.854,82.607z"/>
<path fill-rule="evenodd" clip-rule="evenodd" fill="#BFC1C3" d="M102.16,79.547c0.457,1.6,1.74,0.589,2.627,0.831
	c0.003,0.111,0.006,0.222,0.009,0.334c-0.697,0.979-1.745,0.875-2.585,0.512c-0.684-0.295-0.362-1.1-0.078-1.692
	C102.132,79.531,102.16,79.547,102.16,79.547z"/>
<path fill-rule="evenodd" clip-rule="evenodd" fill="#FCF383" d="M82.079,57.579c-0.791-0.004-1.131-0.393-0.894-1.155
	c0.26-0.833-0.316-0.755-0.801-0.805c0.134-0.351,0.268-0.701,0.401-1.05c0.808-0.171,0.84,0.718,1.333,0.976
	C81.867,56.219,81.808,56.896,82.079,57.579z"/>
<path fill-rule="evenodd" clip-rule="evenodd" fill="#BFC1C3" d="M132.199,68.183c-0.542,0.327-0.437,1.268-1.259,1.33
	c0.489-1.329,0.979-2.658,1.469-3.987c0.903,0.468,0.036,1.114,0.168,1.66C132.45,67.519,132.325,67.851,132.199,68.183z"/>
<path fill-rule="evenodd" clip-rule="evenodd" fill="#BFC1C3" d="M65.445,65.528c0.657,0.638-0.139,1.333,0.078,1.988
	c-0.773,0.473-0.348,1.889-1.579,2C64.445,68.187,64.945,66.857,65.445,65.528z"/>
<path fill-rule="evenodd" clip-rule="evenodd" fill="#A1A5A6" d="M106.387,68.826c-0.313,0.238-0.468,0.735-1.001,0.606
	c0.462-1.187,0.925-2.374,1.387-3.56c0.529,0.353,0.251,0.854,0.242,1.307C106.642,67.666,106.457,68.224,106.387,68.826z"/>
<path fill-rule="evenodd" clip-rule="evenodd" fill="#FCF383" d="M71.786,57.582c-0.317-0.24-0.295-0.549-0.166-0.869
	c0.401-0.995-0.148-1.128-0.94-1.049c0.171-0.357,0.341-0.715,0.512-1.071c1.025-0.207,0.81,0.89,1.304,1.242
	C72.259,56.417,72.022,56.999,71.786,57.582z"/>
<path fill-rule="evenodd" clip-rule="evenodd" fill="#363334" d="M38.095,86.336c-0.163-0.075-0.358-0.103-0.43-0.211
	c-0.134-0.203-0.043-0.426,0.155-0.551c0.177-0.112,0.382-0.215,0.587-0.246c0.753-0.117,1.342-0.859,2.19-0.567
	c0.046,0.016,0.075,0.267,0.047,0.281C39.803,85.481,38.954,85.904,38.095,86.336z"/>
<path fill-rule="evenodd" clip-rule="evenodd" fill="#A1A5A6" d="M72.692,65.537c0.787,0.625-0.095,1.29,0.045,1.93
	c-0.494,0.39-0.396,1.307-1.235,1.388C71.8,67.713,72.077,66.565,72.692,65.537z"/>
<path fill-rule="evenodd" clip-rule="evenodd" fill="#A1A5A6" d="M100.15,65.869c0.68,0.975-0.287,1.753-0.314,2.644
	c-0.342,0.19-0.45,0.721-0.964,0.659C99.154,68.016,99.598,66.921,100.15,65.869z"/>
<path fill-rule="evenodd" clip-rule="evenodd" fill="#96C94F" d="M14.039,51.403c0.018,0.184,0.035,0.368,0.052,0.552
	c-0.902,0.223-1.804,0.446-2.706,0.668c-0.379,0-0.757,0-1.137,0c-0.019-0.075-0.037-0.15-0.056-0.226
	C11.475,52.065,12.756,51.734,14.039,51.403z"/>
<path fill-rule="evenodd" clip-rule="evenodd" fill="#FCF383" d="M55.065,57.238c-0.516,0.068-0.722-0.137-0.547-0.644
	c0.264-0.764-0.147-0.969-0.797-0.985c-0.093-0.46,0.208-0.765,0.433-1.1c1.109-0.192,0.741,0.954,1.212,1.338
	C55.196,56.296,54.799,56.695,55.065,57.238z"/>
<path fill-rule="evenodd" clip-rule="evenodd" fill="#E8E8E8" d="M57.615,74.18c-1.183,0.37-2.403,0.258-3.613,0.285
	c0.957-0.837,2.778-0.976,3.643-0.275L57.615,74.18z"/>
<path fill-rule="evenodd" clip-rule="evenodd" fill="#D9D9D9" d="M72.496,55.835c-0.494-0.352-0.278-1.449-1.304-1.242
	c0.353-1.024,1.366-0.751,1.722-0.435C73.466,54.65,72.763,55.286,72.496,55.835z"/>
<path fill-rule="evenodd" clip-rule="evenodd" fill="#5B5C5E" d="M25.919,80.081c1.008,0.313,1.44,0.917,0.998,1.967l0.012,0.007
	c-0.337-0.496-0.845-0.286-1.296-0.313c0,0-0.102-0.095-0.101-0.093c0.016-0.301,0.032-0.601,0.047-0.9c0,0,0.037-0.046,0.037-0.046
	C25.868,80.569,25.908,80.332,25.919,80.081z"/>
<path fill-rule="evenodd" clip-rule="evenodd" fill="#363334" d="M24.439,63.836c-0.53-0.699-1.052-1.064-1.605-1.396
	c-0.209-0.126-0.213-0.391-0.086-0.576c0.065-0.094,0.334-0.174,0.399-0.122C23.759,62.238,24.884,62.387,24.439,63.836z"/>
<path fill-rule="evenodd" clip-rule="evenodd" fill="#CDCDCD" d="M55.365,55.847c-0.471-0.384-0.103-1.531-1.212-1.338
	c0.327-0.894,1.265-0.718,1.585-0.434C56.394,54.657,55.615,55.265,55.365,55.847z"/>
<path fill-rule="evenodd" clip-rule="evenodd" fill="#D9D9D9" d="M82.119,55.545c-0.493-0.258-0.525-1.147-1.333-0.976
	c0.267-0.986,1.209-0.738,1.583-0.496C83.016,54.49,82.364,55.063,82.119,55.545z"/>
<path fill-rule="evenodd" clip-rule="evenodd" fill="#F4F4F4" d="M11.157,64.587c0.837,0.373,0.922,1.143,0.826,1.87
	c-0.075,0.574-0.678,0.352-1.079,0.39C10.988,66.093,11.073,65.34,11.157,64.587z"/>
<path fill-rule="evenodd" clip-rule="evenodd" fill="#BFC1C3" d="M59.649,68.932c-0.085-0.5,0.179-0.735,0.626-0.834
	c0.745,0.021,1.489,0.044,2.234,0.067c0.128,0.533-0.159,0.625-0.612,0.635C61.148,68.816,60.399,68.885,59.649,68.932z"/>
<path fill-rule="evenodd" clip-rule="evenodd" fill="#F4F4F4" d="M10.86,67.869c1.195-0.372,1.284,0.569,1.548,1.303
	c-0.525,0.001-1.05,0.001-1.574,0.003C10.842,68.739,10.851,68.304,10.86,67.869z"/>
<path fill-rule="evenodd" clip-rule="evenodd" fill="#E8E8E8" d="M84.667,69.784c0.328,1.171,0.273,2.186-1.093,2.664
	C83.788,71.497,84.14,70.604,84.667,69.784z"/>
<path fill-rule="evenodd" clip-rule="evenodd" fill="#363334" d="M22.302,64.875c-0.528-0.352-1.011-0.747-1.317-1.319
	C22.715,62.707,22.19,64.108,22.302,64.875z"/>
<path fill-rule="evenodd" clip-rule="evenodd" fill="#363334" d="M42.339,91.114c-0.611,0.009-0.807,0.805-1.487,0.634
	c-0.192-0.048-0.41-0.407-0.236-0.499c0.488-0.257,1.043-0.388,1.571-0.568C42.239,90.825,42.289,90.97,42.339,91.114z"/>
<path fill-rule="evenodd" clip-rule="evenodd" fill="#96C94F" d="M19.668,107.487c0.269-0.781,0.264-1.745,1.329-1.994
	C20.719,106.268,20.648,107.18,19.668,107.487z"/>
<path fill-rule="evenodd" clip-rule="evenodd" fill="#D9D9D9" d="M33.536,46.878c-0.005-0.159-0.011-0.317-0.016-0.476
	c0.771-0.207,1.543-0.414,2.314-0.62c-0.004,0.192-0.008,0.384-0.012,0.576C35.061,46.532,34.298,46.705,33.536,46.878z"/>
<path fill-rule="evenodd" clip-rule="evenodd" fill="#363334" d="M45.008,90.096c-0.016,0.23-0.085,0.428-0.351,0.456
	c-0.333,0.038-0.511-0.136-0.505-0.459c0.004-0.255,0.196-0.388,0.426-0.387C44.809,89.707,44.979,89.84,45.008,90.096z"/>
<path fill-rule="evenodd" clip-rule="evenodd" fill="#363334" d="M42.314,61.159c-0.49-0.714-0.422-1.106,0.17-1.461
	C42.856,60.213,42.343,60.58,42.314,61.159z"/>
<path fill-rule="evenodd" clip-rule="evenodd" fill="#D9D9D9" d="M84.097,81.469c-0.025-0.357-0.049-0.714-0.074-1.07
	c0.189-0.245,0.262-0.628,0.692-0.585c-0.001,0.113-0.002,0.227-0.003,0.34C84.727,80.694,84.525,81.135,84.097,81.469z"/>
<path fill-rule="evenodd" clip-rule="evenodd" fill="#363334" d="M38.794,88.658c-0.358-0.025-0.716-0.051-1.251-0.089
	c0.634-0.693,1.019-0.817,1.266,0.075L38.794,88.658z"/>
<path fill-rule="evenodd" clip-rule="evenodd" fill="#363334" d="M23.372,64.525c-0.074-0.08-0.172-0.185-0.27-0.29
	c0.115-0.07,0.224-0.178,0.347-0.197c0.069-0.011,0.198,0.106,0.235,0.193C23.786,64.468,23.601,64.492,23.372,64.525z"/>
<path fill-rule="evenodd" clip-rule="evenodd" fill="#E8E8E8" d="M141.744,70.812c-0.525-0.583-0.317-0.876,0.384-0.979
	C141.999,70.159,141.872,70.485,141.744,70.812z"/>
<path fill-rule="evenodd" clip-rule="evenodd" fill="#363334" d="M36.869,89.027c-0.086,0.044-0.209,0.149-0.34,0.159
	c-0.171,0.013-0.299-0.126-0.206-0.289c0.059-0.103,0.23-0.183,0.358-0.193C36.823,88.691,36.992,88.755,36.869,89.027z"/>
<path fill-rule="evenodd" clip-rule="evenodd" fill="#96C94F" d="M19.007,108.479c0.035-0.463,0.216-0.829,0.673-1.011
	C19.784,108.024,19.589,108.381,19.007,108.479z"/>
<path fill-rule="evenodd" clip-rule="evenodd" fill="#363334" d="M43.837,58.827c-0.093-0.041-0.235-0.061-0.262-0.128
	c-0.027-0.065,0.064-0.179,0.103-0.271c0.093,0.04,0.235,0.06,0.262,0.126C43.966,58.622,43.877,58.734,43.837,58.827z"/>
<path fill-rule="evenodd" clip-rule="evenodd" fill="#96C94F" d="M18.373,108.507c0.217-0.013,0.434-0.026,0.651-0.04
	c0.05,0.274,0.015,0.536-0.311,0.563C18.34,109.063,18.369,108.761,18.373,108.507z"/>
<path fill-rule="evenodd" clip-rule="evenodd" fill="#5B5C5E" d="M20.462,72.262c-0.14-0.379-0.074-0.662,0.366-0.768
	C21.1,71.938,20.843,72.13,20.462,72.262z"/>
<path fill-rule="evenodd" clip-rule="evenodd" fill="#363334" d="M42.201,93.105c-0.095,0.051-0.18,0.13-0.264,0.129
	c-0.083-0.001-0.166-0.084-0.249-0.131c0.083-0.047,0.166-0.13,0.25-0.13C42.021,92.973,42.105,93.055,42.201,93.105z"/>
<path fill-rule="evenodd" clip-rule="evenodd" fill="#7D7E80" d="M25.919,80.081c-0.011,0.251-0.052,0.488-0.303,0.621
	c-0.002-0.22-0.004-0.439-0.007-0.658C25.717,80.017,25.821,80.03,25.919,80.081z"/>
<path fill-rule="evenodd" clip-rule="evenodd" fill="#363334" d="M20.674,58.263c0.077,0.123,0.155,0.244,0.223,0.371
	c0.005,0.008-0.072,0.061-0.111,0.092c-0.058-0.136-0.115-0.273-0.173-0.409C20.612,58.317,20.674,58.263,20.674,58.263z"/>
<path fill-rule="evenodd" clip-rule="evenodd" fill="#363334" d="M39.128,89.315c-0.264-0.142-0.323-0.388-0.334-0.657l0.015-0.014
	c0.262,0.145,0.322,0.39,0.329,0.661L39.128,89.315z"/>
<path fill-rule="evenodd" clip-rule="evenodd" fill="#E8E8E8" d="M58.906,70.816c-0.252-0.138-0.2-0.241,0.037-0.323
	C58.93,70.602,58.918,70.709,58.906,70.816z"/>
<path fill-rule="evenodd" clip-rule="evenodd" fill="#363334" d="M40.809,81.751c-0.057,0.038-0.113,0.075-0.17,0.112
	c0.038-0.057,0.076-0.112,0.113-0.169L40.809,81.751z"/>
<path fill-rule="evenodd" clip-rule="evenodd" fill="#363334" d="M45.727,79.398c0.029-0.046,0.057-0.091,0.086-0.137
	c-0.023,0.052-0.045,0.103-0.068,0.153L45.727,79.398z"/>
<path fill-rule="evenodd" clip-rule="evenodd" fill="#5B5C5E" d="M18.337,55.301c-0.107-0.107-0.214-0.214-0.321-0.321
	C18.241,54.97,18.33,55.095,18.337,55.301z"/>
<path fill-rule="evenodd" clip-rule="evenodd" fill="#5B5C5E" d="M18.833,55.638c-0.238,0.004-0.422-0.072-0.486-0.326
	C18.509,55.421,18.671,55.529,18.833,55.638z"/>
<path fill-rule="evenodd" clip-rule="evenodd" fill="#FCF383" d="M55.289,57.273c-0.06,0.06-0.121,0.121-0.181,0.181
	c-0.031-0.083-0.063-0.167-0.093-0.251C55.112,57.203,55.204,57.227,55.289,57.273z"/>
<path fill-rule="evenodd" clip-rule="evenodd" fill="#363334" d="M39.138,89.306c0.046,0.027,0.092,0.054,0.139,0.082
	c-0.05-0.024-0.099-0.049-0.148-0.072L39.138,89.306z"/>
<path fill-rule="evenodd" clip-rule="evenodd" fill="#E7E637" d="M33.536,46.878c0.762-0.173,1.524-0.346,2.287-0.52
	c3.53-0.883,7.06-1.765,10.59-2.647c-0.004,0.678-0.007,1.355-0.012,2.033c-0.221,0.221-0.442,0.442-0.663,0.662
	c-1.055-0.127-2.033,0.496-3.095,0.304c1.168,1.202,2.082,0.04,3.083-0.318c0.431-0.009,0.653-0.228,0.66-0.661
	c0.911-0.481,0.543-1.566,1.056-2.236c2.727-0.7,5.453-1.401,8.18-2.101c0.024,0.478,0.048,0.957,0.072,1.446
	c1.815-0.427,4.135,0.673,4.922,2.286c-0.674,1.182-2.299,1.514-2.662,2.975c-1.116,0.289-1.056,1.442-1.588,2.161
	c-4.55,0.136-9.099,0.272-13.647,0.407c-1.258,0.038-2.508,0-3.769,0.228c-1.17,0.21-2.272,0.078-3.376-0.763
	c-1.194-0.911-2.655-1.492-3.849-2.462C32.329,47.408,32.932,47.143,33.536,46.878z M55.197,43.446
	c-0.049-0.08-0.082-0.202-0.145-0.219c-0.071-0.02-0.168,0.054-0.254,0.086c0.064,0.101,0.128,0.202,0.192,0.303
	C55.059,43.561,55.125,43.505,55.197,43.446z M41.831,47.283c-0.065,0.085-0.123,0.16-0.181,0.235
	c0.084,0.017,0.168,0.044,0.252,0.044c0.026,0,0.083-0.089,0.073-0.109C41.943,47.391,41.884,47.342,41.831,47.283z"/>
<path fill-rule="evenodd" clip-rule="evenodd" fill="#E7E637" d="M58.372,48.448c1.401-1.159,2.692-2.479,4.485-3.063
	c1.109,0.109,1.781,1.123,2.826,1.362c-0.542,1.255-1.588,2.148-2.338,3.254c-1.941-0.081-3.851,0.583-5.803,0.257
	C57.449,49.484,58.079,49.043,58.372,48.448z"/>
<path fill-rule="evenodd" clip-rule="evenodd" fill="#E7E637" d="M24.945,70.492c-0.005-0.469,0.237-0.791,0.614-1.033
	c1.695,0.644,3.674-0.32,5.283,0.971c0.378,0.304,0.747-0.271,1.122-0.458c0.735-0.365,0.974-1.352,1.893-1.452l-0.011-0.009
	c-0.188,2.002-1.779,3.175-3.377,2.368C28.65,69.963,26.818,70.152,24.945,70.492z"/>
<path fill-rule="evenodd" clip-rule="evenodd" fill="#E8E8E8" d="M58.372,48.448c-0.292,0.596-0.922,1.037-0.83,1.81
	c-0.392,0.001-0.784,0.003-1.176,0.005c0.533-0.719,0.473-1.872,1.589-2.161C58.094,48.217,58.232,48.333,58.372,48.448z"/>
<path fill-rule="evenodd" clip-rule="evenodd" fill="#E7E637" d="M33.857,68.521c-0.191-0.863-0.387-1.729,0.993-1.647l-0.013-0.013
	c-0.33,0.551-0.66,1.101-0.991,1.651L33.857,68.521z"/>
<path fill-rule="evenodd" clip-rule="evenodd" fill="#BFC1C3" d="M17.052,82.69c-0.123,0.006-0.246,0.012-0.368,0.019
	c-0.323-0.884,0.456-2.177-0.983-2.645c-0.243-0.15-0.28-0.392-0.283-0.647c1.126-0.515,0.467-1.312,0.317-2.026
	c0.75-0.076,0.979,0.472,1.298,0.998c0.581,0.954,0.001,2.172,0.882,3.121C18.315,81.939,17.333,82.265,17.052,82.69z"/>
<path fill-rule="evenodd" clip-rule="evenodd" fill="#BFC1C3" d="M19.318,89.622c-0.331-2.357-1.49-4.519-1.638-6.919
	c0.366,0.027,0.585,0.202,0.686,0.574c0.507,1.875,1.038,3.744,1.545,5.619C20.042,89.38,19.802,89.615,19.318,89.622z"/>
<path fill-rule="evenodd" clip-rule="evenodd" fill="#BFC1C3" d="M14.736,70.83c-0.612-0.247-0.725-0.757-0.688-1.335
	c0.086-1.375-0.786-2.597-0.638-3.981C14.462,67.133,15.134,68.849,14.736,70.83z"/>
<path fill-rule="evenodd" clip-rule="evenodd" fill="#BFC1C3" d="M15.729,75.122c-1.193-0.98-0.872-2.38-1.011-3.652
	C15.866,72.463,16.399,73.626,15.729,75.122z"/>
<path fill-rule="evenodd" clip-rule="evenodd" fill="#D9D9D9" d="M15.735,77.391c0.149,0.715,0.809,1.512-0.317,2.026
	c-0.628-0.87-0.885-1.748-0.057-2.65c0.114-0.001,0.229-0.002,0.343-0.003C15.715,76.973,15.725,77.182,15.735,77.391z"/>
<path fill-rule="evenodd" clip-rule="evenodd" fill="#96C94F" d="M33.846,68.512c0.331-0.551,0.661-1.101,0.991-1.651
	c2.194-0.699,4.447-0.281,6.669-0.299c0.891-0.008,0.283,0.657,0.216,1.078c-0.491,3.093-2.783,5.011-4.656,7.204
	c-4.118-0.009-8.237-0.059-12.354-0.001c-1.296,0.019-1.549-0.387-1.032-1.497c0.439-0.942,0.845-1.901,1.266-2.853
	c1.873-0.34,3.705-0.529,5.523,0.388C32.066,71.687,33.658,70.514,33.846,68.512z"/>
<path fill-rule="evenodd" clip-rule="evenodd" fill="#2A2726" d="M21.977,67.188c-0.05-0.018-0.101-0.036-0.152-0.053
	c0.046,0.022,0.092,0.045,0.138,0.068L21.977,67.188z"/>
<path fill-rule="evenodd" clip-rule="evenodd" fill="#FCF383" d="M65.683,46.746c-1.045-0.239-1.717-1.253-2.826-1.362
	c1.167-1.394,1.238-2.907,0.561-4.545c-0.444-1.074,0.279-1.48,1.141-1.758c2.452-0.787,4.963-1.329,7.839-1.925
	C70.227,40.619,68.088,43.771,65.683,46.746z"/>
<path fill-rule="evenodd" clip-rule="evenodd" fill="#FCF383" d="M60.617,45.127c-0.787-1.613-3.107-2.713-4.922-2.286
	c-0.024-0.49-0.048-0.968-0.072-1.446c1.92-0.837,4.082-0.888,5.968-1.832c0.164-0.01,0.46-0.062,0.471-0.026
	c0.402,1.33,1.186,2.685,0.914,4.023C62.805,44.398,61.905,45.357,60.617,45.127z"/>
<path fill-rule="evenodd" clip-rule="evenodd" fill="#D9D9D9" d="M15.701,80.064c1.439,0.468,0.66,1.761,0.983,2.645l0.004-0.004
	c-0.107,0.005-0.213,0.014-0.319,0.025c0,0-0.021-0.045-0.022-0.046C16.104,81.818,15.416,81.061,15.701,80.064z"/>
<path fill-rule="evenodd" clip-rule="evenodd" fill="#D9D9D9" d="M14.042,74.789c1.12,0.023,0.93,1.069,1.308,1.673
	C14.189,76.471,14.086,75.652,14.042,74.789z"/>
<path fill-rule="evenodd" clip-rule="evenodd" fill="#D9D9D9" d="M13.68,70.458c0.068,0.712,0.15,1.434-0.927,1.372
	C12.694,71.124,12.653,70.431,13.68,70.458z"/>
<path fill-rule="evenodd" clip-rule="evenodd" fill="#5B5C5E" d="M23.28,81.072c-0.29,0.101-0.338,0.614-0.742,0.477
	c-0.229-0.076-0.266-0.354-0.139-0.533c0.291-0.409,0.609-0.335,0.895,0.033L23.28,81.072z"/>
<path fill-rule="evenodd" clip-rule="evenodd" fill="#D9D9D9" d="M92.606,68.185c0.879,0,1.761,0.045,2.636-0.011
	c1.007-0.064,1.585,0.292,1.619,1.35c-1.151-0.006-2.306,0.034-3.453-0.036C92.63,69.44,91.882,69.227,92.606,68.185z"/>
<path fill-rule="evenodd" clip-rule="evenodd" fill="#A1A5A6" d="M91.3,80.069c-0.332-0.081-0.516,0.105-0.659,0.366
	c-0.922,0.004-1.844,0.008-2.766,0.012c0.045-0.454,0.088-0.909,0.134-1.364c1.079,0.009,2.159,0.019,3.238,0.028
	C91.265,79.432,91.282,79.751,91.3,80.069z"/>
<path fill-rule="evenodd" clip-rule="evenodd" fill="#A1A5A6" d="M133.854,79.077c0.895-0.009,1.79-0.017,2.686-0.026
	c0.01,0.45,0.021,0.9,0.03,1.351c-0.908,0.009-1.816,0.016-2.725,0.024C133.849,79.977,133.852,79.526,133.854,79.077z"/>
<path fill-rule="evenodd" clip-rule="evenodd" fill="#BFC1C3" d="M133.846,80.426c0.908-0.009,1.816-0.016,2.725-0.024
	c0.219,0.181,0.229,0.415,0.174,0.667C135.687,81.26,134.46,82.225,133.846,80.426z"/>
<path fill-rule="evenodd" clip-rule="evenodd" fill="#A1A5A6" d="M110.755,78.77c0.747,0.159,1.888-0.498,2.001,0.968
	c-0.488,0.024-0.59,0.557-0.963,0.732c-0.864-0.038-1.729-0.075-2.594-0.111c-0.163-0.115-0.326-0.232-0.489-0.349
	c-0.021-0.364,0.046-0.696,0.351-0.939C109.641,79.054,110.263,79.282,110.755,78.77z"/>
<path fill-rule="evenodd" clip-rule="evenodd" fill="#BFC1C3" d="M109.199,80.358c0.865,0.036,1.729,0.073,2.594,0.111
	c-0.64,1.444-1.669,1.042-2.713,0.572C109.12,80.814,109.16,80.586,109.199,80.358z"/>
<path fill-rule="evenodd" clip-rule="evenodd" fill="#E8E8E8" d="M109.199,80.358c-0.039,0.228-0.079,0.456-0.119,0.684
	c-1.426-0.146-2.904,0.416-4.284-0.33c-0.003-0.112-0.006-0.223-0.009-0.334c0.147-0.326,0.296-0.652,0.444-0.979
	c0.09,0.001,0.181,0.006,0.271,0.016c0.122,0.411-0.34,1.188,0.398,1.177c0.942-0.012,2.091,0.604,2.81-0.582
	C108.873,80.126,109.036,80.243,109.199,80.358z"/>
<path fill-rule="evenodd" clip-rule="evenodd" fill="#A1A5A6" d="M74.404,79.429c0.918-0.659,1.949-0.248,2.929-0.308
	c0.001,0.413,0.003,0.828,0.006,1.242c-0.96,0.009-1.919,0.018-2.88,0.025C74.441,80.069,74.423,79.749,74.404,79.429z"/>
<path fill-rule="evenodd" clip-rule="evenodd" fill="#BFC1C3" d="M74.459,80.389c0.961-0.008,1.92-0.017,2.88-0.025
	c0.155,0.223,0.311,0.446,0.466,0.67C76.587,81.353,75.276,82.151,74.459,80.389z"/>
<path fill-rule="evenodd" clip-rule="evenodd" fill="#A1A5A6" d="M115.689,79.749c0.909-1.113,1.967-0.817,3.047-0.32
	c-0.076,0.432-0.053,0.849,0.184,1.235c-0.867,0.056-1.734,0.11-2.603,0.167C115.76,80.672,115.725,80.211,115.689,79.749z"/>
<path fill-rule="evenodd" clip-rule="evenodd" fill="#CDCDCD" d="M116.317,80.831c0.868-0.057,1.735-0.111,2.603-0.167
	c1.123,1.259,2.692,0.425,3.999,1.051c-1.954,0-3.909,0.003-5.864-0.002C116.471,81.711,116.361,81.293,116.317,80.831z"/>
<path fill-rule="evenodd" clip-rule="evenodd" fill="#E8E8E8" d="M54.666,68.096c-0.744,0.086-1.35,0.068-0.69-0.91
	C54.159,67.524,54.655,67.626,54.666,68.096z"/>
<path fill-rule="evenodd" clip-rule="evenodd" fill="#A1A5A6" d="M52.334,79.023c0.603,0.013,1.206,0.018,1.808,0.038
	c0.326,0.011,0.688,0.007,0.784,0.425c0.08,0.352-0.093,0.65-0.311,0.896c-0.692,0.788-2.39,0.403-2.84-0.632
	C51.963,79.508,52.148,79.266,52.334,79.023z"/>
<path fill-rule="evenodd" clip-rule="evenodd" fill="#BFC1C3" d="M56.332,72.169c-0.421-0.155-1.234,0.239-1.139-0.483
	c0.098-0.737,0.944-0.521,1.503-0.515c0.378,0.006,1.083-0.212,1.038,0.369C57.671,72.351,56.848,72.061,56.332,72.169z"/>
<path fill-rule="evenodd" clip-rule="evenodd" fill="#D9D9D9" d="M55.958,69.17c0.112-0.108,0.223-0.217,0.334-0.325
	c0.845,0.313,2.046-0.728,2.601,0.686C57.924,69.336,56.867,69.851,55.958,69.17z"/>
<path fill-rule="evenodd" clip-rule="evenodd" fill="#E8E8E8" d="M132.199,68.183c0.126-0.333,0.251-0.665,0.378-0.997
	c2.641,0.003,5.284,0.08,7.92-0.023c1.351-0.052,1.813,0.423,1.611,1.692c-1.066-0.017-1.979-0.186-3.013-0.773
	c-1.035-0.585-2.619-0.534-3.917,0.095C134.186,68.179,133.192,68.181,132.199,68.183z"/>
<path fill-rule="evenodd" clip-rule="evenodd" fill="#E8E8E8" d="M106.387,68.826c0.07-0.602,0.255-1.16,0.628-1.646
	c2.36,0.005,4.721,0.02,7.082,0.01c0.71-0.003,1.367-0.001,1.287,0.992c-0.885,0.004-1.768,0.007-2.651,0.012
	c-0.453,0.045-0.979-0.21-1.313,0.322c-1.128-0.125-1.885,0.024-2.148,1.457c-0.249,1.355-0.994,2.618-1.521,3.92
	c-1.073,0.248-2.163,0.261-3.256,0.238c0.345-0.789,1.052-0.64,1.697-0.666c0.519-0.021,1.157,0.164,1.272-0.653
	c0.453-0.834,0.806-1.706,0.996-2.639c0.611-0.848,0.72-1.438-0.65-1.336C107.339,68.871,106.861,68.832,106.387,68.826z"/>
<path fill-rule="evenodd" clip-rule="evenodd" fill="#FCF383" d="M46.401,45.744c0.004-0.678,0.007-1.355,0.012-2.033
	c0.313-0.215,0.648-0.324,1.029-0.216c-0.512,0.669-0.145,1.755-1.056,2.236L46.401,45.744z"/>
<path fill-rule="evenodd" clip-rule="evenodd" fill="#2A2726" d="M135.271,68.698c1.007-0.236,2.516-0.59,2.89,0.083
	c0.456,0.824-0.534,1.985-1.109,2.889c-0.272,0.428-0.814,0.685-1.233,1.02c-0.591,0.041-1.183,0.083-1.976,0.14
	C134.354,71.352,134.813,70.025,135.271,68.698z"/>
<path fill-rule="evenodd" clip-rule="evenodd" fill="#BFC1C3" d="M132.745,69.867c1.176-0.16,1.634,0.151,0.959,1.298
	c-0.41,0.7-0.274,1.956-1.46,1.836c-0.496-0.05-1.824,0.15-1.516-0.898C131,71.177,130.817,69.39,132.745,69.867z"/>
<path fill-rule="evenodd" clip-rule="evenodd" fill="#CDCDCD" d="M74.127,70.83c-0.221,0.55-0.441,1.101-0.663,1.65
	c-0.162-0.001-0.333,0.034-0.483-0.007c-0.669-0.186-1.669,0.497-1.967-0.446c-0.156-0.495,0.294-1.34,0.861-1.629
	C72.645,70.007,73.54,69.854,74.127,70.83z"/>
<path fill-rule="evenodd" clip-rule="evenodd" fill="#BFC1C3" d="M139.146,72.156c-0.378-0.158-1.166,0.3-1.122-0.467
	c0.038-0.65,0.718-0.887,1.381-0.859c0.533,0.021,1.278-0.052,1.216,0.688C140.551,72.35,139.722,72.076,139.146,72.156z"/>
<path fill-rule="evenodd" clip-rule="evenodd" fill="#BFC1C3" d="M110.755,78.77c-0.492,0.513-1.114,0.284-1.694,0.301
	c0.679-1.757,1.358-3.515,2.037-5.272c0.114,0.113,0.228,0.227,0.342,0.341c-0.284,0.874-0.444,1.816-0.886,2.603
	C110.099,77.552,110.247,78.138,110.755,78.77z"/>
<path fill-rule="evenodd" clip-rule="evenodd" fill="#2A2726" d="M111.098,73.798c-0.679,1.758-1.358,3.516-2.037,5.272
	c-0.305,0.243-0.371,0.575-0.351,0.939c-0.719,1.186-1.867,0.57-2.81,0.582c-0.738,0.011-0.276-0.766-0.398-1.177
	c1.27-1.629,1.388-3.727,2.249-5.522c0.526-1.303,1.271-2.565,1.521-3.92c0.264-1.433,1.021-1.582,2.148-1.457
	c0.313,0.333,0.626,0.666,0.938,0.999C111.938,70.942,111.519,72.37,111.098,73.798z"/>
<path fill-rule="evenodd" clip-rule="evenodd" fill="#BFC1C3" d="M113.493,72.374c-0.145-0.051-1.112,0.442-0.958-0.583
	c0.136-0.906,0.564-1.851,1.834-1.613c0.438,0.083,1.256-0.362,1.144,0.629C115.406,71.767,115.207,72.737,113.493,72.374z"/>
<path fill-rule="evenodd" clip-rule="evenodd" fill="#BFC1C3" d="M112.358,69.515c-0.313-0.333-0.625-0.666-0.938-0.999
	c0.334-0.532,0.859-0.277,1.313-0.322C112.963,68.734,113.471,69.354,112.358,69.515z"/>
<path fill-rule="evenodd" clip-rule="evenodd" fill="#7D7E80" d="M25.58,80.748c-0.016,0.3-0.031,0.6-0.047,0.9
	c-0.271-0.006-0.522-0.066-0.546-0.389C24.956,80.846,25.263,80.782,25.58,80.748z"/>
<path fill-rule="evenodd" clip-rule="evenodd" fill="#2A2726" d="M25.633,81.741c0.451,0.027,0.959-0.183,1.296,0.313
	C26.494,81.966,25.988,82.166,25.633,81.741z"/>
<path fill-rule="evenodd" clip-rule="evenodd" fill="#A1A5A6" d="M84.715,79.813c-0.431-0.043-0.503,0.34-0.692,0.585
	c-0.59,0.001-1.181,0.011-1.771,0.001c-0.384-0.006-0.801-0.023-0.78-0.564c0.016-0.443,0.321-0.693,0.73-0.712
	c0.803-0.035,1.608-0.01,2.413-0.01C84.647,79.347,84.682,79.581,84.715,79.813z"/>
<path fill-rule="evenodd" clip-rule="evenodd" fill="#CDCDCD" d="M87.875,80.447c0.922-0.004,1.844-0.008,2.766-0.012
	c-0.342,1.482-1.527,0.879-2.399,0.911C87.654,81.367,87.545,80.937,87.875,80.447z"/>
<path fill-rule="evenodd" clip-rule="evenodd" fill="#E8E8E8" d="M67.182,71.118c-0.109-0.1-0.218-0.198-0.328-0.298
	C66.964,70.92,67.073,71.019,67.182,71.118z"/>
<path fill-rule="evenodd" clip-rule="evenodd" fill="#A1A5A6" d="M67.876,79.409c0.998,0.11,2.066-0.387,2.99,0.351
	c-0.128,0.209-0.258,0.417-0.388,0.626c-0.873,0.002-1.746,0.003-2.62,0.004C67.865,80.063,67.871,79.736,67.876,79.409z"/>
<path fill-rule="evenodd" clip-rule="evenodd" fill="#BFC1C3" d="M67.859,80.39c0.874-0.001,1.747-0.002,2.62-0.004
	c-0.272,1.562-1.5,0.943-2.363,0.954C67.338,81.348,67.729,80.774,67.859,80.39z"/>
<path fill-rule="evenodd" clip-rule="evenodd" fill="#F0F0F0" d="M13.06,72.481c0.023-0.048,0.047-0.095,0.071-0.143
	c-0.027,0.044-0.054,0.089-0.081,0.133L13.06,72.481z"/>
<path fill-rule="evenodd" clip-rule="evenodd" fill="#A1A5A6" d="M60.615,79.404c1.03-0.27,2.104-0.922,2.956,0.343
	c-0.112,0.22-0.223,0.439-0.335,0.659c-0.888-0.002-1.777-0.002-2.666-0.003C60.584,80.069,60.6,79.737,60.615,79.404z"/>
<path fill-rule="evenodd" clip-rule="evenodd" fill="#BFC1C3" d="M60.569,80.403c0.889,0.001,1.777,0.001,2.666,0.003
	c-0.489,0.873-2.097,1.375-2.756,0.82C60.193,80.986,60.284,80.65,60.569,80.403z"/>
<path fill-rule="evenodd" clip-rule="evenodd" fill="#363334" d="M61.896,56.343c0.334-0.705,0.685-1.373,1.609-0.68
	c0.083,1.2-0.826,2.122-0.917,3.273c-0.073,0.075-0.185,0.138-0.215,0.228c-0.228,0.706-0.554,1.459-1.428,1.051
	c-0.815-0.381,0.166-1.01,0.024-1.538C61.416,57.954,61.724,57.175,61.896,56.343z"/>
<path fill-rule="evenodd" clip-rule="evenodd" fill="#F0F0F0" d="M107.751,73.893c-0.861,1.796-0.979,3.894-2.249,5.522
	c-0.09-0.01-0.181-0.015-0.271-0.016c-0.028-0.107-0.045-0.215-0.05-0.326c0.299-1.094-0.607-0.626-0.933-0.615
	c-1.17,0.029-1.653-0.221-1.061-1.489c0.359-0.767,0.453-1.657,0.666-2.493c0.214-0.114,0.427-0.23,0.641-0.345
	C105.588,74.153,106.678,74.141,107.751,73.893z"/>
<path fill-rule="evenodd" clip-rule="evenodd" fill="#CDCDCD" d="M108.461,70.172c-0.19,0.933-0.543,1.805-0.996,2.639
	c-0.754-0.129-1.757,0.384-2.188-0.565c-0.316-0.698,0.228-1.407,0.698-1.869C106.676,69.691,107.574,69.548,108.461,70.172z"/>
<path fill-rule="evenodd" clip-rule="evenodd" fill="#BFC1C3" d="M16.369,82.73c0.105-0.012,0.212-0.021,0.319-0.025
	C16.594,82.882,16.49,82.917,16.369,82.73z"/>
<path fill-rule="evenodd" clip-rule="evenodd" fill="#FCF383" d="M45.726,46.392c-1,0.357-1.915,1.52-3.083,0.318
	c1.062,0.192,2.041-0.431,3.095-0.304L45.726,46.392z"/>
<path fill-rule="evenodd" clip-rule="evenodd" fill="#FCF383" d="M55.197,43.446c-0.072,0.059-0.139,0.115-0.207,0.17
	c-0.064-0.101-0.128-0.202-0.192-0.303c0.086-0.033,0.184-0.106,0.254-0.086C55.115,43.244,55.148,43.366,55.197,43.446z"/>
<path fill-rule="evenodd" clip-rule="evenodd" fill="#FCF383" d="M41.831,47.283c0.053,0.059,0.112,0.108,0.144,0.17
	c0.011,0.02-0.046,0.109-0.073,0.109c-0.084,0-0.168-0.027-0.252-0.044C41.708,47.443,41.766,47.368,41.831,47.283z"/>
<path fill-rule="evenodd" clip-rule="evenodd" fill="#FCF383" d="M45.738,46.406c0.221-0.22,0.442-0.441,0.663-0.662l-0.015-0.013
	c-0.007,0.434-0.229,0.652-0.66,0.661C45.726,46.392,45.738,46.406,45.738,46.406z"/>
</svg>
