<?xml version="1.0" encoding="utf-8"?>
<!-- Generator: Adobe Illustrator 16.0.0, SVG Export Plug-In . SVG Version: 6.00 Build 0)  -->
<!DOCTYPE svg PUBLIC "-//W3C//DTD SVG 1.1//EN" "http://www.w3.org/Graphics/SVG/1.1/DTD/svg11.dtd">
<svg version="1.1" id="flag-icon-css-am" xmlns="http://www.w3.org/2000/svg" xmlns:xlink="http://www.w3.org/1999/xlink" x="0px"
	 y="0px" width="150px" height="150px" viewBox="0 0 150 150" enable-background="new 0 0 150 150" xml:space="preserve">
<g>
	<g>
		<path fill="#0F0F11" d="M86.746,107.69c5.61,2.19,8.544,5.952,8.78,11.579c0.217,5.151-2.766,9.391-8.05,11.684
			c-2.703,1.171-5.533,1.906-8.506,1.911c-8.007,0.014-16.012-0.067-24.016,0.079c-2.232,0.04-2.73-0.653-2.717-2.785
			c0.094-14.009,0.101-28.02-0.005-42.027c-0.017-2.247,0.687-2.743,2.801-2.709c7.769,0.133,15.541,0.007,23.309,0.11
			c3.427,0.047,6.703,0.916,9.746,2.588c3.695,2.029,5.849,5.021,5.849,9.315c0,4.264-2.019,7.342-5.782,9.311
			C87.759,106.952,87.409,107.241,86.746,107.69z M72.313,113.771c-5.652,0-5.652,0-5.6,5.564c0.005,0.586,0.01,1.172,0.007,1.756
			c-0.003,0.652,0.194,1.207,0.946,1.165c3.48-0.198,7.023,0.674,10.433-0.652c1.766-0.685,2.471-2.06,2.436-3.853
			c-0.034-1.718-1.007-2.699-2.558-3.384C76.043,113.517,74.055,113.898,72.313,113.771z M71.894,103.917c0-0.026,0-0.052,0-0.081
			c1.412,0,2.846,0.153,4.232-0.037c1.824-0.251,2.947-1.483,3.153-3.306c0.201-1.775-0.391-3.272-2.254-3.894
			c-3.102-1.032-6.302-0.33-9.455-0.461c-0.503-0.021-0.83,0.351-0.826,0.903c0.013,2.118-0.533,4.472,0.224,6.282
			c0.602,1.447,2.997,0.332,4.573,0.593C71.655,103.935,71.776,103.917,71.894,103.917z"/>
		<path fill="#0F0F11" d="M100.726,110.626c-0.198-19.638,17.822-28.707,32.119-24.706c4.37,1.223,8.271,3.229,11.691,6.22
			c1.095,0.952,1.317,1.643,0.208,2.819c-1.934,2.054-3.783,4.209-5.472,6.466c-1.136,1.517-1.799,1.525-3.18,0.174
			c-3.486-3.409-7.49-5.681-12.659-4.2c-6.428,1.844-9.81,9.083-7.459,15.967c2.142,6.28,8.501,9.211,14.789,6.733
			c1.407-0.553,2.996-1.128,3.976-2.182c2.544-2.728,4.247-1.604,5.98,0.797c0.55,0.756,1.286,1.375,1.934,2.063
			c3.56,3.803,3.56,3.803-0.506,6.971c-13.104,10.215-31.746,6.588-38.98-7.627C101.44,116.727,100.603,113.08,100.726,110.626z"/>
		<path fill="#0F0F11" d="M32.229,114.915c0,5.068-0.146,10.139,0.065,15.197c0.101,2.439-0.768,2.952-2.967,2.819
			c-2.936-0.176-5.896-0.18-8.83,0.004c-2.086,0.129-2.496-0.658-2.48-2.582c0.09-10.248-0.038-20.502,0.103-30.749
			c0.033-2.373-0.685-3.138-2.939-2.836c-1.042,0.14-2.122,0.091-3.178,0.01c-2.539-0.198-6.43,1.17-7.313-0.585
			c-1.289-2.554-0.467-6.163-0.577-9.322c-0.048-1.43,0.898-1.404,1.884-1.404c12.726,0.004,25.45,0.019,38.175-0.018
			c1.447-0.008,1.984,0.364,2.101,1.952c0.7,9.396,0.75,9.391-8.462,9.391c-5.581,0-5.581,0-5.581,5.75
			C32.229,106.669,32.229,110.793,32.229,114.915z"/>
		<path fill="#3C3C40" d="M113.808,82.222c-5.873,2.859-10.832,6.752-14.194,13.079c-0.996-2.5-1.82-4.572-2.645-6.644
			c0.771-7.864,0.094-15.752,0.371-23.625c11.857-10.415,15.59-23.14,10.882-38.267c1.906-0.179,3.726,0.229,5.52,0.815
			C113.762,45.796,113.786,64.007,113.808,82.222z"/>
		<path fill="#77777D" d="M113.808,82.222c-0.021-18.214-0.046-36.426-0.068-54.642c3.067,0.416,5.803,1.796,8.647,2.896
			c3.202,1.24,4.683,3.339,3.825,6.782c-0.952,3.825-0.477,7.738-0.787,11.601c-0.828,10.297-2.072,20.569-1.922,30.926
			C120.211,80.356,116.929,80.97,113.808,82.222z"/>
		<path fill="#3C3C40" d="M49.886,79.772c-5.417,0.488-10.838,0.452-16.258,0.085c-0.02-17.445-0.04-34.886-0.061-52.332
			c2.571-0.531,5.03-1.674,7.74-1.464c-4.955,14.718-1.346,27.33,9.389,38.19c-1.101,0.901-0.672,2.156-0.692,3.269
			C49.928,71.606,49.918,75.69,49.886,79.772z"/>
		<path fill="#77777D" d="M33.567,27.527c0.021,17.444,0.041,34.887,0.061,52.331c-3.055,0-6.111,0-9.167-0.003
			c-0.261-4.455-0.465-8.919-0.802-13.368c-0.612-8.075-1.685-16.134-1.866-24.213c-0.252-11.215-2.619-9.184,7.765-13.467
			C30.847,28.273,32.228,27.95,33.567,27.527z"/>
		<path fill="#37373A" d="M33.567,27.527c-1.339,0.422-2.718,0.747-4.011,1.28c-10.383,4.283-8.017,2.252-7.765,13.467
			c0.181,8.08,1.254,16.139,1.866,24.213c0.337,4.449,0.541,8.913,0.802,13.368c-4.813,0.678-4.682,0.67-4.992-4.09
			c-0.866-13.235-1.693-26.476-2.881-39.682c-0.394-4.386,1.333-6.683,5.031-8.412c6.836-3.196,14.019-5.078,22.018-6.384
			c-0.884,1.813-1.607,3.294-2.328,4.776C38.595,25.853,36.137,26.995,33.567,27.527z"/>
		<path fill="#37373A" d="M123.502,79.787c-0.151-10.357,1.093-20.629,1.921-30.926c0.313-3.864-0.163-7.776,0.788-11.601
			c0.858-3.444-0.623-5.542-3.827-6.782c-2.844-1.101-5.58-2.481-8.646-2.896c-1.792-0.584-3.611-0.993-5.518-0.813
			c-0.646-1.489-1.29-2.978-2.187-5.053c8.848,1.547,16.936,3.626,24.015,8.651c0.997,0.707,1.106,1.668,1.025,2.788
			c-0.978,14.165-2.007,28.326-2.835,42.501C128.047,78.987,127.027,80.632,123.502,79.787z"/>
		<path fill="#77777D" d="M97.34,65.032c-0.277,7.873,0.399,15.761-0.371,23.625c-3.939-4.862-9.225-7.212-15.253-8.18
			c-0.006-2.776-0.01-5.55-0.015-8.327C87.487,71.039,92.633,68.52,97.34,65.032z"/>
		<path fill="#3C3C40" d="M37.28,115.204c-0.035-3.992-0.005-7.986-0.133-11.975c-0.051-1.638,0.402-2.159,2.129-2.238
			c8.805-0.408,8.827-0.466,8.792,8.274c-0.022,5.279-0.133,10.558-0.207,15.835c-2.718-0.636-3.94-3.021-5.675-4.816
			C40.553,118.588,39.782,116.058,37.28,115.204z"/>
		<path fill="#37373A" d="M79.625,137.242c9.14-0.903,16.943-3.89,20.634-13.291c0.232,0.123,0.444,0.164,0.536,0.292
			c3.146,4.438,3.157,4.459-1.197,7.917c-7.265,5.769-15.475,9.731-24.297,12.46c-0.86,0.267-1.933,0.372-2.765,0.105
			c-5.679-1.806-11.253-3.884-17.039-7.474c4.287,0,7.838,0,11.389,0c2.3,2.804,9.683,3.806,12.299,1.597
			C79.532,138.551,79.487,137.788,79.625,137.242z"/>
		<path fill="#77777D" d="M49.886,79.772c0.032-4.084,0.042-8.168,0.118-12.251c0.021-1.113-0.408-2.368,0.692-3.269
			c4.791,3.395,9.856,6.228,15.602,7.677c-1.696,2.493-0.441,5.299-0.838,7.929C60.266,79.829,55.077,79.8,49.886,79.772z"/>
		<path fill="#3C3C40" d="M65.46,79.857c0.397-2.63-0.858-5.436,0.838-7.929c5.124,0.792,10.249,1.443,15.403,0.222
			c0.005,2.777,0.009,5.551,0.015,8.327C76.298,80.271,70.879,80.064,65.46,79.857z"/>
		<path fill="#37373A" d="M37.28,115.204c2.501,0.854,3.272,3.384,4.906,5.08c1.734,1.796,2.957,4.181,5.675,4.816
			c0.107,2.08,0.213,4.161,0.347,6.821c-3.575-2.048-5.592-4.956-8.241-7.096C36.647,122.142,37.02,118.726,37.28,115.204z"/>
		<path fill="#3C3C40" d="M79.625,137.242c-0.138,0.546-0.093,1.309-0.44,1.606c-2.616,2.209-9.999,1.207-12.299-1.597
			C71.131,137.247,75.378,137.245,79.625,137.242z"/>
	</g>
	<circle fill="#3C3C40" cx="74.839" cy="36.629" r="30.431"/>
</g>
</svg>
