<?xml version="1.0" encoding="utf-8"?>
<!-- Generator: Adobe Illustrator 16.0.0, SVG Export Plug-In . SVG Version: 6.00 Build 0)  -->
<!DOCTYPE svg PUBLIC "-//W3C//DTD SVG 1.1//EN" "http://www.w3.org/Graphics/SVG/1.1/DTD/svg11.dtd">
<svg version="1.1" id="flag-icon-css-am" xmlns="http://www.w3.org/2000/svg" xmlns:xlink="http://www.w3.org/1999/xlink" x="0px"
	 y="0px" width="150px" height="150px" viewBox="0 0 150 150" enable-background="new 0 0 150 150" xml:space="preserve">
<g>
	<path fill-rule="evenodd" clip-rule="evenodd" fill="#0767AC" d="M70.99,53.3c0.421-1.614,0.878-3.222,1.247-4.848
		c0.158-0.699,0.386-1.106,1.185-1.179c3.629-0.331,7.255-0.7,10.879-1.091c0.794-0.085,0.949,0.32,1.112,0.967
		c1.017,4.04,2.073,8.069,3.132,12.099c0.139,0.529,0.135,1.134,0.688,1.586c0-2.874,0.152-5.663-0.045-8.428
		c-0.164-2.291,0.714-4.211,1.461-6.23c0.252-0.68,0.723-0.65,1.24-0.701c7.36-0.721,14.717-1.469,22.081-2.138
		c1.069-0.097,2.493-0.843,3.143-0.049c0.565,0.69,0.232,2.115,0.3,3.214c0.01,0.149,0.039,0.299,0.059,0.443
		c0.113,0.011,0.257,0.061,0.288,0.022c2.851-3.605,6.807-4.758,11.158-5.131c4.63-0.397,9.256-0.862,13.879-1.338
		c0.88-0.092,1.163,0.153,1.283,1.052c0.551,4.134,1.21,8.252,1.794,12.382c0.112,0.795,0.442,1.654-0.42,2.337
		c-0.494,0.392-0.001,0.758,0.22,1.079c3.13,4.545,3.824,9.611,2.664,14.84c-1.514,6.823-6.494,10.402-12.794,12.31
		c-4.468,1.353-9.171,1.402-13.784,1.924c-1.573,0.177-3.161,0.255-4.729,0.478c-0.824,0.115-1.104-0.072-1.191-0.929
		c-0.373-3.683-0.392-3.6-4.037-3.221c-10.191,1.061-20.39,2.049-30.586,3.065c-9.881,0.986-19.763,1.952-29.641,2.96
		c-2.686,0.275-3.498-0.46-3.375-3.342c0.241-5.647,0.524-11.295,0.733-16.946c0.019-0.511,0.661-1.48-0.626-1.533
		c-1.159-0.047-0.985,0.804-1.029,1.521c-0.413,6.592-0.853,13.182-1.219,19.776c-0.051,0.932-0.46,1.132-1.23,1.211
		c-4.413,0.453-8.822,0.949-13.237,1.385c-1.304,0.131-3.192-1.928-3.085-3.298c0.411-5.269,0.857-10.532,1.229-15.802
		c0.034-0.464,0.704-1.333-0.453-1.472c-0.957-0.116-1.376,0.278-1.468,1.317C27.157,79.063,26.387,86.526,25.77,94
		c-0.133,1.614-0.469,2.332-2.308,2.447c-4.636,0.288-9.25,0.899-13.877,1.351c-1.62,0.157-3.679-1.92-3.504-3.547
		c0.678-6.3,1.389-12.596,2.088-18.896c0.04-0.367,0.049-0.742,0.13-1.1c0.326-1.433-0.116-2.134-1.633-1.618
		c-1.875,0.639-2.951-0.473-4.061-1.656c-0.402-0.429-0.304-0.867-0.244-1.327c0.615-4.766,1.25-9.529,1.843-14.296
		c0.1-0.805,0.37-1.178,1.251-1.264c12.826-1.258,25.647-2.552,38.47-3.843c8.461-0.852,16.925-1.674,25.377-2.605
		c1.321-0.145,1.514,0.237,1.438,1.382c-0.095,1.411-0.023,2.833-0.023,4.25C70.808,53.285,70.898,53.293,70.99,53.3z
		 M110.286,60.81c-0.46-0.672-0.791-1.128-1.093-1.603c-2.352-3.695-4.722-7.381-7.03-11.105c-0.506-0.818-1.027-1.172-2.022-1.045
		c-1.78,0.227-3.576,0.341-5.369,0.439c-1.115,0.061-1.601,0.377-1.576,1.681c0.192,9.986,0.303,19.971,0.391,29.958
		c0.009,1.061,0.278,1.315,1.335,1.183c3.51-0.438,7.026-0.873,10.554-1.106c1.677-0.111,1.454-0.6,0.802-1.694
		c-2.107-3.534-4.145-7.111-6.214-10.669c-0.421-0.724-0.824-1.441-0.326-2.523c0.383,0.59,0.7,1.046,0.983,1.524
		c2.338,3.95,4.708,7.883,6.979,11.874c0.538,0.946,1.13,1.195,2.142,1.064c1.938-0.251,3.884-0.495,5.833-0.553
		c1.208-0.034,1.491-0.423,1.428-1.588c-0.543-9.97-1.049-19.942-1.501-29.917c-0.052-1.138-0.479-1.258-1.428-1.159
		c-3.308,0.345-6.62,0.675-9.938,0.917c-1.289,0.093-1.237,0.461-0.631,1.388c1.964,3.004,3.829,6.073,5.808,9.067
		C110.145,58.054,110.582,59.167,110.286,60.81z M135.154,55.993c-0.95,0-1.898,0.007-2.849-0.004
		c-0.249-0.003-0.567,0.022-0.608-0.336c-0.037-0.325,0.211-0.455,0.479-0.502c0.259-0.045,0.525-0.041,0.789-0.068
		c3.254-0.333,6.508-0.688,9.767-0.988c0.718-0.067,1.044-0.213,0.9-1.038c-0.536-3.065-1.032-6.137-1.493-9.215
		c-0.106-0.706-0.405-0.858-1.05-0.775c-3.925,0.507-7.896,0.579-11.812,1.204c-5.605,0.896-8.876,3.686-9.865,8.612
		c-0.536,2.672-0.511,5.381,0.278,8c1.182,3.923,3.577,6.692,7.817,7.372c1.669,0.267,3.37,0.079,5.052-0.153
		c0.471-0.065,1.249-0.295,1.305,0.437c0.048,0.64-0.708,0.457-1.136,0.503c-3.829,0.418-7.661,0.83-11.496,1.209
		c-0.737,0.072-1.314,0.058-1.221,1.12c0.274,3.104,0.499,6.212,0.637,9.323c0.054,1.227,0.521,1.466,1.658,1.346
		c2.992-0.318,6.003-0.458,8.993-0.778c3.034-0.327,6.106-0.509,8.965-1.767c3.396-1.497,5.467-4.001,6.07-7.71
		c0.442-2.716,0.153-5.38-0.478-8.007C144.506,58.155,140.962,55.568,135.154,55.993z M75.741,64.267
		c0.469,0.149,0.423,0.449,0.478,0.689c1.146,5.093,2.328,10.181,3.404,15.288c0.239,1.143,0.586,1.605,1.832,1.433
		c2.979-0.41,5.978-0.704,8.97-1.017c0.948-0.096,1.314-0.292,1.02-1.443c-2.518-9.807-4.957-19.633-7.382-29.462
		c-0.227-0.919-0.641-1.151-1.534-1.044c-2.255,0.271-4.515,0.537-6.78,0.644c-1.355,0.064-1.925,0.642-2.118,1.922
		c-0.181,1.196-0.534,2.365-0.812,3.546c-2.116,8.983-4.216,17.971-6.368,26.945c-0.286,1.193-0.056,1.427,1.164,1.27
		c3.298-0.423,6.611-0.772,9.929-0.999c1.292-0.09,1.305-0.6,1.063-1.59c-1.012-4.149-1.956-8.317-2.978-12.463
		C75.319,66.729,75.202,65.525,75.741,64.267z M9.809,67.681c1.43-0.493,1.603,0.416,1.345,1.752
		c-0.081,0.414-0.106,0.838-0.153,1.258c-0.788,7.032-1.558,14.064-2.377,21.093c-0.128,1.105,0.099,1.487,1.299,1.344
		c3.407-0.41,6.825-0.737,10.245-1.03c1.042-0.089,1.081-0.687,1.154-1.489c0.711-7.784,1.469-15.565,2.173-23.349
		c0.072-0.791,0.311-1.098,1.12-1.138c1.581-0.078,3.154-0.299,4.736-0.39c0.9-0.051,1.272-0.405,1.335-1.332
		c0.202-3.004,0.453-6.004,0.755-9c0.108-1.068-0.174-1.335-1.265-1.212c-4.092,0.46-8.197,0.815-12.297,1.214
		C14.251,55.755,10.626,56.112,7,56.478c-0.619,0.063-1.175,0.059-1.27,1.006c-0.318,3.203-0.75,6.396-1.172,9.588
		c-0.097,0.736,0.022,1.087,0.869,0.989C6.79,67.903,8.163,67.82,9.809,67.681z M50.958,73.141
		c-0.006-0.002-0.015-0.002-0.023-0.002c-0.153,3.327-0.271,6.653-0.481,9.975c-0.07,1.108,0.149,1.453,1.357,1.294
		c2.773-0.364,5.567-0.63,8.36-0.77c1.273-0.063,1.674-0.428,1.704-1.729c0.143-6.55,0.416-13.099,0.582-19.649
		c0.027-1.048,0.288-1.514,1.408-1.521c1.263-0.009,2.523-0.24,3.787-0.308c0.653-0.035,0.927-0.242,0.942-0.933
		c0.06-2.801,0.141-5.601,0.28-8.398c0.046-0.929-0.305-0.979-1.098-0.9c-6.936,0.703-13.877,1.364-20.819,2.015
		c-0.686,0.063-1.063,0.266-1.098,1.018c-0.133,2.85-0.286,5.7-0.467,8.547c-0.046,0.738,0.225,0.91,0.909,0.802
		c1.304-0.205,2.623-0.314,3.924-0.535c0.957-0.163,1.302,0.068,1.233,1.118C51.24,66.487,51.118,69.815,50.958,73.141z
		 M44.15,54.144c0.066-1.638,0.068-1.626-2.262-1.386c-2.413,0.248-4.826,0.523-7.246,0.677c-0.981,0.062-1.343,0.35-1.412,1.369
		c-0.276,4.104-0.654,8.203-0.984,12.302c-0.484,6.046-0.939,12.096-1.453,18.141c-0.092,1.063,0.185,1.365,1.265,1.234
		c3.036-0.373,6.08-0.685,9.127-0.936c0.861-0.072,1-0.443,1.045-1.185C42.839,74.516,43.476,64.669,44.15,54.144z M66.008,75.02
		c0.746-3.26,1.513-6.608,2.319-10.129c-0.96,0.271-2.287-0.606-2.309,1.151C65.982,69.04,66.008,72.037,66.008,75.02z
		 M89.223,61.05c0,0.316-0.011,0.459,0.007,0.6c0.007,0.051,0.081,0.095,0.125,0.142c0.021-0.146,0.053-0.29,0.055-0.436
		C89.411,61.296,89.342,61.238,89.223,61.05z"/>
	<path fill-rule="evenodd" clip-rule="evenodd" fill="#FEFEFE" d="M110.286,60.81c0.296-1.643-0.142-2.756-0.876-3.868
		c-1.979-2.994-3.844-6.063-5.808-9.067c-0.606-0.927-0.658-1.295,0.631-1.388c3.318-0.241,6.631-0.572,9.938-0.917
		c0.948-0.099,1.376,0.021,1.428,1.159c0.452,9.976,0.958,19.948,1.501,29.917c0.063,1.165-0.22,1.554-1.428,1.588
		c-1.949,0.058-3.896,0.302-5.833,0.553c-1.012,0.131-1.604-0.118-2.142-1.064c-2.271-3.99-4.641-7.924-6.979-11.874
		c-0.283-0.478-0.601-0.934-0.983-1.524c-0.498,1.082-0.095,1.799,0.326,2.523c2.069,3.558,4.106,7.135,6.214,10.669
		c0.652,1.095,0.875,1.583-0.802,1.694c-3.527,0.233-7.044,0.668-10.554,1.106c-1.057,0.133-1.326-0.122-1.335-1.183
		c-0.088-9.987-0.198-19.973-0.391-29.958c-0.024-1.303,0.461-1.62,1.576-1.681c1.793-0.098,3.589-0.212,5.369-0.439
		c0.995-0.127,1.517,0.227,2.022,1.045c2.309,3.725,4.679,7.41,7.03,11.105C109.495,59.682,109.826,60.138,110.286,60.81z
		 M97.915,59.164c1.565,1.565,2.277,3.688,3.557,5.439c1.748,2.944,3.685,5.795,5.186,8.86c1.466,2.995,3.251,4.738,6.766,3.506
		c0.287-0.101,0.63-0.079,0.943-0.062c1.155,0.065,1.511-0.398,1.438-1.59c-0.286-4.688-0.462-9.379-0.681-14.069
		c-0.201-4.321-0.396-8.642-0.619-12.962c-0.029-0.551,0.259-1.408-0.836-1.308c-2.758,0.252-5.516,0.514-8.485,0.791
		c0.586,0.953,0.939,1.76,1.618,2.362c0.383,0.688,0.707,1.418,1.159,2.058c2.362,3.349,4.444,6.783,3.828,11.151
		c-0.044,0.532-0.089,1.063-0.142,1.696c-0.195-0.184-0.285-0.24-0.335-0.319c-2.782-4.397-5.563-8.793-8.341-13.191
		c-2.182-3.452-2.172-3.323-6.313-3.033c-1.811,0.126-2.396,0.71-2.044,2.396c0.073,4.646,0.146,9.292,0.221,13.938
		c0.015,4.32,0.04,8.64,0.032,12.962c-0.001,0.691,0.206,0.898,0.911,0.826c2.726-0.279,5.455-0.523,8.187-0.734
		c0.788-0.062,0.907-0.306,0.51-0.965c-0.842-1.396-1.573-2.866-2.485-4.215c-2.612-3.862-4.638-7.881-3.964-12.757
		C98.058,59.694,97.955,59.425,97.915,59.164z"/>
	<path fill-rule="evenodd" clip-rule="evenodd" fill="#FEFEFE" d="M135.154,55.993c5.808-0.425,9.352,2.162,10.704,7.786
		c0.631,2.627,0.92,5.291,0.478,8.007c-0.604,3.709-2.674,6.213-6.07,7.71c-2.858,1.258-5.931,1.439-8.965,1.767
		c-2.99,0.32-6.001,0.46-8.993,0.778c-1.138,0.12-1.604-0.119-1.658-1.346c-0.138-3.11-0.362-6.219-0.637-9.323
		c-0.094-1.063,0.483-1.048,1.221-1.12c3.835-0.379,7.667-0.791,11.496-1.209c0.428-0.046,1.184,0.137,1.136-0.503
		c-0.056-0.732-0.834-0.502-1.305-0.437c-1.682,0.231-3.383,0.42-5.052,0.153c-4.24-0.68-6.636-3.449-7.817-7.372
		c-0.789-2.619-0.814-5.328-0.278-8c0.989-4.927,4.26-7.717,9.865-8.612c3.916-0.625,7.887-0.697,11.812-1.204
		c0.645-0.083,0.943,0.07,1.05,0.775c0.461,3.078,0.957,6.15,1.493,9.215c0.144,0.825-0.183,0.971-0.9,1.038
		c-3.259,0.3-6.513,0.655-9.767,0.988c-0.264,0.027-0.53,0.023-0.789,0.068c-0.269,0.047-0.517,0.177-0.479,0.502
		c0.041,0.358,0.359,0.333,0.608,0.336C133.256,56,134.204,55.993,135.154,55.993z M121.822,50.896
		c-0.368,0.066-0.311,0.439-0.471,0.656c-1.344,4.08-1.021,8.005,1.074,11.77c1.639,2.665,4.029,3.945,7.146,3.809
		c1.314-0.058,2.622-0.249,3.936-0.335c1.061-0.071,1.733,0.457,1.858,1.514c0.122,1.04-0.36,1.744-1.42,1.932
		c-0.83,0.146-1.67,0.239-2.51,0.323c-2.939,0.292-5.879,0.587-8.822,0.843c-0.738,0.064-1.138,0.208-1.061,1.108
		c0.201,2.366,0.332,4.739,0.425,7.113c0.037,0.927,0.289,1.313,1.31,1.165c1.459-0.214,2.944-0.238,4.412-0.399
		c3.976-0.44,8.012-0.509,11.848-1.841c3.562-1.237,5.496-3.757,5.821-7.503c0.208-2.388-0.067-4.746-0.635-7.062
		c-1.141-4.652-3.974-6.836-8.73-6.775c-1.055,0.013-2.108,0.111-3.162,0.159c-1.996,0.091-2.364-0.254-2.485-2.307
		c0.46-0.93,1.323-1.126,2.234-1.217c2.556-0.255,5.113-0.504,7.669-0.756c2.147-0.061,2.134-0.059,1.77-2.149
		c-0.309-1.765-0.626-3.528-0.85-5.305c-0.121-0.963-0.515-1.233-1.45-1.059c-2.231,0.418-4.5,0.512-6.76,0.691
		c-2.36,0.187-4.748,0.394-6.908,1.489c-1.835,0.93-3.634,1.94-4.248,4.143L121.822,50.896z"/>
	<path fill-rule="evenodd" clip-rule="evenodd" fill="#FEFEFE" d="M75.741,64.267c-0.539,1.259-0.422,2.463-0.111,3.717
		c1.021,4.146,1.966,8.314,2.978,12.463c0.241,0.99,0.229,1.5-1.063,1.59c-3.318,0.227-6.631,0.576-9.929,0.999
		c-1.219,0.157-1.449-0.076-1.164-1.27c2.152-8.974,4.251-17.961,6.368-26.945c0.278-1.181,0.63-2.35,0.812-3.546
		c0.193-1.28,0.762-1.857,2.118-1.922c2.266-0.107,4.525-0.373,6.78-0.644c0.894-0.107,1.308,0.125,1.534,1.044
		c2.425,9.83,4.864,19.656,7.382,29.462c0.295,1.151-0.071,1.348-1.02,1.443c-2.992,0.313-5.99,0.606-8.97,1.017
		c-1.246,0.173-1.593-0.29-1.832-1.433c-1.076-5.107-2.258-10.195-3.404-15.288C76.164,64.716,76.21,64.416,75.741,64.267z
		 M74.172,66.828c0.126-2.86,1.234-5.554,1.411-8.405c0.606,0.261,0.533,0.852,0.648,1.349c1.481,6.31,2.988,12.614,4.414,18.937
		c0.261,1.154,0.709,1.531,1.891,1.359c2.034-0.301,4.087-0.495,6.139-0.65c1.084-0.083,1.461-0.428,1.123-1.549
		c-0.485-1.614-0.847-3.263-1.253-4.899c-1.803-7.263-3.602-14.525-5.402-21.788c-0.15-0.606-0.175-1.228-1.158-1.09
		c-1.932,0.272-3.881,0.431-5.827,0.583c-0.84,0.067-1.289,0.365-1.491,1.25c-2.164,9.507-4.35,19.008-6.584,28.498
		c-0.248,1.052,0.181,1.027,0.921,0.951c2.31-0.233,4.618-0.509,6.935-0.648c1.183-0.069,1.386-0.519,1.125-1.586
		C76.066,75.043,75.131,70.933,74.172,66.828z"/>
	<path fill-rule="evenodd" clip-rule="evenodd" fill="#FEFEFE" d="M9.809,67.681c-1.646,0.14-3.019,0.222-4.382,0.38
		c-0.847,0.098-0.966-0.253-0.869-0.989c0.423-3.192,0.854-6.385,1.172-9.588C5.825,56.537,6.381,56.54,7,56.478
		c3.626-0.365,7.251-0.722,10.878-1.077c4.1-0.399,8.205-0.753,12.297-1.214c1.091-0.123,1.373,0.144,1.265,1.212
		c-0.302,2.996-0.553,5.997-0.755,9c-0.063,0.927-0.435,1.281-1.335,1.332c-1.582,0.091-3.155,0.312-4.736,0.39
		c-0.809,0.04-1.048,0.347-1.12,1.138c-0.704,7.784-1.461,15.565-2.173,23.349c-0.073,0.803-0.112,1.4-1.154,1.489
		c-3.42,0.293-6.838,0.62-10.245,1.03c-1.2,0.144-1.427-0.238-1.299-1.344c0.819-7.029,1.59-14.062,2.377-21.093
		c0.047-0.42,0.072-0.844,0.153-1.258C11.411,68.096,11.239,67.188,9.809,67.681z M8.368,66.205c1.141-0.048,2.289-0.036,3.42-0.166
		c0.672-0.078,0.999,0.05,0.98,0.755c-0.951,7.953-1.896,15.906-2.862,23.859c-0.089,0.735,0.168,0.921,0.858,0.852
		c2.78-0.288,5.561-0.565,8.345-0.799c0.71-0.061,0.98-0.32,1.042-1.043c0.426-4.986,0.891-9.971,1.344-14.956
		c0.271-2.774,0.578-5.547,0.789-8.326c0.076-0.998,0.321-1.517,1.455-1.568c1.52-0.07,3.026-0.387,4.544-0.538
		c0.616-0.063,0.963-0.214,0.991-0.912c0.071-1.788,0.463-3.554,0.361-5.353c0.643-2.448,0.603-2.529-1.83-2.306
		c-6.615,0.609-13.226,1.27-19.844,1.859c-0.896,0.08-1.151,0.459-1.227,1.262c-0.178,1.889-0.442,3.77-0.632,5.658
		c-0.219,2.164-0.17,2.198,1.993,1.871C8.19,66.338,8.276,66.256,8.368,66.205z"/>
	<path fill-rule="evenodd" clip-rule="evenodd" fill="#FEFEFE" d="M50.958,73.141c0.159-3.326,0.281-6.654,0.5-9.975
		c0.069-1.05-0.277-1.281-1.233-1.118c-1.301,0.22-2.62,0.33-3.924,0.535c-0.684,0.108-0.955-0.063-0.909-0.802
		c0.181-2.847,0.333-5.697,0.467-8.547c0.035-0.751,0.412-0.955,1.098-1.018c6.941-0.65,13.883-1.312,20.819-2.015
		c0.793-0.08,1.144-0.029,1.098,0.9c-0.14,2.798-0.22,5.598-0.28,8.398c-0.015,0.69-0.289,0.897-0.942,0.933
		c-1.264,0.067-2.524,0.299-3.787,0.308c-1.12,0.006-1.381,0.472-1.408,1.521c-0.166,6.551-0.438,13.099-0.582,19.649
		c-0.029,1.301-0.431,1.665-1.704,1.729c-2.793,0.14-5.587,0.405-8.36,0.77c-1.208,0.159-1.427-0.186-1.357-1.294
		c0.21-3.322,0.328-6.648,0.481-9.975C50.943,73.139,50.952,73.139,50.958,73.141z M53.039,61.399
		C52.956,61.701,52.815,62,52.8,62.305c-0.333,6.583-0.635,13.168-0.989,19.75c-0.047,0.872,0.318,0.966,1.008,0.888
		c1.623-0.188,3.25-0.34,4.872-0.528c2.91-0.338,2.917-0.345,3.052-3.333c0.164-3.625,0.392-7.248,0.253-10.879l-0.045,0.021
		c0.605-2.383,0.184-4.817,0.351-7.221c-0.041-1.031,0.411-1.475,1.483-1.484c1.194-0.011,2.385-0.237,3.582-0.299
		c0.915-0.048,1.376-0.395,1.195-1.359c0.046-1.739,0.043-3.482,0.157-5.219c0.064-0.992-0.209-1.272-1.227-1.153
		c-6.126,0.717-12.259,1.376-18.393,2.045c-0.709,0.078-1.127,0.276-1.132,1.142c-0.011,1.686-0.099,3.377-0.266,5.054
		c-0.148,1.491,0.451,1.631,1.596,1.058c1.154,0.062,2.305,0.024,3.437-0.204C52.457,60.437,52.985,60.516,53.039,61.399z"/>
	<path fill-rule="evenodd" clip-rule="evenodd" fill="#FEFEFE" d="M44.15,54.144c-0.674,10.525-1.311,20.372-1.919,30.217
		c-0.045,0.741-0.184,1.112-1.045,1.185c-3.047,0.251-6.091,0.563-9.127,0.936c-1.08,0.131-1.357-0.172-1.265-1.234
		c0.514-6.045,0.968-12.094,1.453-18.141c0.33-4.1,0.708-8.198,0.984-12.302c0.069-1.019,0.431-1.307,1.412-1.369
		c2.42-0.154,4.833-0.43,7.246-0.677C44.219,52.517,44.217,52.505,44.15,54.144z M41.652,71.173
		c0.478-4.93,0.747-9.872,0.952-14.819c0.475-2.399,0.475-2.391-1.911-2.094c-0.681,0.085-1.368,0.119-2.053,0.17
		c-4.084,0.309-4.084,0.309-4.404,4.362c-0.025,0.316-0.071,0.63-0.096,0.946c-0.627,8.163-1.247,16.328-1.891,24.491
		c-0.053,0.656,0.034,1.008,0.796,0.916c2.36-0.281,4.721-0.55,7.083-0.803c0.534-0.059,0.84-0.189,0.869-0.833
		C41.181,79.394,41.664,75.296,41.652,71.173z"/>
	<path fill-rule="evenodd" clip-rule="evenodd" fill="#FEFEFE" d="M66.008,75.02c0-2.983-0.026-5.98,0.01-8.978
		c0.022-1.758,1.349-0.88,2.309-1.151C67.521,68.411,66.754,71.76,66.008,75.02z"/>
	<path fill-rule="evenodd" clip-rule="evenodd" fill="#FEFEFE" d="M89.223,61.05c0.119,0.188,0.188,0.247,0.187,0.306
		c-0.002,0.146-0.034,0.29-0.055,0.436c-0.044-0.047-0.118-0.09-0.125-0.142C89.212,61.509,89.223,61.366,89.223,61.05z"/>
	<path fill-rule="evenodd" clip-rule="evenodd" fill="#0767AC" d="M94.613,50.89c-0.353-1.686,0.233-2.27,2.044-2.396
		c4.142-0.29,4.132-0.419,6.313,3.033c2.778,4.398,5.559,8.794,8.341,13.191c0.05,0.08,0.14,0.135,0.335,0.319
		c0.053-0.633,0.098-1.164,0.142-1.696c0.675-0.221,1.882,0.502,1.84-0.994c-0.112-4.048-0.252-8.097-0.367-12.146
		c-0.018-0.585-0.229-0.938-0.851-0.8c-1.85,0.408-3.788,0.114-5.609,0.73c-0.679-0.602-1.032-1.409-1.618-2.362
		c2.97-0.277,5.728-0.539,8.485-0.791c1.095-0.1,0.807,0.757,0.836,1.308c0.224,4.32,0.418,8.641,0.619,12.962
		c0.219,4.69,0.395,9.381,0.681,14.069c0.073,1.191-0.282,1.655-1.438,1.59c-0.313-0.018-0.656-0.039-0.943,0.062
		c-3.515,1.232-5.3-0.511-6.766-3.506c-1.501-3.065-3.438-5.917-5.186-8.86c1.726-0.72,3.554-0.639,5.365-0.698
		c1.593-0.05,1.688-0.234,0.817-1.607c-2.195-3.462-4.462-6.88-6.568-10.396c-0.742-1.238-1.628-1.495-2.865-1.194
		C97.027,50.997,95.822,50.958,94.613,50.89z"/>
	<path fill-rule="evenodd" clip-rule="evenodd" fill="#6C9ECD" d="M94.613,50.89c1.209,0.069,2.414,0.107,3.607-0.182
		c1.237-0.301,2.123-0.043,2.865,1.194c2.106,3.516,4.373,6.934,6.568,10.396c0.87,1.373,0.775,1.558-0.817,1.607
		c-1.812,0.059-3.64-0.021-5.365,0.698c-1.279-1.751-1.991-3.874-3.557-5.439c-0.33,0.026-0.857-0.375-0.81,0.437
		c0.05,0.83,0.017,1.666,0.02,2.499c0.01,2.318,0.01,2.318-2.291,2.729C94.76,60.182,94.687,55.536,94.613,50.89z"/>
	<path fill-rule="evenodd" clip-rule="evenodd" fill="#0767AC" d="M94.834,64.828c2.301-0.411,2.301-0.411,2.291-2.729
		c-0.003-0.833,0.03-1.668-0.02-2.499c-0.048-0.812,0.479-0.41,0.81-0.437c0.04,0.261,0.143,0.53,0.109,0.781
		c-0.674,4.876,1.352,8.895,3.964,12.757c0.912,1.349,1.644,2.819,2.485,4.215c0.397,0.659,0.278,0.903-0.51,0.965
		c-2.731,0.211-5.461,0.455-8.187,0.734c-0.705,0.072-0.912-0.135-0.911-0.826C94.874,73.468,94.849,69.148,94.834,64.828z"/>
	<path fill-rule="evenodd" clip-rule="evenodd" fill="#6C9ECD" d="M106.801,50.133c1.821-0.616,3.76-0.323,5.609-0.73
		c0.622-0.138,0.833,0.215,0.851,0.8c0.115,4.049,0.255,8.098,0.367,12.146c0.042,1.496-1.165,0.773-1.84,0.994
		c0.616-4.368-1.466-7.802-3.828-11.151C107.508,51.551,107.184,50.821,106.801,50.133z"/>
	<path fill-rule="evenodd" clip-rule="evenodd" fill="#0767AC" d="M130.355,55.066c0.121,2.053,0.489,2.397,2.485,2.307
		c1.054-0.048,2.107-0.146,3.162-0.159c4.757-0.061,7.59,2.124,8.73,6.775c0.567,2.316,0.843,4.674,0.635,7.062
		c-0.325,3.746-2.26,6.266-5.821,7.503c-3.836,1.332-7.872,1.4-11.848,1.841c-1.468,0.161-2.953,0.186-4.412,0.399
		c-1.021,0.148-1.272-0.238-1.31-1.165c-0.093-2.374-0.224-4.747-0.425-7.113c-0.077-0.9,0.322-1.044,1.061-1.108
		c2.943-0.256,5.883-0.551,8.822-0.843c0.84-0.084,1.68-0.177,2.51-0.323c1.06-0.188,1.542-0.893,1.42-1.932
		c-0.125-1.057-0.798-1.584-1.858-1.514c-1.313,0.086-2.621,0.277-3.936,0.335c-3.116,0.136-5.507-1.145-7.146-3.809
		c0.166-0.341,0.481-0.369,0.804-0.386c3.789-0.201,7.579-0.398,11.369-0.609c2.127-0.118,4.253-0.261,6.65-0.409
		c-1.389-1.833-3.034-2.616-4.996-2.736c-1.632-0.101-3.259,0-4.888,0.256c-1.102,0.173-2.148-0.131-2.523-1.386
		C128.419,56.636,128.914,55.712,130.355,55.066z"/>
	<path fill-rule="evenodd" clip-rule="evenodd" fill="#6C9ECD" d="M130.355,55.066c-1.441,0.646-1.937,1.569-1.514,2.985
		c0.375,1.255,1.422,1.56,2.523,1.386c1.629-0.256,3.256-0.357,4.888-0.256c1.962,0.12,3.607,0.903,4.996,2.736
		c-2.397,0.148-4.523,0.292-6.65,0.409c-3.79,0.21-7.58,0.408-11.369,0.609c-0.322,0.017-0.638,0.044-0.804,0.386
		c-2.096-3.765-2.418-7.69-1.074-11.77c0.34-0.087,0.551-0.268,0.471-0.656l-0.01,0.007c1.667-0.817,3.064-2.111,4.967-2.53
		c3.762-0.83,7.597-0.888,11.403-1.267c0.82-0.081,1.102,0.273,1.215,1.032c0.249,1.658,0.57,3.304,0.861,4.955
		c-2.556,0.252-5.113,0.5-7.669,0.756C131.679,53.94,130.815,54.137,130.355,55.066z"/>
	<path fill-rule="evenodd" clip-rule="evenodd" fill="#0767AC" d="M140.259,53.093c-0.291-1.651-0.612-3.297-0.861-4.955
		c-0.113-0.759-0.395-1.113-1.215-1.032c-3.807,0.379-7.642,0.437-11.403,1.267c-1.902,0.419-3.3,1.713-4.967,2.53
		c0.614-2.202,2.413-3.213,4.248-4.143c2.16-1.095,4.548-1.302,6.908-1.489c2.26-0.18,4.528-0.273,6.76-0.691
		c0.936-0.174,1.329,0.096,1.45,1.059c0.224,1.777,0.541,3.541,0.85,5.305C142.393,53.034,142.406,53.032,140.259,53.093z"/>
	<path fill-rule="evenodd" clip-rule="evenodd" fill="#0767AC" d="M121.822,50.896c0.08,0.388-0.131,0.569-0.471,0.656
		C121.512,51.335,121.454,50.962,121.822,50.896z"/>
	<path fill-rule="evenodd" clip-rule="evenodd" fill="#0767AC" d="M74.172,66.828c0.958,4.105,1.894,8.216,2.89,12.312
		c0.261,1.067,0.058,1.517-1.125,1.586c-2.317,0.14-4.625,0.415-6.935,0.648c-0.74,0.076-1.168,0.101-0.921-0.951
		c2.235-9.49,4.421-18.991,6.584-28.498c0.202-0.885,0.651-1.183,1.491-1.25c1.946-0.152,3.896-0.312,5.827-0.583
		c0.983-0.138,1.008,0.483,1.158,1.09c1.801,7.262,3.6,14.525,5.402,21.788c0.406,1.636,0.768,3.285,1.253,4.899
		c0.338,1.121-0.039,1.466-1.123,1.549c-2.052,0.155-4.104,0.35-6.139,0.65c-1.182,0.172-1.63-0.205-1.891-1.359
		c-1.426-6.322-2.933-12.626-4.414-18.937c-0.115-0.497-0.042-1.088-0.651-1.348c0.514-0.247,0.818-0.374,0.979,0.46
		c0.406,2.115,1.009,4.19,1.464,6.297c0.228,1.059,0.793,1.432,1.804,1.185c1.486-0.364,2.992-0.553,4.521-0.548
		c0.999,0.002,1.43-0.238,1.099-1.41c-0.83-2.933-1.523-5.905-2.262-8.864c-0.749-3.005-0.743-3.002-3.762-2.756
		c-0.89,0.072-1.784,0.157-2.668,0.218c-1.054,0.073-1.307,0.648-1.496,1.461c-0.827,3.531-1.599,7.077-2.528,10.58
		C72.336,66.522,72.653,67.072,74.172,66.828z"/>
	<path fill-rule="evenodd" clip-rule="evenodd" fill="#6C9ECD" d="M74.172,66.828c-1.52,0.244-1.836-0.306-1.443-1.781
		c0.929-3.503,1.701-7.049,2.528-10.58c0.189-0.813,0.442-1.388,1.496-1.461c0.884-0.061,1.778-0.146,2.668-0.218
		c3.019-0.246,3.013-0.249,3.762,2.756c0.738,2.959,1.432,5.931,2.262,8.864c0.331,1.172-0.1,1.413-1.099,1.41
		c-1.528-0.005-3.034,0.184-4.521,0.548c-1.011,0.248-1.576-0.125-1.804-1.185c-0.455-2.106-1.058-4.182-1.464-6.297
		c-0.16-0.834-0.465-0.707-0.979-0.46C75.406,61.273,74.299,63.968,74.172,66.828z"/>
	<path fill-rule="evenodd" clip-rule="evenodd" fill="#6C9ECD" d="M29.634,58.01c0.103,1.799-0.29,3.565-0.361,5.353
		c-0.027,0.698-0.375,0.85-0.991,0.912c-1.518,0.15-3.024,0.468-4.544,0.538c-1.134,0.051-1.379,0.57-1.455,1.568
		c-0.21,2.779-0.518,5.552-0.789,8.326c-2.001,0.41-4.007,0.8-6.003,1.232c-1.226,0.269-1.617-0.176-1.446-1.396
		c0.259-1.866,0.416-3.746,0.631-5.62c0.252-2.182,0.26-2.18-1.909-2.13c0.019-0.705-0.309-0.833-0.98-0.755
		c-1.131,0.13-2.279,0.118-3.42,0.166c0.188-1.616,0.471-3.229,0.535-4.85c0.046-1.16,0.469-1.489,1.6-1.582
		c3.927-0.323,7.84-0.8,11.764-1.175C24.718,58.362,27.177,58.203,29.634,58.01z"/>
	<path fill-rule="evenodd" clip-rule="evenodd" fill="#0767AC" d="M12.768,66.794c2.168-0.05,2.161-0.052,1.909,2.13
		c-0.216,1.874-0.372,3.754-0.631,5.62c-0.17,1.22,0.22,1.664,1.446,1.396c1.996-0.432,4.001-0.822,6.003-1.232
		c-0.453,4.985-0.918,9.969-1.344,14.956c-0.061,0.723-0.332,0.982-1.042,1.043c-2.785,0.233-5.565,0.511-8.345,0.799
		c-0.69,0.069-0.948-0.116-0.858-0.852C10.872,82.7,11.817,74.747,12.768,66.794z"/>
	<path fill-rule="evenodd" clip-rule="evenodd" fill="#0767AC" d="M29.634,58.01c-2.457,0.193-4.916,0.352-7.368,0.588
		c-3.923,0.375-7.837,0.852-11.764,1.175c-1.131,0.092-1.554,0.422-1.6,1.582c-0.063,1.622-0.346,3.234-0.535,4.85
		c-0.092,0.051-0.177,0.133-0.274,0.148c-2.163,0.327-2.212,0.293-1.993-1.871c0.19-1.888,0.454-3.769,0.632-5.658
		c0.076-0.803,0.331-1.182,1.227-1.262c6.618-0.589,13.229-1.25,19.844-1.859C30.237,55.481,30.276,55.563,29.634,58.01z"/>
	<path fill-rule="evenodd" clip-rule="evenodd" fill="#6C9ECD" d="M67.562,57.859c0.181,0.964-0.28,1.311-1.195,1.359
		c-1.197,0.062-2.388,0.288-3.582,0.299c-1.072,0.01-1.524,0.454-1.483,1.484c-0.419,0.488-0.288,1.082-0.297,1.637
		c-0.032,1.861-0.038,3.723-0.054,5.583l0.045-0.021c-1.97,0.262-3.942,0.513-5.911,0.791c-1.05,0.147-1.564-0.15-1.446-1.333
		c0.166-1.667,0.212-3.346,0.326-5.019c0.048-0.698-0.001-1.286-0.926-1.242c-0.054-0.883-0.582-0.962-1.306-0.816
		c-1.132,0.228-2.283,0.266-3.437,0.204c-0.011-1.372,0.002-2.743-0.042-4.114c-0.024-0.76,0.312-0.962,1.029-1.027
		c5.662-0.521,11.323-1.047,16.974-1.67c0.97-0.108,1.022,0.197,1.059,0.96C67.364,55.909,66.99,56.929,67.562,57.859z"/>
	<path fill-rule="evenodd" clip-rule="evenodd" fill="#0767AC" d="M53.039,61.399c0.925-0.043,0.974,0.544,0.926,1.242
		c-0.114,1.672-0.16,3.352-0.326,5.019c-0.118,1.183,0.396,1.48,1.446,1.333c1.969-0.278,3.941-0.529,5.911-0.791
		c0.139,3.631-0.089,7.254-0.253,10.879c-0.134,2.988-0.142,2.995-3.052,3.333c-1.622,0.188-3.25,0.341-4.872,0.528
		c-0.689,0.078-1.055-0.016-1.008-0.888c0.354-6.582,0.656-13.167,0.989-19.75C52.815,62,52.956,61.701,53.039,61.399z"/>
	<path fill-rule="evenodd" clip-rule="evenodd" fill="#0767AC" d="M67.562,57.859c-0.572-0.93-0.198-1.95-0.247-2.924
		c-0.037-0.763-0.089-1.068-1.059-0.96c-5.651,0.623-11.312,1.149-16.974,1.67c-0.717,0.065-1.053,0.267-1.029,1.027
		c0.045,1.371,0.032,2.742,0.042,4.114c-1.145,0.573-1.744,0.433-1.596-1.058c0.167-1.677,0.255-3.368,0.266-5.054
		c0.005-0.866,0.423-1.064,1.132-1.142c6.133-0.668,12.266-1.328,18.393-2.045c1.018-0.119,1.292,0.161,1.227,1.153
		C67.605,54.377,67.607,56.12,67.562,57.859z"/>
	<path fill-rule="evenodd" clip-rule="evenodd" fill="#0767AC" d="M60.95,68.223c0.016-1.861,0.022-3.723,0.054-5.583
		c0.009-0.555-0.122-1.149,0.297-1.637C61.134,63.406,61.555,65.839,60.95,68.223z"/>
	<path fill-rule="evenodd" clip-rule="evenodd" fill="#0767AC" d="M41.652,71.173c0.011,4.124-0.471,8.221-0.654,12.335
		c-0.029,0.644-0.335,0.774-0.869,0.833c-2.363,0.253-4.723,0.521-7.083,0.803c-0.762,0.092-0.849-0.26-0.796-0.916
		c0.645-8.163,1.264-16.328,1.891-24.491c0.025-0.315,0.071-0.629,0.096-0.946c0.32-4.053,0.32-4.053,4.404-4.362
		c0.685-0.051,1.372-0.085,2.053-0.17c2.385-0.297,2.385-0.305,1.911,2.094c-1.722,0.194-3.439,0.462-5.166,0.553
		c-0.951,0.05-1.216,0.363-1.289,1.298c-0.337,4.292-0.766,8.577-1.162,12.865c-0.06,0.651-0.079,1.088,0.892,0.904
		C37.787,71.612,39.726,71.429,41.652,71.173z"/>
	<path fill-rule="evenodd" clip-rule="evenodd" fill="#6C9ECD" d="M41.652,71.173c-1.926,0.256-3.865,0.439-5.772,0.801
		c-0.971,0.184-0.952-0.253-0.892-0.904c0.396-4.289,0.824-8.573,1.162-12.865c0.073-0.935,0.338-1.248,1.289-1.298
		c1.727-0.09,3.443-0.359,5.166-0.553C42.399,61.301,42.13,66.243,41.652,71.173z"/>
</g>
</svg>
