<?xml version="1.0" encoding="utf-8"?>
<!-- Generator: Adobe Illustrator 16.0.0, SVG Export Plug-In . SVG Version: 6.00 Build 0)  -->
<!DOCTYPE svg PUBLIC "-//W3C//DTD SVG 1.1//EN" "http://www.w3.org/Graphics/SVG/1.1/DTD/svg11.dtd">
<svg version="1.1" id="flag-icon-css-am" xmlns="http://www.w3.org/2000/svg" xmlns:xlink="http://www.w3.org/1999/xlink" x="0px"
	 y="0px" width="150px" height="150px" viewBox="0 0 150 150" enable-background="new 0 0 150 150" xml:space="preserve">
<path fill-rule="evenodd" clip-rule="evenodd" fill="#2B2624" d="M104.548,20.38c-2.502,2.015-3.262-1.451-5.061-1.372
	C101.451,18.368,102.94,19.339,104.548,20.38z"/>
<g>
	<path fill-rule="evenodd" clip-rule="evenodd" fill="#221F20" d="M54.728,19.226c-7.151,4.733-13.071,10.707-17.919,17.764
		c-1.103,1.606-2.239,3.189-3.37,4.776c-0.325,0.456-0.537,1.106-1.375,0.925c2.456-8.534,5.647-16.703,10.549-24.113
		c4.899-7.407,10.87-13.588,19.613-16.385c7.294-2.333,12.297-0.083,15.579,6.901c2.24,4.771,2.721,9.922,3.18,15.11
		c0.989,0.056,1.402-0.791,2.004-1.266c4.211-3.32,8.608-6.411,13.978-7.354c3.857-0.677,8.017-1.353,10.521,3.101
		c0.324,0.574,1.071,0.439,1.646,0.541c1.863,0.33,3.64,0.871,5.202,1.99c1.203,0.862,2.047,1.979,2.401,3.419
		c0.233,0.951,0.504,2.132-0.086,2.827c-0.631,0.742-1.427-0.34-2.139-0.581c-5.511-1.861-9.519,0.205-11.062,5.751
		c-0.837,3.008-1.753,5.993-2.69,9.187c3.381-0.692,6.64-1.511,9.979-1.7c3.344-0.188,6.686-0.683,10.033,0.267
		c6.013,1.707,9.275,5.918,9.292,12.136c0.016,5.902-2.022,11.169-5.04,16.086c-6.224,10.141-15.222,17.424-24.97,23.902
		c-0.079,0.053-0.262-0.05-0.635-0.133c6.622-8.767,13.838-17.095,17.009-28.47c-2.422,1.491-3.792,3.18-5.204,4.799
		c-4.941,5.673-8.914,12.022-12.921,18.364c-5.49,8.691-12.941,14.866-23.216,17.146c-0.406,0.091-0.822,0.349-1.325-0.006
		c1.745-1.639,3.536-3.2,5.19-4.896c4.838-4.962,8.309-10.726,10.4-17.377c1.7-5.407,3.729-10.712,5.655-16.187
		c-0.928,0.242-1.245,1.002-1.683,1.571c-3.433,4.459-6.6,9.083-9.14,14.131c-1.966,3.907-4.45,7.469-7.931,10.228
		c-1.469,1.166-3.066,2.072-5.369,2.62c3.398-5.041,5.513-10.045,4.706-16.3c-4.209,3.966-6.625,8.492-8.171,13.557
		c-0.807,2.646-1.09,5.432-2.241,7.988c-2.741,6.084-7.07,10.241-14.513,11.88c6.159-7.559,6.392-16.183,7.164-24.688
		c-2.473,4.319-4.615,8.789-6.212,13.508c-1.262,3.728-3.198,6.952-6.728,8.947c-0.874,0.494-1.725,1.23-3.048,0.978
		c1.033-2.463,2.782-4.633,2.648-7.853c-1.224,1.044-2.217,1.9-3.222,2.742c-1.676,1.405-2.928,1.021-3.696-1.052
		c-0.696-1.876-0.004-3.639,0.593-5.847c-3.457,1.822-6.375,3.685-9.455,6.007c1.258-4.869,3.769-8.454,7.219-11.487
		c3.657-3.215,7.709-5.973,11.057-9.542c0.707-0.753,1.365-1.552,1.871-2.566c-7.414,3.328-15.685,5.167-20.773,12.572
		c-0.219-3.244-0.078-6.357,1.351-9.295c1.933-3.973,4.84-6.96,8.794-8.992c3.945-2.027,7.623-4.478,10.863-7.537
		c1.807-1.708,3.019-3.796,4.181-6.455c-5.131,1.869-9.609,3.936-13.02,7.83c-0.356,0.407-0.583,1.346-1.281,0.982
		c-0.808-0.422-0.067-1.131,0.015-1.738c0.737-5.42,3.627-9.485,7.61-13.09c5.274-4.774,10.446-9.697,14.07-15.951
		c-0.342-0.338-0.65-0.215-0.978,0.031c-6.103,4.603-12.232,9.172-18.307,13.812c-5.481,4.187-9.355,9.644-12.245,15.848
		c-0.144,0.309-0.317,0.604-0.667,0.849c-0.359-6.741-0.437-13.361,3.671-19.295c3.767-5.441,7.939-10.509,12.529-15.276
		c4.331-4.498,8.078-9.454,10.471-15.305c0.115-0.221,0.325-0.464-0.01-0.643C55.068,18.889,54.865,19.118,54.728,19.226z
		 M41.014,93.263c1.364,0.259,2.621-0.533,4.133-0.425c-1.458,2.492-3.073,4.795-4.163,7.383c1.08,0.578,1.774-0.157,2.532-0.577
		c3.171-1.759,3.168-1.764,4.246,1.737c3.143-8.647,7.04-16.836,13.946-23.853c-1.357,8.616-0.525,16.832-2.444,24.907
		c0.993-0.155,1.173-0.795,1.507-1.261c1.742-2.441,2.412-5.282,3.094-8.137c1.436-6.011,3.856-11.518,8.533-15.772
		c1.633-1.485,3.421-2.761,5.58-3.346c0.979,3.431,0.361,6.779,0.807,10.617c6.113-11.655,12.59-22.273,24.142-28.608
		c-6.867,12.021-9.32,25.765-15.23,38.198c2.267-1.447,4.098-3.36,5.607-5.573c3.932-5.758,7.856-11.521,11.713-17.33
		c2.78-4.188,6.286-7.571,10.622-10.093c1.078-0.627,2.433-2.097,3.283-1.473c1.132,0.831,0.324,2.63,0.048,3.976
		c-0.939,4.573-2.589,8.92-4.552,13.389c0.448-0.189,0.709-0.219,0.835-0.363c5.291-6.105,9.404-12.825,10.577-20.985
		c0.889-6.183-1.852-10.099-8.01-11.492c-5.058-1.143-10.134-0.602-15.203,0.099c-2.31,0.319-4.259,0.879-5.376,3.307
		c-0.562,1.222-1.902,2.077-2.863,3.125c-0.793,0.863-1.237,0.677-1.425-0.416c-0.271-1.589-0.355-3.227-1.3-4.993
		c-3.528,7.261-7.59,13.801-13.96,18.521c2.735-3.735,5.371-7.526,7.397-11.687c2.049-4.208,3.906-8.508,5.926-12.939
		c1.785,1.704,2.32,3.995,3.616,5.807c1.898-2.008,4.255-6.808,5.592-11.441c0.543-1.888,1.3-3.668,2.352-5.325
		c2.387-3.759,5.128-4.959,9.544-4.207c0.743,0.127,1.494,0.557,2.434,0.132c-1.311-2.281-3.483-2.657-5.6-3.015
		c-1.665-0.281-3.328-0.193-4.045-2.324c-0.321-0.952-1.587-1.271-2.693-1.343c-2.209-0.143-4.331,0.131-6.352,1.1
		c-4.307,2.065-8.028,4.919-11.468,8.212c-2.157,2.067-4.073,4.154-3.917,7.419c0.025,0.521,0.068,1.383-0.833,1.271
		c-0.725-0.091-0.524-0.84-0.481-1.3c0.253-2.717-0.131-5.391-0.52-8.058c-0.78-5.362-1.876-10.655-4.773-15.343
		c-3.103-5.021-6.439-6.181-12.043-4.251c-7.163,2.467-11.954,7.778-16.192,13.718c-0.562,0.787-1.065,1.615-1.596,2.425
		c0.143,0.145,0.286,0.289,0.429,0.433c4.531-3.642,9.362-6.755,14.784-9.079c0.253,1.217,0.012,2.085-0.154,2.963
		c-0.912,4.806-3.479,8.82-6.183,12.743c-3.543,5.141-7.808,9.683-12.092,14.201c-2.772,2.926-4.877,6.274-6.363,10.075
		c10.42-9.501,23.679-15.24,33.232-26.101c0.402,1.287,0.043,2.054-0.173,2.836c-1.461,5.289-4.325,9.822-7.558,14.174
		c-3.712,4.996-8.315,9.167-12.528,13.699c-0.208,0.224-0.803,0.276-0.481,0.801c0.255,0.416,0.559,0.2,0.935,0.09
		c1.362-0.399,2.75-0.711,4.133-1.038c1.493-0.353,3.633-1.134,4.373-0.171c0.91,1.186-0.146,3.153-0.829,4.657
		c-1.987,4.373-5.351,7.57-9.183,10.281c-2.382,1.686-4.937,3.126-7.409,4.684c-2.049,1.291-3.823,2.828-5.188,5.564
		c7.748-3.464,15.064-6.245,22.158-9.715c-0.991,2.083-2.166,3.968-3.288,5.883c-3.072,5.243-7.686,9.133-11.779,13.482
		c-0.089,0.071-0.178,0.144-0.268,0.215C40.79,93.539,40.917,93.469,41.014,93.263z"/>
	<path fill-rule="evenodd" clip-rule="evenodd" fill="#221F21" d="M106.066,148.69c-1.412-0.188-3.728,0.77-4.624-0.375
		c-0.883-1.128,0.29-3.246,0.58-4.925c0.658-3.826,1.433-7.634,2.045-11.468c0.209-1.307,0.714-1.759,2.037-1.671
		c1.786,0.117,3.587-0.009,5.382,0.033c5.091,0.12,8.333,2.559,9.001,6.728c0.76,4.752-2.038,9.426-6.601,10.973
		C111.432,148.819,108.873,148.673,106.066,148.69z M113.86,138.602c-0.04-0.233-0.052-0.617-0.177-0.959
		c-0.462-1.264-1.427-1.925-2.735-1.881c-1.363,0.046-0.933,1.301-1.141,2.06c-0.275,0.998-0.488,2.039-0.528,3.068
		c-0.028,0.727-0.966,1.656,0.033,2.159c0.8,0.402,1.745-0.056,2.511-0.563C113.158,141.6,113.827,140.339,113.86,138.602z"/>
	<path fill-rule="evenodd" clip-rule="evenodd" fill="#221F21" d="M100.282,148.61c-2.435,0.026-4.539,0.421-6.448-0.023
		c-2.337-0.544-1.204-3.536-2.659-4.919c-0.102,0.087-0.26,0.155-0.274,0.247c-0.84,5.089-1.524,5.572-6.557,4.796
		c-0.795-0.123-0.983-0.371-0.842-1.143c1.007-5.442,1.982-10.891,2.952-16.339c0.131-0.731,0.523-0.973,1.241-0.958
		c2.918,0.058,5.844-0.039,8.754,0.144c2.744,0.173,4.668,2.023,5.115,4.544c0.479,2.697-0.68,5.027-3.378,6.115
		c-1.237,0.5-1.205,0.925-0.68,1.908C98.448,144.746,99.281,146.565,100.282,148.61z M92.151,137.179
		c-0.105,0.705-0.352,1.416,0.677,1.274c1-0.136,1.885-0.519,2.081-1.654c0.191-1.1-0.57-1.441-1.444-1.522
		C91.814,135.124,92.547,136.606,92.151,137.179z"/>
	<path fill-rule="evenodd" clip-rule="evenodd" fill="#221F21" d="M71.856,139.332c1.952,0.993,2.652,2.593,2.248,4.671
		c-0.465,2.409-2.075,3.923-4.326,4.363c-3.84,0.754-7.767,0.214-11.656,0.297c-0.941,0.021-0.776-0.634-0.663-1.256
		c0.963-5.299,1.932-10.599,2.851-15.905c0.186-1.07,0.758-1.261,1.714-1.241c2.471,0.053,4.945-0.022,7.416,0.03
		c2.855,0.059,4.578,1.161,5.128,3.163C75.21,135.782,74.371,137.632,71.856,139.332z M64.755,142.969
		c-0.104,0.676-0.406,1.41,0.621,1.33c1.058-0.083,2.181-0.289,2.328-1.61c0.109-0.977-0.719-1.159-1.489-1.27
		C64.893,141.231,64.778,142.122,64.755,142.969z M67.206,134.841c-1.241-0.035-1.126,0.836-1.206,1.529
		c-0.057,0.492,0.091,0.865,0.73,0.729c0.806-0.172,1.671-0.324,1.647-1.391C68.359,134.935,67.678,134.893,67.206,134.841z"/>
	<path fill-rule="evenodd" clip-rule="evenodd" fill="#221F21" d="M42.928,148.678c-2.361,0-4.368-0.029-6.373,0.013
		c-0.894,0.02-1.122-0.534-1.33-1.211c-0.415-1.342-0.854-2.677-1.375-4.302c-0.22,0.525-0.373,0.77-0.426,1.032
		c-0.988,4.913-1.144,4.996-6.337,4.501c-0.927-0.089-1.171-0.379-1.012-1.228c1.005-5.369,2.014-10.737,2.977-16.112
		c0.149-0.828,0.488-1.119,1.316-1.105c2.695,0.044,5.397-0.067,8.088,0.06c3.158,0.151,5.17,1.849,5.654,4.503
		c0.536,2.94-0.592,5.047-3.639,6.367c-0.893,0.388-0.943,0.628-0.531,1.413C40.938,144.503,41.839,146.448,42.928,148.678z
		 M35.411,138.477c1.01-0.167,2.02-0.54,2.147-1.79c0.11-1.08-0.796-1.404-1.627-1.41c-1.544-0.009-0.808,1.454-1.226,2.186
		C34.466,137.882,34.469,138.541,35.411,138.477z"/>
	<path fill-rule="evenodd" clip-rule="evenodd" fill="#221F21" d="M105.792,118.471c3.187-4.263,7.321-5.416,11.178-3.219
		c3.213,1.832,4.408,5.682,2.851,9.175c-1.521,3.406-5.418,5.051-9.275,3.911c-4.145-1.225-5.817-4.365-4.976-9.338
		c-1.908-0.604-2.66,0.135-2.691,2.089c-0.022,1.489-0.521,2.978-0.493,4.461c0.043,2.393-1.052,2.934-3.257,2.834
		c-1.696-0.075-2.415-0.321-2.004-2.199c0.365-1.675,0.391-3.421,0.632-5.126c0.166-1.174,0.772-2.539-1.401-2.167
		c-0.35,0.06-0.483-0.122-0.583-0.461c-0.562-1.906,0.784-3.8,2.732-3.803c1.649-0.004,3.317,0.15,4.943-0.039
		c2.097-0.247,2.684,0.533,2.189,2.469C105.537,117.449,105.328,117.899,105.792,118.471z M115.348,121.547
		c-0.026-1.479-0.657-2.484-2.179-2.661c-1.466-0.171-2.879,1.265-2.806,2.845c0.068,1.443,0.767,2.462,2.319,2.487
		C114.433,124.246,115.202,123.167,115.348,121.547z"/>
	<path fill-rule="evenodd" clip-rule="evenodd" fill="#221F21" d="M126.735,149.188c-2.473-0.107-4.37-0.734-6.202-1.649
		c-0.853-0.426-1.114-0.883-0.508-1.715c0.35-0.48,0.664-1.009,0.88-1.56c0.684-1.741,1.531-2.673,3.188-0.881
		c0.185,0.2,0.528,0.285,0.815,0.356c1.14,0.285,2.728,0.966,3.164-0.446c0.489-1.578-1.342-1.4-2.312-1.687
		c-3.821-1.134-5.175-4.392-3.23-7.902c2.299-4.152,9.763-5.468,13.371-2.386c0.44,0.378,0.49,0.678,0.227,1.127
		c-0.264,0.451-0.556,0.894-0.765,1.369c-0.794,1.819-1.655,3.318-3.895,1.517c-0.354-0.286-0.998-0.233-1.512-0.294
		c-0.564-0.065-1.149,0.102-1.294,0.656c-0.2,0.771,0.445,0.994,1.051,1.159c0.36,0.1,0.714,0.223,1.073,0.323
		c2.035,0.563,3.836,1.423,4.244,3.777c0.423,2.431-0.469,4.42-2.286,6.002C130.913,148.552,128.718,149.187,126.735,149.188z"/>
	<path fill-rule="evenodd" clip-rule="evenodd" fill="#221F21" d="M49.823,148.686c-1.125,0-2.249,0.001-3.375,0
		c-2.811-0.001-2.831-0.006-2.349-2.656c0.858-4.716,1.795-9.418,2.583-14.146c0.199-1.197,0.565-1.664,1.82-1.631
		c2.998,0.08,6,0.071,8.998-0.001c1.3-0.032,1.674,0.321,1.447,1.664c-0.522,3.094-0.456,3.104-3.689,3.11
		c-0.524,0.001-1.05,0.016-1.575,0.006c-0.86-0.015-0.901,0.669-1,1.229c-0.145,0.822,0.487,0.761,1.01,0.778
		c0.3,0.009,0.604-0.028,0.899,0.013c0.924,0.127,2.422-0.469,2.654,0.36c0.309,1.105-0.15,2.471-0.636,3.671
		c-0.287,0.71-0.818,0.522-1.297,0.539c-0.899,0.032-1.801,0.042-2.699,0.006c-0.971-0.039-1.1,0.632-1.136,1.322
		c-0.044,0.839,0.638,0.64,1.122,0.678c0.299,0.021,0.6,0.005,0.9,0.006c3.457,0.025,4.051,1.024,2.685,4.302
		c-0.317,0.757-0.811,0.758-1.414,0.76c-1.65,0.001-3.299,0-4.949,0C49.823,148.692,49.823,148.688,49.823,148.686z"/>
	<path fill-rule="evenodd" clip-rule="evenodd" fill="#221F21" d="M15.486,122.883c-0.464,1.246-1,2.472-1.373,3.742
		c-0.365,1.246-0.989,1.685-2.368,1.758c-2.188,0.117-3.15-0.475-3.408-2.815c-0.351-3.184-1.108-6.332-1.859-9.456
		c-0.32-1.336,0.106-1.477,1.255-1.507c3.91-0.105,3.921-0.132,3.968,3.797c0.009,0.746,0.014,1.492,0.049,2.235
		c0.003,0.086,0.187,0.162,0.464,0.385c0.661-1.766,1.364-3.448,1.92-5.179c0.674-2.098,2.354-1.003,3.593-1.188
		c1.478-0.22,1.102,1.049,1.22,1.843c0.186,1.247,0.316,2.503,0.487,3.896c1.288-1.004,1.375-2.505,1.713-3.787
		c0.423-1.599,1.218-2.256,2.841-1.993c0.511,0.082,1.051,0.062,1.569,0.003c1.769-0.2,2.045,0.307,1.208,1.915
		c-1.794,3.444-3.516,6.935-5.06,10.496c-0.948,2.186-2.66,1.105-4.045,1.234c-1.441,0.134-0.954-1.212-1.121-1.983
		c-0.244-1.123-0.396-2.266-0.587-3.401C15.797,122.88,15.641,122.882,15.486,122.883z"/>
	<path fill-rule="evenodd" clip-rule="evenodd" fill="#221F21" d="M13.455,130.279c0.822-0.001,1.646,0,2.468-0.001
		c3.525-0.004,3.445-0.018,2.886,3.354c-0.228,1.375-0.854,1.523-2.069,1.637c-1.193,0.109-3.399-1.104-3.397,1.087
		c0.001,1.583,2.028,0.633,3.125,0.771c0.928,0.116,1.243,0.19,1.108,1.279c-0.442,3.587-0.378,3.664-3.884,3.662
		c-1.234-0.001-1.77,0.404-1.855,1.564c-0.011,0.147-0.066,0.291-0.095,0.438c-0.984,5.068-0.981,5.037-6.228,4.643
		c-1.005-0.075-1.304-0.353-1.12-1.335c0.99-5.288,1.976-10.575,2.892-15.876c0.189-1.091,0.738-1.272,1.682-1.236
		C10.462,130.322,11.959,130.28,13.455,130.279z"/>
	<path fill-rule="evenodd" clip-rule="evenodd" fill="#221F21" d="M69.717,121.486c-0.17,1.938-0.385,3.276-0.38,4.615
		c0.006,1.634-0.433,2.376-2.306,2.265c-2.987-0.179-3.021-0.038-2.666-2.996c0.374-3.12,0.85-6.229,1.182-9.354
		c0.109-1.021,0.436-1.367,1.49-1.419c3.652-0.179,3.649-0.226,5.192,3.021c0.378,0.797,0.772,1.586,1.191,2.446
		c1.111-0.954,0.905-2.201,0.941-3.289c0.055-1.679,0.646-2.287,2.412-2.195c2.979,0.154,2.976,0.03,2.603,2.998
		c-0.392,3.118-0.813,6.233-1.113,9.36c-0.102,1.063-0.517,1.28-1.516,1.416c-2.535,0.343-4.284-0.31-5.095-2.952
		C71.292,124.227,70.562,123.162,69.717,121.486z"/>
	<path fill-rule="evenodd" clip-rule="evenodd" fill="#221F21" d="M130.855,121.47c0.152-1.64,0.224-2.904,0.402-4.155
		c0.122-0.857-0.363-2.221,0.474-2.472c1.306-0.392,2.801-0.204,4.214-0.168c0.639,0.018,0.507,0.604,0.456,1.029
		c-0.463,3.857-0.932,7.716-1.401,11.573c-0.045,0.367-0.081,0.733-0.457,0.957c-1.315,0.783-4.696-0.188-5.397-1.562
		c-0.475-0.931-0.944-1.864-1.411-2.799c-0.18-0.356-0.425-0.625-0.855-0.575c-0.504,0.06-0.476,0.473-0.506,0.837
		c-0.032,0.372-0.057,0.746-0.104,1.117c-0.395,3.115-0.398,3.03-3.542,3.099c-1.533,0.032-1.906-0.408-1.68-1.903
		c0.53-3.472,0.942-6.963,1.313-10.456c0.109-1.036,0.473-1.319,1.511-1.407c2.511-0.212,4.501,0.124,5.231,3.026
		C129.403,118.809,130.125,119.9,130.855,121.47z"/>
	<path fill-rule="evenodd" clip-rule="evenodd" fill="#221F21" d="M94.868,117.806c-2.076,0.454-3.705,2.423-6.217,0.826
		c-1.176-0.748-2.446,0.397-3.022,1.636c-0.634,1.367-0.712,2.85,0.554,3.92c1.101,0.932,2.304,0.79,3.638-0.452
		c-1.408-0.23-2.682-0.248-2.245-2.144c0.266-1.158,0.623-1.453,1.702-1.396c1.492,0.077,3.004,0.135,4.485-0.012
		c1.573-0.156,1.717,0.621,1.615,1.851c-0.305,3.719-3.088,6.38-6.975,6.608c-4.304,0.256-7.44-1.963-8.115-5.738
		c-0.664-3.71,1.507-7.143,5.243-8.29C89.309,113.453,92.609,114.544,94.868,117.806z"/>
	<path fill-rule="evenodd" clip-rule="evenodd" fill="#221F21" d="M20.345,148.687c-3.351,0-3.351-0.001-2.753-3.243
		c0.829-4.493,1.711-8.979,2.457-13.486c0.214-1.295,0.671-1.704,2.004-1.714c5.224-0.034,5.214-0.088,4.242,5.108
		c-0.62,3.313-1.176,6.639-1.813,9.948C23.831,148.69,23.804,148.686,20.345,148.687z"/>
	<path fill-rule="evenodd" clip-rule="evenodd" fill="#221F21" d="M77.922,148.686c-3.483-0.003-3.487-0.005-2.887-3.371
		c0.789-4.423,1.618-8.839,2.363-13.27c0.221-1.311,0.708-1.821,2.158-1.811c5.04,0.039,5.046-0.029,4.16,4.927
		c-0.606,3.39-1.248,6.771-1.846,10.164C81.278,148.687,81.294,148.688,77.922,148.686z"/>
	<path fill-rule="evenodd" clip-rule="evenodd" fill="#221F21" d="M30.922,128.314c-4.423-0.001-4.438-0.002-3.957-4.36
		c0.28-2.529,0.708-5.044,0.896-7.579c0.108-1.479,0.705-1.883,2.104-1.777c1.639,0.123,3.303-0.076,4.936,0.076
		c0.738,0.069,2.211-0.869,2.147,0.892c-0.051,1.368,0.129,3.233-2.306,2.713c-0.215-0.046-0.451-0.029-0.672,0
		c-0.531,0.069-1.318-0.264-1.345,0.698c-0.029,1.028,0.832,0.746,1.303,0.67c2.161-0.352,2.272,0.719,1.947,2.422
		c-0.272,1.425-1.269,0.916-2.071,1.046c-0.663,0.107-1.76-0.413-1.823,0.687c-0.07,1.22,1.107,0.524,1.691,0.778
		c0.753,0.325,2.331-0.99,2.218,1.089c-0.083,1.52-0.046,3.083-2.376,2.672C32.742,128.187,31.821,128.315,30.922,128.314z"/>
	<path fill-rule="evenodd" clip-rule="evenodd" fill="#221F21" d="M41.579,128.314c-4.772,0-4.753,0.003-4.088-4.785
		c0.339-2.441,0.523-4.906,0.899-7.342c0.46-2.988,2.812-1.263,4.271-1.481c1.641-0.247,0.827,1.229,0.776,1.911
		c-0.152,2.008-0.458,4.005-0.741,6.001c-0.156,1.104,0.06,1.545,1.375,1.543c0.789-0.001,2.462-1.147,2.517,0.935
		c0.077,2.959-0.192,3.213-2.766,3.218C43.074,128.315,42.327,128.313,41.579,128.314z"/>
	<path fill-rule="evenodd" clip-rule="evenodd" fill="#221F21" d="M51.461,128.314c-4.413,0-4.417,0-3.904-4.411
		c0.285-2.451,0.68-4.894,0.845-7.352c0.101-1.515,0.627-2.01,2.173-1.966c3.18,0.092,3.187-0.001,2.837,3.199
		c-0.154,1.412-0.152,2.872-0.54,4.219c-0.575,1.995,0.264,2.229,1.94,2.121c0.614-0.04,2.149-0.785,1.81,0.933
		c-0.247,1.254,0.786,3.496-2.021,3.271C53.561,128.245,52.508,128.315,51.461,128.314z"/>
	<path fill-rule="evenodd" clip-rule="evenodd" fill="#221F21" d="M59.537,128.231c-2.387,0.63-2.561-0.436-2.181-2.465
		c0.564-3.012,0.894-6.081,1.098-9.141c0.113-1.686,0.731-2.102,2.338-2.041c3.034,0.118,3.035,0.02,2.66,3.154
		c-0.329,2.749-0.785,5.493-0.935,8.253C62.401,128.128,61.462,128.75,59.537,128.231z"/>
	<linearGradient id="SVGID_1_" gradientUnits="userSpaceOnUse" x1="100.043" y1="18.0171" x2="66.1398" y2="71.722">
		<stop  offset="0" style="stop-color:#FF4000"/>
		<stop  offset="1" style="stop-color:#FFC700"/>
	</linearGradient>
	<path fill-rule="evenodd" clip-rule="evenodd" fill="url(#SVGID_1_)" d="M40.874,93.137c4.093-4.35,8.707-8.239,11.779-13.482
		c1.122-1.915,2.297-3.801,3.288-5.883c-7.094,3.47-14.41,6.251-22.158,9.715c1.365-2.736,3.14-4.273,5.188-5.564
		c2.473-1.558,5.027-2.998,7.409-4.684c3.832-2.711,7.196-5.908,9.183-10.281c0.683-1.504,1.739-3.471,0.829-4.657
		c-0.739-0.963-2.879-0.182-4.373,0.171c-1.383,0.327-2.771,0.639-4.133,1.038c-0.376,0.11-0.68,0.326-0.935-0.09
		c-0.322-0.524,0.273-0.577,0.481-0.801c4.213-4.532,8.816-8.703,12.528-13.699c3.233-4.352,6.097-8.885,7.558-14.174
		c0.216-0.782,0.575-1.549,0.173-2.836c-9.553,10.86-22.812,16.6-33.232,26.101c1.486-3.801,3.591-7.149,6.363-10.075
		c4.284-4.519,8.548-9.061,12.092-14.201c2.704-3.923,5.271-7.937,6.183-12.743c0.166-0.878,0.407-1.746,0.154-2.963
		c-5.422,2.323-10.253,5.437-14.784,9.079c-0.143-0.145-0.286-0.289-0.429-0.433c0.531-0.81,1.035-1.638,1.596-2.425
		c4.238-5.939,9.029-11.251,16.192-13.718c5.604-1.93,8.94-0.77,12.043,4.251c2.897,4.688,3.993,9.981,4.773,15.343
		c0.389,2.667,0.772,5.341,0.52,8.058c-0.043,0.46-0.243,1.209,0.481,1.3c0.901,0.112,0.858-0.749,0.833-1.271
		c-0.156-3.265,1.76-5.352,3.917-7.419c3.439-3.293,7.161-6.147,11.468-8.212c2.021-0.969,4.143-1.243,6.352-1.1
		c1.106,0.072,2.372,0.391,2.693,1.343c0.717,2.131,2.38,2.042,4.045,2.324c2.116,0.358,4.289,0.734,5.6,3.015
		c-0.939,0.425-1.69-0.004-2.434-0.132c-4.416-0.752-7.157,0.448-9.544,4.207c-1.052,1.657-1.809,3.438-2.352,5.325
		c-1.337,4.634-3.693,9.433-5.592,11.441c-1.296-1.812-1.831-4.103-3.616-5.807c-2.02,4.431-3.877,8.731-5.926,12.939
		c-2.026,4.161-4.662,7.952-7.397,11.687c6.37-4.72,10.432-11.26,13.96-18.521c0.944,1.767,1.029,3.404,1.3,4.993
		c0.188,1.093,0.632,1.279,1.425,0.416c0.961-1.048,2.302-1.903,2.863-3.125c1.117-2.428,3.066-2.988,5.376-3.307
		c5.069-0.701,10.146-1.242,15.203-0.099c6.158,1.393,8.898,5.309,8.01,11.492c-1.173,8.16-5.286,14.88-10.577,20.985
		c-0.126,0.145-0.387,0.174-0.835,0.363c1.963-4.469,3.612-8.816,4.552-13.389c0.276-1.346,1.084-3.146-0.048-3.976
		c-0.851-0.624-2.205,0.846-3.283,1.473c-4.336,2.522-7.842,5.905-10.622,10.093c-3.856,5.808-7.781,11.572-11.713,17.33
		c-1.51,2.213-3.341,4.126-5.607,5.573c5.91-12.433,8.363-26.176,15.23-38.198c-11.552,6.334-18.028,16.953-24.142,28.608
		c-0.445-3.838,0.172-7.187-0.807-10.617c-2.158,0.584-3.946,1.86-5.58,3.346c-4.677,4.255-7.097,9.762-8.533,15.772
		c-0.682,2.854-1.352,5.695-3.094,8.137c-0.333,0.466-0.514,1.105-1.507,1.261c1.919-8.075,1.087-16.291,2.444-24.907
		c-6.906,7.017-10.803,15.205-13.946,23.853c-1.077-3.501-1.074-3.496-4.246-1.737c-0.758,0.42-1.452,1.155-2.532,0.577
		c1.089-2.588,2.705-4.891,4.163-7.383c-1.512-0.108-2.769,0.684-4.133,0.425L40.874,93.137z M104.548,20.38
		c-1.607-1.041-3.097-2.012-5.061-1.372C101.286,18.929,102.046,22.395,104.548,20.38z"/>
	<path fill-rule="evenodd" clip-rule="evenodd" fill="#F28425" d="M41.014,93.263c-0.097,0.206-0.224,0.276-0.408,0.089
		c0.09-0.071,0.179-0.144,0.268-0.215L41.014,93.263z"/>
	<g>
		<path fill="#221F21" d="M140.467,133.064h-1.063v3.042h-0.841v-3.042h-1.057v-0.683h2.96V133.064z"/>
		<path fill="#221F21" d="M145.212,136.106h-0.828v-2.229c0-0.242,0.01-0.507,0.03-0.798h-0.021
			c-0.043,0.229-0.082,0.393-0.116,0.493l-0.873,2.533h-0.686l-0.889-2.507c-0.024-0.067-0.063-0.241-0.116-0.52h-0.023
			c0.022,0.367,0.033,0.689,0.033,0.967v2.06h-0.755v-3.725h1.228l0.762,2.207c0.061,0.178,0.104,0.354,0.132,0.533h0.016
			c0.047-0.206,0.097-0.386,0.149-0.538l0.76-2.202h1.197V136.106z"/>
	</g>
	<g>
		<path d="M112.621,88.805h-1.063v3.041h-0.842v-3.041h-1.056v-0.683h2.96V88.805z"/>
		<path d="M117.366,91.846h-0.828v-2.228c0-0.241,0.011-0.507,0.031-0.798h-0.021c-0.044,0.229-0.083,0.394-0.117,0.494
			l-0.873,2.531h-0.686l-0.889-2.505c-0.024-0.069-0.063-0.242-0.117-0.521h-0.022c0.021,0.367,0.033,0.688,0.033,0.967v2.059
			h-0.755v-3.724h1.228l0.761,2.207c0.062,0.177,0.105,0.354,0.133,0.532h0.016c0.047-0.205,0.097-0.385,0.148-0.538l0.761-2.201
			h1.197V91.846z"/>
	</g>
</g>
</svg>
