<?xml version="1.0" encoding="utf-8"?>
<!-- Generator: Adobe Illustrator 16.0.0, SVG Export Plug-In . SVG Version: 6.00 Build 0)  -->
<!DOCTYPE svg PUBLIC "-//W3C//DTD SVG 1.1//EN" "http://www.w3.org/Graphics/SVG/1.1/DTD/svg11.dtd">
<svg version="1.1" id="flag-icon-css-ws" xmlns="http://www.w3.org/2000/svg" xmlns:xlink="http://www.w3.org/1999/xlink" x="0px"
	 y="0px" width="150px" height="150px" viewBox="0 0 150 150" enable-background="new 0 0 150 150" xml:space="preserve">
<g>
	<path fill="#7B0041" d="M0,18.75h150v112.5H0V18.75z"/>
</g>
<path fill-rule="evenodd" clip-rule="evenodd" fill="#96CDE6" d="M468.963,245.476c-0.023-36.675-0.063-73.349-0.066-110.022
	c-0.002-27.567,0.043-55.135,0.066-82.703c1.479-0.114,0.711,1.029,0.712,1.5c0.04,63.242,0.04,126.485,0,189.726
	C469.674,244.446,470.441,245.59,468.963,245.476z"/>
<path fill-rule="evenodd" clip-rule="evenodd" fill="#E9AF15" d="M30.262,92.294c0.722-6.749,1.957-13.401,3.902-19.912
	c1.468-4.916,2.043-9.975,2.743-15.035c0.735-5.317-0.937-9.911-3.524-14.295c-1.048-1.777-0.743-2.889,0.656-4.302
	c3.413-3.449,6.76-6.979,9.897-10.677c1.601-1.886,3.126-2.103,5.246-1.217c2.551,1.065,5.218,1.736,8,1.997
	c5.914,0.555,10.779-1.925,15.29-5.276c1.813-1.347,3.155-1.423,5.016-0.031c4.568,3.418,9.525,5.903,15.53,5.3
	c2.951-0.297,5.743-1.146,8.472-2.2c1.734-0.67,2.925-0.364,4.179,1.045c3.506,3.936,7.12,7.779,10.761,11.591
	c0.943,0.987,1.314,1.836,0.489,3.046c-5.968,8.761-3.991,18.121-1.746,27.347c1.682,6.912,3.564,13.77,4.394,20.848
	c0.747,6.382-1.671,11.449-6.783,15.24c-2.158,1.6-4.575,2.794-7.058,3.797c-6.369,2.571-12.415,5.826-18.645,8.69
	c-4.242,1.951-8.027,4.52-10.872,8.275c-0.91,1.201-1.467,1.285-2.404,0.034c-2.937-3.921-6.917-6.483-11.312-8.509
	c-7.137-3.29-14.254-6.626-21.366-9.972c-4.46-2.101-8.032-5.09-9.796-9.895C30.628,96.272,30.2,94.34,30.262,92.294z M33.65,79.899
	c-0.932,3.653-1.497,7.373-1.946,11.106c-0.404,3.354,0.457,6.438,2.15,9.359c2.148,3.708,5.675,5.635,9.357,7.248
	c6.585,2.887,13.052,6.02,19.541,9.108c4.183,1.991,8.198,4.221,11.131,7.936c0.866,1.099,1.459,0.96,2.252-0.033
	c2.563-3.209,5.906-5.417,9.574-7.135c6.205-2.905,12.245-6.162,18.607-8.736c2.56-1.035,5.053-2.234,7.34-3.795
	c4.648-3.172,7.022-7.619,6.681-13.226c-0.249-4.08-1.013-8.125-2.086-12.09c-0.644-2.594-1.328-5.178-1.923-7.783
	c-2.296-10.055-5.089-20.14,1.267-29.828c0.692-1.056-0.007-1.68-0.648-2.367c-3.198-3.428-6.476-6.788-9.531-10.339
	c-1.377-1.601-2.587-1.867-4.516-1.102c-5.607,2.221-11.325,2.911-17.115,0.548c-2.502-1.02-4.754-2.487-6.914-4.054
	c-1.392-1.009-2.398-0.949-3.769,0.022c-3.003,2.129-6.114,4.109-9.783,4.973c-4.84,1.139-9.518,0.398-14.008-1.435
	c-2.14-0.873-3.455-0.481-4.929,1.254c-2.815,3.316-5.8,6.498-8.88,9.57c-1.368,1.365-1.458,2.418-0.6,4.104
	c1.656,3.249,3.75,6.406,3.432,10.333c-0.23,2.835-0.429,5.673-0.678,8.506C37.118,68.174,34.81,73.909,33.65,79.899z"/>
<path fill-rule="evenodd" clip-rule="evenodd" fill="#96CDE6" d="M33.65,79.899c1.16-5.991,3.468-11.725,4.007-17.854
	c0.249-2.833,0.447-5.671,0.678-8.506c0.319-3.926-1.776-7.083-3.432-10.333c-0.859-1.685-0.768-2.739,0.6-4.104
	c3.08-3.072,6.064-6.254,8.88-9.57c1.474-1.736,2.789-2.127,4.929-1.254c4.49,1.833,9.167,2.573,14.008,1.435
	c3.669-0.863,6.78-2.844,9.783-4.973c1.37-0.971,2.377-1.031,3.769-0.022c2.16,1.567,4.412,3.034,6.914,4.054
	c5.79,2.362,11.508,1.673,17.115-0.548c1.929-0.765,3.139-0.499,4.516,1.102c3.056,3.551,6.333,6.911,9.531,10.339
	c0.642,0.688,1.341,1.311,0.648,2.367c-6.355,9.688-3.563,19.773-1.267,29.828c0.595,2.605,1.279,5.189,1.923,7.783
	c-9.167,0.057-18.333,0.114-27.5,0.172c-0.288-4.466-0.288-4.466-4.815-4.478c-0.418-0.001-0.836-0.002-1.254-0.001
	c-4.729,0.009-4.729,0.009-5.023,4.512c-4.185,0.036-8.369,0.073-12.554,0.109c-0.631-1.426-0.446-2.893-0.285-4.38
	c0.454-4.183,1.331-8.322,1.306-12.553c3.389-1.301,6.868-0.704,10.634-0.026c-2.564-3.775-6.188-4.456-9.751-5.446
	c6.34-3.771,11.86-0.503,17.862,2.595c-3.392-6.225-8.074-9.365-14.513-9.985c4.395-1.072,7.837,1.383,11.995,3.147
	c-2.984-5.022-6.549-7.628-11.899-7.03c-0.412,0.047-0.837,0.019-1.254-0.008c-0.395-0.026-0.913,0.074-1.023-0.463
	c-0.112-0.539,0.182-1.062,0.643-1.24c1.167-0.453,2.373-0.804,3.663-0.513c0.834,0.187,1.687,0.539,2.566,0.107
	c-1.063-2.97-3.846-1.713-5.779-2.47c1.069-1.621,3.007-1.633,4.382-3.091c-2.43-0.211-4.467-0.504-5.955,1.526
	c-0.791,1.079-1.586,1.115-2.667,0.188c-1.462-1.254-3.18-1.493-5.041-0.599c0.856,1.271,3.447,0.964,2.921,2.665
	c-0.323,1.043-2.393,0.271-3.673,0.271c-3.086-0.001-5.128,1.193-5.912,3.56c5.629-1.739,5.974-1.754,7.69-0.325
	c-9.882,1.367-12.283,2.663-13.864,7.941c4.166-3.266,8.442-4.373,13.571-2.841c-11.614,2.429-14.802,4.555-14.848,9.807
	c1.544-1.223,3.007-2.465,4.559-3.588c1.531-1.107,3.221-1.534,5.189-1.348c1.978,0.186,3.613,0.638,4.84,2.591
	c-2.481,0.126-4.825-0.211-6.55,1.763c-0.547,0.625-1.536,1.119-1.045,2.03c0.59,1.091,1.471,0.103,2.156-0.097
	c2.176-0.637,4.329-1.56,6.311,0.429c-0.162,5.794-0.325,11.588-0.487,17.383C51.781,79.938,42.716,79.919,33.65,79.899z
	 M96.543,63.479c5.832,0.055,10.619-4.613,10.658-10.393c0.039-5.764-4.728-10.546-10.523-10.557
	c-5.701-0.011-10.406,4.605-10.495,10.298C86.092,58.663,90.723,63.424,96.543,63.479z"/>
<path fill-rule="evenodd" clip-rule="evenodd" fill="#171793" d="M88.751,79.814c9.167-0.058,18.333-0.115,27.5-0.172
	c1.073,3.965,1.837,8.01,2.086,12.09c0.342,5.606-2.032,10.054-6.681,13.226c-2.287,1.561-4.78,2.76-7.34,3.795
	c-6.362,2.574-12.402,5.831-18.607,8.736c-3.668,1.718-7.011,3.926-9.574,7.135c-0.793,0.993-1.386,1.132-2.252,0.033
	c-2.934-3.715-6.949-5.944-11.131-7.936c-6.489-3.089-12.955-6.222-19.541-9.108c-3.682-1.613-7.209-3.54-9.357-7.248
	c-1.693-2.921-2.554-6.005-2.15-9.359c0.449-3.733,1.015-7.453,1.946-11.106c9.066,0.02,18.131,0.038,27.197,0.058
	c-0.172,4.311,1.038,8.267,3.089,12.005c-3.814,3.515-6.292,7.728-6.962,12.951c-0.215,1.676,0.119,2.387,2.015,2.379
	c12.946-0.048,25.892-0.024,38.837,0.061c1.868,0.012,2.283-0.674,2.035-2.367c-1.047-7.126-4.748-12.343-11.104-15.696
	C88.755,86.131,88.753,82.972,88.751,79.814z"/>
<path fill-rule="evenodd" clip-rule="evenodd" fill="#06AA5C" d="M61.334,62.574c-1.982-1.989-4.135-1.066-6.311-0.429
	c-0.685,0.2-1.566,1.188-2.156,0.097c-0.491-0.911,0.498-1.404,1.045-2.03c1.726-1.975,4.069-1.637,6.55-1.763
	c-1.227-1.954-2.863-2.405-4.84-2.591c-1.968-0.186-3.658,0.241-5.189,1.348c-1.551,1.123-3.014,2.365-4.559,3.588
	c0.046-5.252,3.234-7.378,14.848-9.807c-5.129-1.532-9.405-0.425-13.571,2.841c1.581-5.279,3.982-6.574,13.864-7.941
	c-1.716-1.429-2.061-1.414-7.69,0.325c0.784-2.366,2.826-3.561,5.912-3.56c1.28,0,3.35,0.772,3.673-0.271
	c0.526-1.701-2.065-1.394-2.921-2.665c1.861-0.895,3.579-0.655,5.041,0.599c1.081,0.927,1.877,0.892,2.667-0.188
	c1.488-2.031,3.525-1.738,5.955-1.526c-1.375,1.458-3.313,1.47-4.382,3.091c1.933,0.757,4.716-0.5,5.779,2.47
	c-0.88,0.432-1.732,0.08-2.566-0.107c-1.29-0.291-2.496,0.06-3.663,0.513c-0.46,0.178-0.754,0.701-0.643,1.24
	c0.111,0.537,0.628,0.437,1.023,0.463c0.417,0.027,0.842,0.055,1.254,0.008c5.35-0.598,8.915,2.008,11.899,7.03
	c-4.158-1.764-7.601-4.219-11.995-3.147c6.438,0.62,11.121,3.76,14.513,9.985c-6.002-3.099-11.522-6.367-17.862-2.595
	c3.563,0.991,7.187,1.671,9.751,5.446c-3.766-0.678-7.245-1.275-10.634,0.026C64.558,62.569,62.94,62.631,61.334,62.574z"/>
<path fill-rule="evenodd" clip-rule="evenodd" fill="#E9AF15" d="M96.543,63.479c-5.82-0.056-10.451-4.817-10.36-10.652
	c0.089-5.692,4.794-10.309,10.495-10.298c5.796,0.011,10.563,4.793,10.523,10.557C107.162,58.867,102.375,63.534,96.543,63.479z"/>
<path fill-rule="evenodd" clip-rule="evenodd" fill="#E9AF15" d="M88.751,79.814c0.002,3.157,0.004,6.316,0.006,9.475
	c-0.034,4.069-0.067,8.14-0.104,12.209c-0.008,0.902,0.169,1.924-1.256,1.922c-1.483-0.003-1.179-1.098-1.188-1.954
	c-0.048-4.484-0.071-8.97-0.104-13.454c0-2.729,0.001-5.458,0.001-8.187c-0.047-0.78,0.643-2.045-0.796-2.036
	c-1.42,0.01-0.833,1.219-0.764,2.035c-0.247,2.578-0.245,5.157-0.004,7.735c-0.051,4.512-0.08,9.023-0.176,13.533
	c-0.02,0.884,0.454,2.26-1.203,2.21c-1.635-0.048-1.091-1.424-1.109-2.291c-0.098-4.678-0.117-9.358-0.164-14.037
	c0.213-2.381,0.229-4.761-0.002-7.141c0.047-0.82,0.631-2.053-0.79-2.053c-1.435,0-0.751,1.271-0.794,2.063
	c0,2.303,0,4.606,0.002,6.91c-0.031,4.835-0.046,9.67-0.108,14.504c-0.012,0.895,0.444,2.198-1.239,2.148
	c-1.644-0.049-1.169-1.34-1.182-2.232c-0.068-4.834-0.083-9.669-0.116-14.503c-0.001-2.275-0.002-4.549-0.003-6.823
	c0.295-4.503,0.295-4.503,5.023-4.512c0.418,0,0.836,0,1.254,0.001C88.463,75.349,88.463,75.349,88.751,79.814z"/>
<path fill-rule="evenodd" clip-rule="evenodd" fill="#7B0041" d="M61.334,62.574c1.606,0.057,3.224-0.005,4.792,0.45
	c0.024,4.231-0.853,8.37-1.306,12.553c-0.162,1.487-0.346,2.954,0.285,4.38c-0.049,3.364,0.156,6.68,1.885,9.698
	c1.155,6.079,5.504,10.628,7.972,16.115c-1.911,0.601-2.997,0.015-3.871-1.541c-2.316-4.128-4.761-8.184-7.155-12.268
	c-2.051-3.738-3.261-7.694-3.089-12.005C61.009,74.163,61.172,68.368,61.334,62.574z"/>
<path fill-rule="evenodd" clip-rule="evenodd" fill="#171793" d="M66.99,89.655c-1.729-3.019-1.934-6.334-1.885-9.698
	c4.185-0.036,8.369-0.073,12.554-0.109c0.001,2.274,0.002,4.548,0.003,6.823C73.861,86.799,70.364,88.006,66.99,89.655z"/>
<path fill-rule="evenodd" clip-rule="evenodd" fill="#66C996" d="M66.99,89.655c3.375-1.649,6.872-2.856,10.671-2.984
	c0.033,4.834,0.048,9.669,0.116,14.503c0.013,0.893-0.462,2.184,1.182,2.232c1.684,0.05,1.228-1.254,1.239-2.148
	c0.063-4.834,0.077-9.669,0.108-14.504c0.528,0.073,1.057,0.146,1.584,0.221c0.047,4.679,0.066,9.359,0.164,14.037
	c0.019,0.867-0.525,2.243,1.109,2.291c1.657,0.05,1.184-1.326,1.203-2.21c0.096-4.51,0.125-9.021,0.176-13.533
	c0.521,0.15,1.042,0.301,1.563,0.452c0.032,4.484,0.056,8.97,0.104,13.454c0.009,0.856-0.296,1.951,1.188,1.954
	c1.425,0.002,1.248-1.02,1.256-1.922c0.037-4.069,0.07-8.14,0.104-12.209c6.356,3.354,10.058,8.57,11.104,15.696
	c0.248,1.693-0.167,2.379-2.035,2.367c-12.945-0.085-25.892-0.108-38.837-0.061c-1.896,0.008-2.23-0.703-2.015-2.379
	c0.67-5.224,3.148-9.437,6.962-12.951c2.394,4.084,4.838,8.14,7.155,12.268c0.874,1.556,1.96,2.142,3.871,1.541
	C72.494,100.283,68.145,95.734,66.99,89.655z"/>
<path fill-rule="evenodd" clip-rule="evenodd" fill="#171793" d="M86.105,88.012c-0.521-0.151-1.041-0.302-1.563-0.452
	c-0.241-2.578-0.243-5.157,0.004-7.735c0.52,0,1.039,0,1.56,0.001C86.106,82.554,86.105,85.282,86.105,88.012z"/>
<path fill-rule="evenodd" clip-rule="evenodd" fill="#171793" d="M81.891,86.975c-0.527-0.074-1.056-0.147-1.584-0.221
	c-0.002-2.304-0.002-4.607-0.002-6.91c0.528-0.004,1.057-0.007,1.584-0.01C82.119,82.214,82.104,84.594,81.891,86.975z"/>
<path fill-rule="evenodd" clip-rule="evenodd" fill="#96CDE6" d="M81.889,79.834c-0.527,0.003-1.056,0.006-1.584,0.01
	c0.043-0.791-0.641-2.063,0.794-2.063C82.52,77.781,81.936,79.014,81.889,79.834z"/>
<path fill-rule="evenodd" clip-rule="evenodd" fill="#96CDE6" d="M86.106,79.825c-0.521-0.001-1.04-0.001-1.56-0.001
	c-0.069-0.816-0.656-2.025,0.764-2.035C86.749,77.78,86.06,79.045,86.106,79.825z"/>
</svg>
